G75*
%MOIN*%
%OFA0B0*%
%FSLAX25Y25*%
%IPPOS*%
%LPD*%
%AMOC8*
5,1,8,0,0,1.08239X$1,22.5*
%
%ADD10C,0.00000*%
%ADD11C,0.00600*%
%ADD12C,0.00400*%
%ADD13C,0.00040*%
%ADD14R,0.00787X0.00787*%
%ADD15R,0.00591X0.00984*%
D10*
X0016817Y0051800D02*
X0016317Y0449501D01*
X0576239Y0449501D01*
X0576739Y0051800D01*
X0016817Y0051800D01*
X0035321Y0076800D02*
X0035323Y0076961D01*
X0035329Y0077121D01*
X0035339Y0077282D01*
X0035353Y0077442D01*
X0035371Y0077601D01*
X0035392Y0077761D01*
X0035418Y0077919D01*
X0035448Y0078077D01*
X0035481Y0078234D01*
X0035519Y0078391D01*
X0035560Y0078546D01*
X0035605Y0078700D01*
X0035654Y0078853D01*
X0035707Y0079005D01*
X0035763Y0079155D01*
X0035823Y0079304D01*
X0035887Y0079452D01*
X0035954Y0079598D01*
X0036025Y0079742D01*
X0036100Y0079884D01*
X0036178Y0080025D01*
X0036259Y0080163D01*
X0036344Y0080300D01*
X0036433Y0080434D01*
X0036524Y0080566D01*
X0036619Y0080696D01*
X0036717Y0080823D01*
X0036818Y0080948D01*
X0036922Y0081071D01*
X0037029Y0081190D01*
X0037139Y0081307D01*
X0037252Y0081422D01*
X0037368Y0081533D01*
X0037486Y0081642D01*
X0037607Y0081747D01*
X0037731Y0081850D01*
X0037857Y0081950D01*
X0037986Y0082046D01*
X0038117Y0082139D01*
X0038250Y0082229D01*
X0038385Y0082316D01*
X0038523Y0082399D01*
X0038662Y0082478D01*
X0038804Y0082555D01*
X0038947Y0082628D01*
X0039092Y0082697D01*
X0039239Y0082762D01*
X0039387Y0082824D01*
X0039537Y0082883D01*
X0039688Y0082937D01*
X0039840Y0082988D01*
X0039994Y0083035D01*
X0040149Y0083078D01*
X0040304Y0083117D01*
X0040461Y0083153D01*
X0040619Y0083185D01*
X0040777Y0083212D01*
X0040936Y0083236D01*
X0041095Y0083256D01*
X0041255Y0083272D01*
X0041416Y0083284D01*
X0041576Y0083292D01*
X0041737Y0083296D01*
X0041897Y0083296D01*
X0042058Y0083292D01*
X0042218Y0083284D01*
X0042379Y0083272D01*
X0042539Y0083256D01*
X0042698Y0083236D01*
X0042857Y0083212D01*
X0043015Y0083185D01*
X0043173Y0083153D01*
X0043330Y0083117D01*
X0043485Y0083078D01*
X0043640Y0083035D01*
X0043794Y0082988D01*
X0043946Y0082937D01*
X0044097Y0082883D01*
X0044247Y0082824D01*
X0044395Y0082762D01*
X0044542Y0082697D01*
X0044687Y0082628D01*
X0044830Y0082555D01*
X0044972Y0082478D01*
X0045111Y0082399D01*
X0045249Y0082316D01*
X0045384Y0082229D01*
X0045517Y0082139D01*
X0045648Y0082046D01*
X0045777Y0081950D01*
X0045903Y0081850D01*
X0046027Y0081747D01*
X0046148Y0081642D01*
X0046266Y0081533D01*
X0046382Y0081422D01*
X0046495Y0081307D01*
X0046605Y0081190D01*
X0046712Y0081071D01*
X0046816Y0080948D01*
X0046917Y0080823D01*
X0047015Y0080696D01*
X0047110Y0080566D01*
X0047201Y0080434D01*
X0047290Y0080300D01*
X0047375Y0080163D01*
X0047456Y0080025D01*
X0047534Y0079884D01*
X0047609Y0079742D01*
X0047680Y0079598D01*
X0047747Y0079452D01*
X0047811Y0079304D01*
X0047871Y0079155D01*
X0047927Y0079005D01*
X0047980Y0078853D01*
X0048029Y0078700D01*
X0048074Y0078546D01*
X0048115Y0078391D01*
X0048153Y0078234D01*
X0048186Y0078077D01*
X0048216Y0077919D01*
X0048242Y0077761D01*
X0048263Y0077601D01*
X0048281Y0077442D01*
X0048295Y0077282D01*
X0048305Y0077121D01*
X0048311Y0076961D01*
X0048313Y0076800D01*
X0048311Y0076639D01*
X0048305Y0076479D01*
X0048295Y0076318D01*
X0048281Y0076158D01*
X0048263Y0075999D01*
X0048242Y0075839D01*
X0048216Y0075681D01*
X0048186Y0075523D01*
X0048153Y0075366D01*
X0048115Y0075209D01*
X0048074Y0075054D01*
X0048029Y0074900D01*
X0047980Y0074747D01*
X0047927Y0074595D01*
X0047871Y0074445D01*
X0047811Y0074296D01*
X0047747Y0074148D01*
X0047680Y0074002D01*
X0047609Y0073858D01*
X0047534Y0073716D01*
X0047456Y0073575D01*
X0047375Y0073437D01*
X0047290Y0073300D01*
X0047201Y0073166D01*
X0047110Y0073034D01*
X0047015Y0072904D01*
X0046917Y0072777D01*
X0046816Y0072652D01*
X0046712Y0072529D01*
X0046605Y0072410D01*
X0046495Y0072293D01*
X0046382Y0072178D01*
X0046266Y0072067D01*
X0046148Y0071958D01*
X0046027Y0071853D01*
X0045903Y0071750D01*
X0045777Y0071650D01*
X0045648Y0071554D01*
X0045517Y0071461D01*
X0045384Y0071371D01*
X0045249Y0071284D01*
X0045111Y0071201D01*
X0044972Y0071122D01*
X0044830Y0071045D01*
X0044687Y0070972D01*
X0044542Y0070903D01*
X0044395Y0070838D01*
X0044247Y0070776D01*
X0044097Y0070717D01*
X0043946Y0070663D01*
X0043794Y0070612D01*
X0043640Y0070565D01*
X0043485Y0070522D01*
X0043330Y0070483D01*
X0043173Y0070447D01*
X0043015Y0070415D01*
X0042857Y0070388D01*
X0042698Y0070364D01*
X0042539Y0070344D01*
X0042379Y0070328D01*
X0042218Y0070316D01*
X0042058Y0070308D01*
X0041897Y0070304D01*
X0041737Y0070304D01*
X0041576Y0070308D01*
X0041416Y0070316D01*
X0041255Y0070328D01*
X0041095Y0070344D01*
X0040936Y0070364D01*
X0040777Y0070388D01*
X0040619Y0070415D01*
X0040461Y0070447D01*
X0040304Y0070483D01*
X0040149Y0070522D01*
X0039994Y0070565D01*
X0039840Y0070612D01*
X0039688Y0070663D01*
X0039537Y0070717D01*
X0039387Y0070776D01*
X0039239Y0070838D01*
X0039092Y0070903D01*
X0038947Y0070972D01*
X0038804Y0071045D01*
X0038662Y0071122D01*
X0038523Y0071201D01*
X0038385Y0071284D01*
X0038250Y0071371D01*
X0038117Y0071461D01*
X0037986Y0071554D01*
X0037857Y0071650D01*
X0037731Y0071750D01*
X0037607Y0071853D01*
X0037486Y0071958D01*
X0037368Y0072067D01*
X0037252Y0072178D01*
X0037139Y0072293D01*
X0037029Y0072410D01*
X0036922Y0072529D01*
X0036818Y0072652D01*
X0036717Y0072777D01*
X0036619Y0072904D01*
X0036524Y0073034D01*
X0036433Y0073166D01*
X0036344Y0073300D01*
X0036259Y0073437D01*
X0036178Y0073575D01*
X0036100Y0073716D01*
X0036025Y0073858D01*
X0035954Y0074002D01*
X0035887Y0074148D01*
X0035823Y0074296D01*
X0035763Y0074445D01*
X0035707Y0074595D01*
X0035654Y0074747D01*
X0035605Y0074900D01*
X0035560Y0075054D01*
X0035519Y0075209D01*
X0035481Y0075366D01*
X0035448Y0075523D01*
X0035418Y0075681D01*
X0035392Y0075839D01*
X0035371Y0075999D01*
X0035353Y0076158D01*
X0035339Y0076318D01*
X0035329Y0076479D01*
X0035323Y0076639D01*
X0035321Y0076800D01*
X0034652Y0116800D02*
X0034654Y0116893D01*
X0034660Y0116985D01*
X0034670Y0117077D01*
X0034684Y0117168D01*
X0034701Y0117259D01*
X0034723Y0117349D01*
X0034748Y0117438D01*
X0034777Y0117526D01*
X0034810Y0117612D01*
X0034847Y0117697D01*
X0034887Y0117781D01*
X0034931Y0117862D01*
X0034978Y0117942D01*
X0035028Y0118020D01*
X0035082Y0118095D01*
X0035139Y0118168D01*
X0035199Y0118238D01*
X0035262Y0118306D01*
X0035328Y0118371D01*
X0035396Y0118433D01*
X0035467Y0118493D01*
X0035541Y0118549D01*
X0035617Y0118602D01*
X0035695Y0118651D01*
X0035775Y0118698D01*
X0035857Y0118740D01*
X0035941Y0118780D01*
X0036026Y0118815D01*
X0036113Y0118847D01*
X0036201Y0118876D01*
X0036290Y0118900D01*
X0036380Y0118921D01*
X0036471Y0118937D01*
X0036563Y0118950D01*
X0036655Y0118959D01*
X0036748Y0118964D01*
X0036840Y0118965D01*
X0036933Y0118962D01*
X0037025Y0118955D01*
X0037117Y0118944D01*
X0037208Y0118929D01*
X0037299Y0118911D01*
X0037389Y0118888D01*
X0037477Y0118862D01*
X0037565Y0118832D01*
X0037651Y0118798D01*
X0037735Y0118761D01*
X0037818Y0118719D01*
X0037899Y0118675D01*
X0037979Y0118627D01*
X0038056Y0118576D01*
X0038130Y0118521D01*
X0038203Y0118463D01*
X0038273Y0118403D01*
X0038340Y0118339D01*
X0038404Y0118273D01*
X0038466Y0118203D01*
X0038524Y0118132D01*
X0038579Y0118058D01*
X0038631Y0117981D01*
X0038680Y0117902D01*
X0038726Y0117822D01*
X0038768Y0117739D01*
X0038806Y0117655D01*
X0038841Y0117569D01*
X0038872Y0117482D01*
X0038899Y0117394D01*
X0038922Y0117304D01*
X0038942Y0117214D01*
X0038958Y0117123D01*
X0038970Y0117031D01*
X0038978Y0116939D01*
X0038982Y0116846D01*
X0038982Y0116754D01*
X0038978Y0116661D01*
X0038970Y0116569D01*
X0038958Y0116477D01*
X0038942Y0116386D01*
X0038922Y0116296D01*
X0038899Y0116206D01*
X0038872Y0116118D01*
X0038841Y0116031D01*
X0038806Y0115945D01*
X0038768Y0115861D01*
X0038726Y0115778D01*
X0038680Y0115698D01*
X0038631Y0115619D01*
X0038579Y0115542D01*
X0038524Y0115468D01*
X0038466Y0115397D01*
X0038404Y0115327D01*
X0038340Y0115261D01*
X0038273Y0115197D01*
X0038203Y0115137D01*
X0038130Y0115079D01*
X0038056Y0115024D01*
X0037979Y0114973D01*
X0037900Y0114925D01*
X0037818Y0114881D01*
X0037735Y0114839D01*
X0037651Y0114802D01*
X0037565Y0114768D01*
X0037477Y0114738D01*
X0037389Y0114712D01*
X0037299Y0114689D01*
X0037208Y0114671D01*
X0037117Y0114656D01*
X0037025Y0114645D01*
X0036933Y0114638D01*
X0036840Y0114635D01*
X0036748Y0114636D01*
X0036655Y0114641D01*
X0036563Y0114650D01*
X0036471Y0114663D01*
X0036380Y0114679D01*
X0036290Y0114700D01*
X0036201Y0114724D01*
X0036113Y0114753D01*
X0036026Y0114785D01*
X0035941Y0114820D01*
X0035857Y0114860D01*
X0035775Y0114902D01*
X0035695Y0114949D01*
X0035617Y0114998D01*
X0035541Y0115051D01*
X0035467Y0115107D01*
X0035396Y0115167D01*
X0035328Y0115229D01*
X0035262Y0115294D01*
X0035199Y0115362D01*
X0035139Y0115432D01*
X0035082Y0115505D01*
X0035028Y0115580D01*
X0034978Y0115658D01*
X0034931Y0115738D01*
X0034887Y0115819D01*
X0034847Y0115903D01*
X0034810Y0115988D01*
X0034777Y0116074D01*
X0034748Y0116162D01*
X0034723Y0116251D01*
X0034701Y0116341D01*
X0034684Y0116432D01*
X0034670Y0116523D01*
X0034660Y0116615D01*
X0034654Y0116707D01*
X0034652Y0116800D01*
X0064652Y0176800D02*
X0064654Y0176893D01*
X0064660Y0176985D01*
X0064670Y0177077D01*
X0064684Y0177168D01*
X0064701Y0177259D01*
X0064723Y0177349D01*
X0064748Y0177438D01*
X0064777Y0177526D01*
X0064810Y0177612D01*
X0064847Y0177697D01*
X0064887Y0177781D01*
X0064931Y0177862D01*
X0064978Y0177942D01*
X0065028Y0178020D01*
X0065082Y0178095D01*
X0065139Y0178168D01*
X0065199Y0178238D01*
X0065262Y0178306D01*
X0065328Y0178371D01*
X0065396Y0178433D01*
X0065467Y0178493D01*
X0065541Y0178549D01*
X0065617Y0178602D01*
X0065695Y0178651D01*
X0065775Y0178698D01*
X0065857Y0178740D01*
X0065941Y0178780D01*
X0066026Y0178815D01*
X0066113Y0178847D01*
X0066201Y0178876D01*
X0066290Y0178900D01*
X0066380Y0178921D01*
X0066471Y0178937D01*
X0066563Y0178950D01*
X0066655Y0178959D01*
X0066748Y0178964D01*
X0066840Y0178965D01*
X0066933Y0178962D01*
X0067025Y0178955D01*
X0067117Y0178944D01*
X0067208Y0178929D01*
X0067299Y0178911D01*
X0067389Y0178888D01*
X0067477Y0178862D01*
X0067565Y0178832D01*
X0067651Y0178798D01*
X0067735Y0178761D01*
X0067818Y0178719D01*
X0067899Y0178675D01*
X0067979Y0178627D01*
X0068056Y0178576D01*
X0068130Y0178521D01*
X0068203Y0178463D01*
X0068273Y0178403D01*
X0068340Y0178339D01*
X0068404Y0178273D01*
X0068466Y0178203D01*
X0068524Y0178132D01*
X0068579Y0178058D01*
X0068631Y0177981D01*
X0068680Y0177902D01*
X0068726Y0177822D01*
X0068768Y0177739D01*
X0068806Y0177655D01*
X0068841Y0177569D01*
X0068872Y0177482D01*
X0068899Y0177394D01*
X0068922Y0177304D01*
X0068942Y0177214D01*
X0068958Y0177123D01*
X0068970Y0177031D01*
X0068978Y0176939D01*
X0068982Y0176846D01*
X0068982Y0176754D01*
X0068978Y0176661D01*
X0068970Y0176569D01*
X0068958Y0176477D01*
X0068942Y0176386D01*
X0068922Y0176296D01*
X0068899Y0176206D01*
X0068872Y0176118D01*
X0068841Y0176031D01*
X0068806Y0175945D01*
X0068768Y0175861D01*
X0068726Y0175778D01*
X0068680Y0175698D01*
X0068631Y0175619D01*
X0068579Y0175542D01*
X0068524Y0175468D01*
X0068466Y0175397D01*
X0068404Y0175327D01*
X0068340Y0175261D01*
X0068273Y0175197D01*
X0068203Y0175137D01*
X0068130Y0175079D01*
X0068056Y0175024D01*
X0067979Y0174973D01*
X0067900Y0174925D01*
X0067818Y0174881D01*
X0067735Y0174839D01*
X0067651Y0174802D01*
X0067565Y0174768D01*
X0067477Y0174738D01*
X0067389Y0174712D01*
X0067299Y0174689D01*
X0067208Y0174671D01*
X0067117Y0174656D01*
X0067025Y0174645D01*
X0066933Y0174638D01*
X0066840Y0174635D01*
X0066748Y0174636D01*
X0066655Y0174641D01*
X0066563Y0174650D01*
X0066471Y0174663D01*
X0066380Y0174679D01*
X0066290Y0174700D01*
X0066201Y0174724D01*
X0066113Y0174753D01*
X0066026Y0174785D01*
X0065941Y0174820D01*
X0065857Y0174860D01*
X0065775Y0174902D01*
X0065695Y0174949D01*
X0065617Y0174998D01*
X0065541Y0175051D01*
X0065467Y0175107D01*
X0065396Y0175167D01*
X0065328Y0175229D01*
X0065262Y0175294D01*
X0065199Y0175362D01*
X0065139Y0175432D01*
X0065082Y0175505D01*
X0065028Y0175580D01*
X0064978Y0175658D01*
X0064931Y0175738D01*
X0064887Y0175819D01*
X0064847Y0175903D01*
X0064810Y0175988D01*
X0064777Y0176074D01*
X0064748Y0176162D01*
X0064723Y0176251D01*
X0064701Y0176341D01*
X0064684Y0176432D01*
X0064670Y0176523D01*
X0064660Y0176615D01*
X0064654Y0176707D01*
X0064652Y0176800D01*
X0190262Y0089068D02*
X0190264Y0089178D01*
X0190270Y0089288D01*
X0190280Y0089398D01*
X0190294Y0089507D01*
X0190312Y0089616D01*
X0190333Y0089724D01*
X0190359Y0089831D01*
X0190388Y0089937D01*
X0190422Y0090042D01*
X0190459Y0090146D01*
X0190500Y0090248D01*
X0190544Y0090349D01*
X0190592Y0090448D01*
X0190644Y0090546D01*
X0190699Y0090641D01*
X0190757Y0090734D01*
X0190819Y0090825D01*
X0190884Y0090914D01*
X0190952Y0091001D01*
X0191024Y0091085D01*
X0191098Y0091166D01*
X0191175Y0091245D01*
X0191255Y0091321D01*
X0191338Y0091393D01*
X0191423Y0091463D01*
X0191511Y0091530D01*
X0191601Y0091593D01*
X0191693Y0091653D01*
X0191787Y0091710D01*
X0191884Y0091764D01*
X0191982Y0091813D01*
X0192082Y0091860D01*
X0192184Y0091902D01*
X0192287Y0091941D01*
X0192391Y0091976D01*
X0192497Y0092008D01*
X0192603Y0092035D01*
X0192711Y0092059D01*
X0192819Y0092079D01*
X0192928Y0092095D01*
X0193038Y0092107D01*
X0193148Y0092115D01*
X0193258Y0092119D01*
X0193368Y0092119D01*
X0193478Y0092115D01*
X0193588Y0092107D01*
X0193698Y0092095D01*
X0193807Y0092079D01*
X0193915Y0092059D01*
X0194023Y0092035D01*
X0194129Y0092008D01*
X0194235Y0091976D01*
X0194339Y0091941D01*
X0194442Y0091902D01*
X0194544Y0091860D01*
X0194644Y0091813D01*
X0194742Y0091764D01*
X0194838Y0091710D01*
X0194933Y0091653D01*
X0195025Y0091593D01*
X0195115Y0091530D01*
X0195203Y0091463D01*
X0195288Y0091393D01*
X0195371Y0091321D01*
X0195451Y0091245D01*
X0195528Y0091166D01*
X0195602Y0091085D01*
X0195674Y0091001D01*
X0195742Y0090914D01*
X0195807Y0090825D01*
X0195869Y0090734D01*
X0195927Y0090641D01*
X0195982Y0090546D01*
X0196034Y0090448D01*
X0196082Y0090349D01*
X0196126Y0090248D01*
X0196167Y0090146D01*
X0196204Y0090042D01*
X0196238Y0089937D01*
X0196267Y0089831D01*
X0196293Y0089724D01*
X0196314Y0089616D01*
X0196332Y0089507D01*
X0196346Y0089398D01*
X0196356Y0089288D01*
X0196362Y0089178D01*
X0196364Y0089068D01*
X0196362Y0088958D01*
X0196356Y0088848D01*
X0196346Y0088738D01*
X0196332Y0088629D01*
X0196314Y0088520D01*
X0196293Y0088412D01*
X0196267Y0088305D01*
X0196238Y0088199D01*
X0196204Y0088094D01*
X0196167Y0087990D01*
X0196126Y0087888D01*
X0196082Y0087787D01*
X0196034Y0087688D01*
X0195982Y0087590D01*
X0195927Y0087495D01*
X0195869Y0087402D01*
X0195807Y0087311D01*
X0195742Y0087222D01*
X0195674Y0087135D01*
X0195602Y0087051D01*
X0195528Y0086970D01*
X0195451Y0086891D01*
X0195371Y0086815D01*
X0195288Y0086743D01*
X0195203Y0086673D01*
X0195115Y0086606D01*
X0195025Y0086543D01*
X0194933Y0086483D01*
X0194839Y0086426D01*
X0194742Y0086372D01*
X0194644Y0086323D01*
X0194544Y0086276D01*
X0194442Y0086234D01*
X0194339Y0086195D01*
X0194235Y0086160D01*
X0194129Y0086128D01*
X0194023Y0086101D01*
X0193915Y0086077D01*
X0193807Y0086057D01*
X0193698Y0086041D01*
X0193588Y0086029D01*
X0193478Y0086021D01*
X0193368Y0086017D01*
X0193258Y0086017D01*
X0193148Y0086021D01*
X0193038Y0086029D01*
X0192928Y0086041D01*
X0192819Y0086057D01*
X0192711Y0086077D01*
X0192603Y0086101D01*
X0192497Y0086128D01*
X0192391Y0086160D01*
X0192287Y0086195D01*
X0192184Y0086234D01*
X0192082Y0086276D01*
X0191982Y0086323D01*
X0191884Y0086372D01*
X0191787Y0086426D01*
X0191693Y0086483D01*
X0191601Y0086543D01*
X0191511Y0086606D01*
X0191423Y0086673D01*
X0191338Y0086743D01*
X0191255Y0086815D01*
X0191175Y0086891D01*
X0191098Y0086970D01*
X0191024Y0087051D01*
X0190952Y0087135D01*
X0190884Y0087222D01*
X0190819Y0087311D01*
X0190757Y0087402D01*
X0190699Y0087495D01*
X0190644Y0087590D01*
X0190592Y0087688D01*
X0190544Y0087787D01*
X0190500Y0087888D01*
X0190459Y0087990D01*
X0190422Y0088094D01*
X0190388Y0088199D01*
X0190359Y0088305D01*
X0190333Y0088412D01*
X0190312Y0088520D01*
X0190294Y0088629D01*
X0190280Y0088738D01*
X0190270Y0088848D01*
X0190264Y0088958D01*
X0190262Y0089068D01*
X0285774Y0089068D02*
X0285776Y0089178D01*
X0285782Y0089288D01*
X0285792Y0089398D01*
X0285806Y0089507D01*
X0285824Y0089616D01*
X0285845Y0089724D01*
X0285871Y0089831D01*
X0285900Y0089937D01*
X0285934Y0090042D01*
X0285971Y0090146D01*
X0286012Y0090248D01*
X0286056Y0090349D01*
X0286104Y0090448D01*
X0286156Y0090546D01*
X0286211Y0090641D01*
X0286269Y0090734D01*
X0286331Y0090825D01*
X0286396Y0090914D01*
X0286464Y0091001D01*
X0286536Y0091085D01*
X0286610Y0091166D01*
X0286687Y0091245D01*
X0286767Y0091321D01*
X0286850Y0091393D01*
X0286935Y0091463D01*
X0287023Y0091530D01*
X0287113Y0091593D01*
X0287205Y0091653D01*
X0287299Y0091710D01*
X0287396Y0091764D01*
X0287494Y0091813D01*
X0287594Y0091860D01*
X0287696Y0091902D01*
X0287799Y0091941D01*
X0287903Y0091976D01*
X0288009Y0092008D01*
X0288115Y0092035D01*
X0288223Y0092059D01*
X0288331Y0092079D01*
X0288440Y0092095D01*
X0288550Y0092107D01*
X0288660Y0092115D01*
X0288770Y0092119D01*
X0288880Y0092119D01*
X0288990Y0092115D01*
X0289100Y0092107D01*
X0289210Y0092095D01*
X0289319Y0092079D01*
X0289427Y0092059D01*
X0289535Y0092035D01*
X0289641Y0092008D01*
X0289747Y0091976D01*
X0289851Y0091941D01*
X0289954Y0091902D01*
X0290056Y0091860D01*
X0290156Y0091813D01*
X0290254Y0091764D01*
X0290350Y0091710D01*
X0290445Y0091653D01*
X0290537Y0091593D01*
X0290627Y0091530D01*
X0290715Y0091463D01*
X0290800Y0091393D01*
X0290883Y0091321D01*
X0290963Y0091245D01*
X0291040Y0091166D01*
X0291114Y0091085D01*
X0291186Y0091001D01*
X0291254Y0090914D01*
X0291319Y0090825D01*
X0291381Y0090734D01*
X0291439Y0090641D01*
X0291494Y0090546D01*
X0291546Y0090448D01*
X0291594Y0090349D01*
X0291638Y0090248D01*
X0291679Y0090146D01*
X0291716Y0090042D01*
X0291750Y0089937D01*
X0291779Y0089831D01*
X0291805Y0089724D01*
X0291826Y0089616D01*
X0291844Y0089507D01*
X0291858Y0089398D01*
X0291868Y0089288D01*
X0291874Y0089178D01*
X0291876Y0089068D01*
X0291874Y0088958D01*
X0291868Y0088848D01*
X0291858Y0088738D01*
X0291844Y0088629D01*
X0291826Y0088520D01*
X0291805Y0088412D01*
X0291779Y0088305D01*
X0291750Y0088199D01*
X0291716Y0088094D01*
X0291679Y0087990D01*
X0291638Y0087888D01*
X0291594Y0087787D01*
X0291546Y0087688D01*
X0291494Y0087590D01*
X0291439Y0087495D01*
X0291381Y0087402D01*
X0291319Y0087311D01*
X0291254Y0087222D01*
X0291186Y0087135D01*
X0291114Y0087051D01*
X0291040Y0086970D01*
X0290963Y0086891D01*
X0290883Y0086815D01*
X0290800Y0086743D01*
X0290715Y0086673D01*
X0290627Y0086606D01*
X0290537Y0086543D01*
X0290445Y0086483D01*
X0290351Y0086426D01*
X0290254Y0086372D01*
X0290156Y0086323D01*
X0290056Y0086276D01*
X0289954Y0086234D01*
X0289851Y0086195D01*
X0289747Y0086160D01*
X0289641Y0086128D01*
X0289535Y0086101D01*
X0289427Y0086077D01*
X0289319Y0086057D01*
X0289210Y0086041D01*
X0289100Y0086029D01*
X0288990Y0086021D01*
X0288880Y0086017D01*
X0288770Y0086017D01*
X0288660Y0086021D01*
X0288550Y0086029D01*
X0288440Y0086041D01*
X0288331Y0086057D01*
X0288223Y0086077D01*
X0288115Y0086101D01*
X0288009Y0086128D01*
X0287903Y0086160D01*
X0287799Y0086195D01*
X0287696Y0086234D01*
X0287594Y0086276D01*
X0287494Y0086323D01*
X0287396Y0086372D01*
X0287299Y0086426D01*
X0287205Y0086483D01*
X0287113Y0086543D01*
X0287023Y0086606D01*
X0286935Y0086673D01*
X0286850Y0086743D01*
X0286767Y0086815D01*
X0286687Y0086891D01*
X0286610Y0086970D01*
X0286536Y0087051D01*
X0286464Y0087135D01*
X0286396Y0087222D01*
X0286331Y0087311D01*
X0286269Y0087402D01*
X0286211Y0087495D01*
X0286156Y0087590D01*
X0286104Y0087688D01*
X0286056Y0087787D01*
X0286012Y0087888D01*
X0285971Y0087990D01*
X0285934Y0088094D01*
X0285900Y0088199D01*
X0285871Y0088305D01*
X0285845Y0088412D01*
X0285824Y0088520D01*
X0285806Y0088629D01*
X0285792Y0088738D01*
X0285782Y0088848D01*
X0285776Y0088958D01*
X0285774Y0089068D01*
X0311018Y0094300D02*
X0311020Y0094458D01*
X0311026Y0094616D01*
X0311036Y0094774D01*
X0311050Y0094932D01*
X0311068Y0095089D01*
X0311089Y0095246D01*
X0311115Y0095402D01*
X0311145Y0095558D01*
X0311178Y0095713D01*
X0311216Y0095866D01*
X0311257Y0096019D01*
X0311302Y0096171D01*
X0311351Y0096322D01*
X0311404Y0096471D01*
X0311460Y0096619D01*
X0311520Y0096765D01*
X0311584Y0096910D01*
X0311652Y0097053D01*
X0311723Y0097195D01*
X0311797Y0097335D01*
X0311875Y0097472D01*
X0311957Y0097608D01*
X0312041Y0097742D01*
X0312130Y0097873D01*
X0312221Y0098002D01*
X0312316Y0098129D01*
X0312413Y0098254D01*
X0312514Y0098376D01*
X0312618Y0098495D01*
X0312725Y0098612D01*
X0312835Y0098726D01*
X0312948Y0098837D01*
X0313063Y0098946D01*
X0313181Y0099051D01*
X0313302Y0099153D01*
X0313425Y0099253D01*
X0313551Y0099349D01*
X0313679Y0099442D01*
X0313809Y0099532D01*
X0313942Y0099618D01*
X0314077Y0099702D01*
X0314213Y0099781D01*
X0314352Y0099858D01*
X0314493Y0099930D01*
X0314635Y0100000D01*
X0314779Y0100065D01*
X0314925Y0100127D01*
X0315072Y0100185D01*
X0315221Y0100240D01*
X0315371Y0100291D01*
X0315522Y0100338D01*
X0315674Y0100381D01*
X0315827Y0100420D01*
X0315982Y0100456D01*
X0316137Y0100487D01*
X0316293Y0100515D01*
X0316449Y0100539D01*
X0316606Y0100559D01*
X0316764Y0100575D01*
X0316921Y0100587D01*
X0317080Y0100595D01*
X0317238Y0100599D01*
X0317396Y0100599D01*
X0317554Y0100595D01*
X0317713Y0100587D01*
X0317870Y0100575D01*
X0318028Y0100559D01*
X0318185Y0100539D01*
X0318341Y0100515D01*
X0318497Y0100487D01*
X0318652Y0100456D01*
X0318807Y0100420D01*
X0318960Y0100381D01*
X0319112Y0100338D01*
X0319263Y0100291D01*
X0319413Y0100240D01*
X0319562Y0100185D01*
X0319709Y0100127D01*
X0319855Y0100065D01*
X0319999Y0100000D01*
X0320141Y0099930D01*
X0320282Y0099858D01*
X0320421Y0099781D01*
X0320557Y0099702D01*
X0320692Y0099618D01*
X0320825Y0099532D01*
X0320955Y0099442D01*
X0321083Y0099349D01*
X0321209Y0099253D01*
X0321332Y0099153D01*
X0321453Y0099051D01*
X0321571Y0098946D01*
X0321686Y0098837D01*
X0321799Y0098726D01*
X0321909Y0098612D01*
X0322016Y0098495D01*
X0322120Y0098376D01*
X0322221Y0098254D01*
X0322318Y0098129D01*
X0322413Y0098002D01*
X0322504Y0097873D01*
X0322593Y0097742D01*
X0322677Y0097608D01*
X0322759Y0097472D01*
X0322837Y0097335D01*
X0322911Y0097195D01*
X0322982Y0097053D01*
X0323050Y0096910D01*
X0323114Y0096765D01*
X0323174Y0096619D01*
X0323230Y0096471D01*
X0323283Y0096322D01*
X0323332Y0096171D01*
X0323377Y0096019D01*
X0323418Y0095866D01*
X0323456Y0095713D01*
X0323489Y0095558D01*
X0323519Y0095402D01*
X0323545Y0095246D01*
X0323566Y0095089D01*
X0323584Y0094932D01*
X0323598Y0094774D01*
X0323608Y0094616D01*
X0323614Y0094458D01*
X0323616Y0094300D01*
X0323614Y0094142D01*
X0323608Y0093984D01*
X0323598Y0093826D01*
X0323584Y0093668D01*
X0323566Y0093511D01*
X0323545Y0093354D01*
X0323519Y0093198D01*
X0323489Y0093042D01*
X0323456Y0092887D01*
X0323418Y0092734D01*
X0323377Y0092581D01*
X0323332Y0092429D01*
X0323283Y0092278D01*
X0323230Y0092129D01*
X0323174Y0091981D01*
X0323114Y0091835D01*
X0323050Y0091690D01*
X0322982Y0091547D01*
X0322911Y0091405D01*
X0322837Y0091265D01*
X0322759Y0091128D01*
X0322677Y0090992D01*
X0322593Y0090858D01*
X0322504Y0090727D01*
X0322413Y0090598D01*
X0322318Y0090471D01*
X0322221Y0090346D01*
X0322120Y0090224D01*
X0322016Y0090105D01*
X0321909Y0089988D01*
X0321799Y0089874D01*
X0321686Y0089763D01*
X0321571Y0089654D01*
X0321453Y0089549D01*
X0321332Y0089447D01*
X0321209Y0089347D01*
X0321083Y0089251D01*
X0320955Y0089158D01*
X0320825Y0089068D01*
X0320692Y0088982D01*
X0320557Y0088898D01*
X0320421Y0088819D01*
X0320282Y0088742D01*
X0320141Y0088670D01*
X0319999Y0088600D01*
X0319855Y0088535D01*
X0319709Y0088473D01*
X0319562Y0088415D01*
X0319413Y0088360D01*
X0319263Y0088309D01*
X0319112Y0088262D01*
X0318960Y0088219D01*
X0318807Y0088180D01*
X0318652Y0088144D01*
X0318497Y0088113D01*
X0318341Y0088085D01*
X0318185Y0088061D01*
X0318028Y0088041D01*
X0317870Y0088025D01*
X0317713Y0088013D01*
X0317554Y0088005D01*
X0317396Y0088001D01*
X0317238Y0088001D01*
X0317080Y0088005D01*
X0316921Y0088013D01*
X0316764Y0088025D01*
X0316606Y0088041D01*
X0316449Y0088061D01*
X0316293Y0088085D01*
X0316137Y0088113D01*
X0315982Y0088144D01*
X0315827Y0088180D01*
X0315674Y0088219D01*
X0315522Y0088262D01*
X0315371Y0088309D01*
X0315221Y0088360D01*
X0315072Y0088415D01*
X0314925Y0088473D01*
X0314779Y0088535D01*
X0314635Y0088600D01*
X0314493Y0088670D01*
X0314352Y0088742D01*
X0314213Y0088819D01*
X0314077Y0088898D01*
X0313942Y0088982D01*
X0313809Y0089068D01*
X0313679Y0089158D01*
X0313551Y0089251D01*
X0313425Y0089347D01*
X0313302Y0089447D01*
X0313181Y0089549D01*
X0313063Y0089654D01*
X0312948Y0089763D01*
X0312835Y0089874D01*
X0312725Y0089988D01*
X0312618Y0090105D01*
X0312514Y0090224D01*
X0312413Y0090346D01*
X0312316Y0090471D01*
X0312221Y0090598D01*
X0312130Y0090727D01*
X0312041Y0090858D01*
X0311957Y0090992D01*
X0311875Y0091128D01*
X0311797Y0091265D01*
X0311723Y0091405D01*
X0311652Y0091547D01*
X0311584Y0091690D01*
X0311520Y0091835D01*
X0311460Y0091981D01*
X0311404Y0092129D01*
X0311351Y0092278D01*
X0311302Y0092429D01*
X0311257Y0092581D01*
X0311216Y0092734D01*
X0311178Y0092887D01*
X0311145Y0093042D01*
X0311115Y0093198D01*
X0311089Y0093354D01*
X0311068Y0093511D01*
X0311050Y0093668D01*
X0311036Y0093826D01*
X0311026Y0093984D01*
X0311020Y0094142D01*
X0311018Y0094300D01*
X0351018Y0094300D02*
X0351020Y0094458D01*
X0351026Y0094616D01*
X0351036Y0094774D01*
X0351050Y0094932D01*
X0351068Y0095089D01*
X0351089Y0095246D01*
X0351115Y0095402D01*
X0351145Y0095558D01*
X0351178Y0095713D01*
X0351216Y0095866D01*
X0351257Y0096019D01*
X0351302Y0096171D01*
X0351351Y0096322D01*
X0351404Y0096471D01*
X0351460Y0096619D01*
X0351520Y0096765D01*
X0351584Y0096910D01*
X0351652Y0097053D01*
X0351723Y0097195D01*
X0351797Y0097335D01*
X0351875Y0097472D01*
X0351957Y0097608D01*
X0352041Y0097742D01*
X0352130Y0097873D01*
X0352221Y0098002D01*
X0352316Y0098129D01*
X0352413Y0098254D01*
X0352514Y0098376D01*
X0352618Y0098495D01*
X0352725Y0098612D01*
X0352835Y0098726D01*
X0352948Y0098837D01*
X0353063Y0098946D01*
X0353181Y0099051D01*
X0353302Y0099153D01*
X0353425Y0099253D01*
X0353551Y0099349D01*
X0353679Y0099442D01*
X0353809Y0099532D01*
X0353942Y0099618D01*
X0354077Y0099702D01*
X0354213Y0099781D01*
X0354352Y0099858D01*
X0354493Y0099930D01*
X0354635Y0100000D01*
X0354779Y0100065D01*
X0354925Y0100127D01*
X0355072Y0100185D01*
X0355221Y0100240D01*
X0355371Y0100291D01*
X0355522Y0100338D01*
X0355674Y0100381D01*
X0355827Y0100420D01*
X0355982Y0100456D01*
X0356137Y0100487D01*
X0356293Y0100515D01*
X0356449Y0100539D01*
X0356606Y0100559D01*
X0356764Y0100575D01*
X0356921Y0100587D01*
X0357080Y0100595D01*
X0357238Y0100599D01*
X0357396Y0100599D01*
X0357554Y0100595D01*
X0357713Y0100587D01*
X0357870Y0100575D01*
X0358028Y0100559D01*
X0358185Y0100539D01*
X0358341Y0100515D01*
X0358497Y0100487D01*
X0358652Y0100456D01*
X0358807Y0100420D01*
X0358960Y0100381D01*
X0359112Y0100338D01*
X0359263Y0100291D01*
X0359413Y0100240D01*
X0359562Y0100185D01*
X0359709Y0100127D01*
X0359855Y0100065D01*
X0359999Y0100000D01*
X0360141Y0099930D01*
X0360282Y0099858D01*
X0360421Y0099781D01*
X0360557Y0099702D01*
X0360692Y0099618D01*
X0360825Y0099532D01*
X0360955Y0099442D01*
X0361083Y0099349D01*
X0361209Y0099253D01*
X0361332Y0099153D01*
X0361453Y0099051D01*
X0361571Y0098946D01*
X0361686Y0098837D01*
X0361799Y0098726D01*
X0361909Y0098612D01*
X0362016Y0098495D01*
X0362120Y0098376D01*
X0362221Y0098254D01*
X0362318Y0098129D01*
X0362413Y0098002D01*
X0362504Y0097873D01*
X0362593Y0097742D01*
X0362677Y0097608D01*
X0362759Y0097472D01*
X0362837Y0097335D01*
X0362911Y0097195D01*
X0362982Y0097053D01*
X0363050Y0096910D01*
X0363114Y0096765D01*
X0363174Y0096619D01*
X0363230Y0096471D01*
X0363283Y0096322D01*
X0363332Y0096171D01*
X0363377Y0096019D01*
X0363418Y0095866D01*
X0363456Y0095713D01*
X0363489Y0095558D01*
X0363519Y0095402D01*
X0363545Y0095246D01*
X0363566Y0095089D01*
X0363584Y0094932D01*
X0363598Y0094774D01*
X0363608Y0094616D01*
X0363614Y0094458D01*
X0363616Y0094300D01*
X0363614Y0094142D01*
X0363608Y0093984D01*
X0363598Y0093826D01*
X0363584Y0093668D01*
X0363566Y0093511D01*
X0363545Y0093354D01*
X0363519Y0093198D01*
X0363489Y0093042D01*
X0363456Y0092887D01*
X0363418Y0092734D01*
X0363377Y0092581D01*
X0363332Y0092429D01*
X0363283Y0092278D01*
X0363230Y0092129D01*
X0363174Y0091981D01*
X0363114Y0091835D01*
X0363050Y0091690D01*
X0362982Y0091547D01*
X0362911Y0091405D01*
X0362837Y0091265D01*
X0362759Y0091128D01*
X0362677Y0090992D01*
X0362593Y0090858D01*
X0362504Y0090727D01*
X0362413Y0090598D01*
X0362318Y0090471D01*
X0362221Y0090346D01*
X0362120Y0090224D01*
X0362016Y0090105D01*
X0361909Y0089988D01*
X0361799Y0089874D01*
X0361686Y0089763D01*
X0361571Y0089654D01*
X0361453Y0089549D01*
X0361332Y0089447D01*
X0361209Y0089347D01*
X0361083Y0089251D01*
X0360955Y0089158D01*
X0360825Y0089068D01*
X0360692Y0088982D01*
X0360557Y0088898D01*
X0360421Y0088819D01*
X0360282Y0088742D01*
X0360141Y0088670D01*
X0359999Y0088600D01*
X0359855Y0088535D01*
X0359709Y0088473D01*
X0359562Y0088415D01*
X0359413Y0088360D01*
X0359263Y0088309D01*
X0359112Y0088262D01*
X0358960Y0088219D01*
X0358807Y0088180D01*
X0358652Y0088144D01*
X0358497Y0088113D01*
X0358341Y0088085D01*
X0358185Y0088061D01*
X0358028Y0088041D01*
X0357870Y0088025D01*
X0357713Y0088013D01*
X0357554Y0088005D01*
X0357396Y0088001D01*
X0357238Y0088001D01*
X0357080Y0088005D01*
X0356921Y0088013D01*
X0356764Y0088025D01*
X0356606Y0088041D01*
X0356449Y0088061D01*
X0356293Y0088085D01*
X0356137Y0088113D01*
X0355982Y0088144D01*
X0355827Y0088180D01*
X0355674Y0088219D01*
X0355522Y0088262D01*
X0355371Y0088309D01*
X0355221Y0088360D01*
X0355072Y0088415D01*
X0354925Y0088473D01*
X0354779Y0088535D01*
X0354635Y0088600D01*
X0354493Y0088670D01*
X0354352Y0088742D01*
X0354213Y0088819D01*
X0354077Y0088898D01*
X0353942Y0088982D01*
X0353809Y0089068D01*
X0353679Y0089158D01*
X0353551Y0089251D01*
X0353425Y0089347D01*
X0353302Y0089447D01*
X0353181Y0089549D01*
X0353063Y0089654D01*
X0352948Y0089763D01*
X0352835Y0089874D01*
X0352725Y0089988D01*
X0352618Y0090105D01*
X0352514Y0090224D01*
X0352413Y0090346D01*
X0352316Y0090471D01*
X0352221Y0090598D01*
X0352130Y0090727D01*
X0352041Y0090858D01*
X0351957Y0090992D01*
X0351875Y0091128D01*
X0351797Y0091265D01*
X0351723Y0091405D01*
X0351652Y0091547D01*
X0351584Y0091690D01*
X0351520Y0091835D01*
X0351460Y0091981D01*
X0351404Y0092129D01*
X0351351Y0092278D01*
X0351302Y0092429D01*
X0351257Y0092581D01*
X0351216Y0092734D01*
X0351178Y0092887D01*
X0351145Y0093042D01*
X0351115Y0093198D01*
X0351089Y0093354D01*
X0351068Y0093511D01*
X0351050Y0093668D01*
X0351036Y0093826D01*
X0351026Y0093984D01*
X0351020Y0094142D01*
X0351018Y0094300D01*
X0377670Y0076100D02*
X0377672Y0076197D01*
X0377678Y0076294D01*
X0377688Y0076390D01*
X0377702Y0076486D01*
X0377720Y0076582D01*
X0377741Y0076676D01*
X0377767Y0076770D01*
X0377796Y0076862D01*
X0377830Y0076953D01*
X0377866Y0077043D01*
X0377907Y0077131D01*
X0377951Y0077217D01*
X0377999Y0077302D01*
X0378050Y0077384D01*
X0378104Y0077465D01*
X0378162Y0077543D01*
X0378223Y0077618D01*
X0378286Y0077691D01*
X0378353Y0077762D01*
X0378423Y0077829D01*
X0378495Y0077894D01*
X0378570Y0077955D01*
X0378648Y0078014D01*
X0378727Y0078069D01*
X0378809Y0078121D01*
X0378893Y0078169D01*
X0378979Y0078214D01*
X0379067Y0078256D01*
X0379156Y0078294D01*
X0379247Y0078328D01*
X0379339Y0078358D01*
X0379432Y0078385D01*
X0379527Y0078407D01*
X0379622Y0078426D01*
X0379718Y0078441D01*
X0379814Y0078452D01*
X0379911Y0078459D01*
X0380008Y0078462D01*
X0380105Y0078461D01*
X0380202Y0078456D01*
X0380298Y0078447D01*
X0380394Y0078434D01*
X0380490Y0078417D01*
X0380585Y0078396D01*
X0380678Y0078372D01*
X0380771Y0078343D01*
X0380863Y0078311D01*
X0380953Y0078275D01*
X0381041Y0078236D01*
X0381128Y0078192D01*
X0381213Y0078146D01*
X0381296Y0078095D01*
X0381377Y0078042D01*
X0381455Y0077985D01*
X0381532Y0077925D01*
X0381605Y0077862D01*
X0381676Y0077796D01*
X0381744Y0077727D01*
X0381810Y0077655D01*
X0381872Y0077581D01*
X0381931Y0077504D01*
X0381987Y0077425D01*
X0382040Y0077343D01*
X0382090Y0077260D01*
X0382135Y0077174D01*
X0382178Y0077087D01*
X0382217Y0076998D01*
X0382252Y0076908D01*
X0382283Y0076816D01*
X0382310Y0076723D01*
X0382334Y0076629D01*
X0382354Y0076534D01*
X0382370Y0076438D01*
X0382382Y0076342D01*
X0382390Y0076245D01*
X0382394Y0076148D01*
X0382394Y0076052D01*
X0382390Y0075955D01*
X0382382Y0075858D01*
X0382370Y0075762D01*
X0382354Y0075666D01*
X0382334Y0075571D01*
X0382310Y0075477D01*
X0382283Y0075384D01*
X0382252Y0075292D01*
X0382217Y0075202D01*
X0382178Y0075113D01*
X0382135Y0075026D01*
X0382090Y0074940D01*
X0382040Y0074857D01*
X0381987Y0074775D01*
X0381931Y0074696D01*
X0381872Y0074619D01*
X0381810Y0074545D01*
X0381744Y0074473D01*
X0381676Y0074404D01*
X0381605Y0074338D01*
X0381532Y0074275D01*
X0381455Y0074215D01*
X0381377Y0074158D01*
X0381296Y0074105D01*
X0381213Y0074054D01*
X0381128Y0074008D01*
X0381041Y0073964D01*
X0380953Y0073925D01*
X0380863Y0073889D01*
X0380771Y0073857D01*
X0380678Y0073828D01*
X0380585Y0073804D01*
X0380490Y0073783D01*
X0380394Y0073766D01*
X0380298Y0073753D01*
X0380202Y0073744D01*
X0380105Y0073739D01*
X0380008Y0073738D01*
X0379911Y0073741D01*
X0379814Y0073748D01*
X0379718Y0073759D01*
X0379622Y0073774D01*
X0379527Y0073793D01*
X0379432Y0073815D01*
X0379339Y0073842D01*
X0379247Y0073872D01*
X0379156Y0073906D01*
X0379067Y0073944D01*
X0378979Y0073986D01*
X0378893Y0074031D01*
X0378809Y0074079D01*
X0378727Y0074131D01*
X0378648Y0074186D01*
X0378570Y0074245D01*
X0378495Y0074306D01*
X0378423Y0074371D01*
X0378353Y0074438D01*
X0378286Y0074509D01*
X0378223Y0074582D01*
X0378162Y0074657D01*
X0378104Y0074735D01*
X0378050Y0074816D01*
X0377999Y0074898D01*
X0377951Y0074983D01*
X0377907Y0075069D01*
X0377866Y0075157D01*
X0377830Y0075247D01*
X0377796Y0075338D01*
X0377767Y0075430D01*
X0377741Y0075524D01*
X0377720Y0075618D01*
X0377702Y0075714D01*
X0377688Y0075810D01*
X0377678Y0075906D01*
X0377672Y0076003D01*
X0377670Y0076100D01*
X0377670Y0066257D02*
X0377672Y0066354D01*
X0377678Y0066451D01*
X0377688Y0066547D01*
X0377702Y0066643D01*
X0377720Y0066739D01*
X0377741Y0066833D01*
X0377767Y0066927D01*
X0377796Y0067019D01*
X0377830Y0067110D01*
X0377866Y0067200D01*
X0377907Y0067288D01*
X0377951Y0067374D01*
X0377999Y0067459D01*
X0378050Y0067541D01*
X0378104Y0067622D01*
X0378162Y0067700D01*
X0378223Y0067775D01*
X0378286Y0067848D01*
X0378353Y0067919D01*
X0378423Y0067986D01*
X0378495Y0068051D01*
X0378570Y0068112D01*
X0378648Y0068171D01*
X0378727Y0068226D01*
X0378809Y0068278D01*
X0378893Y0068326D01*
X0378979Y0068371D01*
X0379067Y0068413D01*
X0379156Y0068451D01*
X0379247Y0068485D01*
X0379339Y0068515D01*
X0379432Y0068542D01*
X0379527Y0068564D01*
X0379622Y0068583D01*
X0379718Y0068598D01*
X0379814Y0068609D01*
X0379911Y0068616D01*
X0380008Y0068619D01*
X0380105Y0068618D01*
X0380202Y0068613D01*
X0380298Y0068604D01*
X0380394Y0068591D01*
X0380490Y0068574D01*
X0380585Y0068553D01*
X0380678Y0068529D01*
X0380771Y0068500D01*
X0380863Y0068468D01*
X0380953Y0068432D01*
X0381041Y0068393D01*
X0381128Y0068349D01*
X0381213Y0068303D01*
X0381296Y0068252D01*
X0381377Y0068199D01*
X0381455Y0068142D01*
X0381532Y0068082D01*
X0381605Y0068019D01*
X0381676Y0067953D01*
X0381744Y0067884D01*
X0381810Y0067812D01*
X0381872Y0067738D01*
X0381931Y0067661D01*
X0381987Y0067582D01*
X0382040Y0067500D01*
X0382090Y0067417D01*
X0382135Y0067331D01*
X0382178Y0067244D01*
X0382217Y0067155D01*
X0382252Y0067065D01*
X0382283Y0066973D01*
X0382310Y0066880D01*
X0382334Y0066786D01*
X0382354Y0066691D01*
X0382370Y0066595D01*
X0382382Y0066499D01*
X0382390Y0066402D01*
X0382394Y0066305D01*
X0382394Y0066209D01*
X0382390Y0066112D01*
X0382382Y0066015D01*
X0382370Y0065919D01*
X0382354Y0065823D01*
X0382334Y0065728D01*
X0382310Y0065634D01*
X0382283Y0065541D01*
X0382252Y0065449D01*
X0382217Y0065359D01*
X0382178Y0065270D01*
X0382135Y0065183D01*
X0382090Y0065097D01*
X0382040Y0065014D01*
X0381987Y0064932D01*
X0381931Y0064853D01*
X0381872Y0064776D01*
X0381810Y0064702D01*
X0381744Y0064630D01*
X0381676Y0064561D01*
X0381605Y0064495D01*
X0381532Y0064432D01*
X0381455Y0064372D01*
X0381377Y0064315D01*
X0381296Y0064262D01*
X0381213Y0064211D01*
X0381128Y0064165D01*
X0381041Y0064121D01*
X0380953Y0064082D01*
X0380863Y0064046D01*
X0380771Y0064014D01*
X0380678Y0063985D01*
X0380585Y0063961D01*
X0380490Y0063940D01*
X0380394Y0063923D01*
X0380298Y0063910D01*
X0380202Y0063901D01*
X0380105Y0063896D01*
X0380008Y0063895D01*
X0379911Y0063898D01*
X0379814Y0063905D01*
X0379718Y0063916D01*
X0379622Y0063931D01*
X0379527Y0063950D01*
X0379432Y0063972D01*
X0379339Y0063999D01*
X0379247Y0064029D01*
X0379156Y0064063D01*
X0379067Y0064101D01*
X0378979Y0064143D01*
X0378893Y0064188D01*
X0378809Y0064236D01*
X0378727Y0064288D01*
X0378648Y0064343D01*
X0378570Y0064402D01*
X0378495Y0064463D01*
X0378423Y0064528D01*
X0378353Y0064595D01*
X0378286Y0064666D01*
X0378223Y0064739D01*
X0378162Y0064814D01*
X0378104Y0064892D01*
X0378050Y0064973D01*
X0377999Y0065055D01*
X0377951Y0065140D01*
X0377907Y0065226D01*
X0377866Y0065314D01*
X0377830Y0065404D01*
X0377796Y0065495D01*
X0377767Y0065587D01*
X0377741Y0065681D01*
X0377720Y0065775D01*
X0377702Y0065871D01*
X0377688Y0065967D01*
X0377678Y0066063D01*
X0377672Y0066160D01*
X0377670Y0066257D01*
X0397355Y0095785D02*
X0397357Y0095882D01*
X0397363Y0095979D01*
X0397373Y0096075D01*
X0397387Y0096171D01*
X0397405Y0096267D01*
X0397426Y0096361D01*
X0397452Y0096455D01*
X0397481Y0096547D01*
X0397515Y0096638D01*
X0397551Y0096728D01*
X0397592Y0096816D01*
X0397636Y0096902D01*
X0397684Y0096987D01*
X0397735Y0097069D01*
X0397789Y0097150D01*
X0397847Y0097228D01*
X0397908Y0097303D01*
X0397971Y0097376D01*
X0398038Y0097447D01*
X0398108Y0097514D01*
X0398180Y0097579D01*
X0398255Y0097640D01*
X0398333Y0097699D01*
X0398412Y0097754D01*
X0398494Y0097806D01*
X0398578Y0097854D01*
X0398664Y0097899D01*
X0398752Y0097941D01*
X0398841Y0097979D01*
X0398932Y0098013D01*
X0399024Y0098043D01*
X0399117Y0098070D01*
X0399212Y0098092D01*
X0399307Y0098111D01*
X0399403Y0098126D01*
X0399499Y0098137D01*
X0399596Y0098144D01*
X0399693Y0098147D01*
X0399790Y0098146D01*
X0399887Y0098141D01*
X0399983Y0098132D01*
X0400079Y0098119D01*
X0400175Y0098102D01*
X0400270Y0098081D01*
X0400363Y0098057D01*
X0400456Y0098028D01*
X0400548Y0097996D01*
X0400638Y0097960D01*
X0400726Y0097921D01*
X0400813Y0097877D01*
X0400898Y0097831D01*
X0400981Y0097780D01*
X0401062Y0097727D01*
X0401140Y0097670D01*
X0401217Y0097610D01*
X0401290Y0097547D01*
X0401361Y0097481D01*
X0401429Y0097412D01*
X0401495Y0097340D01*
X0401557Y0097266D01*
X0401616Y0097189D01*
X0401672Y0097110D01*
X0401725Y0097028D01*
X0401775Y0096945D01*
X0401820Y0096859D01*
X0401863Y0096772D01*
X0401902Y0096683D01*
X0401937Y0096593D01*
X0401968Y0096501D01*
X0401995Y0096408D01*
X0402019Y0096314D01*
X0402039Y0096219D01*
X0402055Y0096123D01*
X0402067Y0096027D01*
X0402075Y0095930D01*
X0402079Y0095833D01*
X0402079Y0095737D01*
X0402075Y0095640D01*
X0402067Y0095543D01*
X0402055Y0095447D01*
X0402039Y0095351D01*
X0402019Y0095256D01*
X0401995Y0095162D01*
X0401968Y0095069D01*
X0401937Y0094977D01*
X0401902Y0094887D01*
X0401863Y0094798D01*
X0401820Y0094711D01*
X0401775Y0094625D01*
X0401725Y0094542D01*
X0401672Y0094460D01*
X0401616Y0094381D01*
X0401557Y0094304D01*
X0401495Y0094230D01*
X0401429Y0094158D01*
X0401361Y0094089D01*
X0401290Y0094023D01*
X0401217Y0093960D01*
X0401140Y0093900D01*
X0401062Y0093843D01*
X0400981Y0093790D01*
X0400898Y0093739D01*
X0400813Y0093693D01*
X0400726Y0093649D01*
X0400638Y0093610D01*
X0400548Y0093574D01*
X0400456Y0093542D01*
X0400363Y0093513D01*
X0400270Y0093489D01*
X0400175Y0093468D01*
X0400079Y0093451D01*
X0399983Y0093438D01*
X0399887Y0093429D01*
X0399790Y0093424D01*
X0399693Y0093423D01*
X0399596Y0093426D01*
X0399499Y0093433D01*
X0399403Y0093444D01*
X0399307Y0093459D01*
X0399212Y0093478D01*
X0399117Y0093500D01*
X0399024Y0093527D01*
X0398932Y0093557D01*
X0398841Y0093591D01*
X0398752Y0093629D01*
X0398664Y0093671D01*
X0398578Y0093716D01*
X0398494Y0093764D01*
X0398412Y0093816D01*
X0398333Y0093871D01*
X0398255Y0093930D01*
X0398180Y0093991D01*
X0398108Y0094056D01*
X0398038Y0094123D01*
X0397971Y0094194D01*
X0397908Y0094267D01*
X0397847Y0094342D01*
X0397789Y0094420D01*
X0397735Y0094501D01*
X0397684Y0094583D01*
X0397636Y0094668D01*
X0397592Y0094754D01*
X0397551Y0094842D01*
X0397515Y0094932D01*
X0397481Y0095023D01*
X0397452Y0095115D01*
X0397426Y0095209D01*
X0397405Y0095303D01*
X0397387Y0095399D01*
X0397373Y0095495D01*
X0397363Y0095591D01*
X0397357Y0095688D01*
X0397355Y0095785D01*
X0417040Y0076100D02*
X0417042Y0076197D01*
X0417048Y0076294D01*
X0417058Y0076390D01*
X0417072Y0076486D01*
X0417090Y0076582D01*
X0417111Y0076676D01*
X0417137Y0076770D01*
X0417166Y0076862D01*
X0417200Y0076953D01*
X0417236Y0077043D01*
X0417277Y0077131D01*
X0417321Y0077217D01*
X0417369Y0077302D01*
X0417420Y0077384D01*
X0417474Y0077465D01*
X0417532Y0077543D01*
X0417593Y0077618D01*
X0417656Y0077691D01*
X0417723Y0077762D01*
X0417793Y0077829D01*
X0417865Y0077894D01*
X0417940Y0077955D01*
X0418018Y0078014D01*
X0418097Y0078069D01*
X0418179Y0078121D01*
X0418263Y0078169D01*
X0418349Y0078214D01*
X0418437Y0078256D01*
X0418526Y0078294D01*
X0418617Y0078328D01*
X0418709Y0078358D01*
X0418802Y0078385D01*
X0418897Y0078407D01*
X0418992Y0078426D01*
X0419088Y0078441D01*
X0419184Y0078452D01*
X0419281Y0078459D01*
X0419378Y0078462D01*
X0419475Y0078461D01*
X0419572Y0078456D01*
X0419668Y0078447D01*
X0419764Y0078434D01*
X0419860Y0078417D01*
X0419955Y0078396D01*
X0420048Y0078372D01*
X0420141Y0078343D01*
X0420233Y0078311D01*
X0420323Y0078275D01*
X0420411Y0078236D01*
X0420498Y0078192D01*
X0420583Y0078146D01*
X0420666Y0078095D01*
X0420747Y0078042D01*
X0420825Y0077985D01*
X0420902Y0077925D01*
X0420975Y0077862D01*
X0421046Y0077796D01*
X0421114Y0077727D01*
X0421180Y0077655D01*
X0421242Y0077581D01*
X0421301Y0077504D01*
X0421357Y0077425D01*
X0421410Y0077343D01*
X0421460Y0077260D01*
X0421505Y0077174D01*
X0421548Y0077087D01*
X0421587Y0076998D01*
X0421622Y0076908D01*
X0421653Y0076816D01*
X0421680Y0076723D01*
X0421704Y0076629D01*
X0421724Y0076534D01*
X0421740Y0076438D01*
X0421752Y0076342D01*
X0421760Y0076245D01*
X0421764Y0076148D01*
X0421764Y0076052D01*
X0421760Y0075955D01*
X0421752Y0075858D01*
X0421740Y0075762D01*
X0421724Y0075666D01*
X0421704Y0075571D01*
X0421680Y0075477D01*
X0421653Y0075384D01*
X0421622Y0075292D01*
X0421587Y0075202D01*
X0421548Y0075113D01*
X0421505Y0075026D01*
X0421460Y0074940D01*
X0421410Y0074857D01*
X0421357Y0074775D01*
X0421301Y0074696D01*
X0421242Y0074619D01*
X0421180Y0074545D01*
X0421114Y0074473D01*
X0421046Y0074404D01*
X0420975Y0074338D01*
X0420902Y0074275D01*
X0420825Y0074215D01*
X0420747Y0074158D01*
X0420666Y0074105D01*
X0420583Y0074054D01*
X0420498Y0074008D01*
X0420411Y0073964D01*
X0420323Y0073925D01*
X0420233Y0073889D01*
X0420141Y0073857D01*
X0420048Y0073828D01*
X0419955Y0073804D01*
X0419860Y0073783D01*
X0419764Y0073766D01*
X0419668Y0073753D01*
X0419572Y0073744D01*
X0419475Y0073739D01*
X0419378Y0073738D01*
X0419281Y0073741D01*
X0419184Y0073748D01*
X0419088Y0073759D01*
X0418992Y0073774D01*
X0418897Y0073793D01*
X0418802Y0073815D01*
X0418709Y0073842D01*
X0418617Y0073872D01*
X0418526Y0073906D01*
X0418437Y0073944D01*
X0418349Y0073986D01*
X0418263Y0074031D01*
X0418179Y0074079D01*
X0418097Y0074131D01*
X0418018Y0074186D01*
X0417940Y0074245D01*
X0417865Y0074306D01*
X0417793Y0074371D01*
X0417723Y0074438D01*
X0417656Y0074509D01*
X0417593Y0074582D01*
X0417532Y0074657D01*
X0417474Y0074735D01*
X0417420Y0074816D01*
X0417369Y0074898D01*
X0417321Y0074983D01*
X0417277Y0075069D01*
X0417236Y0075157D01*
X0417200Y0075247D01*
X0417166Y0075338D01*
X0417137Y0075430D01*
X0417111Y0075524D01*
X0417090Y0075618D01*
X0417072Y0075714D01*
X0417058Y0075810D01*
X0417048Y0075906D01*
X0417042Y0076003D01*
X0417040Y0076100D01*
X0417040Y0066257D02*
X0417042Y0066354D01*
X0417048Y0066451D01*
X0417058Y0066547D01*
X0417072Y0066643D01*
X0417090Y0066739D01*
X0417111Y0066833D01*
X0417137Y0066927D01*
X0417166Y0067019D01*
X0417200Y0067110D01*
X0417236Y0067200D01*
X0417277Y0067288D01*
X0417321Y0067374D01*
X0417369Y0067459D01*
X0417420Y0067541D01*
X0417474Y0067622D01*
X0417532Y0067700D01*
X0417593Y0067775D01*
X0417656Y0067848D01*
X0417723Y0067919D01*
X0417793Y0067986D01*
X0417865Y0068051D01*
X0417940Y0068112D01*
X0418018Y0068171D01*
X0418097Y0068226D01*
X0418179Y0068278D01*
X0418263Y0068326D01*
X0418349Y0068371D01*
X0418437Y0068413D01*
X0418526Y0068451D01*
X0418617Y0068485D01*
X0418709Y0068515D01*
X0418802Y0068542D01*
X0418897Y0068564D01*
X0418992Y0068583D01*
X0419088Y0068598D01*
X0419184Y0068609D01*
X0419281Y0068616D01*
X0419378Y0068619D01*
X0419475Y0068618D01*
X0419572Y0068613D01*
X0419668Y0068604D01*
X0419764Y0068591D01*
X0419860Y0068574D01*
X0419955Y0068553D01*
X0420048Y0068529D01*
X0420141Y0068500D01*
X0420233Y0068468D01*
X0420323Y0068432D01*
X0420411Y0068393D01*
X0420498Y0068349D01*
X0420583Y0068303D01*
X0420666Y0068252D01*
X0420747Y0068199D01*
X0420825Y0068142D01*
X0420902Y0068082D01*
X0420975Y0068019D01*
X0421046Y0067953D01*
X0421114Y0067884D01*
X0421180Y0067812D01*
X0421242Y0067738D01*
X0421301Y0067661D01*
X0421357Y0067582D01*
X0421410Y0067500D01*
X0421460Y0067417D01*
X0421505Y0067331D01*
X0421548Y0067244D01*
X0421587Y0067155D01*
X0421622Y0067065D01*
X0421653Y0066973D01*
X0421680Y0066880D01*
X0421704Y0066786D01*
X0421724Y0066691D01*
X0421740Y0066595D01*
X0421752Y0066499D01*
X0421760Y0066402D01*
X0421764Y0066305D01*
X0421764Y0066209D01*
X0421760Y0066112D01*
X0421752Y0066015D01*
X0421740Y0065919D01*
X0421724Y0065823D01*
X0421704Y0065728D01*
X0421680Y0065634D01*
X0421653Y0065541D01*
X0421622Y0065449D01*
X0421587Y0065359D01*
X0421548Y0065270D01*
X0421505Y0065183D01*
X0421460Y0065097D01*
X0421410Y0065014D01*
X0421357Y0064932D01*
X0421301Y0064853D01*
X0421242Y0064776D01*
X0421180Y0064702D01*
X0421114Y0064630D01*
X0421046Y0064561D01*
X0420975Y0064495D01*
X0420902Y0064432D01*
X0420825Y0064372D01*
X0420747Y0064315D01*
X0420666Y0064262D01*
X0420583Y0064211D01*
X0420498Y0064165D01*
X0420411Y0064121D01*
X0420323Y0064082D01*
X0420233Y0064046D01*
X0420141Y0064014D01*
X0420048Y0063985D01*
X0419955Y0063961D01*
X0419860Y0063940D01*
X0419764Y0063923D01*
X0419668Y0063910D01*
X0419572Y0063901D01*
X0419475Y0063896D01*
X0419378Y0063895D01*
X0419281Y0063898D01*
X0419184Y0063905D01*
X0419088Y0063916D01*
X0418992Y0063931D01*
X0418897Y0063950D01*
X0418802Y0063972D01*
X0418709Y0063999D01*
X0418617Y0064029D01*
X0418526Y0064063D01*
X0418437Y0064101D01*
X0418349Y0064143D01*
X0418263Y0064188D01*
X0418179Y0064236D01*
X0418097Y0064288D01*
X0418018Y0064343D01*
X0417940Y0064402D01*
X0417865Y0064463D01*
X0417793Y0064528D01*
X0417723Y0064595D01*
X0417656Y0064666D01*
X0417593Y0064739D01*
X0417532Y0064814D01*
X0417474Y0064892D01*
X0417420Y0064973D01*
X0417369Y0065055D01*
X0417321Y0065140D01*
X0417277Y0065226D01*
X0417236Y0065314D01*
X0417200Y0065404D01*
X0417166Y0065495D01*
X0417137Y0065587D01*
X0417111Y0065681D01*
X0417090Y0065775D01*
X0417072Y0065871D01*
X0417058Y0065967D01*
X0417048Y0066063D01*
X0417042Y0066160D01*
X0417040Y0066257D01*
X0545321Y0076800D02*
X0545323Y0076961D01*
X0545329Y0077121D01*
X0545339Y0077282D01*
X0545353Y0077442D01*
X0545371Y0077601D01*
X0545392Y0077761D01*
X0545418Y0077919D01*
X0545448Y0078077D01*
X0545481Y0078234D01*
X0545519Y0078391D01*
X0545560Y0078546D01*
X0545605Y0078700D01*
X0545654Y0078853D01*
X0545707Y0079005D01*
X0545763Y0079155D01*
X0545823Y0079304D01*
X0545887Y0079452D01*
X0545954Y0079598D01*
X0546025Y0079742D01*
X0546100Y0079884D01*
X0546178Y0080025D01*
X0546259Y0080163D01*
X0546344Y0080300D01*
X0546433Y0080434D01*
X0546524Y0080566D01*
X0546619Y0080696D01*
X0546717Y0080823D01*
X0546818Y0080948D01*
X0546922Y0081071D01*
X0547029Y0081190D01*
X0547139Y0081307D01*
X0547252Y0081422D01*
X0547368Y0081533D01*
X0547486Y0081642D01*
X0547607Y0081747D01*
X0547731Y0081850D01*
X0547857Y0081950D01*
X0547986Y0082046D01*
X0548117Y0082139D01*
X0548250Y0082229D01*
X0548385Y0082316D01*
X0548523Y0082399D01*
X0548662Y0082478D01*
X0548804Y0082555D01*
X0548947Y0082628D01*
X0549092Y0082697D01*
X0549239Y0082762D01*
X0549387Y0082824D01*
X0549537Y0082883D01*
X0549688Y0082937D01*
X0549840Y0082988D01*
X0549994Y0083035D01*
X0550149Y0083078D01*
X0550304Y0083117D01*
X0550461Y0083153D01*
X0550619Y0083185D01*
X0550777Y0083212D01*
X0550936Y0083236D01*
X0551095Y0083256D01*
X0551255Y0083272D01*
X0551416Y0083284D01*
X0551576Y0083292D01*
X0551737Y0083296D01*
X0551897Y0083296D01*
X0552058Y0083292D01*
X0552218Y0083284D01*
X0552379Y0083272D01*
X0552539Y0083256D01*
X0552698Y0083236D01*
X0552857Y0083212D01*
X0553015Y0083185D01*
X0553173Y0083153D01*
X0553330Y0083117D01*
X0553485Y0083078D01*
X0553640Y0083035D01*
X0553794Y0082988D01*
X0553946Y0082937D01*
X0554097Y0082883D01*
X0554247Y0082824D01*
X0554395Y0082762D01*
X0554542Y0082697D01*
X0554687Y0082628D01*
X0554830Y0082555D01*
X0554972Y0082478D01*
X0555111Y0082399D01*
X0555249Y0082316D01*
X0555384Y0082229D01*
X0555517Y0082139D01*
X0555648Y0082046D01*
X0555777Y0081950D01*
X0555903Y0081850D01*
X0556027Y0081747D01*
X0556148Y0081642D01*
X0556266Y0081533D01*
X0556382Y0081422D01*
X0556495Y0081307D01*
X0556605Y0081190D01*
X0556712Y0081071D01*
X0556816Y0080948D01*
X0556917Y0080823D01*
X0557015Y0080696D01*
X0557110Y0080566D01*
X0557201Y0080434D01*
X0557290Y0080300D01*
X0557375Y0080163D01*
X0557456Y0080025D01*
X0557534Y0079884D01*
X0557609Y0079742D01*
X0557680Y0079598D01*
X0557747Y0079452D01*
X0557811Y0079304D01*
X0557871Y0079155D01*
X0557927Y0079005D01*
X0557980Y0078853D01*
X0558029Y0078700D01*
X0558074Y0078546D01*
X0558115Y0078391D01*
X0558153Y0078234D01*
X0558186Y0078077D01*
X0558216Y0077919D01*
X0558242Y0077761D01*
X0558263Y0077601D01*
X0558281Y0077442D01*
X0558295Y0077282D01*
X0558305Y0077121D01*
X0558311Y0076961D01*
X0558313Y0076800D01*
X0558311Y0076639D01*
X0558305Y0076479D01*
X0558295Y0076318D01*
X0558281Y0076158D01*
X0558263Y0075999D01*
X0558242Y0075839D01*
X0558216Y0075681D01*
X0558186Y0075523D01*
X0558153Y0075366D01*
X0558115Y0075209D01*
X0558074Y0075054D01*
X0558029Y0074900D01*
X0557980Y0074747D01*
X0557927Y0074595D01*
X0557871Y0074445D01*
X0557811Y0074296D01*
X0557747Y0074148D01*
X0557680Y0074002D01*
X0557609Y0073858D01*
X0557534Y0073716D01*
X0557456Y0073575D01*
X0557375Y0073437D01*
X0557290Y0073300D01*
X0557201Y0073166D01*
X0557110Y0073034D01*
X0557015Y0072904D01*
X0556917Y0072777D01*
X0556816Y0072652D01*
X0556712Y0072529D01*
X0556605Y0072410D01*
X0556495Y0072293D01*
X0556382Y0072178D01*
X0556266Y0072067D01*
X0556148Y0071958D01*
X0556027Y0071853D01*
X0555903Y0071750D01*
X0555777Y0071650D01*
X0555648Y0071554D01*
X0555517Y0071461D01*
X0555384Y0071371D01*
X0555249Y0071284D01*
X0555111Y0071201D01*
X0554972Y0071122D01*
X0554830Y0071045D01*
X0554687Y0070972D01*
X0554542Y0070903D01*
X0554395Y0070838D01*
X0554247Y0070776D01*
X0554097Y0070717D01*
X0553946Y0070663D01*
X0553794Y0070612D01*
X0553640Y0070565D01*
X0553485Y0070522D01*
X0553330Y0070483D01*
X0553173Y0070447D01*
X0553015Y0070415D01*
X0552857Y0070388D01*
X0552698Y0070364D01*
X0552539Y0070344D01*
X0552379Y0070328D01*
X0552218Y0070316D01*
X0552058Y0070308D01*
X0551897Y0070304D01*
X0551737Y0070304D01*
X0551576Y0070308D01*
X0551416Y0070316D01*
X0551255Y0070328D01*
X0551095Y0070344D01*
X0550936Y0070364D01*
X0550777Y0070388D01*
X0550619Y0070415D01*
X0550461Y0070447D01*
X0550304Y0070483D01*
X0550149Y0070522D01*
X0549994Y0070565D01*
X0549840Y0070612D01*
X0549688Y0070663D01*
X0549537Y0070717D01*
X0549387Y0070776D01*
X0549239Y0070838D01*
X0549092Y0070903D01*
X0548947Y0070972D01*
X0548804Y0071045D01*
X0548662Y0071122D01*
X0548523Y0071201D01*
X0548385Y0071284D01*
X0548250Y0071371D01*
X0548117Y0071461D01*
X0547986Y0071554D01*
X0547857Y0071650D01*
X0547731Y0071750D01*
X0547607Y0071853D01*
X0547486Y0071958D01*
X0547368Y0072067D01*
X0547252Y0072178D01*
X0547139Y0072293D01*
X0547029Y0072410D01*
X0546922Y0072529D01*
X0546818Y0072652D01*
X0546717Y0072777D01*
X0546619Y0072904D01*
X0546524Y0073034D01*
X0546433Y0073166D01*
X0546344Y0073300D01*
X0546259Y0073437D01*
X0546178Y0073575D01*
X0546100Y0073716D01*
X0546025Y0073858D01*
X0545954Y0074002D01*
X0545887Y0074148D01*
X0545823Y0074296D01*
X0545763Y0074445D01*
X0545707Y0074595D01*
X0545654Y0074747D01*
X0545605Y0074900D01*
X0545560Y0075054D01*
X0545519Y0075209D01*
X0545481Y0075366D01*
X0545448Y0075523D01*
X0545418Y0075681D01*
X0545392Y0075839D01*
X0545371Y0075999D01*
X0545353Y0076158D01*
X0545339Y0076318D01*
X0545329Y0076479D01*
X0545323Y0076639D01*
X0545321Y0076800D01*
X0544652Y0106800D02*
X0544654Y0106893D01*
X0544660Y0106985D01*
X0544670Y0107077D01*
X0544684Y0107168D01*
X0544701Y0107259D01*
X0544723Y0107349D01*
X0544748Y0107438D01*
X0544777Y0107526D01*
X0544810Y0107612D01*
X0544847Y0107697D01*
X0544887Y0107781D01*
X0544931Y0107862D01*
X0544978Y0107942D01*
X0545028Y0108020D01*
X0545082Y0108095D01*
X0545139Y0108168D01*
X0545199Y0108238D01*
X0545262Y0108306D01*
X0545328Y0108371D01*
X0545396Y0108433D01*
X0545467Y0108493D01*
X0545541Y0108549D01*
X0545617Y0108602D01*
X0545695Y0108651D01*
X0545775Y0108698D01*
X0545857Y0108740D01*
X0545941Y0108780D01*
X0546026Y0108815D01*
X0546113Y0108847D01*
X0546201Y0108876D01*
X0546290Y0108900D01*
X0546380Y0108921D01*
X0546471Y0108937D01*
X0546563Y0108950D01*
X0546655Y0108959D01*
X0546748Y0108964D01*
X0546840Y0108965D01*
X0546933Y0108962D01*
X0547025Y0108955D01*
X0547117Y0108944D01*
X0547208Y0108929D01*
X0547299Y0108911D01*
X0547389Y0108888D01*
X0547477Y0108862D01*
X0547565Y0108832D01*
X0547651Y0108798D01*
X0547735Y0108761D01*
X0547818Y0108719D01*
X0547899Y0108675D01*
X0547979Y0108627D01*
X0548056Y0108576D01*
X0548130Y0108521D01*
X0548203Y0108463D01*
X0548273Y0108403D01*
X0548340Y0108339D01*
X0548404Y0108273D01*
X0548466Y0108203D01*
X0548524Y0108132D01*
X0548579Y0108058D01*
X0548631Y0107981D01*
X0548680Y0107902D01*
X0548726Y0107822D01*
X0548768Y0107739D01*
X0548806Y0107655D01*
X0548841Y0107569D01*
X0548872Y0107482D01*
X0548899Y0107394D01*
X0548922Y0107304D01*
X0548942Y0107214D01*
X0548958Y0107123D01*
X0548970Y0107031D01*
X0548978Y0106939D01*
X0548982Y0106846D01*
X0548982Y0106754D01*
X0548978Y0106661D01*
X0548970Y0106569D01*
X0548958Y0106477D01*
X0548942Y0106386D01*
X0548922Y0106296D01*
X0548899Y0106206D01*
X0548872Y0106118D01*
X0548841Y0106031D01*
X0548806Y0105945D01*
X0548768Y0105861D01*
X0548726Y0105778D01*
X0548680Y0105698D01*
X0548631Y0105619D01*
X0548579Y0105542D01*
X0548524Y0105468D01*
X0548466Y0105397D01*
X0548404Y0105327D01*
X0548340Y0105261D01*
X0548273Y0105197D01*
X0548203Y0105137D01*
X0548130Y0105079D01*
X0548056Y0105024D01*
X0547979Y0104973D01*
X0547900Y0104925D01*
X0547818Y0104881D01*
X0547735Y0104839D01*
X0547651Y0104802D01*
X0547565Y0104768D01*
X0547477Y0104738D01*
X0547389Y0104712D01*
X0547299Y0104689D01*
X0547208Y0104671D01*
X0547117Y0104656D01*
X0547025Y0104645D01*
X0546933Y0104638D01*
X0546840Y0104635D01*
X0546748Y0104636D01*
X0546655Y0104641D01*
X0546563Y0104650D01*
X0546471Y0104663D01*
X0546380Y0104679D01*
X0546290Y0104700D01*
X0546201Y0104724D01*
X0546113Y0104753D01*
X0546026Y0104785D01*
X0545941Y0104820D01*
X0545857Y0104860D01*
X0545775Y0104902D01*
X0545695Y0104949D01*
X0545617Y0104998D01*
X0545541Y0105051D01*
X0545467Y0105107D01*
X0545396Y0105167D01*
X0545328Y0105229D01*
X0545262Y0105294D01*
X0545199Y0105362D01*
X0545139Y0105432D01*
X0545082Y0105505D01*
X0545028Y0105580D01*
X0544978Y0105658D01*
X0544931Y0105738D01*
X0544887Y0105819D01*
X0544847Y0105903D01*
X0544810Y0105988D01*
X0544777Y0106074D01*
X0544748Y0106162D01*
X0544723Y0106251D01*
X0544701Y0106341D01*
X0544684Y0106432D01*
X0544670Y0106523D01*
X0544660Y0106615D01*
X0544654Y0106707D01*
X0544652Y0106800D01*
X0544652Y0146800D02*
X0544654Y0146893D01*
X0544660Y0146985D01*
X0544670Y0147077D01*
X0544684Y0147168D01*
X0544701Y0147259D01*
X0544723Y0147349D01*
X0544748Y0147438D01*
X0544777Y0147526D01*
X0544810Y0147612D01*
X0544847Y0147697D01*
X0544887Y0147781D01*
X0544931Y0147862D01*
X0544978Y0147942D01*
X0545028Y0148020D01*
X0545082Y0148095D01*
X0545139Y0148168D01*
X0545199Y0148238D01*
X0545262Y0148306D01*
X0545328Y0148371D01*
X0545396Y0148433D01*
X0545467Y0148493D01*
X0545541Y0148549D01*
X0545617Y0148602D01*
X0545695Y0148651D01*
X0545775Y0148698D01*
X0545857Y0148740D01*
X0545941Y0148780D01*
X0546026Y0148815D01*
X0546113Y0148847D01*
X0546201Y0148876D01*
X0546290Y0148900D01*
X0546380Y0148921D01*
X0546471Y0148937D01*
X0546563Y0148950D01*
X0546655Y0148959D01*
X0546748Y0148964D01*
X0546840Y0148965D01*
X0546933Y0148962D01*
X0547025Y0148955D01*
X0547117Y0148944D01*
X0547208Y0148929D01*
X0547299Y0148911D01*
X0547389Y0148888D01*
X0547477Y0148862D01*
X0547565Y0148832D01*
X0547651Y0148798D01*
X0547735Y0148761D01*
X0547818Y0148719D01*
X0547899Y0148675D01*
X0547979Y0148627D01*
X0548056Y0148576D01*
X0548130Y0148521D01*
X0548203Y0148463D01*
X0548273Y0148403D01*
X0548340Y0148339D01*
X0548404Y0148273D01*
X0548466Y0148203D01*
X0548524Y0148132D01*
X0548579Y0148058D01*
X0548631Y0147981D01*
X0548680Y0147902D01*
X0548726Y0147822D01*
X0548768Y0147739D01*
X0548806Y0147655D01*
X0548841Y0147569D01*
X0548872Y0147482D01*
X0548899Y0147394D01*
X0548922Y0147304D01*
X0548942Y0147214D01*
X0548958Y0147123D01*
X0548970Y0147031D01*
X0548978Y0146939D01*
X0548982Y0146846D01*
X0548982Y0146754D01*
X0548978Y0146661D01*
X0548970Y0146569D01*
X0548958Y0146477D01*
X0548942Y0146386D01*
X0548922Y0146296D01*
X0548899Y0146206D01*
X0548872Y0146118D01*
X0548841Y0146031D01*
X0548806Y0145945D01*
X0548768Y0145861D01*
X0548726Y0145778D01*
X0548680Y0145698D01*
X0548631Y0145619D01*
X0548579Y0145542D01*
X0548524Y0145468D01*
X0548466Y0145397D01*
X0548404Y0145327D01*
X0548340Y0145261D01*
X0548273Y0145197D01*
X0548203Y0145137D01*
X0548130Y0145079D01*
X0548056Y0145024D01*
X0547979Y0144973D01*
X0547900Y0144925D01*
X0547818Y0144881D01*
X0547735Y0144839D01*
X0547651Y0144802D01*
X0547565Y0144768D01*
X0547477Y0144738D01*
X0547389Y0144712D01*
X0547299Y0144689D01*
X0547208Y0144671D01*
X0547117Y0144656D01*
X0547025Y0144645D01*
X0546933Y0144638D01*
X0546840Y0144635D01*
X0546748Y0144636D01*
X0546655Y0144641D01*
X0546563Y0144650D01*
X0546471Y0144663D01*
X0546380Y0144679D01*
X0546290Y0144700D01*
X0546201Y0144724D01*
X0546113Y0144753D01*
X0546026Y0144785D01*
X0545941Y0144820D01*
X0545857Y0144860D01*
X0545775Y0144902D01*
X0545695Y0144949D01*
X0545617Y0144998D01*
X0545541Y0145051D01*
X0545467Y0145107D01*
X0545396Y0145167D01*
X0545328Y0145229D01*
X0545262Y0145294D01*
X0545199Y0145362D01*
X0545139Y0145432D01*
X0545082Y0145505D01*
X0545028Y0145580D01*
X0544978Y0145658D01*
X0544931Y0145738D01*
X0544887Y0145819D01*
X0544847Y0145903D01*
X0544810Y0145988D01*
X0544777Y0146074D01*
X0544748Y0146162D01*
X0544723Y0146251D01*
X0544701Y0146341D01*
X0544684Y0146432D01*
X0544670Y0146523D01*
X0544660Y0146615D01*
X0544654Y0146707D01*
X0544652Y0146800D01*
X0545321Y0421800D02*
X0545323Y0421961D01*
X0545329Y0422121D01*
X0545339Y0422282D01*
X0545353Y0422442D01*
X0545371Y0422601D01*
X0545392Y0422761D01*
X0545418Y0422919D01*
X0545448Y0423077D01*
X0545481Y0423234D01*
X0545519Y0423391D01*
X0545560Y0423546D01*
X0545605Y0423700D01*
X0545654Y0423853D01*
X0545707Y0424005D01*
X0545763Y0424155D01*
X0545823Y0424304D01*
X0545887Y0424452D01*
X0545954Y0424598D01*
X0546025Y0424742D01*
X0546100Y0424884D01*
X0546178Y0425025D01*
X0546259Y0425163D01*
X0546344Y0425300D01*
X0546433Y0425434D01*
X0546524Y0425566D01*
X0546619Y0425696D01*
X0546717Y0425823D01*
X0546818Y0425948D01*
X0546922Y0426071D01*
X0547029Y0426190D01*
X0547139Y0426307D01*
X0547252Y0426422D01*
X0547368Y0426533D01*
X0547486Y0426642D01*
X0547607Y0426747D01*
X0547731Y0426850D01*
X0547857Y0426950D01*
X0547986Y0427046D01*
X0548117Y0427139D01*
X0548250Y0427229D01*
X0548385Y0427316D01*
X0548523Y0427399D01*
X0548662Y0427478D01*
X0548804Y0427555D01*
X0548947Y0427628D01*
X0549092Y0427697D01*
X0549239Y0427762D01*
X0549387Y0427824D01*
X0549537Y0427883D01*
X0549688Y0427937D01*
X0549840Y0427988D01*
X0549994Y0428035D01*
X0550149Y0428078D01*
X0550304Y0428117D01*
X0550461Y0428153D01*
X0550619Y0428185D01*
X0550777Y0428212D01*
X0550936Y0428236D01*
X0551095Y0428256D01*
X0551255Y0428272D01*
X0551416Y0428284D01*
X0551576Y0428292D01*
X0551737Y0428296D01*
X0551897Y0428296D01*
X0552058Y0428292D01*
X0552218Y0428284D01*
X0552379Y0428272D01*
X0552539Y0428256D01*
X0552698Y0428236D01*
X0552857Y0428212D01*
X0553015Y0428185D01*
X0553173Y0428153D01*
X0553330Y0428117D01*
X0553485Y0428078D01*
X0553640Y0428035D01*
X0553794Y0427988D01*
X0553946Y0427937D01*
X0554097Y0427883D01*
X0554247Y0427824D01*
X0554395Y0427762D01*
X0554542Y0427697D01*
X0554687Y0427628D01*
X0554830Y0427555D01*
X0554972Y0427478D01*
X0555111Y0427399D01*
X0555249Y0427316D01*
X0555384Y0427229D01*
X0555517Y0427139D01*
X0555648Y0427046D01*
X0555777Y0426950D01*
X0555903Y0426850D01*
X0556027Y0426747D01*
X0556148Y0426642D01*
X0556266Y0426533D01*
X0556382Y0426422D01*
X0556495Y0426307D01*
X0556605Y0426190D01*
X0556712Y0426071D01*
X0556816Y0425948D01*
X0556917Y0425823D01*
X0557015Y0425696D01*
X0557110Y0425566D01*
X0557201Y0425434D01*
X0557290Y0425300D01*
X0557375Y0425163D01*
X0557456Y0425025D01*
X0557534Y0424884D01*
X0557609Y0424742D01*
X0557680Y0424598D01*
X0557747Y0424452D01*
X0557811Y0424304D01*
X0557871Y0424155D01*
X0557927Y0424005D01*
X0557980Y0423853D01*
X0558029Y0423700D01*
X0558074Y0423546D01*
X0558115Y0423391D01*
X0558153Y0423234D01*
X0558186Y0423077D01*
X0558216Y0422919D01*
X0558242Y0422761D01*
X0558263Y0422601D01*
X0558281Y0422442D01*
X0558295Y0422282D01*
X0558305Y0422121D01*
X0558311Y0421961D01*
X0558313Y0421800D01*
X0558311Y0421639D01*
X0558305Y0421479D01*
X0558295Y0421318D01*
X0558281Y0421158D01*
X0558263Y0420999D01*
X0558242Y0420839D01*
X0558216Y0420681D01*
X0558186Y0420523D01*
X0558153Y0420366D01*
X0558115Y0420209D01*
X0558074Y0420054D01*
X0558029Y0419900D01*
X0557980Y0419747D01*
X0557927Y0419595D01*
X0557871Y0419445D01*
X0557811Y0419296D01*
X0557747Y0419148D01*
X0557680Y0419002D01*
X0557609Y0418858D01*
X0557534Y0418716D01*
X0557456Y0418575D01*
X0557375Y0418437D01*
X0557290Y0418300D01*
X0557201Y0418166D01*
X0557110Y0418034D01*
X0557015Y0417904D01*
X0556917Y0417777D01*
X0556816Y0417652D01*
X0556712Y0417529D01*
X0556605Y0417410D01*
X0556495Y0417293D01*
X0556382Y0417178D01*
X0556266Y0417067D01*
X0556148Y0416958D01*
X0556027Y0416853D01*
X0555903Y0416750D01*
X0555777Y0416650D01*
X0555648Y0416554D01*
X0555517Y0416461D01*
X0555384Y0416371D01*
X0555249Y0416284D01*
X0555111Y0416201D01*
X0554972Y0416122D01*
X0554830Y0416045D01*
X0554687Y0415972D01*
X0554542Y0415903D01*
X0554395Y0415838D01*
X0554247Y0415776D01*
X0554097Y0415717D01*
X0553946Y0415663D01*
X0553794Y0415612D01*
X0553640Y0415565D01*
X0553485Y0415522D01*
X0553330Y0415483D01*
X0553173Y0415447D01*
X0553015Y0415415D01*
X0552857Y0415388D01*
X0552698Y0415364D01*
X0552539Y0415344D01*
X0552379Y0415328D01*
X0552218Y0415316D01*
X0552058Y0415308D01*
X0551897Y0415304D01*
X0551737Y0415304D01*
X0551576Y0415308D01*
X0551416Y0415316D01*
X0551255Y0415328D01*
X0551095Y0415344D01*
X0550936Y0415364D01*
X0550777Y0415388D01*
X0550619Y0415415D01*
X0550461Y0415447D01*
X0550304Y0415483D01*
X0550149Y0415522D01*
X0549994Y0415565D01*
X0549840Y0415612D01*
X0549688Y0415663D01*
X0549537Y0415717D01*
X0549387Y0415776D01*
X0549239Y0415838D01*
X0549092Y0415903D01*
X0548947Y0415972D01*
X0548804Y0416045D01*
X0548662Y0416122D01*
X0548523Y0416201D01*
X0548385Y0416284D01*
X0548250Y0416371D01*
X0548117Y0416461D01*
X0547986Y0416554D01*
X0547857Y0416650D01*
X0547731Y0416750D01*
X0547607Y0416853D01*
X0547486Y0416958D01*
X0547368Y0417067D01*
X0547252Y0417178D01*
X0547139Y0417293D01*
X0547029Y0417410D01*
X0546922Y0417529D01*
X0546818Y0417652D01*
X0546717Y0417777D01*
X0546619Y0417904D01*
X0546524Y0418034D01*
X0546433Y0418166D01*
X0546344Y0418300D01*
X0546259Y0418437D01*
X0546178Y0418575D01*
X0546100Y0418716D01*
X0546025Y0418858D01*
X0545954Y0419002D01*
X0545887Y0419148D01*
X0545823Y0419296D01*
X0545763Y0419445D01*
X0545707Y0419595D01*
X0545654Y0419747D01*
X0545605Y0419900D01*
X0545560Y0420054D01*
X0545519Y0420209D01*
X0545481Y0420366D01*
X0545448Y0420523D01*
X0545418Y0420681D01*
X0545392Y0420839D01*
X0545371Y0420999D01*
X0545353Y0421158D01*
X0545339Y0421318D01*
X0545329Y0421479D01*
X0545323Y0421639D01*
X0545321Y0421800D01*
X0035321Y0421800D02*
X0035323Y0421961D01*
X0035329Y0422121D01*
X0035339Y0422282D01*
X0035353Y0422442D01*
X0035371Y0422601D01*
X0035392Y0422761D01*
X0035418Y0422919D01*
X0035448Y0423077D01*
X0035481Y0423234D01*
X0035519Y0423391D01*
X0035560Y0423546D01*
X0035605Y0423700D01*
X0035654Y0423853D01*
X0035707Y0424005D01*
X0035763Y0424155D01*
X0035823Y0424304D01*
X0035887Y0424452D01*
X0035954Y0424598D01*
X0036025Y0424742D01*
X0036100Y0424884D01*
X0036178Y0425025D01*
X0036259Y0425163D01*
X0036344Y0425300D01*
X0036433Y0425434D01*
X0036524Y0425566D01*
X0036619Y0425696D01*
X0036717Y0425823D01*
X0036818Y0425948D01*
X0036922Y0426071D01*
X0037029Y0426190D01*
X0037139Y0426307D01*
X0037252Y0426422D01*
X0037368Y0426533D01*
X0037486Y0426642D01*
X0037607Y0426747D01*
X0037731Y0426850D01*
X0037857Y0426950D01*
X0037986Y0427046D01*
X0038117Y0427139D01*
X0038250Y0427229D01*
X0038385Y0427316D01*
X0038523Y0427399D01*
X0038662Y0427478D01*
X0038804Y0427555D01*
X0038947Y0427628D01*
X0039092Y0427697D01*
X0039239Y0427762D01*
X0039387Y0427824D01*
X0039537Y0427883D01*
X0039688Y0427937D01*
X0039840Y0427988D01*
X0039994Y0428035D01*
X0040149Y0428078D01*
X0040304Y0428117D01*
X0040461Y0428153D01*
X0040619Y0428185D01*
X0040777Y0428212D01*
X0040936Y0428236D01*
X0041095Y0428256D01*
X0041255Y0428272D01*
X0041416Y0428284D01*
X0041576Y0428292D01*
X0041737Y0428296D01*
X0041897Y0428296D01*
X0042058Y0428292D01*
X0042218Y0428284D01*
X0042379Y0428272D01*
X0042539Y0428256D01*
X0042698Y0428236D01*
X0042857Y0428212D01*
X0043015Y0428185D01*
X0043173Y0428153D01*
X0043330Y0428117D01*
X0043485Y0428078D01*
X0043640Y0428035D01*
X0043794Y0427988D01*
X0043946Y0427937D01*
X0044097Y0427883D01*
X0044247Y0427824D01*
X0044395Y0427762D01*
X0044542Y0427697D01*
X0044687Y0427628D01*
X0044830Y0427555D01*
X0044972Y0427478D01*
X0045111Y0427399D01*
X0045249Y0427316D01*
X0045384Y0427229D01*
X0045517Y0427139D01*
X0045648Y0427046D01*
X0045777Y0426950D01*
X0045903Y0426850D01*
X0046027Y0426747D01*
X0046148Y0426642D01*
X0046266Y0426533D01*
X0046382Y0426422D01*
X0046495Y0426307D01*
X0046605Y0426190D01*
X0046712Y0426071D01*
X0046816Y0425948D01*
X0046917Y0425823D01*
X0047015Y0425696D01*
X0047110Y0425566D01*
X0047201Y0425434D01*
X0047290Y0425300D01*
X0047375Y0425163D01*
X0047456Y0425025D01*
X0047534Y0424884D01*
X0047609Y0424742D01*
X0047680Y0424598D01*
X0047747Y0424452D01*
X0047811Y0424304D01*
X0047871Y0424155D01*
X0047927Y0424005D01*
X0047980Y0423853D01*
X0048029Y0423700D01*
X0048074Y0423546D01*
X0048115Y0423391D01*
X0048153Y0423234D01*
X0048186Y0423077D01*
X0048216Y0422919D01*
X0048242Y0422761D01*
X0048263Y0422601D01*
X0048281Y0422442D01*
X0048295Y0422282D01*
X0048305Y0422121D01*
X0048311Y0421961D01*
X0048313Y0421800D01*
X0048311Y0421639D01*
X0048305Y0421479D01*
X0048295Y0421318D01*
X0048281Y0421158D01*
X0048263Y0420999D01*
X0048242Y0420839D01*
X0048216Y0420681D01*
X0048186Y0420523D01*
X0048153Y0420366D01*
X0048115Y0420209D01*
X0048074Y0420054D01*
X0048029Y0419900D01*
X0047980Y0419747D01*
X0047927Y0419595D01*
X0047871Y0419445D01*
X0047811Y0419296D01*
X0047747Y0419148D01*
X0047680Y0419002D01*
X0047609Y0418858D01*
X0047534Y0418716D01*
X0047456Y0418575D01*
X0047375Y0418437D01*
X0047290Y0418300D01*
X0047201Y0418166D01*
X0047110Y0418034D01*
X0047015Y0417904D01*
X0046917Y0417777D01*
X0046816Y0417652D01*
X0046712Y0417529D01*
X0046605Y0417410D01*
X0046495Y0417293D01*
X0046382Y0417178D01*
X0046266Y0417067D01*
X0046148Y0416958D01*
X0046027Y0416853D01*
X0045903Y0416750D01*
X0045777Y0416650D01*
X0045648Y0416554D01*
X0045517Y0416461D01*
X0045384Y0416371D01*
X0045249Y0416284D01*
X0045111Y0416201D01*
X0044972Y0416122D01*
X0044830Y0416045D01*
X0044687Y0415972D01*
X0044542Y0415903D01*
X0044395Y0415838D01*
X0044247Y0415776D01*
X0044097Y0415717D01*
X0043946Y0415663D01*
X0043794Y0415612D01*
X0043640Y0415565D01*
X0043485Y0415522D01*
X0043330Y0415483D01*
X0043173Y0415447D01*
X0043015Y0415415D01*
X0042857Y0415388D01*
X0042698Y0415364D01*
X0042539Y0415344D01*
X0042379Y0415328D01*
X0042218Y0415316D01*
X0042058Y0415308D01*
X0041897Y0415304D01*
X0041737Y0415304D01*
X0041576Y0415308D01*
X0041416Y0415316D01*
X0041255Y0415328D01*
X0041095Y0415344D01*
X0040936Y0415364D01*
X0040777Y0415388D01*
X0040619Y0415415D01*
X0040461Y0415447D01*
X0040304Y0415483D01*
X0040149Y0415522D01*
X0039994Y0415565D01*
X0039840Y0415612D01*
X0039688Y0415663D01*
X0039537Y0415717D01*
X0039387Y0415776D01*
X0039239Y0415838D01*
X0039092Y0415903D01*
X0038947Y0415972D01*
X0038804Y0416045D01*
X0038662Y0416122D01*
X0038523Y0416201D01*
X0038385Y0416284D01*
X0038250Y0416371D01*
X0038117Y0416461D01*
X0037986Y0416554D01*
X0037857Y0416650D01*
X0037731Y0416750D01*
X0037607Y0416853D01*
X0037486Y0416958D01*
X0037368Y0417067D01*
X0037252Y0417178D01*
X0037139Y0417293D01*
X0037029Y0417410D01*
X0036922Y0417529D01*
X0036818Y0417652D01*
X0036717Y0417777D01*
X0036619Y0417904D01*
X0036524Y0418034D01*
X0036433Y0418166D01*
X0036344Y0418300D01*
X0036259Y0418437D01*
X0036178Y0418575D01*
X0036100Y0418716D01*
X0036025Y0418858D01*
X0035954Y0419002D01*
X0035887Y0419148D01*
X0035823Y0419296D01*
X0035763Y0419445D01*
X0035707Y0419595D01*
X0035654Y0419747D01*
X0035605Y0419900D01*
X0035560Y0420054D01*
X0035519Y0420209D01*
X0035481Y0420366D01*
X0035448Y0420523D01*
X0035418Y0420681D01*
X0035392Y0420839D01*
X0035371Y0420999D01*
X0035353Y0421158D01*
X0035339Y0421318D01*
X0035329Y0421479D01*
X0035323Y0421639D01*
X0035321Y0421800D01*
D11*
X0126073Y0141917D02*
X0125005Y0140850D01*
X0125005Y0139782D01*
X0126073Y0138714D01*
X0128208Y0138714D01*
X0129276Y0139782D01*
X0129276Y0140850D01*
X0128208Y0141917D01*
X0126073Y0141917D01*
X0126073Y0138714D02*
X0125005Y0137647D01*
X0125005Y0136579D01*
X0126073Y0135512D01*
X0128208Y0135512D01*
X0129276Y0136579D01*
X0129276Y0137647D01*
X0128208Y0138714D01*
X0131451Y0138714D02*
X0131451Y0135512D01*
X0133586Y0135512D02*
X0133586Y0138714D01*
X0132518Y0139782D01*
X0131451Y0138714D01*
X0133586Y0138714D02*
X0134653Y0139782D01*
X0135721Y0139782D01*
X0135721Y0135512D01*
X0137896Y0135512D02*
X0141099Y0135512D01*
X0142167Y0136579D01*
X0141099Y0137647D01*
X0137896Y0137647D01*
X0137896Y0138714D02*
X0137896Y0135512D01*
X0137896Y0138714D02*
X0138964Y0139782D01*
X0141099Y0139782D01*
X0144342Y0138714D02*
X0144342Y0137647D01*
X0148612Y0137647D01*
X0148612Y0138714D02*
X0147544Y0139782D01*
X0145409Y0139782D01*
X0144342Y0138714D01*
X0145409Y0135512D02*
X0147544Y0135512D01*
X0148612Y0136579D01*
X0148612Y0138714D01*
X0150787Y0141917D02*
X0155058Y0141917D01*
X0152922Y0141917D02*
X0152922Y0135512D01*
X0163678Y0136579D02*
X0164746Y0135512D01*
X0166881Y0135512D01*
X0167949Y0136579D01*
X0167949Y0138714D02*
X0165813Y0139782D01*
X0164746Y0139782D01*
X0163678Y0138714D01*
X0163678Y0136579D01*
X0167949Y0138714D02*
X0167949Y0141917D01*
X0163678Y0141917D01*
X0172259Y0141917D02*
X0172259Y0135512D01*
X0174394Y0135512D02*
X0170124Y0135512D01*
X0174394Y0139782D02*
X0172259Y0141917D01*
X0176569Y0140850D02*
X0176569Y0136579D01*
X0177637Y0135512D01*
X0179772Y0135512D01*
X0180840Y0136579D01*
X0176569Y0140850D01*
X0177637Y0141917D01*
X0179772Y0141917D01*
X0180840Y0140850D01*
X0180840Y0136579D01*
X0183015Y0135512D02*
X0187285Y0135512D01*
X0183015Y0139782D01*
X0183015Y0140850D01*
X0184082Y0141917D01*
X0186217Y0141917D01*
X0187285Y0140850D01*
X0189460Y0141917D02*
X0193731Y0141917D01*
X0193731Y0135512D01*
X0193731Y0138714D02*
X0191595Y0138714D01*
X0192656Y0131417D02*
X0192656Y0125012D01*
X0188386Y0125012D01*
X0186211Y0125012D02*
X0184076Y0125012D01*
X0185143Y0125012D02*
X0185143Y0129282D01*
X0186211Y0129282D01*
X0185143Y0131417D02*
X0185143Y0132485D01*
X0181914Y0129282D02*
X0178711Y0129282D01*
X0177643Y0128214D01*
X0177643Y0125012D01*
X0181914Y0125012D02*
X0181914Y0129282D01*
X0179765Y0120917D02*
X0175495Y0114512D01*
X0173320Y0114512D02*
X0171185Y0114512D01*
X0172252Y0114512D02*
X0172252Y0118782D01*
X0173320Y0118782D01*
X0172252Y0120917D02*
X0172252Y0121985D01*
X0175495Y0120917D02*
X0179765Y0114512D01*
X0169023Y0115579D02*
X0167955Y0116647D01*
X0164752Y0116647D01*
X0164752Y0117714D02*
X0164752Y0114512D01*
X0167955Y0114512D01*
X0169023Y0115579D01*
X0167955Y0118782D02*
X0165820Y0118782D01*
X0164752Y0117714D01*
X0162577Y0118782D02*
X0162577Y0114512D01*
X0162577Y0118782D02*
X0159375Y0118782D01*
X0158307Y0117714D01*
X0158307Y0114512D01*
X0156132Y0115579D02*
X0155064Y0114512D01*
X0151861Y0114512D01*
X0151861Y0113444D02*
X0151861Y0118782D01*
X0155064Y0118782D01*
X0156132Y0117714D01*
X0156132Y0115579D01*
X0153997Y0112377D02*
X0152929Y0112377D01*
X0151861Y0113444D01*
X0188373Y0114512D02*
X0190508Y0114512D01*
X0189440Y0114512D02*
X0189440Y0118782D01*
X0190508Y0118782D01*
X0192683Y0118782D02*
X0192683Y0113444D01*
X0193751Y0112377D01*
X0194818Y0112377D01*
X0195886Y0114512D02*
X0192683Y0114512D01*
X0195886Y0114512D02*
X0196953Y0115579D01*
X0196953Y0118782D01*
X0200183Y0118782D02*
X0200183Y0114512D01*
X0201250Y0114512D02*
X0199115Y0114512D01*
X0203425Y0114512D02*
X0203425Y0117714D01*
X0204493Y0118782D01*
X0206628Y0118782D01*
X0207696Y0117714D01*
X0209871Y0119850D02*
X0209871Y0120917D01*
X0214141Y0120917D01*
X0214155Y0125012D02*
X0216290Y0125012D01*
X0215222Y0125012D02*
X0215222Y0129282D01*
X0216290Y0129282D01*
X0218452Y0129282D02*
X0218452Y0123944D01*
X0219519Y0122877D01*
X0220587Y0122877D01*
X0223830Y0125012D02*
X0225965Y0125012D01*
X0227032Y0126079D01*
X0227032Y0128214D01*
X0225965Y0129282D01*
X0223830Y0129282D01*
X0222762Y0128214D01*
X0222762Y0127147D01*
X0227032Y0127147D01*
X0229207Y0125012D02*
X0232410Y0128214D01*
X0233478Y0127147D02*
X0229207Y0131417D01*
X0230262Y0135512D02*
X0227059Y0135512D01*
X0227059Y0139782D01*
X0224884Y0139782D02*
X0224884Y0135512D01*
X0224884Y0137647D02*
X0222749Y0139782D01*
X0221681Y0139782D01*
X0219512Y0138714D02*
X0218445Y0139782D01*
X0215242Y0139782D01*
X0215242Y0141917D02*
X0215242Y0135512D01*
X0218445Y0135512D01*
X0219512Y0136579D01*
X0219512Y0138714D01*
X0218452Y0132485D02*
X0218452Y0131417D01*
X0215222Y0131417D02*
X0215222Y0132485D01*
X0211999Y0135512D02*
X0208797Y0135512D01*
X0208797Y0139782D01*
X0206622Y0138714D02*
X0205554Y0139782D01*
X0203419Y0139782D01*
X0202351Y0138714D01*
X0202351Y0137647D01*
X0206622Y0137647D01*
X0206622Y0138714D02*
X0206622Y0136579D01*
X0205554Y0135512D01*
X0203419Y0135512D01*
X0202345Y0129282D02*
X0201277Y0128214D01*
X0201277Y0125012D01*
X0200183Y0121985D02*
X0200183Y0120917D01*
X0200183Y0118782D02*
X0201250Y0118782D01*
X0207696Y0120917D02*
X0207696Y0114512D01*
X0209871Y0114512D02*
X0214141Y0114512D01*
X0214141Y0115579D01*
X0209871Y0119850D01*
X0210925Y0125012D02*
X0207722Y0125012D01*
X0207722Y0128214D01*
X0208790Y0129282D01*
X0210925Y0129282D01*
X0210925Y0127147D02*
X0207722Y0127147D01*
X0205547Y0129282D02*
X0202345Y0129282D01*
X0205547Y0129282D02*
X0205547Y0125012D01*
X0210925Y0125012D02*
X0211993Y0126079D01*
X0210925Y0127147D01*
X0211999Y0135512D02*
X0213067Y0136579D01*
X0213067Y0139782D01*
X0230262Y0135512D02*
X0231329Y0136579D01*
X0231329Y0139782D01*
X0233504Y0140850D02*
X0233504Y0138714D01*
X0234572Y0137647D01*
X0237775Y0137647D01*
X0237775Y0135512D02*
X0237775Y0141917D01*
X0234572Y0141917D01*
X0233504Y0140850D01*
X0233478Y0131417D02*
X0233478Y0125012D01*
X0234559Y0121985D02*
X0234559Y0120917D01*
X0234559Y0118782D02*
X0234559Y0114512D01*
X0235626Y0114512D02*
X0233491Y0114512D01*
X0231329Y0115579D02*
X0230262Y0114512D01*
X0227059Y0114512D01*
X0227059Y0118782D01*
X0231329Y0118782D02*
X0231329Y0115579D01*
X0234559Y0118782D02*
X0235626Y0118782D01*
X0237801Y0114512D02*
X0242072Y0114512D01*
X0242072Y0120917D01*
X0244220Y0122877D02*
X0242085Y0125012D01*
X0243153Y0125012D01*
X0243153Y0126079D01*
X0242085Y0126079D01*
X0242085Y0125012D01*
X0246395Y0125012D02*
X0246395Y0128214D01*
X0247463Y0129282D01*
X0250666Y0129282D01*
X0250666Y0125012D01*
X0252841Y0125012D02*
X0252841Y0129282D01*
X0254976Y0131417D01*
X0257111Y0129282D01*
X0257111Y0125012D01*
X0257111Y0128214D02*
X0252841Y0128214D01*
X0250666Y0135512D02*
X0250666Y0136579D01*
X0246395Y0140850D01*
X0246395Y0141917D01*
X0250666Y0141917D01*
X0252841Y0141917D02*
X0252841Y0140850D01*
X0257111Y0136579D01*
X0257111Y0135512D01*
X0260354Y0135512D02*
X0260354Y0141917D01*
X0263557Y0138714D01*
X0259286Y0138714D01*
X0257111Y0141917D02*
X0252841Y0141917D01*
X0265732Y0141917D02*
X0270002Y0141917D01*
X0270002Y0135512D01*
X0265732Y0135512D01*
X0267867Y0138714D02*
X0270002Y0138714D01*
X0272177Y0136579D02*
X0273245Y0135512D01*
X0275380Y0135512D01*
X0276448Y0136579D01*
X0276448Y0140850D01*
X0275380Y0141917D01*
X0273245Y0141917D01*
X0272177Y0140850D01*
X0278623Y0141917D02*
X0282893Y0141917D01*
X0282893Y0135512D01*
X0278623Y0135512D01*
X0280758Y0138714D02*
X0282893Y0138714D01*
X0282893Y0131417D02*
X0279690Y0131417D01*
X0278623Y0130350D01*
X0278623Y0128214D01*
X0279690Y0127147D01*
X0282893Y0127147D01*
X0280758Y0127147D02*
X0278623Y0125012D01*
X0276448Y0126079D02*
X0275380Y0125012D01*
X0272177Y0125012D01*
X0272177Y0128214D01*
X0273245Y0129282D01*
X0275380Y0129282D01*
X0275380Y0127147D02*
X0272177Y0127147D01*
X0270002Y0129282D02*
X0266799Y0129282D01*
X0265732Y0128214D01*
X0265732Y0125012D01*
X0264638Y0121985D02*
X0264638Y0120917D01*
X0264638Y0118782D02*
X0264638Y0114512D01*
X0265705Y0114512D02*
X0263570Y0114512D01*
X0261408Y0114512D02*
X0261408Y0118782D01*
X0258205Y0118782D01*
X0257138Y0117714D01*
X0257138Y0114512D01*
X0254963Y0115579D02*
X0253895Y0114512D01*
X0250692Y0114512D01*
X0250692Y0113444D02*
X0250692Y0118782D01*
X0253895Y0118782D01*
X0254963Y0117714D01*
X0254963Y0115579D01*
X0252828Y0112377D02*
X0251760Y0112377D01*
X0250692Y0113444D01*
X0250672Y0110417D02*
X0250672Y0104012D01*
X0249605Y0104012D02*
X0251740Y0104012D01*
X0253915Y0104012D02*
X0257118Y0104012D01*
X0258185Y0105079D01*
X0258185Y0107214D01*
X0257118Y0108282D01*
X0253915Y0108282D01*
X0253915Y0110417D02*
X0253915Y0104012D01*
X0260361Y0104012D02*
X0260361Y0108282D01*
X0264631Y0108282D02*
X0264631Y0105079D01*
X0263563Y0104012D01*
X0260361Y0104012D01*
X0266806Y0105079D02*
X0266806Y0107214D01*
X0267874Y0108282D01*
X0270009Y0108282D01*
X0271076Y0107214D01*
X0271076Y0105079D01*
X0270009Y0104012D01*
X0267874Y0104012D01*
X0266806Y0105079D01*
X0273245Y0108282D02*
X0274313Y0108282D01*
X0276448Y0106147D01*
X0276448Y0104012D02*
X0276448Y0108282D01*
X0278623Y0109350D02*
X0278623Y0107214D01*
X0279690Y0106147D01*
X0282893Y0106147D01*
X0282893Y0104012D02*
X0282893Y0110417D01*
X0279690Y0110417D01*
X0278623Y0109350D01*
X0280758Y0114512D02*
X0280758Y0117714D01*
X0278623Y0119850D01*
X0278623Y0120917D01*
X0276448Y0118782D02*
X0275380Y0118782D01*
X0275380Y0114512D01*
X0274313Y0114512D02*
X0276448Y0114512D01*
X0272151Y0114512D02*
X0267880Y0118782D01*
X0265705Y0118782D02*
X0264638Y0118782D01*
X0267880Y0114512D02*
X0272151Y0118782D01*
X0275380Y0120917D02*
X0275380Y0121985D01*
X0276448Y0126079D02*
X0275380Y0127147D01*
X0270002Y0125012D02*
X0270002Y0129282D01*
X0282893Y0131417D02*
X0282893Y0125012D01*
X0282893Y0120917D02*
X0282893Y0119850D01*
X0280758Y0117714D01*
X0251740Y0110417D02*
X0250672Y0110417D01*
X0247443Y0108282D02*
X0247443Y0105079D01*
X0246375Y0104012D01*
X0243173Y0104012D01*
X0243173Y0102944D02*
X0244240Y0101877D01*
X0245308Y0101877D01*
X0243173Y0102944D02*
X0243173Y0108282D01*
X0234552Y0110417D02*
X0234552Y0104012D01*
X0234552Y0106147D02*
X0231349Y0106147D01*
X0230282Y0107214D01*
X0230282Y0109350D01*
X0231349Y0110417D01*
X0234552Y0110417D01*
X0228106Y0108282D02*
X0228106Y0104012D01*
X0228106Y0106147D02*
X0225971Y0108282D01*
X0224904Y0108282D01*
X0222735Y0107214D02*
X0221668Y0108282D01*
X0219533Y0108282D01*
X0218465Y0107214D01*
X0218465Y0106147D01*
X0222735Y0106147D01*
X0222735Y0107214D02*
X0222735Y0105079D01*
X0221668Y0104012D01*
X0219533Y0104012D01*
X0216290Y0104012D02*
X0213087Y0104012D01*
X0212019Y0105079D01*
X0213087Y0106147D01*
X0215222Y0106147D01*
X0216290Y0107214D01*
X0215222Y0108282D01*
X0212019Y0108282D01*
X0209844Y0107214D02*
X0208777Y0108282D01*
X0206642Y0108282D01*
X0205574Y0107214D01*
X0205574Y0106147D01*
X0209844Y0106147D01*
X0209844Y0107214D02*
X0209844Y0105079D01*
X0208777Y0104012D01*
X0206642Y0104012D01*
X0203399Y0104012D02*
X0203399Y0108282D01*
X0200196Y0108282D01*
X0199128Y0107214D01*
X0199128Y0104012D01*
X0195886Y0105079D02*
X0195886Y0109350D01*
X0196953Y0108282D02*
X0194818Y0108282D01*
X0192656Y0107214D02*
X0191589Y0108282D01*
X0188386Y0108282D01*
X0189454Y0106147D02*
X0191589Y0106147D01*
X0192656Y0107214D01*
X0192656Y0104012D02*
X0189454Y0104012D01*
X0188386Y0105079D01*
X0189454Y0106147D01*
X0194818Y0104012D02*
X0195886Y0105079D01*
X0189440Y0120917D02*
X0189440Y0121985D01*
X0222749Y0115579D02*
X0222749Y0114512D01*
X0223816Y0114512D01*
X0223816Y0115579D01*
X0222749Y0115579D01*
X0222749Y0114512D02*
X0224884Y0112377D01*
X0433553Y0431605D02*
X0435688Y0433740D01*
X0434620Y0433740D02*
X0437823Y0433740D01*
X0437823Y0431605D02*
X0437823Y0438010D01*
X0434620Y0438010D01*
X0433553Y0436942D01*
X0433553Y0434807D01*
X0434620Y0433740D01*
X0439985Y0431605D02*
X0442120Y0431605D01*
X0441053Y0431605D02*
X0441053Y0438010D01*
X0442120Y0438010D02*
X0439985Y0438010D01*
X0444295Y0438010D02*
X0444295Y0432672D01*
X0445363Y0431605D01*
X0447498Y0431605D01*
X0448566Y0432672D01*
X0448566Y0438010D01*
X0450741Y0435875D02*
X0452876Y0438010D01*
X0455011Y0435875D01*
X0455011Y0431605D01*
X0455011Y0434807D02*
X0450741Y0434807D01*
X0450741Y0435875D02*
X0450741Y0431605D01*
X0463632Y0431605D02*
X0465767Y0433740D01*
X0464699Y0433740D02*
X0467902Y0433740D01*
X0467902Y0431605D02*
X0467902Y0438010D01*
X0464699Y0438010D01*
X0463632Y0436942D01*
X0463632Y0434807D01*
X0464699Y0433740D01*
X0470077Y0432672D02*
X0470077Y0436942D01*
X0471145Y0438010D01*
X0473280Y0438010D01*
X0474348Y0436942D01*
X0474348Y0432672D01*
X0473280Y0431605D01*
X0471145Y0431605D01*
X0470077Y0432672D01*
X0476523Y0438010D02*
X0480793Y0438010D01*
X0480793Y0431605D01*
X0480793Y0434807D02*
X0478658Y0434807D01*
X0489414Y0431605D02*
X0493684Y0431605D01*
X0493684Y0438010D01*
X0489414Y0438010D01*
X0491549Y0434807D02*
X0493684Y0434807D01*
X0495859Y0438010D02*
X0500130Y0438010D01*
X0500130Y0431605D01*
X0502291Y0431605D02*
X0504427Y0431605D01*
X0503359Y0431605D02*
X0503359Y0438010D01*
X0504427Y0438010D02*
X0502291Y0438010D01*
X0500130Y0434807D02*
X0497994Y0434807D01*
X0506602Y0431605D02*
X0510872Y0431605D01*
X0510872Y0438010D01*
X0519493Y0438010D02*
X0519493Y0436942D01*
X0521628Y0434807D01*
X0521628Y0431605D01*
X0521628Y0434807D02*
X0523763Y0436942D01*
X0523763Y0438010D01*
X0525938Y0438010D02*
X0525938Y0431605D01*
X0530209Y0431605D02*
X0530209Y0438010D01*
X0528073Y0435875D01*
X0525938Y0438010D01*
D12*
X0350121Y0363198D02*
X0350121Y0361663D01*
X0349354Y0360896D01*
X0350121Y0363198D02*
X0349354Y0363965D01*
X0348587Y0363965D01*
X0345517Y0360896D01*
X0345517Y0363965D01*
X0345517Y0359361D02*
X0345517Y0356292D01*
X0345517Y0357827D02*
X0350121Y0357827D01*
X0348587Y0356292D01*
X0349354Y0354757D02*
X0350121Y0353990D01*
X0350121Y0352456D01*
X0349354Y0351688D01*
X0346285Y0351688D01*
X0345517Y0352456D01*
X0345517Y0353990D01*
X0346285Y0354757D01*
X0284057Y0306226D02*
X0284057Y0303156D01*
X0283289Y0302389D01*
X0281755Y0302389D01*
X0280987Y0303156D01*
X0279453Y0303156D02*
X0279453Y0303924D01*
X0278685Y0304691D01*
X0277151Y0304691D01*
X0276383Y0303924D01*
X0276383Y0303156D01*
X0277151Y0302389D01*
X0278685Y0302389D01*
X0279453Y0303156D01*
X0278685Y0304691D02*
X0279453Y0305458D01*
X0279453Y0306226D01*
X0278685Y0306993D01*
X0277151Y0306993D01*
X0276383Y0306226D01*
X0276383Y0305458D01*
X0277151Y0304691D01*
X0280987Y0306226D02*
X0281755Y0306993D01*
X0283289Y0306993D01*
X0284057Y0306226D01*
X0274289Y0315889D02*
X0272755Y0315889D01*
X0271987Y0316656D01*
X0270453Y0315889D02*
X0267383Y0318958D01*
X0267383Y0319726D01*
X0268151Y0320493D01*
X0269685Y0320493D01*
X0270453Y0319726D01*
X0271987Y0319726D02*
X0272755Y0320493D01*
X0274289Y0320493D01*
X0275057Y0319726D01*
X0275057Y0316656D01*
X0274289Y0315889D01*
X0270453Y0315889D02*
X0267383Y0315889D01*
X0265849Y0316656D02*
X0265081Y0315889D01*
X0263547Y0315889D01*
X0262780Y0316656D01*
X0262780Y0318191D01*
X0263547Y0318958D01*
X0264314Y0318958D01*
X0265849Y0318191D01*
X0265849Y0320493D01*
X0262780Y0320493D01*
X0263547Y0293993D02*
X0262780Y0293226D01*
X0265849Y0290156D01*
X0265081Y0289389D01*
X0263547Y0289389D01*
X0262780Y0290156D01*
X0262780Y0293226D01*
X0263547Y0293993D02*
X0265081Y0293993D01*
X0265849Y0293226D01*
X0265849Y0290156D01*
X0267383Y0289389D02*
X0270453Y0289389D01*
X0267383Y0292458D01*
X0267383Y0293226D01*
X0268151Y0293993D01*
X0269685Y0293993D01*
X0270453Y0293226D01*
X0271987Y0293226D02*
X0272755Y0293993D01*
X0274289Y0293993D01*
X0275057Y0293226D01*
X0275057Y0290156D01*
X0274289Y0289389D01*
X0272755Y0289389D01*
X0271987Y0290156D01*
X0350461Y0231795D02*
X0350461Y0227191D01*
X0351996Y0227191D02*
X0348926Y0227191D01*
X0351996Y0230261D02*
X0350461Y0231795D01*
X0355065Y0231795D02*
X0355065Y0227191D01*
X0356600Y0227191D02*
X0353530Y0227191D01*
X0356600Y0230261D02*
X0355065Y0231795D01*
X0358134Y0231028D02*
X0358902Y0231795D01*
X0360436Y0231795D01*
X0361203Y0231028D01*
X0361203Y0227959D01*
X0360436Y0227191D01*
X0358902Y0227191D01*
X0358134Y0227959D01*
X0346227Y0208449D02*
X0343158Y0205380D01*
X0342391Y0206147D01*
X0342391Y0207682D01*
X0343158Y0208449D01*
X0346227Y0208449D01*
X0346995Y0207682D01*
X0346995Y0206147D01*
X0346227Y0205380D01*
X0343158Y0205380D01*
X0342391Y0203845D02*
X0342391Y0200776D01*
X0342391Y0202310D02*
X0346995Y0202310D01*
X0345460Y0200776D01*
X0346227Y0199241D02*
X0346995Y0198474D01*
X0346995Y0196939D01*
X0346227Y0196172D01*
X0343158Y0196172D01*
X0342391Y0196939D01*
X0342391Y0198474D01*
X0343158Y0199241D01*
X0376490Y0199094D02*
X0378024Y0197559D01*
X0378024Y0198326D02*
X0378024Y0196025D01*
X0376490Y0196025D02*
X0381094Y0196025D01*
X0381094Y0198326D01*
X0380326Y0199094D01*
X0378792Y0199094D01*
X0378024Y0198326D01*
X0376490Y0200628D02*
X0376490Y0203698D01*
X0376490Y0202163D02*
X0381094Y0202163D01*
X0379559Y0200628D01*
X0379559Y0205232D02*
X0380326Y0205232D01*
X0381094Y0206000D01*
X0381094Y0207534D01*
X0380326Y0208302D01*
X0379559Y0208302D01*
X0378792Y0207534D01*
X0378792Y0206000D01*
X0379559Y0205232D01*
X0378792Y0206000D02*
X0378024Y0205232D01*
X0377257Y0205232D01*
X0376490Y0206000D01*
X0376490Y0207534D01*
X0377257Y0208302D01*
X0378024Y0208302D01*
X0378792Y0207534D01*
X0101639Y0266991D02*
X0101639Y0271595D01*
X0101639Y0269293D02*
X0098570Y0269293D01*
X0097035Y0269293D02*
X0095500Y0269293D01*
X0097035Y0266991D02*
X0093966Y0266991D01*
X0092431Y0266991D02*
X0092431Y0270060D01*
X0090896Y0271595D01*
X0089362Y0270060D01*
X0089362Y0266991D01*
X0087827Y0266991D02*
X0087827Y0271595D01*
X0085525Y0271595D01*
X0084758Y0270828D01*
X0084758Y0269293D01*
X0085525Y0268526D01*
X0087827Y0268526D01*
X0086293Y0268526D02*
X0084758Y0266991D01*
X0081689Y0266991D02*
X0081689Y0271595D01*
X0083223Y0271595D02*
X0080154Y0271595D01*
X0078619Y0270060D02*
X0077085Y0271595D01*
X0077085Y0266991D01*
X0078619Y0266991D02*
X0075550Y0266991D01*
X0089362Y0269293D02*
X0092431Y0269293D01*
X0093966Y0271595D02*
X0097035Y0271595D01*
X0097035Y0266991D01*
X0098570Y0266991D02*
X0098570Y0271595D01*
X0098233Y0282695D02*
X0098233Y0287299D01*
X0098233Y0284997D02*
X0095164Y0284997D01*
X0093630Y0284997D02*
X0092095Y0284997D01*
X0090560Y0287299D02*
X0093630Y0287299D01*
X0093630Y0282695D01*
X0090560Y0282695D01*
X0089026Y0282695D02*
X0089026Y0285764D01*
X0087491Y0287299D01*
X0085956Y0285764D01*
X0085956Y0282695D01*
X0084422Y0282695D02*
X0084422Y0287299D01*
X0082120Y0287299D01*
X0081352Y0286531D01*
X0081352Y0284997D01*
X0082120Y0284229D01*
X0084422Y0284229D01*
X0082887Y0284229D02*
X0081352Y0282695D01*
X0078283Y0282695D02*
X0078283Y0287299D01*
X0079818Y0287299D02*
X0076748Y0287299D01*
X0075214Y0286531D02*
X0074447Y0287299D01*
X0072912Y0287299D01*
X0072145Y0286531D01*
X0072145Y0285764D01*
X0075214Y0282695D01*
X0072145Y0282695D01*
X0059117Y0282000D02*
X0059117Y0286604D01*
X0056815Y0286604D01*
X0056048Y0285837D01*
X0056048Y0284302D01*
X0056815Y0283535D01*
X0059117Y0283535D01*
X0057583Y0283535D02*
X0056048Y0282000D01*
X0054513Y0282000D02*
X0051444Y0282000D01*
X0052979Y0282000D02*
X0052979Y0286604D01*
X0054513Y0285069D01*
X0049909Y0284302D02*
X0046840Y0284302D01*
X0047608Y0286604D02*
X0049909Y0284302D01*
X0047608Y0282000D02*
X0047608Y0286604D01*
X0047608Y0297500D02*
X0049142Y0297500D01*
X0049909Y0298267D01*
X0049909Y0299802D02*
X0048375Y0300569D01*
X0047608Y0300569D01*
X0046840Y0299802D01*
X0046840Y0298267D01*
X0047608Y0297500D01*
X0049909Y0299802D02*
X0049909Y0302104D01*
X0046840Y0302104D01*
X0052979Y0302104D02*
X0052979Y0297500D01*
X0054513Y0297500D02*
X0051444Y0297500D01*
X0054513Y0300569D02*
X0052979Y0302104D01*
X0056048Y0301337D02*
X0056048Y0299802D01*
X0056815Y0299035D01*
X0059117Y0299035D01*
X0057583Y0299035D02*
X0056048Y0297500D01*
X0059117Y0297500D02*
X0059117Y0302104D01*
X0056815Y0302104D01*
X0056048Y0301337D01*
X0030121Y0286698D02*
X0029354Y0287465D01*
X0028587Y0287465D01*
X0027819Y0286698D01*
X0027052Y0287465D01*
X0026285Y0287465D01*
X0025517Y0286698D01*
X0025517Y0285163D01*
X0026285Y0284396D01*
X0025517Y0282861D02*
X0025517Y0279792D01*
X0025517Y0278257D02*
X0027052Y0276723D01*
X0027052Y0277490D02*
X0027052Y0275188D01*
X0025517Y0275188D02*
X0030121Y0275188D01*
X0030121Y0277490D01*
X0029354Y0278257D01*
X0027819Y0278257D01*
X0027052Y0277490D01*
X0028587Y0279792D02*
X0030121Y0281327D01*
X0025517Y0281327D01*
X0029354Y0284396D02*
X0030121Y0285163D01*
X0030121Y0286698D01*
X0027819Y0286698D02*
X0027819Y0285931D01*
X0085956Y0284997D02*
X0089026Y0284997D01*
X0095164Y0287299D02*
X0095164Y0282695D01*
X0032121Y0202965D02*
X0031354Y0202965D01*
X0028285Y0199896D01*
X0027517Y0199896D01*
X0027517Y0198361D02*
X0027517Y0195292D01*
X0027517Y0193757D02*
X0029052Y0192223D01*
X0029052Y0192990D02*
X0029052Y0190688D01*
X0027517Y0190688D02*
X0032121Y0190688D01*
X0032121Y0192990D01*
X0031354Y0193757D01*
X0029819Y0193757D01*
X0029052Y0192990D01*
X0030587Y0195292D02*
X0032121Y0196827D01*
X0027517Y0196827D01*
X0032121Y0199896D02*
X0032121Y0202965D01*
D13*
X0076931Y0274687D02*
X0077197Y0274930D01*
X0077197Y0274929D02*
X0077268Y0274855D01*
X0077342Y0274783D01*
X0077419Y0274714D01*
X0077498Y0274648D01*
X0077579Y0274585D01*
X0077663Y0274525D01*
X0077749Y0274469D01*
X0077838Y0274415D01*
X0077928Y0274365D01*
X0078020Y0274319D01*
X0078113Y0274276D01*
X0078208Y0274236D01*
X0078305Y0274200D01*
X0078403Y0274168D01*
X0078502Y0274139D01*
X0078602Y0274114D01*
X0078703Y0274093D01*
X0078804Y0274076D01*
X0078906Y0274062D01*
X0079009Y0274053D01*
X0079112Y0274047D01*
X0079215Y0274045D01*
X0079318Y0274047D01*
X0079421Y0274053D01*
X0079524Y0274062D01*
X0079626Y0274076D01*
X0079727Y0274093D01*
X0079828Y0274114D01*
X0079928Y0274139D01*
X0080027Y0274168D01*
X0080125Y0274200D01*
X0080222Y0274236D01*
X0080317Y0274276D01*
X0080410Y0274319D01*
X0080502Y0274365D01*
X0080592Y0274415D01*
X0080681Y0274469D01*
X0080767Y0274525D01*
X0080851Y0274585D01*
X0080932Y0274648D01*
X0081011Y0274714D01*
X0081088Y0274783D01*
X0081162Y0274855D01*
X0081233Y0274929D01*
X0081499Y0274687D01*
X0081500Y0274687D01*
X0081424Y0274608D01*
X0081346Y0274532D01*
X0081265Y0274458D01*
X0081182Y0274387D01*
X0081096Y0274320D01*
X0081008Y0274255D01*
X0080918Y0274194D01*
X0080826Y0274135D01*
X0080731Y0274080D01*
X0080635Y0274029D01*
X0080537Y0273980D01*
X0080437Y0273936D01*
X0080336Y0273894D01*
X0080234Y0273857D01*
X0080130Y0273823D01*
X0080025Y0273792D01*
X0079919Y0273766D01*
X0079812Y0273743D01*
X0079705Y0273724D01*
X0079596Y0273709D01*
X0079488Y0273697D01*
X0079379Y0273689D01*
X0079270Y0273685D01*
X0079160Y0273685D01*
X0079051Y0273689D01*
X0078942Y0273697D01*
X0078834Y0273709D01*
X0078725Y0273724D01*
X0078618Y0273743D01*
X0078511Y0273766D01*
X0078405Y0273792D01*
X0078300Y0273823D01*
X0078196Y0273857D01*
X0078094Y0273894D01*
X0077993Y0273936D01*
X0077893Y0273980D01*
X0077795Y0274029D01*
X0077699Y0274080D01*
X0077604Y0274135D01*
X0077512Y0274194D01*
X0077422Y0274255D01*
X0077334Y0274320D01*
X0077248Y0274387D01*
X0077165Y0274458D01*
X0077084Y0274532D01*
X0077006Y0274608D01*
X0076930Y0274687D01*
X0076958Y0274712D01*
X0077032Y0274634D01*
X0077109Y0274558D01*
X0077189Y0274486D01*
X0077271Y0274416D01*
X0077356Y0274349D01*
X0077443Y0274285D01*
X0077532Y0274224D01*
X0077624Y0274167D01*
X0077717Y0274112D01*
X0077812Y0274061D01*
X0077909Y0274014D01*
X0078007Y0273970D01*
X0078107Y0273929D01*
X0078209Y0273892D01*
X0078311Y0273858D01*
X0078415Y0273828D01*
X0078520Y0273802D01*
X0078625Y0273779D01*
X0078731Y0273760D01*
X0078838Y0273745D01*
X0078946Y0273734D01*
X0079053Y0273726D01*
X0079161Y0273722D01*
X0079269Y0273722D01*
X0079377Y0273726D01*
X0079484Y0273734D01*
X0079592Y0273745D01*
X0079699Y0273760D01*
X0079805Y0273779D01*
X0079910Y0273802D01*
X0080015Y0273828D01*
X0080119Y0273858D01*
X0080221Y0273892D01*
X0080323Y0273929D01*
X0080423Y0273970D01*
X0080521Y0274014D01*
X0080618Y0274061D01*
X0080713Y0274112D01*
X0080806Y0274167D01*
X0080898Y0274224D01*
X0080987Y0274285D01*
X0081074Y0274349D01*
X0081159Y0274416D01*
X0081241Y0274486D01*
X0081321Y0274558D01*
X0081398Y0274634D01*
X0081472Y0274712D01*
X0081445Y0274737D01*
X0081370Y0274658D01*
X0081292Y0274582D01*
X0081211Y0274509D01*
X0081128Y0274438D01*
X0081042Y0274371D01*
X0080954Y0274307D01*
X0080864Y0274246D01*
X0080771Y0274189D01*
X0080677Y0274135D01*
X0080580Y0274084D01*
X0080482Y0274036D01*
X0080382Y0273993D01*
X0080281Y0273953D01*
X0080178Y0273916D01*
X0080075Y0273883D01*
X0079970Y0273854D01*
X0079864Y0273829D01*
X0079757Y0273808D01*
X0079649Y0273790D01*
X0079541Y0273777D01*
X0079433Y0273767D01*
X0079324Y0273761D01*
X0079215Y0273759D01*
X0079106Y0273761D01*
X0078997Y0273767D01*
X0078889Y0273777D01*
X0078781Y0273790D01*
X0078673Y0273808D01*
X0078566Y0273829D01*
X0078460Y0273854D01*
X0078355Y0273883D01*
X0078252Y0273916D01*
X0078149Y0273953D01*
X0078048Y0273993D01*
X0077948Y0274036D01*
X0077850Y0274084D01*
X0077753Y0274135D01*
X0077659Y0274189D01*
X0077566Y0274246D01*
X0077476Y0274307D01*
X0077388Y0274371D01*
X0077302Y0274438D01*
X0077219Y0274509D01*
X0077138Y0274582D01*
X0077060Y0274658D01*
X0076985Y0274737D01*
X0077012Y0274762D01*
X0077087Y0274684D01*
X0077164Y0274609D01*
X0077243Y0274536D01*
X0077326Y0274467D01*
X0077410Y0274401D01*
X0077497Y0274337D01*
X0077587Y0274277D01*
X0077678Y0274220D01*
X0077771Y0274167D01*
X0077867Y0274117D01*
X0077963Y0274070D01*
X0078062Y0274027D01*
X0078162Y0273987D01*
X0078263Y0273951D01*
X0078366Y0273919D01*
X0078470Y0273890D01*
X0078574Y0273865D01*
X0078680Y0273844D01*
X0078786Y0273827D01*
X0078893Y0273813D01*
X0079000Y0273804D01*
X0079107Y0273798D01*
X0079215Y0273796D01*
X0079323Y0273798D01*
X0079430Y0273804D01*
X0079537Y0273813D01*
X0079644Y0273827D01*
X0079750Y0273844D01*
X0079856Y0273865D01*
X0079960Y0273890D01*
X0080064Y0273919D01*
X0080167Y0273951D01*
X0080268Y0273987D01*
X0080368Y0274027D01*
X0080467Y0274070D01*
X0080563Y0274117D01*
X0080659Y0274167D01*
X0080752Y0274220D01*
X0080843Y0274277D01*
X0080933Y0274337D01*
X0081020Y0274401D01*
X0081104Y0274467D01*
X0081187Y0274536D01*
X0081266Y0274609D01*
X0081343Y0274684D01*
X0081418Y0274762D01*
X0081390Y0274786D01*
X0081315Y0274708D01*
X0081237Y0274632D01*
X0081157Y0274559D01*
X0081073Y0274490D01*
X0080988Y0274423D01*
X0080900Y0274360D01*
X0080809Y0274299D01*
X0080717Y0274242D01*
X0080622Y0274189D01*
X0080526Y0274139D01*
X0080427Y0274093D01*
X0080327Y0274050D01*
X0080226Y0274011D01*
X0080123Y0273976D01*
X0080019Y0273944D01*
X0079914Y0273917D01*
X0079808Y0273893D01*
X0079702Y0273873D01*
X0079594Y0273857D01*
X0079486Y0273845D01*
X0079378Y0273837D01*
X0079269Y0273833D01*
X0079161Y0273833D01*
X0079052Y0273837D01*
X0078944Y0273845D01*
X0078836Y0273857D01*
X0078728Y0273873D01*
X0078622Y0273893D01*
X0078516Y0273917D01*
X0078411Y0273944D01*
X0078307Y0273976D01*
X0078204Y0274011D01*
X0078103Y0274050D01*
X0078003Y0274093D01*
X0077904Y0274139D01*
X0077808Y0274189D01*
X0077713Y0274242D01*
X0077621Y0274299D01*
X0077530Y0274360D01*
X0077442Y0274423D01*
X0077357Y0274490D01*
X0077273Y0274559D01*
X0077193Y0274632D01*
X0077115Y0274708D01*
X0077040Y0274786D01*
X0077067Y0274811D01*
X0077141Y0274734D01*
X0077218Y0274659D01*
X0077298Y0274587D01*
X0077380Y0274518D01*
X0077465Y0274453D01*
X0077552Y0274390D01*
X0077641Y0274330D01*
X0077732Y0274274D01*
X0077826Y0274222D01*
X0077921Y0274172D01*
X0078018Y0274127D01*
X0078117Y0274084D01*
X0078217Y0274046D01*
X0078318Y0274011D01*
X0078421Y0273980D01*
X0078524Y0273953D01*
X0078629Y0273929D01*
X0078735Y0273910D01*
X0078841Y0273894D01*
X0078947Y0273882D01*
X0079054Y0273874D01*
X0079161Y0273870D01*
X0079269Y0273870D01*
X0079376Y0273874D01*
X0079483Y0273882D01*
X0079589Y0273894D01*
X0079695Y0273910D01*
X0079801Y0273929D01*
X0079906Y0273953D01*
X0080009Y0273980D01*
X0080112Y0274011D01*
X0080213Y0274046D01*
X0080313Y0274084D01*
X0080412Y0274127D01*
X0080509Y0274172D01*
X0080604Y0274222D01*
X0080698Y0274274D01*
X0080789Y0274330D01*
X0080878Y0274390D01*
X0080965Y0274453D01*
X0081050Y0274518D01*
X0081132Y0274587D01*
X0081212Y0274659D01*
X0081289Y0274734D01*
X0081363Y0274811D01*
X0081335Y0274836D01*
X0081262Y0274760D01*
X0081186Y0274686D01*
X0081108Y0274615D01*
X0081027Y0274547D01*
X0080943Y0274482D01*
X0080857Y0274420D01*
X0080769Y0274361D01*
X0080679Y0274306D01*
X0080587Y0274254D01*
X0080493Y0274205D01*
X0080397Y0274160D01*
X0080299Y0274119D01*
X0080201Y0274081D01*
X0080100Y0274046D01*
X0079999Y0274016D01*
X0079897Y0273989D01*
X0079793Y0273966D01*
X0079689Y0273946D01*
X0079585Y0273931D01*
X0079479Y0273919D01*
X0079374Y0273911D01*
X0079268Y0273907D01*
X0079162Y0273907D01*
X0079056Y0273911D01*
X0078951Y0273919D01*
X0078845Y0273931D01*
X0078741Y0273946D01*
X0078637Y0273966D01*
X0078533Y0273989D01*
X0078431Y0274016D01*
X0078330Y0274046D01*
X0078229Y0274081D01*
X0078131Y0274119D01*
X0078033Y0274160D01*
X0077937Y0274205D01*
X0077843Y0274254D01*
X0077751Y0274306D01*
X0077661Y0274361D01*
X0077573Y0274420D01*
X0077487Y0274482D01*
X0077403Y0274547D01*
X0077322Y0274615D01*
X0077244Y0274686D01*
X0077168Y0274760D01*
X0077095Y0274836D01*
X0077122Y0274861D01*
X0077194Y0274786D01*
X0077269Y0274713D01*
X0077347Y0274643D01*
X0077427Y0274576D01*
X0077509Y0274512D01*
X0077594Y0274450D01*
X0077681Y0274393D01*
X0077770Y0274338D01*
X0077861Y0274287D01*
X0077954Y0274239D01*
X0078049Y0274194D01*
X0078145Y0274153D01*
X0078242Y0274115D01*
X0078341Y0274081D01*
X0078441Y0274051D01*
X0078542Y0274025D01*
X0078644Y0274002D01*
X0078747Y0273983D01*
X0078850Y0273967D01*
X0078954Y0273956D01*
X0079058Y0273948D01*
X0079163Y0273944D01*
X0079267Y0273944D01*
X0079372Y0273948D01*
X0079476Y0273956D01*
X0079580Y0273967D01*
X0079683Y0273983D01*
X0079786Y0274002D01*
X0079888Y0274025D01*
X0079989Y0274051D01*
X0080089Y0274081D01*
X0080188Y0274115D01*
X0080285Y0274153D01*
X0080381Y0274194D01*
X0080476Y0274239D01*
X0080569Y0274287D01*
X0080660Y0274338D01*
X0080749Y0274393D01*
X0080836Y0274450D01*
X0080921Y0274512D01*
X0081003Y0274576D01*
X0081083Y0274643D01*
X0081161Y0274713D01*
X0081236Y0274786D01*
X0081308Y0274861D01*
X0081281Y0274886D01*
X0081208Y0274810D01*
X0081132Y0274736D01*
X0081054Y0274666D01*
X0080973Y0274598D01*
X0080889Y0274534D01*
X0080803Y0274473D01*
X0080715Y0274415D01*
X0080625Y0274360D01*
X0080533Y0274309D01*
X0080438Y0274261D01*
X0080343Y0274217D01*
X0080245Y0274177D01*
X0080146Y0274140D01*
X0080046Y0274107D01*
X0079945Y0274077D01*
X0079843Y0274052D01*
X0079739Y0274030D01*
X0079635Y0274013D01*
X0079531Y0273999D01*
X0079426Y0273989D01*
X0079320Y0273983D01*
X0079215Y0273981D01*
X0079110Y0273983D01*
X0079004Y0273989D01*
X0078899Y0273999D01*
X0078795Y0274013D01*
X0078691Y0274030D01*
X0078587Y0274052D01*
X0078485Y0274077D01*
X0078384Y0274107D01*
X0078284Y0274140D01*
X0078185Y0274177D01*
X0078087Y0274217D01*
X0077992Y0274261D01*
X0077897Y0274309D01*
X0077805Y0274360D01*
X0077715Y0274415D01*
X0077627Y0274473D01*
X0077541Y0274534D01*
X0077457Y0274598D01*
X0077376Y0274666D01*
X0077298Y0274736D01*
X0077222Y0274810D01*
X0077149Y0274886D01*
X0077177Y0274911D01*
X0077249Y0274836D01*
X0077323Y0274763D01*
X0077401Y0274694D01*
X0077481Y0274627D01*
X0077563Y0274564D01*
X0077648Y0274503D01*
X0077735Y0274446D01*
X0077824Y0274392D01*
X0077915Y0274342D01*
X0078008Y0274295D01*
X0078102Y0274251D01*
X0078198Y0274211D01*
X0078296Y0274175D01*
X0078395Y0274142D01*
X0078495Y0274113D01*
X0078596Y0274088D01*
X0078698Y0274067D01*
X0078800Y0274049D01*
X0078903Y0274036D01*
X0079007Y0274026D01*
X0079111Y0274020D01*
X0079215Y0274018D01*
X0079319Y0274020D01*
X0079423Y0274026D01*
X0079527Y0274036D01*
X0079630Y0274049D01*
X0079732Y0274067D01*
X0079834Y0274088D01*
X0079935Y0274113D01*
X0080035Y0274142D01*
X0080134Y0274175D01*
X0080232Y0274211D01*
X0080328Y0274251D01*
X0080422Y0274295D01*
X0080515Y0274342D01*
X0080606Y0274392D01*
X0080695Y0274446D01*
X0080782Y0274503D01*
X0080867Y0274564D01*
X0080949Y0274627D01*
X0081029Y0274694D01*
X0081107Y0274763D01*
X0081181Y0274836D01*
X0081253Y0274911D01*
X0081499Y0278895D02*
X0081233Y0278652D01*
X0081233Y0278653D02*
X0081162Y0278727D01*
X0081088Y0278799D01*
X0081011Y0278868D01*
X0080932Y0278934D01*
X0080851Y0278997D01*
X0080767Y0279057D01*
X0080681Y0279113D01*
X0080592Y0279167D01*
X0080502Y0279217D01*
X0080410Y0279263D01*
X0080317Y0279306D01*
X0080222Y0279346D01*
X0080125Y0279382D01*
X0080027Y0279414D01*
X0079928Y0279443D01*
X0079828Y0279468D01*
X0079727Y0279489D01*
X0079626Y0279506D01*
X0079524Y0279520D01*
X0079421Y0279529D01*
X0079318Y0279535D01*
X0079215Y0279537D01*
X0079112Y0279535D01*
X0079009Y0279529D01*
X0078906Y0279520D01*
X0078804Y0279506D01*
X0078703Y0279489D01*
X0078602Y0279468D01*
X0078502Y0279443D01*
X0078403Y0279414D01*
X0078305Y0279382D01*
X0078208Y0279346D01*
X0078113Y0279306D01*
X0078020Y0279263D01*
X0077928Y0279217D01*
X0077838Y0279167D01*
X0077749Y0279113D01*
X0077663Y0279057D01*
X0077579Y0278997D01*
X0077498Y0278934D01*
X0077419Y0278868D01*
X0077342Y0278799D01*
X0077268Y0278727D01*
X0077197Y0278653D01*
X0076931Y0278895D01*
X0076930Y0278895D01*
X0077006Y0278974D01*
X0077084Y0279050D01*
X0077165Y0279124D01*
X0077248Y0279195D01*
X0077334Y0279262D01*
X0077422Y0279327D01*
X0077512Y0279388D01*
X0077604Y0279447D01*
X0077699Y0279502D01*
X0077795Y0279553D01*
X0077893Y0279602D01*
X0077993Y0279646D01*
X0078094Y0279688D01*
X0078196Y0279725D01*
X0078300Y0279759D01*
X0078405Y0279790D01*
X0078511Y0279816D01*
X0078618Y0279839D01*
X0078725Y0279858D01*
X0078834Y0279873D01*
X0078942Y0279885D01*
X0079051Y0279893D01*
X0079160Y0279897D01*
X0079270Y0279897D01*
X0079379Y0279893D01*
X0079488Y0279885D01*
X0079596Y0279873D01*
X0079705Y0279858D01*
X0079812Y0279839D01*
X0079919Y0279816D01*
X0080025Y0279790D01*
X0080130Y0279759D01*
X0080234Y0279725D01*
X0080336Y0279688D01*
X0080437Y0279646D01*
X0080537Y0279602D01*
X0080635Y0279553D01*
X0080731Y0279502D01*
X0080826Y0279447D01*
X0080918Y0279388D01*
X0081008Y0279327D01*
X0081096Y0279262D01*
X0081182Y0279195D01*
X0081265Y0279124D01*
X0081346Y0279050D01*
X0081424Y0278974D01*
X0081500Y0278895D01*
X0081472Y0278870D01*
X0081398Y0278948D01*
X0081321Y0279024D01*
X0081241Y0279096D01*
X0081159Y0279166D01*
X0081074Y0279233D01*
X0080987Y0279297D01*
X0080898Y0279358D01*
X0080806Y0279415D01*
X0080713Y0279470D01*
X0080618Y0279521D01*
X0080521Y0279568D01*
X0080423Y0279612D01*
X0080323Y0279653D01*
X0080221Y0279690D01*
X0080119Y0279724D01*
X0080015Y0279754D01*
X0079910Y0279780D01*
X0079805Y0279803D01*
X0079699Y0279822D01*
X0079592Y0279837D01*
X0079484Y0279848D01*
X0079377Y0279856D01*
X0079269Y0279860D01*
X0079161Y0279860D01*
X0079053Y0279856D01*
X0078946Y0279848D01*
X0078838Y0279837D01*
X0078731Y0279822D01*
X0078625Y0279803D01*
X0078520Y0279780D01*
X0078415Y0279754D01*
X0078311Y0279724D01*
X0078209Y0279690D01*
X0078107Y0279653D01*
X0078007Y0279612D01*
X0077909Y0279568D01*
X0077812Y0279521D01*
X0077717Y0279470D01*
X0077624Y0279415D01*
X0077532Y0279358D01*
X0077443Y0279297D01*
X0077356Y0279233D01*
X0077271Y0279166D01*
X0077189Y0279096D01*
X0077109Y0279024D01*
X0077032Y0278948D01*
X0076958Y0278870D01*
X0076985Y0278845D01*
X0077060Y0278924D01*
X0077138Y0279000D01*
X0077219Y0279073D01*
X0077302Y0279144D01*
X0077388Y0279211D01*
X0077476Y0279275D01*
X0077566Y0279336D01*
X0077659Y0279393D01*
X0077753Y0279447D01*
X0077850Y0279498D01*
X0077948Y0279546D01*
X0078048Y0279589D01*
X0078149Y0279629D01*
X0078252Y0279666D01*
X0078355Y0279699D01*
X0078460Y0279728D01*
X0078566Y0279753D01*
X0078673Y0279774D01*
X0078781Y0279792D01*
X0078889Y0279805D01*
X0078997Y0279815D01*
X0079106Y0279821D01*
X0079215Y0279823D01*
X0079324Y0279821D01*
X0079433Y0279815D01*
X0079541Y0279805D01*
X0079649Y0279792D01*
X0079757Y0279774D01*
X0079864Y0279753D01*
X0079970Y0279728D01*
X0080075Y0279699D01*
X0080178Y0279666D01*
X0080281Y0279629D01*
X0080382Y0279589D01*
X0080482Y0279546D01*
X0080580Y0279498D01*
X0080677Y0279447D01*
X0080771Y0279393D01*
X0080864Y0279336D01*
X0080954Y0279275D01*
X0081042Y0279211D01*
X0081128Y0279144D01*
X0081211Y0279073D01*
X0081292Y0279000D01*
X0081370Y0278924D01*
X0081445Y0278845D01*
X0081418Y0278820D01*
X0081343Y0278898D01*
X0081266Y0278973D01*
X0081187Y0279046D01*
X0081104Y0279115D01*
X0081020Y0279181D01*
X0080933Y0279245D01*
X0080843Y0279305D01*
X0080752Y0279362D01*
X0080659Y0279415D01*
X0080563Y0279465D01*
X0080467Y0279512D01*
X0080368Y0279555D01*
X0080268Y0279595D01*
X0080167Y0279631D01*
X0080064Y0279663D01*
X0079960Y0279692D01*
X0079856Y0279717D01*
X0079750Y0279738D01*
X0079644Y0279755D01*
X0079537Y0279769D01*
X0079430Y0279778D01*
X0079323Y0279784D01*
X0079215Y0279786D01*
X0079107Y0279784D01*
X0079000Y0279778D01*
X0078893Y0279769D01*
X0078786Y0279755D01*
X0078680Y0279738D01*
X0078574Y0279717D01*
X0078470Y0279692D01*
X0078366Y0279663D01*
X0078263Y0279631D01*
X0078162Y0279595D01*
X0078062Y0279555D01*
X0077963Y0279512D01*
X0077867Y0279465D01*
X0077771Y0279415D01*
X0077678Y0279362D01*
X0077587Y0279305D01*
X0077497Y0279245D01*
X0077410Y0279181D01*
X0077326Y0279115D01*
X0077243Y0279046D01*
X0077164Y0278973D01*
X0077087Y0278898D01*
X0077012Y0278820D01*
X0077040Y0278796D01*
X0077115Y0278874D01*
X0077193Y0278950D01*
X0077273Y0279023D01*
X0077357Y0279092D01*
X0077442Y0279159D01*
X0077530Y0279222D01*
X0077621Y0279283D01*
X0077713Y0279340D01*
X0077808Y0279393D01*
X0077904Y0279443D01*
X0078003Y0279489D01*
X0078103Y0279532D01*
X0078204Y0279571D01*
X0078307Y0279606D01*
X0078411Y0279638D01*
X0078516Y0279665D01*
X0078622Y0279689D01*
X0078728Y0279709D01*
X0078836Y0279725D01*
X0078944Y0279737D01*
X0079052Y0279745D01*
X0079161Y0279749D01*
X0079269Y0279749D01*
X0079378Y0279745D01*
X0079486Y0279737D01*
X0079594Y0279725D01*
X0079702Y0279709D01*
X0079808Y0279689D01*
X0079914Y0279665D01*
X0080019Y0279638D01*
X0080123Y0279606D01*
X0080226Y0279571D01*
X0080327Y0279532D01*
X0080427Y0279489D01*
X0080526Y0279443D01*
X0080622Y0279393D01*
X0080717Y0279340D01*
X0080809Y0279283D01*
X0080900Y0279222D01*
X0080988Y0279159D01*
X0081073Y0279092D01*
X0081157Y0279023D01*
X0081237Y0278950D01*
X0081315Y0278874D01*
X0081390Y0278796D01*
X0081363Y0278771D01*
X0081289Y0278848D01*
X0081212Y0278923D01*
X0081132Y0278995D01*
X0081050Y0279064D01*
X0080965Y0279129D01*
X0080878Y0279192D01*
X0080789Y0279252D01*
X0080698Y0279308D01*
X0080604Y0279360D01*
X0080509Y0279410D01*
X0080412Y0279455D01*
X0080313Y0279498D01*
X0080213Y0279536D01*
X0080112Y0279571D01*
X0080009Y0279602D01*
X0079906Y0279629D01*
X0079801Y0279653D01*
X0079695Y0279672D01*
X0079589Y0279688D01*
X0079483Y0279700D01*
X0079376Y0279708D01*
X0079269Y0279712D01*
X0079161Y0279712D01*
X0079054Y0279708D01*
X0078947Y0279700D01*
X0078841Y0279688D01*
X0078735Y0279672D01*
X0078629Y0279653D01*
X0078524Y0279629D01*
X0078421Y0279602D01*
X0078318Y0279571D01*
X0078217Y0279536D01*
X0078117Y0279498D01*
X0078018Y0279455D01*
X0077921Y0279410D01*
X0077826Y0279360D01*
X0077732Y0279308D01*
X0077641Y0279252D01*
X0077552Y0279192D01*
X0077465Y0279129D01*
X0077380Y0279064D01*
X0077298Y0278995D01*
X0077218Y0278923D01*
X0077141Y0278848D01*
X0077067Y0278771D01*
X0077095Y0278746D01*
X0077168Y0278822D01*
X0077244Y0278896D01*
X0077322Y0278967D01*
X0077403Y0279035D01*
X0077487Y0279100D01*
X0077573Y0279162D01*
X0077661Y0279221D01*
X0077751Y0279276D01*
X0077843Y0279328D01*
X0077937Y0279377D01*
X0078033Y0279422D01*
X0078131Y0279463D01*
X0078229Y0279501D01*
X0078330Y0279536D01*
X0078431Y0279566D01*
X0078533Y0279593D01*
X0078637Y0279616D01*
X0078741Y0279636D01*
X0078845Y0279651D01*
X0078951Y0279663D01*
X0079056Y0279671D01*
X0079162Y0279675D01*
X0079268Y0279675D01*
X0079374Y0279671D01*
X0079479Y0279663D01*
X0079585Y0279651D01*
X0079689Y0279636D01*
X0079793Y0279616D01*
X0079897Y0279593D01*
X0079999Y0279566D01*
X0080100Y0279536D01*
X0080201Y0279501D01*
X0080299Y0279463D01*
X0080397Y0279422D01*
X0080493Y0279377D01*
X0080587Y0279328D01*
X0080679Y0279276D01*
X0080769Y0279221D01*
X0080857Y0279162D01*
X0080943Y0279100D01*
X0081027Y0279035D01*
X0081108Y0278967D01*
X0081186Y0278896D01*
X0081262Y0278822D01*
X0081335Y0278746D01*
X0081308Y0278721D01*
X0081236Y0278796D01*
X0081161Y0278869D01*
X0081083Y0278939D01*
X0081003Y0279006D01*
X0080921Y0279070D01*
X0080836Y0279132D01*
X0080749Y0279189D01*
X0080660Y0279244D01*
X0080569Y0279295D01*
X0080476Y0279343D01*
X0080381Y0279388D01*
X0080285Y0279429D01*
X0080188Y0279467D01*
X0080089Y0279501D01*
X0079989Y0279531D01*
X0079888Y0279557D01*
X0079786Y0279580D01*
X0079683Y0279599D01*
X0079580Y0279615D01*
X0079476Y0279626D01*
X0079372Y0279634D01*
X0079267Y0279638D01*
X0079163Y0279638D01*
X0079058Y0279634D01*
X0078954Y0279626D01*
X0078850Y0279615D01*
X0078747Y0279599D01*
X0078644Y0279580D01*
X0078542Y0279557D01*
X0078441Y0279531D01*
X0078341Y0279501D01*
X0078242Y0279467D01*
X0078145Y0279429D01*
X0078049Y0279388D01*
X0077954Y0279343D01*
X0077861Y0279295D01*
X0077770Y0279244D01*
X0077681Y0279189D01*
X0077594Y0279132D01*
X0077509Y0279070D01*
X0077427Y0279006D01*
X0077347Y0278939D01*
X0077269Y0278869D01*
X0077194Y0278796D01*
X0077122Y0278721D01*
X0077149Y0278696D01*
X0077222Y0278772D01*
X0077298Y0278846D01*
X0077376Y0278916D01*
X0077457Y0278984D01*
X0077541Y0279048D01*
X0077627Y0279109D01*
X0077715Y0279167D01*
X0077805Y0279222D01*
X0077897Y0279273D01*
X0077992Y0279321D01*
X0078087Y0279365D01*
X0078185Y0279405D01*
X0078284Y0279442D01*
X0078384Y0279475D01*
X0078485Y0279505D01*
X0078587Y0279530D01*
X0078691Y0279552D01*
X0078795Y0279569D01*
X0078899Y0279583D01*
X0079004Y0279593D01*
X0079110Y0279599D01*
X0079215Y0279601D01*
X0079320Y0279599D01*
X0079426Y0279593D01*
X0079531Y0279583D01*
X0079635Y0279569D01*
X0079739Y0279552D01*
X0079843Y0279530D01*
X0079945Y0279505D01*
X0080046Y0279475D01*
X0080146Y0279442D01*
X0080245Y0279405D01*
X0080343Y0279365D01*
X0080438Y0279321D01*
X0080533Y0279273D01*
X0080625Y0279222D01*
X0080715Y0279167D01*
X0080803Y0279109D01*
X0080889Y0279048D01*
X0080973Y0278984D01*
X0081054Y0278916D01*
X0081132Y0278846D01*
X0081208Y0278772D01*
X0081281Y0278696D01*
X0081253Y0278671D01*
X0081181Y0278746D01*
X0081107Y0278819D01*
X0081029Y0278888D01*
X0080949Y0278955D01*
X0080867Y0279018D01*
X0080782Y0279079D01*
X0080695Y0279136D01*
X0080606Y0279190D01*
X0080515Y0279240D01*
X0080422Y0279287D01*
X0080328Y0279331D01*
X0080232Y0279371D01*
X0080134Y0279407D01*
X0080035Y0279440D01*
X0079935Y0279469D01*
X0079834Y0279494D01*
X0079732Y0279515D01*
X0079630Y0279533D01*
X0079527Y0279546D01*
X0079423Y0279556D01*
X0079319Y0279562D01*
X0079215Y0279564D01*
X0079111Y0279562D01*
X0079007Y0279556D01*
X0078903Y0279546D01*
X0078800Y0279533D01*
X0078698Y0279515D01*
X0078596Y0279494D01*
X0078495Y0279469D01*
X0078395Y0279440D01*
X0078296Y0279407D01*
X0078198Y0279371D01*
X0078102Y0279331D01*
X0078008Y0279287D01*
X0077915Y0279240D01*
X0077824Y0279190D01*
X0077735Y0279136D01*
X0077648Y0279079D01*
X0077563Y0279018D01*
X0077481Y0278955D01*
X0077401Y0278888D01*
X0077323Y0278819D01*
X0077249Y0278746D01*
X0077177Y0278671D01*
X0073526Y0290391D02*
X0073792Y0290634D01*
X0073792Y0290633D02*
X0073863Y0290559D01*
X0073937Y0290487D01*
X0074014Y0290418D01*
X0074093Y0290352D01*
X0074174Y0290289D01*
X0074258Y0290229D01*
X0074344Y0290173D01*
X0074433Y0290119D01*
X0074523Y0290069D01*
X0074615Y0290023D01*
X0074708Y0289980D01*
X0074803Y0289940D01*
X0074900Y0289904D01*
X0074998Y0289872D01*
X0075097Y0289843D01*
X0075197Y0289818D01*
X0075298Y0289797D01*
X0075399Y0289780D01*
X0075501Y0289766D01*
X0075604Y0289757D01*
X0075707Y0289751D01*
X0075810Y0289749D01*
X0075913Y0289751D01*
X0076016Y0289757D01*
X0076119Y0289766D01*
X0076221Y0289780D01*
X0076322Y0289797D01*
X0076423Y0289818D01*
X0076523Y0289843D01*
X0076622Y0289872D01*
X0076720Y0289904D01*
X0076817Y0289940D01*
X0076912Y0289980D01*
X0077005Y0290023D01*
X0077097Y0290069D01*
X0077187Y0290119D01*
X0077276Y0290173D01*
X0077362Y0290229D01*
X0077446Y0290289D01*
X0077527Y0290352D01*
X0077606Y0290418D01*
X0077683Y0290487D01*
X0077757Y0290559D01*
X0077828Y0290633D01*
X0078094Y0290391D01*
X0078095Y0290391D01*
X0078019Y0290312D01*
X0077941Y0290236D01*
X0077860Y0290162D01*
X0077777Y0290091D01*
X0077691Y0290024D01*
X0077603Y0289959D01*
X0077513Y0289898D01*
X0077421Y0289839D01*
X0077326Y0289784D01*
X0077230Y0289733D01*
X0077132Y0289684D01*
X0077032Y0289640D01*
X0076931Y0289598D01*
X0076829Y0289561D01*
X0076725Y0289527D01*
X0076620Y0289496D01*
X0076514Y0289470D01*
X0076407Y0289447D01*
X0076300Y0289428D01*
X0076191Y0289413D01*
X0076083Y0289401D01*
X0075974Y0289393D01*
X0075865Y0289389D01*
X0075755Y0289389D01*
X0075646Y0289393D01*
X0075537Y0289401D01*
X0075429Y0289413D01*
X0075320Y0289428D01*
X0075213Y0289447D01*
X0075106Y0289470D01*
X0075000Y0289496D01*
X0074895Y0289527D01*
X0074791Y0289561D01*
X0074689Y0289598D01*
X0074588Y0289640D01*
X0074488Y0289684D01*
X0074390Y0289733D01*
X0074294Y0289784D01*
X0074199Y0289839D01*
X0074107Y0289898D01*
X0074017Y0289959D01*
X0073929Y0290024D01*
X0073843Y0290091D01*
X0073760Y0290162D01*
X0073679Y0290236D01*
X0073601Y0290312D01*
X0073525Y0290391D01*
X0073553Y0290416D01*
X0073627Y0290338D01*
X0073704Y0290262D01*
X0073784Y0290190D01*
X0073866Y0290120D01*
X0073951Y0290053D01*
X0074038Y0289989D01*
X0074127Y0289928D01*
X0074219Y0289871D01*
X0074312Y0289816D01*
X0074407Y0289765D01*
X0074504Y0289718D01*
X0074602Y0289674D01*
X0074702Y0289633D01*
X0074804Y0289596D01*
X0074906Y0289562D01*
X0075010Y0289532D01*
X0075115Y0289506D01*
X0075220Y0289483D01*
X0075326Y0289464D01*
X0075433Y0289449D01*
X0075541Y0289438D01*
X0075648Y0289430D01*
X0075756Y0289426D01*
X0075864Y0289426D01*
X0075972Y0289430D01*
X0076079Y0289438D01*
X0076187Y0289449D01*
X0076294Y0289464D01*
X0076400Y0289483D01*
X0076505Y0289506D01*
X0076610Y0289532D01*
X0076714Y0289562D01*
X0076816Y0289596D01*
X0076918Y0289633D01*
X0077018Y0289674D01*
X0077116Y0289718D01*
X0077213Y0289765D01*
X0077308Y0289816D01*
X0077401Y0289871D01*
X0077493Y0289928D01*
X0077582Y0289989D01*
X0077669Y0290053D01*
X0077754Y0290120D01*
X0077836Y0290190D01*
X0077916Y0290262D01*
X0077993Y0290338D01*
X0078067Y0290416D01*
X0078040Y0290441D01*
X0077965Y0290362D01*
X0077887Y0290286D01*
X0077806Y0290213D01*
X0077723Y0290142D01*
X0077637Y0290075D01*
X0077549Y0290011D01*
X0077459Y0289950D01*
X0077366Y0289893D01*
X0077272Y0289839D01*
X0077175Y0289788D01*
X0077077Y0289740D01*
X0076977Y0289697D01*
X0076876Y0289657D01*
X0076773Y0289620D01*
X0076670Y0289587D01*
X0076565Y0289558D01*
X0076459Y0289533D01*
X0076352Y0289512D01*
X0076244Y0289494D01*
X0076136Y0289481D01*
X0076028Y0289471D01*
X0075919Y0289465D01*
X0075810Y0289463D01*
X0075701Y0289465D01*
X0075592Y0289471D01*
X0075484Y0289481D01*
X0075376Y0289494D01*
X0075268Y0289512D01*
X0075161Y0289533D01*
X0075055Y0289558D01*
X0074950Y0289587D01*
X0074847Y0289620D01*
X0074744Y0289657D01*
X0074643Y0289697D01*
X0074543Y0289740D01*
X0074445Y0289788D01*
X0074348Y0289839D01*
X0074254Y0289893D01*
X0074161Y0289950D01*
X0074071Y0290011D01*
X0073983Y0290075D01*
X0073897Y0290142D01*
X0073814Y0290213D01*
X0073733Y0290286D01*
X0073655Y0290362D01*
X0073580Y0290441D01*
X0073607Y0290466D01*
X0073682Y0290388D01*
X0073759Y0290313D01*
X0073838Y0290240D01*
X0073921Y0290171D01*
X0074005Y0290105D01*
X0074092Y0290041D01*
X0074182Y0289981D01*
X0074273Y0289924D01*
X0074366Y0289871D01*
X0074462Y0289821D01*
X0074558Y0289774D01*
X0074657Y0289731D01*
X0074757Y0289691D01*
X0074858Y0289655D01*
X0074961Y0289623D01*
X0075065Y0289594D01*
X0075169Y0289569D01*
X0075275Y0289548D01*
X0075381Y0289531D01*
X0075488Y0289517D01*
X0075595Y0289508D01*
X0075702Y0289502D01*
X0075810Y0289500D01*
X0075918Y0289502D01*
X0076025Y0289508D01*
X0076132Y0289517D01*
X0076239Y0289531D01*
X0076345Y0289548D01*
X0076451Y0289569D01*
X0076555Y0289594D01*
X0076659Y0289623D01*
X0076762Y0289655D01*
X0076863Y0289691D01*
X0076963Y0289731D01*
X0077062Y0289774D01*
X0077158Y0289821D01*
X0077254Y0289871D01*
X0077347Y0289924D01*
X0077438Y0289981D01*
X0077528Y0290041D01*
X0077615Y0290105D01*
X0077699Y0290171D01*
X0077782Y0290240D01*
X0077861Y0290313D01*
X0077938Y0290388D01*
X0078013Y0290466D01*
X0077985Y0290490D01*
X0077910Y0290412D01*
X0077832Y0290336D01*
X0077752Y0290263D01*
X0077668Y0290194D01*
X0077583Y0290127D01*
X0077495Y0290064D01*
X0077404Y0290003D01*
X0077312Y0289946D01*
X0077217Y0289893D01*
X0077121Y0289843D01*
X0077022Y0289797D01*
X0076922Y0289754D01*
X0076821Y0289715D01*
X0076718Y0289680D01*
X0076614Y0289648D01*
X0076509Y0289621D01*
X0076403Y0289597D01*
X0076297Y0289577D01*
X0076189Y0289561D01*
X0076081Y0289549D01*
X0075973Y0289541D01*
X0075864Y0289537D01*
X0075756Y0289537D01*
X0075647Y0289541D01*
X0075539Y0289549D01*
X0075431Y0289561D01*
X0075323Y0289577D01*
X0075217Y0289597D01*
X0075111Y0289621D01*
X0075006Y0289648D01*
X0074902Y0289680D01*
X0074799Y0289715D01*
X0074698Y0289754D01*
X0074598Y0289797D01*
X0074499Y0289843D01*
X0074403Y0289893D01*
X0074308Y0289946D01*
X0074216Y0290003D01*
X0074125Y0290064D01*
X0074037Y0290127D01*
X0073952Y0290194D01*
X0073868Y0290263D01*
X0073788Y0290336D01*
X0073710Y0290412D01*
X0073635Y0290490D01*
X0073662Y0290515D01*
X0073736Y0290438D01*
X0073813Y0290363D01*
X0073893Y0290291D01*
X0073975Y0290222D01*
X0074060Y0290157D01*
X0074147Y0290094D01*
X0074236Y0290034D01*
X0074327Y0289978D01*
X0074421Y0289926D01*
X0074516Y0289876D01*
X0074613Y0289831D01*
X0074712Y0289788D01*
X0074812Y0289750D01*
X0074913Y0289715D01*
X0075016Y0289684D01*
X0075119Y0289657D01*
X0075224Y0289633D01*
X0075330Y0289614D01*
X0075436Y0289598D01*
X0075542Y0289586D01*
X0075649Y0289578D01*
X0075756Y0289574D01*
X0075864Y0289574D01*
X0075971Y0289578D01*
X0076078Y0289586D01*
X0076184Y0289598D01*
X0076290Y0289614D01*
X0076396Y0289633D01*
X0076501Y0289657D01*
X0076604Y0289684D01*
X0076707Y0289715D01*
X0076808Y0289750D01*
X0076908Y0289788D01*
X0077007Y0289831D01*
X0077104Y0289876D01*
X0077199Y0289926D01*
X0077293Y0289978D01*
X0077384Y0290034D01*
X0077473Y0290094D01*
X0077560Y0290157D01*
X0077645Y0290222D01*
X0077727Y0290291D01*
X0077807Y0290363D01*
X0077884Y0290438D01*
X0077958Y0290515D01*
X0077930Y0290540D01*
X0077857Y0290464D01*
X0077781Y0290390D01*
X0077703Y0290319D01*
X0077622Y0290251D01*
X0077538Y0290186D01*
X0077452Y0290124D01*
X0077364Y0290065D01*
X0077274Y0290010D01*
X0077182Y0289958D01*
X0077088Y0289909D01*
X0076992Y0289864D01*
X0076894Y0289823D01*
X0076796Y0289785D01*
X0076695Y0289750D01*
X0076594Y0289720D01*
X0076492Y0289693D01*
X0076388Y0289670D01*
X0076284Y0289650D01*
X0076180Y0289635D01*
X0076074Y0289623D01*
X0075969Y0289615D01*
X0075863Y0289611D01*
X0075757Y0289611D01*
X0075651Y0289615D01*
X0075546Y0289623D01*
X0075440Y0289635D01*
X0075336Y0289650D01*
X0075232Y0289670D01*
X0075128Y0289693D01*
X0075026Y0289720D01*
X0074925Y0289750D01*
X0074824Y0289785D01*
X0074726Y0289823D01*
X0074628Y0289864D01*
X0074532Y0289909D01*
X0074438Y0289958D01*
X0074346Y0290010D01*
X0074256Y0290065D01*
X0074168Y0290124D01*
X0074082Y0290186D01*
X0073998Y0290251D01*
X0073917Y0290319D01*
X0073839Y0290390D01*
X0073763Y0290464D01*
X0073690Y0290540D01*
X0073717Y0290565D01*
X0073789Y0290490D01*
X0073864Y0290417D01*
X0073942Y0290347D01*
X0074022Y0290280D01*
X0074104Y0290216D01*
X0074189Y0290154D01*
X0074276Y0290097D01*
X0074365Y0290042D01*
X0074456Y0289991D01*
X0074549Y0289943D01*
X0074644Y0289898D01*
X0074740Y0289857D01*
X0074837Y0289819D01*
X0074936Y0289785D01*
X0075036Y0289755D01*
X0075137Y0289729D01*
X0075239Y0289706D01*
X0075342Y0289687D01*
X0075445Y0289671D01*
X0075549Y0289660D01*
X0075653Y0289652D01*
X0075758Y0289648D01*
X0075862Y0289648D01*
X0075967Y0289652D01*
X0076071Y0289660D01*
X0076175Y0289671D01*
X0076278Y0289687D01*
X0076381Y0289706D01*
X0076483Y0289729D01*
X0076584Y0289755D01*
X0076684Y0289785D01*
X0076783Y0289819D01*
X0076880Y0289857D01*
X0076976Y0289898D01*
X0077071Y0289943D01*
X0077164Y0289991D01*
X0077255Y0290042D01*
X0077344Y0290097D01*
X0077431Y0290154D01*
X0077516Y0290216D01*
X0077598Y0290280D01*
X0077678Y0290347D01*
X0077756Y0290417D01*
X0077831Y0290490D01*
X0077903Y0290565D01*
X0077876Y0290590D01*
X0077803Y0290514D01*
X0077727Y0290440D01*
X0077649Y0290370D01*
X0077568Y0290302D01*
X0077484Y0290238D01*
X0077398Y0290177D01*
X0077310Y0290119D01*
X0077220Y0290064D01*
X0077128Y0290013D01*
X0077033Y0289965D01*
X0076938Y0289921D01*
X0076840Y0289881D01*
X0076741Y0289844D01*
X0076641Y0289811D01*
X0076540Y0289781D01*
X0076438Y0289756D01*
X0076334Y0289734D01*
X0076230Y0289717D01*
X0076126Y0289703D01*
X0076021Y0289693D01*
X0075915Y0289687D01*
X0075810Y0289685D01*
X0075705Y0289687D01*
X0075599Y0289693D01*
X0075494Y0289703D01*
X0075390Y0289717D01*
X0075286Y0289734D01*
X0075182Y0289756D01*
X0075080Y0289781D01*
X0074979Y0289811D01*
X0074879Y0289844D01*
X0074780Y0289881D01*
X0074682Y0289921D01*
X0074587Y0289965D01*
X0074492Y0290013D01*
X0074400Y0290064D01*
X0074310Y0290119D01*
X0074222Y0290177D01*
X0074136Y0290238D01*
X0074052Y0290302D01*
X0073971Y0290370D01*
X0073893Y0290440D01*
X0073817Y0290514D01*
X0073744Y0290590D01*
X0073772Y0290615D01*
X0073844Y0290540D01*
X0073918Y0290467D01*
X0073996Y0290398D01*
X0074076Y0290331D01*
X0074158Y0290268D01*
X0074243Y0290207D01*
X0074330Y0290150D01*
X0074419Y0290096D01*
X0074510Y0290046D01*
X0074603Y0289999D01*
X0074697Y0289955D01*
X0074793Y0289915D01*
X0074891Y0289879D01*
X0074990Y0289846D01*
X0075090Y0289817D01*
X0075191Y0289792D01*
X0075293Y0289771D01*
X0075395Y0289753D01*
X0075498Y0289740D01*
X0075602Y0289730D01*
X0075706Y0289724D01*
X0075810Y0289722D01*
X0075914Y0289724D01*
X0076018Y0289730D01*
X0076122Y0289740D01*
X0076225Y0289753D01*
X0076327Y0289771D01*
X0076429Y0289792D01*
X0076530Y0289817D01*
X0076630Y0289846D01*
X0076729Y0289879D01*
X0076827Y0289915D01*
X0076923Y0289955D01*
X0077017Y0289999D01*
X0077110Y0290046D01*
X0077201Y0290096D01*
X0077290Y0290150D01*
X0077377Y0290207D01*
X0077462Y0290268D01*
X0077544Y0290331D01*
X0077624Y0290398D01*
X0077702Y0290467D01*
X0077776Y0290540D01*
X0077848Y0290615D01*
X0078094Y0294599D02*
X0077828Y0294356D01*
X0077828Y0294357D02*
X0077757Y0294431D01*
X0077683Y0294503D01*
X0077606Y0294572D01*
X0077527Y0294638D01*
X0077446Y0294701D01*
X0077362Y0294761D01*
X0077276Y0294817D01*
X0077187Y0294871D01*
X0077097Y0294921D01*
X0077005Y0294967D01*
X0076912Y0295010D01*
X0076817Y0295050D01*
X0076720Y0295086D01*
X0076622Y0295118D01*
X0076523Y0295147D01*
X0076423Y0295172D01*
X0076322Y0295193D01*
X0076221Y0295210D01*
X0076119Y0295224D01*
X0076016Y0295233D01*
X0075913Y0295239D01*
X0075810Y0295241D01*
X0075707Y0295239D01*
X0075604Y0295233D01*
X0075501Y0295224D01*
X0075399Y0295210D01*
X0075298Y0295193D01*
X0075197Y0295172D01*
X0075097Y0295147D01*
X0074998Y0295118D01*
X0074900Y0295086D01*
X0074803Y0295050D01*
X0074708Y0295010D01*
X0074615Y0294967D01*
X0074523Y0294921D01*
X0074433Y0294871D01*
X0074344Y0294817D01*
X0074258Y0294761D01*
X0074174Y0294701D01*
X0074093Y0294638D01*
X0074014Y0294572D01*
X0073937Y0294503D01*
X0073863Y0294431D01*
X0073792Y0294357D01*
X0073526Y0294599D01*
X0073525Y0294599D01*
X0073601Y0294678D01*
X0073679Y0294754D01*
X0073760Y0294828D01*
X0073843Y0294899D01*
X0073929Y0294966D01*
X0074017Y0295031D01*
X0074107Y0295092D01*
X0074199Y0295151D01*
X0074294Y0295206D01*
X0074390Y0295257D01*
X0074488Y0295306D01*
X0074588Y0295350D01*
X0074689Y0295392D01*
X0074791Y0295429D01*
X0074895Y0295463D01*
X0075000Y0295494D01*
X0075106Y0295520D01*
X0075213Y0295543D01*
X0075320Y0295562D01*
X0075429Y0295577D01*
X0075537Y0295589D01*
X0075646Y0295597D01*
X0075755Y0295601D01*
X0075865Y0295601D01*
X0075974Y0295597D01*
X0076083Y0295589D01*
X0076191Y0295577D01*
X0076300Y0295562D01*
X0076407Y0295543D01*
X0076514Y0295520D01*
X0076620Y0295494D01*
X0076725Y0295463D01*
X0076829Y0295429D01*
X0076931Y0295392D01*
X0077032Y0295350D01*
X0077132Y0295306D01*
X0077230Y0295257D01*
X0077326Y0295206D01*
X0077421Y0295151D01*
X0077513Y0295092D01*
X0077603Y0295031D01*
X0077691Y0294966D01*
X0077777Y0294899D01*
X0077860Y0294828D01*
X0077941Y0294754D01*
X0078019Y0294678D01*
X0078095Y0294599D01*
X0078067Y0294574D01*
X0077993Y0294652D01*
X0077916Y0294728D01*
X0077836Y0294800D01*
X0077754Y0294870D01*
X0077669Y0294937D01*
X0077582Y0295001D01*
X0077493Y0295062D01*
X0077401Y0295119D01*
X0077308Y0295174D01*
X0077213Y0295225D01*
X0077116Y0295272D01*
X0077018Y0295316D01*
X0076918Y0295357D01*
X0076816Y0295394D01*
X0076714Y0295428D01*
X0076610Y0295458D01*
X0076505Y0295484D01*
X0076400Y0295507D01*
X0076294Y0295526D01*
X0076187Y0295541D01*
X0076079Y0295552D01*
X0075972Y0295560D01*
X0075864Y0295564D01*
X0075756Y0295564D01*
X0075648Y0295560D01*
X0075541Y0295552D01*
X0075433Y0295541D01*
X0075326Y0295526D01*
X0075220Y0295507D01*
X0075115Y0295484D01*
X0075010Y0295458D01*
X0074906Y0295428D01*
X0074804Y0295394D01*
X0074702Y0295357D01*
X0074602Y0295316D01*
X0074504Y0295272D01*
X0074407Y0295225D01*
X0074312Y0295174D01*
X0074219Y0295119D01*
X0074127Y0295062D01*
X0074038Y0295001D01*
X0073951Y0294937D01*
X0073866Y0294870D01*
X0073784Y0294800D01*
X0073704Y0294728D01*
X0073627Y0294652D01*
X0073553Y0294574D01*
X0073580Y0294549D01*
X0073655Y0294628D01*
X0073733Y0294704D01*
X0073814Y0294777D01*
X0073897Y0294848D01*
X0073983Y0294915D01*
X0074071Y0294979D01*
X0074161Y0295040D01*
X0074254Y0295097D01*
X0074348Y0295151D01*
X0074445Y0295202D01*
X0074543Y0295250D01*
X0074643Y0295293D01*
X0074744Y0295333D01*
X0074847Y0295370D01*
X0074950Y0295403D01*
X0075055Y0295432D01*
X0075161Y0295457D01*
X0075268Y0295478D01*
X0075376Y0295496D01*
X0075484Y0295509D01*
X0075592Y0295519D01*
X0075701Y0295525D01*
X0075810Y0295527D01*
X0075919Y0295525D01*
X0076028Y0295519D01*
X0076136Y0295509D01*
X0076244Y0295496D01*
X0076352Y0295478D01*
X0076459Y0295457D01*
X0076565Y0295432D01*
X0076670Y0295403D01*
X0076773Y0295370D01*
X0076876Y0295333D01*
X0076977Y0295293D01*
X0077077Y0295250D01*
X0077175Y0295202D01*
X0077272Y0295151D01*
X0077366Y0295097D01*
X0077459Y0295040D01*
X0077549Y0294979D01*
X0077637Y0294915D01*
X0077723Y0294848D01*
X0077806Y0294777D01*
X0077887Y0294704D01*
X0077965Y0294628D01*
X0078040Y0294549D01*
X0078013Y0294524D01*
X0077938Y0294602D01*
X0077861Y0294677D01*
X0077782Y0294750D01*
X0077699Y0294819D01*
X0077615Y0294885D01*
X0077528Y0294949D01*
X0077438Y0295009D01*
X0077347Y0295066D01*
X0077254Y0295119D01*
X0077158Y0295169D01*
X0077062Y0295216D01*
X0076963Y0295259D01*
X0076863Y0295299D01*
X0076762Y0295335D01*
X0076659Y0295367D01*
X0076555Y0295396D01*
X0076451Y0295421D01*
X0076345Y0295442D01*
X0076239Y0295459D01*
X0076132Y0295473D01*
X0076025Y0295482D01*
X0075918Y0295488D01*
X0075810Y0295490D01*
X0075702Y0295488D01*
X0075595Y0295482D01*
X0075488Y0295473D01*
X0075381Y0295459D01*
X0075275Y0295442D01*
X0075169Y0295421D01*
X0075065Y0295396D01*
X0074961Y0295367D01*
X0074858Y0295335D01*
X0074757Y0295299D01*
X0074657Y0295259D01*
X0074558Y0295216D01*
X0074462Y0295169D01*
X0074366Y0295119D01*
X0074273Y0295066D01*
X0074182Y0295009D01*
X0074092Y0294949D01*
X0074005Y0294885D01*
X0073921Y0294819D01*
X0073838Y0294750D01*
X0073759Y0294677D01*
X0073682Y0294602D01*
X0073607Y0294524D01*
X0073635Y0294500D01*
X0073710Y0294578D01*
X0073788Y0294654D01*
X0073868Y0294727D01*
X0073952Y0294796D01*
X0074037Y0294863D01*
X0074125Y0294926D01*
X0074216Y0294987D01*
X0074308Y0295044D01*
X0074403Y0295097D01*
X0074499Y0295147D01*
X0074598Y0295193D01*
X0074698Y0295236D01*
X0074799Y0295275D01*
X0074902Y0295310D01*
X0075006Y0295342D01*
X0075111Y0295369D01*
X0075217Y0295393D01*
X0075323Y0295413D01*
X0075431Y0295429D01*
X0075539Y0295441D01*
X0075647Y0295449D01*
X0075756Y0295453D01*
X0075864Y0295453D01*
X0075973Y0295449D01*
X0076081Y0295441D01*
X0076189Y0295429D01*
X0076297Y0295413D01*
X0076403Y0295393D01*
X0076509Y0295369D01*
X0076614Y0295342D01*
X0076718Y0295310D01*
X0076821Y0295275D01*
X0076922Y0295236D01*
X0077022Y0295193D01*
X0077121Y0295147D01*
X0077217Y0295097D01*
X0077312Y0295044D01*
X0077404Y0294987D01*
X0077495Y0294926D01*
X0077583Y0294863D01*
X0077668Y0294796D01*
X0077752Y0294727D01*
X0077832Y0294654D01*
X0077910Y0294578D01*
X0077985Y0294500D01*
X0077958Y0294475D01*
X0077884Y0294552D01*
X0077807Y0294627D01*
X0077727Y0294699D01*
X0077645Y0294768D01*
X0077560Y0294833D01*
X0077473Y0294896D01*
X0077384Y0294956D01*
X0077293Y0295012D01*
X0077199Y0295064D01*
X0077104Y0295114D01*
X0077007Y0295159D01*
X0076908Y0295202D01*
X0076808Y0295240D01*
X0076707Y0295275D01*
X0076604Y0295306D01*
X0076501Y0295333D01*
X0076396Y0295357D01*
X0076290Y0295376D01*
X0076184Y0295392D01*
X0076078Y0295404D01*
X0075971Y0295412D01*
X0075864Y0295416D01*
X0075756Y0295416D01*
X0075649Y0295412D01*
X0075542Y0295404D01*
X0075436Y0295392D01*
X0075330Y0295376D01*
X0075224Y0295357D01*
X0075119Y0295333D01*
X0075016Y0295306D01*
X0074913Y0295275D01*
X0074812Y0295240D01*
X0074712Y0295202D01*
X0074613Y0295159D01*
X0074516Y0295114D01*
X0074421Y0295064D01*
X0074327Y0295012D01*
X0074236Y0294956D01*
X0074147Y0294896D01*
X0074060Y0294833D01*
X0073975Y0294768D01*
X0073893Y0294699D01*
X0073813Y0294627D01*
X0073736Y0294552D01*
X0073662Y0294475D01*
X0073690Y0294450D01*
X0073763Y0294526D01*
X0073839Y0294600D01*
X0073917Y0294671D01*
X0073998Y0294739D01*
X0074082Y0294804D01*
X0074168Y0294866D01*
X0074256Y0294925D01*
X0074346Y0294980D01*
X0074438Y0295032D01*
X0074532Y0295081D01*
X0074628Y0295126D01*
X0074726Y0295167D01*
X0074824Y0295205D01*
X0074925Y0295240D01*
X0075026Y0295270D01*
X0075128Y0295297D01*
X0075232Y0295320D01*
X0075336Y0295340D01*
X0075440Y0295355D01*
X0075546Y0295367D01*
X0075651Y0295375D01*
X0075757Y0295379D01*
X0075863Y0295379D01*
X0075969Y0295375D01*
X0076074Y0295367D01*
X0076180Y0295355D01*
X0076284Y0295340D01*
X0076388Y0295320D01*
X0076492Y0295297D01*
X0076594Y0295270D01*
X0076695Y0295240D01*
X0076796Y0295205D01*
X0076894Y0295167D01*
X0076992Y0295126D01*
X0077088Y0295081D01*
X0077182Y0295032D01*
X0077274Y0294980D01*
X0077364Y0294925D01*
X0077452Y0294866D01*
X0077538Y0294804D01*
X0077622Y0294739D01*
X0077703Y0294671D01*
X0077781Y0294600D01*
X0077857Y0294526D01*
X0077930Y0294450D01*
X0077903Y0294425D01*
X0077831Y0294500D01*
X0077756Y0294573D01*
X0077678Y0294643D01*
X0077598Y0294710D01*
X0077516Y0294774D01*
X0077431Y0294836D01*
X0077344Y0294893D01*
X0077255Y0294948D01*
X0077164Y0294999D01*
X0077071Y0295047D01*
X0076976Y0295092D01*
X0076880Y0295133D01*
X0076783Y0295171D01*
X0076684Y0295205D01*
X0076584Y0295235D01*
X0076483Y0295261D01*
X0076381Y0295284D01*
X0076278Y0295303D01*
X0076175Y0295319D01*
X0076071Y0295330D01*
X0075967Y0295338D01*
X0075862Y0295342D01*
X0075758Y0295342D01*
X0075653Y0295338D01*
X0075549Y0295330D01*
X0075445Y0295319D01*
X0075342Y0295303D01*
X0075239Y0295284D01*
X0075137Y0295261D01*
X0075036Y0295235D01*
X0074936Y0295205D01*
X0074837Y0295171D01*
X0074740Y0295133D01*
X0074644Y0295092D01*
X0074549Y0295047D01*
X0074456Y0294999D01*
X0074365Y0294948D01*
X0074276Y0294893D01*
X0074189Y0294836D01*
X0074104Y0294774D01*
X0074022Y0294710D01*
X0073942Y0294643D01*
X0073864Y0294573D01*
X0073789Y0294500D01*
X0073717Y0294425D01*
X0073744Y0294400D01*
X0073817Y0294476D01*
X0073893Y0294550D01*
X0073971Y0294620D01*
X0074052Y0294688D01*
X0074136Y0294752D01*
X0074222Y0294813D01*
X0074310Y0294871D01*
X0074400Y0294926D01*
X0074492Y0294977D01*
X0074587Y0295025D01*
X0074682Y0295069D01*
X0074780Y0295109D01*
X0074879Y0295146D01*
X0074979Y0295179D01*
X0075080Y0295209D01*
X0075182Y0295234D01*
X0075286Y0295256D01*
X0075390Y0295273D01*
X0075494Y0295287D01*
X0075599Y0295297D01*
X0075705Y0295303D01*
X0075810Y0295305D01*
X0075915Y0295303D01*
X0076021Y0295297D01*
X0076126Y0295287D01*
X0076230Y0295273D01*
X0076334Y0295256D01*
X0076438Y0295234D01*
X0076540Y0295209D01*
X0076641Y0295179D01*
X0076741Y0295146D01*
X0076840Y0295109D01*
X0076938Y0295069D01*
X0077033Y0295025D01*
X0077128Y0294977D01*
X0077220Y0294926D01*
X0077310Y0294871D01*
X0077398Y0294813D01*
X0077484Y0294752D01*
X0077568Y0294688D01*
X0077649Y0294620D01*
X0077727Y0294550D01*
X0077803Y0294476D01*
X0077876Y0294400D01*
X0077848Y0294375D01*
X0077776Y0294450D01*
X0077702Y0294523D01*
X0077624Y0294592D01*
X0077544Y0294659D01*
X0077462Y0294722D01*
X0077377Y0294783D01*
X0077290Y0294840D01*
X0077201Y0294894D01*
X0077110Y0294944D01*
X0077017Y0294991D01*
X0076923Y0295035D01*
X0076827Y0295075D01*
X0076729Y0295111D01*
X0076630Y0295144D01*
X0076530Y0295173D01*
X0076429Y0295198D01*
X0076327Y0295219D01*
X0076225Y0295237D01*
X0076122Y0295250D01*
X0076018Y0295260D01*
X0075914Y0295266D01*
X0075810Y0295268D01*
X0075706Y0295266D01*
X0075602Y0295260D01*
X0075498Y0295250D01*
X0075395Y0295237D01*
X0075293Y0295219D01*
X0075191Y0295198D01*
X0075090Y0295173D01*
X0074990Y0295144D01*
X0074891Y0295111D01*
X0074793Y0295075D01*
X0074697Y0295035D01*
X0074603Y0294991D01*
X0074510Y0294944D01*
X0074419Y0294894D01*
X0074330Y0294840D01*
X0074243Y0294783D01*
X0074158Y0294722D01*
X0074076Y0294659D01*
X0073996Y0294592D01*
X0073918Y0294523D01*
X0073844Y0294450D01*
X0073772Y0294375D01*
D14*
X0075810Y0292495D03*
X0079215Y0276791D03*
D15*
X0081282Y0279055D03*
X0077877Y0294759D03*
M02*
