%
M48
M72
T01C0.0160
T02C0.0197
T03C0.0236
T04C0.0276
T05C0.0315
T06C0.0320
T07C0.0354
T08C0.0354
T09C0.0394
T10C0.0400
T11C0.0433
T12C0.0440
T13C0.0470
T14C0.0472
T15C0.0512
T16C0.0610
T17C0.0630
T18C0.0866
T19C0.1260
T20C0.1299
%
T01
X36319Y33230
T02
X36932Y33530
X34982Y33580
X34882Y35330
X34932Y36080
X35632Y37265
X36577Y37225
X36792Y36280
X36482Y35680
X33132Y35980
X32532Y35980
X32682Y36780
X32022Y37190
X30232Y37880
X29232Y36780
X29382Y36380
X29482Y35880
X30082Y34730
X29732Y34380
X31738Y32572
X32160Y32132
X32632Y31330
X32082Y30480
X31332Y29530
X29482Y29730
X28426Y28569
X28194Y26180
X25982Y24880
X25432Y26180
X22872Y26240
X21732Y29230
X21232Y29080
X22232Y29780
X22632Y30080
X23082Y30830
X21782Y30830
X20682Y32180
X20332Y31630
X17482Y31730
X16182Y33130
X14632Y33930
X16882Y34930
X18082Y35580
X17932Y36030
X22232Y34280
X22632Y34680
X23632Y35280
X26826Y32369
X24932Y31180
X31132Y26930
X31382Y26530
X31332Y26030
X30782Y25680
X30715Y25219
X30845Y23903
X27798Y23904
X26832Y23130
X25982Y23130
X25932Y22180
X25232Y20080
X23032Y19280
X21732Y19580
X17632Y20130
X24182Y15030
X25182Y15230
X25982Y17380
X30665Y18165
X32457Y16109
X32926Y15351
X31582Y13980
X29889Y11822
X35722Y18456
X35721Y20638
X39392Y17045
X40732Y19230
X44130Y28983
X40378Y30369
X37532Y31080
X32632Y32880
X29032Y40130
X24132Y39530
X14236Y29936
X15082Y29080
X11653Y27599
X11009Y28539
X11027Y29035
X8682Y28380
X7682Y30230
X5944Y32446
X6063Y34297
X3532Y29830
X3932Y26730
X5782Y24180
X6932Y24580
X9132Y25030
X9532Y26330
X15141Y25859
X15482Y26230
X4860Y20522
T03
X12581Y27715
X12582Y30630
X10782Y31530
X17082Y26980
X17532Y24930
X17132Y21280
X26682Y24130
X28082Y24635
X30482Y27030
X28732Y27730
X26482Y27630
X31382Y31280
X34032Y32830
X35882Y31730
X36117Y29145
X36117Y27815
X34387Y27780
X27782Y33580
X23232Y34730
X18582Y34780
X17532Y30080
X26832Y39030
X26682Y40680
X38217Y34575
X38932Y36630
X42582Y34530
X42582Y28530
X49582Y27780
X49582Y29480
T04
X43388Y29626
X36065Y31013
X45239Y13481
X45239Y10737
T05
X54632Y28430
T06
X18882Y38680
X14882Y38680
X14682Y36480
X12682Y36480
X11432Y36480
X9432Y36480
X8232Y38530
X4232Y38530
X14182Y9680
X15182Y9680
X16182Y9680
T07
X52682Y10680
X52682Y12680
X52682Y14680
X56682Y14680
X56682Y12680
X56682Y10680
T08
X34982Y12930
X33982Y12930
X32982Y12930
X33482Y11930
X34482Y11930
X32482Y11930
X6682Y12680
X6682Y14680
X6682Y16680
X3682Y16680
X3682Y14680
X3682Y12680
T09
X47732Y10480
X48732Y10480
X49732Y10480
T10
X49682Y16680
X48682Y16680
X47682Y16680
X47682Y20680
X48682Y20680
X49682Y20680
X49582Y26130
X51582Y26130
X54032Y26180
X56032Y26180
X55282Y33030
X55282Y34030
X54282Y34030
X54282Y33030
X53282Y33030
X53282Y34030
X52282Y34030
X51282Y34030
X51282Y33030
X52282Y33030
X50282Y33030
X50282Y34030
X50232Y35780
X51232Y35780
X52232Y35780
X53232Y35780
X54232Y35780
X55232Y35780
X55232Y36780
X54232Y36780
X53232Y36780
X52232Y36780
X51232Y36780
X50232Y36780
X46082Y37130
X46082Y35130
X46982Y31080
X46982Y30080
X46982Y29080
X37137Y25877
X37137Y24097
X34577Y24097
X34577Y25877
X32432Y42080
X31432Y42080
X31432Y43080
X32432Y43080
X30432Y43080
X30432Y42080
X29432Y42080
X29432Y43080
X26482Y43130
X26482Y42130
X25482Y42130
X24482Y42130
X24482Y43130
X25482Y43130
X23482Y43130
X23482Y42130
X12199Y9025
X11199Y9025
X10199Y9025
T11
X3682Y11680
X6682Y17680
X54682Y14680
X54682Y10680
T12
X51182Y12680
X47182Y12680
X16182Y7680
X14182Y7680
T13
X54682Y19196
X54682Y21164
T14
X39972Y9579
X41940Y7610
X41940Y6626
X38003Y6626
X38003Y7610
T15
X39972Y7610
X40956Y9579
X41940Y9579
X38987Y9579
X38003Y9579
T16
X28883Y8907
X19331Y8907
T17
X31074Y10631
X36389Y10631
T18
X15332Y40680
X16832Y42680
X11182Y42680
X9532Y40730
T19
X31732Y9430
X35732Y9430
T20
X4182Y7680
X4182Y42180
X55182Y42180
X55182Y7680
M30
