G75*
%MOIN*%
%OFA0B0*%
%FSLAX25Y25*%
%IPPOS*%
%LPD*%
%AMOC8*
5,1,8,0,0,1.08239X$1,22.5*
%
%ADD10C,0.00000*%
%ADD11C,0.07650*%
%ADD12R,0.07687X0.06899*%
%ADD13R,0.06899X0.07687*%
%ADD14C,0.10600*%
%ADD15OC8,0.10600*%
%ADD16C,0.07200*%
%ADD17C,0.06600*%
%ADD18OC8,0.06600*%
%ADD19R,0.06899X0.07698*%
%ADD20R,0.07698X0.06899*%
%ADD21R,0.06506X0.06506*%
%ADD22C,0.04931*%
%ADD23C,0.05914*%
%ADD24C,0.05400*%
%ADD25C,0.07600*%
%ADD26R,0.03750X0.05324*%
%ADD27R,0.05324X0.03750*%
%ADD28C,0.02812*%
%ADD29C,0.15600*%
%ADD30R,0.01584X0.04537*%
%ADD31R,0.01700X0.06400*%
%ADD32R,0.06400X0.01700*%
%ADD33R,0.04143X0.07687*%
%ADD34R,0.06112X0.08474*%
%ADD35R,0.06612X0.08474*%
%ADD36R,0.04931X0.07687*%
%ADD37C,0.06702*%
%ADD38R,0.06506X0.01584*%
%ADD39R,0.01584X0.06506*%
%ADD40C,0.10049*%
%ADD41C,0.06506*%
%ADD42C,0.13198*%
%ADD43C,0.13592*%
%ADD44OC8,0.07200*%
%ADD45OC8,0.05400*%
%ADD46R,0.09261X0.02962*%
%ADD47C,0.06600*%
%ADD48R,0.06112X0.05324*%
%ADD49R,0.08200X0.08200*%
%ADD50C,0.08200*%
%ADD51C,0.09200*%
%ADD52C,0.05324*%
%ADD53C,0.03969*%
%ADD54C,0.04362*%
%ADD55OC8,0.03969*%
%ADD56C,0.04756*%
%ADD57OC8,0.04362*%
%ADD58R,0.04362X0.04362*%
%ADD59C,0.03600*%
D10*
X0016817Y0051800D02*
X0016317Y0449501D01*
X0576239Y0449501D01*
X0576739Y0051800D01*
X0016817Y0051800D01*
X0035321Y0076800D02*
X0035323Y0076961D01*
X0035329Y0077121D01*
X0035339Y0077282D01*
X0035353Y0077442D01*
X0035371Y0077601D01*
X0035392Y0077761D01*
X0035418Y0077919D01*
X0035448Y0078077D01*
X0035481Y0078234D01*
X0035519Y0078391D01*
X0035560Y0078546D01*
X0035605Y0078700D01*
X0035654Y0078853D01*
X0035707Y0079005D01*
X0035763Y0079155D01*
X0035823Y0079304D01*
X0035887Y0079452D01*
X0035954Y0079598D01*
X0036025Y0079742D01*
X0036100Y0079884D01*
X0036178Y0080025D01*
X0036259Y0080163D01*
X0036344Y0080300D01*
X0036433Y0080434D01*
X0036524Y0080566D01*
X0036619Y0080696D01*
X0036717Y0080823D01*
X0036818Y0080948D01*
X0036922Y0081071D01*
X0037029Y0081190D01*
X0037139Y0081307D01*
X0037252Y0081422D01*
X0037368Y0081533D01*
X0037486Y0081642D01*
X0037607Y0081747D01*
X0037731Y0081850D01*
X0037857Y0081950D01*
X0037986Y0082046D01*
X0038117Y0082139D01*
X0038250Y0082229D01*
X0038385Y0082316D01*
X0038523Y0082399D01*
X0038662Y0082478D01*
X0038804Y0082555D01*
X0038947Y0082628D01*
X0039092Y0082697D01*
X0039239Y0082762D01*
X0039387Y0082824D01*
X0039537Y0082883D01*
X0039688Y0082937D01*
X0039840Y0082988D01*
X0039994Y0083035D01*
X0040149Y0083078D01*
X0040304Y0083117D01*
X0040461Y0083153D01*
X0040619Y0083185D01*
X0040777Y0083212D01*
X0040936Y0083236D01*
X0041095Y0083256D01*
X0041255Y0083272D01*
X0041416Y0083284D01*
X0041576Y0083292D01*
X0041737Y0083296D01*
X0041897Y0083296D01*
X0042058Y0083292D01*
X0042218Y0083284D01*
X0042379Y0083272D01*
X0042539Y0083256D01*
X0042698Y0083236D01*
X0042857Y0083212D01*
X0043015Y0083185D01*
X0043173Y0083153D01*
X0043330Y0083117D01*
X0043485Y0083078D01*
X0043640Y0083035D01*
X0043794Y0082988D01*
X0043946Y0082937D01*
X0044097Y0082883D01*
X0044247Y0082824D01*
X0044395Y0082762D01*
X0044542Y0082697D01*
X0044687Y0082628D01*
X0044830Y0082555D01*
X0044972Y0082478D01*
X0045111Y0082399D01*
X0045249Y0082316D01*
X0045384Y0082229D01*
X0045517Y0082139D01*
X0045648Y0082046D01*
X0045777Y0081950D01*
X0045903Y0081850D01*
X0046027Y0081747D01*
X0046148Y0081642D01*
X0046266Y0081533D01*
X0046382Y0081422D01*
X0046495Y0081307D01*
X0046605Y0081190D01*
X0046712Y0081071D01*
X0046816Y0080948D01*
X0046917Y0080823D01*
X0047015Y0080696D01*
X0047110Y0080566D01*
X0047201Y0080434D01*
X0047290Y0080300D01*
X0047375Y0080163D01*
X0047456Y0080025D01*
X0047534Y0079884D01*
X0047609Y0079742D01*
X0047680Y0079598D01*
X0047747Y0079452D01*
X0047811Y0079304D01*
X0047871Y0079155D01*
X0047927Y0079005D01*
X0047980Y0078853D01*
X0048029Y0078700D01*
X0048074Y0078546D01*
X0048115Y0078391D01*
X0048153Y0078234D01*
X0048186Y0078077D01*
X0048216Y0077919D01*
X0048242Y0077761D01*
X0048263Y0077601D01*
X0048281Y0077442D01*
X0048295Y0077282D01*
X0048305Y0077121D01*
X0048311Y0076961D01*
X0048313Y0076800D01*
X0048311Y0076639D01*
X0048305Y0076479D01*
X0048295Y0076318D01*
X0048281Y0076158D01*
X0048263Y0075999D01*
X0048242Y0075839D01*
X0048216Y0075681D01*
X0048186Y0075523D01*
X0048153Y0075366D01*
X0048115Y0075209D01*
X0048074Y0075054D01*
X0048029Y0074900D01*
X0047980Y0074747D01*
X0047927Y0074595D01*
X0047871Y0074445D01*
X0047811Y0074296D01*
X0047747Y0074148D01*
X0047680Y0074002D01*
X0047609Y0073858D01*
X0047534Y0073716D01*
X0047456Y0073575D01*
X0047375Y0073437D01*
X0047290Y0073300D01*
X0047201Y0073166D01*
X0047110Y0073034D01*
X0047015Y0072904D01*
X0046917Y0072777D01*
X0046816Y0072652D01*
X0046712Y0072529D01*
X0046605Y0072410D01*
X0046495Y0072293D01*
X0046382Y0072178D01*
X0046266Y0072067D01*
X0046148Y0071958D01*
X0046027Y0071853D01*
X0045903Y0071750D01*
X0045777Y0071650D01*
X0045648Y0071554D01*
X0045517Y0071461D01*
X0045384Y0071371D01*
X0045249Y0071284D01*
X0045111Y0071201D01*
X0044972Y0071122D01*
X0044830Y0071045D01*
X0044687Y0070972D01*
X0044542Y0070903D01*
X0044395Y0070838D01*
X0044247Y0070776D01*
X0044097Y0070717D01*
X0043946Y0070663D01*
X0043794Y0070612D01*
X0043640Y0070565D01*
X0043485Y0070522D01*
X0043330Y0070483D01*
X0043173Y0070447D01*
X0043015Y0070415D01*
X0042857Y0070388D01*
X0042698Y0070364D01*
X0042539Y0070344D01*
X0042379Y0070328D01*
X0042218Y0070316D01*
X0042058Y0070308D01*
X0041897Y0070304D01*
X0041737Y0070304D01*
X0041576Y0070308D01*
X0041416Y0070316D01*
X0041255Y0070328D01*
X0041095Y0070344D01*
X0040936Y0070364D01*
X0040777Y0070388D01*
X0040619Y0070415D01*
X0040461Y0070447D01*
X0040304Y0070483D01*
X0040149Y0070522D01*
X0039994Y0070565D01*
X0039840Y0070612D01*
X0039688Y0070663D01*
X0039537Y0070717D01*
X0039387Y0070776D01*
X0039239Y0070838D01*
X0039092Y0070903D01*
X0038947Y0070972D01*
X0038804Y0071045D01*
X0038662Y0071122D01*
X0038523Y0071201D01*
X0038385Y0071284D01*
X0038250Y0071371D01*
X0038117Y0071461D01*
X0037986Y0071554D01*
X0037857Y0071650D01*
X0037731Y0071750D01*
X0037607Y0071853D01*
X0037486Y0071958D01*
X0037368Y0072067D01*
X0037252Y0072178D01*
X0037139Y0072293D01*
X0037029Y0072410D01*
X0036922Y0072529D01*
X0036818Y0072652D01*
X0036717Y0072777D01*
X0036619Y0072904D01*
X0036524Y0073034D01*
X0036433Y0073166D01*
X0036344Y0073300D01*
X0036259Y0073437D01*
X0036178Y0073575D01*
X0036100Y0073716D01*
X0036025Y0073858D01*
X0035954Y0074002D01*
X0035887Y0074148D01*
X0035823Y0074296D01*
X0035763Y0074445D01*
X0035707Y0074595D01*
X0035654Y0074747D01*
X0035605Y0074900D01*
X0035560Y0075054D01*
X0035519Y0075209D01*
X0035481Y0075366D01*
X0035448Y0075523D01*
X0035418Y0075681D01*
X0035392Y0075839D01*
X0035371Y0075999D01*
X0035353Y0076158D01*
X0035339Y0076318D01*
X0035329Y0076479D01*
X0035323Y0076639D01*
X0035321Y0076800D01*
X0034652Y0116800D02*
X0034654Y0116893D01*
X0034660Y0116985D01*
X0034670Y0117077D01*
X0034684Y0117168D01*
X0034701Y0117259D01*
X0034723Y0117349D01*
X0034748Y0117438D01*
X0034777Y0117526D01*
X0034810Y0117612D01*
X0034847Y0117697D01*
X0034887Y0117781D01*
X0034931Y0117862D01*
X0034978Y0117942D01*
X0035028Y0118020D01*
X0035082Y0118095D01*
X0035139Y0118168D01*
X0035199Y0118238D01*
X0035262Y0118306D01*
X0035328Y0118371D01*
X0035396Y0118433D01*
X0035467Y0118493D01*
X0035541Y0118549D01*
X0035617Y0118602D01*
X0035695Y0118651D01*
X0035775Y0118698D01*
X0035857Y0118740D01*
X0035941Y0118780D01*
X0036026Y0118815D01*
X0036113Y0118847D01*
X0036201Y0118876D01*
X0036290Y0118900D01*
X0036380Y0118921D01*
X0036471Y0118937D01*
X0036563Y0118950D01*
X0036655Y0118959D01*
X0036748Y0118964D01*
X0036840Y0118965D01*
X0036933Y0118962D01*
X0037025Y0118955D01*
X0037117Y0118944D01*
X0037208Y0118929D01*
X0037299Y0118911D01*
X0037389Y0118888D01*
X0037477Y0118862D01*
X0037565Y0118832D01*
X0037651Y0118798D01*
X0037735Y0118761D01*
X0037818Y0118719D01*
X0037899Y0118675D01*
X0037979Y0118627D01*
X0038056Y0118576D01*
X0038130Y0118521D01*
X0038203Y0118463D01*
X0038273Y0118403D01*
X0038340Y0118339D01*
X0038404Y0118273D01*
X0038466Y0118203D01*
X0038524Y0118132D01*
X0038579Y0118058D01*
X0038631Y0117981D01*
X0038680Y0117902D01*
X0038726Y0117822D01*
X0038768Y0117739D01*
X0038806Y0117655D01*
X0038841Y0117569D01*
X0038872Y0117482D01*
X0038899Y0117394D01*
X0038922Y0117304D01*
X0038942Y0117214D01*
X0038958Y0117123D01*
X0038970Y0117031D01*
X0038978Y0116939D01*
X0038982Y0116846D01*
X0038982Y0116754D01*
X0038978Y0116661D01*
X0038970Y0116569D01*
X0038958Y0116477D01*
X0038942Y0116386D01*
X0038922Y0116296D01*
X0038899Y0116206D01*
X0038872Y0116118D01*
X0038841Y0116031D01*
X0038806Y0115945D01*
X0038768Y0115861D01*
X0038726Y0115778D01*
X0038680Y0115698D01*
X0038631Y0115619D01*
X0038579Y0115542D01*
X0038524Y0115468D01*
X0038466Y0115397D01*
X0038404Y0115327D01*
X0038340Y0115261D01*
X0038273Y0115197D01*
X0038203Y0115137D01*
X0038130Y0115079D01*
X0038056Y0115024D01*
X0037979Y0114973D01*
X0037900Y0114925D01*
X0037818Y0114881D01*
X0037735Y0114839D01*
X0037651Y0114802D01*
X0037565Y0114768D01*
X0037477Y0114738D01*
X0037389Y0114712D01*
X0037299Y0114689D01*
X0037208Y0114671D01*
X0037117Y0114656D01*
X0037025Y0114645D01*
X0036933Y0114638D01*
X0036840Y0114635D01*
X0036748Y0114636D01*
X0036655Y0114641D01*
X0036563Y0114650D01*
X0036471Y0114663D01*
X0036380Y0114679D01*
X0036290Y0114700D01*
X0036201Y0114724D01*
X0036113Y0114753D01*
X0036026Y0114785D01*
X0035941Y0114820D01*
X0035857Y0114860D01*
X0035775Y0114902D01*
X0035695Y0114949D01*
X0035617Y0114998D01*
X0035541Y0115051D01*
X0035467Y0115107D01*
X0035396Y0115167D01*
X0035328Y0115229D01*
X0035262Y0115294D01*
X0035199Y0115362D01*
X0035139Y0115432D01*
X0035082Y0115505D01*
X0035028Y0115580D01*
X0034978Y0115658D01*
X0034931Y0115738D01*
X0034887Y0115819D01*
X0034847Y0115903D01*
X0034810Y0115988D01*
X0034777Y0116074D01*
X0034748Y0116162D01*
X0034723Y0116251D01*
X0034701Y0116341D01*
X0034684Y0116432D01*
X0034670Y0116523D01*
X0034660Y0116615D01*
X0034654Y0116707D01*
X0034652Y0116800D01*
X0064652Y0176800D02*
X0064654Y0176893D01*
X0064660Y0176985D01*
X0064670Y0177077D01*
X0064684Y0177168D01*
X0064701Y0177259D01*
X0064723Y0177349D01*
X0064748Y0177438D01*
X0064777Y0177526D01*
X0064810Y0177612D01*
X0064847Y0177697D01*
X0064887Y0177781D01*
X0064931Y0177862D01*
X0064978Y0177942D01*
X0065028Y0178020D01*
X0065082Y0178095D01*
X0065139Y0178168D01*
X0065199Y0178238D01*
X0065262Y0178306D01*
X0065328Y0178371D01*
X0065396Y0178433D01*
X0065467Y0178493D01*
X0065541Y0178549D01*
X0065617Y0178602D01*
X0065695Y0178651D01*
X0065775Y0178698D01*
X0065857Y0178740D01*
X0065941Y0178780D01*
X0066026Y0178815D01*
X0066113Y0178847D01*
X0066201Y0178876D01*
X0066290Y0178900D01*
X0066380Y0178921D01*
X0066471Y0178937D01*
X0066563Y0178950D01*
X0066655Y0178959D01*
X0066748Y0178964D01*
X0066840Y0178965D01*
X0066933Y0178962D01*
X0067025Y0178955D01*
X0067117Y0178944D01*
X0067208Y0178929D01*
X0067299Y0178911D01*
X0067389Y0178888D01*
X0067477Y0178862D01*
X0067565Y0178832D01*
X0067651Y0178798D01*
X0067735Y0178761D01*
X0067818Y0178719D01*
X0067899Y0178675D01*
X0067979Y0178627D01*
X0068056Y0178576D01*
X0068130Y0178521D01*
X0068203Y0178463D01*
X0068273Y0178403D01*
X0068340Y0178339D01*
X0068404Y0178273D01*
X0068466Y0178203D01*
X0068524Y0178132D01*
X0068579Y0178058D01*
X0068631Y0177981D01*
X0068680Y0177902D01*
X0068726Y0177822D01*
X0068768Y0177739D01*
X0068806Y0177655D01*
X0068841Y0177569D01*
X0068872Y0177482D01*
X0068899Y0177394D01*
X0068922Y0177304D01*
X0068942Y0177214D01*
X0068958Y0177123D01*
X0068970Y0177031D01*
X0068978Y0176939D01*
X0068982Y0176846D01*
X0068982Y0176754D01*
X0068978Y0176661D01*
X0068970Y0176569D01*
X0068958Y0176477D01*
X0068942Y0176386D01*
X0068922Y0176296D01*
X0068899Y0176206D01*
X0068872Y0176118D01*
X0068841Y0176031D01*
X0068806Y0175945D01*
X0068768Y0175861D01*
X0068726Y0175778D01*
X0068680Y0175698D01*
X0068631Y0175619D01*
X0068579Y0175542D01*
X0068524Y0175468D01*
X0068466Y0175397D01*
X0068404Y0175327D01*
X0068340Y0175261D01*
X0068273Y0175197D01*
X0068203Y0175137D01*
X0068130Y0175079D01*
X0068056Y0175024D01*
X0067979Y0174973D01*
X0067900Y0174925D01*
X0067818Y0174881D01*
X0067735Y0174839D01*
X0067651Y0174802D01*
X0067565Y0174768D01*
X0067477Y0174738D01*
X0067389Y0174712D01*
X0067299Y0174689D01*
X0067208Y0174671D01*
X0067117Y0174656D01*
X0067025Y0174645D01*
X0066933Y0174638D01*
X0066840Y0174635D01*
X0066748Y0174636D01*
X0066655Y0174641D01*
X0066563Y0174650D01*
X0066471Y0174663D01*
X0066380Y0174679D01*
X0066290Y0174700D01*
X0066201Y0174724D01*
X0066113Y0174753D01*
X0066026Y0174785D01*
X0065941Y0174820D01*
X0065857Y0174860D01*
X0065775Y0174902D01*
X0065695Y0174949D01*
X0065617Y0174998D01*
X0065541Y0175051D01*
X0065467Y0175107D01*
X0065396Y0175167D01*
X0065328Y0175229D01*
X0065262Y0175294D01*
X0065199Y0175362D01*
X0065139Y0175432D01*
X0065082Y0175505D01*
X0065028Y0175580D01*
X0064978Y0175658D01*
X0064931Y0175738D01*
X0064887Y0175819D01*
X0064847Y0175903D01*
X0064810Y0175988D01*
X0064777Y0176074D01*
X0064748Y0176162D01*
X0064723Y0176251D01*
X0064701Y0176341D01*
X0064684Y0176432D01*
X0064670Y0176523D01*
X0064660Y0176615D01*
X0064654Y0176707D01*
X0064652Y0176800D01*
X0190262Y0089068D02*
X0190264Y0089178D01*
X0190270Y0089288D01*
X0190280Y0089398D01*
X0190294Y0089507D01*
X0190312Y0089616D01*
X0190333Y0089724D01*
X0190359Y0089831D01*
X0190388Y0089937D01*
X0190422Y0090042D01*
X0190459Y0090146D01*
X0190500Y0090248D01*
X0190544Y0090349D01*
X0190592Y0090448D01*
X0190644Y0090546D01*
X0190699Y0090641D01*
X0190757Y0090734D01*
X0190819Y0090825D01*
X0190884Y0090914D01*
X0190952Y0091001D01*
X0191024Y0091085D01*
X0191098Y0091166D01*
X0191175Y0091245D01*
X0191255Y0091321D01*
X0191338Y0091393D01*
X0191423Y0091463D01*
X0191511Y0091530D01*
X0191601Y0091593D01*
X0191693Y0091653D01*
X0191787Y0091710D01*
X0191884Y0091764D01*
X0191982Y0091813D01*
X0192082Y0091860D01*
X0192184Y0091902D01*
X0192287Y0091941D01*
X0192391Y0091976D01*
X0192497Y0092008D01*
X0192603Y0092035D01*
X0192711Y0092059D01*
X0192819Y0092079D01*
X0192928Y0092095D01*
X0193038Y0092107D01*
X0193148Y0092115D01*
X0193258Y0092119D01*
X0193368Y0092119D01*
X0193478Y0092115D01*
X0193588Y0092107D01*
X0193698Y0092095D01*
X0193807Y0092079D01*
X0193915Y0092059D01*
X0194023Y0092035D01*
X0194129Y0092008D01*
X0194235Y0091976D01*
X0194339Y0091941D01*
X0194442Y0091902D01*
X0194544Y0091860D01*
X0194644Y0091813D01*
X0194742Y0091764D01*
X0194838Y0091710D01*
X0194933Y0091653D01*
X0195025Y0091593D01*
X0195115Y0091530D01*
X0195203Y0091463D01*
X0195288Y0091393D01*
X0195371Y0091321D01*
X0195451Y0091245D01*
X0195528Y0091166D01*
X0195602Y0091085D01*
X0195674Y0091001D01*
X0195742Y0090914D01*
X0195807Y0090825D01*
X0195869Y0090734D01*
X0195927Y0090641D01*
X0195982Y0090546D01*
X0196034Y0090448D01*
X0196082Y0090349D01*
X0196126Y0090248D01*
X0196167Y0090146D01*
X0196204Y0090042D01*
X0196238Y0089937D01*
X0196267Y0089831D01*
X0196293Y0089724D01*
X0196314Y0089616D01*
X0196332Y0089507D01*
X0196346Y0089398D01*
X0196356Y0089288D01*
X0196362Y0089178D01*
X0196364Y0089068D01*
X0196362Y0088958D01*
X0196356Y0088848D01*
X0196346Y0088738D01*
X0196332Y0088629D01*
X0196314Y0088520D01*
X0196293Y0088412D01*
X0196267Y0088305D01*
X0196238Y0088199D01*
X0196204Y0088094D01*
X0196167Y0087990D01*
X0196126Y0087888D01*
X0196082Y0087787D01*
X0196034Y0087688D01*
X0195982Y0087590D01*
X0195927Y0087495D01*
X0195869Y0087402D01*
X0195807Y0087311D01*
X0195742Y0087222D01*
X0195674Y0087135D01*
X0195602Y0087051D01*
X0195528Y0086970D01*
X0195451Y0086891D01*
X0195371Y0086815D01*
X0195288Y0086743D01*
X0195203Y0086673D01*
X0195115Y0086606D01*
X0195025Y0086543D01*
X0194933Y0086483D01*
X0194839Y0086426D01*
X0194742Y0086372D01*
X0194644Y0086323D01*
X0194544Y0086276D01*
X0194442Y0086234D01*
X0194339Y0086195D01*
X0194235Y0086160D01*
X0194129Y0086128D01*
X0194023Y0086101D01*
X0193915Y0086077D01*
X0193807Y0086057D01*
X0193698Y0086041D01*
X0193588Y0086029D01*
X0193478Y0086021D01*
X0193368Y0086017D01*
X0193258Y0086017D01*
X0193148Y0086021D01*
X0193038Y0086029D01*
X0192928Y0086041D01*
X0192819Y0086057D01*
X0192711Y0086077D01*
X0192603Y0086101D01*
X0192497Y0086128D01*
X0192391Y0086160D01*
X0192287Y0086195D01*
X0192184Y0086234D01*
X0192082Y0086276D01*
X0191982Y0086323D01*
X0191884Y0086372D01*
X0191787Y0086426D01*
X0191693Y0086483D01*
X0191601Y0086543D01*
X0191511Y0086606D01*
X0191423Y0086673D01*
X0191338Y0086743D01*
X0191255Y0086815D01*
X0191175Y0086891D01*
X0191098Y0086970D01*
X0191024Y0087051D01*
X0190952Y0087135D01*
X0190884Y0087222D01*
X0190819Y0087311D01*
X0190757Y0087402D01*
X0190699Y0087495D01*
X0190644Y0087590D01*
X0190592Y0087688D01*
X0190544Y0087787D01*
X0190500Y0087888D01*
X0190459Y0087990D01*
X0190422Y0088094D01*
X0190388Y0088199D01*
X0190359Y0088305D01*
X0190333Y0088412D01*
X0190312Y0088520D01*
X0190294Y0088629D01*
X0190280Y0088738D01*
X0190270Y0088848D01*
X0190264Y0088958D01*
X0190262Y0089068D01*
X0285774Y0089068D02*
X0285776Y0089178D01*
X0285782Y0089288D01*
X0285792Y0089398D01*
X0285806Y0089507D01*
X0285824Y0089616D01*
X0285845Y0089724D01*
X0285871Y0089831D01*
X0285900Y0089937D01*
X0285934Y0090042D01*
X0285971Y0090146D01*
X0286012Y0090248D01*
X0286056Y0090349D01*
X0286104Y0090448D01*
X0286156Y0090546D01*
X0286211Y0090641D01*
X0286269Y0090734D01*
X0286331Y0090825D01*
X0286396Y0090914D01*
X0286464Y0091001D01*
X0286536Y0091085D01*
X0286610Y0091166D01*
X0286687Y0091245D01*
X0286767Y0091321D01*
X0286850Y0091393D01*
X0286935Y0091463D01*
X0287023Y0091530D01*
X0287113Y0091593D01*
X0287205Y0091653D01*
X0287299Y0091710D01*
X0287396Y0091764D01*
X0287494Y0091813D01*
X0287594Y0091860D01*
X0287696Y0091902D01*
X0287799Y0091941D01*
X0287903Y0091976D01*
X0288009Y0092008D01*
X0288115Y0092035D01*
X0288223Y0092059D01*
X0288331Y0092079D01*
X0288440Y0092095D01*
X0288550Y0092107D01*
X0288660Y0092115D01*
X0288770Y0092119D01*
X0288880Y0092119D01*
X0288990Y0092115D01*
X0289100Y0092107D01*
X0289210Y0092095D01*
X0289319Y0092079D01*
X0289427Y0092059D01*
X0289535Y0092035D01*
X0289641Y0092008D01*
X0289747Y0091976D01*
X0289851Y0091941D01*
X0289954Y0091902D01*
X0290056Y0091860D01*
X0290156Y0091813D01*
X0290254Y0091764D01*
X0290350Y0091710D01*
X0290445Y0091653D01*
X0290537Y0091593D01*
X0290627Y0091530D01*
X0290715Y0091463D01*
X0290800Y0091393D01*
X0290883Y0091321D01*
X0290963Y0091245D01*
X0291040Y0091166D01*
X0291114Y0091085D01*
X0291186Y0091001D01*
X0291254Y0090914D01*
X0291319Y0090825D01*
X0291381Y0090734D01*
X0291439Y0090641D01*
X0291494Y0090546D01*
X0291546Y0090448D01*
X0291594Y0090349D01*
X0291638Y0090248D01*
X0291679Y0090146D01*
X0291716Y0090042D01*
X0291750Y0089937D01*
X0291779Y0089831D01*
X0291805Y0089724D01*
X0291826Y0089616D01*
X0291844Y0089507D01*
X0291858Y0089398D01*
X0291868Y0089288D01*
X0291874Y0089178D01*
X0291876Y0089068D01*
X0291874Y0088958D01*
X0291868Y0088848D01*
X0291858Y0088738D01*
X0291844Y0088629D01*
X0291826Y0088520D01*
X0291805Y0088412D01*
X0291779Y0088305D01*
X0291750Y0088199D01*
X0291716Y0088094D01*
X0291679Y0087990D01*
X0291638Y0087888D01*
X0291594Y0087787D01*
X0291546Y0087688D01*
X0291494Y0087590D01*
X0291439Y0087495D01*
X0291381Y0087402D01*
X0291319Y0087311D01*
X0291254Y0087222D01*
X0291186Y0087135D01*
X0291114Y0087051D01*
X0291040Y0086970D01*
X0290963Y0086891D01*
X0290883Y0086815D01*
X0290800Y0086743D01*
X0290715Y0086673D01*
X0290627Y0086606D01*
X0290537Y0086543D01*
X0290445Y0086483D01*
X0290351Y0086426D01*
X0290254Y0086372D01*
X0290156Y0086323D01*
X0290056Y0086276D01*
X0289954Y0086234D01*
X0289851Y0086195D01*
X0289747Y0086160D01*
X0289641Y0086128D01*
X0289535Y0086101D01*
X0289427Y0086077D01*
X0289319Y0086057D01*
X0289210Y0086041D01*
X0289100Y0086029D01*
X0288990Y0086021D01*
X0288880Y0086017D01*
X0288770Y0086017D01*
X0288660Y0086021D01*
X0288550Y0086029D01*
X0288440Y0086041D01*
X0288331Y0086057D01*
X0288223Y0086077D01*
X0288115Y0086101D01*
X0288009Y0086128D01*
X0287903Y0086160D01*
X0287799Y0086195D01*
X0287696Y0086234D01*
X0287594Y0086276D01*
X0287494Y0086323D01*
X0287396Y0086372D01*
X0287299Y0086426D01*
X0287205Y0086483D01*
X0287113Y0086543D01*
X0287023Y0086606D01*
X0286935Y0086673D01*
X0286850Y0086743D01*
X0286767Y0086815D01*
X0286687Y0086891D01*
X0286610Y0086970D01*
X0286536Y0087051D01*
X0286464Y0087135D01*
X0286396Y0087222D01*
X0286331Y0087311D01*
X0286269Y0087402D01*
X0286211Y0087495D01*
X0286156Y0087590D01*
X0286104Y0087688D01*
X0286056Y0087787D01*
X0286012Y0087888D01*
X0285971Y0087990D01*
X0285934Y0088094D01*
X0285900Y0088199D01*
X0285871Y0088305D01*
X0285845Y0088412D01*
X0285824Y0088520D01*
X0285806Y0088629D01*
X0285792Y0088738D01*
X0285782Y0088848D01*
X0285776Y0088958D01*
X0285774Y0089068D01*
X0311018Y0094300D02*
X0311020Y0094458D01*
X0311026Y0094616D01*
X0311036Y0094774D01*
X0311050Y0094932D01*
X0311068Y0095089D01*
X0311089Y0095246D01*
X0311115Y0095402D01*
X0311145Y0095558D01*
X0311178Y0095713D01*
X0311216Y0095866D01*
X0311257Y0096019D01*
X0311302Y0096171D01*
X0311351Y0096322D01*
X0311404Y0096471D01*
X0311460Y0096619D01*
X0311520Y0096765D01*
X0311584Y0096910D01*
X0311652Y0097053D01*
X0311723Y0097195D01*
X0311797Y0097335D01*
X0311875Y0097472D01*
X0311957Y0097608D01*
X0312041Y0097742D01*
X0312130Y0097873D01*
X0312221Y0098002D01*
X0312316Y0098129D01*
X0312413Y0098254D01*
X0312514Y0098376D01*
X0312618Y0098495D01*
X0312725Y0098612D01*
X0312835Y0098726D01*
X0312948Y0098837D01*
X0313063Y0098946D01*
X0313181Y0099051D01*
X0313302Y0099153D01*
X0313425Y0099253D01*
X0313551Y0099349D01*
X0313679Y0099442D01*
X0313809Y0099532D01*
X0313942Y0099618D01*
X0314077Y0099702D01*
X0314213Y0099781D01*
X0314352Y0099858D01*
X0314493Y0099930D01*
X0314635Y0100000D01*
X0314779Y0100065D01*
X0314925Y0100127D01*
X0315072Y0100185D01*
X0315221Y0100240D01*
X0315371Y0100291D01*
X0315522Y0100338D01*
X0315674Y0100381D01*
X0315827Y0100420D01*
X0315982Y0100456D01*
X0316137Y0100487D01*
X0316293Y0100515D01*
X0316449Y0100539D01*
X0316606Y0100559D01*
X0316764Y0100575D01*
X0316921Y0100587D01*
X0317080Y0100595D01*
X0317238Y0100599D01*
X0317396Y0100599D01*
X0317554Y0100595D01*
X0317713Y0100587D01*
X0317870Y0100575D01*
X0318028Y0100559D01*
X0318185Y0100539D01*
X0318341Y0100515D01*
X0318497Y0100487D01*
X0318652Y0100456D01*
X0318807Y0100420D01*
X0318960Y0100381D01*
X0319112Y0100338D01*
X0319263Y0100291D01*
X0319413Y0100240D01*
X0319562Y0100185D01*
X0319709Y0100127D01*
X0319855Y0100065D01*
X0319999Y0100000D01*
X0320141Y0099930D01*
X0320282Y0099858D01*
X0320421Y0099781D01*
X0320557Y0099702D01*
X0320692Y0099618D01*
X0320825Y0099532D01*
X0320955Y0099442D01*
X0321083Y0099349D01*
X0321209Y0099253D01*
X0321332Y0099153D01*
X0321453Y0099051D01*
X0321571Y0098946D01*
X0321686Y0098837D01*
X0321799Y0098726D01*
X0321909Y0098612D01*
X0322016Y0098495D01*
X0322120Y0098376D01*
X0322221Y0098254D01*
X0322318Y0098129D01*
X0322413Y0098002D01*
X0322504Y0097873D01*
X0322593Y0097742D01*
X0322677Y0097608D01*
X0322759Y0097472D01*
X0322837Y0097335D01*
X0322911Y0097195D01*
X0322982Y0097053D01*
X0323050Y0096910D01*
X0323114Y0096765D01*
X0323174Y0096619D01*
X0323230Y0096471D01*
X0323283Y0096322D01*
X0323332Y0096171D01*
X0323377Y0096019D01*
X0323418Y0095866D01*
X0323456Y0095713D01*
X0323489Y0095558D01*
X0323519Y0095402D01*
X0323545Y0095246D01*
X0323566Y0095089D01*
X0323584Y0094932D01*
X0323598Y0094774D01*
X0323608Y0094616D01*
X0323614Y0094458D01*
X0323616Y0094300D01*
X0323614Y0094142D01*
X0323608Y0093984D01*
X0323598Y0093826D01*
X0323584Y0093668D01*
X0323566Y0093511D01*
X0323545Y0093354D01*
X0323519Y0093198D01*
X0323489Y0093042D01*
X0323456Y0092887D01*
X0323418Y0092734D01*
X0323377Y0092581D01*
X0323332Y0092429D01*
X0323283Y0092278D01*
X0323230Y0092129D01*
X0323174Y0091981D01*
X0323114Y0091835D01*
X0323050Y0091690D01*
X0322982Y0091547D01*
X0322911Y0091405D01*
X0322837Y0091265D01*
X0322759Y0091128D01*
X0322677Y0090992D01*
X0322593Y0090858D01*
X0322504Y0090727D01*
X0322413Y0090598D01*
X0322318Y0090471D01*
X0322221Y0090346D01*
X0322120Y0090224D01*
X0322016Y0090105D01*
X0321909Y0089988D01*
X0321799Y0089874D01*
X0321686Y0089763D01*
X0321571Y0089654D01*
X0321453Y0089549D01*
X0321332Y0089447D01*
X0321209Y0089347D01*
X0321083Y0089251D01*
X0320955Y0089158D01*
X0320825Y0089068D01*
X0320692Y0088982D01*
X0320557Y0088898D01*
X0320421Y0088819D01*
X0320282Y0088742D01*
X0320141Y0088670D01*
X0319999Y0088600D01*
X0319855Y0088535D01*
X0319709Y0088473D01*
X0319562Y0088415D01*
X0319413Y0088360D01*
X0319263Y0088309D01*
X0319112Y0088262D01*
X0318960Y0088219D01*
X0318807Y0088180D01*
X0318652Y0088144D01*
X0318497Y0088113D01*
X0318341Y0088085D01*
X0318185Y0088061D01*
X0318028Y0088041D01*
X0317870Y0088025D01*
X0317713Y0088013D01*
X0317554Y0088005D01*
X0317396Y0088001D01*
X0317238Y0088001D01*
X0317080Y0088005D01*
X0316921Y0088013D01*
X0316764Y0088025D01*
X0316606Y0088041D01*
X0316449Y0088061D01*
X0316293Y0088085D01*
X0316137Y0088113D01*
X0315982Y0088144D01*
X0315827Y0088180D01*
X0315674Y0088219D01*
X0315522Y0088262D01*
X0315371Y0088309D01*
X0315221Y0088360D01*
X0315072Y0088415D01*
X0314925Y0088473D01*
X0314779Y0088535D01*
X0314635Y0088600D01*
X0314493Y0088670D01*
X0314352Y0088742D01*
X0314213Y0088819D01*
X0314077Y0088898D01*
X0313942Y0088982D01*
X0313809Y0089068D01*
X0313679Y0089158D01*
X0313551Y0089251D01*
X0313425Y0089347D01*
X0313302Y0089447D01*
X0313181Y0089549D01*
X0313063Y0089654D01*
X0312948Y0089763D01*
X0312835Y0089874D01*
X0312725Y0089988D01*
X0312618Y0090105D01*
X0312514Y0090224D01*
X0312413Y0090346D01*
X0312316Y0090471D01*
X0312221Y0090598D01*
X0312130Y0090727D01*
X0312041Y0090858D01*
X0311957Y0090992D01*
X0311875Y0091128D01*
X0311797Y0091265D01*
X0311723Y0091405D01*
X0311652Y0091547D01*
X0311584Y0091690D01*
X0311520Y0091835D01*
X0311460Y0091981D01*
X0311404Y0092129D01*
X0311351Y0092278D01*
X0311302Y0092429D01*
X0311257Y0092581D01*
X0311216Y0092734D01*
X0311178Y0092887D01*
X0311145Y0093042D01*
X0311115Y0093198D01*
X0311089Y0093354D01*
X0311068Y0093511D01*
X0311050Y0093668D01*
X0311036Y0093826D01*
X0311026Y0093984D01*
X0311020Y0094142D01*
X0311018Y0094300D01*
X0351018Y0094300D02*
X0351020Y0094458D01*
X0351026Y0094616D01*
X0351036Y0094774D01*
X0351050Y0094932D01*
X0351068Y0095089D01*
X0351089Y0095246D01*
X0351115Y0095402D01*
X0351145Y0095558D01*
X0351178Y0095713D01*
X0351216Y0095866D01*
X0351257Y0096019D01*
X0351302Y0096171D01*
X0351351Y0096322D01*
X0351404Y0096471D01*
X0351460Y0096619D01*
X0351520Y0096765D01*
X0351584Y0096910D01*
X0351652Y0097053D01*
X0351723Y0097195D01*
X0351797Y0097335D01*
X0351875Y0097472D01*
X0351957Y0097608D01*
X0352041Y0097742D01*
X0352130Y0097873D01*
X0352221Y0098002D01*
X0352316Y0098129D01*
X0352413Y0098254D01*
X0352514Y0098376D01*
X0352618Y0098495D01*
X0352725Y0098612D01*
X0352835Y0098726D01*
X0352948Y0098837D01*
X0353063Y0098946D01*
X0353181Y0099051D01*
X0353302Y0099153D01*
X0353425Y0099253D01*
X0353551Y0099349D01*
X0353679Y0099442D01*
X0353809Y0099532D01*
X0353942Y0099618D01*
X0354077Y0099702D01*
X0354213Y0099781D01*
X0354352Y0099858D01*
X0354493Y0099930D01*
X0354635Y0100000D01*
X0354779Y0100065D01*
X0354925Y0100127D01*
X0355072Y0100185D01*
X0355221Y0100240D01*
X0355371Y0100291D01*
X0355522Y0100338D01*
X0355674Y0100381D01*
X0355827Y0100420D01*
X0355982Y0100456D01*
X0356137Y0100487D01*
X0356293Y0100515D01*
X0356449Y0100539D01*
X0356606Y0100559D01*
X0356764Y0100575D01*
X0356921Y0100587D01*
X0357080Y0100595D01*
X0357238Y0100599D01*
X0357396Y0100599D01*
X0357554Y0100595D01*
X0357713Y0100587D01*
X0357870Y0100575D01*
X0358028Y0100559D01*
X0358185Y0100539D01*
X0358341Y0100515D01*
X0358497Y0100487D01*
X0358652Y0100456D01*
X0358807Y0100420D01*
X0358960Y0100381D01*
X0359112Y0100338D01*
X0359263Y0100291D01*
X0359413Y0100240D01*
X0359562Y0100185D01*
X0359709Y0100127D01*
X0359855Y0100065D01*
X0359999Y0100000D01*
X0360141Y0099930D01*
X0360282Y0099858D01*
X0360421Y0099781D01*
X0360557Y0099702D01*
X0360692Y0099618D01*
X0360825Y0099532D01*
X0360955Y0099442D01*
X0361083Y0099349D01*
X0361209Y0099253D01*
X0361332Y0099153D01*
X0361453Y0099051D01*
X0361571Y0098946D01*
X0361686Y0098837D01*
X0361799Y0098726D01*
X0361909Y0098612D01*
X0362016Y0098495D01*
X0362120Y0098376D01*
X0362221Y0098254D01*
X0362318Y0098129D01*
X0362413Y0098002D01*
X0362504Y0097873D01*
X0362593Y0097742D01*
X0362677Y0097608D01*
X0362759Y0097472D01*
X0362837Y0097335D01*
X0362911Y0097195D01*
X0362982Y0097053D01*
X0363050Y0096910D01*
X0363114Y0096765D01*
X0363174Y0096619D01*
X0363230Y0096471D01*
X0363283Y0096322D01*
X0363332Y0096171D01*
X0363377Y0096019D01*
X0363418Y0095866D01*
X0363456Y0095713D01*
X0363489Y0095558D01*
X0363519Y0095402D01*
X0363545Y0095246D01*
X0363566Y0095089D01*
X0363584Y0094932D01*
X0363598Y0094774D01*
X0363608Y0094616D01*
X0363614Y0094458D01*
X0363616Y0094300D01*
X0363614Y0094142D01*
X0363608Y0093984D01*
X0363598Y0093826D01*
X0363584Y0093668D01*
X0363566Y0093511D01*
X0363545Y0093354D01*
X0363519Y0093198D01*
X0363489Y0093042D01*
X0363456Y0092887D01*
X0363418Y0092734D01*
X0363377Y0092581D01*
X0363332Y0092429D01*
X0363283Y0092278D01*
X0363230Y0092129D01*
X0363174Y0091981D01*
X0363114Y0091835D01*
X0363050Y0091690D01*
X0362982Y0091547D01*
X0362911Y0091405D01*
X0362837Y0091265D01*
X0362759Y0091128D01*
X0362677Y0090992D01*
X0362593Y0090858D01*
X0362504Y0090727D01*
X0362413Y0090598D01*
X0362318Y0090471D01*
X0362221Y0090346D01*
X0362120Y0090224D01*
X0362016Y0090105D01*
X0361909Y0089988D01*
X0361799Y0089874D01*
X0361686Y0089763D01*
X0361571Y0089654D01*
X0361453Y0089549D01*
X0361332Y0089447D01*
X0361209Y0089347D01*
X0361083Y0089251D01*
X0360955Y0089158D01*
X0360825Y0089068D01*
X0360692Y0088982D01*
X0360557Y0088898D01*
X0360421Y0088819D01*
X0360282Y0088742D01*
X0360141Y0088670D01*
X0359999Y0088600D01*
X0359855Y0088535D01*
X0359709Y0088473D01*
X0359562Y0088415D01*
X0359413Y0088360D01*
X0359263Y0088309D01*
X0359112Y0088262D01*
X0358960Y0088219D01*
X0358807Y0088180D01*
X0358652Y0088144D01*
X0358497Y0088113D01*
X0358341Y0088085D01*
X0358185Y0088061D01*
X0358028Y0088041D01*
X0357870Y0088025D01*
X0357713Y0088013D01*
X0357554Y0088005D01*
X0357396Y0088001D01*
X0357238Y0088001D01*
X0357080Y0088005D01*
X0356921Y0088013D01*
X0356764Y0088025D01*
X0356606Y0088041D01*
X0356449Y0088061D01*
X0356293Y0088085D01*
X0356137Y0088113D01*
X0355982Y0088144D01*
X0355827Y0088180D01*
X0355674Y0088219D01*
X0355522Y0088262D01*
X0355371Y0088309D01*
X0355221Y0088360D01*
X0355072Y0088415D01*
X0354925Y0088473D01*
X0354779Y0088535D01*
X0354635Y0088600D01*
X0354493Y0088670D01*
X0354352Y0088742D01*
X0354213Y0088819D01*
X0354077Y0088898D01*
X0353942Y0088982D01*
X0353809Y0089068D01*
X0353679Y0089158D01*
X0353551Y0089251D01*
X0353425Y0089347D01*
X0353302Y0089447D01*
X0353181Y0089549D01*
X0353063Y0089654D01*
X0352948Y0089763D01*
X0352835Y0089874D01*
X0352725Y0089988D01*
X0352618Y0090105D01*
X0352514Y0090224D01*
X0352413Y0090346D01*
X0352316Y0090471D01*
X0352221Y0090598D01*
X0352130Y0090727D01*
X0352041Y0090858D01*
X0351957Y0090992D01*
X0351875Y0091128D01*
X0351797Y0091265D01*
X0351723Y0091405D01*
X0351652Y0091547D01*
X0351584Y0091690D01*
X0351520Y0091835D01*
X0351460Y0091981D01*
X0351404Y0092129D01*
X0351351Y0092278D01*
X0351302Y0092429D01*
X0351257Y0092581D01*
X0351216Y0092734D01*
X0351178Y0092887D01*
X0351145Y0093042D01*
X0351115Y0093198D01*
X0351089Y0093354D01*
X0351068Y0093511D01*
X0351050Y0093668D01*
X0351036Y0093826D01*
X0351026Y0093984D01*
X0351020Y0094142D01*
X0351018Y0094300D01*
X0377670Y0076100D02*
X0377672Y0076197D01*
X0377678Y0076294D01*
X0377688Y0076390D01*
X0377702Y0076486D01*
X0377720Y0076582D01*
X0377741Y0076676D01*
X0377767Y0076770D01*
X0377796Y0076862D01*
X0377830Y0076953D01*
X0377866Y0077043D01*
X0377907Y0077131D01*
X0377951Y0077217D01*
X0377999Y0077302D01*
X0378050Y0077384D01*
X0378104Y0077465D01*
X0378162Y0077543D01*
X0378223Y0077618D01*
X0378286Y0077691D01*
X0378353Y0077762D01*
X0378423Y0077829D01*
X0378495Y0077894D01*
X0378570Y0077955D01*
X0378648Y0078014D01*
X0378727Y0078069D01*
X0378809Y0078121D01*
X0378893Y0078169D01*
X0378979Y0078214D01*
X0379067Y0078256D01*
X0379156Y0078294D01*
X0379247Y0078328D01*
X0379339Y0078358D01*
X0379432Y0078385D01*
X0379527Y0078407D01*
X0379622Y0078426D01*
X0379718Y0078441D01*
X0379814Y0078452D01*
X0379911Y0078459D01*
X0380008Y0078462D01*
X0380105Y0078461D01*
X0380202Y0078456D01*
X0380298Y0078447D01*
X0380394Y0078434D01*
X0380490Y0078417D01*
X0380585Y0078396D01*
X0380678Y0078372D01*
X0380771Y0078343D01*
X0380863Y0078311D01*
X0380953Y0078275D01*
X0381041Y0078236D01*
X0381128Y0078192D01*
X0381213Y0078146D01*
X0381296Y0078095D01*
X0381377Y0078042D01*
X0381455Y0077985D01*
X0381532Y0077925D01*
X0381605Y0077862D01*
X0381676Y0077796D01*
X0381744Y0077727D01*
X0381810Y0077655D01*
X0381872Y0077581D01*
X0381931Y0077504D01*
X0381987Y0077425D01*
X0382040Y0077343D01*
X0382090Y0077260D01*
X0382135Y0077174D01*
X0382178Y0077087D01*
X0382217Y0076998D01*
X0382252Y0076908D01*
X0382283Y0076816D01*
X0382310Y0076723D01*
X0382334Y0076629D01*
X0382354Y0076534D01*
X0382370Y0076438D01*
X0382382Y0076342D01*
X0382390Y0076245D01*
X0382394Y0076148D01*
X0382394Y0076052D01*
X0382390Y0075955D01*
X0382382Y0075858D01*
X0382370Y0075762D01*
X0382354Y0075666D01*
X0382334Y0075571D01*
X0382310Y0075477D01*
X0382283Y0075384D01*
X0382252Y0075292D01*
X0382217Y0075202D01*
X0382178Y0075113D01*
X0382135Y0075026D01*
X0382090Y0074940D01*
X0382040Y0074857D01*
X0381987Y0074775D01*
X0381931Y0074696D01*
X0381872Y0074619D01*
X0381810Y0074545D01*
X0381744Y0074473D01*
X0381676Y0074404D01*
X0381605Y0074338D01*
X0381532Y0074275D01*
X0381455Y0074215D01*
X0381377Y0074158D01*
X0381296Y0074105D01*
X0381213Y0074054D01*
X0381128Y0074008D01*
X0381041Y0073964D01*
X0380953Y0073925D01*
X0380863Y0073889D01*
X0380771Y0073857D01*
X0380678Y0073828D01*
X0380585Y0073804D01*
X0380490Y0073783D01*
X0380394Y0073766D01*
X0380298Y0073753D01*
X0380202Y0073744D01*
X0380105Y0073739D01*
X0380008Y0073738D01*
X0379911Y0073741D01*
X0379814Y0073748D01*
X0379718Y0073759D01*
X0379622Y0073774D01*
X0379527Y0073793D01*
X0379432Y0073815D01*
X0379339Y0073842D01*
X0379247Y0073872D01*
X0379156Y0073906D01*
X0379067Y0073944D01*
X0378979Y0073986D01*
X0378893Y0074031D01*
X0378809Y0074079D01*
X0378727Y0074131D01*
X0378648Y0074186D01*
X0378570Y0074245D01*
X0378495Y0074306D01*
X0378423Y0074371D01*
X0378353Y0074438D01*
X0378286Y0074509D01*
X0378223Y0074582D01*
X0378162Y0074657D01*
X0378104Y0074735D01*
X0378050Y0074816D01*
X0377999Y0074898D01*
X0377951Y0074983D01*
X0377907Y0075069D01*
X0377866Y0075157D01*
X0377830Y0075247D01*
X0377796Y0075338D01*
X0377767Y0075430D01*
X0377741Y0075524D01*
X0377720Y0075618D01*
X0377702Y0075714D01*
X0377688Y0075810D01*
X0377678Y0075906D01*
X0377672Y0076003D01*
X0377670Y0076100D01*
X0377670Y0066257D02*
X0377672Y0066354D01*
X0377678Y0066451D01*
X0377688Y0066547D01*
X0377702Y0066643D01*
X0377720Y0066739D01*
X0377741Y0066833D01*
X0377767Y0066927D01*
X0377796Y0067019D01*
X0377830Y0067110D01*
X0377866Y0067200D01*
X0377907Y0067288D01*
X0377951Y0067374D01*
X0377999Y0067459D01*
X0378050Y0067541D01*
X0378104Y0067622D01*
X0378162Y0067700D01*
X0378223Y0067775D01*
X0378286Y0067848D01*
X0378353Y0067919D01*
X0378423Y0067986D01*
X0378495Y0068051D01*
X0378570Y0068112D01*
X0378648Y0068171D01*
X0378727Y0068226D01*
X0378809Y0068278D01*
X0378893Y0068326D01*
X0378979Y0068371D01*
X0379067Y0068413D01*
X0379156Y0068451D01*
X0379247Y0068485D01*
X0379339Y0068515D01*
X0379432Y0068542D01*
X0379527Y0068564D01*
X0379622Y0068583D01*
X0379718Y0068598D01*
X0379814Y0068609D01*
X0379911Y0068616D01*
X0380008Y0068619D01*
X0380105Y0068618D01*
X0380202Y0068613D01*
X0380298Y0068604D01*
X0380394Y0068591D01*
X0380490Y0068574D01*
X0380585Y0068553D01*
X0380678Y0068529D01*
X0380771Y0068500D01*
X0380863Y0068468D01*
X0380953Y0068432D01*
X0381041Y0068393D01*
X0381128Y0068349D01*
X0381213Y0068303D01*
X0381296Y0068252D01*
X0381377Y0068199D01*
X0381455Y0068142D01*
X0381532Y0068082D01*
X0381605Y0068019D01*
X0381676Y0067953D01*
X0381744Y0067884D01*
X0381810Y0067812D01*
X0381872Y0067738D01*
X0381931Y0067661D01*
X0381987Y0067582D01*
X0382040Y0067500D01*
X0382090Y0067417D01*
X0382135Y0067331D01*
X0382178Y0067244D01*
X0382217Y0067155D01*
X0382252Y0067065D01*
X0382283Y0066973D01*
X0382310Y0066880D01*
X0382334Y0066786D01*
X0382354Y0066691D01*
X0382370Y0066595D01*
X0382382Y0066499D01*
X0382390Y0066402D01*
X0382394Y0066305D01*
X0382394Y0066209D01*
X0382390Y0066112D01*
X0382382Y0066015D01*
X0382370Y0065919D01*
X0382354Y0065823D01*
X0382334Y0065728D01*
X0382310Y0065634D01*
X0382283Y0065541D01*
X0382252Y0065449D01*
X0382217Y0065359D01*
X0382178Y0065270D01*
X0382135Y0065183D01*
X0382090Y0065097D01*
X0382040Y0065014D01*
X0381987Y0064932D01*
X0381931Y0064853D01*
X0381872Y0064776D01*
X0381810Y0064702D01*
X0381744Y0064630D01*
X0381676Y0064561D01*
X0381605Y0064495D01*
X0381532Y0064432D01*
X0381455Y0064372D01*
X0381377Y0064315D01*
X0381296Y0064262D01*
X0381213Y0064211D01*
X0381128Y0064165D01*
X0381041Y0064121D01*
X0380953Y0064082D01*
X0380863Y0064046D01*
X0380771Y0064014D01*
X0380678Y0063985D01*
X0380585Y0063961D01*
X0380490Y0063940D01*
X0380394Y0063923D01*
X0380298Y0063910D01*
X0380202Y0063901D01*
X0380105Y0063896D01*
X0380008Y0063895D01*
X0379911Y0063898D01*
X0379814Y0063905D01*
X0379718Y0063916D01*
X0379622Y0063931D01*
X0379527Y0063950D01*
X0379432Y0063972D01*
X0379339Y0063999D01*
X0379247Y0064029D01*
X0379156Y0064063D01*
X0379067Y0064101D01*
X0378979Y0064143D01*
X0378893Y0064188D01*
X0378809Y0064236D01*
X0378727Y0064288D01*
X0378648Y0064343D01*
X0378570Y0064402D01*
X0378495Y0064463D01*
X0378423Y0064528D01*
X0378353Y0064595D01*
X0378286Y0064666D01*
X0378223Y0064739D01*
X0378162Y0064814D01*
X0378104Y0064892D01*
X0378050Y0064973D01*
X0377999Y0065055D01*
X0377951Y0065140D01*
X0377907Y0065226D01*
X0377866Y0065314D01*
X0377830Y0065404D01*
X0377796Y0065495D01*
X0377767Y0065587D01*
X0377741Y0065681D01*
X0377720Y0065775D01*
X0377702Y0065871D01*
X0377688Y0065967D01*
X0377678Y0066063D01*
X0377672Y0066160D01*
X0377670Y0066257D01*
X0397355Y0095785D02*
X0397357Y0095882D01*
X0397363Y0095979D01*
X0397373Y0096075D01*
X0397387Y0096171D01*
X0397405Y0096267D01*
X0397426Y0096361D01*
X0397452Y0096455D01*
X0397481Y0096547D01*
X0397515Y0096638D01*
X0397551Y0096728D01*
X0397592Y0096816D01*
X0397636Y0096902D01*
X0397684Y0096987D01*
X0397735Y0097069D01*
X0397789Y0097150D01*
X0397847Y0097228D01*
X0397908Y0097303D01*
X0397971Y0097376D01*
X0398038Y0097447D01*
X0398108Y0097514D01*
X0398180Y0097579D01*
X0398255Y0097640D01*
X0398333Y0097699D01*
X0398412Y0097754D01*
X0398494Y0097806D01*
X0398578Y0097854D01*
X0398664Y0097899D01*
X0398752Y0097941D01*
X0398841Y0097979D01*
X0398932Y0098013D01*
X0399024Y0098043D01*
X0399117Y0098070D01*
X0399212Y0098092D01*
X0399307Y0098111D01*
X0399403Y0098126D01*
X0399499Y0098137D01*
X0399596Y0098144D01*
X0399693Y0098147D01*
X0399790Y0098146D01*
X0399887Y0098141D01*
X0399983Y0098132D01*
X0400079Y0098119D01*
X0400175Y0098102D01*
X0400270Y0098081D01*
X0400363Y0098057D01*
X0400456Y0098028D01*
X0400548Y0097996D01*
X0400638Y0097960D01*
X0400726Y0097921D01*
X0400813Y0097877D01*
X0400898Y0097831D01*
X0400981Y0097780D01*
X0401062Y0097727D01*
X0401140Y0097670D01*
X0401217Y0097610D01*
X0401290Y0097547D01*
X0401361Y0097481D01*
X0401429Y0097412D01*
X0401495Y0097340D01*
X0401557Y0097266D01*
X0401616Y0097189D01*
X0401672Y0097110D01*
X0401725Y0097028D01*
X0401775Y0096945D01*
X0401820Y0096859D01*
X0401863Y0096772D01*
X0401902Y0096683D01*
X0401937Y0096593D01*
X0401968Y0096501D01*
X0401995Y0096408D01*
X0402019Y0096314D01*
X0402039Y0096219D01*
X0402055Y0096123D01*
X0402067Y0096027D01*
X0402075Y0095930D01*
X0402079Y0095833D01*
X0402079Y0095737D01*
X0402075Y0095640D01*
X0402067Y0095543D01*
X0402055Y0095447D01*
X0402039Y0095351D01*
X0402019Y0095256D01*
X0401995Y0095162D01*
X0401968Y0095069D01*
X0401937Y0094977D01*
X0401902Y0094887D01*
X0401863Y0094798D01*
X0401820Y0094711D01*
X0401775Y0094625D01*
X0401725Y0094542D01*
X0401672Y0094460D01*
X0401616Y0094381D01*
X0401557Y0094304D01*
X0401495Y0094230D01*
X0401429Y0094158D01*
X0401361Y0094089D01*
X0401290Y0094023D01*
X0401217Y0093960D01*
X0401140Y0093900D01*
X0401062Y0093843D01*
X0400981Y0093790D01*
X0400898Y0093739D01*
X0400813Y0093693D01*
X0400726Y0093649D01*
X0400638Y0093610D01*
X0400548Y0093574D01*
X0400456Y0093542D01*
X0400363Y0093513D01*
X0400270Y0093489D01*
X0400175Y0093468D01*
X0400079Y0093451D01*
X0399983Y0093438D01*
X0399887Y0093429D01*
X0399790Y0093424D01*
X0399693Y0093423D01*
X0399596Y0093426D01*
X0399499Y0093433D01*
X0399403Y0093444D01*
X0399307Y0093459D01*
X0399212Y0093478D01*
X0399117Y0093500D01*
X0399024Y0093527D01*
X0398932Y0093557D01*
X0398841Y0093591D01*
X0398752Y0093629D01*
X0398664Y0093671D01*
X0398578Y0093716D01*
X0398494Y0093764D01*
X0398412Y0093816D01*
X0398333Y0093871D01*
X0398255Y0093930D01*
X0398180Y0093991D01*
X0398108Y0094056D01*
X0398038Y0094123D01*
X0397971Y0094194D01*
X0397908Y0094267D01*
X0397847Y0094342D01*
X0397789Y0094420D01*
X0397735Y0094501D01*
X0397684Y0094583D01*
X0397636Y0094668D01*
X0397592Y0094754D01*
X0397551Y0094842D01*
X0397515Y0094932D01*
X0397481Y0095023D01*
X0397452Y0095115D01*
X0397426Y0095209D01*
X0397405Y0095303D01*
X0397387Y0095399D01*
X0397373Y0095495D01*
X0397363Y0095591D01*
X0397357Y0095688D01*
X0397355Y0095785D01*
X0417040Y0076100D02*
X0417042Y0076197D01*
X0417048Y0076294D01*
X0417058Y0076390D01*
X0417072Y0076486D01*
X0417090Y0076582D01*
X0417111Y0076676D01*
X0417137Y0076770D01*
X0417166Y0076862D01*
X0417200Y0076953D01*
X0417236Y0077043D01*
X0417277Y0077131D01*
X0417321Y0077217D01*
X0417369Y0077302D01*
X0417420Y0077384D01*
X0417474Y0077465D01*
X0417532Y0077543D01*
X0417593Y0077618D01*
X0417656Y0077691D01*
X0417723Y0077762D01*
X0417793Y0077829D01*
X0417865Y0077894D01*
X0417940Y0077955D01*
X0418018Y0078014D01*
X0418097Y0078069D01*
X0418179Y0078121D01*
X0418263Y0078169D01*
X0418349Y0078214D01*
X0418437Y0078256D01*
X0418526Y0078294D01*
X0418617Y0078328D01*
X0418709Y0078358D01*
X0418802Y0078385D01*
X0418897Y0078407D01*
X0418992Y0078426D01*
X0419088Y0078441D01*
X0419184Y0078452D01*
X0419281Y0078459D01*
X0419378Y0078462D01*
X0419475Y0078461D01*
X0419572Y0078456D01*
X0419668Y0078447D01*
X0419764Y0078434D01*
X0419860Y0078417D01*
X0419955Y0078396D01*
X0420048Y0078372D01*
X0420141Y0078343D01*
X0420233Y0078311D01*
X0420323Y0078275D01*
X0420411Y0078236D01*
X0420498Y0078192D01*
X0420583Y0078146D01*
X0420666Y0078095D01*
X0420747Y0078042D01*
X0420825Y0077985D01*
X0420902Y0077925D01*
X0420975Y0077862D01*
X0421046Y0077796D01*
X0421114Y0077727D01*
X0421180Y0077655D01*
X0421242Y0077581D01*
X0421301Y0077504D01*
X0421357Y0077425D01*
X0421410Y0077343D01*
X0421460Y0077260D01*
X0421505Y0077174D01*
X0421548Y0077087D01*
X0421587Y0076998D01*
X0421622Y0076908D01*
X0421653Y0076816D01*
X0421680Y0076723D01*
X0421704Y0076629D01*
X0421724Y0076534D01*
X0421740Y0076438D01*
X0421752Y0076342D01*
X0421760Y0076245D01*
X0421764Y0076148D01*
X0421764Y0076052D01*
X0421760Y0075955D01*
X0421752Y0075858D01*
X0421740Y0075762D01*
X0421724Y0075666D01*
X0421704Y0075571D01*
X0421680Y0075477D01*
X0421653Y0075384D01*
X0421622Y0075292D01*
X0421587Y0075202D01*
X0421548Y0075113D01*
X0421505Y0075026D01*
X0421460Y0074940D01*
X0421410Y0074857D01*
X0421357Y0074775D01*
X0421301Y0074696D01*
X0421242Y0074619D01*
X0421180Y0074545D01*
X0421114Y0074473D01*
X0421046Y0074404D01*
X0420975Y0074338D01*
X0420902Y0074275D01*
X0420825Y0074215D01*
X0420747Y0074158D01*
X0420666Y0074105D01*
X0420583Y0074054D01*
X0420498Y0074008D01*
X0420411Y0073964D01*
X0420323Y0073925D01*
X0420233Y0073889D01*
X0420141Y0073857D01*
X0420048Y0073828D01*
X0419955Y0073804D01*
X0419860Y0073783D01*
X0419764Y0073766D01*
X0419668Y0073753D01*
X0419572Y0073744D01*
X0419475Y0073739D01*
X0419378Y0073738D01*
X0419281Y0073741D01*
X0419184Y0073748D01*
X0419088Y0073759D01*
X0418992Y0073774D01*
X0418897Y0073793D01*
X0418802Y0073815D01*
X0418709Y0073842D01*
X0418617Y0073872D01*
X0418526Y0073906D01*
X0418437Y0073944D01*
X0418349Y0073986D01*
X0418263Y0074031D01*
X0418179Y0074079D01*
X0418097Y0074131D01*
X0418018Y0074186D01*
X0417940Y0074245D01*
X0417865Y0074306D01*
X0417793Y0074371D01*
X0417723Y0074438D01*
X0417656Y0074509D01*
X0417593Y0074582D01*
X0417532Y0074657D01*
X0417474Y0074735D01*
X0417420Y0074816D01*
X0417369Y0074898D01*
X0417321Y0074983D01*
X0417277Y0075069D01*
X0417236Y0075157D01*
X0417200Y0075247D01*
X0417166Y0075338D01*
X0417137Y0075430D01*
X0417111Y0075524D01*
X0417090Y0075618D01*
X0417072Y0075714D01*
X0417058Y0075810D01*
X0417048Y0075906D01*
X0417042Y0076003D01*
X0417040Y0076100D01*
X0417040Y0066257D02*
X0417042Y0066354D01*
X0417048Y0066451D01*
X0417058Y0066547D01*
X0417072Y0066643D01*
X0417090Y0066739D01*
X0417111Y0066833D01*
X0417137Y0066927D01*
X0417166Y0067019D01*
X0417200Y0067110D01*
X0417236Y0067200D01*
X0417277Y0067288D01*
X0417321Y0067374D01*
X0417369Y0067459D01*
X0417420Y0067541D01*
X0417474Y0067622D01*
X0417532Y0067700D01*
X0417593Y0067775D01*
X0417656Y0067848D01*
X0417723Y0067919D01*
X0417793Y0067986D01*
X0417865Y0068051D01*
X0417940Y0068112D01*
X0418018Y0068171D01*
X0418097Y0068226D01*
X0418179Y0068278D01*
X0418263Y0068326D01*
X0418349Y0068371D01*
X0418437Y0068413D01*
X0418526Y0068451D01*
X0418617Y0068485D01*
X0418709Y0068515D01*
X0418802Y0068542D01*
X0418897Y0068564D01*
X0418992Y0068583D01*
X0419088Y0068598D01*
X0419184Y0068609D01*
X0419281Y0068616D01*
X0419378Y0068619D01*
X0419475Y0068618D01*
X0419572Y0068613D01*
X0419668Y0068604D01*
X0419764Y0068591D01*
X0419860Y0068574D01*
X0419955Y0068553D01*
X0420048Y0068529D01*
X0420141Y0068500D01*
X0420233Y0068468D01*
X0420323Y0068432D01*
X0420411Y0068393D01*
X0420498Y0068349D01*
X0420583Y0068303D01*
X0420666Y0068252D01*
X0420747Y0068199D01*
X0420825Y0068142D01*
X0420902Y0068082D01*
X0420975Y0068019D01*
X0421046Y0067953D01*
X0421114Y0067884D01*
X0421180Y0067812D01*
X0421242Y0067738D01*
X0421301Y0067661D01*
X0421357Y0067582D01*
X0421410Y0067500D01*
X0421460Y0067417D01*
X0421505Y0067331D01*
X0421548Y0067244D01*
X0421587Y0067155D01*
X0421622Y0067065D01*
X0421653Y0066973D01*
X0421680Y0066880D01*
X0421704Y0066786D01*
X0421724Y0066691D01*
X0421740Y0066595D01*
X0421752Y0066499D01*
X0421760Y0066402D01*
X0421764Y0066305D01*
X0421764Y0066209D01*
X0421760Y0066112D01*
X0421752Y0066015D01*
X0421740Y0065919D01*
X0421724Y0065823D01*
X0421704Y0065728D01*
X0421680Y0065634D01*
X0421653Y0065541D01*
X0421622Y0065449D01*
X0421587Y0065359D01*
X0421548Y0065270D01*
X0421505Y0065183D01*
X0421460Y0065097D01*
X0421410Y0065014D01*
X0421357Y0064932D01*
X0421301Y0064853D01*
X0421242Y0064776D01*
X0421180Y0064702D01*
X0421114Y0064630D01*
X0421046Y0064561D01*
X0420975Y0064495D01*
X0420902Y0064432D01*
X0420825Y0064372D01*
X0420747Y0064315D01*
X0420666Y0064262D01*
X0420583Y0064211D01*
X0420498Y0064165D01*
X0420411Y0064121D01*
X0420323Y0064082D01*
X0420233Y0064046D01*
X0420141Y0064014D01*
X0420048Y0063985D01*
X0419955Y0063961D01*
X0419860Y0063940D01*
X0419764Y0063923D01*
X0419668Y0063910D01*
X0419572Y0063901D01*
X0419475Y0063896D01*
X0419378Y0063895D01*
X0419281Y0063898D01*
X0419184Y0063905D01*
X0419088Y0063916D01*
X0418992Y0063931D01*
X0418897Y0063950D01*
X0418802Y0063972D01*
X0418709Y0063999D01*
X0418617Y0064029D01*
X0418526Y0064063D01*
X0418437Y0064101D01*
X0418349Y0064143D01*
X0418263Y0064188D01*
X0418179Y0064236D01*
X0418097Y0064288D01*
X0418018Y0064343D01*
X0417940Y0064402D01*
X0417865Y0064463D01*
X0417793Y0064528D01*
X0417723Y0064595D01*
X0417656Y0064666D01*
X0417593Y0064739D01*
X0417532Y0064814D01*
X0417474Y0064892D01*
X0417420Y0064973D01*
X0417369Y0065055D01*
X0417321Y0065140D01*
X0417277Y0065226D01*
X0417236Y0065314D01*
X0417200Y0065404D01*
X0417166Y0065495D01*
X0417137Y0065587D01*
X0417111Y0065681D01*
X0417090Y0065775D01*
X0417072Y0065871D01*
X0417058Y0065967D01*
X0417048Y0066063D01*
X0417042Y0066160D01*
X0417040Y0066257D01*
X0545321Y0076800D02*
X0545323Y0076961D01*
X0545329Y0077121D01*
X0545339Y0077282D01*
X0545353Y0077442D01*
X0545371Y0077601D01*
X0545392Y0077761D01*
X0545418Y0077919D01*
X0545448Y0078077D01*
X0545481Y0078234D01*
X0545519Y0078391D01*
X0545560Y0078546D01*
X0545605Y0078700D01*
X0545654Y0078853D01*
X0545707Y0079005D01*
X0545763Y0079155D01*
X0545823Y0079304D01*
X0545887Y0079452D01*
X0545954Y0079598D01*
X0546025Y0079742D01*
X0546100Y0079884D01*
X0546178Y0080025D01*
X0546259Y0080163D01*
X0546344Y0080300D01*
X0546433Y0080434D01*
X0546524Y0080566D01*
X0546619Y0080696D01*
X0546717Y0080823D01*
X0546818Y0080948D01*
X0546922Y0081071D01*
X0547029Y0081190D01*
X0547139Y0081307D01*
X0547252Y0081422D01*
X0547368Y0081533D01*
X0547486Y0081642D01*
X0547607Y0081747D01*
X0547731Y0081850D01*
X0547857Y0081950D01*
X0547986Y0082046D01*
X0548117Y0082139D01*
X0548250Y0082229D01*
X0548385Y0082316D01*
X0548523Y0082399D01*
X0548662Y0082478D01*
X0548804Y0082555D01*
X0548947Y0082628D01*
X0549092Y0082697D01*
X0549239Y0082762D01*
X0549387Y0082824D01*
X0549537Y0082883D01*
X0549688Y0082937D01*
X0549840Y0082988D01*
X0549994Y0083035D01*
X0550149Y0083078D01*
X0550304Y0083117D01*
X0550461Y0083153D01*
X0550619Y0083185D01*
X0550777Y0083212D01*
X0550936Y0083236D01*
X0551095Y0083256D01*
X0551255Y0083272D01*
X0551416Y0083284D01*
X0551576Y0083292D01*
X0551737Y0083296D01*
X0551897Y0083296D01*
X0552058Y0083292D01*
X0552218Y0083284D01*
X0552379Y0083272D01*
X0552539Y0083256D01*
X0552698Y0083236D01*
X0552857Y0083212D01*
X0553015Y0083185D01*
X0553173Y0083153D01*
X0553330Y0083117D01*
X0553485Y0083078D01*
X0553640Y0083035D01*
X0553794Y0082988D01*
X0553946Y0082937D01*
X0554097Y0082883D01*
X0554247Y0082824D01*
X0554395Y0082762D01*
X0554542Y0082697D01*
X0554687Y0082628D01*
X0554830Y0082555D01*
X0554972Y0082478D01*
X0555111Y0082399D01*
X0555249Y0082316D01*
X0555384Y0082229D01*
X0555517Y0082139D01*
X0555648Y0082046D01*
X0555777Y0081950D01*
X0555903Y0081850D01*
X0556027Y0081747D01*
X0556148Y0081642D01*
X0556266Y0081533D01*
X0556382Y0081422D01*
X0556495Y0081307D01*
X0556605Y0081190D01*
X0556712Y0081071D01*
X0556816Y0080948D01*
X0556917Y0080823D01*
X0557015Y0080696D01*
X0557110Y0080566D01*
X0557201Y0080434D01*
X0557290Y0080300D01*
X0557375Y0080163D01*
X0557456Y0080025D01*
X0557534Y0079884D01*
X0557609Y0079742D01*
X0557680Y0079598D01*
X0557747Y0079452D01*
X0557811Y0079304D01*
X0557871Y0079155D01*
X0557927Y0079005D01*
X0557980Y0078853D01*
X0558029Y0078700D01*
X0558074Y0078546D01*
X0558115Y0078391D01*
X0558153Y0078234D01*
X0558186Y0078077D01*
X0558216Y0077919D01*
X0558242Y0077761D01*
X0558263Y0077601D01*
X0558281Y0077442D01*
X0558295Y0077282D01*
X0558305Y0077121D01*
X0558311Y0076961D01*
X0558313Y0076800D01*
X0558311Y0076639D01*
X0558305Y0076479D01*
X0558295Y0076318D01*
X0558281Y0076158D01*
X0558263Y0075999D01*
X0558242Y0075839D01*
X0558216Y0075681D01*
X0558186Y0075523D01*
X0558153Y0075366D01*
X0558115Y0075209D01*
X0558074Y0075054D01*
X0558029Y0074900D01*
X0557980Y0074747D01*
X0557927Y0074595D01*
X0557871Y0074445D01*
X0557811Y0074296D01*
X0557747Y0074148D01*
X0557680Y0074002D01*
X0557609Y0073858D01*
X0557534Y0073716D01*
X0557456Y0073575D01*
X0557375Y0073437D01*
X0557290Y0073300D01*
X0557201Y0073166D01*
X0557110Y0073034D01*
X0557015Y0072904D01*
X0556917Y0072777D01*
X0556816Y0072652D01*
X0556712Y0072529D01*
X0556605Y0072410D01*
X0556495Y0072293D01*
X0556382Y0072178D01*
X0556266Y0072067D01*
X0556148Y0071958D01*
X0556027Y0071853D01*
X0555903Y0071750D01*
X0555777Y0071650D01*
X0555648Y0071554D01*
X0555517Y0071461D01*
X0555384Y0071371D01*
X0555249Y0071284D01*
X0555111Y0071201D01*
X0554972Y0071122D01*
X0554830Y0071045D01*
X0554687Y0070972D01*
X0554542Y0070903D01*
X0554395Y0070838D01*
X0554247Y0070776D01*
X0554097Y0070717D01*
X0553946Y0070663D01*
X0553794Y0070612D01*
X0553640Y0070565D01*
X0553485Y0070522D01*
X0553330Y0070483D01*
X0553173Y0070447D01*
X0553015Y0070415D01*
X0552857Y0070388D01*
X0552698Y0070364D01*
X0552539Y0070344D01*
X0552379Y0070328D01*
X0552218Y0070316D01*
X0552058Y0070308D01*
X0551897Y0070304D01*
X0551737Y0070304D01*
X0551576Y0070308D01*
X0551416Y0070316D01*
X0551255Y0070328D01*
X0551095Y0070344D01*
X0550936Y0070364D01*
X0550777Y0070388D01*
X0550619Y0070415D01*
X0550461Y0070447D01*
X0550304Y0070483D01*
X0550149Y0070522D01*
X0549994Y0070565D01*
X0549840Y0070612D01*
X0549688Y0070663D01*
X0549537Y0070717D01*
X0549387Y0070776D01*
X0549239Y0070838D01*
X0549092Y0070903D01*
X0548947Y0070972D01*
X0548804Y0071045D01*
X0548662Y0071122D01*
X0548523Y0071201D01*
X0548385Y0071284D01*
X0548250Y0071371D01*
X0548117Y0071461D01*
X0547986Y0071554D01*
X0547857Y0071650D01*
X0547731Y0071750D01*
X0547607Y0071853D01*
X0547486Y0071958D01*
X0547368Y0072067D01*
X0547252Y0072178D01*
X0547139Y0072293D01*
X0547029Y0072410D01*
X0546922Y0072529D01*
X0546818Y0072652D01*
X0546717Y0072777D01*
X0546619Y0072904D01*
X0546524Y0073034D01*
X0546433Y0073166D01*
X0546344Y0073300D01*
X0546259Y0073437D01*
X0546178Y0073575D01*
X0546100Y0073716D01*
X0546025Y0073858D01*
X0545954Y0074002D01*
X0545887Y0074148D01*
X0545823Y0074296D01*
X0545763Y0074445D01*
X0545707Y0074595D01*
X0545654Y0074747D01*
X0545605Y0074900D01*
X0545560Y0075054D01*
X0545519Y0075209D01*
X0545481Y0075366D01*
X0545448Y0075523D01*
X0545418Y0075681D01*
X0545392Y0075839D01*
X0545371Y0075999D01*
X0545353Y0076158D01*
X0545339Y0076318D01*
X0545329Y0076479D01*
X0545323Y0076639D01*
X0545321Y0076800D01*
X0544652Y0106800D02*
X0544654Y0106893D01*
X0544660Y0106985D01*
X0544670Y0107077D01*
X0544684Y0107168D01*
X0544701Y0107259D01*
X0544723Y0107349D01*
X0544748Y0107438D01*
X0544777Y0107526D01*
X0544810Y0107612D01*
X0544847Y0107697D01*
X0544887Y0107781D01*
X0544931Y0107862D01*
X0544978Y0107942D01*
X0545028Y0108020D01*
X0545082Y0108095D01*
X0545139Y0108168D01*
X0545199Y0108238D01*
X0545262Y0108306D01*
X0545328Y0108371D01*
X0545396Y0108433D01*
X0545467Y0108493D01*
X0545541Y0108549D01*
X0545617Y0108602D01*
X0545695Y0108651D01*
X0545775Y0108698D01*
X0545857Y0108740D01*
X0545941Y0108780D01*
X0546026Y0108815D01*
X0546113Y0108847D01*
X0546201Y0108876D01*
X0546290Y0108900D01*
X0546380Y0108921D01*
X0546471Y0108937D01*
X0546563Y0108950D01*
X0546655Y0108959D01*
X0546748Y0108964D01*
X0546840Y0108965D01*
X0546933Y0108962D01*
X0547025Y0108955D01*
X0547117Y0108944D01*
X0547208Y0108929D01*
X0547299Y0108911D01*
X0547389Y0108888D01*
X0547477Y0108862D01*
X0547565Y0108832D01*
X0547651Y0108798D01*
X0547735Y0108761D01*
X0547818Y0108719D01*
X0547899Y0108675D01*
X0547979Y0108627D01*
X0548056Y0108576D01*
X0548130Y0108521D01*
X0548203Y0108463D01*
X0548273Y0108403D01*
X0548340Y0108339D01*
X0548404Y0108273D01*
X0548466Y0108203D01*
X0548524Y0108132D01*
X0548579Y0108058D01*
X0548631Y0107981D01*
X0548680Y0107902D01*
X0548726Y0107822D01*
X0548768Y0107739D01*
X0548806Y0107655D01*
X0548841Y0107569D01*
X0548872Y0107482D01*
X0548899Y0107394D01*
X0548922Y0107304D01*
X0548942Y0107214D01*
X0548958Y0107123D01*
X0548970Y0107031D01*
X0548978Y0106939D01*
X0548982Y0106846D01*
X0548982Y0106754D01*
X0548978Y0106661D01*
X0548970Y0106569D01*
X0548958Y0106477D01*
X0548942Y0106386D01*
X0548922Y0106296D01*
X0548899Y0106206D01*
X0548872Y0106118D01*
X0548841Y0106031D01*
X0548806Y0105945D01*
X0548768Y0105861D01*
X0548726Y0105778D01*
X0548680Y0105698D01*
X0548631Y0105619D01*
X0548579Y0105542D01*
X0548524Y0105468D01*
X0548466Y0105397D01*
X0548404Y0105327D01*
X0548340Y0105261D01*
X0548273Y0105197D01*
X0548203Y0105137D01*
X0548130Y0105079D01*
X0548056Y0105024D01*
X0547979Y0104973D01*
X0547900Y0104925D01*
X0547818Y0104881D01*
X0547735Y0104839D01*
X0547651Y0104802D01*
X0547565Y0104768D01*
X0547477Y0104738D01*
X0547389Y0104712D01*
X0547299Y0104689D01*
X0547208Y0104671D01*
X0547117Y0104656D01*
X0547025Y0104645D01*
X0546933Y0104638D01*
X0546840Y0104635D01*
X0546748Y0104636D01*
X0546655Y0104641D01*
X0546563Y0104650D01*
X0546471Y0104663D01*
X0546380Y0104679D01*
X0546290Y0104700D01*
X0546201Y0104724D01*
X0546113Y0104753D01*
X0546026Y0104785D01*
X0545941Y0104820D01*
X0545857Y0104860D01*
X0545775Y0104902D01*
X0545695Y0104949D01*
X0545617Y0104998D01*
X0545541Y0105051D01*
X0545467Y0105107D01*
X0545396Y0105167D01*
X0545328Y0105229D01*
X0545262Y0105294D01*
X0545199Y0105362D01*
X0545139Y0105432D01*
X0545082Y0105505D01*
X0545028Y0105580D01*
X0544978Y0105658D01*
X0544931Y0105738D01*
X0544887Y0105819D01*
X0544847Y0105903D01*
X0544810Y0105988D01*
X0544777Y0106074D01*
X0544748Y0106162D01*
X0544723Y0106251D01*
X0544701Y0106341D01*
X0544684Y0106432D01*
X0544670Y0106523D01*
X0544660Y0106615D01*
X0544654Y0106707D01*
X0544652Y0106800D01*
X0544652Y0146800D02*
X0544654Y0146893D01*
X0544660Y0146985D01*
X0544670Y0147077D01*
X0544684Y0147168D01*
X0544701Y0147259D01*
X0544723Y0147349D01*
X0544748Y0147438D01*
X0544777Y0147526D01*
X0544810Y0147612D01*
X0544847Y0147697D01*
X0544887Y0147781D01*
X0544931Y0147862D01*
X0544978Y0147942D01*
X0545028Y0148020D01*
X0545082Y0148095D01*
X0545139Y0148168D01*
X0545199Y0148238D01*
X0545262Y0148306D01*
X0545328Y0148371D01*
X0545396Y0148433D01*
X0545467Y0148493D01*
X0545541Y0148549D01*
X0545617Y0148602D01*
X0545695Y0148651D01*
X0545775Y0148698D01*
X0545857Y0148740D01*
X0545941Y0148780D01*
X0546026Y0148815D01*
X0546113Y0148847D01*
X0546201Y0148876D01*
X0546290Y0148900D01*
X0546380Y0148921D01*
X0546471Y0148937D01*
X0546563Y0148950D01*
X0546655Y0148959D01*
X0546748Y0148964D01*
X0546840Y0148965D01*
X0546933Y0148962D01*
X0547025Y0148955D01*
X0547117Y0148944D01*
X0547208Y0148929D01*
X0547299Y0148911D01*
X0547389Y0148888D01*
X0547477Y0148862D01*
X0547565Y0148832D01*
X0547651Y0148798D01*
X0547735Y0148761D01*
X0547818Y0148719D01*
X0547899Y0148675D01*
X0547979Y0148627D01*
X0548056Y0148576D01*
X0548130Y0148521D01*
X0548203Y0148463D01*
X0548273Y0148403D01*
X0548340Y0148339D01*
X0548404Y0148273D01*
X0548466Y0148203D01*
X0548524Y0148132D01*
X0548579Y0148058D01*
X0548631Y0147981D01*
X0548680Y0147902D01*
X0548726Y0147822D01*
X0548768Y0147739D01*
X0548806Y0147655D01*
X0548841Y0147569D01*
X0548872Y0147482D01*
X0548899Y0147394D01*
X0548922Y0147304D01*
X0548942Y0147214D01*
X0548958Y0147123D01*
X0548970Y0147031D01*
X0548978Y0146939D01*
X0548982Y0146846D01*
X0548982Y0146754D01*
X0548978Y0146661D01*
X0548970Y0146569D01*
X0548958Y0146477D01*
X0548942Y0146386D01*
X0548922Y0146296D01*
X0548899Y0146206D01*
X0548872Y0146118D01*
X0548841Y0146031D01*
X0548806Y0145945D01*
X0548768Y0145861D01*
X0548726Y0145778D01*
X0548680Y0145698D01*
X0548631Y0145619D01*
X0548579Y0145542D01*
X0548524Y0145468D01*
X0548466Y0145397D01*
X0548404Y0145327D01*
X0548340Y0145261D01*
X0548273Y0145197D01*
X0548203Y0145137D01*
X0548130Y0145079D01*
X0548056Y0145024D01*
X0547979Y0144973D01*
X0547900Y0144925D01*
X0547818Y0144881D01*
X0547735Y0144839D01*
X0547651Y0144802D01*
X0547565Y0144768D01*
X0547477Y0144738D01*
X0547389Y0144712D01*
X0547299Y0144689D01*
X0547208Y0144671D01*
X0547117Y0144656D01*
X0547025Y0144645D01*
X0546933Y0144638D01*
X0546840Y0144635D01*
X0546748Y0144636D01*
X0546655Y0144641D01*
X0546563Y0144650D01*
X0546471Y0144663D01*
X0546380Y0144679D01*
X0546290Y0144700D01*
X0546201Y0144724D01*
X0546113Y0144753D01*
X0546026Y0144785D01*
X0545941Y0144820D01*
X0545857Y0144860D01*
X0545775Y0144902D01*
X0545695Y0144949D01*
X0545617Y0144998D01*
X0545541Y0145051D01*
X0545467Y0145107D01*
X0545396Y0145167D01*
X0545328Y0145229D01*
X0545262Y0145294D01*
X0545199Y0145362D01*
X0545139Y0145432D01*
X0545082Y0145505D01*
X0545028Y0145580D01*
X0544978Y0145658D01*
X0544931Y0145738D01*
X0544887Y0145819D01*
X0544847Y0145903D01*
X0544810Y0145988D01*
X0544777Y0146074D01*
X0544748Y0146162D01*
X0544723Y0146251D01*
X0544701Y0146341D01*
X0544684Y0146432D01*
X0544670Y0146523D01*
X0544660Y0146615D01*
X0544654Y0146707D01*
X0544652Y0146800D01*
X0545321Y0421800D02*
X0545323Y0421961D01*
X0545329Y0422121D01*
X0545339Y0422282D01*
X0545353Y0422442D01*
X0545371Y0422601D01*
X0545392Y0422761D01*
X0545418Y0422919D01*
X0545448Y0423077D01*
X0545481Y0423234D01*
X0545519Y0423391D01*
X0545560Y0423546D01*
X0545605Y0423700D01*
X0545654Y0423853D01*
X0545707Y0424005D01*
X0545763Y0424155D01*
X0545823Y0424304D01*
X0545887Y0424452D01*
X0545954Y0424598D01*
X0546025Y0424742D01*
X0546100Y0424884D01*
X0546178Y0425025D01*
X0546259Y0425163D01*
X0546344Y0425300D01*
X0546433Y0425434D01*
X0546524Y0425566D01*
X0546619Y0425696D01*
X0546717Y0425823D01*
X0546818Y0425948D01*
X0546922Y0426071D01*
X0547029Y0426190D01*
X0547139Y0426307D01*
X0547252Y0426422D01*
X0547368Y0426533D01*
X0547486Y0426642D01*
X0547607Y0426747D01*
X0547731Y0426850D01*
X0547857Y0426950D01*
X0547986Y0427046D01*
X0548117Y0427139D01*
X0548250Y0427229D01*
X0548385Y0427316D01*
X0548523Y0427399D01*
X0548662Y0427478D01*
X0548804Y0427555D01*
X0548947Y0427628D01*
X0549092Y0427697D01*
X0549239Y0427762D01*
X0549387Y0427824D01*
X0549537Y0427883D01*
X0549688Y0427937D01*
X0549840Y0427988D01*
X0549994Y0428035D01*
X0550149Y0428078D01*
X0550304Y0428117D01*
X0550461Y0428153D01*
X0550619Y0428185D01*
X0550777Y0428212D01*
X0550936Y0428236D01*
X0551095Y0428256D01*
X0551255Y0428272D01*
X0551416Y0428284D01*
X0551576Y0428292D01*
X0551737Y0428296D01*
X0551897Y0428296D01*
X0552058Y0428292D01*
X0552218Y0428284D01*
X0552379Y0428272D01*
X0552539Y0428256D01*
X0552698Y0428236D01*
X0552857Y0428212D01*
X0553015Y0428185D01*
X0553173Y0428153D01*
X0553330Y0428117D01*
X0553485Y0428078D01*
X0553640Y0428035D01*
X0553794Y0427988D01*
X0553946Y0427937D01*
X0554097Y0427883D01*
X0554247Y0427824D01*
X0554395Y0427762D01*
X0554542Y0427697D01*
X0554687Y0427628D01*
X0554830Y0427555D01*
X0554972Y0427478D01*
X0555111Y0427399D01*
X0555249Y0427316D01*
X0555384Y0427229D01*
X0555517Y0427139D01*
X0555648Y0427046D01*
X0555777Y0426950D01*
X0555903Y0426850D01*
X0556027Y0426747D01*
X0556148Y0426642D01*
X0556266Y0426533D01*
X0556382Y0426422D01*
X0556495Y0426307D01*
X0556605Y0426190D01*
X0556712Y0426071D01*
X0556816Y0425948D01*
X0556917Y0425823D01*
X0557015Y0425696D01*
X0557110Y0425566D01*
X0557201Y0425434D01*
X0557290Y0425300D01*
X0557375Y0425163D01*
X0557456Y0425025D01*
X0557534Y0424884D01*
X0557609Y0424742D01*
X0557680Y0424598D01*
X0557747Y0424452D01*
X0557811Y0424304D01*
X0557871Y0424155D01*
X0557927Y0424005D01*
X0557980Y0423853D01*
X0558029Y0423700D01*
X0558074Y0423546D01*
X0558115Y0423391D01*
X0558153Y0423234D01*
X0558186Y0423077D01*
X0558216Y0422919D01*
X0558242Y0422761D01*
X0558263Y0422601D01*
X0558281Y0422442D01*
X0558295Y0422282D01*
X0558305Y0422121D01*
X0558311Y0421961D01*
X0558313Y0421800D01*
X0558311Y0421639D01*
X0558305Y0421479D01*
X0558295Y0421318D01*
X0558281Y0421158D01*
X0558263Y0420999D01*
X0558242Y0420839D01*
X0558216Y0420681D01*
X0558186Y0420523D01*
X0558153Y0420366D01*
X0558115Y0420209D01*
X0558074Y0420054D01*
X0558029Y0419900D01*
X0557980Y0419747D01*
X0557927Y0419595D01*
X0557871Y0419445D01*
X0557811Y0419296D01*
X0557747Y0419148D01*
X0557680Y0419002D01*
X0557609Y0418858D01*
X0557534Y0418716D01*
X0557456Y0418575D01*
X0557375Y0418437D01*
X0557290Y0418300D01*
X0557201Y0418166D01*
X0557110Y0418034D01*
X0557015Y0417904D01*
X0556917Y0417777D01*
X0556816Y0417652D01*
X0556712Y0417529D01*
X0556605Y0417410D01*
X0556495Y0417293D01*
X0556382Y0417178D01*
X0556266Y0417067D01*
X0556148Y0416958D01*
X0556027Y0416853D01*
X0555903Y0416750D01*
X0555777Y0416650D01*
X0555648Y0416554D01*
X0555517Y0416461D01*
X0555384Y0416371D01*
X0555249Y0416284D01*
X0555111Y0416201D01*
X0554972Y0416122D01*
X0554830Y0416045D01*
X0554687Y0415972D01*
X0554542Y0415903D01*
X0554395Y0415838D01*
X0554247Y0415776D01*
X0554097Y0415717D01*
X0553946Y0415663D01*
X0553794Y0415612D01*
X0553640Y0415565D01*
X0553485Y0415522D01*
X0553330Y0415483D01*
X0553173Y0415447D01*
X0553015Y0415415D01*
X0552857Y0415388D01*
X0552698Y0415364D01*
X0552539Y0415344D01*
X0552379Y0415328D01*
X0552218Y0415316D01*
X0552058Y0415308D01*
X0551897Y0415304D01*
X0551737Y0415304D01*
X0551576Y0415308D01*
X0551416Y0415316D01*
X0551255Y0415328D01*
X0551095Y0415344D01*
X0550936Y0415364D01*
X0550777Y0415388D01*
X0550619Y0415415D01*
X0550461Y0415447D01*
X0550304Y0415483D01*
X0550149Y0415522D01*
X0549994Y0415565D01*
X0549840Y0415612D01*
X0549688Y0415663D01*
X0549537Y0415717D01*
X0549387Y0415776D01*
X0549239Y0415838D01*
X0549092Y0415903D01*
X0548947Y0415972D01*
X0548804Y0416045D01*
X0548662Y0416122D01*
X0548523Y0416201D01*
X0548385Y0416284D01*
X0548250Y0416371D01*
X0548117Y0416461D01*
X0547986Y0416554D01*
X0547857Y0416650D01*
X0547731Y0416750D01*
X0547607Y0416853D01*
X0547486Y0416958D01*
X0547368Y0417067D01*
X0547252Y0417178D01*
X0547139Y0417293D01*
X0547029Y0417410D01*
X0546922Y0417529D01*
X0546818Y0417652D01*
X0546717Y0417777D01*
X0546619Y0417904D01*
X0546524Y0418034D01*
X0546433Y0418166D01*
X0546344Y0418300D01*
X0546259Y0418437D01*
X0546178Y0418575D01*
X0546100Y0418716D01*
X0546025Y0418858D01*
X0545954Y0419002D01*
X0545887Y0419148D01*
X0545823Y0419296D01*
X0545763Y0419445D01*
X0545707Y0419595D01*
X0545654Y0419747D01*
X0545605Y0419900D01*
X0545560Y0420054D01*
X0545519Y0420209D01*
X0545481Y0420366D01*
X0545448Y0420523D01*
X0545418Y0420681D01*
X0545392Y0420839D01*
X0545371Y0420999D01*
X0545353Y0421158D01*
X0545339Y0421318D01*
X0545329Y0421479D01*
X0545323Y0421639D01*
X0545321Y0421800D01*
X0035321Y0421800D02*
X0035323Y0421961D01*
X0035329Y0422121D01*
X0035339Y0422282D01*
X0035353Y0422442D01*
X0035371Y0422601D01*
X0035392Y0422761D01*
X0035418Y0422919D01*
X0035448Y0423077D01*
X0035481Y0423234D01*
X0035519Y0423391D01*
X0035560Y0423546D01*
X0035605Y0423700D01*
X0035654Y0423853D01*
X0035707Y0424005D01*
X0035763Y0424155D01*
X0035823Y0424304D01*
X0035887Y0424452D01*
X0035954Y0424598D01*
X0036025Y0424742D01*
X0036100Y0424884D01*
X0036178Y0425025D01*
X0036259Y0425163D01*
X0036344Y0425300D01*
X0036433Y0425434D01*
X0036524Y0425566D01*
X0036619Y0425696D01*
X0036717Y0425823D01*
X0036818Y0425948D01*
X0036922Y0426071D01*
X0037029Y0426190D01*
X0037139Y0426307D01*
X0037252Y0426422D01*
X0037368Y0426533D01*
X0037486Y0426642D01*
X0037607Y0426747D01*
X0037731Y0426850D01*
X0037857Y0426950D01*
X0037986Y0427046D01*
X0038117Y0427139D01*
X0038250Y0427229D01*
X0038385Y0427316D01*
X0038523Y0427399D01*
X0038662Y0427478D01*
X0038804Y0427555D01*
X0038947Y0427628D01*
X0039092Y0427697D01*
X0039239Y0427762D01*
X0039387Y0427824D01*
X0039537Y0427883D01*
X0039688Y0427937D01*
X0039840Y0427988D01*
X0039994Y0428035D01*
X0040149Y0428078D01*
X0040304Y0428117D01*
X0040461Y0428153D01*
X0040619Y0428185D01*
X0040777Y0428212D01*
X0040936Y0428236D01*
X0041095Y0428256D01*
X0041255Y0428272D01*
X0041416Y0428284D01*
X0041576Y0428292D01*
X0041737Y0428296D01*
X0041897Y0428296D01*
X0042058Y0428292D01*
X0042218Y0428284D01*
X0042379Y0428272D01*
X0042539Y0428256D01*
X0042698Y0428236D01*
X0042857Y0428212D01*
X0043015Y0428185D01*
X0043173Y0428153D01*
X0043330Y0428117D01*
X0043485Y0428078D01*
X0043640Y0428035D01*
X0043794Y0427988D01*
X0043946Y0427937D01*
X0044097Y0427883D01*
X0044247Y0427824D01*
X0044395Y0427762D01*
X0044542Y0427697D01*
X0044687Y0427628D01*
X0044830Y0427555D01*
X0044972Y0427478D01*
X0045111Y0427399D01*
X0045249Y0427316D01*
X0045384Y0427229D01*
X0045517Y0427139D01*
X0045648Y0427046D01*
X0045777Y0426950D01*
X0045903Y0426850D01*
X0046027Y0426747D01*
X0046148Y0426642D01*
X0046266Y0426533D01*
X0046382Y0426422D01*
X0046495Y0426307D01*
X0046605Y0426190D01*
X0046712Y0426071D01*
X0046816Y0425948D01*
X0046917Y0425823D01*
X0047015Y0425696D01*
X0047110Y0425566D01*
X0047201Y0425434D01*
X0047290Y0425300D01*
X0047375Y0425163D01*
X0047456Y0425025D01*
X0047534Y0424884D01*
X0047609Y0424742D01*
X0047680Y0424598D01*
X0047747Y0424452D01*
X0047811Y0424304D01*
X0047871Y0424155D01*
X0047927Y0424005D01*
X0047980Y0423853D01*
X0048029Y0423700D01*
X0048074Y0423546D01*
X0048115Y0423391D01*
X0048153Y0423234D01*
X0048186Y0423077D01*
X0048216Y0422919D01*
X0048242Y0422761D01*
X0048263Y0422601D01*
X0048281Y0422442D01*
X0048295Y0422282D01*
X0048305Y0422121D01*
X0048311Y0421961D01*
X0048313Y0421800D01*
X0048311Y0421639D01*
X0048305Y0421479D01*
X0048295Y0421318D01*
X0048281Y0421158D01*
X0048263Y0420999D01*
X0048242Y0420839D01*
X0048216Y0420681D01*
X0048186Y0420523D01*
X0048153Y0420366D01*
X0048115Y0420209D01*
X0048074Y0420054D01*
X0048029Y0419900D01*
X0047980Y0419747D01*
X0047927Y0419595D01*
X0047871Y0419445D01*
X0047811Y0419296D01*
X0047747Y0419148D01*
X0047680Y0419002D01*
X0047609Y0418858D01*
X0047534Y0418716D01*
X0047456Y0418575D01*
X0047375Y0418437D01*
X0047290Y0418300D01*
X0047201Y0418166D01*
X0047110Y0418034D01*
X0047015Y0417904D01*
X0046917Y0417777D01*
X0046816Y0417652D01*
X0046712Y0417529D01*
X0046605Y0417410D01*
X0046495Y0417293D01*
X0046382Y0417178D01*
X0046266Y0417067D01*
X0046148Y0416958D01*
X0046027Y0416853D01*
X0045903Y0416750D01*
X0045777Y0416650D01*
X0045648Y0416554D01*
X0045517Y0416461D01*
X0045384Y0416371D01*
X0045249Y0416284D01*
X0045111Y0416201D01*
X0044972Y0416122D01*
X0044830Y0416045D01*
X0044687Y0415972D01*
X0044542Y0415903D01*
X0044395Y0415838D01*
X0044247Y0415776D01*
X0044097Y0415717D01*
X0043946Y0415663D01*
X0043794Y0415612D01*
X0043640Y0415565D01*
X0043485Y0415522D01*
X0043330Y0415483D01*
X0043173Y0415447D01*
X0043015Y0415415D01*
X0042857Y0415388D01*
X0042698Y0415364D01*
X0042539Y0415344D01*
X0042379Y0415328D01*
X0042218Y0415316D01*
X0042058Y0415308D01*
X0041897Y0415304D01*
X0041737Y0415304D01*
X0041576Y0415308D01*
X0041416Y0415316D01*
X0041255Y0415328D01*
X0041095Y0415344D01*
X0040936Y0415364D01*
X0040777Y0415388D01*
X0040619Y0415415D01*
X0040461Y0415447D01*
X0040304Y0415483D01*
X0040149Y0415522D01*
X0039994Y0415565D01*
X0039840Y0415612D01*
X0039688Y0415663D01*
X0039537Y0415717D01*
X0039387Y0415776D01*
X0039239Y0415838D01*
X0039092Y0415903D01*
X0038947Y0415972D01*
X0038804Y0416045D01*
X0038662Y0416122D01*
X0038523Y0416201D01*
X0038385Y0416284D01*
X0038250Y0416371D01*
X0038117Y0416461D01*
X0037986Y0416554D01*
X0037857Y0416650D01*
X0037731Y0416750D01*
X0037607Y0416853D01*
X0037486Y0416958D01*
X0037368Y0417067D01*
X0037252Y0417178D01*
X0037139Y0417293D01*
X0037029Y0417410D01*
X0036922Y0417529D01*
X0036818Y0417652D01*
X0036717Y0417777D01*
X0036619Y0417904D01*
X0036524Y0418034D01*
X0036433Y0418166D01*
X0036344Y0418300D01*
X0036259Y0418437D01*
X0036178Y0418575D01*
X0036100Y0418716D01*
X0036025Y0418858D01*
X0035954Y0419002D01*
X0035887Y0419148D01*
X0035823Y0419296D01*
X0035763Y0419445D01*
X0035707Y0419595D01*
X0035654Y0419747D01*
X0035605Y0419900D01*
X0035560Y0420054D01*
X0035519Y0420209D01*
X0035481Y0420366D01*
X0035448Y0420523D01*
X0035418Y0420681D01*
X0035392Y0420839D01*
X0035371Y0420999D01*
X0035353Y0421158D01*
X0035339Y0421318D01*
X0035329Y0421479D01*
X0035323Y0421639D01*
X0035321Y0421800D01*
D11*
X0543292Y0211643D02*
X0550342Y0211643D01*
X0550342Y0191957D02*
X0543292Y0191957D01*
D12*
X0459062Y0126648D03*
X0459062Y0115625D03*
X0433675Y0117310D03*
X0433675Y0106287D03*
X0404317Y0206788D03*
X0404317Y0217812D03*
X0391817Y0230288D03*
X0391817Y0241312D03*
X0340317Y0310288D03*
X0340317Y0321312D03*
X0396317Y0354288D03*
X0396317Y0365312D03*
X0374317Y0393788D03*
X0374317Y0404812D03*
X0344317Y0403312D03*
X0344317Y0392288D03*
X0275817Y0382312D03*
X0266817Y0382312D03*
X0255817Y0382312D03*
X0245817Y0382312D03*
X0245817Y0371288D03*
X0255817Y0371288D03*
X0266817Y0371288D03*
X0275817Y0371288D03*
X0120894Y0267595D03*
X0120894Y0256571D03*
D13*
X0127013Y0321743D03*
X0138036Y0321743D03*
X0357806Y0325300D03*
X0368829Y0325300D03*
X0380806Y0325300D03*
X0391829Y0325300D03*
X0386829Y0336800D03*
X0375806Y0336800D03*
X0436094Y0142038D03*
X0447117Y0142038D03*
X0445413Y0128791D03*
X0434389Y0128791D03*
X0474806Y0068800D03*
X0485829Y0068800D03*
X0497306Y0068800D03*
X0508329Y0068800D03*
D14*
X0495817Y0261300D03*
X0540317Y0261800D03*
X0460817Y0371300D03*
D15*
X0460817Y0351300D03*
X0515817Y0261300D03*
X0560317Y0261800D03*
D16*
X0511817Y0126800D03*
X0497317Y0104800D03*
X0487317Y0104800D03*
X0477317Y0104800D03*
X0471817Y0126800D03*
D17*
X0476817Y0163800D02*
X0476817Y0169800D01*
X0486817Y0169800D02*
X0486817Y0163800D01*
X0496817Y0163800D02*
X0496817Y0169800D01*
X0496817Y0203800D02*
X0496817Y0209800D01*
X0486817Y0209800D02*
X0486817Y0203800D01*
X0476817Y0203800D02*
X0476817Y0209800D01*
X0374372Y0240969D02*
X0368372Y0240969D01*
X0368372Y0258769D02*
X0374372Y0258769D01*
X0348772Y0258769D02*
X0342772Y0258769D01*
X0342772Y0240969D02*
X0348772Y0240969D01*
D18*
X0502817Y0330300D03*
X0502817Y0340300D03*
X0512817Y0340300D03*
X0522817Y0340300D03*
X0522817Y0330300D03*
X0512817Y0330300D03*
X0532817Y0330300D03*
X0532817Y0340300D03*
X0542817Y0340300D03*
X0542817Y0330300D03*
X0552817Y0330300D03*
X0552817Y0340300D03*
X0552317Y0357800D03*
X0542317Y0357800D03*
X0532317Y0357800D03*
X0522317Y0357800D03*
X0512317Y0357800D03*
X0502317Y0357800D03*
X0502317Y0367800D03*
X0512317Y0367800D03*
X0522317Y0367800D03*
X0532317Y0367800D03*
X0542317Y0367800D03*
X0552317Y0367800D03*
D19*
X0364916Y0405800D03*
X0353719Y0405800D03*
X0275916Y0360300D03*
X0264719Y0360300D03*
X0254916Y0360300D03*
X0243719Y0360300D03*
X0095616Y0146450D03*
X0084419Y0146450D03*
X0441569Y0086950D03*
X0452766Y0086950D03*
X0451219Y0069100D03*
X0462416Y0069100D03*
D20*
X0312399Y0161014D03*
X0312399Y0172211D03*
X0301167Y0192668D03*
X0301167Y0203865D03*
X0300697Y0213188D03*
X0300697Y0224385D03*
X0271317Y0205898D03*
X0271317Y0194702D03*
X0258817Y0194702D03*
X0258817Y0205898D03*
X0245817Y0205898D03*
X0245817Y0194702D03*
X0209817Y0195202D03*
X0209817Y0206398D03*
X0191317Y0206898D03*
X0191317Y0195702D03*
X0127817Y0193898D03*
X0127817Y0182702D03*
X0141317Y0126398D03*
X0141317Y0115202D03*
X0024817Y0227702D03*
X0024817Y0238898D03*
X0391817Y0265702D03*
X0391817Y0276898D03*
X0403817Y0260398D03*
X0403817Y0249202D03*
X0411267Y0354602D03*
X0411267Y0365798D03*
X0563317Y0292398D03*
X0563317Y0281202D03*
D21*
X0066817Y0166800D03*
X0066817Y0146800D03*
X0066817Y0126800D03*
X0036817Y0126800D03*
X0036817Y0146800D03*
X0036817Y0166800D03*
D22*
X0066817Y0176800D03*
X0036817Y0116800D03*
X0546817Y0106800D03*
X0546817Y0146800D03*
D23*
X0529474Y0146800D02*
X0524160Y0146800D01*
X0524160Y0126800D02*
X0529474Y0126800D01*
X0529474Y0106800D02*
X0524160Y0106800D01*
X0564160Y0106800D02*
X0569474Y0106800D01*
X0569474Y0126800D02*
X0564160Y0126800D01*
X0564160Y0146800D02*
X0569474Y0146800D01*
D24*
X0161817Y0099200D02*
X0161817Y0094400D01*
X0151817Y0094400D02*
X0151817Y0099200D01*
X0141817Y0099200D02*
X0141817Y0094400D01*
D25*
X0141817Y0076800D03*
X0161817Y0076800D03*
D26*
X0095888Y0257316D03*
X0091164Y0257316D03*
X0086439Y0257316D03*
X0081715Y0257316D03*
X0076991Y0257316D03*
X0072266Y0257316D03*
X0067542Y0257316D03*
X0062817Y0257316D03*
X0058093Y0257316D03*
X0053369Y0257316D03*
X0048644Y0257316D03*
X0043920Y0257316D03*
X0039195Y0257316D03*
X0034471Y0257316D03*
X0029746Y0257316D03*
X0025022Y0257316D03*
X0020298Y0257316D03*
X0020298Y0309284D03*
X0025022Y0309284D03*
X0029746Y0309284D03*
X0034471Y0309284D03*
X0039195Y0309284D03*
X0043920Y0309284D03*
X0048644Y0309284D03*
X0053369Y0309284D03*
X0058093Y0309284D03*
X0062817Y0309284D03*
X0067542Y0309284D03*
X0072266Y0309284D03*
X0076991Y0309284D03*
X0081715Y0309284D03*
X0086439Y0309284D03*
X0091164Y0309284D03*
X0095888Y0309284D03*
D27*
X0102935Y0306528D03*
X0102975Y0299835D03*
X0102975Y0295111D03*
X0102975Y0290387D03*
X0102975Y0285662D03*
X0102975Y0280938D03*
X0102975Y0276213D03*
X0102975Y0271489D03*
X0102975Y0266765D03*
X0102975Y0260072D03*
D28*
X0023522Y0269989D02*
X0021010Y0269989D01*
X0023522Y0269989D02*
X0023522Y0269051D01*
X0021010Y0269051D01*
X0021010Y0269989D01*
X0021010Y0275501D02*
X0023522Y0275501D01*
X0023522Y0274563D01*
X0021010Y0274563D01*
X0021010Y0275501D01*
X0021010Y0281013D02*
X0023522Y0281013D01*
X0023522Y0280075D01*
X0021010Y0280075D01*
X0021010Y0281013D01*
X0021010Y0286525D02*
X0023522Y0286525D01*
X0023522Y0285587D01*
X0021010Y0285587D01*
X0021010Y0286525D01*
X0021010Y0292037D02*
X0023522Y0292037D01*
X0023522Y0291099D01*
X0021010Y0291099D01*
X0021010Y0292037D01*
X0021010Y0297549D02*
X0023522Y0297549D01*
X0023522Y0296611D01*
X0021010Y0296611D01*
X0021010Y0297549D01*
D29*
X0095317Y0407300D03*
X0111817Y0426800D03*
X0153317Y0406800D03*
X0168317Y0426800D03*
D30*
X0173380Y0344119D03*
X0175349Y0344119D03*
X0177317Y0344119D03*
X0179286Y0344119D03*
X0181254Y0344119D03*
X0181254Y0327481D03*
X0179286Y0327481D03*
X0177317Y0327481D03*
X0175349Y0327481D03*
X0173380Y0327481D03*
D31*
X0249635Y0329189D03*
X0251603Y0329189D03*
X0253572Y0329189D03*
X0255540Y0329189D03*
X0257509Y0329189D03*
X0259477Y0329189D03*
X0261446Y0329189D03*
X0263414Y0329189D03*
X0265383Y0329189D03*
X0267351Y0329189D03*
X0269320Y0329189D03*
X0271288Y0329189D03*
X0273257Y0329189D03*
X0275225Y0329189D03*
X0277194Y0329189D03*
X0279162Y0329189D03*
X0281131Y0329189D03*
X0283099Y0329189D03*
X0285068Y0329189D03*
X0287036Y0329189D03*
X0289005Y0329189D03*
X0290973Y0329189D03*
X0292942Y0329189D03*
X0294910Y0329189D03*
X0296879Y0329189D03*
X0296879Y0269189D03*
X0294910Y0269189D03*
X0292942Y0269189D03*
X0290973Y0269189D03*
X0289005Y0269189D03*
X0287036Y0269189D03*
X0285068Y0269189D03*
X0283099Y0269189D03*
X0281131Y0269189D03*
X0279162Y0269189D03*
X0277194Y0269189D03*
X0275225Y0269189D03*
X0273257Y0269189D03*
X0271288Y0269189D03*
X0269320Y0269189D03*
X0267351Y0269189D03*
X0265383Y0269189D03*
X0263414Y0269189D03*
X0261446Y0269189D03*
X0259477Y0269189D03*
X0257509Y0269189D03*
X0255540Y0269189D03*
X0253572Y0269189D03*
X0251603Y0269189D03*
X0249635Y0269189D03*
D32*
X0243257Y0275567D03*
X0243257Y0277536D03*
X0243257Y0279504D03*
X0243257Y0281473D03*
X0243257Y0283441D03*
X0243257Y0285410D03*
X0243257Y0287378D03*
X0243257Y0289347D03*
X0243257Y0291315D03*
X0243257Y0293284D03*
X0243257Y0295252D03*
X0243257Y0297221D03*
X0243257Y0299189D03*
X0243257Y0301158D03*
X0243257Y0303126D03*
X0243257Y0305095D03*
X0243257Y0307063D03*
X0243257Y0309032D03*
X0243257Y0311000D03*
X0243257Y0312969D03*
X0243257Y0314937D03*
X0243257Y0316906D03*
X0243257Y0318874D03*
X0243257Y0320843D03*
X0243257Y0322811D03*
X0303257Y0322811D03*
X0303257Y0320843D03*
X0303257Y0318874D03*
X0303257Y0316906D03*
X0303257Y0314937D03*
X0303257Y0312969D03*
X0303257Y0311000D03*
X0303257Y0309032D03*
X0303257Y0307063D03*
X0303257Y0305095D03*
X0303257Y0303126D03*
X0303257Y0301158D03*
X0303257Y0299189D03*
X0303257Y0297221D03*
X0303257Y0295252D03*
X0303257Y0293284D03*
X0303257Y0291315D03*
X0303257Y0289347D03*
X0303257Y0287378D03*
X0303257Y0285410D03*
X0303257Y0283441D03*
X0303257Y0281473D03*
X0303257Y0279504D03*
X0303257Y0277536D03*
X0303257Y0275567D03*
D33*
X0278313Y0184737D03*
X0268471Y0184737D03*
X0258628Y0184737D03*
X0251739Y0184737D03*
X0245833Y0184737D03*
X0238943Y0184737D03*
X0229101Y0184737D03*
X0219258Y0184737D03*
X0209731Y0184737D03*
X0203038Y0184737D03*
D34*
X0298888Y0102060D03*
D35*
X0188317Y0097532D03*
D36*
X0190636Y0184737D03*
D37*
X0193313Y0089068D03*
X0288825Y0089068D03*
D38*
X0340388Y0350973D03*
X0340388Y0352942D03*
X0340388Y0354910D03*
X0340388Y0356879D03*
X0340388Y0358847D03*
X0340388Y0360816D03*
X0340388Y0362784D03*
X0340388Y0364753D03*
X0340388Y0366721D03*
X0340388Y0368690D03*
X0340388Y0370658D03*
X0340388Y0372627D03*
X0374246Y0372627D03*
X0374246Y0370658D03*
X0374246Y0368690D03*
X0374246Y0366721D03*
X0374246Y0364753D03*
X0374246Y0362784D03*
X0374246Y0360816D03*
X0374246Y0358847D03*
X0374246Y0356879D03*
X0374246Y0354910D03*
X0374246Y0352942D03*
X0374246Y0350973D03*
D39*
X0368144Y0344871D03*
X0366176Y0344871D03*
X0364207Y0344871D03*
X0362239Y0344871D03*
X0360270Y0344871D03*
X0358302Y0344871D03*
X0356333Y0344871D03*
X0354365Y0344871D03*
X0352396Y0344871D03*
X0350428Y0344871D03*
X0348459Y0344871D03*
X0346491Y0344871D03*
X0346491Y0378729D03*
X0348459Y0378729D03*
X0350428Y0378729D03*
X0352396Y0378729D03*
X0354365Y0378729D03*
X0356333Y0378729D03*
X0358302Y0378729D03*
X0360270Y0378729D03*
X0362239Y0378729D03*
X0364207Y0378729D03*
X0366176Y0378729D03*
X0368144Y0378729D03*
D40*
X0363892Y0106308D03*
X0310743Y0106308D03*
D41*
X0324817Y0119300D03*
X0334817Y0119300D03*
X0344817Y0119300D03*
X0339817Y0129300D03*
X0329817Y0129300D03*
X0349817Y0129300D03*
D42*
X0357317Y0094300D03*
X0317317Y0094300D03*
D43*
X0551817Y0076800D03*
X0551817Y0421800D03*
X0041817Y0421800D03*
X0041817Y0076800D03*
D44*
X0234817Y0421300D03*
X0234817Y0431300D03*
X0244817Y0431300D03*
X0254817Y0431300D03*
X0254817Y0421300D03*
X0244817Y0421300D03*
X0264817Y0421300D03*
X0264817Y0431300D03*
X0294317Y0430800D03*
X0294317Y0420800D03*
X0304317Y0420800D03*
X0304317Y0430800D03*
X0314317Y0430800D03*
X0324317Y0430800D03*
X0324317Y0420800D03*
X0314317Y0420800D03*
D45*
X0188817Y0386800D03*
X0148817Y0386800D03*
X0146817Y0364800D03*
X0126817Y0364800D03*
X0114317Y0364800D03*
X0094317Y0364800D03*
X0082317Y0385300D03*
X0042317Y0385300D03*
D46*
X0107081Y0384300D03*
X0107081Y0379300D03*
X0107081Y0389300D03*
X0107081Y0394300D03*
X0127554Y0394300D03*
X0127554Y0389300D03*
X0127554Y0384300D03*
X0127554Y0379300D03*
D47*
X0469817Y0310800D03*
X0469817Y0300800D03*
X0469817Y0290800D03*
D48*
X0363648Y0391150D03*
X0363648Y0397450D03*
X0354987Y0397450D03*
X0354987Y0391150D03*
X0276648Y0348950D03*
X0276648Y0342650D03*
X0267987Y0342650D03*
X0267987Y0348950D03*
X0257148Y0348950D03*
X0257148Y0342650D03*
X0248487Y0342650D03*
X0248487Y0348950D03*
D49*
X0101989Y0090248D03*
D50*
X0111989Y0090248D03*
X0121989Y0090248D03*
D51*
X0380032Y0095785D03*
X0389875Y0095785D03*
X0409560Y0095785D03*
X0419402Y0095785D03*
X0399717Y0076100D03*
D52*
X0380032Y0076100D03*
X0380032Y0066257D03*
X0399717Y0095785D03*
X0419402Y0076100D03*
X0419402Y0066257D03*
X0546317Y0284300D03*
D53*
X0441302Y0289833D03*
X0403780Y0303693D03*
X0375317Y0310800D03*
X0369317Y0335300D03*
X0349817Y0335800D03*
X0348817Y0353300D03*
X0349317Y0360800D03*
X0364817Y0356800D03*
X0367917Y0362800D03*
X0331317Y0359800D03*
X0325317Y0359800D03*
X0326817Y0367800D03*
X0302317Y0378800D03*
X0292317Y0367800D03*
X0293817Y0363800D03*
X0294817Y0358800D03*
X0300817Y0347300D03*
X0297317Y0343800D03*
X0317382Y0325723D03*
X0326317Y0328800D03*
X0326317Y0313300D03*
X0320817Y0304800D03*
X0313317Y0295300D03*
X0294817Y0297300D03*
X0284257Y0285689D03*
X0281943Y0261800D03*
X0259817Y0248800D03*
X0254317Y0261800D03*
X0228716Y0262400D03*
X0217317Y0292300D03*
X0212317Y0290800D03*
X0222317Y0297800D03*
X0226317Y0300800D03*
X0230817Y0308300D03*
X0217817Y0308300D03*
X0206817Y0321800D03*
X0203317Y0316300D03*
X0174817Y0317300D03*
X0161817Y0331300D03*
X0146317Y0339300D03*
X0168817Y0349300D03*
X0180817Y0355800D03*
X0179317Y0360300D03*
X0222317Y0342800D03*
X0226317Y0346800D03*
X0236317Y0352800D03*
X0268257Y0323689D03*
X0249317Y0311800D03*
X0311317Y0269300D03*
X0313817Y0265300D03*
X0313317Y0260300D03*
X0307817Y0256800D03*
X0307150Y0252186D03*
X0308451Y0239034D03*
X0277984Y0239035D03*
X0268317Y0231300D03*
X0259817Y0231300D03*
X0259317Y0221800D03*
X0252317Y0200800D03*
X0230317Y0192800D03*
X0217317Y0195800D03*
X0176317Y0201300D03*
X0241817Y0150300D03*
X0251817Y0152300D03*
X0259817Y0173800D03*
X0306645Y0181646D03*
X0324567Y0161094D03*
X0329258Y0153509D03*
X0315817Y0139800D03*
X0298888Y0118215D03*
X0357222Y0184556D03*
X0357207Y0206382D03*
X0407317Y0192300D03*
X0241317Y0395300D03*
X0290317Y0401300D03*
X0150817Y0290800D03*
X0142362Y0299363D03*
X0116533Y0275986D03*
X0110091Y0285391D03*
X0110268Y0290346D03*
X0086817Y0283800D03*
X0076817Y0302300D03*
X0059436Y0324465D03*
X0060634Y0342966D03*
X0035317Y0298300D03*
X0039317Y0267300D03*
X0057817Y0241800D03*
X0069317Y0245800D03*
X0091317Y0250300D03*
X0095317Y0263300D03*
X0151406Y0258587D03*
X0154817Y0262300D03*
X0048598Y0205217D03*
D54*
X0125809Y0277153D03*
X0125817Y0306300D03*
X0107817Y0315300D03*
X0170817Y0269800D03*
X0175317Y0249300D03*
X0171317Y0212800D03*
X0266817Y0241300D03*
X0264817Y0276300D03*
X0287317Y0277300D03*
X0304817Y0270300D03*
X0313817Y0312800D03*
X0277817Y0335800D03*
X0232317Y0347300D03*
X0185817Y0347800D03*
X0175317Y0300800D03*
X0268317Y0390300D03*
X0266817Y0406800D03*
X0389317Y0366300D03*
X0425817Y0345300D03*
X0425817Y0285300D03*
X0495817Y0277800D03*
X0495817Y0294800D03*
D55*
X0365767Y0372250D03*
X0356317Y0372650D03*
X0320217Y0371900D03*
X0321598Y0321324D03*
X0393917Y0170450D03*
D56*
X0452392Y0134806D03*
X0452391Y0107368D03*
X0433884Y0296259D03*
X0360654Y0310128D03*
D57*
X0361167Y0291450D03*
X0361167Y0278150D03*
X0343867Y0277800D03*
X0280817Y0246350D03*
X0382167Y0345750D03*
D58*
X0358817Y0317300D03*
X0340317Y0328300D03*
D59*
X0363191Y0332300D03*
M02*
