%
M48
M72
T01C0.0320
T02C0.0360
T03C0.0394
T04C0.0400
T05C0.0470
T06C0.0472
T07C0.0520
T08C0.0630
T09C0.0787
T10C0.0790
T11C0.0866
T12C0.1000
T13C0.1260
T14C0.1614
%
T01
X34467Y27866
X38467Y27866
X38417Y29266
X38417Y33266
X35917Y35366
X35917Y39366
X28717Y40666
X23717Y40666
X21717Y39716
X21717Y38716
X43117Y39266
X44517Y38066
X46867Y36216
X43117Y35266
X46867Y32216
X55867Y34266
X56167Y32566
X56317Y30266
X60317Y30266
X60167Y32566
X59867Y34266
X60567Y37616
X65567Y37616
X68917Y27916
X72567Y27966
X75417Y23716
X78117Y23566
X78117Y19566
X75417Y19716
X72567Y22966
X68917Y22916
X59917Y20216
X58917Y20216
X55567Y20166
X51567Y20166
X41817Y14766
X41817Y10766
X76017Y11066
X76017Y12466
X44517Y42066
X68767Y48266
X68767Y53266
T02
X59317Y43116
X59317Y40116
T03
X72717Y39516
X74217Y41016
X76217Y41016
X77717Y37516
X76217Y36016
X74217Y36016
X72717Y37516
T04
X69367Y13166
X69367Y12166
X69367Y11166
T05
X90067Y10781
X90067Y12750
X86917Y31081
X86917Y33050
X88909Y52047
X88909Y54016
X88909Y55984
T06
X23329Y35184
X23329Y33216
X23329Y31247
X20376Y31247
X20376Y33216
X20376Y35184
T07
X23367Y26866
X23367Y12066
X47167Y11816
X47167Y26616
X48717Y40966
X48717Y55766
X23167Y58666
X23167Y43866
T08
X84617Y14816
X84617Y12816
X84617Y10816
X84617Y8816
T09
X40067Y27616
X36380Y22731
X33533Y22700
X31430Y21078
X30605Y18397
X31452Y15799
X33686Y14110
X36428Y14145
X38658Y15743
X38680Y21046
X27617Y23166
X33517Y32766
X33517Y35516
X28817Y36466
X34336Y43260
X37078Y43295
X39308Y44893
X42867Y44866
X40317Y40866
X32102Y44949
X31255Y47547
X32080Y50228
X34183Y51850
X37030Y51881
X39330Y50196
X50367Y42266
T10
X61067Y49066
X61067Y53066
X76517Y53266
X76517Y49266
X57417Y13816
X57417Y9816
T11
X36767Y5416
X35267Y7416
X31117Y5416
X29467Y7366
X29967Y57116
X31617Y59066
X35767Y57066
X37267Y59066
T12
X67767Y17066
X67767Y7066
T13
X20617Y5866
X35117Y18466
X75167Y38466
X91567Y45066
X54017Y58266
X35717Y47566
X91517Y5516
T14
X64267Y23616
M30
