G75*
%MOIN*%
%OFA0B0*%
%FSLAX25Y25*%
%IPPOS*%
%LPD*%
%AMOC8*
5,1,8,0,0,1.08239X$1,22.5*
%
%ADD10C,0.00000*%
%ADD11C,0.07050*%
%ADD12C,0.09450*%
%ADD13C,0.18100*%
%ADD14OC8,0.18100*%
%ADD15OC8,0.05600*%
%ADD16OC8,0.06300*%
%ADD17C,0.06300*%
%ADD18OC8,0.07800*%
%ADD19C,0.06000*%
%ADD20OC8,0.06600*%
%ADD21OC8,0.05200*%
%ADD22C,0.07087*%
%ADD23C,0.10000*%
%ADD24C,0.23000*%
%ADD25C,0.15000*%
%ADD26C,0.31496*%
%ADD27C,0.07000*%
%ADD28C,0.10000*%
%ADD29R,0.11811X0.11811*%
D10*
X0171672Y0029156D02*
X0171672Y0609857D01*
X0942093Y0608857D01*
X0942093Y0029156D01*
X0171672Y0029156D01*
X0199873Y0058656D02*
X0199875Y0058814D01*
X0199881Y0058972D01*
X0199891Y0059130D01*
X0199905Y0059288D01*
X0199923Y0059445D01*
X0199944Y0059602D01*
X0199970Y0059758D01*
X0200000Y0059914D01*
X0200033Y0060069D01*
X0200071Y0060222D01*
X0200112Y0060375D01*
X0200157Y0060527D01*
X0200206Y0060678D01*
X0200259Y0060827D01*
X0200315Y0060975D01*
X0200375Y0061121D01*
X0200439Y0061266D01*
X0200507Y0061409D01*
X0200578Y0061551D01*
X0200652Y0061691D01*
X0200730Y0061828D01*
X0200812Y0061964D01*
X0200896Y0062098D01*
X0200985Y0062229D01*
X0201076Y0062358D01*
X0201171Y0062485D01*
X0201268Y0062610D01*
X0201369Y0062732D01*
X0201473Y0062851D01*
X0201580Y0062968D01*
X0201690Y0063082D01*
X0201803Y0063193D01*
X0201918Y0063302D01*
X0202036Y0063407D01*
X0202157Y0063509D01*
X0202280Y0063609D01*
X0202406Y0063705D01*
X0202534Y0063798D01*
X0202664Y0063888D01*
X0202797Y0063974D01*
X0202932Y0064058D01*
X0203068Y0064137D01*
X0203207Y0064214D01*
X0203348Y0064286D01*
X0203490Y0064356D01*
X0203634Y0064421D01*
X0203780Y0064483D01*
X0203927Y0064541D01*
X0204076Y0064596D01*
X0204226Y0064647D01*
X0204377Y0064694D01*
X0204529Y0064737D01*
X0204682Y0064776D01*
X0204837Y0064812D01*
X0204992Y0064843D01*
X0205148Y0064871D01*
X0205304Y0064895D01*
X0205461Y0064915D01*
X0205619Y0064931D01*
X0205776Y0064943D01*
X0205935Y0064951D01*
X0206093Y0064955D01*
X0206251Y0064955D01*
X0206409Y0064951D01*
X0206568Y0064943D01*
X0206725Y0064931D01*
X0206883Y0064915D01*
X0207040Y0064895D01*
X0207196Y0064871D01*
X0207352Y0064843D01*
X0207507Y0064812D01*
X0207662Y0064776D01*
X0207815Y0064737D01*
X0207967Y0064694D01*
X0208118Y0064647D01*
X0208268Y0064596D01*
X0208417Y0064541D01*
X0208564Y0064483D01*
X0208710Y0064421D01*
X0208854Y0064356D01*
X0208996Y0064286D01*
X0209137Y0064214D01*
X0209276Y0064137D01*
X0209412Y0064058D01*
X0209547Y0063974D01*
X0209680Y0063888D01*
X0209810Y0063798D01*
X0209938Y0063705D01*
X0210064Y0063609D01*
X0210187Y0063509D01*
X0210308Y0063407D01*
X0210426Y0063302D01*
X0210541Y0063193D01*
X0210654Y0063082D01*
X0210764Y0062968D01*
X0210871Y0062851D01*
X0210975Y0062732D01*
X0211076Y0062610D01*
X0211173Y0062485D01*
X0211268Y0062358D01*
X0211359Y0062229D01*
X0211448Y0062098D01*
X0211532Y0061964D01*
X0211614Y0061828D01*
X0211692Y0061691D01*
X0211766Y0061551D01*
X0211837Y0061409D01*
X0211905Y0061266D01*
X0211969Y0061121D01*
X0212029Y0060975D01*
X0212085Y0060827D01*
X0212138Y0060678D01*
X0212187Y0060527D01*
X0212232Y0060375D01*
X0212273Y0060222D01*
X0212311Y0060069D01*
X0212344Y0059914D01*
X0212374Y0059758D01*
X0212400Y0059602D01*
X0212421Y0059445D01*
X0212439Y0059288D01*
X0212453Y0059130D01*
X0212463Y0058972D01*
X0212469Y0058814D01*
X0212471Y0058656D01*
X0212469Y0058498D01*
X0212463Y0058340D01*
X0212453Y0058182D01*
X0212439Y0058024D01*
X0212421Y0057867D01*
X0212400Y0057710D01*
X0212374Y0057554D01*
X0212344Y0057398D01*
X0212311Y0057243D01*
X0212273Y0057090D01*
X0212232Y0056937D01*
X0212187Y0056785D01*
X0212138Y0056634D01*
X0212085Y0056485D01*
X0212029Y0056337D01*
X0211969Y0056191D01*
X0211905Y0056046D01*
X0211837Y0055903D01*
X0211766Y0055761D01*
X0211692Y0055621D01*
X0211614Y0055484D01*
X0211532Y0055348D01*
X0211448Y0055214D01*
X0211359Y0055083D01*
X0211268Y0054954D01*
X0211173Y0054827D01*
X0211076Y0054702D01*
X0210975Y0054580D01*
X0210871Y0054461D01*
X0210764Y0054344D01*
X0210654Y0054230D01*
X0210541Y0054119D01*
X0210426Y0054010D01*
X0210308Y0053905D01*
X0210187Y0053803D01*
X0210064Y0053703D01*
X0209938Y0053607D01*
X0209810Y0053514D01*
X0209680Y0053424D01*
X0209547Y0053338D01*
X0209412Y0053254D01*
X0209276Y0053175D01*
X0209137Y0053098D01*
X0208996Y0053026D01*
X0208854Y0052956D01*
X0208710Y0052891D01*
X0208564Y0052829D01*
X0208417Y0052771D01*
X0208268Y0052716D01*
X0208118Y0052665D01*
X0207967Y0052618D01*
X0207815Y0052575D01*
X0207662Y0052536D01*
X0207507Y0052500D01*
X0207352Y0052469D01*
X0207196Y0052441D01*
X0207040Y0052417D01*
X0206883Y0052397D01*
X0206725Y0052381D01*
X0206568Y0052369D01*
X0206409Y0052361D01*
X0206251Y0052357D01*
X0206093Y0052357D01*
X0205935Y0052361D01*
X0205776Y0052369D01*
X0205619Y0052381D01*
X0205461Y0052397D01*
X0205304Y0052417D01*
X0205148Y0052441D01*
X0204992Y0052469D01*
X0204837Y0052500D01*
X0204682Y0052536D01*
X0204529Y0052575D01*
X0204377Y0052618D01*
X0204226Y0052665D01*
X0204076Y0052716D01*
X0203927Y0052771D01*
X0203780Y0052829D01*
X0203634Y0052891D01*
X0203490Y0052956D01*
X0203348Y0053026D01*
X0203207Y0053098D01*
X0203068Y0053175D01*
X0202932Y0053254D01*
X0202797Y0053338D01*
X0202664Y0053424D01*
X0202534Y0053514D01*
X0202406Y0053607D01*
X0202280Y0053703D01*
X0202157Y0053803D01*
X0202036Y0053905D01*
X0201918Y0054010D01*
X0201803Y0054119D01*
X0201690Y0054230D01*
X0201580Y0054344D01*
X0201473Y0054461D01*
X0201369Y0054580D01*
X0201268Y0054702D01*
X0201171Y0054827D01*
X0201076Y0054954D01*
X0200985Y0055083D01*
X0200896Y0055214D01*
X0200812Y0055348D01*
X0200730Y0055484D01*
X0200652Y0055621D01*
X0200578Y0055761D01*
X0200507Y0055903D01*
X0200439Y0056046D01*
X0200375Y0056191D01*
X0200315Y0056337D01*
X0200259Y0056485D01*
X0200206Y0056634D01*
X0200157Y0056785D01*
X0200112Y0056937D01*
X0200071Y0057090D01*
X0200033Y0057243D01*
X0200000Y0057398D01*
X0199970Y0057554D01*
X0199944Y0057710D01*
X0199923Y0057867D01*
X0199905Y0058024D01*
X0199891Y0058182D01*
X0199881Y0058340D01*
X0199875Y0058498D01*
X0199873Y0058656D01*
X0344873Y0184656D02*
X0344875Y0184814D01*
X0344881Y0184972D01*
X0344891Y0185130D01*
X0344905Y0185288D01*
X0344923Y0185445D01*
X0344944Y0185602D01*
X0344970Y0185758D01*
X0345000Y0185914D01*
X0345033Y0186069D01*
X0345071Y0186222D01*
X0345112Y0186375D01*
X0345157Y0186527D01*
X0345206Y0186678D01*
X0345259Y0186827D01*
X0345315Y0186975D01*
X0345375Y0187121D01*
X0345439Y0187266D01*
X0345507Y0187409D01*
X0345578Y0187551D01*
X0345652Y0187691D01*
X0345730Y0187828D01*
X0345812Y0187964D01*
X0345896Y0188098D01*
X0345985Y0188229D01*
X0346076Y0188358D01*
X0346171Y0188485D01*
X0346268Y0188610D01*
X0346369Y0188732D01*
X0346473Y0188851D01*
X0346580Y0188968D01*
X0346690Y0189082D01*
X0346803Y0189193D01*
X0346918Y0189302D01*
X0347036Y0189407D01*
X0347157Y0189509D01*
X0347280Y0189609D01*
X0347406Y0189705D01*
X0347534Y0189798D01*
X0347664Y0189888D01*
X0347797Y0189974D01*
X0347932Y0190058D01*
X0348068Y0190137D01*
X0348207Y0190214D01*
X0348348Y0190286D01*
X0348490Y0190356D01*
X0348634Y0190421D01*
X0348780Y0190483D01*
X0348927Y0190541D01*
X0349076Y0190596D01*
X0349226Y0190647D01*
X0349377Y0190694D01*
X0349529Y0190737D01*
X0349682Y0190776D01*
X0349837Y0190812D01*
X0349992Y0190843D01*
X0350148Y0190871D01*
X0350304Y0190895D01*
X0350461Y0190915D01*
X0350619Y0190931D01*
X0350776Y0190943D01*
X0350935Y0190951D01*
X0351093Y0190955D01*
X0351251Y0190955D01*
X0351409Y0190951D01*
X0351568Y0190943D01*
X0351725Y0190931D01*
X0351883Y0190915D01*
X0352040Y0190895D01*
X0352196Y0190871D01*
X0352352Y0190843D01*
X0352507Y0190812D01*
X0352662Y0190776D01*
X0352815Y0190737D01*
X0352967Y0190694D01*
X0353118Y0190647D01*
X0353268Y0190596D01*
X0353417Y0190541D01*
X0353564Y0190483D01*
X0353710Y0190421D01*
X0353854Y0190356D01*
X0353996Y0190286D01*
X0354137Y0190214D01*
X0354276Y0190137D01*
X0354412Y0190058D01*
X0354547Y0189974D01*
X0354680Y0189888D01*
X0354810Y0189798D01*
X0354938Y0189705D01*
X0355064Y0189609D01*
X0355187Y0189509D01*
X0355308Y0189407D01*
X0355426Y0189302D01*
X0355541Y0189193D01*
X0355654Y0189082D01*
X0355764Y0188968D01*
X0355871Y0188851D01*
X0355975Y0188732D01*
X0356076Y0188610D01*
X0356173Y0188485D01*
X0356268Y0188358D01*
X0356359Y0188229D01*
X0356448Y0188098D01*
X0356532Y0187964D01*
X0356614Y0187828D01*
X0356692Y0187691D01*
X0356766Y0187551D01*
X0356837Y0187409D01*
X0356905Y0187266D01*
X0356969Y0187121D01*
X0357029Y0186975D01*
X0357085Y0186827D01*
X0357138Y0186678D01*
X0357187Y0186527D01*
X0357232Y0186375D01*
X0357273Y0186222D01*
X0357311Y0186069D01*
X0357344Y0185914D01*
X0357374Y0185758D01*
X0357400Y0185602D01*
X0357421Y0185445D01*
X0357439Y0185288D01*
X0357453Y0185130D01*
X0357463Y0184972D01*
X0357469Y0184814D01*
X0357471Y0184656D01*
X0357469Y0184498D01*
X0357463Y0184340D01*
X0357453Y0184182D01*
X0357439Y0184024D01*
X0357421Y0183867D01*
X0357400Y0183710D01*
X0357374Y0183554D01*
X0357344Y0183398D01*
X0357311Y0183243D01*
X0357273Y0183090D01*
X0357232Y0182937D01*
X0357187Y0182785D01*
X0357138Y0182634D01*
X0357085Y0182485D01*
X0357029Y0182337D01*
X0356969Y0182191D01*
X0356905Y0182046D01*
X0356837Y0181903D01*
X0356766Y0181761D01*
X0356692Y0181621D01*
X0356614Y0181484D01*
X0356532Y0181348D01*
X0356448Y0181214D01*
X0356359Y0181083D01*
X0356268Y0180954D01*
X0356173Y0180827D01*
X0356076Y0180702D01*
X0355975Y0180580D01*
X0355871Y0180461D01*
X0355764Y0180344D01*
X0355654Y0180230D01*
X0355541Y0180119D01*
X0355426Y0180010D01*
X0355308Y0179905D01*
X0355187Y0179803D01*
X0355064Y0179703D01*
X0354938Y0179607D01*
X0354810Y0179514D01*
X0354680Y0179424D01*
X0354547Y0179338D01*
X0354412Y0179254D01*
X0354276Y0179175D01*
X0354137Y0179098D01*
X0353996Y0179026D01*
X0353854Y0178956D01*
X0353710Y0178891D01*
X0353564Y0178829D01*
X0353417Y0178771D01*
X0353268Y0178716D01*
X0353118Y0178665D01*
X0352967Y0178618D01*
X0352815Y0178575D01*
X0352662Y0178536D01*
X0352507Y0178500D01*
X0352352Y0178469D01*
X0352196Y0178441D01*
X0352040Y0178417D01*
X0351883Y0178397D01*
X0351725Y0178381D01*
X0351568Y0178369D01*
X0351409Y0178361D01*
X0351251Y0178357D01*
X0351093Y0178357D01*
X0350935Y0178361D01*
X0350776Y0178369D01*
X0350619Y0178381D01*
X0350461Y0178397D01*
X0350304Y0178417D01*
X0350148Y0178441D01*
X0349992Y0178469D01*
X0349837Y0178500D01*
X0349682Y0178536D01*
X0349529Y0178575D01*
X0349377Y0178618D01*
X0349226Y0178665D01*
X0349076Y0178716D01*
X0348927Y0178771D01*
X0348780Y0178829D01*
X0348634Y0178891D01*
X0348490Y0178956D01*
X0348348Y0179026D01*
X0348207Y0179098D01*
X0348068Y0179175D01*
X0347932Y0179254D01*
X0347797Y0179338D01*
X0347664Y0179424D01*
X0347534Y0179514D01*
X0347406Y0179607D01*
X0347280Y0179703D01*
X0347157Y0179803D01*
X0347036Y0179905D01*
X0346918Y0180010D01*
X0346803Y0180119D01*
X0346690Y0180230D01*
X0346580Y0180344D01*
X0346473Y0180461D01*
X0346369Y0180580D01*
X0346268Y0180702D01*
X0346171Y0180827D01*
X0346076Y0180954D01*
X0345985Y0181083D01*
X0345896Y0181214D01*
X0345812Y0181348D01*
X0345730Y0181484D01*
X0345652Y0181621D01*
X0345578Y0181761D01*
X0345507Y0181903D01*
X0345439Y0182046D01*
X0345375Y0182191D01*
X0345315Y0182337D01*
X0345259Y0182485D01*
X0345206Y0182634D01*
X0345157Y0182785D01*
X0345112Y0182937D01*
X0345071Y0183090D01*
X0345033Y0183243D01*
X0345000Y0183398D01*
X0344970Y0183554D01*
X0344944Y0183710D01*
X0344923Y0183867D01*
X0344905Y0184024D01*
X0344891Y0184182D01*
X0344881Y0184340D01*
X0344875Y0184498D01*
X0344873Y0184656D01*
X0672672Y0170656D02*
X0672674Y0170797D01*
X0672680Y0170938D01*
X0672690Y0171078D01*
X0672704Y0171218D01*
X0672722Y0171358D01*
X0672743Y0171497D01*
X0672769Y0171636D01*
X0672798Y0171774D01*
X0672832Y0171910D01*
X0672869Y0172046D01*
X0672910Y0172181D01*
X0672955Y0172315D01*
X0673004Y0172447D01*
X0673056Y0172578D01*
X0673112Y0172707D01*
X0673172Y0172834D01*
X0673235Y0172960D01*
X0673301Y0173084D01*
X0673372Y0173207D01*
X0673445Y0173327D01*
X0673522Y0173445D01*
X0673602Y0173561D01*
X0673686Y0173674D01*
X0673772Y0173785D01*
X0673862Y0173894D01*
X0673955Y0174000D01*
X0674050Y0174103D01*
X0674149Y0174204D01*
X0674250Y0174302D01*
X0674354Y0174397D01*
X0674461Y0174489D01*
X0674570Y0174578D01*
X0674682Y0174663D01*
X0674796Y0174746D01*
X0674912Y0174826D01*
X0675031Y0174902D01*
X0675152Y0174974D01*
X0675274Y0175044D01*
X0675399Y0175109D01*
X0675525Y0175172D01*
X0675653Y0175230D01*
X0675783Y0175285D01*
X0675914Y0175337D01*
X0676047Y0175384D01*
X0676181Y0175428D01*
X0676316Y0175469D01*
X0676452Y0175505D01*
X0676589Y0175537D01*
X0676727Y0175566D01*
X0676865Y0175591D01*
X0677005Y0175611D01*
X0677145Y0175628D01*
X0677285Y0175641D01*
X0677426Y0175650D01*
X0677566Y0175655D01*
X0677707Y0175656D01*
X0677848Y0175653D01*
X0677989Y0175646D01*
X0678129Y0175635D01*
X0678269Y0175620D01*
X0678409Y0175601D01*
X0678548Y0175579D01*
X0678686Y0175552D01*
X0678824Y0175522D01*
X0678960Y0175487D01*
X0679096Y0175449D01*
X0679230Y0175407D01*
X0679364Y0175361D01*
X0679496Y0175312D01*
X0679626Y0175258D01*
X0679755Y0175201D01*
X0679882Y0175141D01*
X0680008Y0175077D01*
X0680131Y0175009D01*
X0680253Y0174938D01*
X0680373Y0174864D01*
X0680490Y0174786D01*
X0680605Y0174705D01*
X0680718Y0174621D01*
X0680829Y0174534D01*
X0680937Y0174443D01*
X0681042Y0174350D01*
X0681145Y0174253D01*
X0681245Y0174154D01*
X0681342Y0174052D01*
X0681436Y0173947D01*
X0681527Y0173840D01*
X0681615Y0173730D01*
X0681700Y0173618D01*
X0681782Y0173503D01*
X0681861Y0173386D01*
X0681936Y0173267D01*
X0682008Y0173146D01*
X0682076Y0173023D01*
X0682141Y0172898D01*
X0682203Y0172771D01*
X0682260Y0172642D01*
X0682315Y0172512D01*
X0682365Y0172381D01*
X0682412Y0172248D01*
X0682455Y0172114D01*
X0682494Y0171978D01*
X0682529Y0171842D01*
X0682561Y0171705D01*
X0682588Y0171567D01*
X0682612Y0171428D01*
X0682632Y0171288D01*
X0682648Y0171148D01*
X0682660Y0171008D01*
X0682668Y0170867D01*
X0682672Y0170726D01*
X0682672Y0170586D01*
X0682668Y0170445D01*
X0682660Y0170304D01*
X0682648Y0170164D01*
X0682632Y0170024D01*
X0682612Y0169884D01*
X0682588Y0169745D01*
X0682561Y0169607D01*
X0682529Y0169470D01*
X0682494Y0169334D01*
X0682455Y0169198D01*
X0682412Y0169064D01*
X0682365Y0168931D01*
X0682315Y0168800D01*
X0682260Y0168670D01*
X0682203Y0168541D01*
X0682141Y0168414D01*
X0682076Y0168289D01*
X0682008Y0168166D01*
X0681936Y0168045D01*
X0681861Y0167926D01*
X0681782Y0167809D01*
X0681700Y0167694D01*
X0681615Y0167582D01*
X0681527Y0167472D01*
X0681436Y0167365D01*
X0681342Y0167260D01*
X0681245Y0167158D01*
X0681145Y0167059D01*
X0681042Y0166962D01*
X0680937Y0166869D01*
X0680829Y0166778D01*
X0680718Y0166691D01*
X0680605Y0166607D01*
X0680490Y0166526D01*
X0680373Y0166448D01*
X0680253Y0166374D01*
X0680131Y0166303D01*
X0680008Y0166235D01*
X0679882Y0166171D01*
X0679755Y0166111D01*
X0679626Y0166054D01*
X0679496Y0166000D01*
X0679364Y0165951D01*
X0679230Y0165905D01*
X0679096Y0165863D01*
X0678960Y0165825D01*
X0678824Y0165790D01*
X0678686Y0165760D01*
X0678548Y0165733D01*
X0678409Y0165711D01*
X0678269Y0165692D01*
X0678129Y0165677D01*
X0677989Y0165666D01*
X0677848Y0165659D01*
X0677707Y0165656D01*
X0677566Y0165657D01*
X0677426Y0165662D01*
X0677285Y0165671D01*
X0677145Y0165684D01*
X0677005Y0165701D01*
X0676865Y0165721D01*
X0676727Y0165746D01*
X0676589Y0165775D01*
X0676452Y0165807D01*
X0676316Y0165843D01*
X0676181Y0165884D01*
X0676047Y0165928D01*
X0675914Y0165975D01*
X0675783Y0166027D01*
X0675653Y0166082D01*
X0675525Y0166140D01*
X0675399Y0166203D01*
X0675274Y0166268D01*
X0675152Y0166338D01*
X0675031Y0166410D01*
X0674912Y0166486D01*
X0674796Y0166566D01*
X0674682Y0166649D01*
X0674570Y0166734D01*
X0674461Y0166823D01*
X0674354Y0166915D01*
X0674250Y0167010D01*
X0674149Y0167108D01*
X0674050Y0167209D01*
X0673955Y0167312D01*
X0673862Y0167418D01*
X0673772Y0167527D01*
X0673686Y0167638D01*
X0673602Y0167751D01*
X0673522Y0167867D01*
X0673445Y0167985D01*
X0673372Y0168105D01*
X0673301Y0168228D01*
X0673235Y0168352D01*
X0673172Y0168478D01*
X0673112Y0168605D01*
X0673056Y0168734D01*
X0673004Y0168865D01*
X0672955Y0168997D01*
X0672910Y0169131D01*
X0672869Y0169266D01*
X0672832Y0169402D01*
X0672798Y0169538D01*
X0672769Y0169676D01*
X0672743Y0169815D01*
X0672722Y0169954D01*
X0672704Y0170094D01*
X0672690Y0170234D01*
X0672680Y0170374D01*
X0672674Y0170515D01*
X0672672Y0170656D01*
X0672672Y0070656D02*
X0672674Y0070797D01*
X0672680Y0070938D01*
X0672690Y0071078D01*
X0672704Y0071218D01*
X0672722Y0071358D01*
X0672743Y0071497D01*
X0672769Y0071636D01*
X0672798Y0071774D01*
X0672832Y0071910D01*
X0672869Y0072046D01*
X0672910Y0072181D01*
X0672955Y0072315D01*
X0673004Y0072447D01*
X0673056Y0072578D01*
X0673112Y0072707D01*
X0673172Y0072834D01*
X0673235Y0072960D01*
X0673301Y0073084D01*
X0673372Y0073207D01*
X0673445Y0073327D01*
X0673522Y0073445D01*
X0673602Y0073561D01*
X0673686Y0073674D01*
X0673772Y0073785D01*
X0673862Y0073894D01*
X0673955Y0074000D01*
X0674050Y0074103D01*
X0674149Y0074204D01*
X0674250Y0074302D01*
X0674354Y0074397D01*
X0674461Y0074489D01*
X0674570Y0074578D01*
X0674682Y0074663D01*
X0674796Y0074746D01*
X0674912Y0074826D01*
X0675031Y0074902D01*
X0675152Y0074974D01*
X0675274Y0075044D01*
X0675399Y0075109D01*
X0675525Y0075172D01*
X0675653Y0075230D01*
X0675783Y0075285D01*
X0675914Y0075337D01*
X0676047Y0075384D01*
X0676181Y0075428D01*
X0676316Y0075469D01*
X0676452Y0075505D01*
X0676589Y0075537D01*
X0676727Y0075566D01*
X0676865Y0075591D01*
X0677005Y0075611D01*
X0677145Y0075628D01*
X0677285Y0075641D01*
X0677426Y0075650D01*
X0677566Y0075655D01*
X0677707Y0075656D01*
X0677848Y0075653D01*
X0677989Y0075646D01*
X0678129Y0075635D01*
X0678269Y0075620D01*
X0678409Y0075601D01*
X0678548Y0075579D01*
X0678686Y0075552D01*
X0678824Y0075522D01*
X0678960Y0075487D01*
X0679096Y0075449D01*
X0679230Y0075407D01*
X0679364Y0075361D01*
X0679496Y0075312D01*
X0679626Y0075258D01*
X0679755Y0075201D01*
X0679882Y0075141D01*
X0680008Y0075077D01*
X0680131Y0075009D01*
X0680253Y0074938D01*
X0680373Y0074864D01*
X0680490Y0074786D01*
X0680605Y0074705D01*
X0680718Y0074621D01*
X0680829Y0074534D01*
X0680937Y0074443D01*
X0681042Y0074350D01*
X0681145Y0074253D01*
X0681245Y0074154D01*
X0681342Y0074052D01*
X0681436Y0073947D01*
X0681527Y0073840D01*
X0681615Y0073730D01*
X0681700Y0073618D01*
X0681782Y0073503D01*
X0681861Y0073386D01*
X0681936Y0073267D01*
X0682008Y0073146D01*
X0682076Y0073023D01*
X0682141Y0072898D01*
X0682203Y0072771D01*
X0682260Y0072642D01*
X0682315Y0072512D01*
X0682365Y0072381D01*
X0682412Y0072248D01*
X0682455Y0072114D01*
X0682494Y0071978D01*
X0682529Y0071842D01*
X0682561Y0071705D01*
X0682588Y0071567D01*
X0682612Y0071428D01*
X0682632Y0071288D01*
X0682648Y0071148D01*
X0682660Y0071008D01*
X0682668Y0070867D01*
X0682672Y0070726D01*
X0682672Y0070586D01*
X0682668Y0070445D01*
X0682660Y0070304D01*
X0682648Y0070164D01*
X0682632Y0070024D01*
X0682612Y0069884D01*
X0682588Y0069745D01*
X0682561Y0069607D01*
X0682529Y0069470D01*
X0682494Y0069334D01*
X0682455Y0069198D01*
X0682412Y0069064D01*
X0682365Y0068931D01*
X0682315Y0068800D01*
X0682260Y0068670D01*
X0682203Y0068541D01*
X0682141Y0068414D01*
X0682076Y0068289D01*
X0682008Y0068166D01*
X0681936Y0068045D01*
X0681861Y0067926D01*
X0681782Y0067809D01*
X0681700Y0067694D01*
X0681615Y0067582D01*
X0681527Y0067472D01*
X0681436Y0067365D01*
X0681342Y0067260D01*
X0681245Y0067158D01*
X0681145Y0067059D01*
X0681042Y0066962D01*
X0680937Y0066869D01*
X0680829Y0066778D01*
X0680718Y0066691D01*
X0680605Y0066607D01*
X0680490Y0066526D01*
X0680373Y0066448D01*
X0680253Y0066374D01*
X0680131Y0066303D01*
X0680008Y0066235D01*
X0679882Y0066171D01*
X0679755Y0066111D01*
X0679626Y0066054D01*
X0679496Y0066000D01*
X0679364Y0065951D01*
X0679230Y0065905D01*
X0679096Y0065863D01*
X0678960Y0065825D01*
X0678824Y0065790D01*
X0678686Y0065760D01*
X0678548Y0065733D01*
X0678409Y0065711D01*
X0678269Y0065692D01*
X0678129Y0065677D01*
X0677989Y0065666D01*
X0677848Y0065659D01*
X0677707Y0065656D01*
X0677566Y0065657D01*
X0677426Y0065662D01*
X0677285Y0065671D01*
X0677145Y0065684D01*
X0677005Y0065701D01*
X0676865Y0065721D01*
X0676727Y0065746D01*
X0676589Y0065775D01*
X0676452Y0065807D01*
X0676316Y0065843D01*
X0676181Y0065884D01*
X0676047Y0065928D01*
X0675914Y0065975D01*
X0675783Y0066027D01*
X0675653Y0066082D01*
X0675525Y0066140D01*
X0675399Y0066203D01*
X0675274Y0066268D01*
X0675152Y0066338D01*
X0675031Y0066410D01*
X0674912Y0066486D01*
X0674796Y0066566D01*
X0674682Y0066649D01*
X0674570Y0066734D01*
X0674461Y0066823D01*
X0674354Y0066915D01*
X0674250Y0067010D01*
X0674149Y0067108D01*
X0674050Y0067209D01*
X0673955Y0067312D01*
X0673862Y0067418D01*
X0673772Y0067527D01*
X0673686Y0067638D01*
X0673602Y0067751D01*
X0673522Y0067867D01*
X0673445Y0067985D01*
X0673372Y0068105D01*
X0673301Y0068228D01*
X0673235Y0068352D01*
X0673172Y0068478D01*
X0673112Y0068605D01*
X0673056Y0068734D01*
X0673004Y0068865D01*
X0672955Y0068997D01*
X0672910Y0069131D01*
X0672869Y0069266D01*
X0672832Y0069402D01*
X0672798Y0069538D01*
X0672769Y0069676D01*
X0672743Y0069815D01*
X0672722Y0069954D01*
X0672704Y0070094D01*
X0672690Y0070234D01*
X0672680Y0070374D01*
X0672674Y0070515D01*
X0672672Y0070656D01*
X0908873Y0055156D02*
X0908875Y0055314D01*
X0908881Y0055472D01*
X0908891Y0055630D01*
X0908905Y0055788D01*
X0908923Y0055945D01*
X0908944Y0056102D01*
X0908970Y0056258D01*
X0909000Y0056414D01*
X0909033Y0056569D01*
X0909071Y0056722D01*
X0909112Y0056875D01*
X0909157Y0057027D01*
X0909206Y0057178D01*
X0909259Y0057327D01*
X0909315Y0057475D01*
X0909375Y0057621D01*
X0909439Y0057766D01*
X0909507Y0057909D01*
X0909578Y0058051D01*
X0909652Y0058191D01*
X0909730Y0058328D01*
X0909812Y0058464D01*
X0909896Y0058598D01*
X0909985Y0058729D01*
X0910076Y0058858D01*
X0910171Y0058985D01*
X0910268Y0059110D01*
X0910369Y0059232D01*
X0910473Y0059351D01*
X0910580Y0059468D01*
X0910690Y0059582D01*
X0910803Y0059693D01*
X0910918Y0059802D01*
X0911036Y0059907D01*
X0911157Y0060009D01*
X0911280Y0060109D01*
X0911406Y0060205D01*
X0911534Y0060298D01*
X0911664Y0060388D01*
X0911797Y0060474D01*
X0911932Y0060558D01*
X0912068Y0060637D01*
X0912207Y0060714D01*
X0912348Y0060786D01*
X0912490Y0060856D01*
X0912634Y0060921D01*
X0912780Y0060983D01*
X0912927Y0061041D01*
X0913076Y0061096D01*
X0913226Y0061147D01*
X0913377Y0061194D01*
X0913529Y0061237D01*
X0913682Y0061276D01*
X0913837Y0061312D01*
X0913992Y0061343D01*
X0914148Y0061371D01*
X0914304Y0061395D01*
X0914461Y0061415D01*
X0914619Y0061431D01*
X0914776Y0061443D01*
X0914935Y0061451D01*
X0915093Y0061455D01*
X0915251Y0061455D01*
X0915409Y0061451D01*
X0915568Y0061443D01*
X0915725Y0061431D01*
X0915883Y0061415D01*
X0916040Y0061395D01*
X0916196Y0061371D01*
X0916352Y0061343D01*
X0916507Y0061312D01*
X0916662Y0061276D01*
X0916815Y0061237D01*
X0916967Y0061194D01*
X0917118Y0061147D01*
X0917268Y0061096D01*
X0917417Y0061041D01*
X0917564Y0060983D01*
X0917710Y0060921D01*
X0917854Y0060856D01*
X0917996Y0060786D01*
X0918137Y0060714D01*
X0918276Y0060637D01*
X0918412Y0060558D01*
X0918547Y0060474D01*
X0918680Y0060388D01*
X0918810Y0060298D01*
X0918938Y0060205D01*
X0919064Y0060109D01*
X0919187Y0060009D01*
X0919308Y0059907D01*
X0919426Y0059802D01*
X0919541Y0059693D01*
X0919654Y0059582D01*
X0919764Y0059468D01*
X0919871Y0059351D01*
X0919975Y0059232D01*
X0920076Y0059110D01*
X0920173Y0058985D01*
X0920268Y0058858D01*
X0920359Y0058729D01*
X0920448Y0058598D01*
X0920532Y0058464D01*
X0920614Y0058328D01*
X0920692Y0058191D01*
X0920766Y0058051D01*
X0920837Y0057909D01*
X0920905Y0057766D01*
X0920969Y0057621D01*
X0921029Y0057475D01*
X0921085Y0057327D01*
X0921138Y0057178D01*
X0921187Y0057027D01*
X0921232Y0056875D01*
X0921273Y0056722D01*
X0921311Y0056569D01*
X0921344Y0056414D01*
X0921374Y0056258D01*
X0921400Y0056102D01*
X0921421Y0055945D01*
X0921439Y0055788D01*
X0921453Y0055630D01*
X0921463Y0055472D01*
X0921469Y0055314D01*
X0921471Y0055156D01*
X0921469Y0054998D01*
X0921463Y0054840D01*
X0921453Y0054682D01*
X0921439Y0054524D01*
X0921421Y0054367D01*
X0921400Y0054210D01*
X0921374Y0054054D01*
X0921344Y0053898D01*
X0921311Y0053743D01*
X0921273Y0053590D01*
X0921232Y0053437D01*
X0921187Y0053285D01*
X0921138Y0053134D01*
X0921085Y0052985D01*
X0921029Y0052837D01*
X0920969Y0052691D01*
X0920905Y0052546D01*
X0920837Y0052403D01*
X0920766Y0052261D01*
X0920692Y0052121D01*
X0920614Y0051984D01*
X0920532Y0051848D01*
X0920448Y0051714D01*
X0920359Y0051583D01*
X0920268Y0051454D01*
X0920173Y0051327D01*
X0920076Y0051202D01*
X0919975Y0051080D01*
X0919871Y0050961D01*
X0919764Y0050844D01*
X0919654Y0050730D01*
X0919541Y0050619D01*
X0919426Y0050510D01*
X0919308Y0050405D01*
X0919187Y0050303D01*
X0919064Y0050203D01*
X0918938Y0050107D01*
X0918810Y0050014D01*
X0918680Y0049924D01*
X0918547Y0049838D01*
X0918412Y0049754D01*
X0918276Y0049675D01*
X0918137Y0049598D01*
X0917996Y0049526D01*
X0917854Y0049456D01*
X0917710Y0049391D01*
X0917564Y0049329D01*
X0917417Y0049271D01*
X0917268Y0049216D01*
X0917118Y0049165D01*
X0916967Y0049118D01*
X0916815Y0049075D01*
X0916662Y0049036D01*
X0916507Y0049000D01*
X0916352Y0048969D01*
X0916196Y0048941D01*
X0916040Y0048917D01*
X0915883Y0048897D01*
X0915725Y0048881D01*
X0915568Y0048869D01*
X0915409Y0048861D01*
X0915251Y0048857D01*
X0915093Y0048857D01*
X0914935Y0048861D01*
X0914776Y0048869D01*
X0914619Y0048881D01*
X0914461Y0048897D01*
X0914304Y0048917D01*
X0914148Y0048941D01*
X0913992Y0048969D01*
X0913837Y0049000D01*
X0913682Y0049036D01*
X0913529Y0049075D01*
X0913377Y0049118D01*
X0913226Y0049165D01*
X0913076Y0049216D01*
X0912927Y0049271D01*
X0912780Y0049329D01*
X0912634Y0049391D01*
X0912490Y0049456D01*
X0912348Y0049526D01*
X0912207Y0049598D01*
X0912068Y0049675D01*
X0911932Y0049754D01*
X0911797Y0049838D01*
X0911664Y0049924D01*
X0911534Y0050014D01*
X0911406Y0050107D01*
X0911280Y0050203D01*
X0911157Y0050303D01*
X0911036Y0050405D01*
X0910918Y0050510D01*
X0910803Y0050619D01*
X0910690Y0050730D01*
X0910580Y0050844D01*
X0910473Y0050961D01*
X0910369Y0051080D01*
X0910268Y0051202D01*
X0910171Y0051327D01*
X0910076Y0051454D01*
X0909985Y0051583D01*
X0909896Y0051714D01*
X0909812Y0051848D01*
X0909730Y0051984D01*
X0909652Y0052121D01*
X0909578Y0052261D01*
X0909507Y0052403D01*
X0909439Y0052546D01*
X0909375Y0052691D01*
X0909315Y0052837D01*
X0909259Y0052985D01*
X0909206Y0053134D01*
X0909157Y0053285D01*
X0909112Y0053437D01*
X0909071Y0053590D01*
X0909033Y0053743D01*
X0909000Y0053898D01*
X0908970Y0054054D01*
X0908944Y0054210D01*
X0908923Y0054367D01*
X0908905Y0054524D01*
X0908891Y0054682D01*
X0908881Y0054840D01*
X0908875Y0054998D01*
X0908873Y0055156D01*
X0745373Y0384656D02*
X0745375Y0384814D01*
X0745381Y0384972D01*
X0745391Y0385130D01*
X0745405Y0385288D01*
X0745423Y0385445D01*
X0745444Y0385602D01*
X0745470Y0385758D01*
X0745500Y0385914D01*
X0745533Y0386069D01*
X0745571Y0386222D01*
X0745612Y0386375D01*
X0745657Y0386527D01*
X0745706Y0386678D01*
X0745759Y0386827D01*
X0745815Y0386975D01*
X0745875Y0387121D01*
X0745939Y0387266D01*
X0746007Y0387409D01*
X0746078Y0387551D01*
X0746152Y0387691D01*
X0746230Y0387828D01*
X0746312Y0387964D01*
X0746396Y0388098D01*
X0746485Y0388229D01*
X0746576Y0388358D01*
X0746671Y0388485D01*
X0746768Y0388610D01*
X0746869Y0388732D01*
X0746973Y0388851D01*
X0747080Y0388968D01*
X0747190Y0389082D01*
X0747303Y0389193D01*
X0747418Y0389302D01*
X0747536Y0389407D01*
X0747657Y0389509D01*
X0747780Y0389609D01*
X0747906Y0389705D01*
X0748034Y0389798D01*
X0748164Y0389888D01*
X0748297Y0389974D01*
X0748432Y0390058D01*
X0748568Y0390137D01*
X0748707Y0390214D01*
X0748848Y0390286D01*
X0748990Y0390356D01*
X0749134Y0390421D01*
X0749280Y0390483D01*
X0749427Y0390541D01*
X0749576Y0390596D01*
X0749726Y0390647D01*
X0749877Y0390694D01*
X0750029Y0390737D01*
X0750182Y0390776D01*
X0750337Y0390812D01*
X0750492Y0390843D01*
X0750648Y0390871D01*
X0750804Y0390895D01*
X0750961Y0390915D01*
X0751119Y0390931D01*
X0751276Y0390943D01*
X0751435Y0390951D01*
X0751593Y0390955D01*
X0751751Y0390955D01*
X0751909Y0390951D01*
X0752068Y0390943D01*
X0752225Y0390931D01*
X0752383Y0390915D01*
X0752540Y0390895D01*
X0752696Y0390871D01*
X0752852Y0390843D01*
X0753007Y0390812D01*
X0753162Y0390776D01*
X0753315Y0390737D01*
X0753467Y0390694D01*
X0753618Y0390647D01*
X0753768Y0390596D01*
X0753917Y0390541D01*
X0754064Y0390483D01*
X0754210Y0390421D01*
X0754354Y0390356D01*
X0754496Y0390286D01*
X0754637Y0390214D01*
X0754776Y0390137D01*
X0754912Y0390058D01*
X0755047Y0389974D01*
X0755180Y0389888D01*
X0755310Y0389798D01*
X0755438Y0389705D01*
X0755564Y0389609D01*
X0755687Y0389509D01*
X0755808Y0389407D01*
X0755926Y0389302D01*
X0756041Y0389193D01*
X0756154Y0389082D01*
X0756264Y0388968D01*
X0756371Y0388851D01*
X0756475Y0388732D01*
X0756576Y0388610D01*
X0756673Y0388485D01*
X0756768Y0388358D01*
X0756859Y0388229D01*
X0756948Y0388098D01*
X0757032Y0387964D01*
X0757114Y0387828D01*
X0757192Y0387691D01*
X0757266Y0387551D01*
X0757337Y0387409D01*
X0757405Y0387266D01*
X0757469Y0387121D01*
X0757529Y0386975D01*
X0757585Y0386827D01*
X0757638Y0386678D01*
X0757687Y0386527D01*
X0757732Y0386375D01*
X0757773Y0386222D01*
X0757811Y0386069D01*
X0757844Y0385914D01*
X0757874Y0385758D01*
X0757900Y0385602D01*
X0757921Y0385445D01*
X0757939Y0385288D01*
X0757953Y0385130D01*
X0757963Y0384972D01*
X0757969Y0384814D01*
X0757971Y0384656D01*
X0757969Y0384498D01*
X0757963Y0384340D01*
X0757953Y0384182D01*
X0757939Y0384024D01*
X0757921Y0383867D01*
X0757900Y0383710D01*
X0757874Y0383554D01*
X0757844Y0383398D01*
X0757811Y0383243D01*
X0757773Y0383090D01*
X0757732Y0382937D01*
X0757687Y0382785D01*
X0757638Y0382634D01*
X0757585Y0382485D01*
X0757529Y0382337D01*
X0757469Y0382191D01*
X0757405Y0382046D01*
X0757337Y0381903D01*
X0757266Y0381761D01*
X0757192Y0381621D01*
X0757114Y0381484D01*
X0757032Y0381348D01*
X0756948Y0381214D01*
X0756859Y0381083D01*
X0756768Y0380954D01*
X0756673Y0380827D01*
X0756576Y0380702D01*
X0756475Y0380580D01*
X0756371Y0380461D01*
X0756264Y0380344D01*
X0756154Y0380230D01*
X0756041Y0380119D01*
X0755926Y0380010D01*
X0755808Y0379905D01*
X0755687Y0379803D01*
X0755564Y0379703D01*
X0755438Y0379607D01*
X0755310Y0379514D01*
X0755180Y0379424D01*
X0755047Y0379338D01*
X0754912Y0379254D01*
X0754776Y0379175D01*
X0754637Y0379098D01*
X0754496Y0379026D01*
X0754354Y0378956D01*
X0754210Y0378891D01*
X0754064Y0378829D01*
X0753917Y0378771D01*
X0753768Y0378716D01*
X0753618Y0378665D01*
X0753467Y0378618D01*
X0753315Y0378575D01*
X0753162Y0378536D01*
X0753007Y0378500D01*
X0752852Y0378469D01*
X0752696Y0378441D01*
X0752540Y0378417D01*
X0752383Y0378397D01*
X0752225Y0378381D01*
X0752068Y0378369D01*
X0751909Y0378361D01*
X0751751Y0378357D01*
X0751593Y0378357D01*
X0751435Y0378361D01*
X0751276Y0378369D01*
X0751119Y0378381D01*
X0750961Y0378397D01*
X0750804Y0378417D01*
X0750648Y0378441D01*
X0750492Y0378469D01*
X0750337Y0378500D01*
X0750182Y0378536D01*
X0750029Y0378575D01*
X0749877Y0378618D01*
X0749726Y0378665D01*
X0749576Y0378716D01*
X0749427Y0378771D01*
X0749280Y0378829D01*
X0749134Y0378891D01*
X0748990Y0378956D01*
X0748848Y0379026D01*
X0748707Y0379098D01*
X0748568Y0379175D01*
X0748432Y0379254D01*
X0748297Y0379338D01*
X0748164Y0379424D01*
X0748034Y0379514D01*
X0747906Y0379607D01*
X0747780Y0379703D01*
X0747657Y0379803D01*
X0747536Y0379905D01*
X0747418Y0380010D01*
X0747303Y0380119D01*
X0747190Y0380230D01*
X0747080Y0380344D01*
X0746973Y0380461D01*
X0746869Y0380580D01*
X0746768Y0380702D01*
X0746671Y0380827D01*
X0746576Y0380954D01*
X0746485Y0381083D01*
X0746396Y0381214D01*
X0746312Y0381348D01*
X0746230Y0381484D01*
X0746152Y0381621D01*
X0746078Y0381761D01*
X0746007Y0381903D01*
X0745939Y0382046D01*
X0745875Y0382191D01*
X0745815Y0382337D01*
X0745759Y0382485D01*
X0745706Y0382634D01*
X0745657Y0382785D01*
X0745612Y0382937D01*
X0745571Y0383090D01*
X0745533Y0383243D01*
X0745500Y0383398D01*
X0745470Y0383554D01*
X0745444Y0383710D01*
X0745423Y0383867D01*
X0745405Y0384024D01*
X0745391Y0384182D01*
X0745381Y0384340D01*
X0745375Y0384498D01*
X0745373Y0384656D01*
X0765172Y0491656D02*
X0765172Y0492656D01*
X0909373Y0450656D02*
X0909375Y0450814D01*
X0909381Y0450972D01*
X0909391Y0451130D01*
X0909405Y0451288D01*
X0909423Y0451445D01*
X0909444Y0451602D01*
X0909470Y0451758D01*
X0909500Y0451914D01*
X0909533Y0452069D01*
X0909571Y0452222D01*
X0909612Y0452375D01*
X0909657Y0452527D01*
X0909706Y0452678D01*
X0909759Y0452827D01*
X0909815Y0452975D01*
X0909875Y0453121D01*
X0909939Y0453266D01*
X0910007Y0453409D01*
X0910078Y0453551D01*
X0910152Y0453691D01*
X0910230Y0453828D01*
X0910312Y0453964D01*
X0910396Y0454098D01*
X0910485Y0454229D01*
X0910576Y0454358D01*
X0910671Y0454485D01*
X0910768Y0454610D01*
X0910869Y0454732D01*
X0910973Y0454851D01*
X0911080Y0454968D01*
X0911190Y0455082D01*
X0911303Y0455193D01*
X0911418Y0455302D01*
X0911536Y0455407D01*
X0911657Y0455509D01*
X0911780Y0455609D01*
X0911906Y0455705D01*
X0912034Y0455798D01*
X0912164Y0455888D01*
X0912297Y0455974D01*
X0912432Y0456058D01*
X0912568Y0456137D01*
X0912707Y0456214D01*
X0912848Y0456286D01*
X0912990Y0456356D01*
X0913134Y0456421D01*
X0913280Y0456483D01*
X0913427Y0456541D01*
X0913576Y0456596D01*
X0913726Y0456647D01*
X0913877Y0456694D01*
X0914029Y0456737D01*
X0914182Y0456776D01*
X0914337Y0456812D01*
X0914492Y0456843D01*
X0914648Y0456871D01*
X0914804Y0456895D01*
X0914961Y0456915D01*
X0915119Y0456931D01*
X0915276Y0456943D01*
X0915435Y0456951D01*
X0915593Y0456955D01*
X0915751Y0456955D01*
X0915909Y0456951D01*
X0916068Y0456943D01*
X0916225Y0456931D01*
X0916383Y0456915D01*
X0916540Y0456895D01*
X0916696Y0456871D01*
X0916852Y0456843D01*
X0917007Y0456812D01*
X0917162Y0456776D01*
X0917315Y0456737D01*
X0917467Y0456694D01*
X0917618Y0456647D01*
X0917768Y0456596D01*
X0917917Y0456541D01*
X0918064Y0456483D01*
X0918210Y0456421D01*
X0918354Y0456356D01*
X0918496Y0456286D01*
X0918637Y0456214D01*
X0918776Y0456137D01*
X0918912Y0456058D01*
X0919047Y0455974D01*
X0919180Y0455888D01*
X0919310Y0455798D01*
X0919438Y0455705D01*
X0919564Y0455609D01*
X0919687Y0455509D01*
X0919808Y0455407D01*
X0919926Y0455302D01*
X0920041Y0455193D01*
X0920154Y0455082D01*
X0920264Y0454968D01*
X0920371Y0454851D01*
X0920475Y0454732D01*
X0920576Y0454610D01*
X0920673Y0454485D01*
X0920768Y0454358D01*
X0920859Y0454229D01*
X0920948Y0454098D01*
X0921032Y0453964D01*
X0921114Y0453828D01*
X0921192Y0453691D01*
X0921266Y0453551D01*
X0921337Y0453409D01*
X0921405Y0453266D01*
X0921469Y0453121D01*
X0921529Y0452975D01*
X0921585Y0452827D01*
X0921638Y0452678D01*
X0921687Y0452527D01*
X0921732Y0452375D01*
X0921773Y0452222D01*
X0921811Y0452069D01*
X0921844Y0451914D01*
X0921874Y0451758D01*
X0921900Y0451602D01*
X0921921Y0451445D01*
X0921939Y0451288D01*
X0921953Y0451130D01*
X0921963Y0450972D01*
X0921969Y0450814D01*
X0921971Y0450656D01*
X0921969Y0450498D01*
X0921963Y0450340D01*
X0921953Y0450182D01*
X0921939Y0450024D01*
X0921921Y0449867D01*
X0921900Y0449710D01*
X0921874Y0449554D01*
X0921844Y0449398D01*
X0921811Y0449243D01*
X0921773Y0449090D01*
X0921732Y0448937D01*
X0921687Y0448785D01*
X0921638Y0448634D01*
X0921585Y0448485D01*
X0921529Y0448337D01*
X0921469Y0448191D01*
X0921405Y0448046D01*
X0921337Y0447903D01*
X0921266Y0447761D01*
X0921192Y0447621D01*
X0921114Y0447484D01*
X0921032Y0447348D01*
X0920948Y0447214D01*
X0920859Y0447083D01*
X0920768Y0446954D01*
X0920673Y0446827D01*
X0920576Y0446702D01*
X0920475Y0446580D01*
X0920371Y0446461D01*
X0920264Y0446344D01*
X0920154Y0446230D01*
X0920041Y0446119D01*
X0919926Y0446010D01*
X0919808Y0445905D01*
X0919687Y0445803D01*
X0919564Y0445703D01*
X0919438Y0445607D01*
X0919310Y0445514D01*
X0919180Y0445424D01*
X0919047Y0445338D01*
X0918912Y0445254D01*
X0918776Y0445175D01*
X0918637Y0445098D01*
X0918496Y0445026D01*
X0918354Y0444956D01*
X0918210Y0444891D01*
X0918064Y0444829D01*
X0917917Y0444771D01*
X0917768Y0444716D01*
X0917618Y0444665D01*
X0917467Y0444618D01*
X0917315Y0444575D01*
X0917162Y0444536D01*
X0917007Y0444500D01*
X0916852Y0444469D01*
X0916696Y0444441D01*
X0916540Y0444417D01*
X0916383Y0444397D01*
X0916225Y0444381D01*
X0916068Y0444369D01*
X0915909Y0444361D01*
X0915751Y0444357D01*
X0915593Y0444357D01*
X0915435Y0444361D01*
X0915276Y0444369D01*
X0915119Y0444381D01*
X0914961Y0444397D01*
X0914804Y0444417D01*
X0914648Y0444441D01*
X0914492Y0444469D01*
X0914337Y0444500D01*
X0914182Y0444536D01*
X0914029Y0444575D01*
X0913877Y0444618D01*
X0913726Y0444665D01*
X0913576Y0444716D01*
X0913427Y0444771D01*
X0913280Y0444829D01*
X0913134Y0444891D01*
X0912990Y0444956D01*
X0912848Y0445026D01*
X0912707Y0445098D01*
X0912568Y0445175D01*
X0912432Y0445254D01*
X0912297Y0445338D01*
X0912164Y0445424D01*
X0912034Y0445514D01*
X0911906Y0445607D01*
X0911780Y0445703D01*
X0911657Y0445803D01*
X0911536Y0445905D01*
X0911418Y0446010D01*
X0911303Y0446119D01*
X0911190Y0446230D01*
X0911080Y0446344D01*
X0910973Y0446461D01*
X0910869Y0446580D01*
X0910768Y0446702D01*
X0910671Y0446827D01*
X0910576Y0446954D01*
X0910485Y0447083D01*
X0910396Y0447214D01*
X0910312Y0447348D01*
X0910230Y0447484D01*
X0910152Y0447621D01*
X0910078Y0447761D01*
X0910007Y0447903D01*
X0909939Y0448046D01*
X0909875Y0448191D01*
X0909815Y0448337D01*
X0909759Y0448485D01*
X0909706Y0448634D01*
X0909657Y0448785D01*
X0909612Y0448937D01*
X0909571Y0449090D01*
X0909533Y0449243D01*
X0909500Y0449398D01*
X0909470Y0449554D01*
X0909444Y0449710D01*
X0909423Y0449867D01*
X0909405Y0450024D01*
X0909391Y0450182D01*
X0909381Y0450340D01*
X0909375Y0450498D01*
X0909373Y0450656D01*
X0533873Y0582656D02*
X0533875Y0582814D01*
X0533881Y0582972D01*
X0533891Y0583130D01*
X0533905Y0583288D01*
X0533923Y0583445D01*
X0533944Y0583602D01*
X0533970Y0583758D01*
X0534000Y0583914D01*
X0534033Y0584069D01*
X0534071Y0584222D01*
X0534112Y0584375D01*
X0534157Y0584527D01*
X0534206Y0584678D01*
X0534259Y0584827D01*
X0534315Y0584975D01*
X0534375Y0585121D01*
X0534439Y0585266D01*
X0534507Y0585409D01*
X0534578Y0585551D01*
X0534652Y0585691D01*
X0534730Y0585828D01*
X0534812Y0585964D01*
X0534896Y0586098D01*
X0534985Y0586229D01*
X0535076Y0586358D01*
X0535171Y0586485D01*
X0535268Y0586610D01*
X0535369Y0586732D01*
X0535473Y0586851D01*
X0535580Y0586968D01*
X0535690Y0587082D01*
X0535803Y0587193D01*
X0535918Y0587302D01*
X0536036Y0587407D01*
X0536157Y0587509D01*
X0536280Y0587609D01*
X0536406Y0587705D01*
X0536534Y0587798D01*
X0536664Y0587888D01*
X0536797Y0587974D01*
X0536932Y0588058D01*
X0537068Y0588137D01*
X0537207Y0588214D01*
X0537348Y0588286D01*
X0537490Y0588356D01*
X0537634Y0588421D01*
X0537780Y0588483D01*
X0537927Y0588541D01*
X0538076Y0588596D01*
X0538226Y0588647D01*
X0538377Y0588694D01*
X0538529Y0588737D01*
X0538682Y0588776D01*
X0538837Y0588812D01*
X0538992Y0588843D01*
X0539148Y0588871D01*
X0539304Y0588895D01*
X0539461Y0588915D01*
X0539619Y0588931D01*
X0539776Y0588943D01*
X0539935Y0588951D01*
X0540093Y0588955D01*
X0540251Y0588955D01*
X0540409Y0588951D01*
X0540568Y0588943D01*
X0540725Y0588931D01*
X0540883Y0588915D01*
X0541040Y0588895D01*
X0541196Y0588871D01*
X0541352Y0588843D01*
X0541507Y0588812D01*
X0541662Y0588776D01*
X0541815Y0588737D01*
X0541967Y0588694D01*
X0542118Y0588647D01*
X0542268Y0588596D01*
X0542417Y0588541D01*
X0542564Y0588483D01*
X0542710Y0588421D01*
X0542854Y0588356D01*
X0542996Y0588286D01*
X0543137Y0588214D01*
X0543276Y0588137D01*
X0543412Y0588058D01*
X0543547Y0587974D01*
X0543680Y0587888D01*
X0543810Y0587798D01*
X0543938Y0587705D01*
X0544064Y0587609D01*
X0544187Y0587509D01*
X0544308Y0587407D01*
X0544426Y0587302D01*
X0544541Y0587193D01*
X0544654Y0587082D01*
X0544764Y0586968D01*
X0544871Y0586851D01*
X0544975Y0586732D01*
X0545076Y0586610D01*
X0545173Y0586485D01*
X0545268Y0586358D01*
X0545359Y0586229D01*
X0545448Y0586098D01*
X0545532Y0585964D01*
X0545614Y0585828D01*
X0545692Y0585691D01*
X0545766Y0585551D01*
X0545837Y0585409D01*
X0545905Y0585266D01*
X0545969Y0585121D01*
X0546029Y0584975D01*
X0546085Y0584827D01*
X0546138Y0584678D01*
X0546187Y0584527D01*
X0546232Y0584375D01*
X0546273Y0584222D01*
X0546311Y0584069D01*
X0546344Y0583914D01*
X0546374Y0583758D01*
X0546400Y0583602D01*
X0546421Y0583445D01*
X0546439Y0583288D01*
X0546453Y0583130D01*
X0546463Y0582972D01*
X0546469Y0582814D01*
X0546471Y0582656D01*
X0546469Y0582498D01*
X0546463Y0582340D01*
X0546453Y0582182D01*
X0546439Y0582024D01*
X0546421Y0581867D01*
X0546400Y0581710D01*
X0546374Y0581554D01*
X0546344Y0581398D01*
X0546311Y0581243D01*
X0546273Y0581090D01*
X0546232Y0580937D01*
X0546187Y0580785D01*
X0546138Y0580634D01*
X0546085Y0580485D01*
X0546029Y0580337D01*
X0545969Y0580191D01*
X0545905Y0580046D01*
X0545837Y0579903D01*
X0545766Y0579761D01*
X0545692Y0579621D01*
X0545614Y0579484D01*
X0545532Y0579348D01*
X0545448Y0579214D01*
X0545359Y0579083D01*
X0545268Y0578954D01*
X0545173Y0578827D01*
X0545076Y0578702D01*
X0544975Y0578580D01*
X0544871Y0578461D01*
X0544764Y0578344D01*
X0544654Y0578230D01*
X0544541Y0578119D01*
X0544426Y0578010D01*
X0544308Y0577905D01*
X0544187Y0577803D01*
X0544064Y0577703D01*
X0543938Y0577607D01*
X0543810Y0577514D01*
X0543680Y0577424D01*
X0543547Y0577338D01*
X0543412Y0577254D01*
X0543276Y0577175D01*
X0543137Y0577098D01*
X0542996Y0577026D01*
X0542854Y0576956D01*
X0542710Y0576891D01*
X0542564Y0576829D01*
X0542417Y0576771D01*
X0542268Y0576716D01*
X0542118Y0576665D01*
X0541967Y0576618D01*
X0541815Y0576575D01*
X0541662Y0576536D01*
X0541507Y0576500D01*
X0541352Y0576469D01*
X0541196Y0576441D01*
X0541040Y0576417D01*
X0540883Y0576397D01*
X0540725Y0576381D01*
X0540568Y0576369D01*
X0540409Y0576361D01*
X0540251Y0576357D01*
X0540093Y0576357D01*
X0539935Y0576361D01*
X0539776Y0576369D01*
X0539619Y0576381D01*
X0539461Y0576397D01*
X0539304Y0576417D01*
X0539148Y0576441D01*
X0538992Y0576469D01*
X0538837Y0576500D01*
X0538682Y0576536D01*
X0538529Y0576575D01*
X0538377Y0576618D01*
X0538226Y0576665D01*
X0538076Y0576716D01*
X0537927Y0576771D01*
X0537780Y0576829D01*
X0537634Y0576891D01*
X0537490Y0576956D01*
X0537348Y0577026D01*
X0537207Y0577098D01*
X0537068Y0577175D01*
X0536932Y0577254D01*
X0536797Y0577338D01*
X0536664Y0577424D01*
X0536534Y0577514D01*
X0536406Y0577607D01*
X0536280Y0577703D01*
X0536157Y0577803D01*
X0536036Y0577905D01*
X0535918Y0578010D01*
X0535803Y0578119D01*
X0535690Y0578230D01*
X0535580Y0578344D01*
X0535473Y0578461D01*
X0535369Y0578580D01*
X0535268Y0578702D01*
X0535171Y0578827D01*
X0535076Y0578954D01*
X0534985Y0579083D01*
X0534896Y0579214D01*
X0534812Y0579348D01*
X0534730Y0579484D01*
X0534652Y0579621D01*
X0534578Y0579761D01*
X0534507Y0579903D01*
X0534439Y0580046D01*
X0534375Y0580191D01*
X0534315Y0580337D01*
X0534259Y0580485D01*
X0534206Y0580634D01*
X0534157Y0580785D01*
X0534112Y0580937D01*
X0534071Y0581090D01*
X0534033Y0581243D01*
X0534000Y0581398D01*
X0533970Y0581554D01*
X0533944Y0581710D01*
X0533923Y0581867D01*
X0533905Y0582024D01*
X0533891Y0582182D01*
X0533881Y0582340D01*
X0533875Y0582498D01*
X0533873Y0582656D01*
X0350873Y0475656D02*
X0350875Y0475814D01*
X0350881Y0475972D01*
X0350891Y0476130D01*
X0350905Y0476288D01*
X0350923Y0476445D01*
X0350944Y0476602D01*
X0350970Y0476758D01*
X0351000Y0476914D01*
X0351033Y0477069D01*
X0351071Y0477222D01*
X0351112Y0477375D01*
X0351157Y0477527D01*
X0351206Y0477678D01*
X0351259Y0477827D01*
X0351315Y0477975D01*
X0351375Y0478121D01*
X0351439Y0478266D01*
X0351507Y0478409D01*
X0351578Y0478551D01*
X0351652Y0478691D01*
X0351730Y0478828D01*
X0351812Y0478964D01*
X0351896Y0479098D01*
X0351985Y0479229D01*
X0352076Y0479358D01*
X0352171Y0479485D01*
X0352268Y0479610D01*
X0352369Y0479732D01*
X0352473Y0479851D01*
X0352580Y0479968D01*
X0352690Y0480082D01*
X0352803Y0480193D01*
X0352918Y0480302D01*
X0353036Y0480407D01*
X0353157Y0480509D01*
X0353280Y0480609D01*
X0353406Y0480705D01*
X0353534Y0480798D01*
X0353664Y0480888D01*
X0353797Y0480974D01*
X0353932Y0481058D01*
X0354068Y0481137D01*
X0354207Y0481214D01*
X0354348Y0481286D01*
X0354490Y0481356D01*
X0354634Y0481421D01*
X0354780Y0481483D01*
X0354927Y0481541D01*
X0355076Y0481596D01*
X0355226Y0481647D01*
X0355377Y0481694D01*
X0355529Y0481737D01*
X0355682Y0481776D01*
X0355837Y0481812D01*
X0355992Y0481843D01*
X0356148Y0481871D01*
X0356304Y0481895D01*
X0356461Y0481915D01*
X0356619Y0481931D01*
X0356776Y0481943D01*
X0356935Y0481951D01*
X0357093Y0481955D01*
X0357251Y0481955D01*
X0357409Y0481951D01*
X0357568Y0481943D01*
X0357725Y0481931D01*
X0357883Y0481915D01*
X0358040Y0481895D01*
X0358196Y0481871D01*
X0358352Y0481843D01*
X0358507Y0481812D01*
X0358662Y0481776D01*
X0358815Y0481737D01*
X0358967Y0481694D01*
X0359118Y0481647D01*
X0359268Y0481596D01*
X0359417Y0481541D01*
X0359564Y0481483D01*
X0359710Y0481421D01*
X0359854Y0481356D01*
X0359996Y0481286D01*
X0360137Y0481214D01*
X0360276Y0481137D01*
X0360412Y0481058D01*
X0360547Y0480974D01*
X0360680Y0480888D01*
X0360810Y0480798D01*
X0360938Y0480705D01*
X0361064Y0480609D01*
X0361187Y0480509D01*
X0361308Y0480407D01*
X0361426Y0480302D01*
X0361541Y0480193D01*
X0361654Y0480082D01*
X0361764Y0479968D01*
X0361871Y0479851D01*
X0361975Y0479732D01*
X0362076Y0479610D01*
X0362173Y0479485D01*
X0362268Y0479358D01*
X0362359Y0479229D01*
X0362448Y0479098D01*
X0362532Y0478964D01*
X0362614Y0478828D01*
X0362692Y0478691D01*
X0362766Y0478551D01*
X0362837Y0478409D01*
X0362905Y0478266D01*
X0362969Y0478121D01*
X0363029Y0477975D01*
X0363085Y0477827D01*
X0363138Y0477678D01*
X0363187Y0477527D01*
X0363232Y0477375D01*
X0363273Y0477222D01*
X0363311Y0477069D01*
X0363344Y0476914D01*
X0363374Y0476758D01*
X0363400Y0476602D01*
X0363421Y0476445D01*
X0363439Y0476288D01*
X0363453Y0476130D01*
X0363463Y0475972D01*
X0363469Y0475814D01*
X0363471Y0475656D01*
X0363469Y0475498D01*
X0363463Y0475340D01*
X0363453Y0475182D01*
X0363439Y0475024D01*
X0363421Y0474867D01*
X0363400Y0474710D01*
X0363374Y0474554D01*
X0363344Y0474398D01*
X0363311Y0474243D01*
X0363273Y0474090D01*
X0363232Y0473937D01*
X0363187Y0473785D01*
X0363138Y0473634D01*
X0363085Y0473485D01*
X0363029Y0473337D01*
X0362969Y0473191D01*
X0362905Y0473046D01*
X0362837Y0472903D01*
X0362766Y0472761D01*
X0362692Y0472621D01*
X0362614Y0472484D01*
X0362532Y0472348D01*
X0362448Y0472214D01*
X0362359Y0472083D01*
X0362268Y0471954D01*
X0362173Y0471827D01*
X0362076Y0471702D01*
X0361975Y0471580D01*
X0361871Y0471461D01*
X0361764Y0471344D01*
X0361654Y0471230D01*
X0361541Y0471119D01*
X0361426Y0471010D01*
X0361308Y0470905D01*
X0361187Y0470803D01*
X0361064Y0470703D01*
X0360938Y0470607D01*
X0360810Y0470514D01*
X0360680Y0470424D01*
X0360547Y0470338D01*
X0360412Y0470254D01*
X0360276Y0470175D01*
X0360137Y0470098D01*
X0359996Y0470026D01*
X0359854Y0469956D01*
X0359710Y0469891D01*
X0359564Y0469829D01*
X0359417Y0469771D01*
X0359268Y0469716D01*
X0359118Y0469665D01*
X0358967Y0469618D01*
X0358815Y0469575D01*
X0358662Y0469536D01*
X0358507Y0469500D01*
X0358352Y0469469D01*
X0358196Y0469441D01*
X0358040Y0469417D01*
X0357883Y0469397D01*
X0357725Y0469381D01*
X0357568Y0469369D01*
X0357409Y0469361D01*
X0357251Y0469357D01*
X0357093Y0469357D01*
X0356935Y0469361D01*
X0356776Y0469369D01*
X0356619Y0469381D01*
X0356461Y0469397D01*
X0356304Y0469417D01*
X0356148Y0469441D01*
X0355992Y0469469D01*
X0355837Y0469500D01*
X0355682Y0469536D01*
X0355529Y0469575D01*
X0355377Y0469618D01*
X0355226Y0469665D01*
X0355076Y0469716D01*
X0354927Y0469771D01*
X0354780Y0469829D01*
X0354634Y0469891D01*
X0354490Y0469956D01*
X0354348Y0470026D01*
X0354207Y0470098D01*
X0354068Y0470175D01*
X0353932Y0470254D01*
X0353797Y0470338D01*
X0353664Y0470424D01*
X0353534Y0470514D01*
X0353406Y0470607D01*
X0353280Y0470703D01*
X0353157Y0470803D01*
X0353036Y0470905D01*
X0352918Y0471010D01*
X0352803Y0471119D01*
X0352690Y0471230D01*
X0352580Y0471344D01*
X0352473Y0471461D01*
X0352369Y0471580D01*
X0352268Y0471702D01*
X0352171Y0471827D01*
X0352076Y0471954D01*
X0351985Y0472083D01*
X0351896Y0472214D01*
X0351812Y0472348D01*
X0351730Y0472484D01*
X0351652Y0472621D01*
X0351578Y0472761D01*
X0351507Y0472903D01*
X0351439Y0473046D01*
X0351375Y0473191D01*
X0351315Y0473337D01*
X0351259Y0473485D01*
X0351206Y0473634D01*
X0351157Y0473785D01*
X0351112Y0473937D01*
X0351071Y0474090D01*
X0351033Y0474243D01*
X0351000Y0474398D01*
X0350970Y0474554D01*
X0350944Y0474710D01*
X0350923Y0474867D01*
X0350905Y0475024D01*
X0350891Y0475182D01*
X0350881Y0475340D01*
X0350875Y0475498D01*
X0350873Y0475656D01*
D11*
X0865647Y0330498D02*
X0872697Y0330498D01*
X0872697Y0310813D02*
X0865647Y0310813D01*
X0897147Y0127498D02*
X0904197Y0127498D01*
X0904197Y0107813D02*
X0897147Y0107813D01*
X0892618Y0520471D02*
X0885568Y0520471D01*
X0885568Y0540156D02*
X0892618Y0540156D01*
X0892618Y0559841D02*
X0885568Y0559841D01*
D12*
X0850897Y0148156D02*
X0841447Y0148156D01*
X0841447Y0128156D02*
X0850897Y0128156D01*
X0850897Y0108156D02*
X0841447Y0108156D01*
X0841447Y0088156D02*
X0850897Y0088156D01*
D13*
X0574172Y0098156D03*
X0610672Y0490656D03*
X0765172Y0492656D03*
D14*
X0765172Y0532656D03*
X0610672Y0530656D03*
X0574172Y0138156D03*
D15*
X0593172Y0401156D03*
X0593172Y0431156D03*
D16*
X0760172Y0124656D03*
D17*
X0760172Y0110656D03*
D18*
X0471672Y0118156D03*
X0471672Y0266156D03*
X0487172Y0409656D03*
X0487172Y0557656D03*
X0231672Y0586656D03*
X0231672Y0438656D03*
X0233672Y0268656D03*
X0233672Y0120656D03*
D19*
X0690672Y0121656D02*
X0696672Y0121656D01*
X0696672Y0111656D02*
X0690672Y0111656D01*
X0690672Y0131656D02*
X0696672Y0131656D01*
D20*
X0599172Y0202156D03*
X0589172Y0202156D03*
X0217172Y0387156D03*
X0217172Y0397156D03*
D21*
X0237172Y0406656D03*
X0287172Y0406656D03*
X0359172Y0393656D03*
X0359172Y0353656D03*
X0384172Y0332656D03*
X0431172Y0352656D03*
X0468672Y0362156D03*
X0445172Y0380656D03*
X0431172Y0392656D03*
X0445172Y0420656D03*
X0558672Y0342656D03*
X0561672Y0325656D03*
X0563172Y0302656D03*
X0603172Y0302656D03*
X0601672Y0325656D03*
X0598672Y0342656D03*
X0605672Y0376156D03*
X0655672Y0376156D03*
X0689172Y0279156D03*
X0725672Y0279656D03*
X0754172Y0237156D03*
X0781172Y0235656D03*
X0781172Y0195656D03*
X0754172Y0197156D03*
X0725672Y0229656D03*
X0689172Y0229156D03*
X0555672Y0201656D03*
X0515672Y0201656D03*
X0418172Y0147656D03*
X0418172Y0107656D03*
X0384672Y0278656D03*
X0384172Y0292656D03*
X0344672Y0278656D03*
X0468672Y0322156D03*
X0687672Y0482656D03*
X0687672Y0532656D03*
D22*
X0236833Y0351841D02*
X0229746Y0351841D01*
X0229746Y0332156D02*
X0236833Y0332156D01*
X0236833Y0312471D02*
X0229746Y0312471D01*
X0207306Y0312471D02*
X0200219Y0312471D01*
X0200219Y0332156D02*
X0207306Y0332156D01*
X0207306Y0351841D02*
X0200219Y0351841D01*
D23*
X0727172Y0375156D03*
X0727172Y0395156D03*
X0742172Y0410156D03*
X0762172Y0410156D03*
X0777172Y0375156D03*
X0762172Y0360156D03*
X0742172Y0360156D03*
D24*
X0393077Y0448931D03*
X0370782Y0432950D03*
X0343359Y0432601D03*
X0321021Y0449492D03*
X0312551Y0475470D03*
X0320797Y0502283D03*
X0341833Y0518505D03*
X0370301Y0518808D03*
X0393297Y0501964D03*
X0363801Y0227308D03*
X0335333Y0227005D03*
X0314297Y0210783D03*
X0306051Y0183970D03*
X0314521Y0157992D03*
X0336859Y0141101D03*
X0364282Y0141450D03*
X0386577Y0157431D03*
X0386797Y0210464D03*
D25*
X0352672Y0074156D03*
X0367672Y0054156D03*
X0311172Y0054156D03*
X0294672Y0073656D03*
X0299672Y0571156D03*
X0316172Y0590656D03*
X0357672Y0570656D03*
X0372672Y0590656D03*
D26*
X0642672Y0236156D03*
D27*
X0642672Y0262156D01*
X0623672Y0281156D01*
X0623672Y0358156D01*
X0605672Y0376156D01*
X0593172Y0388656D01*
X0593172Y0401156D01*
X0604172Y0400577D02*
X0633172Y0400577D01*
X0633172Y0393578D02*
X0604172Y0393578D01*
X0604172Y0393212D02*
X0604172Y0402604D01*
X0603472Y0405217D01*
X0603472Y0405422D01*
X0603326Y0405568D01*
X0601974Y0407910D01*
X0599926Y0409958D01*
X0597584Y0411310D01*
X0597438Y0411456D01*
X0597232Y0411456D01*
X0594620Y0412156D01*
X0591723Y0412156D01*
X0589111Y0411456D01*
X0588905Y0411456D01*
X0588760Y0411310D01*
X0586417Y0409958D01*
X0584369Y0407910D01*
X0583017Y0405568D01*
X0582872Y0405422D01*
X0582872Y0405217D01*
X0582172Y0402604D01*
X0582172Y0387208D01*
X0582921Y0384410D01*
X0584369Y0381902D01*
X0596869Y0369402D01*
X0596869Y0369402D01*
X0612672Y0353600D01*
X0612672Y0279708D01*
X0613421Y0276910D01*
X0614869Y0274402D01*
X0616917Y0272354D01*
X0631672Y0257600D01*
X0631672Y0256763D01*
X0631660Y0256758D01*
X0627852Y0254214D01*
X0624614Y0250976D01*
X0622070Y0247168D01*
X0620317Y0242937D01*
X0619424Y0238446D01*
X0619424Y0233866D01*
X0620317Y0229375D01*
X0622070Y0225144D01*
X0624614Y0221336D01*
X0627852Y0218098D01*
X0631660Y0215554D01*
X0635890Y0213801D01*
X0640382Y0212908D01*
X0644961Y0212908D01*
X0649453Y0213801D01*
X0653684Y0215554D01*
X0657491Y0218098D01*
X0660730Y0221336D01*
X0663274Y0225144D01*
X0665026Y0229375D01*
X0665920Y0233866D01*
X0665920Y0238446D01*
X0665026Y0242937D01*
X0663274Y0247168D01*
X0660730Y0250976D01*
X0657491Y0254214D01*
X0653684Y0256758D01*
X0653672Y0256763D01*
X0653672Y0263604D01*
X0652922Y0266402D01*
X0651474Y0268910D01*
X0634672Y0285712D01*
X0634672Y0287610D01*
X0635369Y0286402D01*
X0637417Y0284354D01*
X0678172Y0243600D01*
X0678172Y0227708D01*
X0678921Y0224910D01*
X0680369Y0222402D01*
X0682417Y0220354D01*
X0684926Y0218906D01*
X0687723Y0218156D01*
X0690620Y0218156D01*
X0693417Y0218906D01*
X0695926Y0220354D01*
X0697974Y0222402D01*
X0699422Y0224910D01*
X0700172Y0227708D01*
X0700172Y0249604D01*
X0699422Y0252402D01*
X0697974Y0254910D01*
X0655172Y0297712D01*
X0655172Y0369056D01*
X0655672Y0369056D01*
X0658613Y0369056D01*
X0662772Y0373215D01*
X0662772Y0376156D01*
X0662772Y0379097D01*
X0658613Y0383256D01*
X0655672Y0383256D01*
X0655672Y0376156D01*
X0662772Y0376156D01*
X0655672Y0376156D01*
X0655672Y0376156D01*
X0655672Y0376156D01*
X0655672Y0369056D01*
X0655672Y0376156D01*
X0655672Y0376156D01*
X0655672Y0383256D01*
X0655172Y0383256D01*
X0655172Y0425100D01*
X0668228Y0438156D01*
X0723120Y0438156D01*
X0725917Y0438906D01*
X0728426Y0440354D01*
X0764178Y0476106D01*
X0767351Y0476106D01*
X0771560Y0477234D01*
X0775334Y0479413D01*
X0778415Y0482494D01*
X0780594Y0486268D01*
X0781722Y0490477D01*
X0781722Y0494835D01*
X0780594Y0499044D01*
X0778415Y0502818D01*
X0775334Y0505899D01*
X0771560Y0508078D01*
X0767351Y0509206D01*
X0762993Y0509206D01*
X0758784Y0508078D01*
X0755010Y0505899D01*
X0751928Y0502818D01*
X0749750Y0499044D01*
X0748622Y0494835D01*
X0748622Y0491662D01*
X0717115Y0460156D01*
X0662223Y0460156D01*
X0659426Y0459406D01*
X0656917Y0457958D01*
X0654869Y0455910D01*
X0635369Y0436410D01*
X0633921Y0433902D01*
X0633172Y0431104D01*
X0633172Y0363701D01*
X0632474Y0364910D01*
X0612426Y0384958D01*
X0612426Y0384958D01*
X0604172Y0393212D01*
X0610804Y0386580D02*
X0633172Y0386580D01*
X0633172Y0379581D02*
X0617802Y0379581D01*
X0624801Y0372583D02*
X0633172Y0372583D01*
X0633172Y0365584D02*
X0631799Y0365584D01*
X0612672Y0351587D02*
X0565202Y0351587D01*
X0565426Y0351458D02*
X0562917Y0352906D01*
X0560120Y0353656D01*
X0474455Y0353656D01*
X0478772Y0357972D01*
X0478772Y0366339D01*
X0472855Y0372256D01*
X0464488Y0372256D01*
X0458572Y0366339D01*
X0458572Y0357972D01*
X0462888Y0353656D01*
X0442172Y0353656D01*
X0442172Y0354104D01*
X0441422Y0356902D01*
X0439974Y0359410D01*
X0437926Y0361458D01*
X0435417Y0362906D01*
X0432620Y0363656D01*
X0426228Y0363656D01*
X0414172Y0375712D01*
X0414172Y0397238D01*
X0415435Y0398502D01*
X0416577Y0401259D01*
X0416577Y0416053D01*
X0415435Y0418810D01*
X0413326Y0420920D01*
X0410569Y0422061D01*
X0395774Y0422061D01*
X0393018Y0420920D01*
X0390908Y0418810D01*
X0389766Y0416053D01*
X0389766Y0401259D01*
X0390908Y0398502D01*
X0392172Y0397238D01*
X0392172Y0369708D01*
X0392921Y0366910D01*
X0394369Y0364402D01*
X0396417Y0362354D01*
X0405115Y0353656D01*
X0359172Y0353656D01*
X0366272Y0353656D01*
X0366272Y0356597D01*
X0362113Y0360756D01*
X0359172Y0360756D01*
X0359172Y0353656D01*
X0359172Y0353656D01*
X0359172Y0353656D01*
X0359172Y0360756D01*
X0356231Y0360756D01*
X0352072Y0356597D01*
X0352072Y0353656D01*
X0359172Y0353656D01*
X0359172Y0353656D01*
X0348577Y0353656D01*
X0348577Y0362553D01*
X0347435Y0365310D01*
X0346172Y0366574D01*
X0346172Y0413684D01*
X0350693Y0414895D01*
X0355025Y0417397D01*
X0357245Y0419616D01*
X0359115Y0417746D01*
X0363448Y0415245D01*
X0368280Y0413950D01*
X0373283Y0413950D01*
X0378115Y0415245D01*
X0382448Y0417746D01*
X0385985Y0421283D01*
X0388487Y0425616D01*
X0389782Y0430448D01*
X0389782Y0433273D01*
X0390727Y0433085D01*
X0392291Y0432931D01*
X0393077Y0432931D01*
X0393077Y0448931D01*
X0393077Y0448931D01*
X0394353Y0447656D01*
X0395172Y0447656D01*
X0445172Y0397656D01*
X0559672Y0397656D01*
X0593172Y0431156D01*
X0600472Y0431156D01*
X0600472Y0434180D01*
X0596195Y0438456D01*
X0593172Y0438456D01*
X0593172Y0431156D01*
X0593172Y0431156D01*
X0600472Y0431156D01*
X0600472Y0428132D01*
X0596195Y0423856D01*
X0593172Y0423856D01*
X0593172Y0431156D01*
X0593172Y0431156D01*
X0593172Y0431156D01*
X0593172Y0438456D01*
X0590148Y0438456D01*
X0585872Y0434180D01*
X0585872Y0431156D01*
X0593172Y0431156D01*
X0593172Y0423856D01*
X0590148Y0423856D01*
X0585872Y0428132D01*
X0585872Y0431156D01*
X0593172Y0431156D01*
X0593172Y0431156D01*
X0593172Y0428571D02*
X0593172Y0428571D01*
X0593172Y0435570D02*
X0593172Y0435570D01*
X0599082Y0435570D02*
X0634884Y0435570D01*
X0633172Y0428571D02*
X0600472Y0428571D01*
X0587262Y0435570D02*
X0512256Y0435570D01*
X0511069Y0436061D02*
X0513826Y0434920D01*
X0515935Y0432810D01*
X0517077Y0430053D01*
X0517077Y0415259D01*
X0515935Y0412502D01*
X0513826Y0410392D01*
X0511069Y0409250D01*
X0498572Y0409250D01*
X0498572Y0404934D01*
X0491894Y0398256D01*
X0482450Y0398256D01*
X0475772Y0404934D01*
X0475772Y0414378D01*
X0482450Y0421056D01*
X0489715Y0421056D01*
X0438941Y0471830D01*
X0439672Y0469104D01*
X0439672Y0460074D01*
X0440935Y0458810D01*
X0442077Y0456053D01*
X0442077Y0441259D01*
X0440935Y0438502D01*
X0438826Y0436392D01*
X0436069Y0435250D01*
X0421274Y0435250D01*
X0418518Y0436392D01*
X0416408Y0438502D01*
X0415266Y0441259D01*
X0415266Y0456053D01*
X0416408Y0458810D01*
X0417672Y0460074D01*
X0417672Y0460156D01*
X0404480Y0460156D01*
X0404947Y0459689D01*
X0405944Y0458474D01*
X0406818Y0457167D01*
X0407559Y0455780D01*
X0408160Y0454328D01*
X0408617Y0452823D01*
X0408923Y0451282D01*
X0409077Y0449717D01*
X0409077Y0448931D01*
X0393078Y0448931D01*
X0393078Y0448931D01*
X0409077Y0448931D01*
X0409077Y0448145D01*
X0408923Y0446581D01*
X0408617Y0445039D01*
X0408160Y0443534D01*
X0407559Y0442082D01*
X0406818Y0440695D01*
X0405944Y0439388D01*
X0404947Y0438173D01*
X0403835Y0437062D01*
X0402620Y0436064D01*
X0401313Y0435191D01*
X0399927Y0434450D01*
X0398474Y0433848D01*
X0396970Y0433392D01*
X0395428Y0433085D01*
X0393863Y0432931D01*
X0393077Y0432931D01*
X0393077Y0448931D01*
X0393077Y0442568D02*
X0393077Y0442568D01*
X0393077Y0435570D02*
X0393077Y0435570D01*
X0389279Y0428571D02*
X0438803Y0428571D01*
X0440988Y0430756D02*
X0435072Y0424839D01*
X0435072Y0416472D01*
X0440988Y0410556D01*
X0449355Y0410556D01*
X0455272Y0416472D01*
X0455272Y0424839D01*
X0449355Y0430756D01*
X0440988Y0430756D01*
X0436840Y0435570D02*
X0475202Y0435570D01*
X0468203Y0442568D02*
X0442077Y0442568D01*
X0442077Y0449567D02*
X0461205Y0449567D01*
X0454206Y0456565D02*
X0441865Y0456565D01*
X0439672Y0463564D02*
X0447208Y0463564D01*
X0440209Y0470562D02*
X0439281Y0470562D01*
X0428672Y0467656D02*
X0425172Y0471156D01*
X0388672Y0471156D01*
X0379172Y0480656D01*
X0379172Y0481156D01*
X0368172Y0492156D01*
X0368172Y0516679D01*
X0370301Y0518808D01*
X0393297Y0501964D02*
X0424363Y0501964D01*
X0503672Y0422656D01*
X0517077Y0421573D02*
X0633172Y0421573D01*
X0633172Y0414574D02*
X0516794Y0414574D01*
X0517077Y0428571D02*
X0585872Y0428571D01*
X0584176Y0407576D02*
X0498572Y0407576D01*
X0494215Y0400577D02*
X0582172Y0400577D01*
X0582172Y0393578D02*
X0441272Y0393578D01*
X0441272Y0396839D02*
X0435355Y0402756D01*
X0426988Y0402756D01*
X0421072Y0396839D01*
X0421072Y0388472D01*
X0426988Y0382556D01*
X0435355Y0382556D01*
X0441272Y0388472D01*
X0441272Y0396839D01*
X0445172Y0397656D02*
X0445172Y0380656D01*
X0452272Y0380656D01*
X0452272Y0383597D01*
X0448113Y0387756D01*
X0445172Y0387756D01*
X0445172Y0380656D01*
X0445172Y0380656D01*
X0452272Y0380656D01*
X0452272Y0377715D01*
X0448113Y0373556D01*
X0445172Y0373556D01*
X0445172Y0380656D01*
X0445172Y0380656D01*
X0445172Y0380656D01*
X0445172Y0387756D01*
X0442231Y0387756D01*
X0438072Y0383597D01*
X0438072Y0380656D01*
X0445172Y0380656D01*
X0445172Y0373556D01*
X0442231Y0373556D01*
X0438072Y0377715D01*
X0438072Y0380656D01*
X0445172Y0380656D01*
X0445172Y0380656D01*
X0445172Y0379581D02*
X0445172Y0379581D01*
X0445172Y0386580D02*
X0445172Y0386580D01*
X0449288Y0386580D02*
X0582340Y0386580D01*
X0586690Y0379581D02*
X0452272Y0379581D01*
X0441055Y0386580D02*
X0439379Y0386580D01*
X0438072Y0379581D02*
X0414172Y0379581D01*
X0414172Y0386580D02*
X0422964Y0386580D01*
X0421072Y0393578D02*
X0414172Y0393578D01*
X0416295Y0400577D02*
X0424809Y0400577D01*
X0416577Y0407576D02*
X0475772Y0407576D01*
X0475968Y0414574D02*
X0453373Y0414574D01*
X0455272Y0421573D02*
X0489199Y0421573D01*
X0482200Y0428571D02*
X0451540Y0428571D01*
X0435072Y0421573D02*
X0411749Y0421573D01*
X0416577Y0414574D02*
X0436970Y0414574D01*
X0437534Y0400577D02*
X0480129Y0400577D01*
X0505822Y0436061D02*
X0462228Y0479656D01*
X0598266Y0479656D01*
X0600510Y0477413D01*
X0604284Y0475234D01*
X0608493Y0474106D01*
X0611665Y0474106D01*
X0611917Y0473854D01*
X0614426Y0472406D01*
X0617223Y0471656D01*
X0689120Y0471656D01*
X0691917Y0472406D01*
X0694426Y0473854D01*
X0696474Y0475902D01*
X0697922Y0478410D01*
X0698672Y0481208D01*
X0698672Y0484104D01*
X0697922Y0486902D01*
X0696474Y0489410D01*
X0694426Y0491458D01*
X0691917Y0492906D01*
X0689120Y0493656D01*
X0627002Y0493656D01*
X0626094Y0497044D01*
X0623915Y0500818D01*
X0620834Y0503899D01*
X0617060Y0506078D01*
X0612851Y0507206D01*
X0608493Y0507206D01*
X0604284Y0506078D01*
X0600510Y0503899D01*
X0598266Y0501656D01*
X0464228Y0501656D01*
X0419228Y0546656D01*
X0482050Y0546656D01*
X0482450Y0546256D01*
X0491894Y0546256D01*
X0498572Y0552934D01*
X0498572Y0562378D01*
X0491894Y0569056D01*
X0482450Y0569056D01*
X0482050Y0568656D01*
X0375228Y0568656D01*
X0372672Y0571212D01*
X0372672Y0572631D01*
X0371649Y0576446D01*
X0370230Y0578905D01*
X0370658Y0578807D01*
X0371998Y0578656D01*
X0372672Y0578656D01*
X0373346Y0578656D01*
X0374685Y0578807D01*
X0375999Y0579107D01*
X0377271Y0579552D01*
X0378485Y0580137D01*
X0379627Y0580854D01*
X0380680Y0581694D01*
X0381633Y0582647D01*
X0382474Y0583701D01*
X0383191Y0584842D01*
X0383776Y0586056D01*
X0384221Y0587329D01*
X0384521Y0588643D01*
X0384672Y0589982D01*
X0384672Y0590656D01*
X0384672Y0591330D01*
X0384521Y0592669D01*
X0384221Y0593983D01*
X0383776Y0595255D01*
X0383191Y0596470D01*
X0382474Y0597611D01*
X0381633Y0598665D01*
X0380680Y0599618D01*
X0379627Y0600458D01*
X0378485Y0601175D01*
X0377271Y0601760D01*
X0376325Y0602091D01*
X0526977Y0601896D01*
X0525192Y0600763D01*
X0521160Y0596469D01*
X0518322Y0591307D01*
X0518322Y0591307D01*
X0516857Y0585601D01*
X0516857Y0579711D01*
X0518322Y0574005D01*
X0521160Y0568843D01*
X0525192Y0564549D01*
X0530166Y0561392D01*
X0535768Y0559572D01*
X0541647Y0559202D01*
X0547434Y0560306D01*
X0552764Y0562814D01*
X0557302Y0566569D01*
X0557302Y0566569D01*
X0560765Y0571335D01*
X0562933Y0576812D01*
X0563672Y0582656D01*
X0562933Y0588500D01*
X0560765Y0593977D01*
X0560765Y0593977D01*
X0557302Y0598743D01*
X0553533Y0601861D01*
X0934593Y0601366D01*
X0934593Y0464278D01*
X0932802Y0466743D01*
X0928264Y0470498D01*
X0928264Y0470498D01*
X0922934Y0473006D01*
X0922934Y0473006D01*
X0917147Y0474110D01*
X0911268Y0473740D01*
X0905666Y0471919D01*
X0900692Y0468763D01*
X0896660Y0464469D01*
X0893822Y0459307D01*
X0892357Y0453601D01*
X0892357Y0447711D01*
X0893822Y0442005D01*
X0896660Y0436843D01*
X0900692Y0432549D01*
X0900692Y0432549D01*
X0905666Y0429392D01*
X0911268Y0427572D01*
X0911268Y0427572D01*
X0917147Y0427202D01*
X0917147Y0427202D01*
X0922934Y0428306D01*
X0928264Y0430814D01*
X0932802Y0434569D01*
X0932802Y0434569D01*
X0934593Y0437033D01*
X0934593Y0068090D01*
X0932302Y0071243D01*
X0927764Y0074998D01*
X0927764Y0074998D01*
X0922434Y0077506D01*
X0922434Y0077506D01*
X0916647Y0078610D01*
X0910768Y0078240D01*
X0905166Y0076419D01*
X0900192Y0073263D01*
X0896160Y0068969D01*
X0893322Y0063807D01*
X0893322Y0063807D01*
X0891857Y0058101D01*
X0891857Y0052211D01*
X0893322Y0046505D01*
X0896160Y0041343D01*
X0900192Y0037049D01*
X0900192Y0037049D01*
X0900811Y0036656D01*
X0214177Y0036656D01*
X0218764Y0038814D01*
X0223302Y0042569D01*
X0226765Y0047335D01*
X0228933Y0052812D01*
X0229672Y0058656D01*
X0228933Y0064500D01*
X0226765Y0069977D01*
X0226765Y0069977D01*
X0223302Y0074743D01*
X0218764Y0078498D01*
X0218764Y0078498D01*
X0213434Y0081006D01*
X0213434Y0081006D01*
X0207647Y0082110D01*
X0201768Y0081740D01*
X0196166Y0079919D01*
X0191192Y0076763D01*
X0187160Y0072469D01*
X0184322Y0067307D01*
X0184322Y0067307D01*
X0182857Y0061601D01*
X0182857Y0055711D01*
X0184322Y0050005D01*
X0187160Y0044843D01*
X0191192Y0040549D01*
X0191192Y0040549D01*
X0196166Y0037392D01*
X0198433Y0036656D01*
X0179172Y0036656D01*
X0179172Y0296976D01*
X0180369Y0294902D01*
X0182417Y0292854D01*
X0200672Y0274600D01*
X0200672Y0109208D01*
X0201421Y0106410D01*
X0202869Y0103902D01*
X0204917Y0101854D01*
X0204918Y0101854D01*
X0241917Y0064854D01*
X0244426Y0063406D01*
X0247223Y0062656D01*
X0284458Y0062656D01*
X0285461Y0061653D01*
X0288882Y0059678D01*
X0292697Y0058656D01*
X0296646Y0058656D01*
X0300461Y0059678D01*
X0300532Y0059719D01*
X0300068Y0058755D01*
X0299622Y0057483D01*
X0299323Y0056169D01*
X0299172Y0054830D01*
X0299172Y0054156D01*
X0311172Y0054156D01*
X0323172Y0054156D01*
X0323172Y0054830D01*
X0323021Y0056169D01*
X0322721Y0057483D01*
X0322276Y0058755D01*
X0321691Y0059970D01*
X0320974Y0061111D01*
X0320133Y0062165D01*
X0319180Y0063118D01*
X0318127Y0063958D01*
X0316985Y0064675D01*
X0315771Y0065260D01*
X0314499Y0065705D01*
X0313185Y0066005D01*
X0311846Y0066156D01*
X0311172Y0066156D01*
X0311172Y0054156D01*
X0311172Y0054156D01*
X0323172Y0054156D01*
X0323172Y0053482D01*
X0323021Y0052143D01*
X0322721Y0050829D01*
X0322276Y0049556D01*
X0321691Y0048342D01*
X0320974Y0047201D01*
X0320133Y0046147D01*
X0319180Y0045194D01*
X0318127Y0044354D01*
X0316985Y0043637D01*
X0315771Y0043052D01*
X0314499Y0042607D01*
X0313185Y0042307D01*
X0311846Y0042156D01*
X0311172Y0042156D01*
X0311172Y0054156D01*
X0311172Y0054156D01*
X0312672Y0055656D01*
X0369172Y0055656D01*
X0389672Y0076156D01*
X0473672Y0076156D01*
X0535672Y0138156D01*
X0574172Y0138156D01*
X0587722Y0138156D01*
X0587722Y0143768D01*
X0579784Y0151706D01*
X0574172Y0151706D01*
X0574172Y0138156D01*
X0574172Y0138156D01*
X0587722Y0138156D01*
X0587722Y0132543D01*
X0579784Y0124606D01*
X0574172Y0124606D01*
X0574172Y0138156D01*
X0574172Y0138156D01*
X0574172Y0151656D01*
X0605672Y0183156D01*
X0605672Y0195656D01*
X0599172Y0202156D01*
X0599972Y0202156D02*
X0606972Y0202156D01*
X0606972Y0205387D01*
X0602403Y0209956D01*
X0599172Y0209956D01*
X0599172Y0207429D01*
X0599172Y0207429D01*
X0599172Y0209956D01*
X0596645Y0209956D01*
X0593645Y0212956D01*
X0584698Y0212956D01*
X0578372Y0206629D01*
X0578372Y0197682D01*
X0584698Y0191356D01*
X0593645Y0191356D01*
X0596645Y0194356D01*
X0599172Y0194356D01*
X0602403Y0194356D01*
X0606972Y0198925D01*
X0606972Y0202156D01*
X0599972Y0202156D01*
X0599972Y0202156D01*
X0599172Y0196882D02*
X0599172Y0194356D01*
X0599172Y0196882D01*
X0599172Y0196882D01*
X0605667Y0197620D02*
X0747072Y0197620D01*
X0747072Y0197156D02*
X0754172Y0197156D01*
X0761272Y0197156D01*
X0761272Y0200097D01*
X0757113Y0204256D01*
X0754172Y0204256D01*
X0754172Y0197156D01*
X0754172Y0197156D01*
X0761272Y0197156D01*
X0761272Y0194215D01*
X0757113Y0190056D01*
X0754172Y0190056D01*
X0754172Y0197156D01*
X0754172Y0197156D01*
X0754172Y0197156D01*
X0754172Y0204256D01*
X0751231Y0204256D01*
X0747072Y0200097D01*
X0747072Y0197156D01*
X0747072Y0194215D01*
X0751231Y0190056D01*
X0754172Y0190056D01*
X0754172Y0197156D01*
X0754172Y0197156D01*
X0747072Y0197156D01*
X0754172Y0197620D02*
X0754172Y0197620D01*
X0754172Y0190622D02*
X0754172Y0190622D01*
X0757678Y0190622D02*
X0776165Y0190622D01*
X0778231Y0188556D02*
X0774072Y0192715D01*
X0774072Y0195656D01*
X0781172Y0195656D01*
X0788272Y0195656D01*
X0788272Y0198597D01*
X0784113Y0202756D01*
X0781172Y0202756D01*
X0781172Y0195656D01*
X0781172Y0195656D01*
X0788272Y0195656D01*
X0788272Y0192715D01*
X0784113Y0188556D01*
X0781172Y0188556D01*
X0781172Y0195656D01*
X0781172Y0195656D01*
X0781172Y0195656D01*
X0781172Y0202756D01*
X0778231Y0202756D01*
X0774072Y0198597D01*
X0774072Y0195656D01*
X0781172Y0195656D01*
X0781172Y0188556D01*
X0778231Y0188556D01*
X0781172Y0190622D02*
X0781172Y0190622D01*
X0786178Y0190622D02*
X0934593Y0190622D01*
X0934593Y0197620D02*
X0788272Y0197620D01*
X0781172Y0197620D02*
X0781172Y0197620D01*
X0781172Y0195656D02*
X0781172Y0195656D01*
X0774072Y0197620D02*
X0761272Y0197620D01*
X0750665Y0190622D02*
X0373885Y0190622D01*
X0373933Y0190500D02*
X0371765Y0195977D01*
X0371765Y0195977D01*
X0368302Y0200743D01*
X0363764Y0204498D01*
X0363764Y0204498D01*
X0358434Y0207006D01*
X0358434Y0207006D01*
X0352647Y0208110D01*
X0346768Y0207740D01*
X0341166Y0205919D01*
X0336192Y0202763D01*
X0332160Y0198469D01*
X0329322Y0193307D01*
X0329322Y0193307D01*
X0327857Y0187601D01*
X0327857Y0181711D01*
X0329322Y0176005D01*
X0332160Y0170843D01*
X0336192Y0166549D01*
X0336192Y0166549D01*
X0341166Y0163392D01*
X0346768Y0161572D01*
X0346768Y0161572D01*
X0352647Y0161202D01*
X0352647Y0161202D01*
X0358434Y0162306D01*
X0363764Y0164814D01*
X0368302Y0168569D01*
X0368302Y0168569D01*
X0371765Y0173335D01*
X0373933Y0178812D01*
X0374672Y0184656D01*
X0373933Y0190500D01*
X0373933Y0190500D01*
X0375131Y0195261D02*
X0379463Y0192759D01*
X0384296Y0191464D01*
X0389298Y0191464D01*
X0390637Y0191823D01*
X0391360Y0191406D01*
X0394157Y0190656D01*
X0517120Y0190656D01*
X0519917Y0191406D01*
X0522426Y0192854D01*
X0524474Y0194902D01*
X0525922Y0197410D01*
X0526672Y0200208D01*
X0526672Y0203104D01*
X0525922Y0205902D01*
X0524474Y0208410D01*
X0522426Y0210458D01*
X0519917Y0211906D01*
X0517120Y0212656D01*
X0405797Y0212656D01*
X0405797Y0212966D01*
X0404502Y0217798D01*
X0402001Y0222131D01*
X0398463Y0225668D01*
X0394131Y0228170D01*
X0389298Y0229464D01*
X0384296Y0229464D01*
X0382801Y0229064D01*
X0382801Y0229809D01*
X0382602Y0230552D01*
X0393474Y0241424D01*
X0394922Y0243933D01*
X0395672Y0246730D01*
X0395672Y0259100D01*
X0396917Y0257854D01*
X0399426Y0256406D01*
X0402223Y0255656D01*
X0466050Y0255656D01*
X0466950Y0254756D01*
X0476394Y0254756D01*
X0483072Y0261434D01*
X0483072Y0270878D01*
X0476394Y0277556D01*
X0472993Y0277556D01*
X0472620Y0277656D01*
X0414077Y0277656D01*
X0414077Y0283553D01*
X0412935Y0286310D01*
X0410826Y0288420D01*
X0408069Y0289561D01*
X0394731Y0289561D01*
X0395172Y0291208D01*
X0395172Y0294104D01*
X0395024Y0294656D01*
X0485620Y0294656D01*
X0488417Y0295406D01*
X0490926Y0296854D01*
X0492974Y0298902D01*
X0508728Y0314656D01*
X0552172Y0314656D01*
X0552172Y0301208D01*
X0552921Y0298410D01*
X0554369Y0295902D01*
X0556417Y0293854D01*
X0558926Y0292406D01*
X0561723Y0291656D01*
X0564620Y0291656D01*
X0567417Y0292406D01*
X0569926Y0293854D01*
X0571974Y0295902D01*
X0573422Y0298410D01*
X0574172Y0301208D01*
X0574172Y0325604D01*
X0573422Y0328402D01*
X0571974Y0330910D01*
X0570474Y0332410D01*
X0568426Y0334458D01*
X0566907Y0335335D01*
X0567474Y0335902D01*
X0568922Y0338410D01*
X0569672Y0341208D01*
X0569672Y0344104D01*
X0568922Y0346902D01*
X0567474Y0349410D01*
X0565426Y0351458D01*
X0569542Y0344589D02*
X0591572Y0344589D01*
X0591572Y0345597D02*
X0591572Y0342656D01*
X0598672Y0342656D01*
X0605772Y0342656D01*
X0605772Y0345597D01*
X0601613Y0349756D01*
X0598672Y0349756D01*
X0598672Y0342656D01*
X0598672Y0342656D01*
X0605772Y0342656D01*
X0605772Y0339715D01*
X0601613Y0335556D01*
X0598672Y0335556D01*
X0598672Y0342656D01*
X0598672Y0342656D01*
X0598672Y0342656D01*
X0598672Y0349756D01*
X0595731Y0349756D01*
X0591572Y0345597D01*
X0591572Y0342656D02*
X0591572Y0339715D01*
X0595731Y0335556D01*
X0598672Y0335556D01*
X0598672Y0342656D01*
X0598672Y0342656D01*
X0591572Y0342656D01*
X0593696Y0337590D02*
X0568449Y0337590D01*
X0572158Y0330592D02*
X0596567Y0330592D01*
X0594572Y0328597D02*
X0598731Y0332756D01*
X0601672Y0332756D01*
X0604613Y0332756D01*
X0608772Y0328597D01*
X0608772Y0325656D01*
X0601672Y0325656D01*
X0601672Y0325656D01*
X0608772Y0325656D01*
X0608772Y0322715D01*
X0604613Y0318556D01*
X0601672Y0318556D01*
X0601672Y0325656D01*
X0601672Y0325656D01*
X0601672Y0332756D01*
X0601672Y0325656D01*
X0601672Y0325656D01*
X0601672Y0318556D01*
X0598731Y0318556D01*
X0594572Y0322715D01*
X0594572Y0325656D01*
X0601672Y0325656D01*
X0601672Y0325656D01*
X0594572Y0325656D01*
X0594572Y0328597D01*
X0594572Y0323593D02*
X0574172Y0323593D01*
X0574172Y0316595D02*
X0612672Y0316595D01*
X0612672Y0323593D02*
X0608772Y0323593D01*
X0601672Y0323593D02*
X0601672Y0323593D01*
X0601672Y0330592D02*
X0601672Y0330592D01*
X0606777Y0330592D02*
X0612672Y0330592D01*
X0612672Y0337590D02*
X0603647Y0337590D01*
X0598672Y0337590D02*
X0598672Y0337590D01*
X0598672Y0344589D02*
X0598672Y0344589D01*
X0605772Y0344589D02*
X0612672Y0344589D01*
X0607685Y0358586D02*
X0478772Y0358586D01*
X0478772Y0365584D02*
X0600687Y0365584D01*
X0593688Y0372583D02*
X0417301Y0372583D01*
X0424299Y0365584D02*
X0458572Y0365584D01*
X0458572Y0358586D02*
X0440450Y0358586D01*
X0431172Y0352656D02*
X0421672Y0352656D01*
X0403172Y0371156D01*
X0403172Y0408656D01*
X0389766Y0407576D02*
X0346172Y0407576D01*
X0346172Y0400577D02*
X0351809Y0400577D01*
X0349072Y0397839D02*
X0354988Y0403756D01*
X0363355Y0403756D01*
X0369272Y0397839D01*
X0369272Y0389472D01*
X0363355Y0383556D01*
X0354988Y0383556D01*
X0349072Y0389472D01*
X0349072Y0397839D01*
X0349072Y0393578D02*
X0346172Y0393578D01*
X0346172Y0386580D02*
X0351964Y0386580D01*
X0346172Y0379581D02*
X0392172Y0379581D01*
X0392172Y0372583D02*
X0346172Y0372583D01*
X0347161Y0365584D02*
X0393687Y0365584D01*
X0400185Y0358586D02*
X0364283Y0358586D01*
X0359172Y0358586D02*
X0359172Y0358586D01*
X0354061Y0358586D02*
X0348577Y0358586D01*
X0335172Y0355156D02*
X0335172Y0427656D01*
X0336672Y0427656D01*
X0339672Y0430656D01*
X0341414Y0430656D01*
X0343359Y0432601D01*
X0339672Y0430656D02*
X0279172Y0430656D01*
X0271172Y0438656D01*
X0231672Y0438656D01*
X0220272Y0435570D02*
X0179172Y0435570D01*
X0179172Y0442568D02*
X0220272Y0442568D01*
X0220272Y0443378D02*
X0220272Y0433934D01*
X0226950Y0427256D01*
X0236394Y0427256D01*
X0236794Y0427656D01*
X0266615Y0427656D01*
X0270369Y0423902D01*
X0272417Y0421854D01*
X0274926Y0420406D01*
X0277723Y0419656D01*
X0324172Y0419656D01*
X0324172Y0366574D01*
X0322908Y0365310D01*
X0321766Y0362553D01*
X0321766Y0353656D01*
X0299589Y0353656D01*
X0300435Y0354502D01*
X0301577Y0357259D01*
X0301577Y0372053D01*
X0300435Y0374810D01*
X0299172Y0376074D01*
X0299172Y0409604D01*
X0298422Y0412402D01*
X0296974Y0414910D01*
X0296474Y0415410D01*
X0294426Y0417458D01*
X0291917Y0418906D01*
X0289120Y0419656D01*
X0286223Y0419656D01*
X0283426Y0418906D01*
X0280917Y0417458D01*
X0278869Y0415410D01*
X0277421Y0412902D01*
X0276672Y0410104D01*
X0276672Y0409970D01*
X0276172Y0408104D01*
X0276172Y0405208D01*
X0276921Y0402410D01*
X0277172Y0401976D01*
X0277172Y0376074D01*
X0275908Y0374810D01*
X0274766Y0372053D01*
X0274766Y0363618D01*
X0263474Y0374910D01*
X0261426Y0376958D01*
X0258917Y0378406D01*
X0256120Y0379156D01*
X0218629Y0379156D01*
X0215831Y0378406D01*
X0213323Y0376958D01*
X0199249Y0362884D01*
X0198765Y0362884D01*
X0195956Y0362132D01*
X0193438Y0360678D01*
X0191382Y0358622D01*
X0189928Y0356103D01*
X0189176Y0353295D01*
X0189176Y0350387D01*
X0189928Y0347578D01*
X0191382Y0345060D01*
X0193438Y0343004D01*
X0193508Y0342964D01*
X0191426Y0342406D01*
X0188917Y0340958D01*
X0186869Y0338910D01*
X0180369Y0332410D01*
X0179172Y0330335D01*
X0179172Y0602347D01*
X0312754Y0602174D01*
X0311572Y0601760D01*
X0310358Y0601175D01*
X0309217Y0600458D01*
X0308163Y0599618D01*
X0307210Y0598665D01*
X0306370Y0597611D01*
X0305652Y0596470D01*
X0305068Y0595255D01*
X0304622Y0593983D01*
X0304323Y0592669D01*
X0304172Y0591330D01*
X0304172Y0590656D01*
X0316172Y0590656D01*
X0328172Y0590656D01*
X0328172Y0591330D01*
X0328021Y0592669D01*
X0327721Y0593983D01*
X0327276Y0595255D01*
X0326691Y0596470D01*
X0325974Y0597611D01*
X0325133Y0598665D01*
X0324180Y0599618D01*
X0323127Y0600458D01*
X0321985Y0601175D01*
X0320771Y0601760D01*
X0319614Y0602165D01*
X0369046Y0602101D01*
X0368072Y0601760D01*
X0366858Y0601175D01*
X0365717Y0600458D01*
X0364663Y0599618D01*
X0363710Y0598665D01*
X0362870Y0597611D01*
X0362152Y0596470D01*
X0361568Y0595255D01*
X0361122Y0593983D01*
X0360823Y0592669D01*
X0360672Y0591330D01*
X0360672Y0590656D01*
X0372672Y0590656D01*
X0384672Y0590656D01*
X0372672Y0590656D01*
X0372672Y0590656D01*
X0372672Y0578656D01*
X0372672Y0590656D01*
X0372672Y0590656D01*
X0372672Y0590656D01*
X0360672Y0590656D01*
X0360672Y0589982D01*
X0360823Y0588643D01*
X0361122Y0587329D01*
X0361568Y0586056D01*
X0362074Y0585005D01*
X0359646Y0585656D01*
X0355697Y0585656D01*
X0351882Y0584634D01*
X0348461Y0582659D01*
X0345669Y0579866D01*
X0343694Y0576446D01*
X0342672Y0572631D01*
X0342672Y0568681D01*
X0343694Y0564866D01*
X0345669Y0561446D01*
X0347458Y0559656D01*
X0332723Y0559656D01*
X0329926Y0558906D01*
X0327417Y0557458D01*
X0313917Y0543958D01*
X0311869Y0541910D01*
X0310421Y0539402D01*
X0309672Y0536604D01*
X0309672Y0517799D01*
X0309131Y0517487D01*
X0305594Y0513949D01*
X0303092Y0509617D01*
X0301797Y0504784D01*
X0301797Y0499782D01*
X0303092Y0494949D01*
X0304392Y0492698D01*
X0300885Y0490674D01*
X0297347Y0487136D01*
X0294846Y0482804D01*
X0293551Y0477971D01*
X0293551Y0472969D01*
X0294846Y0468136D01*
X0297347Y0463804D01*
X0300885Y0460266D01*
X0304198Y0458354D01*
X0303315Y0456825D01*
X0302021Y0451993D01*
X0302021Y0446990D01*
X0303315Y0442158D01*
X0303605Y0441656D01*
X0283728Y0441656D01*
X0277926Y0447458D01*
X0275417Y0448906D01*
X0272620Y0449656D01*
X0236794Y0449656D01*
X0236394Y0450056D01*
X0226950Y0450056D01*
X0220272Y0443378D01*
X0226460Y0449567D02*
X0179172Y0449567D01*
X0179172Y0456565D02*
X0303246Y0456565D01*
X0302021Y0449567D02*
X0272953Y0449567D01*
X0282816Y0442568D02*
X0303205Y0442568D01*
X0297588Y0463564D02*
X0179172Y0463564D01*
X0179172Y0470562D02*
X0294196Y0470562D01*
X0293551Y0477561D02*
X0179172Y0477561D01*
X0179172Y0484559D02*
X0295859Y0484559D01*
X0302416Y0491558D02*
X0179172Y0491558D01*
X0179172Y0498556D02*
X0302126Y0498556D01*
X0302004Y0505555D02*
X0179172Y0505555D01*
X0179172Y0512553D02*
X0304788Y0512553D01*
X0309672Y0519552D02*
X0179172Y0519552D01*
X0179172Y0526550D02*
X0309672Y0526550D01*
X0309672Y0533549D02*
X0179172Y0533549D01*
X0179172Y0540547D02*
X0311083Y0540547D01*
X0317505Y0547546D02*
X0179172Y0547546D01*
X0179172Y0554544D02*
X0324504Y0554544D01*
X0334172Y0548656D02*
X0320672Y0535156D01*
X0320672Y0502409D01*
X0320797Y0502283D01*
X0334172Y0548656D02*
X0401672Y0548656D01*
X0459672Y0490656D01*
X0610672Y0490656D01*
X0618672Y0482656D01*
X0687672Y0482656D01*
X0697432Y0477561D02*
X0734520Y0477561D01*
X0741519Y0484559D02*
X0698550Y0484559D01*
X0694253Y0491558D02*
X0748517Y0491558D01*
X0749619Y0498556D02*
X0625221Y0498556D01*
X0617966Y0505555D02*
X0754665Y0505555D01*
X0759559Y0519106D02*
X0751622Y0527043D01*
X0751622Y0532656D01*
X0765172Y0532656D01*
X0778722Y0532656D01*
X0778722Y0538268D01*
X0770784Y0546206D01*
X0765172Y0546206D01*
X0765172Y0532656D01*
X0765172Y0532656D01*
X0778722Y0532656D01*
X0778722Y0527043D01*
X0770784Y0519106D01*
X0765172Y0519106D01*
X0765172Y0532656D01*
X0765172Y0532656D01*
X0772672Y0540156D01*
X0889093Y0540156D01*
X0889093Y0540156D01*
X0889093Y0548181D01*
X0893144Y0548181D01*
X0894187Y0548044D01*
X0895203Y0547771D01*
X0896175Y0547369D01*
X0897086Y0546843D01*
X0897921Y0546202D01*
X0898664Y0545459D01*
X0899305Y0544624D01*
X0899831Y0543713D01*
X0900233Y0542741D01*
X0900506Y0541725D01*
X0900643Y0540682D01*
X0900643Y0540156D01*
X0889093Y0540156D01*
X0889093Y0540156D01*
X0889093Y0548181D01*
X0885042Y0548181D01*
X0883999Y0548044D01*
X0882983Y0547771D01*
X0882011Y0547369D01*
X0881100Y0546843D01*
X0880265Y0546202D01*
X0879521Y0545459D01*
X0878881Y0544624D01*
X0878355Y0543713D01*
X0877952Y0542741D01*
X0877680Y0541725D01*
X0877543Y0540682D01*
X0877543Y0540156D01*
X0889093Y0540156D01*
X0900643Y0540156D01*
X0900643Y0539630D01*
X0900506Y0538587D01*
X0900233Y0537571D01*
X0899831Y0536599D01*
X0899305Y0535688D01*
X0898664Y0534853D01*
X0897921Y0534109D01*
X0897086Y0533469D01*
X0896175Y0532943D01*
X0895203Y0532540D01*
X0894187Y0532268D01*
X0893144Y0532131D01*
X0889093Y0532131D01*
X0889093Y0540156D01*
X0889093Y0540156D01*
X0889093Y0540156D01*
X0877543Y0540156D01*
X0877543Y0539630D01*
X0877680Y0538587D01*
X0877952Y0537571D01*
X0878355Y0536599D01*
X0878881Y0535688D01*
X0879521Y0534853D01*
X0880265Y0534109D01*
X0881100Y0533469D01*
X0882011Y0532943D01*
X0882983Y0532540D01*
X0883999Y0532268D01*
X0885042Y0532131D01*
X0889093Y0532131D01*
X0889093Y0540156D01*
X0889093Y0540547D02*
X0889093Y0540547D01*
X0889093Y0533549D02*
X0889093Y0533549D01*
X0894069Y0531496D02*
X0884116Y0531496D01*
X0881312Y0530745D01*
X0878798Y0529293D01*
X0876746Y0527240D01*
X0875294Y0524726D01*
X0874543Y0521922D01*
X0874543Y0519019D01*
X0875294Y0516215D01*
X0876746Y0513701D01*
X0878798Y0511649D01*
X0881312Y0510197D01*
X0884116Y0509446D01*
X0894069Y0509446D01*
X0896873Y0510197D01*
X0899387Y0511649D01*
X0901440Y0513701D01*
X0902892Y0516215D01*
X0903643Y0519019D01*
X0903643Y0521922D01*
X0902892Y0524726D01*
X0901440Y0527240D01*
X0899387Y0529293D01*
X0896873Y0530745D01*
X0894069Y0531496D01*
X0897190Y0533549D02*
X0934593Y0533549D01*
X0934593Y0540547D02*
X0900643Y0540547D01*
X0895748Y0547546D02*
X0934593Y0547546D01*
X0934593Y0554544D02*
X0902290Y0554544D01*
X0902892Y0555585D02*
X0903643Y0558389D01*
X0903643Y0561292D01*
X0902892Y0564096D01*
X0901440Y0566610D01*
X0899387Y0568663D01*
X0896873Y0570115D01*
X0894069Y0570866D01*
X0884116Y0570866D01*
X0881312Y0570115D01*
X0878798Y0568663D01*
X0876746Y0566610D01*
X0875294Y0564096D01*
X0874543Y0561292D01*
X0874543Y0558389D01*
X0875294Y0555585D01*
X0876746Y0553071D01*
X0878798Y0551019D01*
X0881312Y0549567D01*
X0884116Y0548816D01*
X0894069Y0548816D01*
X0896873Y0549567D01*
X0899387Y0551019D01*
X0901440Y0553071D01*
X0902892Y0555585D01*
X0903576Y0561543D02*
X0934593Y0561543D01*
X0934593Y0568541D02*
X0899509Y0568541D01*
X0878677Y0568541D02*
X0558735Y0568541D01*
X0557302Y0566569D02*
X0557302Y0566569D01*
X0552764Y0562814D02*
X0552764Y0562814D01*
X0550062Y0561543D02*
X0874610Y0561543D01*
X0875895Y0554544D02*
X0498572Y0554544D01*
X0498572Y0561543D02*
X0529929Y0561543D01*
X0521443Y0568541D02*
X0492408Y0568541D01*
X0487172Y0557656D02*
X0370672Y0557656D01*
X0357672Y0570656D01*
X0343451Y0575540D02*
X0314026Y0575540D01*
X0313649Y0576946D02*
X0312290Y0579301D01*
X0312844Y0579107D01*
X0314158Y0578807D01*
X0315498Y0578656D01*
X0316172Y0578656D01*
X0316846Y0578656D01*
X0318185Y0578807D01*
X0319499Y0579107D01*
X0320771Y0579552D01*
X0321985Y0580137D01*
X0323127Y0580854D01*
X0324180Y0581694D01*
X0325133Y0582647D01*
X0325974Y0583701D01*
X0326691Y0584842D01*
X0327276Y0586056D01*
X0327721Y0587329D01*
X0328021Y0588643D01*
X0328172Y0589982D01*
X0328172Y0590656D01*
X0316172Y0590656D01*
X0316172Y0590656D01*
X0316172Y0578656D01*
X0316172Y0590656D01*
X0316172Y0590656D01*
X0316172Y0590656D01*
X0304172Y0590656D01*
X0304172Y0589982D01*
X0304323Y0588643D01*
X0304622Y0587329D01*
X0305068Y0586056D01*
X0305532Y0585093D01*
X0305461Y0585134D01*
X0301646Y0586156D01*
X0297697Y0586156D01*
X0293882Y0585134D01*
X0290461Y0583159D01*
X0289458Y0582156D01*
X0251728Y0582156D01*
X0243072Y0590812D01*
X0243072Y0591378D01*
X0236394Y0598056D01*
X0226950Y0598056D01*
X0220272Y0591378D01*
X0220272Y0581934D01*
X0226950Y0575256D01*
X0227515Y0575256D01*
X0240417Y0562354D01*
X0242926Y0560906D01*
X0245723Y0560156D01*
X0289458Y0560156D01*
X0290461Y0559153D01*
X0293882Y0557178D01*
X0297697Y0556156D01*
X0301646Y0556156D01*
X0305461Y0557178D01*
X0308882Y0559153D01*
X0311675Y0561946D01*
X0313649Y0565366D01*
X0314672Y0569181D01*
X0314672Y0573131D01*
X0313649Y0576946D01*
X0316172Y0582538D02*
X0316172Y0582538D01*
X0316172Y0589537D02*
X0316172Y0589537D01*
X0325025Y0582538D02*
X0348341Y0582538D01*
X0360722Y0589537D02*
X0328121Y0589537D01*
X0326650Y0596535D02*
X0362194Y0596535D01*
X0372672Y0589537D02*
X0372672Y0589537D01*
X0372672Y0582538D02*
X0372672Y0582538D01*
X0371892Y0575540D02*
X0517928Y0575540D01*
X0518322Y0574005D02*
X0518322Y0574005D01*
X0521160Y0568843D02*
X0521160Y0568843D01*
X0516857Y0582538D02*
X0381525Y0582538D01*
X0384621Y0589537D02*
X0517867Y0589537D01*
X0521160Y0596469D02*
X0521160Y0596469D01*
X0521222Y0596535D02*
X0383150Y0596535D01*
X0342709Y0568541D02*
X0314500Y0568541D01*
X0311272Y0561543D02*
X0345613Y0561543D01*
X0304222Y0589537D02*
X0244347Y0589537D01*
X0237914Y0596535D02*
X0305694Y0596535D01*
X0289841Y0582538D02*
X0251346Y0582538D01*
X0247172Y0571156D02*
X0231672Y0586656D01*
X0220272Y0589537D02*
X0179172Y0589537D01*
X0179172Y0596535D02*
X0225429Y0596535D01*
X0220272Y0582538D02*
X0179172Y0582538D01*
X0179172Y0575540D02*
X0226666Y0575540D01*
X0234230Y0568541D02*
X0179172Y0568541D01*
X0179172Y0561543D02*
X0241822Y0561543D01*
X0247172Y0571156D02*
X0299672Y0571156D01*
X0425337Y0540547D02*
X0601400Y0540547D01*
X0605059Y0544206D02*
X0597122Y0536268D01*
X0597122Y0530656D01*
X0610672Y0530656D01*
X0624222Y0530656D01*
X0624222Y0536268D01*
X0616284Y0544206D01*
X0610672Y0544206D01*
X0610672Y0530656D01*
X0610672Y0530656D01*
X0624222Y0530656D01*
X0624222Y0525043D01*
X0616284Y0517106D01*
X0610672Y0517106D01*
X0610672Y0530656D01*
X0610672Y0530656D01*
X0612672Y0532656D01*
X0687672Y0532656D01*
X0694772Y0532656D01*
X0694772Y0535597D01*
X0690613Y0539756D01*
X0687672Y0539756D01*
X0687672Y0532656D01*
X0687672Y0532656D01*
X0694772Y0532656D01*
X0694772Y0529715D01*
X0690613Y0525556D01*
X0687672Y0525556D01*
X0687672Y0532656D01*
X0687672Y0532656D01*
X0765172Y0532656D01*
X0765172Y0532656D01*
X0765172Y0546206D01*
X0759559Y0546206D01*
X0751622Y0538268D01*
X0751622Y0532656D01*
X0765172Y0532656D01*
X0765172Y0519106D01*
X0759559Y0519106D01*
X0759113Y0519552D02*
X0618730Y0519552D01*
X0610672Y0519552D02*
X0610672Y0519552D01*
X0610672Y0517106D02*
X0610672Y0530656D01*
X0610672Y0530656D01*
X0610672Y0544206D01*
X0605059Y0544206D01*
X0610672Y0540547D02*
X0610672Y0540547D01*
X0610672Y0533549D02*
X0610672Y0533549D01*
X0610672Y0530656D02*
X0610672Y0530656D01*
X0597122Y0530656D01*
X0597122Y0525043D01*
X0605059Y0517106D01*
X0610672Y0517106D01*
X0602613Y0519552D02*
X0446332Y0519552D01*
X0439334Y0526550D02*
X0597122Y0526550D01*
X0597122Y0533549D02*
X0432335Y0533549D01*
X0453331Y0512553D02*
X0877894Y0512553D01*
X0874543Y0519552D02*
X0771230Y0519552D01*
X0765172Y0519552D02*
X0765172Y0519552D01*
X0765172Y0526550D02*
X0765172Y0526550D01*
X0765172Y0532656D02*
X0765172Y0532656D01*
X0765172Y0533549D02*
X0765172Y0533549D01*
X0765172Y0540547D02*
X0765172Y0540547D01*
X0753900Y0540547D02*
X0619943Y0540547D01*
X0624222Y0533549D02*
X0680572Y0533549D01*
X0680572Y0532656D02*
X0687672Y0532656D01*
X0687672Y0532656D01*
X0687672Y0539756D01*
X0684731Y0539756D01*
X0680572Y0535597D01*
X0680572Y0532656D01*
X0680572Y0529715D01*
X0684731Y0525556D01*
X0687672Y0525556D01*
X0687672Y0532656D01*
X0687672Y0532656D01*
X0680572Y0532656D01*
X0683736Y0526550D02*
X0624222Y0526550D01*
X0610672Y0526550D02*
X0610672Y0526550D01*
X0603377Y0505555D02*
X0460329Y0505555D01*
X0464323Y0477561D02*
X0600362Y0477561D01*
X0648526Y0449567D02*
X0492317Y0449567D01*
X0485319Y0456565D02*
X0655525Y0456565D01*
X0663672Y0449156D02*
X0721672Y0449156D01*
X0765172Y0492656D01*
X0765172Y0491656D02*
X0765172Y0489156D01*
X0772126Y0477561D02*
X0934593Y0477561D01*
X0934593Y0484559D02*
X0779607Y0484559D01*
X0781722Y0491558D02*
X0934593Y0491558D01*
X0934593Y0498556D02*
X0780724Y0498556D01*
X0775678Y0505555D02*
X0934593Y0505555D01*
X0934593Y0512553D02*
X0900292Y0512553D01*
X0903643Y0519552D02*
X0934593Y0519552D01*
X0934593Y0526550D02*
X0901839Y0526550D01*
X0880996Y0533549D02*
X0778722Y0533549D01*
X0778229Y0526550D02*
X0876347Y0526550D01*
X0877543Y0540547D02*
X0776443Y0540547D01*
X0751622Y0533549D02*
X0694772Y0533549D01*
X0687672Y0533549D02*
X0687672Y0533549D01*
X0687672Y0526550D02*
X0687672Y0526550D01*
X0691607Y0526550D02*
X0752115Y0526550D01*
X0758634Y0470562D02*
X0903527Y0470562D01*
X0905666Y0471919D02*
X0905666Y0471919D01*
X0911268Y0473740D02*
X0911268Y0473740D01*
X0917147Y0474110D02*
X0917147Y0474110D01*
X0900692Y0468763D02*
X0900692Y0468763D01*
X0896162Y0463564D02*
X0751636Y0463564D01*
X0744637Y0456565D02*
X0893118Y0456565D01*
X0892357Y0449567D02*
X0737639Y0449567D01*
X0730640Y0442568D02*
X0893677Y0442568D01*
X0893822Y0442005D02*
X0893822Y0442005D01*
X0896660Y0436843D02*
X0896660Y0436843D01*
X0897856Y0435570D02*
X0665642Y0435570D01*
X0658643Y0428571D02*
X0908194Y0428571D01*
X0905666Y0429392D02*
X0905666Y0429392D01*
X0922934Y0428306D02*
X0922934Y0428306D01*
X0923497Y0428571D02*
X0934593Y0428571D01*
X0932802Y0434569D02*
X0932802Y0434569D01*
X0933529Y0435570D02*
X0934593Y0435570D01*
X0928264Y0430814D02*
X0928264Y0430814D01*
X0934593Y0421573D02*
X0767397Y0421573D01*
X0766996Y0421804D02*
X0763817Y0422656D01*
X0760526Y0422656D01*
X0757347Y0421804D01*
X0754496Y0420158D01*
X0752172Y0417834D01*
X0749847Y0420158D01*
X0746996Y0421804D01*
X0743817Y0422656D01*
X0740526Y0422656D01*
X0737347Y0421804D01*
X0734496Y0420158D01*
X0732169Y0417831D01*
X0730524Y0414981D01*
X0729672Y0411802D01*
X0729672Y0408510D01*
X0729984Y0407343D01*
X0728817Y0407656D01*
X0725526Y0407656D01*
X0722347Y0406804D01*
X0721224Y0406156D01*
X0704723Y0406156D01*
X0701926Y0405406D01*
X0699417Y0403958D01*
X0697369Y0401910D01*
X0688369Y0392910D01*
X0686921Y0390402D01*
X0686172Y0387604D01*
X0686172Y0343208D01*
X0686921Y0340410D01*
X0688369Y0337902D01*
X0690417Y0335854D01*
X0704575Y0321696D01*
X0707083Y0320248D01*
X0709881Y0319498D01*
X0744423Y0319498D01*
X0744423Y0245085D01*
X0744169Y0244831D01*
X0742524Y0241981D01*
X0741672Y0238802D01*
X0741672Y0235510D01*
X0742524Y0232331D01*
X0744169Y0229481D01*
X0746496Y0227153D01*
X0749347Y0225508D01*
X0752526Y0224656D01*
X0755817Y0224656D01*
X0758996Y0225508D01*
X0761847Y0227153D01*
X0765426Y0230732D01*
X0767071Y0233582D01*
X0767923Y0236762D01*
X0767923Y0240053D01*
X0767071Y0243232D01*
X0766423Y0244355D01*
X0766423Y0319498D01*
X0858740Y0319498D01*
X0856824Y0317583D01*
X0855373Y0315069D01*
X0855235Y0314555D01*
X0788836Y0248156D01*
X0779526Y0248156D01*
X0776347Y0247304D01*
X0773496Y0245658D01*
X0771169Y0243331D01*
X0769524Y0240481D01*
X0768672Y0237302D01*
X0768672Y0234010D01*
X0769524Y0230831D01*
X0771169Y0227981D01*
X0773496Y0225653D01*
X0776347Y0224008D01*
X0779526Y0223156D01*
X0795660Y0223156D01*
X0798839Y0224008D01*
X0801689Y0225653D01*
X0875849Y0299813D01*
X0882777Y0299813D01*
X0885575Y0300563D01*
X0888083Y0302011D01*
X0897426Y0311354D01*
X0899474Y0313402D01*
X0900922Y0315910D01*
X0901672Y0318708D01*
X0901672Y0339604D01*
X0900922Y0342402D01*
X0899474Y0344910D01*
X0890474Y0353910D01*
X0888426Y0355958D01*
X0885917Y0357406D01*
X0883120Y0358156D01*
X0774577Y0358156D01*
X0774672Y0358510D01*
X0774672Y0361802D01*
X0774359Y0362969D01*
X0775526Y0362656D01*
X0778817Y0362656D01*
X0781996Y0363508D01*
X0784847Y0365153D01*
X0787174Y0367481D01*
X0788820Y0370331D01*
X0789672Y0373510D01*
X0789672Y0376802D01*
X0788820Y0379981D01*
X0787174Y0382831D01*
X0784847Y0385158D01*
X0781996Y0386804D01*
X0778817Y0387656D01*
X0775526Y0387656D01*
X0774817Y0387466D01*
X0774433Y0390500D01*
X0772265Y0395977D01*
X0772265Y0395977D01*
X0769413Y0399903D01*
X0769847Y0400153D01*
X0772174Y0402481D01*
X0773820Y0405331D01*
X0774672Y0408510D01*
X0774672Y0411802D01*
X0773820Y0414981D01*
X0772174Y0417831D01*
X0769847Y0420158D01*
X0766996Y0421804D01*
X0773929Y0414574D02*
X0934593Y0414574D01*
X0934593Y0407576D02*
X0774421Y0407576D01*
X0770270Y0400577D02*
X0934593Y0400577D01*
X0934593Y0393578D02*
X0773215Y0393578D01*
X0782385Y0386580D02*
X0934593Y0386580D01*
X0934593Y0379581D02*
X0788927Y0379581D01*
X0789423Y0372583D02*
X0934593Y0372583D01*
X0934593Y0365584D02*
X0785278Y0365584D01*
X0774672Y0358586D02*
X0934593Y0358586D01*
X0934593Y0351587D02*
X0892796Y0351587D01*
X0899659Y0344589D02*
X0934593Y0344589D01*
X0934593Y0337590D02*
X0901672Y0337590D01*
X0901672Y0330592D02*
X0934593Y0330592D01*
X0934593Y0323593D02*
X0901672Y0323593D01*
X0901105Y0316595D02*
X0934593Y0316595D01*
X0934593Y0309596D02*
X0895668Y0309596D01*
X0890672Y0320156D02*
X0890672Y0338156D01*
X0881672Y0347156D01*
X0729172Y0347156D01*
X0726172Y0350156D01*
X0726172Y0374156D01*
X0727172Y0375156D01*
X0727172Y0395156D02*
X0706172Y0395156D01*
X0697172Y0386156D01*
X0697172Y0344656D01*
X0711329Y0330498D01*
X0754172Y0330498D01*
X0755423Y0329247D01*
X0755423Y0238407D01*
X0766511Y0232613D02*
X0769046Y0232613D01*
X0769291Y0239611D02*
X0767923Y0239611D01*
X0766423Y0246610D02*
X0775144Y0246610D01*
X0766423Y0253608D02*
X0794289Y0253608D01*
X0801287Y0260607D02*
X0766423Y0260607D01*
X0766423Y0267605D02*
X0808286Y0267605D01*
X0815284Y0274604D02*
X0766423Y0274604D01*
X0766423Y0281602D02*
X0822283Y0281602D01*
X0829281Y0288601D02*
X0766423Y0288601D01*
X0766423Y0295599D02*
X0836280Y0295599D01*
X0843278Y0302598D02*
X0766423Y0302598D01*
X0766423Y0309596D02*
X0850277Y0309596D01*
X0856254Y0316595D02*
X0766423Y0316595D01*
X0754172Y0330498D02*
X0869172Y0330498D01*
X0869172Y0310813D02*
X0881329Y0310813D01*
X0890672Y0320156D01*
X0888670Y0302598D02*
X0934593Y0302598D01*
X0934593Y0295599D02*
X0871635Y0295599D01*
X0864637Y0288601D02*
X0934593Y0288601D01*
X0934593Y0281602D02*
X0857638Y0281602D01*
X0850640Y0274604D02*
X0934593Y0274604D01*
X0934593Y0267605D02*
X0843641Y0267605D01*
X0836643Y0260607D02*
X0934593Y0260607D01*
X0934593Y0253608D02*
X0829644Y0253608D01*
X0822646Y0246610D02*
X0934593Y0246610D01*
X0934593Y0239611D02*
X0815647Y0239611D01*
X0808649Y0232613D02*
X0934593Y0232613D01*
X0934593Y0225614D02*
X0801621Y0225614D01*
X0773564Y0225614D02*
X0759181Y0225614D01*
X0749162Y0225614D02*
X0735772Y0225614D01*
X0735772Y0225472D02*
X0729855Y0219556D01*
X0721488Y0219556D01*
X0715572Y0225472D01*
X0715572Y0233839D01*
X0721488Y0239756D01*
X0729855Y0239756D01*
X0735772Y0233839D01*
X0735772Y0225472D01*
X0735772Y0232613D02*
X0742448Y0232613D01*
X0741889Y0239611D02*
X0730000Y0239611D01*
X0721343Y0239611D02*
X0700172Y0239611D01*
X0700172Y0232613D02*
X0715572Y0232613D01*
X0715572Y0225614D02*
X0699611Y0225614D01*
X0692336Y0218616D02*
X0934593Y0218616D01*
X0934593Y0211617D02*
X0594984Y0211617D01*
X0583359Y0211617D02*
X0559994Y0211617D01*
X0559855Y0211756D02*
X0551488Y0211756D01*
X0545572Y0205839D01*
X0545572Y0197472D01*
X0551488Y0191556D01*
X0559855Y0191556D01*
X0565772Y0197472D01*
X0565772Y0205839D01*
X0559855Y0211756D01*
X0551349Y0211617D02*
X0520418Y0211617D01*
X0526266Y0204619D02*
X0545572Y0204619D01*
X0545572Y0197620D02*
X0525978Y0197620D01*
X0515672Y0201656D02*
X0395606Y0201656D01*
X0386797Y0210464D01*
X0372771Y0197620D02*
X0370571Y0197620D01*
X0371593Y0198798D02*
X0375131Y0195261D01*
X0371593Y0198798D02*
X0369092Y0203131D01*
X0367797Y0207963D01*
X0367797Y0208708D01*
X0366302Y0208308D01*
X0361299Y0208308D01*
X0356467Y0209602D01*
X0352134Y0212104D01*
X0349718Y0214520D01*
X0346999Y0211801D01*
X0342667Y0209300D01*
X0337834Y0208005D01*
X0333223Y0208005D01*
X0332003Y0203449D01*
X0329501Y0199117D01*
X0325964Y0195579D01*
X0322457Y0193555D01*
X0323756Y0191304D01*
X0325051Y0186471D01*
X0325051Y0181469D01*
X0323756Y0176636D01*
X0322874Y0175108D01*
X0326187Y0173195D01*
X0329724Y0169658D01*
X0332226Y0165325D01*
X0333521Y0160493D01*
X0333521Y0159876D01*
X0334358Y0160101D01*
X0339360Y0160101D01*
X0344193Y0158806D01*
X0348525Y0156304D01*
X0350396Y0154434D01*
X0352615Y0156653D01*
X0356948Y0159155D01*
X0361780Y0160450D01*
X0366783Y0160450D01*
X0367653Y0160216D01*
X0368872Y0164765D01*
X0371374Y0169097D01*
X0374911Y0172635D01*
X0379244Y0175136D01*
X0384076Y0176431D01*
X0389079Y0176431D01*
X0393911Y0175136D01*
X0398244Y0172635D01*
X0401781Y0169097D01*
X0404283Y0164765D01*
X0405577Y0159932D01*
X0405577Y0154930D01*
X0404283Y0150097D01*
X0401781Y0145765D01*
X0398244Y0142227D01*
X0393911Y0139726D01*
X0389079Y0138431D01*
X0384076Y0138431D01*
X0383206Y0138664D01*
X0383083Y0138205D01*
X0402632Y0118656D01*
X0419620Y0118656D01*
X0422417Y0117906D01*
X0424926Y0116458D01*
X0426974Y0114410D01*
X0428422Y0111902D01*
X0429172Y0109104D01*
X0429172Y0106208D01*
X0428422Y0103410D01*
X0426974Y0100902D01*
X0424926Y0098854D01*
X0422417Y0097406D01*
X0419620Y0096656D01*
X0396627Y0096656D01*
X0393830Y0097406D01*
X0391321Y0098854D01*
X0367526Y0122649D01*
X0366783Y0122450D01*
X0361780Y0122450D01*
X0356948Y0123745D01*
X0352615Y0126246D01*
X0350745Y0128116D01*
X0348525Y0125897D01*
X0344193Y0123395D01*
X0339360Y0122101D01*
X0334358Y0122101D01*
X0329525Y0123395D01*
X0325193Y0125897D01*
X0321655Y0129434D01*
X0319154Y0133767D01*
X0317859Y0138599D01*
X0317859Y0139216D01*
X0317022Y0138992D01*
X0312019Y0138992D01*
X0307187Y0140286D01*
X0302854Y0142788D01*
X0299317Y0146325D01*
X0296815Y0150658D01*
X0295521Y0155490D01*
X0295521Y0160493D01*
X0296815Y0165325D01*
X0297698Y0166854D01*
X0294385Y0168766D01*
X0290847Y0172304D01*
X0288346Y0176636D01*
X0287172Y0181019D01*
X0287172Y0126212D01*
X0328228Y0085156D01*
X0342458Y0085156D01*
X0343461Y0086159D01*
X0346882Y0088134D01*
X0350697Y0089156D01*
X0354646Y0089156D01*
X0358461Y0088134D01*
X0361882Y0086159D01*
X0364675Y0083366D01*
X0366649Y0079946D01*
X0367672Y0076131D01*
X0367672Y0072181D01*
X0366649Y0068366D01*
X0365230Y0065907D01*
X0365658Y0066005D01*
X0366998Y0066156D01*
X0367672Y0066156D01*
X0367672Y0054156D01*
X0379672Y0054156D01*
X0379672Y0054830D01*
X0379521Y0056169D01*
X0379221Y0057483D01*
X0378776Y0058755D01*
X0378191Y0059970D01*
X0377474Y0061111D01*
X0376633Y0062165D01*
X0375680Y0063118D01*
X0374627Y0063958D01*
X0373485Y0064675D01*
X0372271Y0065260D01*
X0370999Y0065705D01*
X0369685Y0066005D01*
X0368346Y0066156D01*
X0367672Y0066156D01*
X0367672Y0054156D01*
X0367672Y0054156D01*
X0379672Y0054156D01*
X0379672Y0053482D01*
X0379521Y0052143D01*
X0379221Y0050829D01*
X0378776Y0049556D01*
X0378191Y0048342D01*
X0377474Y0047201D01*
X0376633Y0046147D01*
X0375680Y0045194D01*
X0374627Y0044354D01*
X0373485Y0043637D01*
X0372271Y0043052D01*
X0370999Y0042607D01*
X0369685Y0042307D01*
X0368346Y0042156D01*
X0367672Y0042156D01*
X0367672Y0054156D01*
X0367672Y0054156D01*
X0367672Y0054156D01*
X0367672Y0042156D01*
X0366998Y0042156D01*
X0365658Y0042307D01*
X0364344Y0042607D01*
X0363072Y0043052D01*
X0361858Y0043637D01*
X0360717Y0044354D01*
X0359663Y0045194D01*
X0358710Y0046147D01*
X0357870Y0047201D01*
X0357152Y0048342D01*
X0356568Y0049556D01*
X0356122Y0050829D01*
X0355823Y0052143D01*
X0355672Y0053482D01*
X0355672Y0054156D01*
X0367672Y0054156D01*
X0367672Y0054156D01*
X0355672Y0054156D01*
X0355672Y0054830D01*
X0355823Y0056169D01*
X0356122Y0057483D01*
X0356568Y0058755D01*
X0357074Y0059806D01*
X0354646Y0059156D01*
X0350697Y0059156D01*
X0346882Y0060178D01*
X0343461Y0062153D01*
X0342458Y0063156D01*
X0322223Y0063156D01*
X0319426Y0063906D01*
X0316917Y0065354D01*
X0309672Y0072600D01*
X0309672Y0071681D01*
X0308649Y0067866D01*
X0307290Y0065511D01*
X0307844Y0065705D01*
X0309158Y0066005D01*
X0310498Y0066156D01*
X0311172Y0066156D01*
X0311172Y0054156D01*
X0311172Y0054156D01*
X0311172Y0042156D01*
X0310498Y0042156D01*
X0309158Y0042307D01*
X0307844Y0042607D01*
X0306572Y0043052D01*
X0305358Y0043637D01*
X0304217Y0044354D01*
X0303163Y0045194D01*
X0302210Y0046147D01*
X0301370Y0047201D01*
X0300652Y0048342D01*
X0300068Y0049556D01*
X0299622Y0050829D01*
X0299323Y0052143D01*
X0299172Y0053482D01*
X0299172Y0054156D01*
X0311172Y0054156D01*
X0311172Y0054156D01*
X0311172Y0057650D02*
X0311172Y0057650D01*
X0311172Y0050651D02*
X0311172Y0050651D01*
X0311172Y0043653D02*
X0311172Y0043653D01*
X0317011Y0043653D02*
X0361832Y0043653D01*
X0367672Y0043653D02*
X0367672Y0043653D01*
X0373511Y0043653D02*
X0894890Y0043653D01*
X0896160Y0041343D02*
X0896160Y0041343D01*
X0893322Y0046505D02*
X0893322Y0046505D01*
X0892257Y0050651D02*
X0379159Y0050651D01*
X0379162Y0057650D02*
X0891857Y0057650D01*
X0893785Y0064648D02*
X0688637Y0064648D01*
X0689320Y0065831D02*
X0690172Y0069010D01*
X0690172Y0072302D01*
X0689320Y0075481D01*
X0687674Y0078331D01*
X0685347Y0080658D01*
X0682496Y0082304D01*
X0679317Y0083156D01*
X0676026Y0083156D01*
X0672847Y0082304D01*
X0669996Y0080658D01*
X0667669Y0078331D01*
X0666024Y0075481D01*
X0665172Y0072302D01*
X0665172Y0069010D01*
X0666024Y0065831D01*
X0667669Y0062981D01*
X0669996Y0060653D01*
X0672847Y0059008D01*
X0676026Y0058156D01*
X0679317Y0058156D01*
X0682496Y0059008D01*
X0685347Y0060653D01*
X0687674Y0062981D01*
X0689320Y0065831D01*
X0690172Y0071647D02*
X0898675Y0071647D01*
X0900192Y0073263D02*
X0900192Y0073263D01*
X0896160Y0068969D02*
X0896160Y0068969D01*
X0905166Y0076419D02*
X0905166Y0076419D01*
X0910768Y0078240D02*
X0910768Y0078240D01*
X0916647Y0078610D02*
X0916647Y0078610D01*
X0931814Y0071647D02*
X0934593Y0071647D01*
X0932302Y0071243D02*
X0932302Y0071243D01*
X0934593Y0078645D02*
X0858675Y0078645D01*
X0858403Y0078373D02*
X0860679Y0080650D01*
X0862289Y0083437D01*
X0863122Y0086546D01*
X0863122Y0089765D01*
X0862289Y0092875D01*
X0860880Y0095313D01*
X0902317Y0095313D01*
X0905496Y0096165D01*
X0907379Y0097252D01*
X0908452Y0097540D01*
X0910966Y0098991D01*
X0913019Y0101044D01*
X0914470Y0103558D01*
X0915222Y0106362D01*
X0915222Y0109265D01*
X0914470Y0112069D01*
X0913019Y0114583D01*
X0910966Y0116636D01*
X0909199Y0117656D01*
X0910966Y0118676D01*
X0913019Y0120729D01*
X0914470Y0123243D01*
X0915222Y0126047D01*
X0915222Y0128950D01*
X0914470Y0131754D01*
X0913019Y0134268D01*
X0910966Y0136321D01*
X0908452Y0137772D01*
X0907379Y0138060D01*
X0905496Y0139147D01*
X0902317Y0139998D01*
X0855219Y0139998D01*
X0855366Y0140069D01*
X0856243Y0140620D01*
X0857053Y0141267D01*
X0857786Y0141999D01*
X0858432Y0142809D01*
X0858983Y0143687D01*
X0859433Y0144620D01*
X0859775Y0145598D01*
X0860006Y0146608D01*
X0860122Y0147638D01*
X0860122Y0148156D01*
X0860122Y0148674D01*
X0860006Y0149704D01*
X0859775Y0150714D01*
X0859433Y0151692D01*
X0858983Y0152625D01*
X0858432Y0153503D01*
X0857786Y0154313D01*
X0857053Y0155045D01*
X0856243Y0155691D01*
X0855366Y0156243D01*
X0854432Y0156692D01*
X0853454Y0157034D01*
X0852444Y0157265D01*
X0851415Y0157381D01*
X0846172Y0157381D01*
X0846172Y0148156D01*
X0860122Y0148156D01*
X0846172Y0148156D01*
X0846172Y0148156D01*
X0846172Y0148156D01*
X0846172Y0157381D01*
X0840929Y0157381D01*
X0839899Y0157265D01*
X0838889Y0157034D01*
X0837911Y0156692D01*
X0836977Y0156243D01*
X0836100Y0155691D01*
X0835290Y0155045D01*
X0834557Y0154313D01*
X0833911Y0153503D01*
X0833360Y0152625D01*
X0832910Y0151692D01*
X0832568Y0150714D01*
X0832338Y0149704D01*
X0832222Y0148674D01*
X0832222Y0148156D01*
X0846172Y0148156D01*
X0846172Y0148156D01*
X0832222Y0148156D01*
X0832222Y0147638D01*
X0832338Y0146608D01*
X0832568Y0145598D01*
X0832910Y0144620D01*
X0833360Y0143687D01*
X0833911Y0142809D01*
X0834557Y0141999D01*
X0835290Y0141267D01*
X0836100Y0140620D01*
X0836977Y0140069D01*
X0837584Y0139777D01*
X0836728Y0139548D01*
X0833940Y0137938D01*
X0831664Y0135662D01*
X0830055Y0132875D01*
X0829222Y0129765D01*
X0829222Y0126546D01*
X0830055Y0123437D01*
X0831664Y0120650D01*
X0833940Y0118373D01*
X0834317Y0118156D01*
X0833940Y0117938D01*
X0831664Y0115662D01*
X0830055Y0112875D01*
X0829222Y0109765D01*
X0829222Y0106546D01*
X0830055Y0103437D01*
X0831661Y0100656D01*
X0787849Y0100656D01*
X0767847Y0120658D01*
X0767305Y0120971D01*
X0767822Y0121487D01*
X0767822Y0124656D01*
X0767822Y0127825D01*
X0763340Y0132306D01*
X0760172Y0132306D01*
X0760172Y0124656D01*
X0767822Y0124656D01*
X0760172Y0124656D01*
X0760172Y0124656D01*
X0760172Y0124656D01*
X0712172Y0124656D01*
X0709172Y0121656D01*
X0693672Y0121656D01*
X0590672Y0121656D01*
X0574172Y0138156D01*
X0574172Y0138156D01*
X0574172Y0151706D01*
X0568559Y0151706D01*
X0560622Y0143768D01*
X0560622Y0138156D01*
X0574172Y0138156D01*
X0574172Y0124606D01*
X0568559Y0124606D01*
X0560622Y0132543D01*
X0560622Y0138156D01*
X0574172Y0138156D01*
X0574172Y0138156D01*
X0574172Y0141632D02*
X0574172Y0141632D01*
X0574172Y0134634D02*
X0574172Y0134634D01*
X0574172Y0127635D02*
X0574172Y0127635D01*
X0582813Y0127635D02*
X0680879Y0127635D01*
X0680887Y0127603D02*
X0682270Y0125209D01*
X0683523Y0123955D01*
X0683300Y0123122D01*
X0683172Y0122147D01*
X0683172Y0121656D01*
X0687423Y0121656D01*
X0687423Y0121656D01*
X0683172Y0121656D01*
X0683172Y0121164D01*
X0683300Y0120190D01*
X0683523Y0119357D01*
X0682270Y0118103D01*
X0680887Y0115709D01*
X0680172Y0113038D01*
X0680172Y0110274D01*
X0680887Y0107603D01*
X0682270Y0105209D01*
X0684224Y0103254D01*
X0686619Y0101871D01*
X0688985Y0101237D01*
X0690426Y0100406D01*
X0693223Y0099656D01*
X0753494Y0099656D01*
X0774996Y0078153D01*
X0777847Y0076508D01*
X0781026Y0075656D01*
X0847817Y0075656D01*
X0848844Y0075931D01*
X0852506Y0075931D01*
X0855615Y0076764D01*
X0858403Y0078373D01*
X0862880Y0085644D02*
X0934593Y0085644D01*
X0934593Y0092643D02*
X0862351Y0092643D01*
X0829222Y0106640D02*
X0781866Y0106640D01*
X0774867Y0113638D02*
X0830496Y0113638D01*
X0831677Y0120637D02*
X0767869Y0120637D01*
X0767822Y0127635D02*
X0829222Y0127635D01*
X0831070Y0134634D02*
X0706744Y0134634D01*
X0706456Y0135709D02*
X0707172Y0133038D01*
X0707172Y0130274D01*
X0706456Y0127603D01*
X0705074Y0125209D01*
X0703820Y0123955D01*
X0704043Y0123122D01*
X0704172Y0122147D01*
X0704172Y0121656D01*
X0699920Y0121656D01*
X0699920Y0121656D01*
X0752522Y0121656D01*
X0752522Y0124656D01*
X0760172Y0124656D01*
X0760172Y0132306D01*
X0757003Y0132306D01*
X0752522Y0127825D01*
X0752522Y0124656D01*
X0760172Y0124656D01*
X0760172Y0124656D01*
X0760172Y0127635D02*
X0760172Y0127635D01*
X0752522Y0127635D02*
X0706465Y0127635D01*
X0699920Y0121656D02*
X0699920Y0121656D01*
X0693672Y0111656D02*
X0694672Y0110656D01*
X0760172Y0110656D01*
X0753509Y0099641D02*
X0590722Y0099641D01*
X0590722Y0100335D02*
X0589594Y0104544D01*
X0587415Y0108318D01*
X0584334Y0111399D01*
X0580560Y0113578D01*
X0576351Y0114706D01*
X0571993Y0114706D01*
X0567784Y0113578D01*
X0564010Y0111399D01*
X0560928Y0108318D01*
X0558750Y0104544D01*
X0557622Y0100335D01*
X0557622Y0095977D01*
X0558750Y0091768D01*
X0560928Y0087994D01*
X0564010Y0084913D01*
X0567784Y0082734D01*
X0571993Y0081606D01*
X0576351Y0081606D01*
X0580560Y0082734D01*
X0584334Y0084913D01*
X0587415Y0087994D01*
X0589594Y0091768D01*
X0590722Y0095977D01*
X0590722Y0100335D01*
X0588384Y0106640D02*
X0681443Y0106640D01*
X0680332Y0113638D02*
X0580336Y0113638D01*
X0568008Y0113638D02*
X0483072Y0113638D01*
X0483072Y0113434D02*
X0476394Y0106756D01*
X0466950Y0106756D01*
X0460272Y0113434D01*
X0460272Y0122878D01*
X0466950Y0129556D01*
X0476394Y0129556D01*
X0483072Y0122878D01*
X0483072Y0113434D01*
X0483072Y0120637D02*
X0683241Y0120637D01*
X0687423Y0121656D02*
X0687423Y0121656D01*
X0680887Y0127603D02*
X0680172Y0130274D01*
X0680172Y0133038D01*
X0680887Y0135709D01*
X0682270Y0138103D01*
X0684224Y0140058D01*
X0686619Y0141440D01*
X0689289Y0142156D01*
X0698054Y0142156D01*
X0700724Y0141440D01*
X0703119Y0140058D01*
X0705074Y0138103D01*
X0706456Y0135709D01*
X0700009Y0141632D02*
X0834924Y0141632D01*
X0832222Y0148631D02*
X0582860Y0148631D01*
X0574172Y0148631D02*
X0574172Y0148631D01*
X0565484Y0148631D02*
X0428272Y0148631D01*
X0428272Y0151839D02*
X0422355Y0157756D01*
X0413988Y0157756D01*
X0408072Y0151839D01*
X0408072Y0143472D01*
X0413988Y0137556D01*
X0422355Y0137556D01*
X0428272Y0143472D01*
X0428272Y0151839D01*
X0424482Y0155629D02*
X0836022Y0155629D01*
X0846172Y0155629D02*
X0846172Y0155629D01*
X0846172Y0148631D02*
X0846172Y0148631D01*
X0856321Y0155629D02*
X0934593Y0155629D01*
X0934593Y0148631D02*
X0860122Y0148631D01*
X0857419Y0141632D02*
X0934593Y0141632D01*
X0934593Y0134634D02*
X0912653Y0134634D01*
X0915222Y0127635D02*
X0934593Y0127635D01*
X0934593Y0120637D02*
X0912926Y0120637D01*
X0913564Y0113638D02*
X0934593Y0113638D01*
X0934593Y0106640D02*
X0915222Y0106640D01*
X0911616Y0099641D02*
X0934593Y0099641D01*
X0934593Y0162628D02*
X0687321Y0162628D01*
X0687674Y0162981D02*
X0689320Y0165831D01*
X0690172Y0169010D01*
X0690172Y0172302D01*
X0689320Y0175481D01*
X0687674Y0178331D01*
X0685347Y0180658D01*
X0682496Y0182304D01*
X0679317Y0183156D01*
X0676026Y0183156D01*
X0672847Y0182304D01*
X0669996Y0180658D01*
X0667669Y0178331D01*
X0666024Y0175481D01*
X0665172Y0172302D01*
X0665172Y0169010D01*
X0666024Y0165831D01*
X0667669Y0162981D01*
X0669996Y0160653D01*
X0672847Y0159008D01*
X0676026Y0158156D01*
X0679317Y0158156D01*
X0682496Y0159008D01*
X0685347Y0160653D01*
X0687674Y0162981D01*
X0690172Y0169626D02*
X0934593Y0169626D01*
X0934593Y0176625D02*
X0688659Y0176625D01*
X0666684Y0176625D02*
X0373067Y0176625D01*
X0373933Y0178812D02*
X0373933Y0178812D01*
X0374541Y0183623D02*
X0934593Y0183623D01*
X0934593Y0204619D02*
X0606972Y0204619D01*
X0627334Y0218616D02*
X0404030Y0218616D01*
X0398517Y0225614D02*
X0621875Y0225614D01*
X0619673Y0232613D02*
X0384662Y0232613D01*
X0391661Y0239611D02*
X0619655Y0239611D01*
X0621838Y0246610D02*
X0395639Y0246610D01*
X0395672Y0253608D02*
X0627246Y0253608D01*
X0628664Y0260607D02*
X0482245Y0260607D01*
X0483072Y0267605D02*
X0621666Y0267605D01*
X0614753Y0274604D02*
X0479346Y0274604D01*
X0471172Y0266656D02*
X0471672Y0266156D01*
X0471172Y0266656D02*
X0403672Y0266656D01*
X0400672Y0269656D01*
X0400672Y0276156D01*
X0414077Y0281602D02*
X0612672Y0281602D01*
X0612672Y0288601D02*
X0410388Y0288601D01*
X0384172Y0292656D02*
X0292475Y0292656D01*
X0233290Y0351841D01*
X0220077Y0368156D02*
X0203762Y0351841D01*
X0191853Y0344589D02*
X0179172Y0344589D01*
X0179172Y0351587D02*
X0189176Y0351587D01*
X0191361Y0358586D02*
X0179172Y0358586D01*
X0179172Y0365584D02*
X0201949Y0365584D01*
X0208948Y0372583D02*
X0179172Y0372583D01*
X0179172Y0379581D02*
X0213715Y0379581D01*
X0213941Y0379356D02*
X0217172Y0379356D01*
X0220403Y0379356D01*
X0224972Y0383925D01*
X0224972Y0387156D01*
X0224972Y0389682D01*
X0227972Y0392682D01*
X0227972Y0401572D01*
X0232988Y0396556D01*
X0241355Y0396556D01*
X0247272Y0402472D01*
X0247272Y0410839D01*
X0241355Y0416756D01*
X0232988Y0416756D01*
X0227072Y0410839D01*
X0227072Y0402529D01*
X0221645Y0407956D01*
X0212698Y0407956D01*
X0206372Y0401629D01*
X0206372Y0392682D01*
X0209372Y0389682D01*
X0209372Y0387156D01*
X0211898Y0387156D01*
X0211898Y0387156D01*
X0209372Y0387156D01*
X0209372Y0383925D01*
X0213941Y0379356D01*
X0217172Y0379356D02*
X0217172Y0386356D01*
X0217172Y0379356D01*
X0217172Y0379581D02*
X0217172Y0379581D01*
X0220628Y0379581D02*
X0277172Y0379581D01*
X0277172Y0386580D02*
X0224972Y0386580D01*
X0224972Y0387156D02*
X0222445Y0387156D01*
X0222445Y0387156D01*
X0224972Y0387156D01*
X0227972Y0393578D02*
X0277172Y0393578D01*
X0277172Y0400577D02*
X0245376Y0400577D01*
X0247272Y0407576D02*
X0276172Y0407576D01*
X0278387Y0414574D02*
X0243537Y0414574D01*
X0230806Y0414574D02*
X0179172Y0414574D01*
X0179172Y0407576D02*
X0212318Y0407576D01*
X0206372Y0400577D02*
X0179172Y0400577D01*
X0179172Y0393578D02*
X0206372Y0393578D01*
X0209372Y0386580D02*
X0179172Y0386580D01*
X0217172Y0386356D02*
X0217172Y0386356D01*
X0220077Y0368156D02*
X0254672Y0368156D01*
X0280172Y0342656D01*
X0558672Y0342656D01*
X0561672Y0325656D02*
X0504172Y0325656D01*
X0484172Y0305656D01*
X0348172Y0305656D01*
X0335172Y0318656D01*
X0335172Y0327656D01*
X0348577Y0330592D02*
X0377072Y0330592D01*
X0377072Y0329715D02*
X0381231Y0325556D01*
X0384172Y0325556D01*
X0387113Y0325556D01*
X0391272Y0329715D01*
X0391272Y0331656D01*
X0463888Y0331656D01*
X0458572Y0326339D01*
X0458572Y0317972D01*
X0459888Y0316656D01*
X0352728Y0316656D01*
X0348577Y0320807D01*
X0348577Y0331656D01*
X0377072Y0331656D01*
X0377072Y0329715D01*
X0384172Y0330592D02*
X0384172Y0330592D01*
X0384172Y0331656D02*
X0384172Y0325556D01*
X0384172Y0331656D01*
X0384172Y0331656D01*
X0391272Y0330592D02*
X0462824Y0330592D01*
X0458572Y0323593D02*
X0348577Y0323593D01*
X0321766Y0358586D02*
X0301577Y0358586D01*
X0301577Y0365584D02*
X0323183Y0365584D01*
X0324172Y0372583D02*
X0301358Y0372583D01*
X0299172Y0379581D02*
X0324172Y0379581D01*
X0324172Y0386580D02*
X0299172Y0386580D01*
X0299172Y0393578D02*
X0324172Y0393578D01*
X0324172Y0400577D02*
X0299172Y0400577D01*
X0299172Y0407576D02*
X0324172Y0407576D01*
X0324172Y0414574D02*
X0297168Y0414574D01*
X0288172Y0408156D02*
X0287672Y0408656D01*
X0287672Y0407156D01*
X0287172Y0406656D01*
X0288172Y0408156D02*
X0288172Y0364656D01*
X0274766Y0365584D02*
X0272799Y0365584D01*
X0274986Y0372583D02*
X0265801Y0372583D01*
X0228967Y0400577D02*
X0227972Y0400577D01*
X0227072Y0407576D02*
X0222026Y0407576D01*
X0225634Y0428571D02*
X0179172Y0428571D01*
X0179172Y0421573D02*
X0272905Y0421573D01*
X0349494Y0414574D02*
X0365950Y0414574D01*
X0375613Y0414574D02*
X0389766Y0414574D01*
X0386152Y0421573D02*
X0394594Y0421573D01*
X0401880Y0435570D02*
X0420504Y0435570D01*
X0415266Y0442568D02*
X0407760Y0442568D01*
X0409077Y0449567D02*
X0415266Y0449567D01*
X0415478Y0456565D02*
X0407139Y0456565D01*
X0428672Y0448656D02*
X0428672Y0467656D01*
X0471322Y0470562D02*
X0727522Y0470562D01*
X0720523Y0463564D02*
X0478320Y0463564D01*
X0499316Y0442568D02*
X0641527Y0442568D01*
X0644172Y0429656D02*
X0663672Y0449156D01*
X0644172Y0429656D02*
X0644172Y0293156D01*
X0689172Y0248156D01*
X0689172Y0229156D01*
X0678733Y0225614D02*
X0663469Y0225614D01*
X0658009Y0218616D02*
X0686007Y0218616D01*
X0678172Y0232613D02*
X0665670Y0232613D01*
X0665688Y0239611D02*
X0678172Y0239611D01*
X0675161Y0246610D02*
X0663505Y0246610D01*
X0668163Y0253608D02*
X0658097Y0253608D01*
X0661164Y0260607D02*
X0653672Y0260607D01*
X0654166Y0267605D02*
X0652227Y0267605D01*
X0647167Y0274604D02*
X0645780Y0274604D01*
X0640169Y0281602D02*
X0638782Y0281602D01*
X0657285Y0295599D02*
X0744423Y0295599D01*
X0744423Y0288601D02*
X0731010Y0288601D01*
X0729855Y0289756D02*
X0721488Y0289756D01*
X0715572Y0283839D01*
X0715572Y0275472D01*
X0721488Y0269556D01*
X0729855Y0269556D01*
X0735772Y0275472D01*
X0735772Y0283839D01*
X0729855Y0289756D01*
X0720333Y0288601D02*
X0694010Y0288601D01*
X0693355Y0289256D02*
X0684988Y0289256D01*
X0679072Y0283339D01*
X0679072Y0274972D01*
X0684988Y0269056D01*
X0693355Y0269056D01*
X0699272Y0274972D01*
X0699272Y0283339D01*
X0693355Y0289256D01*
X0684333Y0288601D02*
X0664283Y0288601D01*
X0671282Y0281602D02*
X0679072Y0281602D01*
X0679440Y0274604D02*
X0678280Y0274604D01*
X0685279Y0267605D02*
X0744423Y0267605D01*
X0744423Y0260607D02*
X0692277Y0260607D01*
X0698725Y0253608D02*
X0744423Y0253608D01*
X0744423Y0246610D02*
X0700172Y0246610D01*
X0698903Y0274604D02*
X0716440Y0274604D01*
X0715572Y0281602D02*
X0699272Y0281602D01*
X0734903Y0274604D02*
X0744423Y0274604D01*
X0744423Y0281602D02*
X0735772Y0281602D01*
X0744423Y0302598D02*
X0655172Y0302598D01*
X0655172Y0309596D02*
X0744423Y0309596D01*
X0744423Y0316595D02*
X0655172Y0316595D01*
X0655172Y0323593D02*
X0702678Y0323593D01*
X0695679Y0330592D02*
X0655172Y0330592D01*
X0655172Y0337590D02*
X0688681Y0337590D01*
X0686172Y0344589D02*
X0655172Y0344589D01*
X0655172Y0351587D02*
X0686172Y0351587D01*
X0686172Y0358586D02*
X0655172Y0358586D01*
X0655172Y0365584D02*
X0686172Y0365584D01*
X0686172Y0372583D02*
X0662140Y0372583D01*
X0655672Y0372583D02*
X0655672Y0372583D01*
X0655672Y0379581D02*
X0655672Y0379581D01*
X0662287Y0379581D02*
X0686172Y0379581D01*
X0686172Y0386580D02*
X0655172Y0386580D01*
X0655172Y0393578D02*
X0689038Y0393578D01*
X0696036Y0400577D02*
X0655172Y0400577D01*
X0655172Y0407576D02*
X0725226Y0407576D01*
X0729117Y0407576D02*
X0729922Y0407576D01*
X0730415Y0414574D02*
X0655172Y0414574D01*
X0655172Y0421573D02*
X0736946Y0421573D01*
X0747397Y0421573D02*
X0756946Y0421573D01*
X0633172Y0407576D02*
X0602167Y0407576D01*
X0511069Y0436061D02*
X0505822Y0436061D01*
X0390048Y0400577D02*
X0366534Y0400577D01*
X0369272Y0393578D02*
X0392172Y0393578D01*
X0392172Y0386580D02*
X0366379Y0386580D01*
X0233290Y0312471D02*
X0233290Y0269038D01*
X0233672Y0268656D01*
X0211672Y0279156D02*
X0189172Y0301656D01*
X0189172Y0325656D01*
X0195672Y0332156D01*
X0203762Y0332156D01*
X0185550Y0337590D02*
X0179172Y0337590D01*
X0179172Y0330592D02*
X0179320Y0330592D01*
X0179172Y0295599D02*
X0179967Y0295599D01*
X0179172Y0288601D02*
X0186670Y0288601D01*
X0193669Y0281602D02*
X0179172Y0281602D01*
X0179172Y0274604D02*
X0200667Y0274604D01*
X0200672Y0267605D02*
X0179172Y0267605D01*
X0179172Y0260607D02*
X0200672Y0260607D01*
X0200672Y0253608D02*
X0179172Y0253608D01*
X0179172Y0246610D02*
X0200672Y0246610D01*
X0200672Y0239611D02*
X0179172Y0239611D01*
X0179172Y0232613D02*
X0200672Y0232613D01*
X0200672Y0225614D02*
X0179172Y0225614D01*
X0179172Y0218616D02*
X0200672Y0218616D01*
X0200672Y0211617D02*
X0179172Y0211617D01*
X0179172Y0204619D02*
X0200672Y0204619D01*
X0200672Y0197620D02*
X0179172Y0197620D01*
X0179172Y0190622D02*
X0200672Y0190622D01*
X0200672Y0183623D02*
X0179172Y0183623D01*
X0179172Y0176625D02*
X0200672Y0176625D01*
X0200672Y0169626D02*
X0179172Y0169626D01*
X0179172Y0162628D02*
X0200672Y0162628D01*
X0200672Y0155629D02*
X0179172Y0155629D01*
X0179172Y0148631D02*
X0200672Y0148631D01*
X0200672Y0141632D02*
X0179172Y0141632D01*
X0179172Y0134634D02*
X0200672Y0134634D01*
X0200672Y0127635D02*
X0179172Y0127635D01*
X0179172Y0120637D02*
X0200672Y0120637D01*
X0200672Y0113638D02*
X0179172Y0113638D01*
X0179172Y0106640D02*
X0201360Y0106640D01*
X0207130Y0099641D02*
X0179172Y0099641D01*
X0179172Y0092643D02*
X0214129Y0092643D01*
X0221127Y0085644D02*
X0179172Y0085644D01*
X0179172Y0078645D02*
X0194159Y0078645D01*
X0196166Y0079919D02*
X0196166Y0079919D01*
X0191192Y0076763D02*
X0191192Y0076763D01*
X0187160Y0072469D02*
X0187160Y0072469D01*
X0186708Y0071647D02*
X0179172Y0071647D01*
X0179172Y0064648D02*
X0183639Y0064648D01*
X0182857Y0057650D02*
X0179172Y0057650D01*
X0179172Y0050651D02*
X0184156Y0050651D01*
X0184322Y0050005D02*
X0184322Y0050005D01*
X0187160Y0044843D02*
X0187160Y0044843D01*
X0188277Y0043653D02*
X0179172Y0043653D01*
X0196166Y0037392D02*
X0196166Y0037392D01*
X0218764Y0038814D02*
X0218764Y0038814D01*
X0223302Y0042569D02*
X0223302Y0042569D01*
X0224090Y0043653D02*
X0305332Y0043653D01*
X0299684Y0050651D02*
X0228078Y0050651D01*
X0228933Y0052812D02*
X0228933Y0052812D01*
X0229545Y0057650D02*
X0299681Y0057650D01*
X0311172Y0064648D02*
X0311172Y0064648D01*
X0317028Y0064648D02*
X0318139Y0064648D01*
X0310624Y0071647D02*
X0309662Y0071647D01*
X0294672Y0073656D02*
X0248672Y0073656D01*
X0211672Y0110656D01*
X0211672Y0279156D01*
X0252172Y0245656D02*
X0345452Y0245656D01*
X0363801Y0227308D01*
X0384672Y0248179D01*
X0384672Y0278656D01*
X0352977Y0211617D02*
X0346681Y0211617D01*
X0352647Y0208110D02*
X0352647Y0208110D01*
X0363506Y0204619D02*
X0368693Y0204619D01*
X0368302Y0200743D02*
X0368302Y0200743D01*
X0368302Y0200743D01*
X0339116Y0204619D02*
X0332316Y0204619D01*
X0336192Y0202763D02*
X0336192Y0202763D01*
X0331693Y0197620D02*
X0328005Y0197620D01*
X0328632Y0190622D02*
X0323939Y0190622D01*
X0325051Y0183623D02*
X0327857Y0183623D01*
X0329163Y0176625D02*
X0323750Y0176625D01*
X0329322Y0176005D02*
X0329322Y0176005D01*
X0332160Y0170843D02*
X0332160Y0170843D01*
X0333302Y0169626D02*
X0329743Y0169626D01*
X0332949Y0162628D02*
X0343520Y0162628D01*
X0341166Y0163392D02*
X0341166Y0163392D01*
X0349201Y0155629D02*
X0351591Y0155629D01*
X0358434Y0162306D02*
X0358434Y0162306D01*
X0359117Y0162628D02*
X0368300Y0162628D01*
X0363764Y0164814D02*
X0363764Y0164814D01*
X0368302Y0168569D02*
X0368302Y0168569D01*
X0369070Y0169626D02*
X0371902Y0169626D01*
X0371765Y0173335D02*
X0371765Y0173335D01*
X0401252Y0169626D02*
X0665172Y0169626D01*
X0668022Y0162628D02*
X0404855Y0162628D01*
X0405577Y0155629D02*
X0411861Y0155629D01*
X0408072Y0148631D02*
X0403436Y0148631D01*
X0397213Y0141632D02*
X0409912Y0141632D01*
X0426431Y0141632D02*
X0560622Y0141632D01*
X0560622Y0134634D02*
X0386654Y0134634D01*
X0393653Y0127635D02*
X0465029Y0127635D01*
X0460272Y0120637D02*
X0400651Y0120637D01*
X0398075Y0107656D02*
X0364282Y0141450D01*
X0351226Y0127635D02*
X0350264Y0127635D01*
X0323454Y0127635D02*
X0287172Y0127635D01*
X0287172Y0134634D02*
X0318922Y0134634D01*
X0304856Y0141632D02*
X0287172Y0141632D01*
X0287172Y0148631D02*
X0297986Y0148631D01*
X0295521Y0155629D02*
X0287172Y0155629D01*
X0287172Y0162628D02*
X0296093Y0162628D01*
X0293525Y0169626D02*
X0287172Y0169626D01*
X0287172Y0176625D02*
X0288353Y0176625D01*
X0276172Y0121656D02*
X0276172Y0231656D01*
X0252172Y0245656D02*
X0233672Y0227156D01*
X0233672Y0120656D01*
X0276172Y0121656D02*
X0323672Y0074156D01*
X0352672Y0074156D01*
X0366998Y0078645D02*
X0667984Y0078645D01*
X0665172Y0071647D02*
X0367529Y0071647D01*
X0367672Y0064648D02*
X0367672Y0064648D01*
X0373528Y0064648D02*
X0666706Y0064648D01*
X0687360Y0078645D02*
X0774504Y0078645D01*
X0767506Y0085644D02*
X0585065Y0085644D01*
X0589828Y0092643D02*
X0760507Y0092643D01*
X0687334Y0141632D02*
X0587722Y0141632D01*
X0587722Y0134634D02*
X0680599Y0134634D01*
X0578434Y0197620D02*
X0565772Y0197620D01*
X0565772Y0204619D02*
X0578372Y0204619D01*
X0565530Y0127635D02*
X0478315Y0127635D01*
X0460272Y0113638D02*
X0427420Y0113638D01*
X0429172Y0106640D02*
X0559959Y0106640D01*
X0557622Y0099641D02*
X0425713Y0099641D01*
X0418172Y0107656D02*
X0398075Y0107656D01*
X0390534Y0099641D02*
X0313743Y0099641D01*
X0320741Y0092643D02*
X0558515Y0092643D01*
X0563278Y0085644D02*
X0362397Y0085644D01*
X0342947Y0085644D02*
X0327740Y0085644D01*
X0306744Y0106640D02*
X0383535Y0106640D01*
X0376537Y0113638D02*
X0299746Y0113638D01*
X0292747Y0120637D02*
X0369538Y0120637D01*
X0367672Y0057650D02*
X0367672Y0057650D01*
X0367672Y0050651D02*
X0367672Y0050651D01*
X0356184Y0050651D02*
X0322659Y0050651D01*
X0322662Y0057650D02*
X0356181Y0057650D01*
X0242273Y0064648D02*
X0228875Y0064648D01*
X0228933Y0064500D02*
X0228933Y0064500D01*
X0225552Y0071647D02*
X0235124Y0071647D01*
X0228126Y0078645D02*
X0218449Y0078645D01*
X0223302Y0074743D02*
X0223302Y0074743D01*
X0223302Y0074743D01*
X0207647Y0082110D02*
X0207647Y0082110D01*
X0201768Y0081740D02*
X0201768Y0081740D01*
X0226765Y0047335D02*
X0226765Y0047335D01*
X0488753Y0295599D02*
X0554672Y0295599D01*
X0552172Y0302598D02*
X0496670Y0302598D01*
X0503668Y0309596D02*
X0552172Y0309596D01*
X0563172Y0302656D02*
X0563172Y0324156D01*
X0561672Y0325656D01*
X0574172Y0309596D02*
X0600071Y0309596D01*
X0600231Y0309756D02*
X0596072Y0305597D01*
X0596072Y0302656D01*
X0603172Y0302656D01*
X0610272Y0302656D01*
X0610272Y0305597D01*
X0606113Y0309756D01*
X0603172Y0309756D01*
X0603172Y0302656D01*
X0603172Y0302656D01*
X0610272Y0302656D01*
X0610272Y0299715D01*
X0606113Y0295556D01*
X0603172Y0295556D01*
X0603172Y0302656D01*
X0603172Y0302656D01*
X0603172Y0302656D01*
X0603172Y0309756D01*
X0600231Y0309756D01*
X0603172Y0309596D02*
X0603172Y0309596D01*
X0606272Y0309596D02*
X0612672Y0309596D01*
X0612672Y0302598D02*
X0610272Y0302598D01*
X0603172Y0302598D02*
X0603172Y0302598D01*
X0603172Y0302656D02*
X0603172Y0295556D01*
X0600231Y0295556D01*
X0596072Y0299715D01*
X0596072Y0302656D01*
X0603172Y0302656D01*
X0603172Y0302656D01*
X0603172Y0295599D02*
X0603172Y0295599D01*
X0606156Y0295599D02*
X0612672Y0295599D01*
X0600187Y0295599D02*
X0571671Y0295599D01*
X0574172Y0302598D02*
X0596072Y0302598D01*
X0928126Y0470562D02*
X0934593Y0470562D01*
X0932802Y0466743D02*
X0932802Y0466743D01*
X0932802Y0466743D01*
X0889093Y0547546D02*
X0889093Y0547546D01*
X0882438Y0547546D02*
X0493184Y0547546D01*
X0541647Y0559202D02*
X0541647Y0559202D01*
X0547434Y0560306D02*
X0547434Y0560306D01*
X0560765Y0571335D02*
X0560765Y0571335D01*
X0562430Y0575540D02*
X0934593Y0575540D01*
X0934593Y0582538D02*
X0563657Y0582538D01*
X0562933Y0576812D02*
X0562933Y0576812D01*
X0562933Y0588500D02*
X0562933Y0588500D01*
X0562523Y0589537D02*
X0934593Y0589537D01*
X0934593Y0596535D02*
X0558906Y0596535D01*
X0557302Y0598743D02*
X0557302Y0598743D01*
X0557302Y0598743D01*
X0525192Y0600763D02*
X0525192Y0600763D01*
X0525192Y0600763D01*
D28*
X0869172Y0310813D02*
X0794014Y0235656D01*
X0781172Y0235656D01*
X0755423Y0238407D02*
X0754172Y0237156D01*
X0846172Y0128156D02*
X0846829Y0127498D01*
X0900672Y0127498D01*
X0900672Y0107813D02*
X0848829Y0107813D01*
X0848172Y0107156D01*
X0847172Y0107156D01*
X0846172Y0108156D01*
X0846172Y0088156D02*
X0782672Y0088156D01*
X0760172Y0110656D01*
D29*
X0400672Y0276156D03*
X0335172Y0327656D03*
X0335172Y0355156D03*
X0288172Y0364656D03*
X0403172Y0408656D03*
X0428672Y0448656D03*
X0503672Y0422656D03*
X0276172Y0231656D03*
M02*
