G75*
%MOIN*%
%OFA0B0*%
%FSLAX25Y25*%
%IPPOS*%
%LPD*%
%AMOC8*
5,1,8,0,0,1.08239X$1,22.5*
%
%ADD10C,0.00000*%
D10*
X0001500Y0002000D02*
X0001500Y0415201D01*
X1165421Y0415201D01*
X1165421Y0001500D01*
X0001500Y0002000D01*
X0015413Y0021500D02*
X0015415Y0021674D01*
X0015422Y0021848D01*
X0015432Y0022021D01*
X0015447Y0022195D01*
X0015466Y0022368D01*
X0015490Y0022540D01*
X0015517Y0022712D01*
X0015549Y0022883D01*
X0015585Y0023053D01*
X0015625Y0023222D01*
X0015670Y0023390D01*
X0015718Y0023557D01*
X0015771Y0023723D01*
X0015827Y0023888D01*
X0015888Y0024051D01*
X0015952Y0024212D01*
X0016021Y0024372D01*
X0016093Y0024530D01*
X0016170Y0024686D01*
X0016250Y0024841D01*
X0016334Y0024993D01*
X0016421Y0025143D01*
X0016513Y0025292D01*
X0016607Y0025437D01*
X0016706Y0025581D01*
X0016808Y0025722D01*
X0016913Y0025860D01*
X0017022Y0025996D01*
X0017134Y0026129D01*
X0017249Y0026259D01*
X0017367Y0026387D01*
X0017489Y0026511D01*
X0017613Y0026633D01*
X0017741Y0026751D01*
X0017871Y0026866D01*
X0018004Y0026978D01*
X0018140Y0027087D01*
X0018278Y0027192D01*
X0018419Y0027294D01*
X0018563Y0027393D01*
X0018708Y0027487D01*
X0018857Y0027579D01*
X0019007Y0027666D01*
X0019159Y0027750D01*
X0019314Y0027830D01*
X0019470Y0027907D01*
X0019628Y0027979D01*
X0019788Y0028048D01*
X0019949Y0028112D01*
X0020112Y0028173D01*
X0020277Y0028229D01*
X0020443Y0028282D01*
X0020610Y0028330D01*
X0020778Y0028375D01*
X0020947Y0028415D01*
X0021117Y0028451D01*
X0021288Y0028483D01*
X0021460Y0028510D01*
X0021632Y0028534D01*
X0021805Y0028553D01*
X0021979Y0028568D01*
X0022152Y0028578D01*
X0022326Y0028585D01*
X0022500Y0028587D01*
X0022674Y0028585D01*
X0022848Y0028578D01*
X0023021Y0028568D01*
X0023195Y0028553D01*
X0023368Y0028534D01*
X0023540Y0028510D01*
X0023712Y0028483D01*
X0023883Y0028451D01*
X0024053Y0028415D01*
X0024222Y0028375D01*
X0024390Y0028330D01*
X0024557Y0028282D01*
X0024723Y0028229D01*
X0024888Y0028173D01*
X0025051Y0028112D01*
X0025212Y0028048D01*
X0025372Y0027979D01*
X0025530Y0027907D01*
X0025686Y0027830D01*
X0025841Y0027750D01*
X0025993Y0027666D01*
X0026143Y0027579D01*
X0026292Y0027487D01*
X0026437Y0027393D01*
X0026581Y0027294D01*
X0026722Y0027192D01*
X0026860Y0027087D01*
X0026996Y0026978D01*
X0027129Y0026866D01*
X0027259Y0026751D01*
X0027387Y0026633D01*
X0027511Y0026511D01*
X0027633Y0026387D01*
X0027751Y0026259D01*
X0027866Y0026129D01*
X0027978Y0025996D01*
X0028087Y0025860D01*
X0028192Y0025722D01*
X0028294Y0025581D01*
X0028393Y0025437D01*
X0028487Y0025292D01*
X0028579Y0025143D01*
X0028666Y0024993D01*
X0028750Y0024841D01*
X0028830Y0024686D01*
X0028907Y0024530D01*
X0028979Y0024372D01*
X0029048Y0024212D01*
X0029112Y0024051D01*
X0029173Y0023888D01*
X0029229Y0023723D01*
X0029282Y0023557D01*
X0029330Y0023390D01*
X0029375Y0023222D01*
X0029415Y0023053D01*
X0029451Y0022883D01*
X0029483Y0022712D01*
X0029510Y0022540D01*
X0029534Y0022368D01*
X0029553Y0022195D01*
X0029568Y0022021D01*
X0029578Y0021848D01*
X0029585Y0021674D01*
X0029587Y0021500D01*
X0029585Y0021326D01*
X0029578Y0021152D01*
X0029568Y0020979D01*
X0029553Y0020805D01*
X0029534Y0020632D01*
X0029510Y0020460D01*
X0029483Y0020288D01*
X0029451Y0020117D01*
X0029415Y0019947D01*
X0029375Y0019778D01*
X0029330Y0019610D01*
X0029282Y0019443D01*
X0029229Y0019277D01*
X0029173Y0019112D01*
X0029112Y0018949D01*
X0029048Y0018788D01*
X0028979Y0018628D01*
X0028907Y0018470D01*
X0028830Y0018314D01*
X0028750Y0018159D01*
X0028666Y0018007D01*
X0028579Y0017857D01*
X0028487Y0017708D01*
X0028393Y0017563D01*
X0028294Y0017419D01*
X0028192Y0017278D01*
X0028087Y0017140D01*
X0027978Y0017004D01*
X0027866Y0016871D01*
X0027751Y0016741D01*
X0027633Y0016613D01*
X0027511Y0016489D01*
X0027387Y0016367D01*
X0027259Y0016249D01*
X0027129Y0016134D01*
X0026996Y0016022D01*
X0026860Y0015913D01*
X0026722Y0015808D01*
X0026581Y0015706D01*
X0026437Y0015607D01*
X0026292Y0015513D01*
X0026143Y0015421D01*
X0025993Y0015334D01*
X0025841Y0015250D01*
X0025686Y0015170D01*
X0025530Y0015093D01*
X0025372Y0015021D01*
X0025212Y0014952D01*
X0025051Y0014888D01*
X0024888Y0014827D01*
X0024723Y0014771D01*
X0024557Y0014718D01*
X0024390Y0014670D01*
X0024222Y0014625D01*
X0024053Y0014585D01*
X0023883Y0014549D01*
X0023712Y0014517D01*
X0023540Y0014490D01*
X0023368Y0014466D01*
X0023195Y0014447D01*
X0023021Y0014432D01*
X0022848Y0014422D01*
X0022674Y0014415D01*
X0022500Y0014413D01*
X0022326Y0014415D01*
X0022152Y0014422D01*
X0021979Y0014432D01*
X0021805Y0014447D01*
X0021632Y0014466D01*
X0021460Y0014490D01*
X0021288Y0014517D01*
X0021117Y0014549D01*
X0020947Y0014585D01*
X0020778Y0014625D01*
X0020610Y0014670D01*
X0020443Y0014718D01*
X0020277Y0014771D01*
X0020112Y0014827D01*
X0019949Y0014888D01*
X0019788Y0014952D01*
X0019628Y0015021D01*
X0019470Y0015093D01*
X0019314Y0015170D01*
X0019159Y0015250D01*
X0019007Y0015334D01*
X0018857Y0015421D01*
X0018708Y0015513D01*
X0018563Y0015607D01*
X0018419Y0015706D01*
X0018278Y0015808D01*
X0018140Y0015913D01*
X0018004Y0016022D01*
X0017871Y0016134D01*
X0017741Y0016249D01*
X0017613Y0016367D01*
X0017489Y0016489D01*
X0017367Y0016613D01*
X0017249Y0016741D01*
X0017134Y0016871D01*
X0017022Y0017004D01*
X0016913Y0017140D01*
X0016808Y0017278D01*
X0016706Y0017419D01*
X0016607Y0017563D01*
X0016513Y0017708D01*
X0016421Y0017857D01*
X0016334Y0018007D01*
X0016250Y0018159D01*
X0016170Y0018314D01*
X0016093Y0018470D01*
X0016021Y0018628D01*
X0015952Y0018788D01*
X0015888Y0018949D01*
X0015827Y0019112D01*
X0015771Y0019277D01*
X0015718Y0019443D01*
X0015670Y0019610D01*
X0015625Y0019778D01*
X0015585Y0019947D01*
X0015549Y0020117D01*
X0015517Y0020288D01*
X0015490Y0020460D01*
X0015466Y0020632D01*
X0015447Y0020805D01*
X0015432Y0020979D01*
X0015422Y0021152D01*
X0015415Y0021326D01*
X0015413Y0021500D01*
X0015413Y0392500D02*
X0015415Y0392674D01*
X0015422Y0392848D01*
X0015432Y0393021D01*
X0015447Y0393195D01*
X0015466Y0393368D01*
X0015490Y0393540D01*
X0015517Y0393712D01*
X0015549Y0393883D01*
X0015585Y0394053D01*
X0015625Y0394222D01*
X0015670Y0394390D01*
X0015718Y0394557D01*
X0015771Y0394723D01*
X0015827Y0394888D01*
X0015888Y0395051D01*
X0015952Y0395212D01*
X0016021Y0395372D01*
X0016093Y0395530D01*
X0016170Y0395686D01*
X0016250Y0395841D01*
X0016334Y0395993D01*
X0016421Y0396143D01*
X0016513Y0396292D01*
X0016607Y0396437D01*
X0016706Y0396581D01*
X0016808Y0396722D01*
X0016913Y0396860D01*
X0017022Y0396996D01*
X0017134Y0397129D01*
X0017249Y0397259D01*
X0017367Y0397387D01*
X0017489Y0397511D01*
X0017613Y0397633D01*
X0017741Y0397751D01*
X0017871Y0397866D01*
X0018004Y0397978D01*
X0018140Y0398087D01*
X0018278Y0398192D01*
X0018419Y0398294D01*
X0018563Y0398393D01*
X0018708Y0398487D01*
X0018857Y0398579D01*
X0019007Y0398666D01*
X0019159Y0398750D01*
X0019314Y0398830D01*
X0019470Y0398907D01*
X0019628Y0398979D01*
X0019788Y0399048D01*
X0019949Y0399112D01*
X0020112Y0399173D01*
X0020277Y0399229D01*
X0020443Y0399282D01*
X0020610Y0399330D01*
X0020778Y0399375D01*
X0020947Y0399415D01*
X0021117Y0399451D01*
X0021288Y0399483D01*
X0021460Y0399510D01*
X0021632Y0399534D01*
X0021805Y0399553D01*
X0021979Y0399568D01*
X0022152Y0399578D01*
X0022326Y0399585D01*
X0022500Y0399587D01*
X0022674Y0399585D01*
X0022848Y0399578D01*
X0023021Y0399568D01*
X0023195Y0399553D01*
X0023368Y0399534D01*
X0023540Y0399510D01*
X0023712Y0399483D01*
X0023883Y0399451D01*
X0024053Y0399415D01*
X0024222Y0399375D01*
X0024390Y0399330D01*
X0024557Y0399282D01*
X0024723Y0399229D01*
X0024888Y0399173D01*
X0025051Y0399112D01*
X0025212Y0399048D01*
X0025372Y0398979D01*
X0025530Y0398907D01*
X0025686Y0398830D01*
X0025841Y0398750D01*
X0025993Y0398666D01*
X0026143Y0398579D01*
X0026292Y0398487D01*
X0026437Y0398393D01*
X0026581Y0398294D01*
X0026722Y0398192D01*
X0026860Y0398087D01*
X0026996Y0397978D01*
X0027129Y0397866D01*
X0027259Y0397751D01*
X0027387Y0397633D01*
X0027511Y0397511D01*
X0027633Y0397387D01*
X0027751Y0397259D01*
X0027866Y0397129D01*
X0027978Y0396996D01*
X0028087Y0396860D01*
X0028192Y0396722D01*
X0028294Y0396581D01*
X0028393Y0396437D01*
X0028487Y0396292D01*
X0028579Y0396143D01*
X0028666Y0395993D01*
X0028750Y0395841D01*
X0028830Y0395686D01*
X0028907Y0395530D01*
X0028979Y0395372D01*
X0029048Y0395212D01*
X0029112Y0395051D01*
X0029173Y0394888D01*
X0029229Y0394723D01*
X0029282Y0394557D01*
X0029330Y0394390D01*
X0029375Y0394222D01*
X0029415Y0394053D01*
X0029451Y0393883D01*
X0029483Y0393712D01*
X0029510Y0393540D01*
X0029534Y0393368D01*
X0029553Y0393195D01*
X0029568Y0393021D01*
X0029578Y0392848D01*
X0029585Y0392674D01*
X0029587Y0392500D01*
X0029585Y0392326D01*
X0029578Y0392152D01*
X0029568Y0391979D01*
X0029553Y0391805D01*
X0029534Y0391632D01*
X0029510Y0391460D01*
X0029483Y0391288D01*
X0029451Y0391117D01*
X0029415Y0390947D01*
X0029375Y0390778D01*
X0029330Y0390610D01*
X0029282Y0390443D01*
X0029229Y0390277D01*
X0029173Y0390112D01*
X0029112Y0389949D01*
X0029048Y0389788D01*
X0028979Y0389628D01*
X0028907Y0389470D01*
X0028830Y0389314D01*
X0028750Y0389159D01*
X0028666Y0389007D01*
X0028579Y0388857D01*
X0028487Y0388708D01*
X0028393Y0388563D01*
X0028294Y0388419D01*
X0028192Y0388278D01*
X0028087Y0388140D01*
X0027978Y0388004D01*
X0027866Y0387871D01*
X0027751Y0387741D01*
X0027633Y0387613D01*
X0027511Y0387489D01*
X0027387Y0387367D01*
X0027259Y0387249D01*
X0027129Y0387134D01*
X0026996Y0387022D01*
X0026860Y0386913D01*
X0026722Y0386808D01*
X0026581Y0386706D01*
X0026437Y0386607D01*
X0026292Y0386513D01*
X0026143Y0386421D01*
X0025993Y0386334D01*
X0025841Y0386250D01*
X0025686Y0386170D01*
X0025530Y0386093D01*
X0025372Y0386021D01*
X0025212Y0385952D01*
X0025051Y0385888D01*
X0024888Y0385827D01*
X0024723Y0385771D01*
X0024557Y0385718D01*
X0024390Y0385670D01*
X0024222Y0385625D01*
X0024053Y0385585D01*
X0023883Y0385549D01*
X0023712Y0385517D01*
X0023540Y0385490D01*
X0023368Y0385466D01*
X0023195Y0385447D01*
X0023021Y0385432D01*
X0022848Y0385422D01*
X0022674Y0385415D01*
X0022500Y0385413D01*
X0022326Y0385415D01*
X0022152Y0385422D01*
X0021979Y0385432D01*
X0021805Y0385447D01*
X0021632Y0385466D01*
X0021460Y0385490D01*
X0021288Y0385517D01*
X0021117Y0385549D01*
X0020947Y0385585D01*
X0020778Y0385625D01*
X0020610Y0385670D01*
X0020443Y0385718D01*
X0020277Y0385771D01*
X0020112Y0385827D01*
X0019949Y0385888D01*
X0019788Y0385952D01*
X0019628Y0386021D01*
X0019470Y0386093D01*
X0019314Y0386170D01*
X0019159Y0386250D01*
X0019007Y0386334D01*
X0018857Y0386421D01*
X0018708Y0386513D01*
X0018563Y0386607D01*
X0018419Y0386706D01*
X0018278Y0386808D01*
X0018140Y0386913D01*
X0018004Y0387022D01*
X0017871Y0387134D01*
X0017741Y0387249D01*
X0017613Y0387367D01*
X0017489Y0387489D01*
X0017367Y0387613D01*
X0017249Y0387741D01*
X0017134Y0387871D01*
X0017022Y0388004D01*
X0016913Y0388140D01*
X0016808Y0388278D01*
X0016706Y0388419D01*
X0016607Y0388563D01*
X0016513Y0388708D01*
X0016421Y0388857D01*
X0016334Y0389007D01*
X0016250Y0389159D01*
X0016170Y0389314D01*
X0016093Y0389470D01*
X0016021Y0389628D01*
X0015952Y0389788D01*
X0015888Y0389949D01*
X0015827Y0390112D01*
X0015771Y0390277D01*
X0015718Y0390443D01*
X0015670Y0390610D01*
X0015625Y0390778D01*
X0015585Y0390947D01*
X0015549Y0391117D01*
X0015517Y0391288D01*
X0015490Y0391460D01*
X0015466Y0391632D01*
X0015447Y0391805D01*
X0015432Y0391979D01*
X0015422Y0392152D01*
X0015415Y0392326D01*
X0015413Y0392500D01*
X1126913Y0389500D02*
X1126915Y0389674D01*
X1126922Y0389848D01*
X1126932Y0390021D01*
X1126947Y0390195D01*
X1126966Y0390368D01*
X1126990Y0390540D01*
X1127017Y0390712D01*
X1127049Y0390883D01*
X1127085Y0391053D01*
X1127125Y0391222D01*
X1127170Y0391390D01*
X1127218Y0391557D01*
X1127271Y0391723D01*
X1127327Y0391888D01*
X1127388Y0392051D01*
X1127452Y0392212D01*
X1127521Y0392372D01*
X1127593Y0392530D01*
X1127670Y0392686D01*
X1127750Y0392841D01*
X1127834Y0392993D01*
X1127921Y0393143D01*
X1128013Y0393292D01*
X1128107Y0393437D01*
X1128206Y0393581D01*
X1128308Y0393722D01*
X1128413Y0393860D01*
X1128522Y0393996D01*
X1128634Y0394129D01*
X1128749Y0394259D01*
X1128867Y0394387D01*
X1128989Y0394511D01*
X1129113Y0394633D01*
X1129241Y0394751D01*
X1129371Y0394866D01*
X1129504Y0394978D01*
X1129640Y0395087D01*
X1129778Y0395192D01*
X1129919Y0395294D01*
X1130063Y0395393D01*
X1130208Y0395487D01*
X1130357Y0395579D01*
X1130507Y0395666D01*
X1130659Y0395750D01*
X1130814Y0395830D01*
X1130970Y0395907D01*
X1131128Y0395979D01*
X1131288Y0396048D01*
X1131449Y0396112D01*
X1131612Y0396173D01*
X1131777Y0396229D01*
X1131943Y0396282D01*
X1132110Y0396330D01*
X1132278Y0396375D01*
X1132447Y0396415D01*
X1132617Y0396451D01*
X1132788Y0396483D01*
X1132960Y0396510D01*
X1133132Y0396534D01*
X1133305Y0396553D01*
X1133479Y0396568D01*
X1133652Y0396578D01*
X1133826Y0396585D01*
X1134000Y0396587D01*
X1134174Y0396585D01*
X1134348Y0396578D01*
X1134521Y0396568D01*
X1134695Y0396553D01*
X1134868Y0396534D01*
X1135040Y0396510D01*
X1135212Y0396483D01*
X1135383Y0396451D01*
X1135553Y0396415D01*
X1135722Y0396375D01*
X1135890Y0396330D01*
X1136057Y0396282D01*
X1136223Y0396229D01*
X1136388Y0396173D01*
X1136551Y0396112D01*
X1136712Y0396048D01*
X1136872Y0395979D01*
X1137030Y0395907D01*
X1137186Y0395830D01*
X1137341Y0395750D01*
X1137493Y0395666D01*
X1137643Y0395579D01*
X1137792Y0395487D01*
X1137937Y0395393D01*
X1138081Y0395294D01*
X1138222Y0395192D01*
X1138360Y0395087D01*
X1138496Y0394978D01*
X1138629Y0394866D01*
X1138759Y0394751D01*
X1138887Y0394633D01*
X1139011Y0394511D01*
X1139133Y0394387D01*
X1139251Y0394259D01*
X1139366Y0394129D01*
X1139478Y0393996D01*
X1139587Y0393860D01*
X1139692Y0393722D01*
X1139794Y0393581D01*
X1139893Y0393437D01*
X1139987Y0393292D01*
X1140079Y0393143D01*
X1140166Y0392993D01*
X1140250Y0392841D01*
X1140330Y0392686D01*
X1140407Y0392530D01*
X1140479Y0392372D01*
X1140548Y0392212D01*
X1140612Y0392051D01*
X1140673Y0391888D01*
X1140729Y0391723D01*
X1140782Y0391557D01*
X1140830Y0391390D01*
X1140875Y0391222D01*
X1140915Y0391053D01*
X1140951Y0390883D01*
X1140983Y0390712D01*
X1141010Y0390540D01*
X1141034Y0390368D01*
X1141053Y0390195D01*
X1141068Y0390021D01*
X1141078Y0389848D01*
X1141085Y0389674D01*
X1141087Y0389500D01*
X1141085Y0389326D01*
X1141078Y0389152D01*
X1141068Y0388979D01*
X1141053Y0388805D01*
X1141034Y0388632D01*
X1141010Y0388460D01*
X1140983Y0388288D01*
X1140951Y0388117D01*
X1140915Y0387947D01*
X1140875Y0387778D01*
X1140830Y0387610D01*
X1140782Y0387443D01*
X1140729Y0387277D01*
X1140673Y0387112D01*
X1140612Y0386949D01*
X1140548Y0386788D01*
X1140479Y0386628D01*
X1140407Y0386470D01*
X1140330Y0386314D01*
X1140250Y0386159D01*
X1140166Y0386007D01*
X1140079Y0385857D01*
X1139987Y0385708D01*
X1139893Y0385563D01*
X1139794Y0385419D01*
X1139692Y0385278D01*
X1139587Y0385140D01*
X1139478Y0385004D01*
X1139366Y0384871D01*
X1139251Y0384741D01*
X1139133Y0384613D01*
X1139011Y0384489D01*
X1138887Y0384367D01*
X1138759Y0384249D01*
X1138629Y0384134D01*
X1138496Y0384022D01*
X1138360Y0383913D01*
X1138222Y0383808D01*
X1138081Y0383706D01*
X1137937Y0383607D01*
X1137792Y0383513D01*
X1137643Y0383421D01*
X1137493Y0383334D01*
X1137341Y0383250D01*
X1137186Y0383170D01*
X1137030Y0383093D01*
X1136872Y0383021D01*
X1136712Y0382952D01*
X1136551Y0382888D01*
X1136388Y0382827D01*
X1136223Y0382771D01*
X1136057Y0382718D01*
X1135890Y0382670D01*
X1135722Y0382625D01*
X1135553Y0382585D01*
X1135383Y0382549D01*
X1135212Y0382517D01*
X1135040Y0382490D01*
X1134868Y0382466D01*
X1134695Y0382447D01*
X1134521Y0382432D01*
X1134348Y0382422D01*
X1134174Y0382415D01*
X1134000Y0382413D01*
X1133826Y0382415D01*
X1133652Y0382422D01*
X1133479Y0382432D01*
X1133305Y0382447D01*
X1133132Y0382466D01*
X1132960Y0382490D01*
X1132788Y0382517D01*
X1132617Y0382549D01*
X1132447Y0382585D01*
X1132278Y0382625D01*
X1132110Y0382670D01*
X1131943Y0382718D01*
X1131777Y0382771D01*
X1131612Y0382827D01*
X1131449Y0382888D01*
X1131288Y0382952D01*
X1131128Y0383021D01*
X1130970Y0383093D01*
X1130814Y0383170D01*
X1130659Y0383250D01*
X1130507Y0383334D01*
X1130357Y0383421D01*
X1130208Y0383513D01*
X1130063Y0383607D01*
X1129919Y0383706D01*
X1129778Y0383808D01*
X1129640Y0383913D01*
X1129504Y0384022D01*
X1129371Y0384134D01*
X1129241Y0384249D01*
X1129113Y0384367D01*
X1128989Y0384489D01*
X1128867Y0384613D01*
X1128749Y0384741D01*
X1128634Y0384871D01*
X1128522Y0385004D01*
X1128413Y0385140D01*
X1128308Y0385278D01*
X1128206Y0385419D01*
X1128107Y0385563D01*
X1128013Y0385708D01*
X1127921Y0385857D01*
X1127834Y0386007D01*
X1127750Y0386159D01*
X1127670Y0386314D01*
X1127593Y0386470D01*
X1127521Y0386628D01*
X1127452Y0386788D01*
X1127388Y0386949D01*
X1127327Y0387112D01*
X1127271Y0387277D01*
X1127218Y0387443D01*
X1127170Y0387610D01*
X1127125Y0387778D01*
X1127085Y0387947D01*
X1127049Y0388117D01*
X1127017Y0388288D01*
X1126990Y0388460D01*
X1126966Y0388632D01*
X1126947Y0388805D01*
X1126932Y0388979D01*
X1126922Y0389152D01*
X1126915Y0389326D01*
X1126913Y0389500D01*
X1129913Y0028500D02*
X1129915Y0028674D01*
X1129922Y0028848D01*
X1129932Y0029021D01*
X1129947Y0029195D01*
X1129966Y0029368D01*
X1129990Y0029540D01*
X1130017Y0029712D01*
X1130049Y0029883D01*
X1130085Y0030053D01*
X1130125Y0030222D01*
X1130170Y0030390D01*
X1130218Y0030557D01*
X1130271Y0030723D01*
X1130327Y0030888D01*
X1130388Y0031051D01*
X1130452Y0031212D01*
X1130521Y0031372D01*
X1130593Y0031530D01*
X1130670Y0031686D01*
X1130750Y0031841D01*
X1130834Y0031993D01*
X1130921Y0032143D01*
X1131013Y0032292D01*
X1131107Y0032437D01*
X1131206Y0032581D01*
X1131308Y0032722D01*
X1131413Y0032860D01*
X1131522Y0032996D01*
X1131634Y0033129D01*
X1131749Y0033259D01*
X1131867Y0033387D01*
X1131989Y0033511D01*
X1132113Y0033633D01*
X1132241Y0033751D01*
X1132371Y0033866D01*
X1132504Y0033978D01*
X1132640Y0034087D01*
X1132778Y0034192D01*
X1132919Y0034294D01*
X1133063Y0034393D01*
X1133208Y0034487D01*
X1133357Y0034579D01*
X1133507Y0034666D01*
X1133659Y0034750D01*
X1133814Y0034830D01*
X1133970Y0034907D01*
X1134128Y0034979D01*
X1134288Y0035048D01*
X1134449Y0035112D01*
X1134612Y0035173D01*
X1134777Y0035229D01*
X1134943Y0035282D01*
X1135110Y0035330D01*
X1135278Y0035375D01*
X1135447Y0035415D01*
X1135617Y0035451D01*
X1135788Y0035483D01*
X1135960Y0035510D01*
X1136132Y0035534D01*
X1136305Y0035553D01*
X1136479Y0035568D01*
X1136652Y0035578D01*
X1136826Y0035585D01*
X1137000Y0035587D01*
X1137174Y0035585D01*
X1137348Y0035578D01*
X1137521Y0035568D01*
X1137695Y0035553D01*
X1137868Y0035534D01*
X1138040Y0035510D01*
X1138212Y0035483D01*
X1138383Y0035451D01*
X1138553Y0035415D01*
X1138722Y0035375D01*
X1138890Y0035330D01*
X1139057Y0035282D01*
X1139223Y0035229D01*
X1139388Y0035173D01*
X1139551Y0035112D01*
X1139712Y0035048D01*
X1139872Y0034979D01*
X1140030Y0034907D01*
X1140186Y0034830D01*
X1140341Y0034750D01*
X1140493Y0034666D01*
X1140643Y0034579D01*
X1140792Y0034487D01*
X1140937Y0034393D01*
X1141081Y0034294D01*
X1141222Y0034192D01*
X1141360Y0034087D01*
X1141496Y0033978D01*
X1141629Y0033866D01*
X1141759Y0033751D01*
X1141887Y0033633D01*
X1142011Y0033511D01*
X1142133Y0033387D01*
X1142251Y0033259D01*
X1142366Y0033129D01*
X1142478Y0032996D01*
X1142587Y0032860D01*
X1142692Y0032722D01*
X1142794Y0032581D01*
X1142893Y0032437D01*
X1142987Y0032292D01*
X1143079Y0032143D01*
X1143166Y0031993D01*
X1143250Y0031841D01*
X1143330Y0031686D01*
X1143407Y0031530D01*
X1143479Y0031372D01*
X1143548Y0031212D01*
X1143612Y0031051D01*
X1143673Y0030888D01*
X1143729Y0030723D01*
X1143782Y0030557D01*
X1143830Y0030390D01*
X1143875Y0030222D01*
X1143915Y0030053D01*
X1143951Y0029883D01*
X1143983Y0029712D01*
X1144010Y0029540D01*
X1144034Y0029368D01*
X1144053Y0029195D01*
X1144068Y0029021D01*
X1144078Y0028848D01*
X1144085Y0028674D01*
X1144087Y0028500D01*
X1144085Y0028326D01*
X1144078Y0028152D01*
X1144068Y0027979D01*
X1144053Y0027805D01*
X1144034Y0027632D01*
X1144010Y0027460D01*
X1143983Y0027288D01*
X1143951Y0027117D01*
X1143915Y0026947D01*
X1143875Y0026778D01*
X1143830Y0026610D01*
X1143782Y0026443D01*
X1143729Y0026277D01*
X1143673Y0026112D01*
X1143612Y0025949D01*
X1143548Y0025788D01*
X1143479Y0025628D01*
X1143407Y0025470D01*
X1143330Y0025314D01*
X1143250Y0025159D01*
X1143166Y0025007D01*
X1143079Y0024857D01*
X1142987Y0024708D01*
X1142893Y0024563D01*
X1142794Y0024419D01*
X1142692Y0024278D01*
X1142587Y0024140D01*
X1142478Y0024004D01*
X1142366Y0023871D01*
X1142251Y0023741D01*
X1142133Y0023613D01*
X1142011Y0023489D01*
X1141887Y0023367D01*
X1141759Y0023249D01*
X1141629Y0023134D01*
X1141496Y0023022D01*
X1141360Y0022913D01*
X1141222Y0022808D01*
X1141081Y0022706D01*
X1140937Y0022607D01*
X1140792Y0022513D01*
X1140643Y0022421D01*
X1140493Y0022334D01*
X1140341Y0022250D01*
X1140186Y0022170D01*
X1140030Y0022093D01*
X1139872Y0022021D01*
X1139712Y0021952D01*
X1139551Y0021888D01*
X1139388Y0021827D01*
X1139223Y0021771D01*
X1139057Y0021718D01*
X1138890Y0021670D01*
X1138722Y0021625D01*
X1138553Y0021585D01*
X1138383Y0021549D01*
X1138212Y0021517D01*
X1138040Y0021490D01*
X1137868Y0021466D01*
X1137695Y0021447D01*
X1137521Y0021432D01*
X1137348Y0021422D01*
X1137174Y0021415D01*
X1137000Y0021413D01*
X1136826Y0021415D01*
X1136652Y0021422D01*
X1136479Y0021432D01*
X1136305Y0021447D01*
X1136132Y0021466D01*
X1135960Y0021490D01*
X1135788Y0021517D01*
X1135617Y0021549D01*
X1135447Y0021585D01*
X1135278Y0021625D01*
X1135110Y0021670D01*
X1134943Y0021718D01*
X1134777Y0021771D01*
X1134612Y0021827D01*
X1134449Y0021888D01*
X1134288Y0021952D01*
X1134128Y0022021D01*
X1133970Y0022093D01*
X1133814Y0022170D01*
X1133659Y0022250D01*
X1133507Y0022334D01*
X1133357Y0022421D01*
X1133208Y0022513D01*
X1133063Y0022607D01*
X1132919Y0022706D01*
X1132778Y0022808D01*
X1132640Y0022913D01*
X1132504Y0023022D01*
X1132371Y0023134D01*
X1132241Y0023249D01*
X1132113Y0023367D01*
X1131989Y0023489D01*
X1131867Y0023613D01*
X1131749Y0023741D01*
X1131634Y0023871D01*
X1131522Y0024004D01*
X1131413Y0024140D01*
X1131308Y0024278D01*
X1131206Y0024419D01*
X1131107Y0024563D01*
X1131013Y0024708D01*
X1130921Y0024857D01*
X1130834Y0025007D01*
X1130750Y0025159D01*
X1130670Y0025314D01*
X1130593Y0025470D01*
X1130521Y0025628D01*
X1130452Y0025788D01*
X1130388Y0025949D01*
X1130327Y0026112D01*
X1130271Y0026277D01*
X1130218Y0026443D01*
X1130170Y0026610D01*
X1130125Y0026778D01*
X1130085Y0026947D01*
X1130049Y0027117D01*
X1130017Y0027288D01*
X1129990Y0027460D01*
X1129966Y0027632D01*
X1129947Y0027805D01*
X1129932Y0027979D01*
X1129922Y0028152D01*
X1129915Y0028326D01*
X1129913Y0028500D01*
M02*
