%
M48
M72
T01C0.0130
T02C0.0197
T03C0.0236
T04C0.0276
T05C0.0320
T06C0.0354
T07C0.0394
T08C0.0400
T09C0.0470
T10C0.0512
T11C0.1417
%
T01
X18420Y8490
X21480Y8490
X21210Y13170
X23190Y13170
X23730Y13440
X17070Y15780
X17430Y16590
X17070Y17400
X12390Y15060
X11490Y15960
X10230Y14340
X10230Y19830
X11760Y19650
X12210Y19920
X12480Y19650
X15540Y20280
X16710Y20460
X16710Y20910
X17070Y21270
X18600Y21090
X18240Y20640
X17430Y20460
X20670Y21990
X21030Y21810
X20400Y22440
X18600Y22620
X18150Y23250
X17790Y22440
X21930Y21450
X22290Y21270
X23730Y21450
X23910Y21810
X25170Y21450
X26700Y21270
X27420Y21270
X27780Y21450
X28230Y21450
X29490Y21270
X29490Y21720
X28770Y22350
X29130Y22710
X29130Y23250
X32550Y23610
X32910Y23790
X34530Y24600
X36420Y23700
X38400Y23430
X38940Y23520
X39570Y23610
X40830Y23430
X40830Y23880
X40920Y24420
X40830Y24870
X40830Y25410
X40830Y25950
X40830Y22890
X41640Y22260
X41910Y21900
X42090Y21270
X42720Y20910
X43170Y20910
X42360Y20100
X42360Y19650
X45060Y20100
X45870Y20730
X44700Y20910
X46500Y21810
X46860Y22170
X49290Y21900
X51180Y22890
X51810Y22260
X52080Y21900
X52620Y22080
X52260Y21270
X52980Y21270
X53520Y20910
X52710Y20100
X55140Y20460
X55590Y20460
X55050Y21450
X55050Y21900
X56220Y23250
X56760Y23250
X59550Y23790
X59910Y23610
X59910Y23160
X60360Y23070
X60360Y22620
X62340Y22440
X62610Y21990
X62790Y21630
X63780Y21270
X63960Y20910
X63960Y21900
X66480Y21990
X67200Y22260
X67920Y22530
X67920Y22980
X65400Y23610
X71160Y23430
X71160Y22980
X73230Y21720
X71250Y21450
X70800Y20910
X70440Y20640
X73230Y20370
X73410Y21090
X74490Y21090
X74850Y20460
X76380Y21180
X76740Y20370
X74850Y19740
X77730Y19020
X80880Y20370
X83580Y20370
X83760Y21090
X83490Y21810
X85290Y21180
X85200Y20460
X87180Y20550
X87900Y21270
X86640Y21540
X89790Y21900
X90060Y22710
X88260Y22890
X87540Y22620
X92310Y22620
X95280Y21900
X94560Y21180
X96000Y21090
X95820Y20370
X95820Y19650
X94920Y20370
X94200Y20370
X92130Y20370
X91410Y20460
X92220Y21180
X90150Y20820
X90150Y20370
X85200Y19650
X81600Y21450
X81240Y21270
X79890Y22890
X81600Y23070
X77730Y24150
X77370Y23520
X76290Y23070
X74940Y22530
X74940Y21990
X67560Y20640
X66840Y21090
X66030Y20640
X65400Y20820
X63150Y20100
X58830Y21180
X51180Y23430
X51180Y23880
X51180Y24330
X51180Y24780
X49650Y23880
X51180Y25950
X61620Y27210
X71520Y29130
X72510Y27750
X72510Y27300
X82590Y27390
X82590Y27840
X82770Y29190
X85650Y29280
X84300Y25950
X83490Y25860
X95640Y23250
X97530Y23880
X97350Y24510
X98970Y23430
X99330Y22980
X97890Y21990
X98250Y21180
X98610Y20280
X101580Y20280
X103830Y20280
X101760Y20910
X101850Y21450
X101850Y21900
X103200Y22080
X103200Y22620
X104100Y22710
X104100Y23160
X104100Y23700
X106890Y24600
X107160Y24870
X105540Y25500
X105540Y26310
X109320Y28200
X108600Y28920
X108150Y28920
X107700Y28920
X110130Y29460
X109140Y19380
X108240Y19110
X107160Y19020
X107880Y18300
X103920Y15960
X99330Y17220
X98970Y16320
X95640Y15960
X98970Y13440
X98700Y13170
X98340Y12900
X99150Y12810
X98970Y12180
X93930Y11820
X93480Y11820
X94020Y10200
X95820Y9660
X95730Y9120
X90510Y9390
X90150Y9210
X86910Y10290
X87270Y11190
X88260Y12180
X87540Y12810
X86640Y13440
X79530Y14340
X75930Y14430
X75930Y13980
X74760Y13170
X75570Y15240
X67920Y17310
X67560Y18300
X67560Y15420
X63150Y13890
X66480Y13440
X67200Y11820
X64140Y12000
X62610Y12000
X62340Y10110
X61620Y9840
X60630Y10020
X67470Y8760
X67920Y8760
X71520Y8220
X74220Y7230
X81600Y5970
X72510Y10200
X56760Y15240
X52530Y16320
X56760Y16680
X50190Y13440
X49830Y13620
X47130Y12810
X46500Y12270
X47130Y11280
X51270Y10830
X51630Y12000
X52530Y12000
X52890Y12810
X54510Y12990
X43260Y9030
X37770Y9750
X35700Y12000
X36060Y12990
X32910Y14250
X34080Y17400
X36420Y18930
X37320Y20370
X35340Y20370
X34980Y20640
X33180Y20910
X32010Y20820
X31380Y20370
X33180Y20100
X31650Y21630
X34800Y22800
X36060Y21990
X28230Y18930
X27780Y18930
X25440Y19290
X24180Y20280
X22290Y20820
X21840Y20100
X13560Y23070
X11400Y22710
X11040Y21360
X8520Y20910
X12210Y25320
X12210Y25770
X9690Y27390
X19680Y27390
X23640Y25230
X23640Y24240
X30750Y27300
X48210Y20100
X96540Y5610
X105540Y8400
T02
X104450Y9700
X105300Y11050
X94750Y11100
X94000Y9650
X84300Y11050
X83500Y9700
X73750Y11200
X73000Y9600
X63350Y11100
X62500Y9700
X52750Y11100
X51950Y9700
X42350Y11050
X41500Y9650
X32150Y7050
X31050Y9600
X28750Y10100
X31750Y11150
X22450Y11200
X21250Y11050
X20500Y11950
X20500Y9600
X10850Y11050
X10550Y8800
T03
X17850Y5500
X9200Y4650
X28800Y5350
X39250Y5350
X49650Y5300
X60600Y5550
X70850Y5400
X81550Y5500
X91750Y5300
X102200Y5300
X103500Y20600
X93850Y20700
X83150Y20700
X72850Y20700
X61900Y20850
X58250Y20100
X51300Y20550
X41050Y20450
X31050Y20850
X20050Y20650
X10050Y20850
X15900Y27350
X12750Y27650
X13950Y29950
X8950Y31150
X18700Y30150
X23300Y30050
X22850Y27650
X26400Y27250
X33550Y27650
X36950Y27200
X43650Y27700
X47450Y27150
X54000Y27700
X57350Y27250
X58450Y29150
X57800Y29750
X60400Y30400
X64750Y30100
X64750Y32100
X71150Y30250
X75950Y29950
X81850Y30450
X86500Y30100
X86500Y32200
X92400Y30400
X97450Y30100
X97450Y32250
X102800Y30800
X106750Y31600
X108600Y31600
X106300Y28550
X106250Y27850
X99950Y27150
X96250Y27700
X89450Y27350
X85350Y27750
X79050Y27400
X75550Y27500
X68550Y27400
X64600Y27650
X75950Y32200
X74450Y40150
X49950Y30400
X44900Y30100
X40050Y30200
X34200Y30400
X29950Y30950
T04
X31098Y13789
X30039Y13478
X29110Y12881
X28388Y12047
X27929Y11043
X24871Y11043
X24412Y12047
X23690Y12881
X22761Y13478
X21702Y13789
X20598Y13789
X19539Y13478
X18610Y12881
X17888Y12047
X17429Y11043
X14371Y11043
X13912Y12047
X13190Y12881
X12261Y13478
X11202Y13789
X10098Y13789
X9039Y13478
X8110Y12881
X7388Y12047
X6929Y11043
X6929Y8857
X7388Y7853
X8110Y7019
X9039Y6422
X10098Y6111
X11202Y6111
X12261Y6422
X13190Y7019
X13912Y7853
X14371Y8857
X14528Y9950
X17429Y8857
X17888Y7853
X18610Y7019
X19539Y6422
X20598Y6111
X21702Y6111
X22761Y6422
X23690Y7019
X24412Y7853
X24871Y8857
X25028Y9950
X27929Y8857
X28388Y7853
X29110Y7019
X30039Y6422
X31098Y6111
X32202Y6111
X33261Y6422
X34190Y7019
X34912Y7853
X35371Y8857
X35528Y9950
X38429Y8857
X38888Y7853
X39610Y7019
X40539Y6422
X41598Y6111
X42702Y6111
X43761Y6422
X44690Y7019
X45412Y7853
X45871Y8857
X46028Y9950
X48929Y8857
X49388Y7853
X50110Y7019
X51039Y6422
X52098Y6111
X53202Y6111
X54261Y6422
X55190Y7019
X55912Y7853
X56371Y8857
X56528Y9950
X59429Y8857
X59888Y7853
X60610Y7019
X61539Y6422
X62598Y6111
X63702Y6111
X64761Y6422
X65690Y7019
X66412Y7853
X66871Y8857
X67028Y9950
X69929Y8857
X70388Y7853
X71110Y7019
X72039Y6422
X73098Y6111
X74202Y6111
X75261Y6422
X76190Y7019
X76912Y7853
X77371Y8857
X77528Y9950
X80429Y8857
X80888Y7853
X81610Y7019
X82539Y6422
X83598Y6111
X84702Y6111
X85761Y6422
X86690Y7019
X87412Y7853
X87871Y8857
X88028Y9950
X90929Y8857
X91388Y7853
X92110Y7019
X93039Y6422
X94098Y6111
X95202Y6111
X96261Y6422
X97190Y7019
X97912Y7853
X98371Y8857
X98528Y9950
X101429Y8857
X101888Y7853
X102610Y7019
X103539Y6422
X104598Y6111
X105702Y6111
X106761Y6422
X107690Y7019
X108412Y7853
X108871Y8857
X109028Y9950
X108871Y11043
X108412Y12047
X107690Y12881
X106761Y13478
X105702Y13789
X104598Y13789
X103539Y13478
X102610Y12881
X101888Y12047
X101429Y11043
X98371Y11043
X97912Y12047
X97190Y12881
X96261Y13478
X95202Y13789
X94098Y13789
X93039Y13478
X92110Y12881
X91388Y12047
X90929Y11043
X87871Y11043
X87412Y12047
X86690Y12881
X85761Y13478
X84702Y13789
X83598Y13789
X82539Y13478
X81610Y12881
X80888Y12047
X80429Y11043
X77371Y11043
X76912Y12047
X76190Y12881
X75261Y13478
X74202Y13789
X73098Y13789
X72039Y13478
X71110Y12881
X70388Y12047
X69929Y11043
X66871Y11043
X66412Y12047
X65690Y12881
X64761Y13478
X63702Y13789
X62598Y13789
X61539Y13478
X60610Y12881
X59888Y12047
X59429Y11043
X56371Y11043
X55912Y12047
X55190Y12881
X54261Y13478
X53202Y13789
X52098Y13789
X51039Y13478
X50110Y12881
X49388Y12047
X48929Y11043
X45871Y11043
X45412Y12047
X44690Y12881
X43761Y13478
X42702Y13789
X41598Y13789
X40539Y13478
X39610Y12881
X38888Y12047
X38429Y11043
X35371Y11043
X34912Y12047
X34190Y12881
X33261Y13478
X32202Y13789
T05
X32200Y38300
X36200Y38300
T06
X105100Y33600
X105100Y32050
T07
X103900Y38700
T08
X90150Y37000
X89150Y37000
X88150Y37000
X87150Y37000
X87150Y36000
X88150Y36000
X89150Y36000
X90150Y36000
X38750Y36200
X38750Y35200
X38750Y37200
X29250Y37000
X29250Y35000
X20800Y35000
X20800Y37000
T09
X11884Y36650
X9916Y36650
X44066Y36350
X46034Y36350
T10
X39600Y32850
T11
X2250Y2150
X2250Y39250
X113400Y38950
X113700Y2850
M30
