G75*
%MOIN*%
%OFA0B0*%
%FSLAX25Y25*%
%IPPOS*%
%LPD*%
%AMOC8*
5,1,8,0,0,1.08239X$1,22.5*
%
%ADD10C,0.00000*%
%ADD11C,0.06200*%
%ADD12OC8,0.05400*%
%ADD13C,0.10600*%
%ADD14OC8,0.10600*%
%ADD15C,0.06600*%
%ADD16C,0.07650*%
%ADD17C,0.14773*%
%ADD18R,0.07687X0.06899*%
%ADD19R,0.06899X0.07698*%
%ADD20OC8,0.06600*%
%ADD21C,0.04362*%
%ADD22C,0.03300*%
%ADD23C,0.08277*%
%ADD24C,0.03969*%
%ADD25C,0.05915*%
%ADD26C,0.06506*%
%ADD27R,0.04362X0.04362*%
D10*
X0001500Y0002000D02*
X0001500Y0415201D01*
X1165421Y0415201D01*
X1165421Y0001500D01*
X0001500Y0002000D01*
X0015413Y0021500D02*
X0015415Y0021674D01*
X0015422Y0021848D01*
X0015432Y0022021D01*
X0015447Y0022195D01*
X0015466Y0022368D01*
X0015490Y0022540D01*
X0015517Y0022712D01*
X0015549Y0022883D01*
X0015585Y0023053D01*
X0015625Y0023222D01*
X0015670Y0023390D01*
X0015718Y0023557D01*
X0015771Y0023723D01*
X0015827Y0023888D01*
X0015888Y0024051D01*
X0015952Y0024212D01*
X0016021Y0024372D01*
X0016093Y0024530D01*
X0016170Y0024686D01*
X0016250Y0024841D01*
X0016334Y0024993D01*
X0016421Y0025143D01*
X0016513Y0025292D01*
X0016607Y0025437D01*
X0016706Y0025581D01*
X0016808Y0025722D01*
X0016913Y0025860D01*
X0017022Y0025996D01*
X0017134Y0026129D01*
X0017249Y0026259D01*
X0017367Y0026387D01*
X0017489Y0026511D01*
X0017613Y0026633D01*
X0017741Y0026751D01*
X0017871Y0026866D01*
X0018004Y0026978D01*
X0018140Y0027087D01*
X0018278Y0027192D01*
X0018419Y0027294D01*
X0018563Y0027393D01*
X0018708Y0027487D01*
X0018857Y0027579D01*
X0019007Y0027666D01*
X0019159Y0027750D01*
X0019314Y0027830D01*
X0019470Y0027907D01*
X0019628Y0027979D01*
X0019788Y0028048D01*
X0019949Y0028112D01*
X0020112Y0028173D01*
X0020277Y0028229D01*
X0020443Y0028282D01*
X0020610Y0028330D01*
X0020778Y0028375D01*
X0020947Y0028415D01*
X0021117Y0028451D01*
X0021288Y0028483D01*
X0021460Y0028510D01*
X0021632Y0028534D01*
X0021805Y0028553D01*
X0021979Y0028568D01*
X0022152Y0028578D01*
X0022326Y0028585D01*
X0022500Y0028587D01*
X0022674Y0028585D01*
X0022848Y0028578D01*
X0023021Y0028568D01*
X0023195Y0028553D01*
X0023368Y0028534D01*
X0023540Y0028510D01*
X0023712Y0028483D01*
X0023883Y0028451D01*
X0024053Y0028415D01*
X0024222Y0028375D01*
X0024390Y0028330D01*
X0024557Y0028282D01*
X0024723Y0028229D01*
X0024888Y0028173D01*
X0025051Y0028112D01*
X0025212Y0028048D01*
X0025372Y0027979D01*
X0025530Y0027907D01*
X0025686Y0027830D01*
X0025841Y0027750D01*
X0025993Y0027666D01*
X0026143Y0027579D01*
X0026292Y0027487D01*
X0026437Y0027393D01*
X0026581Y0027294D01*
X0026722Y0027192D01*
X0026860Y0027087D01*
X0026996Y0026978D01*
X0027129Y0026866D01*
X0027259Y0026751D01*
X0027387Y0026633D01*
X0027511Y0026511D01*
X0027633Y0026387D01*
X0027751Y0026259D01*
X0027866Y0026129D01*
X0027978Y0025996D01*
X0028087Y0025860D01*
X0028192Y0025722D01*
X0028294Y0025581D01*
X0028393Y0025437D01*
X0028487Y0025292D01*
X0028579Y0025143D01*
X0028666Y0024993D01*
X0028750Y0024841D01*
X0028830Y0024686D01*
X0028907Y0024530D01*
X0028979Y0024372D01*
X0029048Y0024212D01*
X0029112Y0024051D01*
X0029173Y0023888D01*
X0029229Y0023723D01*
X0029282Y0023557D01*
X0029330Y0023390D01*
X0029375Y0023222D01*
X0029415Y0023053D01*
X0029451Y0022883D01*
X0029483Y0022712D01*
X0029510Y0022540D01*
X0029534Y0022368D01*
X0029553Y0022195D01*
X0029568Y0022021D01*
X0029578Y0021848D01*
X0029585Y0021674D01*
X0029587Y0021500D01*
X0029585Y0021326D01*
X0029578Y0021152D01*
X0029568Y0020979D01*
X0029553Y0020805D01*
X0029534Y0020632D01*
X0029510Y0020460D01*
X0029483Y0020288D01*
X0029451Y0020117D01*
X0029415Y0019947D01*
X0029375Y0019778D01*
X0029330Y0019610D01*
X0029282Y0019443D01*
X0029229Y0019277D01*
X0029173Y0019112D01*
X0029112Y0018949D01*
X0029048Y0018788D01*
X0028979Y0018628D01*
X0028907Y0018470D01*
X0028830Y0018314D01*
X0028750Y0018159D01*
X0028666Y0018007D01*
X0028579Y0017857D01*
X0028487Y0017708D01*
X0028393Y0017563D01*
X0028294Y0017419D01*
X0028192Y0017278D01*
X0028087Y0017140D01*
X0027978Y0017004D01*
X0027866Y0016871D01*
X0027751Y0016741D01*
X0027633Y0016613D01*
X0027511Y0016489D01*
X0027387Y0016367D01*
X0027259Y0016249D01*
X0027129Y0016134D01*
X0026996Y0016022D01*
X0026860Y0015913D01*
X0026722Y0015808D01*
X0026581Y0015706D01*
X0026437Y0015607D01*
X0026292Y0015513D01*
X0026143Y0015421D01*
X0025993Y0015334D01*
X0025841Y0015250D01*
X0025686Y0015170D01*
X0025530Y0015093D01*
X0025372Y0015021D01*
X0025212Y0014952D01*
X0025051Y0014888D01*
X0024888Y0014827D01*
X0024723Y0014771D01*
X0024557Y0014718D01*
X0024390Y0014670D01*
X0024222Y0014625D01*
X0024053Y0014585D01*
X0023883Y0014549D01*
X0023712Y0014517D01*
X0023540Y0014490D01*
X0023368Y0014466D01*
X0023195Y0014447D01*
X0023021Y0014432D01*
X0022848Y0014422D01*
X0022674Y0014415D01*
X0022500Y0014413D01*
X0022326Y0014415D01*
X0022152Y0014422D01*
X0021979Y0014432D01*
X0021805Y0014447D01*
X0021632Y0014466D01*
X0021460Y0014490D01*
X0021288Y0014517D01*
X0021117Y0014549D01*
X0020947Y0014585D01*
X0020778Y0014625D01*
X0020610Y0014670D01*
X0020443Y0014718D01*
X0020277Y0014771D01*
X0020112Y0014827D01*
X0019949Y0014888D01*
X0019788Y0014952D01*
X0019628Y0015021D01*
X0019470Y0015093D01*
X0019314Y0015170D01*
X0019159Y0015250D01*
X0019007Y0015334D01*
X0018857Y0015421D01*
X0018708Y0015513D01*
X0018563Y0015607D01*
X0018419Y0015706D01*
X0018278Y0015808D01*
X0018140Y0015913D01*
X0018004Y0016022D01*
X0017871Y0016134D01*
X0017741Y0016249D01*
X0017613Y0016367D01*
X0017489Y0016489D01*
X0017367Y0016613D01*
X0017249Y0016741D01*
X0017134Y0016871D01*
X0017022Y0017004D01*
X0016913Y0017140D01*
X0016808Y0017278D01*
X0016706Y0017419D01*
X0016607Y0017563D01*
X0016513Y0017708D01*
X0016421Y0017857D01*
X0016334Y0018007D01*
X0016250Y0018159D01*
X0016170Y0018314D01*
X0016093Y0018470D01*
X0016021Y0018628D01*
X0015952Y0018788D01*
X0015888Y0018949D01*
X0015827Y0019112D01*
X0015771Y0019277D01*
X0015718Y0019443D01*
X0015670Y0019610D01*
X0015625Y0019778D01*
X0015585Y0019947D01*
X0015549Y0020117D01*
X0015517Y0020288D01*
X0015490Y0020460D01*
X0015466Y0020632D01*
X0015447Y0020805D01*
X0015432Y0020979D01*
X0015422Y0021152D01*
X0015415Y0021326D01*
X0015413Y0021500D01*
X0015413Y0392500D02*
X0015415Y0392674D01*
X0015422Y0392848D01*
X0015432Y0393021D01*
X0015447Y0393195D01*
X0015466Y0393368D01*
X0015490Y0393540D01*
X0015517Y0393712D01*
X0015549Y0393883D01*
X0015585Y0394053D01*
X0015625Y0394222D01*
X0015670Y0394390D01*
X0015718Y0394557D01*
X0015771Y0394723D01*
X0015827Y0394888D01*
X0015888Y0395051D01*
X0015952Y0395212D01*
X0016021Y0395372D01*
X0016093Y0395530D01*
X0016170Y0395686D01*
X0016250Y0395841D01*
X0016334Y0395993D01*
X0016421Y0396143D01*
X0016513Y0396292D01*
X0016607Y0396437D01*
X0016706Y0396581D01*
X0016808Y0396722D01*
X0016913Y0396860D01*
X0017022Y0396996D01*
X0017134Y0397129D01*
X0017249Y0397259D01*
X0017367Y0397387D01*
X0017489Y0397511D01*
X0017613Y0397633D01*
X0017741Y0397751D01*
X0017871Y0397866D01*
X0018004Y0397978D01*
X0018140Y0398087D01*
X0018278Y0398192D01*
X0018419Y0398294D01*
X0018563Y0398393D01*
X0018708Y0398487D01*
X0018857Y0398579D01*
X0019007Y0398666D01*
X0019159Y0398750D01*
X0019314Y0398830D01*
X0019470Y0398907D01*
X0019628Y0398979D01*
X0019788Y0399048D01*
X0019949Y0399112D01*
X0020112Y0399173D01*
X0020277Y0399229D01*
X0020443Y0399282D01*
X0020610Y0399330D01*
X0020778Y0399375D01*
X0020947Y0399415D01*
X0021117Y0399451D01*
X0021288Y0399483D01*
X0021460Y0399510D01*
X0021632Y0399534D01*
X0021805Y0399553D01*
X0021979Y0399568D01*
X0022152Y0399578D01*
X0022326Y0399585D01*
X0022500Y0399587D01*
X0022674Y0399585D01*
X0022848Y0399578D01*
X0023021Y0399568D01*
X0023195Y0399553D01*
X0023368Y0399534D01*
X0023540Y0399510D01*
X0023712Y0399483D01*
X0023883Y0399451D01*
X0024053Y0399415D01*
X0024222Y0399375D01*
X0024390Y0399330D01*
X0024557Y0399282D01*
X0024723Y0399229D01*
X0024888Y0399173D01*
X0025051Y0399112D01*
X0025212Y0399048D01*
X0025372Y0398979D01*
X0025530Y0398907D01*
X0025686Y0398830D01*
X0025841Y0398750D01*
X0025993Y0398666D01*
X0026143Y0398579D01*
X0026292Y0398487D01*
X0026437Y0398393D01*
X0026581Y0398294D01*
X0026722Y0398192D01*
X0026860Y0398087D01*
X0026996Y0397978D01*
X0027129Y0397866D01*
X0027259Y0397751D01*
X0027387Y0397633D01*
X0027511Y0397511D01*
X0027633Y0397387D01*
X0027751Y0397259D01*
X0027866Y0397129D01*
X0027978Y0396996D01*
X0028087Y0396860D01*
X0028192Y0396722D01*
X0028294Y0396581D01*
X0028393Y0396437D01*
X0028487Y0396292D01*
X0028579Y0396143D01*
X0028666Y0395993D01*
X0028750Y0395841D01*
X0028830Y0395686D01*
X0028907Y0395530D01*
X0028979Y0395372D01*
X0029048Y0395212D01*
X0029112Y0395051D01*
X0029173Y0394888D01*
X0029229Y0394723D01*
X0029282Y0394557D01*
X0029330Y0394390D01*
X0029375Y0394222D01*
X0029415Y0394053D01*
X0029451Y0393883D01*
X0029483Y0393712D01*
X0029510Y0393540D01*
X0029534Y0393368D01*
X0029553Y0393195D01*
X0029568Y0393021D01*
X0029578Y0392848D01*
X0029585Y0392674D01*
X0029587Y0392500D01*
X0029585Y0392326D01*
X0029578Y0392152D01*
X0029568Y0391979D01*
X0029553Y0391805D01*
X0029534Y0391632D01*
X0029510Y0391460D01*
X0029483Y0391288D01*
X0029451Y0391117D01*
X0029415Y0390947D01*
X0029375Y0390778D01*
X0029330Y0390610D01*
X0029282Y0390443D01*
X0029229Y0390277D01*
X0029173Y0390112D01*
X0029112Y0389949D01*
X0029048Y0389788D01*
X0028979Y0389628D01*
X0028907Y0389470D01*
X0028830Y0389314D01*
X0028750Y0389159D01*
X0028666Y0389007D01*
X0028579Y0388857D01*
X0028487Y0388708D01*
X0028393Y0388563D01*
X0028294Y0388419D01*
X0028192Y0388278D01*
X0028087Y0388140D01*
X0027978Y0388004D01*
X0027866Y0387871D01*
X0027751Y0387741D01*
X0027633Y0387613D01*
X0027511Y0387489D01*
X0027387Y0387367D01*
X0027259Y0387249D01*
X0027129Y0387134D01*
X0026996Y0387022D01*
X0026860Y0386913D01*
X0026722Y0386808D01*
X0026581Y0386706D01*
X0026437Y0386607D01*
X0026292Y0386513D01*
X0026143Y0386421D01*
X0025993Y0386334D01*
X0025841Y0386250D01*
X0025686Y0386170D01*
X0025530Y0386093D01*
X0025372Y0386021D01*
X0025212Y0385952D01*
X0025051Y0385888D01*
X0024888Y0385827D01*
X0024723Y0385771D01*
X0024557Y0385718D01*
X0024390Y0385670D01*
X0024222Y0385625D01*
X0024053Y0385585D01*
X0023883Y0385549D01*
X0023712Y0385517D01*
X0023540Y0385490D01*
X0023368Y0385466D01*
X0023195Y0385447D01*
X0023021Y0385432D01*
X0022848Y0385422D01*
X0022674Y0385415D01*
X0022500Y0385413D01*
X0022326Y0385415D01*
X0022152Y0385422D01*
X0021979Y0385432D01*
X0021805Y0385447D01*
X0021632Y0385466D01*
X0021460Y0385490D01*
X0021288Y0385517D01*
X0021117Y0385549D01*
X0020947Y0385585D01*
X0020778Y0385625D01*
X0020610Y0385670D01*
X0020443Y0385718D01*
X0020277Y0385771D01*
X0020112Y0385827D01*
X0019949Y0385888D01*
X0019788Y0385952D01*
X0019628Y0386021D01*
X0019470Y0386093D01*
X0019314Y0386170D01*
X0019159Y0386250D01*
X0019007Y0386334D01*
X0018857Y0386421D01*
X0018708Y0386513D01*
X0018563Y0386607D01*
X0018419Y0386706D01*
X0018278Y0386808D01*
X0018140Y0386913D01*
X0018004Y0387022D01*
X0017871Y0387134D01*
X0017741Y0387249D01*
X0017613Y0387367D01*
X0017489Y0387489D01*
X0017367Y0387613D01*
X0017249Y0387741D01*
X0017134Y0387871D01*
X0017022Y0388004D01*
X0016913Y0388140D01*
X0016808Y0388278D01*
X0016706Y0388419D01*
X0016607Y0388563D01*
X0016513Y0388708D01*
X0016421Y0388857D01*
X0016334Y0389007D01*
X0016250Y0389159D01*
X0016170Y0389314D01*
X0016093Y0389470D01*
X0016021Y0389628D01*
X0015952Y0389788D01*
X0015888Y0389949D01*
X0015827Y0390112D01*
X0015771Y0390277D01*
X0015718Y0390443D01*
X0015670Y0390610D01*
X0015625Y0390778D01*
X0015585Y0390947D01*
X0015549Y0391117D01*
X0015517Y0391288D01*
X0015490Y0391460D01*
X0015466Y0391632D01*
X0015447Y0391805D01*
X0015432Y0391979D01*
X0015422Y0392152D01*
X0015415Y0392326D01*
X0015413Y0392500D01*
X1126913Y0389500D02*
X1126915Y0389674D01*
X1126922Y0389848D01*
X1126932Y0390021D01*
X1126947Y0390195D01*
X1126966Y0390368D01*
X1126990Y0390540D01*
X1127017Y0390712D01*
X1127049Y0390883D01*
X1127085Y0391053D01*
X1127125Y0391222D01*
X1127170Y0391390D01*
X1127218Y0391557D01*
X1127271Y0391723D01*
X1127327Y0391888D01*
X1127388Y0392051D01*
X1127452Y0392212D01*
X1127521Y0392372D01*
X1127593Y0392530D01*
X1127670Y0392686D01*
X1127750Y0392841D01*
X1127834Y0392993D01*
X1127921Y0393143D01*
X1128013Y0393292D01*
X1128107Y0393437D01*
X1128206Y0393581D01*
X1128308Y0393722D01*
X1128413Y0393860D01*
X1128522Y0393996D01*
X1128634Y0394129D01*
X1128749Y0394259D01*
X1128867Y0394387D01*
X1128989Y0394511D01*
X1129113Y0394633D01*
X1129241Y0394751D01*
X1129371Y0394866D01*
X1129504Y0394978D01*
X1129640Y0395087D01*
X1129778Y0395192D01*
X1129919Y0395294D01*
X1130063Y0395393D01*
X1130208Y0395487D01*
X1130357Y0395579D01*
X1130507Y0395666D01*
X1130659Y0395750D01*
X1130814Y0395830D01*
X1130970Y0395907D01*
X1131128Y0395979D01*
X1131288Y0396048D01*
X1131449Y0396112D01*
X1131612Y0396173D01*
X1131777Y0396229D01*
X1131943Y0396282D01*
X1132110Y0396330D01*
X1132278Y0396375D01*
X1132447Y0396415D01*
X1132617Y0396451D01*
X1132788Y0396483D01*
X1132960Y0396510D01*
X1133132Y0396534D01*
X1133305Y0396553D01*
X1133479Y0396568D01*
X1133652Y0396578D01*
X1133826Y0396585D01*
X1134000Y0396587D01*
X1134174Y0396585D01*
X1134348Y0396578D01*
X1134521Y0396568D01*
X1134695Y0396553D01*
X1134868Y0396534D01*
X1135040Y0396510D01*
X1135212Y0396483D01*
X1135383Y0396451D01*
X1135553Y0396415D01*
X1135722Y0396375D01*
X1135890Y0396330D01*
X1136057Y0396282D01*
X1136223Y0396229D01*
X1136388Y0396173D01*
X1136551Y0396112D01*
X1136712Y0396048D01*
X1136872Y0395979D01*
X1137030Y0395907D01*
X1137186Y0395830D01*
X1137341Y0395750D01*
X1137493Y0395666D01*
X1137643Y0395579D01*
X1137792Y0395487D01*
X1137937Y0395393D01*
X1138081Y0395294D01*
X1138222Y0395192D01*
X1138360Y0395087D01*
X1138496Y0394978D01*
X1138629Y0394866D01*
X1138759Y0394751D01*
X1138887Y0394633D01*
X1139011Y0394511D01*
X1139133Y0394387D01*
X1139251Y0394259D01*
X1139366Y0394129D01*
X1139478Y0393996D01*
X1139587Y0393860D01*
X1139692Y0393722D01*
X1139794Y0393581D01*
X1139893Y0393437D01*
X1139987Y0393292D01*
X1140079Y0393143D01*
X1140166Y0392993D01*
X1140250Y0392841D01*
X1140330Y0392686D01*
X1140407Y0392530D01*
X1140479Y0392372D01*
X1140548Y0392212D01*
X1140612Y0392051D01*
X1140673Y0391888D01*
X1140729Y0391723D01*
X1140782Y0391557D01*
X1140830Y0391390D01*
X1140875Y0391222D01*
X1140915Y0391053D01*
X1140951Y0390883D01*
X1140983Y0390712D01*
X1141010Y0390540D01*
X1141034Y0390368D01*
X1141053Y0390195D01*
X1141068Y0390021D01*
X1141078Y0389848D01*
X1141085Y0389674D01*
X1141087Y0389500D01*
X1141085Y0389326D01*
X1141078Y0389152D01*
X1141068Y0388979D01*
X1141053Y0388805D01*
X1141034Y0388632D01*
X1141010Y0388460D01*
X1140983Y0388288D01*
X1140951Y0388117D01*
X1140915Y0387947D01*
X1140875Y0387778D01*
X1140830Y0387610D01*
X1140782Y0387443D01*
X1140729Y0387277D01*
X1140673Y0387112D01*
X1140612Y0386949D01*
X1140548Y0386788D01*
X1140479Y0386628D01*
X1140407Y0386470D01*
X1140330Y0386314D01*
X1140250Y0386159D01*
X1140166Y0386007D01*
X1140079Y0385857D01*
X1139987Y0385708D01*
X1139893Y0385563D01*
X1139794Y0385419D01*
X1139692Y0385278D01*
X1139587Y0385140D01*
X1139478Y0385004D01*
X1139366Y0384871D01*
X1139251Y0384741D01*
X1139133Y0384613D01*
X1139011Y0384489D01*
X1138887Y0384367D01*
X1138759Y0384249D01*
X1138629Y0384134D01*
X1138496Y0384022D01*
X1138360Y0383913D01*
X1138222Y0383808D01*
X1138081Y0383706D01*
X1137937Y0383607D01*
X1137792Y0383513D01*
X1137643Y0383421D01*
X1137493Y0383334D01*
X1137341Y0383250D01*
X1137186Y0383170D01*
X1137030Y0383093D01*
X1136872Y0383021D01*
X1136712Y0382952D01*
X1136551Y0382888D01*
X1136388Y0382827D01*
X1136223Y0382771D01*
X1136057Y0382718D01*
X1135890Y0382670D01*
X1135722Y0382625D01*
X1135553Y0382585D01*
X1135383Y0382549D01*
X1135212Y0382517D01*
X1135040Y0382490D01*
X1134868Y0382466D01*
X1134695Y0382447D01*
X1134521Y0382432D01*
X1134348Y0382422D01*
X1134174Y0382415D01*
X1134000Y0382413D01*
X1133826Y0382415D01*
X1133652Y0382422D01*
X1133479Y0382432D01*
X1133305Y0382447D01*
X1133132Y0382466D01*
X1132960Y0382490D01*
X1132788Y0382517D01*
X1132617Y0382549D01*
X1132447Y0382585D01*
X1132278Y0382625D01*
X1132110Y0382670D01*
X1131943Y0382718D01*
X1131777Y0382771D01*
X1131612Y0382827D01*
X1131449Y0382888D01*
X1131288Y0382952D01*
X1131128Y0383021D01*
X1130970Y0383093D01*
X1130814Y0383170D01*
X1130659Y0383250D01*
X1130507Y0383334D01*
X1130357Y0383421D01*
X1130208Y0383513D01*
X1130063Y0383607D01*
X1129919Y0383706D01*
X1129778Y0383808D01*
X1129640Y0383913D01*
X1129504Y0384022D01*
X1129371Y0384134D01*
X1129241Y0384249D01*
X1129113Y0384367D01*
X1128989Y0384489D01*
X1128867Y0384613D01*
X1128749Y0384741D01*
X1128634Y0384871D01*
X1128522Y0385004D01*
X1128413Y0385140D01*
X1128308Y0385278D01*
X1128206Y0385419D01*
X1128107Y0385563D01*
X1128013Y0385708D01*
X1127921Y0385857D01*
X1127834Y0386007D01*
X1127750Y0386159D01*
X1127670Y0386314D01*
X1127593Y0386470D01*
X1127521Y0386628D01*
X1127452Y0386788D01*
X1127388Y0386949D01*
X1127327Y0387112D01*
X1127271Y0387277D01*
X1127218Y0387443D01*
X1127170Y0387610D01*
X1127125Y0387778D01*
X1127085Y0387947D01*
X1127049Y0388117D01*
X1127017Y0388288D01*
X1126990Y0388460D01*
X1126966Y0388632D01*
X1126947Y0388805D01*
X1126932Y0388979D01*
X1126922Y0389152D01*
X1126915Y0389326D01*
X1126913Y0389500D01*
X1129913Y0028500D02*
X1129915Y0028674D01*
X1129922Y0028848D01*
X1129932Y0029021D01*
X1129947Y0029195D01*
X1129966Y0029368D01*
X1129990Y0029540D01*
X1130017Y0029712D01*
X1130049Y0029883D01*
X1130085Y0030053D01*
X1130125Y0030222D01*
X1130170Y0030390D01*
X1130218Y0030557D01*
X1130271Y0030723D01*
X1130327Y0030888D01*
X1130388Y0031051D01*
X1130452Y0031212D01*
X1130521Y0031372D01*
X1130593Y0031530D01*
X1130670Y0031686D01*
X1130750Y0031841D01*
X1130834Y0031993D01*
X1130921Y0032143D01*
X1131013Y0032292D01*
X1131107Y0032437D01*
X1131206Y0032581D01*
X1131308Y0032722D01*
X1131413Y0032860D01*
X1131522Y0032996D01*
X1131634Y0033129D01*
X1131749Y0033259D01*
X1131867Y0033387D01*
X1131989Y0033511D01*
X1132113Y0033633D01*
X1132241Y0033751D01*
X1132371Y0033866D01*
X1132504Y0033978D01*
X1132640Y0034087D01*
X1132778Y0034192D01*
X1132919Y0034294D01*
X1133063Y0034393D01*
X1133208Y0034487D01*
X1133357Y0034579D01*
X1133507Y0034666D01*
X1133659Y0034750D01*
X1133814Y0034830D01*
X1133970Y0034907D01*
X1134128Y0034979D01*
X1134288Y0035048D01*
X1134449Y0035112D01*
X1134612Y0035173D01*
X1134777Y0035229D01*
X1134943Y0035282D01*
X1135110Y0035330D01*
X1135278Y0035375D01*
X1135447Y0035415D01*
X1135617Y0035451D01*
X1135788Y0035483D01*
X1135960Y0035510D01*
X1136132Y0035534D01*
X1136305Y0035553D01*
X1136479Y0035568D01*
X1136652Y0035578D01*
X1136826Y0035585D01*
X1137000Y0035587D01*
X1137174Y0035585D01*
X1137348Y0035578D01*
X1137521Y0035568D01*
X1137695Y0035553D01*
X1137868Y0035534D01*
X1138040Y0035510D01*
X1138212Y0035483D01*
X1138383Y0035451D01*
X1138553Y0035415D01*
X1138722Y0035375D01*
X1138890Y0035330D01*
X1139057Y0035282D01*
X1139223Y0035229D01*
X1139388Y0035173D01*
X1139551Y0035112D01*
X1139712Y0035048D01*
X1139872Y0034979D01*
X1140030Y0034907D01*
X1140186Y0034830D01*
X1140341Y0034750D01*
X1140493Y0034666D01*
X1140643Y0034579D01*
X1140792Y0034487D01*
X1140937Y0034393D01*
X1141081Y0034294D01*
X1141222Y0034192D01*
X1141360Y0034087D01*
X1141496Y0033978D01*
X1141629Y0033866D01*
X1141759Y0033751D01*
X1141887Y0033633D01*
X1142011Y0033511D01*
X1142133Y0033387D01*
X1142251Y0033259D01*
X1142366Y0033129D01*
X1142478Y0032996D01*
X1142587Y0032860D01*
X1142692Y0032722D01*
X1142794Y0032581D01*
X1142893Y0032437D01*
X1142987Y0032292D01*
X1143079Y0032143D01*
X1143166Y0031993D01*
X1143250Y0031841D01*
X1143330Y0031686D01*
X1143407Y0031530D01*
X1143479Y0031372D01*
X1143548Y0031212D01*
X1143612Y0031051D01*
X1143673Y0030888D01*
X1143729Y0030723D01*
X1143782Y0030557D01*
X1143830Y0030390D01*
X1143875Y0030222D01*
X1143915Y0030053D01*
X1143951Y0029883D01*
X1143983Y0029712D01*
X1144010Y0029540D01*
X1144034Y0029368D01*
X1144053Y0029195D01*
X1144068Y0029021D01*
X1144078Y0028848D01*
X1144085Y0028674D01*
X1144087Y0028500D01*
X1144085Y0028326D01*
X1144078Y0028152D01*
X1144068Y0027979D01*
X1144053Y0027805D01*
X1144034Y0027632D01*
X1144010Y0027460D01*
X1143983Y0027288D01*
X1143951Y0027117D01*
X1143915Y0026947D01*
X1143875Y0026778D01*
X1143830Y0026610D01*
X1143782Y0026443D01*
X1143729Y0026277D01*
X1143673Y0026112D01*
X1143612Y0025949D01*
X1143548Y0025788D01*
X1143479Y0025628D01*
X1143407Y0025470D01*
X1143330Y0025314D01*
X1143250Y0025159D01*
X1143166Y0025007D01*
X1143079Y0024857D01*
X1142987Y0024708D01*
X1142893Y0024563D01*
X1142794Y0024419D01*
X1142692Y0024278D01*
X1142587Y0024140D01*
X1142478Y0024004D01*
X1142366Y0023871D01*
X1142251Y0023741D01*
X1142133Y0023613D01*
X1142011Y0023489D01*
X1141887Y0023367D01*
X1141759Y0023249D01*
X1141629Y0023134D01*
X1141496Y0023022D01*
X1141360Y0022913D01*
X1141222Y0022808D01*
X1141081Y0022706D01*
X1140937Y0022607D01*
X1140792Y0022513D01*
X1140643Y0022421D01*
X1140493Y0022334D01*
X1140341Y0022250D01*
X1140186Y0022170D01*
X1140030Y0022093D01*
X1139872Y0022021D01*
X1139712Y0021952D01*
X1139551Y0021888D01*
X1139388Y0021827D01*
X1139223Y0021771D01*
X1139057Y0021718D01*
X1138890Y0021670D01*
X1138722Y0021625D01*
X1138553Y0021585D01*
X1138383Y0021549D01*
X1138212Y0021517D01*
X1138040Y0021490D01*
X1137868Y0021466D01*
X1137695Y0021447D01*
X1137521Y0021432D01*
X1137348Y0021422D01*
X1137174Y0021415D01*
X1137000Y0021413D01*
X1136826Y0021415D01*
X1136652Y0021422D01*
X1136479Y0021432D01*
X1136305Y0021447D01*
X1136132Y0021466D01*
X1135960Y0021490D01*
X1135788Y0021517D01*
X1135617Y0021549D01*
X1135447Y0021585D01*
X1135278Y0021625D01*
X1135110Y0021670D01*
X1134943Y0021718D01*
X1134777Y0021771D01*
X1134612Y0021827D01*
X1134449Y0021888D01*
X1134288Y0021952D01*
X1134128Y0022021D01*
X1133970Y0022093D01*
X1133814Y0022170D01*
X1133659Y0022250D01*
X1133507Y0022334D01*
X1133357Y0022421D01*
X1133208Y0022513D01*
X1133063Y0022607D01*
X1132919Y0022706D01*
X1132778Y0022808D01*
X1132640Y0022913D01*
X1132504Y0023022D01*
X1132371Y0023134D01*
X1132241Y0023249D01*
X1132113Y0023367D01*
X1131989Y0023489D01*
X1131867Y0023613D01*
X1131749Y0023741D01*
X1131634Y0023871D01*
X1131522Y0024004D01*
X1131413Y0024140D01*
X1131308Y0024278D01*
X1131206Y0024419D01*
X1131107Y0024563D01*
X1131013Y0024708D01*
X1130921Y0024857D01*
X1130834Y0025007D01*
X1130750Y0025159D01*
X1130670Y0025314D01*
X1130593Y0025470D01*
X1130521Y0025628D01*
X1130452Y0025788D01*
X1130388Y0025949D01*
X1130327Y0026112D01*
X1130271Y0026277D01*
X1130218Y0026443D01*
X1130170Y0026610D01*
X1130125Y0026778D01*
X1130085Y0026947D01*
X1130049Y0027117D01*
X1130017Y0027288D01*
X1129990Y0027460D01*
X1129966Y0027632D01*
X1129947Y0027805D01*
X1129932Y0027979D01*
X1129922Y0028152D01*
X1129915Y0028326D01*
X1129913Y0028500D01*
D11*
X1057019Y0061114D03*
X1045981Y0061114D03*
X1035390Y0064224D03*
X1026104Y0070192D03*
X1018876Y0078533D03*
X1014290Y0088574D03*
X0983710Y0088574D03*
X0985281Y0099500D03*
X0983710Y0110426D03*
X0979124Y0120467D03*
X0971896Y0128808D03*
X0962610Y0134776D03*
X0952019Y0137886D03*
X0940981Y0137886D03*
X0930390Y0134776D03*
X0921104Y0128808D03*
X0913876Y0120467D03*
X0909290Y0110426D03*
X0878710Y0110426D03*
X0874124Y0120467D03*
X0866896Y0128808D03*
X0857610Y0134776D03*
X0847019Y0137886D03*
X0835981Y0137886D03*
X0825390Y0134776D03*
X0816104Y0128808D03*
X0808876Y0120467D03*
X0804290Y0110426D03*
X0773710Y0110426D03*
X0769124Y0120467D03*
X0761896Y0128808D03*
X0752610Y0134776D03*
X0742019Y0137886D03*
X0730981Y0137886D03*
X0720390Y0134776D03*
X0711104Y0128808D03*
X0703876Y0120467D03*
X0699290Y0110426D03*
X0668710Y0110426D03*
X0664124Y0120467D03*
X0656896Y0128808D03*
X0647610Y0134776D03*
X0637019Y0137886D03*
X0625981Y0137886D03*
X0615390Y0134776D03*
X0606104Y0128808D03*
X0598876Y0120467D03*
X0594290Y0110426D03*
X0563710Y0110426D03*
X0559124Y0120467D03*
X0551896Y0128808D03*
X0542610Y0134776D03*
X0532019Y0137886D03*
X0520981Y0137886D03*
X0510390Y0134776D03*
X0501104Y0128808D03*
X0493876Y0120467D03*
X0489290Y0110426D03*
X0458710Y0110426D03*
X0454124Y0120467D03*
X0446896Y0128808D03*
X0437610Y0134776D03*
X0427019Y0137886D03*
X0415981Y0137886D03*
X0405390Y0134776D03*
X0396104Y0128808D03*
X0388876Y0120467D03*
X0384290Y0110426D03*
X0353710Y0110426D03*
X0349124Y0120467D03*
X0341896Y0128808D03*
X0332610Y0134776D03*
X0322019Y0137886D03*
X0310981Y0137886D03*
X0300390Y0134776D03*
X0291104Y0128808D03*
X0283876Y0120467D03*
X0279290Y0110426D03*
X0248710Y0110426D03*
X0244124Y0120467D03*
X0236896Y0128808D03*
X0227610Y0134776D03*
X0217019Y0137886D03*
X0205981Y0137886D03*
X0195390Y0134776D03*
X0186104Y0128808D03*
X0178876Y0120467D03*
X0174290Y0110426D03*
X0143710Y0110426D03*
X0139124Y0120467D03*
X0131896Y0128808D03*
X0122610Y0134776D03*
X0112019Y0137886D03*
X0100981Y0137886D03*
X0090390Y0134776D03*
X0081104Y0128808D03*
X0073876Y0120467D03*
X0069290Y0110426D03*
X0069290Y0088574D03*
X0073876Y0078533D03*
X0081104Y0070192D03*
X0090390Y0064224D03*
X0100981Y0061114D03*
X0112019Y0061114D03*
X0122610Y0064224D03*
X0131896Y0070192D03*
X0139124Y0078533D03*
X0143710Y0088574D03*
X0145281Y0099500D03*
X0174290Y0088574D03*
X0178876Y0078533D03*
X0186104Y0070192D03*
X0195390Y0064224D03*
X0205981Y0061114D03*
X0217019Y0061114D03*
X0227610Y0064224D03*
X0236896Y0070192D03*
X0244124Y0078533D03*
X0248710Y0088574D03*
X0250281Y0099500D03*
X0279290Y0088574D03*
X0283876Y0078533D03*
X0291104Y0070192D03*
X0300390Y0064224D03*
X0310981Y0061114D03*
X0322019Y0061114D03*
X0332610Y0064224D03*
X0341896Y0070192D03*
X0349124Y0078533D03*
X0353710Y0088574D03*
X0355281Y0099500D03*
X0384290Y0088574D03*
X0388876Y0078533D03*
X0396104Y0070192D03*
X0405390Y0064224D03*
X0415981Y0061114D03*
X0427019Y0061114D03*
X0437610Y0064224D03*
X0446896Y0070192D03*
X0454124Y0078533D03*
X0458710Y0088574D03*
X0460281Y0099500D03*
X0489290Y0088574D03*
X0493876Y0078533D03*
X0501104Y0070192D03*
X0510390Y0064224D03*
X0520981Y0061114D03*
X0532019Y0061114D03*
X0542610Y0064224D03*
X0551896Y0070192D03*
X0559124Y0078533D03*
X0563710Y0088574D03*
X0565281Y0099500D03*
X0594290Y0088574D03*
X0598876Y0078533D03*
X0606104Y0070192D03*
X0615390Y0064224D03*
X0625981Y0061114D03*
X0637019Y0061114D03*
X0647610Y0064224D03*
X0656896Y0070192D03*
X0664124Y0078533D03*
X0668710Y0088574D03*
X0670281Y0099500D03*
X0699290Y0088574D03*
X0703876Y0078533D03*
X0711104Y0070192D03*
X0720390Y0064224D03*
X0730981Y0061114D03*
X0742019Y0061114D03*
X0752610Y0064224D03*
X0761896Y0070192D03*
X0769124Y0078533D03*
X0773710Y0088574D03*
X0775281Y0099500D03*
X0804290Y0088574D03*
X0808876Y0078533D03*
X0816104Y0070192D03*
X0825390Y0064224D03*
X0835981Y0061114D03*
X0847019Y0061114D03*
X0857610Y0064224D03*
X0866896Y0070192D03*
X0874124Y0078533D03*
X0878710Y0088574D03*
X0880281Y0099500D03*
X0909290Y0088574D03*
X0913876Y0078533D03*
X0921104Y0070192D03*
X0930390Y0064224D03*
X0940981Y0061114D03*
X0952019Y0061114D03*
X0962610Y0064224D03*
X0971896Y0070192D03*
X0979124Y0078533D03*
X1014290Y0110426D03*
X1018876Y0120467D03*
X1026104Y0128808D03*
X1035390Y0134776D03*
X1045981Y0137886D03*
X1057019Y0137886D03*
X1067610Y0134776D03*
X1076896Y0128808D03*
X1084124Y0120467D03*
X1088710Y0110426D03*
X1090281Y0099500D03*
X1088710Y0088574D03*
X1084124Y0078533D03*
X1076896Y0070192D03*
X1067610Y0064224D03*
D12*
X0362000Y0383000D03*
X0322000Y0383000D03*
D13*
X0292500Y0370000D03*
X0208000Y0370000D03*
D14*
X0208000Y0350000D03*
X0292500Y0350000D03*
D15*
X0384500Y0352000D02*
X0390500Y0352000D01*
X0390500Y0362000D02*
X0384500Y0362000D01*
X0384500Y0372000D02*
X0390500Y0372000D01*
D16*
X0440657Y0367025D02*
X0440657Y0359975D01*
X0460343Y0359975D02*
X0460343Y0367025D01*
X0118843Y0370025D02*
X0118843Y0362975D01*
X0099157Y0362975D02*
X0099157Y0370025D01*
D17*
X0022500Y0392500D03*
X0022500Y0021500D03*
X1137000Y0028500D03*
X1134000Y0389500D03*
D18*
X1051000Y0309512D03*
X1035000Y0309012D03*
X1035000Y0297988D03*
X1051000Y0298488D03*
X0957000Y0297488D03*
X0957000Y0308512D03*
X0938500Y0309012D03*
X0938500Y0297988D03*
X0850500Y0297488D03*
X0831500Y0297488D03*
X0831500Y0308512D03*
X0850500Y0308512D03*
X0746500Y0307512D03*
X0728500Y0307512D03*
X0728500Y0296488D03*
X0746500Y0296488D03*
X0637500Y0297988D03*
X0620000Y0297488D03*
X0620000Y0308512D03*
X0637500Y0309012D03*
X0533000Y0307512D03*
X0515000Y0308012D03*
X0515000Y0296988D03*
X0533000Y0296488D03*
X0430000Y0296488D03*
X0413000Y0296488D03*
X0413000Y0307512D03*
X0430000Y0307512D03*
X0328000Y0309512D03*
X0312000Y0309512D03*
X0312000Y0298488D03*
X0328000Y0298488D03*
X0222000Y0296488D03*
X0222000Y0307512D03*
X0203000Y0307512D03*
X0203000Y0296488D03*
X0120000Y0295988D03*
X0100500Y0295988D03*
X0100500Y0307012D03*
X0120000Y0307012D03*
X0106500Y0105012D03*
X0106500Y0093988D03*
X0211500Y0093988D03*
X0211500Y0105012D03*
X0316500Y0105012D03*
X0316500Y0093988D03*
X0421500Y0093988D03*
X0421500Y0105012D03*
X0526500Y0105012D03*
X0526500Y0093988D03*
X0631500Y0093988D03*
X0631500Y0105012D03*
X0736500Y0105012D03*
X0736500Y0093988D03*
X0841500Y0093988D03*
X0841500Y0105012D03*
X0946500Y0105012D03*
X0946500Y0093988D03*
X1051500Y0093988D03*
X1051500Y0105012D03*
D19*
X0807098Y0374500D03*
X0795902Y0374500D03*
X0762098Y0374500D03*
X0750902Y0374500D03*
D20*
X0871500Y0370000D03*
X0881500Y0370000D03*
X0891500Y0370000D03*
X0901500Y0370000D03*
X0901500Y0360000D03*
X0891500Y0360000D03*
X0881500Y0360000D03*
X0871500Y0360000D03*
D21*
X0865000Y0322000D03*
X0818500Y0304500D03*
X0865000Y0301000D03*
X0924000Y0304000D03*
X0974500Y0301000D03*
X0974500Y0322500D03*
X1028000Y0308000D03*
X1067500Y0316000D03*
X1086000Y0316000D03*
X1063000Y0285500D03*
X1062500Y0278500D03*
X0999500Y0271500D03*
X0962500Y0277000D03*
X0894500Y0273500D03*
X0853500Y0277500D03*
X0790500Y0274000D03*
X0755500Y0275000D03*
X0759500Y0299500D03*
X0711500Y0302500D03*
X0759500Y0322000D03*
X0647500Y0321000D03*
X0647500Y0301000D03*
X0604000Y0304000D03*
X0578000Y0297500D03*
X0584500Y0291500D03*
X0573500Y0272500D03*
X0540000Y0277000D03*
X0499500Y0304000D03*
X0449000Y0301000D03*
X0400500Y0302000D03*
X0342000Y0304000D03*
X0299500Y0309500D03*
X0233000Y0300500D03*
X0187000Y0301500D03*
X0139500Y0299500D03*
X0089500Y0311500D03*
X0127500Y0276500D03*
X0159000Y0273500D03*
X0228500Y0276500D03*
X0264000Y0272500D03*
X0335500Y0276500D03*
X0369500Y0272000D03*
X0436500Y0277000D03*
X0474500Y0271500D03*
X0619000Y0208500D03*
X0582500Y0201000D03*
X0513000Y0205500D03*
X0410500Y0204500D03*
X0310500Y0208500D03*
X0200500Y0206500D03*
X0100500Y0208500D03*
X0178500Y0055000D03*
X0092000Y0046500D03*
X0288000Y0053500D03*
X0392500Y0053500D03*
X0496500Y0053000D03*
X0606000Y0055500D03*
X0708500Y0054000D03*
X0815500Y0055000D03*
X0917500Y0053000D03*
X1022000Y0053000D03*
X1035000Y0206000D03*
X0938500Y0207000D03*
X0831500Y0207000D03*
X0728500Y0207000D03*
X0685500Y0274000D03*
X0646000Y0276500D03*
D22*
X0616200Y0272100D03*
X0595500Y0237900D03*
X0599100Y0236100D03*
X0599100Y0231600D03*
X0603600Y0230700D03*
X0603600Y0226200D03*
X0623400Y0224400D03*
X0626100Y0219900D03*
X0627900Y0216300D03*
X0637800Y0212700D03*
X0639600Y0209100D03*
X0639600Y0219000D03*
X0664800Y0219900D03*
X0672000Y0222600D03*
X0679200Y0225300D03*
X0679200Y0229800D03*
X0654000Y0236100D03*
X0711600Y0234300D03*
X0711600Y0229800D03*
X0732300Y0217200D03*
X0712500Y0214500D03*
X0708000Y0209100D03*
X0704400Y0206400D03*
X0732300Y0203700D03*
X0734100Y0210900D03*
X0744900Y0210900D03*
X0748500Y0204600D03*
X0763800Y0211800D03*
X0767400Y0203700D03*
X0748500Y0197400D03*
X0777300Y0190200D03*
X0808800Y0203700D03*
X0835800Y0203700D03*
X0837600Y0210900D03*
X0834900Y0218100D03*
X0852900Y0211800D03*
X0852000Y0204600D03*
X0871800Y0205500D03*
X0879000Y0212700D03*
X0866400Y0215400D03*
X0897900Y0219000D03*
X0900600Y0227100D03*
X0882600Y0228900D03*
X0875400Y0226200D03*
X0923100Y0226200D03*
X0952800Y0219000D03*
X0945600Y0211800D03*
X0960000Y0210900D03*
X0958200Y0203700D03*
X0958200Y0196500D03*
X0949200Y0203700D03*
X0942000Y0203700D03*
X0921300Y0203700D03*
X0914100Y0204600D03*
X0922200Y0211800D03*
X0901500Y0208200D03*
X0901500Y0203700D03*
X0852000Y0196500D03*
X0816000Y0214500D03*
X0812400Y0212700D03*
X0798900Y0228900D03*
X0816000Y0230700D03*
X0777300Y0241500D03*
X0773700Y0235200D03*
X0762900Y0230700D03*
X0749400Y0225300D03*
X0749400Y0219900D03*
X0675600Y0206400D03*
X0668400Y0210900D03*
X0660300Y0206400D03*
X0654000Y0208200D03*
X0631500Y0201000D03*
X0588300Y0211800D03*
X0555900Y0204600D03*
X0551400Y0204600D03*
X0550500Y0214500D03*
X0550500Y0219000D03*
X0535200Y0209100D03*
X0529800Y0212700D03*
X0522600Y0212700D03*
X0520800Y0219000D03*
X0518100Y0222600D03*
X0526200Y0220800D03*
X0511800Y0228900D03*
X0511800Y0234300D03*
X0511800Y0238800D03*
X0511800Y0243300D03*
X0511800Y0247800D03*
X0496500Y0238800D03*
X0468600Y0221700D03*
X0465000Y0218100D03*
X0447000Y0209100D03*
X0458700Y0207300D03*
X0450600Y0201000D03*
X0431700Y0209100D03*
X0427200Y0209100D03*
X0420900Y0212700D03*
X0419100Y0219000D03*
X0416400Y0222600D03*
X0408300Y0228900D03*
X0408300Y0234300D03*
X0408300Y0238800D03*
X0409200Y0244200D03*
X0408300Y0248700D03*
X0408300Y0254100D03*
X0408300Y0259500D03*
X0345300Y0246000D03*
X0329100Y0237900D03*
X0325500Y0236100D03*
X0348000Y0228000D03*
X0360600Y0219900D03*
X0331800Y0209100D03*
X0320100Y0208200D03*
X0313800Y0203700D03*
X0331800Y0201000D03*
X0349800Y0206400D03*
X0353400Y0203700D03*
X0373200Y0203700D03*
X0364200Y0189300D03*
X0340800Y0174000D03*
X0282300Y0189300D03*
X0277800Y0189300D03*
X0254400Y0192900D03*
X0241800Y0202800D03*
X0222900Y0208200D03*
X0218400Y0201000D03*
X0222900Y0212700D03*
X0219300Y0214500D03*
X0210300Y0218100D03*
X0206700Y0219900D03*
X0204000Y0224400D03*
X0186000Y0226200D03*
X0181500Y0232500D03*
X0177900Y0224400D03*
X0170700Y0212700D03*
X0167100Y0209100D03*
X0167100Y0204600D03*
X0174300Y0204600D03*
X0182400Y0206400D03*
X0186000Y0210900D03*
X0155400Y0202800D03*
X0124800Y0196500D03*
X0122100Y0199200D03*
X0117600Y0196500D03*
X0102300Y0198300D03*
X0085200Y0209100D03*
X0110400Y0213600D03*
X0114000Y0227100D03*
X0135600Y0230700D03*
X0122100Y0253200D03*
X0122100Y0257700D03*
X0096900Y0273900D03*
X0196800Y0273900D03*
X0236400Y0252300D03*
X0236400Y0242400D03*
X0291300Y0232500D03*
X0291300Y0227100D03*
X0287700Y0223500D03*
X0294900Y0217200D03*
X0294900Y0212700D03*
X0282300Y0214500D03*
X0277800Y0214500D03*
X0274200Y0212700D03*
X0267000Y0212700D03*
X0251700Y0214500D03*
X0239100Y0218100D03*
X0237300Y0214500D03*
X0316500Y0216300D03*
X0364200Y0237000D03*
X0384000Y0234300D03*
X0389400Y0235200D03*
X0395700Y0236100D03*
X0423600Y0201000D03*
X0423600Y0196500D03*
X0482100Y0201000D03*
X0492900Y0219000D03*
X0527100Y0201000D03*
X0562200Y0232500D03*
X0567600Y0232500D03*
X0511800Y0259500D03*
X0307500Y0273000D03*
X0170700Y0174000D03*
X0174300Y0165900D03*
X0170700Y0157800D03*
X0123900Y0150600D03*
X0114900Y0159600D03*
X0102300Y0143400D03*
X0212100Y0131700D03*
X0231900Y0131700D03*
X0237300Y0134400D03*
X0329100Y0142500D03*
X0360600Y0129900D03*
X0357000Y0120000D03*
X0377700Y0097500D03*
X0432600Y0090300D03*
X0471300Y0112800D03*
X0465000Y0122700D03*
X0471300Y0128100D03*
X0498300Y0136200D03*
X0501900Y0134400D03*
X0528900Y0128100D03*
X0545100Y0129900D03*
X0525300Y0120000D03*
X0516300Y0120000D03*
X0512700Y0108300D03*
X0606300Y0100200D03*
X0616200Y0098400D03*
X0623400Y0101100D03*
X0626100Y0120000D03*
X0641400Y0120000D03*
X0672000Y0118200D03*
X0664800Y0134400D03*
X0631500Y0138900D03*
X0675600Y0154200D03*
X0679200Y0173100D03*
X0675600Y0183000D03*
X0755700Y0152400D03*
X0759300Y0144300D03*
X0759300Y0139800D03*
X0747600Y0131700D03*
X0795300Y0143400D03*
X0866400Y0134400D03*
X0875400Y0128100D03*
X0882600Y0121800D03*
X0872700Y0111900D03*
X0869100Y0102900D03*
X0901500Y0092100D03*
X0905100Y0093900D03*
X0940200Y0102000D03*
X0958200Y0096600D03*
X0957300Y0091200D03*
X0939300Y0118200D03*
X0934800Y0118200D03*
X0983400Y0129000D03*
X0987000Y0131700D03*
X0989700Y0134400D03*
X0991500Y0128100D03*
X0989700Y0121800D03*
X0956400Y0159600D03*
X0989700Y0163200D03*
X0993300Y0172200D03*
X1039200Y0159600D03*
X1078800Y0183000D03*
X1082400Y0191100D03*
X1091400Y0193800D03*
X1071600Y0190200D03*
X1038300Y0202800D03*
X1015800Y0202800D03*
X1017600Y0209100D03*
X1018500Y0214500D03*
X1018500Y0219000D03*
X1032000Y0220800D03*
X1032000Y0226200D03*
X1041000Y0227100D03*
X1041000Y0231600D03*
X1041000Y0237000D03*
X1068900Y0246000D03*
X1071600Y0248700D03*
X1055400Y0255000D03*
X1055400Y0263100D03*
X1093200Y0282000D03*
X1086000Y0289200D03*
X1081500Y0289200D03*
X1077000Y0289200D03*
X1101300Y0294600D03*
X0973500Y0245100D03*
X0975300Y0238800D03*
X0989700Y0234300D03*
X0993300Y0229800D03*
X0978900Y0219900D03*
X0982500Y0211800D03*
X0986100Y0202800D03*
X0956400Y0232500D03*
X0843000Y0259500D03*
X0834900Y0258600D03*
X0825900Y0273900D03*
X0825900Y0278400D03*
X0827700Y0291900D03*
X0856500Y0292800D03*
X0725100Y0277500D03*
X0725100Y0273000D03*
X0715200Y0291300D03*
X0567600Y0166800D03*
X0525300Y0163200D03*
X0567600Y0152400D03*
X0725100Y0102000D03*
X0679200Y0087600D03*
X0674700Y0087600D03*
X0715200Y0082200D03*
X0742200Y0072300D03*
X0816000Y0059700D03*
X0965400Y0056100D03*
X1055400Y0084000D03*
X0214800Y0084900D03*
X0184200Y0084900D03*
D23*
X0396000Y0328500D03*
D24*
X0205000Y0119500D03*
X0212500Y0110500D03*
X0224500Y0112000D03*
X0205000Y0096000D03*
X0287500Y0101000D03*
X0310500Y0096000D03*
X0317500Y0111500D03*
X0415000Y0096500D03*
X0423500Y0110500D03*
X0519500Y0097000D03*
X0527500Y0111000D03*
X0625000Y0097000D03*
X0633500Y0111000D03*
X0730000Y0096000D03*
X0737500Y0112000D03*
X0835000Y0097000D03*
X0843000Y0110500D03*
X0940000Y0096500D03*
X0947500Y0111000D03*
X1044500Y0097000D03*
X1053000Y0110500D03*
X0321500Y0070500D03*
X0105500Y0088000D03*
X0108500Y0110500D03*
D25*
X1051000Y0320500D03*
X1051000Y0336000D03*
D26*
X1039000Y0387000D03*
D27*
X0744500Y0401500D03*
M02*
