G75*
%MOIN*%
%OFA0B0*%
%FSLAX25Y25*%
%IPPOS*%
%LPD*%
%AMOC8*
5,1,8,0,0,1.08239X$1,22.5*
%
%ADD10C,0.00000*%
%ADD11C,0.00600*%
%ADD12C,0.00500*%
%ADD13R,0.09000X0.02500*%
%ADD14R,0.03000X0.42000*%
%ADD15R,0.02000X0.07500*%
%ADD16R,0.02000X0.03000*%
%ADD17C,0.00400*%
%ADD18C,0.00040*%
%ADD19R,0.00787X0.00787*%
%ADD20R,0.00591X0.00984*%
D10*
X0001500Y0002000D02*
X0001500Y0415201D01*
X1165421Y0415201D01*
X1165421Y0001500D01*
X0001500Y0002000D01*
X0015413Y0021500D02*
X0015415Y0021674D01*
X0015422Y0021848D01*
X0015432Y0022021D01*
X0015447Y0022195D01*
X0015466Y0022368D01*
X0015490Y0022540D01*
X0015517Y0022712D01*
X0015549Y0022883D01*
X0015585Y0023053D01*
X0015625Y0023222D01*
X0015670Y0023390D01*
X0015718Y0023557D01*
X0015771Y0023723D01*
X0015827Y0023888D01*
X0015888Y0024051D01*
X0015952Y0024212D01*
X0016021Y0024372D01*
X0016093Y0024530D01*
X0016170Y0024686D01*
X0016250Y0024841D01*
X0016334Y0024993D01*
X0016421Y0025143D01*
X0016513Y0025292D01*
X0016607Y0025437D01*
X0016706Y0025581D01*
X0016808Y0025722D01*
X0016913Y0025860D01*
X0017022Y0025996D01*
X0017134Y0026129D01*
X0017249Y0026259D01*
X0017367Y0026387D01*
X0017489Y0026511D01*
X0017613Y0026633D01*
X0017741Y0026751D01*
X0017871Y0026866D01*
X0018004Y0026978D01*
X0018140Y0027087D01*
X0018278Y0027192D01*
X0018419Y0027294D01*
X0018563Y0027393D01*
X0018708Y0027487D01*
X0018857Y0027579D01*
X0019007Y0027666D01*
X0019159Y0027750D01*
X0019314Y0027830D01*
X0019470Y0027907D01*
X0019628Y0027979D01*
X0019788Y0028048D01*
X0019949Y0028112D01*
X0020112Y0028173D01*
X0020277Y0028229D01*
X0020443Y0028282D01*
X0020610Y0028330D01*
X0020778Y0028375D01*
X0020947Y0028415D01*
X0021117Y0028451D01*
X0021288Y0028483D01*
X0021460Y0028510D01*
X0021632Y0028534D01*
X0021805Y0028553D01*
X0021979Y0028568D01*
X0022152Y0028578D01*
X0022326Y0028585D01*
X0022500Y0028587D01*
X0022674Y0028585D01*
X0022848Y0028578D01*
X0023021Y0028568D01*
X0023195Y0028553D01*
X0023368Y0028534D01*
X0023540Y0028510D01*
X0023712Y0028483D01*
X0023883Y0028451D01*
X0024053Y0028415D01*
X0024222Y0028375D01*
X0024390Y0028330D01*
X0024557Y0028282D01*
X0024723Y0028229D01*
X0024888Y0028173D01*
X0025051Y0028112D01*
X0025212Y0028048D01*
X0025372Y0027979D01*
X0025530Y0027907D01*
X0025686Y0027830D01*
X0025841Y0027750D01*
X0025993Y0027666D01*
X0026143Y0027579D01*
X0026292Y0027487D01*
X0026437Y0027393D01*
X0026581Y0027294D01*
X0026722Y0027192D01*
X0026860Y0027087D01*
X0026996Y0026978D01*
X0027129Y0026866D01*
X0027259Y0026751D01*
X0027387Y0026633D01*
X0027511Y0026511D01*
X0027633Y0026387D01*
X0027751Y0026259D01*
X0027866Y0026129D01*
X0027978Y0025996D01*
X0028087Y0025860D01*
X0028192Y0025722D01*
X0028294Y0025581D01*
X0028393Y0025437D01*
X0028487Y0025292D01*
X0028579Y0025143D01*
X0028666Y0024993D01*
X0028750Y0024841D01*
X0028830Y0024686D01*
X0028907Y0024530D01*
X0028979Y0024372D01*
X0029048Y0024212D01*
X0029112Y0024051D01*
X0029173Y0023888D01*
X0029229Y0023723D01*
X0029282Y0023557D01*
X0029330Y0023390D01*
X0029375Y0023222D01*
X0029415Y0023053D01*
X0029451Y0022883D01*
X0029483Y0022712D01*
X0029510Y0022540D01*
X0029534Y0022368D01*
X0029553Y0022195D01*
X0029568Y0022021D01*
X0029578Y0021848D01*
X0029585Y0021674D01*
X0029587Y0021500D01*
X0029585Y0021326D01*
X0029578Y0021152D01*
X0029568Y0020979D01*
X0029553Y0020805D01*
X0029534Y0020632D01*
X0029510Y0020460D01*
X0029483Y0020288D01*
X0029451Y0020117D01*
X0029415Y0019947D01*
X0029375Y0019778D01*
X0029330Y0019610D01*
X0029282Y0019443D01*
X0029229Y0019277D01*
X0029173Y0019112D01*
X0029112Y0018949D01*
X0029048Y0018788D01*
X0028979Y0018628D01*
X0028907Y0018470D01*
X0028830Y0018314D01*
X0028750Y0018159D01*
X0028666Y0018007D01*
X0028579Y0017857D01*
X0028487Y0017708D01*
X0028393Y0017563D01*
X0028294Y0017419D01*
X0028192Y0017278D01*
X0028087Y0017140D01*
X0027978Y0017004D01*
X0027866Y0016871D01*
X0027751Y0016741D01*
X0027633Y0016613D01*
X0027511Y0016489D01*
X0027387Y0016367D01*
X0027259Y0016249D01*
X0027129Y0016134D01*
X0026996Y0016022D01*
X0026860Y0015913D01*
X0026722Y0015808D01*
X0026581Y0015706D01*
X0026437Y0015607D01*
X0026292Y0015513D01*
X0026143Y0015421D01*
X0025993Y0015334D01*
X0025841Y0015250D01*
X0025686Y0015170D01*
X0025530Y0015093D01*
X0025372Y0015021D01*
X0025212Y0014952D01*
X0025051Y0014888D01*
X0024888Y0014827D01*
X0024723Y0014771D01*
X0024557Y0014718D01*
X0024390Y0014670D01*
X0024222Y0014625D01*
X0024053Y0014585D01*
X0023883Y0014549D01*
X0023712Y0014517D01*
X0023540Y0014490D01*
X0023368Y0014466D01*
X0023195Y0014447D01*
X0023021Y0014432D01*
X0022848Y0014422D01*
X0022674Y0014415D01*
X0022500Y0014413D01*
X0022326Y0014415D01*
X0022152Y0014422D01*
X0021979Y0014432D01*
X0021805Y0014447D01*
X0021632Y0014466D01*
X0021460Y0014490D01*
X0021288Y0014517D01*
X0021117Y0014549D01*
X0020947Y0014585D01*
X0020778Y0014625D01*
X0020610Y0014670D01*
X0020443Y0014718D01*
X0020277Y0014771D01*
X0020112Y0014827D01*
X0019949Y0014888D01*
X0019788Y0014952D01*
X0019628Y0015021D01*
X0019470Y0015093D01*
X0019314Y0015170D01*
X0019159Y0015250D01*
X0019007Y0015334D01*
X0018857Y0015421D01*
X0018708Y0015513D01*
X0018563Y0015607D01*
X0018419Y0015706D01*
X0018278Y0015808D01*
X0018140Y0015913D01*
X0018004Y0016022D01*
X0017871Y0016134D01*
X0017741Y0016249D01*
X0017613Y0016367D01*
X0017489Y0016489D01*
X0017367Y0016613D01*
X0017249Y0016741D01*
X0017134Y0016871D01*
X0017022Y0017004D01*
X0016913Y0017140D01*
X0016808Y0017278D01*
X0016706Y0017419D01*
X0016607Y0017563D01*
X0016513Y0017708D01*
X0016421Y0017857D01*
X0016334Y0018007D01*
X0016250Y0018159D01*
X0016170Y0018314D01*
X0016093Y0018470D01*
X0016021Y0018628D01*
X0015952Y0018788D01*
X0015888Y0018949D01*
X0015827Y0019112D01*
X0015771Y0019277D01*
X0015718Y0019443D01*
X0015670Y0019610D01*
X0015625Y0019778D01*
X0015585Y0019947D01*
X0015549Y0020117D01*
X0015517Y0020288D01*
X0015490Y0020460D01*
X0015466Y0020632D01*
X0015447Y0020805D01*
X0015432Y0020979D01*
X0015422Y0021152D01*
X0015415Y0021326D01*
X0015413Y0021500D01*
X0015413Y0392500D02*
X0015415Y0392674D01*
X0015422Y0392848D01*
X0015432Y0393021D01*
X0015447Y0393195D01*
X0015466Y0393368D01*
X0015490Y0393540D01*
X0015517Y0393712D01*
X0015549Y0393883D01*
X0015585Y0394053D01*
X0015625Y0394222D01*
X0015670Y0394390D01*
X0015718Y0394557D01*
X0015771Y0394723D01*
X0015827Y0394888D01*
X0015888Y0395051D01*
X0015952Y0395212D01*
X0016021Y0395372D01*
X0016093Y0395530D01*
X0016170Y0395686D01*
X0016250Y0395841D01*
X0016334Y0395993D01*
X0016421Y0396143D01*
X0016513Y0396292D01*
X0016607Y0396437D01*
X0016706Y0396581D01*
X0016808Y0396722D01*
X0016913Y0396860D01*
X0017022Y0396996D01*
X0017134Y0397129D01*
X0017249Y0397259D01*
X0017367Y0397387D01*
X0017489Y0397511D01*
X0017613Y0397633D01*
X0017741Y0397751D01*
X0017871Y0397866D01*
X0018004Y0397978D01*
X0018140Y0398087D01*
X0018278Y0398192D01*
X0018419Y0398294D01*
X0018563Y0398393D01*
X0018708Y0398487D01*
X0018857Y0398579D01*
X0019007Y0398666D01*
X0019159Y0398750D01*
X0019314Y0398830D01*
X0019470Y0398907D01*
X0019628Y0398979D01*
X0019788Y0399048D01*
X0019949Y0399112D01*
X0020112Y0399173D01*
X0020277Y0399229D01*
X0020443Y0399282D01*
X0020610Y0399330D01*
X0020778Y0399375D01*
X0020947Y0399415D01*
X0021117Y0399451D01*
X0021288Y0399483D01*
X0021460Y0399510D01*
X0021632Y0399534D01*
X0021805Y0399553D01*
X0021979Y0399568D01*
X0022152Y0399578D01*
X0022326Y0399585D01*
X0022500Y0399587D01*
X0022674Y0399585D01*
X0022848Y0399578D01*
X0023021Y0399568D01*
X0023195Y0399553D01*
X0023368Y0399534D01*
X0023540Y0399510D01*
X0023712Y0399483D01*
X0023883Y0399451D01*
X0024053Y0399415D01*
X0024222Y0399375D01*
X0024390Y0399330D01*
X0024557Y0399282D01*
X0024723Y0399229D01*
X0024888Y0399173D01*
X0025051Y0399112D01*
X0025212Y0399048D01*
X0025372Y0398979D01*
X0025530Y0398907D01*
X0025686Y0398830D01*
X0025841Y0398750D01*
X0025993Y0398666D01*
X0026143Y0398579D01*
X0026292Y0398487D01*
X0026437Y0398393D01*
X0026581Y0398294D01*
X0026722Y0398192D01*
X0026860Y0398087D01*
X0026996Y0397978D01*
X0027129Y0397866D01*
X0027259Y0397751D01*
X0027387Y0397633D01*
X0027511Y0397511D01*
X0027633Y0397387D01*
X0027751Y0397259D01*
X0027866Y0397129D01*
X0027978Y0396996D01*
X0028087Y0396860D01*
X0028192Y0396722D01*
X0028294Y0396581D01*
X0028393Y0396437D01*
X0028487Y0396292D01*
X0028579Y0396143D01*
X0028666Y0395993D01*
X0028750Y0395841D01*
X0028830Y0395686D01*
X0028907Y0395530D01*
X0028979Y0395372D01*
X0029048Y0395212D01*
X0029112Y0395051D01*
X0029173Y0394888D01*
X0029229Y0394723D01*
X0029282Y0394557D01*
X0029330Y0394390D01*
X0029375Y0394222D01*
X0029415Y0394053D01*
X0029451Y0393883D01*
X0029483Y0393712D01*
X0029510Y0393540D01*
X0029534Y0393368D01*
X0029553Y0393195D01*
X0029568Y0393021D01*
X0029578Y0392848D01*
X0029585Y0392674D01*
X0029587Y0392500D01*
X0029585Y0392326D01*
X0029578Y0392152D01*
X0029568Y0391979D01*
X0029553Y0391805D01*
X0029534Y0391632D01*
X0029510Y0391460D01*
X0029483Y0391288D01*
X0029451Y0391117D01*
X0029415Y0390947D01*
X0029375Y0390778D01*
X0029330Y0390610D01*
X0029282Y0390443D01*
X0029229Y0390277D01*
X0029173Y0390112D01*
X0029112Y0389949D01*
X0029048Y0389788D01*
X0028979Y0389628D01*
X0028907Y0389470D01*
X0028830Y0389314D01*
X0028750Y0389159D01*
X0028666Y0389007D01*
X0028579Y0388857D01*
X0028487Y0388708D01*
X0028393Y0388563D01*
X0028294Y0388419D01*
X0028192Y0388278D01*
X0028087Y0388140D01*
X0027978Y0388004D01*
X0027866Y0387871D01*
X0027751Y0387741D01*
X0027633Y0387613D01*
X0027511Y0387489D01*
X0027387Y0387367D01*
X0027259Y0387249D01*
X0027129Y0387134D01*
X0026996Y0387022D01*
X0026860Y0386913D01*
X0026722Y0386808D01*
X0026581Y0386706D01*
X0026437Y0386607D01*
X0026292Y0386513D01*
X0026143Y0386421D01*
X0025993Y0386334D01*
X0025841Y0386250D01*
X0025686Y0386170D01*
X0025530Y0386093D01*
X0025372Y0386021D01*
X0025212Y0385952D01*
X0025051Y0385888D01*
X0024888Y0385827D01*
X0024723Y0385771D01*
X0024557Y0385718D01*
X0024390Y0385670D01*
X0024222Y0385625D01*
X0024053Y0385585D01*
X0023883Y0385549D01*
X0023712Y0385517D01*
X0023540Y0385490D01*
X0023368Y0385466D01*
X0023195Y0385447D01*
X0023021Y0385432D01*
X0022848Y0385422D01*
X0022674Y0385415D01*
X0022500Y0385413D01*
X0022326Y0385415D01*
X0022152Y0385422D01*
X0021979Y0385432D01*
X0021805Y0385447D01*
X0021632Y0385466D01*
X0021460Y0385490D01*
X0021288Y0385517D01*
X0021117Y0385549D01*
X0020947Y0385585D01*
X0020778Y0385625D01*
X0020610Y0385670D01*
X0020443Y0385718D01*
X0020277Y0385771D01*
X0020112Y0385827D01*
X0019949Y0385888D01*
X0019788Y0385952D01*
X0019628Y0386021D01*
X0019470Y0386093D01*
X0019314Y0386170D01*
X0019159Y0386250D01*
X0019007Y0386334D01*
X0018857Y0386421D01*
X0018708Y0386513D01*
X0018563Y0386607D01*
X0018419Y0386706D01*
X0018278Y0386808D01*
X0018140Y0386913D01*
X0018004Y0387022D01*
X0017871Y0387134D01*
X0017741Y0387249D01*
X0017613Y0387367D01*
X0017489Y0387489D01*
X0017367Y0387613D01*
X0017249Y0387741D01*
X0017134Y0387871D01*
X0017022Y0388004D01*
X0016913Y0388140D01*
X0016808Y0388278D01*
X0016706Y0388419D01*
X0016607Y0388563D01*
X0016513Y0388708D01*
X0016421Y0388857D01*
X0016334Y0389007D01*
X0016250Y0389159D01*
X0016170Y0389314D01*
X0016093Y0389470D01*
X0016021Y0389628D01*
X0015952Y0389788D01*
X0015888Y0389949D01*
X0015827Y0390112D01*
X0015771Y0390277D01*
X0015718Y0390443D01*
X0015670Y0390610D01*
X0015625Y0390778D01*
X0015585Y0390947D01*
X0015549Y0391117D01*
X0015517Y0391288D01*
X0015490Y0391460D01*
X0015466Y0391632D01*
X0015447Y0391805D01*
X0015432Y0391979D01*
X0015422Y0392152D01*
X0015415Y0392326D01*
X0015413Y0392500D01*
X1126913Y0389500D02*
X1126915Y0389674D01*
X1126922Y0389848D01*
X1126932Y0390021D01*
X1126947Y0390195D01*
X1126966Y0390368D01*
X1126990Y0390540D01*
X1127017Y0390712D01*
X1127049Y0390883D01*
X1127085Y0391053D01*
X1127125Y0391222D01*
X1127170Y0391390D01*
X1127218Y0391557D01*
X1127271Y0391723D01*
X1127327Y0391888D01*
X1127388Y0392051D01*
X1127452Y0392212D01*
X1127521Y0392372D01*
X1127593Y0392530D01*
X1127670Y0392686D01*
X1127750Y0392841D01*
X1127834Y0392993D01*
X1127921Y0393143D01*
X1128013Y0393292D01*
X1128107Y0393437D01*
X1128206Y0393581D01*
X1128308Y0393722D01*
X1128413Y0393860D01*
X1128522Y0393996D01*
X1128634Y0394129D01*
X1128749Y0394259D01*
X1128867Y0394387D01*
X1128989Y0394511D01*
X1129113Y0394633D01*
X1129241Y0394751D01*
X1129371Y0394866D01*
X1129504Y0394978D01*
X1129640Y0395087D01*
X1129778Y0395192D01*
X1129919Y0395294D01*
X1130063Y0395393D01*
X1130208Y0395487D01*
X1130357Y0395579D01*
X1130507Y0395666D01*
X1130659Y0395750D01*
X1130814Y0395830D01*
X1130970Y0395907D01*
X1131128Y0395979D01*
X1131288Y0396048D01*
X1131449Y0396112D01*
X1131612Y0396173D01*
X1131777Y0396229D01*
X1131943Y0396282D01*
X1132110Y0396330D01*
X1132278Y0396375D01*
X1132447Y0396415D01*
X1132617Y0396451D01*
X1132788Y0396483D01*
X1132960Y0396510D01*
X1133132Y0396534D01*
X1133305Y0396553D01*
X1133479Y0396568D01*
X1133652Y0396578D01*
X1133826Y0396585D01*
X1134000Y0396587D01*
X1134174Y0396585D01*
X1134348Y0396578D01*
X1134521Y0396568D01*
X1134695Y0396553D01*
X1134868Y0396534D01*
X1135040Y0396510D01*
X1135212Y0396483D01*
X1135383Y0396451D01*
X1135553Y0396415D01*
X1135722Y0396375D01*
X1135890Y0396330D01*
X1136057Y0396282D01*
X1136223Y0396229D01*
X1136388Y0396173D01*
X1136551Y0396112D01*
X1136712Y0396048D01*
X1136872Y0395979D01*
X1137030Y0395907D01*
X1137186Y0395830D01*
X1137341Y0395750D01*
X1137493Y0395666D01*
X1137643Y0395579D01*
X1137792Y0395487D01*
X1137937Y0395393D01*
X1138081Y0395294D01*
X1138222Y0395192D01*
X1138360Y0395087D01*
X1138496Y0394978D01*
X1138629Y0394866D01*
X1138759Y0394751D01*
X1138887Y0394633D01*
X1139011Y0394511D01*
X1139133Y0394387D01*
X1139251Y0394259D01*
X1139366Y0394129D01*
X1139478Y0393996D01*
X1139587Y0393860D01*
X1139692Y0393722D01*
X1139794Y0393581D01*
X1139893Y0393437D01*
X1139987Y0393292D01*
X1140079Y0393143D01*
X1140166Y0392993D01*
X1140250Y0392841D01*
X1140330Y0392686D01*
X1140407Y0392530D01*
X1140479Y0392372D01*
X1140548Y0392212D01*
X1140612Y0392051D01*
X1140673Y0391888D01*
X1140729Y0391723D01*
X1140782Y0391557D01*
X1140830Y0391390D01*
X1140875Y0391222D01*
X1140915Y0391053D01*
X1140951Y0390883D01*
X1140983Y0390712D01*
X1141010Y0390540D01*
X1141034Y0390368D01*
X1141053Y0390195D01*
X1141068Y0390021D01*
X1141078Y0389848D01*
X1141085Y0389674D01*
X1141087Y0389500D01*
X1141085Y0389326D01*
X1141078Y0389152D01*
X1141068Y0388979D01*
X1141053Y0388805D01*
X1141034Y0388632D01*
X1141010Y0388460D01*
X1140983Y0388288D01*
X1140951Y0388117D01*
X1140915Y0387947D01*
X1140875Y0387778D01*
X1140830Y0387610D01*
X1140782Y0387443D01*
X1140729Y0387277D01*
X1140673Y0387112D01*
X1140612Y0386949D01*
X1140548Y0386788D01*
X1140479Y0386628D01*
X1140407Y0386470D01*
X1140330Y0386314D01*
X1140250Y0386159D01*
X1140166Y0386007D01*
X1140079Y0385857D01*
X1139987Y0385708D01*
X1139893Y0385563D01*
X1139794Y0385419D01*
X1139692Y0385278D01*
X1139587Y0385140D01*
X1139478Y0385004D01*
X1139366Y0384871D01*
X1139251Y0384741D01*
X1139133Y0384613D01*
X1139011Y0384489D01*
X1138887Y0384367D01*
X1138759Y0384249D01*
X1138629Y0384134D01*
X1138496Y0384022D01*
X1138360Y0383913D01*
X1138222Y0383808D01*
X1138081Y0383706D01*
X1137937Y0383607D01*
X1137792Y0383513D01*
X1137643Y0383421D01*
X1137493Y0383334D01*
X1137341Y0383250D01*
X1137186Y0383170D01*
X1137030Y0383093D01*
X1136872Y0383021D01*
X1136712Y0382952D01*
X1136551Y0382888D01*
X1136388Y0382827D01*
X1136223Y0382771D01*
X1136057Y0382718D01*
X1135890Y0382670D01*
X1135722Y0382625D01*
X1135553Y0382585D01*
X1135383Y0382549D01*
X1135212Y0382517D01*
X1135040Y0382490D01*
X1134868Y0382466D01*
X1134695Y0382447D01*
X1134521Y0382432D01*
X1134348Y0382422D01*
X1134174Y0382415D01*
X1134000Y0382413D01*
X1133826Y0382415D01*
X1133652Y0382422D01*
X1133479Y0382432D01*
X1133305Y0382447D01*
X1133132Y0382466D01*
X1132960Y0382490D01*
X1132788Y0382517D01*
X1132617Y0382549D01*
X1132447Y0382585D01*
X1132278Y0382625D01*
X1132110Y0382670D01*
X1131943Y0382718D01*
X1131777Y0382771D01*
X1131612Y0382827D01*
X1131449Y0382888D01*
X1131288Y0382952D01*
X1131128Y0383021D01*
X1130970Y0383093D01*
X1130814Y0383170D01*
X1130659Y0383250D01*
X1130507Y0383334D01*
X1130357Y0383421D01*
X1130208Y0383513D01*
X1130063Y0383607D01*
X1129919Y0383706D01*
X1129778Y0383808D01*
X1129640Y0383913D01*
X1129504Y0384022D01*
X1129371Y0384134D01*
X1129241Y0384249D01*
X1129113Y0384367D01*
X1128989Y0384489D01*
X1128867Y0384613D01*
X1128749Y0384741D01*
X1128634Y0384871D01*
X1128522Y0385004D01*
X1128413Y0385140D01*
X1128308Y0385278D01*
X1128206Y0385419D01*
X1128107Y0385563D01*
X1128013Y0385708D01*
X1127921Y0385857D01*
X1127834Y0386007D01*
X1127750Y0386159D01*
X1127670Y0386314D01*
X1127593Y0386470D01*
X1127521Y0386628D01*
X1127452Y0386788D01*
X1127388Y0386949D01*
X1127327Y0387112D01*
X1127271Y0387277D01*
X1127218Y0387443D01*
X1127170Y0387610D01*
X1127125Y0387778D01*
X1127085Y0387947D01*
X1127049Y0388117D01*
X1127017Y0388288D01*
X1126990Y0388460D01*
X1126966Y0388632D01*
X1126947Y0388805D01*
X1126932Y0388979D01*
X1126922Y0389152D01*
X1126915Y0389326D01*
X1126913Y0389500D01*
X1129913Y0028500D02*
X1129915Y0028674D01*
X1129922Y0028848D01*
X1129932Y0029021D01*
X1129947Y0029195D01*
X1129966Y0029368D01*
X1129990Y0029540D01*
X1130017Y0029712D01*
X1130049Y0029883D01*
X1130085Y0030053D01*
X1130125Y0030222D01*
X1130170Y0030390D01*
X1130218Y0030557D01*
X1130271Y0030723D01*
X1130327Y0030888D01*
X1130388Y0031051D01*
X1130452Y0031212D01*
X1130521Y0031372D01*
X1130593Y0031530D01*
X1130670Y0031686D01*
X1130750Y0031841D01*
X1130834Y0031993D01*
X1130921Y0032143D01*
X1131013Y0032292D01*
X1131107Y0032437D01*
X1131206Y0032581D01*
X1131308Y0032722D01*
X1131413Y0032860D01*
X1131522Y0032996D01*
X1131634Y0033129D01*
X1131749Y0033259D01*
X1131867Y0033387D01*
X1131989Y0033511D01*
X1132113Y0033633D01*
X1132241Y0033751D01*
X1132371Y0033866D01*
X1132504Y0033978D01*
X1132640Y0034087D01*
X1132778Y0034192D01*
X1132919Y0034294D01*
X1133063Y0034393D01*
X1133208Y0034487D01*
X1133357Y0034579D01*
X1133507Y0034666D01*
X1133659Y0034750D01*
X1133814Y0034830D01*
X1133970Y0034907D01*
X1134128Y0034979D01*
X1134288Y0035048D01*
X1134449Y0035112D01*
X1134612Y0035173D01*
X1134777Y0035229D01*
X1134943Y0035282D01*
X1135110Y0035330D01*
X1135278Y0035375D01*
X1135447Y0035415D01*
X1135617Y0035451D01*
X1135788Y0035483D01*
X1135960Y0035510D01*
X1136132Y0035534D01*
X1136305Y0035553D01*
X1136479Y0035568D01*
X1136652Y0035578D01*
X1136826Y0035585D01*
X1137000Y0035587D01*
X1137174Y0035585D01*
X1137348Y0035578D01*
X1137521Y0035568D01*
X1137695Y0035553D01*
X1137868Y0035534D01*
X1138040Y0035510D01*
X1138212Y0035483D01*
X1138383Y0035451D01*
X1138553Y0035415D01*
X1138722Y0035375D01*
X1138890Y0035330D01*
X1139057Y0035282D01*
X1139223Y0035229D01*
X1139388Y0035173D01*
X1139551Y0035112D01*
X1139712Y0035048D01*
X1139872Y0034979D01*
X1140030Y0034907D01*
X1140186Y0034830D01*
X1140341Y0034750D01*
X1140493Y0034666D01*
X1140643Y0034579D01*
X1140792Y0034487D01*
X1140937Y0034393D01*
X1141081Y0034294D01*
X1141222Y0034192D01*
X1141360Y0034087D01*
X1141496Y0033978D01*
X1141629Y0033866D01*
X1141759Y0033751D01*
X1141887Y0033633D01*
X1142011Y0033511D01*
X1142133Y0033387D01*
X1142251Y0033259D01*
X1142366Y0033129D01*
X1142478Y0032996D01*
X1142587Y0032860D01*
X1142692Y0032722D01*
X1142794Y0032581D01*
X1142893Y0032437D01*
X1142987Y0032292D01*
X1143079Y0032143D01*
X1143166Y0031993D01*
X1143250Y0031841D01*
X1143330Y0031686D01*
X1143407Y0031530D01*
X1143479Y0031372D01*
X1143548Y0031212D01*
X1143612Y0031051D01*
X1143673Y0030888D01*
X1143729Y0030723D01*
X1143782Y0030557D01*
X1143830Y0030390D01*
X1143875Y0030222D01*
X1143915Y0030053D01*
X1143951Y0029883D01*
X1143983Y0029712D01*
X1144010Y0029540D01*
X1144034Y0029368D01*
X1144053Y0029195D01*
X1144068Y0029021D01*
X1144078Y0028848D01*
X1144085Y0028674D01*
X1144087Y0028500D01*
X1144085Y0028326D01*
X1144078Y0028152D01*
X1144068Y0027979D01*
X1144053Y0027805D01*
X1144034Y0027632D01*
X1144010Y0027460D01*
X1143983Y0027288D01*
X1143951Y0027117D01*
X1143915Y0026947D01*
X1143875Y0026778D01*
X1143830Y0026610D01*
X1143782Y0026443D01*
X1143729Y0026277D01*
X1143673Y0026112D01*
X1143612Y0025949D01*
X1143548Y0025788D01*
X1143479Y0025628D01*
X1143407Y0025470D01*
X1143330Y0025314D01*
X1143250Y0025159D01*
X1143166Y0025007D01*
X1143079Y0024857D01*
X1142987Y0024708D01*
X1142893Y0024563D01*
X1142794Y0024419D01*
X1142692Y0024278D01*
X1142587Y0024140D01*
X1142478Y0024004D01*
X1142366Y0023871D01*
X1142251Y0023741D01*
X1142133Y0023613D01*
X1142011Y0023489D01*
X1141887Y0023367D01*
X1141759Y0023249D01*
X1141629Y0023134D01*
X1141496Y0023022D01*
X1141360Y0022913D01*
X1141222Y0022808D01*
X1141081Y0022706D01*
X1140937Y0022607D01*
X1140792Y0022513D01*
X1140643Y0022421D01*
X1140493Y0022334D01*
X1140341Y0022250D01*
X1140186Y0022170D01*
X1140030Y0022093D01*
X1139872Y0022021D01*
X1139712Y0021952D01*
X1139551Y0021888D01*
X1139388Y0021827D01*
X1139223Y0021771D01*
X1139057Y0021718D01*
X1138890Y0021670D01*
X1138722Y0021625D01*
X1138553Y0021585D01*
X1138383Y0021549D01*
X1138212Y0021517D01*
X1138040Y0021490D01*
X1137868Y0021466D01*
X1137695Y0021447D01*
X1137521Y0021432D01*
X1137348Y0021422D01*
X1137174Y0021415D01*
X1137000Y0021413D01*
X1136826Y0021415D01*
X1136652Y0021422D01*
X1136479Y0021432D01*
X1136305Y0021447D01*
X1136132Y0021466D01*
X1135960Y0021490D01*
X1135788Y0021517D01*
X1135617Y0021549D01*
X1135447Y0021585D01*
X1135278Y0021625D01*
X1135110Y0021670D01*
X1134943Y0021718D01*
X1134777Y0021771D01*
X1134612Y0021827D01*
X1134449Y0021888D01*
X1134288Y0021952D01*
X1134128Y0022021D01*
X1133970Y0022093D01*
X1133814Y0022170D01*
X1133659Y0022250D01*
X1133507Y0022334D01*
X1133357Y0022421D01*
X1133208Y0022513D01*
X1133063Y0022607D01*
X1132919Y0022706D01*
X1132778Y0022808D01*
X1132640Y0022913D01*
X1132504Y0023022D01*
X1132371Y0023134D01*
X1132241Y0023249D01*
X1132113Y0023367D01*
X1131989Y0023489D01*
X1131867Y0023613D01*
X1131749Y0023741D01*
X1131634Y0023871D01*
X1131522Y0024004D01*
X1131413Y0024140D01*
X1131308Y0024278D01*
X1131206Y0024419D01*
X1131107Y0024563D01*
X1131013Y0024708D01*
X1130921Y0024857D01*
X1130834Y0025007D01*
X1130750Y0025159D01*
X1130670Y0025314D01*
X1130593Y0025470D01*
X1130521Y0025628D01*
X1130452Y0025788D01*
X1130388Y0025949D01*
X1130327Y0026112D01*
X1130271Y0026277D01*
X1130218Y0026443D01*
X1130170Y0026610D01*
X1130125Y0026778D01*
X1130085Y0026947D01*
X1130049Y0027117D01*
X1130017Y0027288D01*
X1129990Y0027460D01*
X1129966Y0027632D01*
X1129947Y0027805D01*
X1129932Y0027979D01*
X1129922Y0028152D01*
X1129915Y0028326D01*
X1129913Y0028500D01*
D11*
X0916982Y0332800D02*
X0912712Y0332800D01*
X0910537Y0333868D02*
X0909469Y0332800D01*
X0907334Y0332800D01*
X0906266Y0333868D01*
X0906266Y0338138D01*
X0907334Y0339205D01*
X0909469Y0339205D01*
X0910537Y0338138D01*
X0910537Y0333868D01*
X0916982Y0332800D02*
X0916982Y0339205D01*
X0904091Y0337070D02*
X0901956Y0339205D01*
X0899821Y0337070D01*
X0899821Y0332800D01*
X0897646Y0332800D02*
X0894443Y0332800D01*
X0893375Y0333868D01*
X0893375Y0338138D01*
X0894443Y0339205D01*
X0897646Y0339205D01*
X0897646Y0332800D01*
X0899821Y0336003D02*
X0904091Y0336003D01*
X0904091Y0337070D02*
X0904091Y0332800D01*
X0884200Y0353300D02*
X0879930Y0353300D01*
X0879000Y0355000D02*
X0884000Y0355000D01*
X0886500Y0357500D01*
X0889000Y0355000D01*
X0894000Y0355000D01*
X0896500Y0357500D01*
X0899000Y0355000D01*
X0904000Y0355000D01*
X0906500Y0357500D01*
X0906500Y0372500D01*
X0904000Y0375000D01*
X0899000Y0375000D01*
X0896500Y0372500D01*
X0894000Y0375000D01*
X0889000Y0375000D01*
X0886500Y0372500D01*
X0884000Y0375000D01*
X0879000Y0375000D01*
X0876500Y0372500D01*
X0874000Y0375000D01*
X0869000Y0375000D01*
X0866500Y0372500D01*
X0866500Y0357500D01*
X0869000Y0355000D01*
X0874000Y0355000D01*
X0876500Y0357500D01*
X0879000Y0355000D01*
X0877755Y0356503D02*
X0875619Y0356503D01*
X0873484Y0359705D02*
X0877755Y0359705D01*
X0877755Y0353300D01*
X0873484Y0353300D01*
X0871309Y0353300D02*
X0868106Y0353300D01*
X0867039Y0354368D01*
X0867039Y0358638D01*
X0868106Y0359705D01*
X0871309Y0359705D01*
X0871309Y0353300D01*
X0864864Y0356503D02*
X0860593Y0356503D01*
X0858418Y0359705D02*
X0858418Y0353300D01*
X0855215Y0353300D01*
X0854148Y0354368D01*
X0854148Y0358638D01*
X0855215Y0359705D01*
X0858418Y0359705D01*
X0851973Y0357570D02*
X0849837Y0359705D01*
X0847702Y0357570D01*
X0847702Y0353300D01*
X0847702Y0356503D02*
X0851973Y0356503D01*
X0851973Y0357570D02*
X0851973Y0353300D01*
X0843392Y0353300D02*
X0843392Y0359705D01*
X0845527Y0359705D02*
X0841257Y0359705D01*
X0839082Y0357570D02*
X0836946Y0359705D01*
X0834811Y0357570D01*
X0834811Y0353300D01*
X0834811Y0356503D02*
X0839082Y0356503D01*
X0839082Y0357570D02*
X0839082Y0353300D01*
X0884200Y0353300D02*
X0884200Y0359705D01*
X0906148Y0366800D02*
X0909350Y0370003D01*
X0910418Y0368935D02*
X0906148Y0373205D01*
X0910418Y0373205D02*
X0910418Y0366800D01*
X0912593Y0367868D02*
X0913661Y0366800D01*
X0915796Y0366800D01*
X0916864Y0367868D01*
X0916864Y0372138D01*
X0915796Y0373205D01*
X0913661Y0373205D01*
X0912593Y0372138D01*
X0911930Y0370800D02*
X0916200Y0370800D01*
X0911930Y0375070D01*
X0911930Y0376138D01*
X0912997Y0377205D01*
X0915132Y0377205D01*
X0916200Y0376138D01*
X0920106Y0373205D02*
X0919039Y0372138D01*
X0919039Y0367868D01*
X0920106Y0366800D01*
X0922241Y0366800D01*
X0923309Y0367868D01*
X0923309Y0372138D01*
X0922241Y0373205D01*
X0920106Y0373205D01*
X0929755Y0373205D02*
X0929755Y0366800D01*
X0925484Y0366800D01*
X0931930Y0367868D02*
X0932997Y0366800D01*
X0935132Y0366800D01*
X0936200Y0367868D01*
X0936200Y0372138D01*
X0935132Y0373205D01*
X0932997Y0373205D01*
X0931930Y0372138D01*
X0916200Y0384800D02*
X0912997Y0384800D01*
X0911930Y0385868D01*
X0911930Y0386935D01*
X0912997Y0388003D01*
X0916200Y0388003D01*
X0916200Y0391205D02*
X0912997Y0391205D01*
X0911930Y0390138D01*
X0911930Y0389070D01*
X0912997Y0388003D01*
X0916200Y0384800D02*
X0916200Y0391205D01*
X0909755Y0391205D02*
X0909755Y0384800D01*
X0905484Y0384800D01*
X0903309Y0384800D02*
X0903309Y0389070D01*
X0901174Y0391205D01*
X0899039Y0389070D01*
X0899039Y0384800D01*
X0896864Y0384800D02*
X0896864Y0391205D01*
X0892593Y0384800D01*
X0892593Y0391205D01*
X0890418Y0391205D02*
X0890418Y0384800D01*
X0890418Y0386935D02*
X0886148Y0391205D01*
X0889350Y0388003D02*
X0886148Y0384800D01*
X0899039Y0388003D02*
X0903309Y0388003D01*
X0912065Y0362705D02*
X0912065Y0356300D01*
X0914200Y0356300D02*
X0909930Y0356300D01*
X0914200Y0360570D02*
X0912065Y0362705D01*
X0470142Y0356402D02*
X0470142Y0347000D01*
X0430843Y0347000D01*
X0430843Y0356402D01*
X0430843Y0382402D01*
X0470142Y0382402D01*
X0470142Y0383201D01*
X0430843Y0383201D01*
X0430843Y0382402D01*
X0438643Y0377200D02*
X0438645Y0377289D01*
X0438651Y0377378D01*
X0438661Y0377467D01*
X0438675Y0377555D01*
X0438692Y0377642D01*
X0438714Y0377728D01*
X0438740Y0377814D01*
X0438769Y0377898D01*
X0438802Y0377981D01*
X0438838Y0378062D01*
X0438879Y0378142D01*
X0438922Y0378219D01*
X0438969Y0378295D01*
X0439020Y0378368D01*
X0439073Y0378439D01*
X0439130Y0378508D01*
X0439190Y0378574D01*
X0439253Y0378638D01*
X0439318Y0378698D01*
X0439386Y0378756D01*
X0439457Y0378810D01*
X0439530Y0378861D01*
X0439605Y0378909D01*
X0439682Y0378954D01*
X0439761Y0378995D01*
X0439842Y0379032D01*
X0439924Y0379066D01*
X0440008Y0379097D01*
X0440093Y0379123D01*
X0440179Y0379146D01*
X0440266Y0379164D01*
X0440354Y0379179D01*
X0440443Y0379190D01*
X0440532Y0379197D01*
X0440621Y0379200D01*
X0440710Y0379199D01*
X0440799Y0379194D01*
X0440887Y0379185D01*
X0440976Y0379172D01*
X0441063Y0379155D01*
X0441150Y0379135D01*
X0441236Y0379110D01*
X0441320Y0379082D01*
X0441403Y0379050D01*
X0441485Y0379014D01*
X0441565Y0378975D01*
X0441643Y0378932D01*
X0441719Y0378886D01*
X0441793Y0378836D01*
X0441865Y0378783D01*
X0441934Y0378727D01*
X0442001Y0378668D01*
X0442065Y0378606D01*
X0442126Y0378542D01*
X0442185Y0378474D01*
X0442240Y0378404D01*
X0442292Y0378332D01*
X0442341Y0378257D01*
X0442386Y0378181D01*
X0442428Y0378102D01*
X0442466Y0378022D01*
X0442501Y0377940D01*
X0442532Y0377856D01*
X0442560Y0377771D01*
X0442583Y0377685D01*
X0442603Y0377598D01*
X0442619Y0377511D01*
X0442631Y0377422D01*
X0442639Y0377334D01*
X0442643Y0377245D01*
X0442643Y0377155D01*
X0442639Y0377066D01*
X0442631Y0376978D01*
X0442619Y0376889D01*
X0442603Y0376802D01*
X0442583Y0376715D01*
X0442560Y0376629D01*
X0442532Y0376544D01*
X0442501Y0376460D01*
X0442466Y0376378D01*
X0442428Y0376298D01*
X0442386Y0376219D01*
X0442341Y0376143D01*
X0442292Y0376068D01*
X0442240Y0375996D01*
X0442185Y0375926D01*
X0442126Y0375858D01*
X0442065Y0375794D01*
X0442001Y0375732D01*
X0441934Y0375673D01*
X0441865Y0375617D01*
X0441793Y0375564D01*
X0441719Y0375514D01*
X0441643Y0375468D01*
X0441565Y0375425D01*
X0441485Y0375386D01*
X0441403Y0375350D01*
X0441320Y0375318D01*
X0441236Y0375290D01*
X0441150Y0375265D01*
X0441063Y0375245D01*
X0440976Y0375228D01*
X0440887Y0375215D01*
X0440799Y0375206D01*
X0440710Y0375201D01*
X0440621Y0375200D01*
X0440532Y0375203D01*
X0440443Y0375210D01*
X0440354Y0375221D01*
X0440266Y0375236D01*
X0440179Y0375254D01*
X0440093Y0375277D01*
X0440008Y0375303D01*
X0439924Y0375334D01*
X0439842Y0375368D01*
X0439761Y0375405D01*
X0439682Y0375446D01*
X0439605Y0375491D01*
X0439530Y0375539D01*
X0439457Y0375590D01*
X0439386Y0375644D01*
X0439318Y0375702D01*
X0439253Y0375762D01*
X0439190Y0375826D01*
X0439130Y0375892D01*
X0439073Y0375961D01*
X0439020Y0376032D01*
X0438969Y0376105D01*
X0438922Y0376181D01*
X0438879Y0376258D01*
X0438838Y0376338D01*
X0438802Y0376419D01*
X0438769Y0376502D01*
X0438740Y0376586D01*
X0438714Y0376672D01*
X0438692Y0376758D01*
X0438675Y0376845D01*
X0438661Y0376933D01*
X0438651Y0377022D01*
X0438645Y0377111D01*
X0438643Y0377200D01*
X0458343Y0377200D02*
X0458345Y0377289D01*
X0458351Y0377378D01*
X0458361Y0377467D01*
X0458375Y0377555D01*
X0458392Y0377642D01*
X0458414Y0377728D01*
X0458440Y0377814D01*
X0458469Y0377898D01*
X0458502Y0377981D01*
X0458538Y0378062D01*
X0458579Y0378142D01*
X0458622Y0378219D01*
X0458669Y0378295D01*
X0458720Y0378368D01*
X0458773Y0378439D01*
X0458830Y0378508D01*
X0458890Y0378574D01*
X0458953Y0378638D01*
X0459018Y0378698D01*
X0459086Y0378756D01*
X0459157Y0378810D01*
X0459230Y0378861D01*
X0459305Y0378909D01*
X0459382Y0378954D01*
X0459461Y0378995D01*
X0459542Y0379032D01*
X0459624Y0379066D01*
X0459708Y0379097D01*
X0459793Y0379123D01*
X0459879Y0379146D01*
X0459966Y0379164D01*
X0460054Y0379179D01*
X0460143Y0379190D01*
X0460232Y0379197D01*
X0460321Y0379200D01*
X0460410Y0379199D01*
X0460499Y0379194D01*
X0460587Y0379185D01*
X0460676Y0379172D01*
X0460763Y0379155D01*
X0460850Y0379135D01*
X0460936Y0379110D01*
X0461020Y0379082D01*
X0461103Y0379050D01*
X0461185Y0379014D01*
X0461265Y0378975D01*
X0461343Y0378932D01*
X0461419Y0378886D01*
X0461493Y0378836D01*
X0461565Y0378783D01*
X0461634Y0378727D01*
X0461701Y0378668D01*
X0461765Y0378606D01*
X0461826Y0378542D01*
X0461885Y0378474D01*
X0461940Y0378404D01*
X0461992Y0378332D01*
X0462041Y0378257D01*
X0462086Y0378181D01*
X0462128Y0378102D01*
X0462166Y0378022D01*
X0462201Y0377940D01*
X0462232Y0377856D01*
X0462260Y0377771D01*
X0462283Y0377685D01*
X0462303Y0377598D01*
X0462319Y0377511D01*
X0462331Y0377422D01*
X0462339Y0377334D01*
X0462343Y0377245D01*
X0462343Y0377155D01*
X0462339Y0377066D01*
X0462331Y0376978D01*
X0462319Y0376889D01*
X0462303Y0376802D01*
X0462283Y0376715D01*
X0462260Y0376629D01*
X0462232Y0376544D01*
X0462201Y0376460D01*
X0462166Y0376378D01*
X0462128Y0376298D01*
X0462086Y0376219D01*
X0462041Y0376143D01*
X0461992Y0376068D01*
X0461940Y0375996D01*
X0461885Y0375926D01*
X0461826Y0375858D01*
X0461765Y0375794D01*
X0461701Y0375732D01*
X0461634Y0375673D01*
X0461565Y0375617D01*
X0461493Y0375564D01*
X0461419Y0375514D01*
X0461343Y0375468D01*
X0461265Y0375425D01*
X0461185Y0375386D01*
X0461103Y0375350D01*
X0461020Y0375318D01*
X0460936Y0375290D01*
X0460850Y0375265D01*
X0460763Y0375245D01*
X0460676Y0375228D01*
X0460587Y0375215D01*
X0460499Y0375206D01*
X0460410Y0375201D01*
X0460321Y0375200D01*
X0460232Y0375203D01*
X0460143Y0375210D01*
X0460054Y0375221D01*
X0459966Y0375236D01*
X0459879Y0375254D01*
X0459793Y0375277D01*
X0459708Y0375303D01*
X0459624Y0375334D01*
X0459542Y0375368D01*
X0459461Y0375405D01*
X0459382Y0375446D01*
X0459305Y0375491D01*
X0459230Y0375539D01*
X0459157Y0375590D01*
X0459086Y0375644D01*
X0459018Y0375702D01*
X0458953Y0375762D01*
X0458890Y0375826D01*
X0458830Y0375892D01*
X0458773Y0375961D01*
X0458720Y0376032D01*
X0458669Y0376105D01*
X0458622Y0376181D01*
X0458579Y0376258D01*
X0458538Y0376338D01*
X0458502Y0376419D01*
X0458469Y0376502D01*
X0458440Y0376586D01*
X0458414Y0376672D01*
X0458392Y0376758D01*
X0458375Y0376845D01*
X0458361Y0376933D01*
X0458351Y0377022D01*
X0458345Y0377111D01*
X0458343Y0377200D01*
X0470142Y0382402D02*
X0470142Y0356402D01*
X0463843Y0356402D01*
X0456843Y0356402D02*
X0444142Y0356402D01*
X0437142Y0356402D02*
X0430843Y0356402D01*
X0297000Y0361000D02*
X0288000Y0361000D01*
X0288000Y0363500D01*
X0292500Y0363500D01*
X0297000Y0363500D01*
X0297000Y0361000D01*
X0272500Y0360000D02*
X0272506Y0360491D01*
X0272524Y0360981D01*
X0272554Y0361471D01*
X0272596Y0361960D01*
X0272650Y0362448D01*
X0272716Y0362935D01*
X0272794Y0363419D01*
X0272884Y0363902D01*
X0272986Y0364382D01*
X0273099Y0364860D01*
X0273224Y0365334D01*
X0273361Y0365806D01*
X0273509Y0366274D01*
X0273669Y0366738D01*
X0273840Y0367198D01*
X0274022Y0367654D01*
X0274216Y0368105D01*
X0274420Y0368551D01*
X0274636Y0368992D01*
X0274862Y0369428D01*
X0275098Y0369858D01*
X0275345Y0370282D01*
X0275603Y0370700D01*
X0275871Y0371111D01*
X0276148Y0371516D01*
X0276436Y0371914D01*
X0276733Y0372305D01*
X0277040Y0372688D01*
X0277356Y0373063D01*
X0277681Y0373431D01*
X0278015Y0373791D01*
X0278358Y0374142D01*
X0278709Y0374485D01*
X0279069Y0374819D01*
X0279437Y0375144D01*
X0279812Y0375460D01*
X0280195Y0375767D01*
X0280586Y0376064D01*
X0280984Y0376352D01*
X0281389Y0376629D01*
X0281800Y0376897D01*
X0282218Y0377155D01*
X0282642Y0377402D01*
X0283072Y0377638D01*
X0283508Y0377864D01*
X0283949Y0378080D01*
X0284395Y0378284D01*
X0284846Y0378478D01*
X0285302Y0378660D01*
X0285762Y0378831D01*
X0286226Y0378991D01*
X0286694Y0379139D01*
X0287166Y0379276D01*
X0287640Y0379401D01*
X0288118Y0379514D01*
X0288598Y0379616D01*
X0289081Y0379706D01*
X0289565Y0379784D01*
X0290052Y0379850D01*
X0290540Y0379904D01*
X0291029Y0379946D01*
X0291519Y0379976D01*
X0292009Y0379994D01*
X0292500Y0380000D01*
X0292991Y0379994D01*
X0293481Y0379976D01*
X0293971Y0379946D01*
X0294460Y0379904D01*
X0294948Y0379850D01*
X0295435Y0379784D01*
X0295919Y0379706D01*
X0296402Y0379616D01*
X0296882Y0379514D01*
X0297360Y0379401D01*
X0297834Y0379276D01*
X0298306Y0379139D01*
X0298774Y0378991D01*
X0299238Y0378831D01*
X0299698Y0378660D01*
X0300154Y0378478D01*
X0300605Y0378284D01*
X0301051Y0378080D01*
X0301492Y0377864D01*
X0301928Y0377638D01*
X0302358Y0377402D01*
X0302782Y0377155D01*
X0303200Y0376897D01*
X0303611Y0376629D01*
X0304016Y0376352D01*
X0304414Y0376064D01*
X0304805Y0375767D01*
X0305188Y0375460D01*
X0305563Y0375144D01*
X0305931Y0374819D01*
X0306291Y0374485D01*
X0306642Y0374142D01*
X0306985Y0373791D01*
X0307319Y0373431D01*
X0307644Y0373063D01*
X0307960Y0372688D01*
X0308267Y0372305D01*
X0308564Y0371914D01*
X0308852Y0371516D01*
X0309129Y0371111D01*
X0309397Y0370700D01*
X0309655Y0370282D01*
X0309902Y0369858D01*
X0310138Y0369428D01*
X0310364Y0368992D01*
X0310580Y0368551D01*
X0310784Y0368105D01*
X0310978Y0367654D01*
X0311160Y0367198D01*
X0311331Y0366738D01*
X0311491Y0366274D01*
X0311639Y0365806D01*
X0311776Y0365334D01*
X0311901Y0364860D01*
X0312014Y0364382D01*
X0312116Y0363902D01*
X0312206Y0363419D01*
X0312284Y0362935D01*
X0312350Y0362448D01*
X0312404Y0361960D01*
X0312446Y0361471D01*
X0312476Y0360981D01*
X0312494Y0360491D01*
X0312500Y0360000D01*
X0312494Y0359509D01*
X0312476Y0359019D01*
X0312446Y0358529D01*
X0312404Y0358040D01*
X0312350Y0357552D01*
X0312284Y0357065D01*
X0312206Y0356581D01*
X0312116Y0356098D01*
X0312014Y0355618D01*
X0311901Y0355140D01*
X0311776Y0354666D01*
X0311639Y0354194D01*
X0311491Y0353726D01*
X0311331Y0353262D01*
X0311160Y0352802D01*
X0310978Y0352346D01*
X0310784Y0351895D01*
X0310580Y0351449D01*
X0310364Y0351008D01*
X0310138Y0350572D01*
X0309902Y0350142D01*
X0309655Y0349718D01*
X0309397Y0349300D01*
X0309129Y0348889D01*
X0308852Y0348484D01*
X0308564Y0348086D01*
X0308267Y0347695D01*
X0307960Y0347312D01*
X0307644Y0346937D01*
X0307319Y0346569D01*
X0306985Y0346209D01*
X0306642Y0345858D01*
X0306291Y0345515D01*
X0305931Y0345181D01*
X0305563Y0344856D01*
X0305188Y0344540D01*
X0304805Y0344233D01*
X0304414Y0343936D01*
X0304016Y0343648D01*
X0303611Y0343371D01*
X0303200Y0343103D01*
X0302782Y0342845D01*
X0302358Y0342598D01*
X0301928Y0342362D01*
X0301492Y0342136D01*
X0301051Y0341920D01*
X0300605Y0341716D01*
X0300154Y0341522D01*
X0299698Y0341340D01*
X0299238Y0341169D01*
X0298774Y0341009D01*
X0298306Y0340861D01*
X0297834Y0340724D01*
X0297360Y0340599D01*
X0296882Y0340486D01*
X0296402Y0340384D01*
X0295919Y0340294D01*
X0295435Y0340216D01*
X0294948Y0340150D01*
X0294460Y0340096D01*
X0293971Y0340054D01*
X0293481Y0340024D01*
X0292991Y0340006D01*
X0292500Y0340000D01*
X0292009Y0340006D01*
X0291519Y0340024D01*
X0291029Y0340054D01*
X0290540Y0340096D01*
X0290052Y0340150D01*
X0289565Y0340216D01*
X0289081Y0340294D01*
X0288598Y0340384D01*
X0288118Y0340486D01*
X0287640Y0340599D01*
X0287166Y0340724D01*
X0286694Y0340861D01*
X0286226Y0341009D01*
X0285762Y0341169D01*
X0285302Y0341340D01*
X0284846Y0341522D01*
X0284395Y0341716D01*
X0283949Y0341920D01*
X0283508Y0342136D01*
X0283072Y0342362D01*
X0282642Y0342598D01*
X0282218Y0342845D01*
X0281800Y0343103D01*
X0281389Y0343371D01*
X0280984Y0343648D01*
X0280586Y0343936D01*
X0280195Y0344233D01*
X0279812Y0344540D01*
X0279437Y0344856D01*
X0279069Y0345181D01*
X0278709Y0345515D01*
X0278358Y0345858D01*
X0278015Y0346209D01*
X0277681Y0346569D01*
X0277356Y0346937D01*
X0277040Y0347312D01*
X0276733Y0347695D01*
X0276436Y0348086D01*
X0276148Y0348484D01*
X0275871Y0348889D01*
X0275603Y0349300D01*
X0275345Y0349718D01*
X0275098Y0350142D01*
X0274862Y0350572D01*
X0274636Y0351008D01*
X0274420Y0351449D01*
X0274216Y0351895D01*
X0274022Y0352346D01*
X0273840Y0352802D01*
X0273669Y0353262D01*
X0273509Y0353726D01*
X0273361Y0354194D01*
X0273224Y0354666D01*
X0273099Y0355140D01*
X0272986Y0355618D01*
X0272884Y0356098D01*
X0272794Y0356581D01*
X0272716Y0357065D01*
X0272650Y0357552D01*
X0272596Y0358040D01*
X0272554Y0358529D01*
X0272524Y0359019D01*
X0272506Y0359509D01*
X0272500Y0360000D01*
X0292500Y0357500D02*
X0292500Y0355500D01*
X0292500Y0363500D02*
X0292500Y0364500D01*
X0287500Y0373500D02*
X0287500Y0376500D01*
X0286000Y0375000D02*
X0289000Y0375000D01*
X0212500Y0363500D02*
X0212500Y0361000D01*
X0203500Y0361000D01*
X0203500Y0363500D01*
X0208000Y0363500D01*
X0212500Y0363500D01*
X0208000Y0363500D02*
X0208000Y0364500D01*
X0188000Y0360000D02*
X0188006Y0360491D01*
X0188024Y0360981D01*
X0188054Y0361471D01*
X0188096Y0361960D01*
X0188150Y0362448D01*
X0188216Y0362935D01*
X0188294Y0363419D01*
X0188384Y0363902D01*
X0188486Y0364382D01*
X0188599Y0364860D01*
X0188724Y0365334D01*
X0188861Y0365806D01*
X0189009Y0366274D01*
X0189169Y0366738D01*
X0189340Y0367198D01*
X0189522Y0367654D01*
X0189716Y0368105D01*
X0189920Y0368551D01*
X0190136Y0368992D01*
X0190362Y0369428D01*
X0190598Y0369858D01*
X0190845Y0370282D01*
X0191103Y0370700D01*
X0191371Y0371111D01*
X0191648Y0371516D01*
X0191936Y0371914D01*
X0192233Y0372305D01*
X0192540Y0372688D01*
X0192856Y0373063D01*
X0193181Y0373431D01*
X0193515Y0373791D01*
X0193858Y0374142D01*
X0194209Y0374485D01*
X0194569Y0374819D01*
X0194937Y0375144D01*
X0195312Y0375460D01*
X0195695Y0375767D01*
X0196086Y0376064D01*
X0196484Y0376352D01*
X0196889Y0376629D01*
X0197300Y0376897D01*
X0197718Y0377155D01*
X0198142Y0377402D01*
X0198572Y0377638D01*
X0199008Y0377864D01*
X0199449Y0378080D01*
X0199895Y0378284D01*
X0200346Y0378478D01*
X0200802Y0378660D01*
X0201262Y0378831D01*
X0201726Y0378991D01*
X0202194Y0379139D01*
X0202666Y0379276D01*
X0203140Y0379401D01*
X0203618Y0379514D01*
X0204098Y0379616D01*
X0204581Y0379706D01*
X0205065Y0379784D01*
X0205552Y0379850D01*
X0206040Y0379904D01*
X0206529Y0379946D01*
X0207019Y0379976D01*
X0207509Y0379994D01*
X0208000Y0380000D01*
X0208491Y0379994D01*
X0208981Y0379976D01*
X0209471Y0379946D01*
X0209960Y0379904D01*
X0210448Y0379850D01*
X0210935Y0379784D01*
X0211419Y0379706D01*
X0211902Y0379616D01*
X0212382Y0379514D01*
X0212860Y0379401D01*
X0213334Y0379276D01*
X0213806Y0379139D01*
X0214274Y0378991D01*
X0214738Y0378831D01*
X0215198Y0378660D01*
X0215654Y0378478D01*
X0216105Y0378284D01*
X0216551Y0378080D01*
X0216992Y0377864D01*
X0217428Y0377638D01*
X0217858Y0377402D01*
X0218282Y0377155D01*
X0218700Y0376897D01*
X0219111Y0376629D01*
X0219516Y0376352D01*
X0219914Y0376064D01*
X0220305Y0375767D01*
X0220688Y0375460D01*
X0221063Y0375144D01*
X0221431Y0374819D01*
X0221791Y0374485D01*
X0222142Y0374142D01*
X0222485Y0373791D01*
X0222819Y0373431D01*
X0223144Y0373063D01*
X0223460Y0372688D01*
X0223767Y0372305D01*
X0224064Y0371914D01*
X0224352Y0371516D01*
X0224629Y0371111D01*
X0224897Y0370700D01*
X0225155Y0370282D01*
X0225402Y0369858D01*
X0225638Y0369428D01*
X0225864Y0368992D01*
X0226080Y0368551D01*
X0226284Y0368105D01*
X0226478Y0367654D01*
X0226660Y0367198D01*
X0226831Y0366738D01*
X0226991Y0366274D01*
X0227139Y0365806D01*
X0227276Y0365334D01*
X0227401Y0364860D01*
X0227514Y0364382D01*
X0227616Y0363902D01*
X0227706Y0363419D01*
X0227784Y0362935D01*
X0227850Y0362448D01*
X0227904Y0361960D01*
X0227946Y0361471D01*
X0227976Y0360981D01*
X0227994Y0360491D01*
X0228000Y0360000D01*
X0227994Y0359509D01*
X0227976Y0359019D01*
X0227946Y0358529D01*
X0227904Y0358040D01*
X0227850Y0357552D01*
X0227784Y0357065D01*
X0227706Y0356581D01*
X0227616Y0356098D01*
X0227514Y0355618D01*
X0227401Y0355140D01*
X0227276Y0354666D01*
X0227139Y0354194D01*
X0226991Y0353726D01*
X0226831Y0353262D01*
X0226660Y0352802D01*
X0226478Y0352346D01*
X0226284Y0351895D01*
X0226080Y0351449D01*
X0225864Y0351008D01*
X0225638Y0350572D01*
X0225402Y0350142D01*
X0225155Y0349718D01*
X0224897Y0349300D01*
X0224629Y0348889D01*
X0224352Y0348484D01*
X0224064Y0348086D01*
X0223767Y0347695D01*
X0223460Y0347312D01*
X0223144Y0346937D01*
X0222819Y0346569D01*
X0222485Y0346209D01*
X0222142Y0345858D01*
X0221791Y0345515D01*
X0221431Y0345181D01*
X0221063Y0344856D01*
X0220688Y0344540D01*
X0220305Y0344233D01*
X0219914Y0343936D01*
X0219516Y0343648D01*
X0219111Y0343371D01*
X0218700Y0343103D01*
X0218282Y0342845D01*
X0217858Y0342598D01*
X0217428Y0342362D01*
X0216992Y0342136D01*
X0216551Y0341920D01*
X0216105Y0341716D01*
X0215654Y0341522D01*
X0215198Y0341340D01*
X0214738Y0341169D01*
X0214274Y0341009D01*
X0213806Y0340861D01*
X0213334Y0340724D01*
X0212860Y0340599D01*
X0212382Y0340486D01*
X0211902Y0340384D01*
X0211419Y0340294D01*
X0210935Y0340216D01*
X0210448Y0340150D01*
X0209960Y0340096D01*
X0209471Y0340054D01*
X0208981Y0340024D01*
X0208491Y0340006D01*
X0208000Y0340000D01*
X0207509Y0340006D01*
X0207019Y0340024D01*
X0206529Y0340054D01*
X0206040Y0340096D01*
X0205552Y0340150D01*
X0205065Y0340216D01*
X0204581Y0340294D01*
X0204098Y0340384D01*
X0203618Y0340486D01*
X0203140Y0340599D01*
X0202666Y0340724D01*
X0202194Y0340861D01*
X0201726Y0341009D01*
X0201262Y0341169D01*
X0200802Y0341340D01*
X0200346Y0341522D01*
X0199895Y0341716D01*
X0199449Y0341920D01*
X0199008Y0342136D01*
X0198572Y0342362D01*
X0198142Y0342598D01*
X0197718Y0342845D01*
X0197300Y0343103D01*
X0196889Y0343371D01*
X0196484Y0343648D01*
X0196086Y0343936D01*
X0195695Y0344233D01*
X0195312Y0344540D01*
X0194937Y0344856D01*
X0194569Y0345181D01*
X0194209Y0345515D01*
X0193858Y0345858D01*
X0193515Y0346209D01*
X0193181Y0346569D01*
X0192856Y0346937D01*
X0192540Y0347312D01*
X0192233Y0347695D01*
X0191936Y0348086D01*
X0191648Y0348484D01*
X0191371Y0348889D01*
X0191103Y0349300D01*
X0190845Y0349718D01*
X0190598Y0350142D01*
X0190362Y0350572D01*
X0190136Y0351008D01*
X0189920Y0351449D01*
X0189716Y0351895D01*
X0189522Y0352346D01*
X0189340Y0352802D01*
X0189169Y0353262D01*
X0189009Y0353726D01*
X0188861Y0354194D01*
X0188724Y0354666D01*
X0188599Y0355140D01*
X0188486Y0355618D01*
X0188384Y0356098D01*
X0188294Y0356581D01*
X0188216Y0357065D01*
X0188150Y0357552D01*
X0188096Y0358040D01*
X0188054Y0358529D01*
X0188024Y0359019D01*
X0188006Y0359509D01*
X0188000Y0360000D01*
X0208000Y0357500D02*
X0208000Y0355500D01*
X0203000Y0373500D02*
X0203000Y0376500D01*
X0201500Y0375000D02*
X0204500Y0375000D01*
X0128642Y0385402D02*
X0128642Y0359402D01*
X0122343Y0359402D01*
X0128642Y0359402D02*
X0128642Y0350000D01*
X0089343Y0350000D01*
X0089343Y0359402D01*
X0089343Y0385402D01*
X0128642Y0385402D01*
X0128642Y0386201D01*
X0089343Y0386201D01*
X0089343Y0385402D01*
X0097143Y0380200D02*
X0097145Y0380289D01*
X0097151Y0380378D01*
X0097161Y0380467D01*
X0097175Y0380555D01*
X0097192Y0380642D01*
X0097214Y0380728D01*
X0097240Y0380814D01*
X0097269Y0380898D01*
X0097302Y0380981D01*
X0097338Y0381062D01*
X0097379Y0381142D01*
X0097422Y0381219D01*
X0097469Y0381295D01*
X0097520Y0381368D01*
X0097573Y0381439D01*
X0097630Y0381508D01*
X0097690Y0381574D01*
X0097753Y0381638D01*
X0097818Y0381698D01*
X0097886Y0381756D01*
X0097957Y0381810D01*
X0098030Y0381861D01*
X0098105Y0381909D01*
X0098182Y0381954D01*
X0098261Y0381995D01*
X0098342Y0382032D01*
X0098424Y0382066D01*
X0098508Y0382097D01*
X0098593Y0382123D01*
X0098679Y0382146D01*
X0098766Y0382164D01*
X0098854Y0382179D01*
X0098943Y0382190D01*
X0099032Y0382197D01*
X0099121Y0382200D01*
X0099210Y0382199D01*
X0099299Y0382194D01*
X0099387Y0382185D01*
X0099476Y0382172D01*
X0099563Y0382155D01*
X0099650Y0382135D01*
X0099736Y0382110D01*
X0099820Y0382082D01*
X0099903Y0382050D01*
X0099985Y0382014D01*
X0100065Y0381975D01*
X0100143Y0381932D01*
X0100219Y0381886D01*
X0100293Y0381836D01*
X0100365Y0381783D01*
X0100434Y0381727D01*
X0100501Y0381668D01*
X0100565Y0381606D01*
X0100626Y0381542D01*
X0100685Y0381474D01*
X0100740Y0381404D01*
X0100792Y0381332D01*
X0100841Y0381257D01*
X0100886Y0381181D01*
X0100928Y0381102D01*
X0100966Y0381022D01*
X0101001Y0380940D01*
X0101032Y0380856D01*
X0101060Y0380771D01*
X0101083Y0380685D01*
X0101103Y0380598D01*
X0101119Y0380511D01*
X0101131Y0380422D01*
X0101139Y0380334D01*
X0101143Y0380245D01*
X0101143Y0380155D01*
X0101139Y0380066D01*
X0101131Y0379978D01*
X0101119Y0379889D01*
X0101103Y0379802D01*
X0101083Y0379715D01*
X0101060Y0379629D01*
X0101032Y0379544D01*
X0101001Y0379460D01*
X0100966Y0379378D01*
X0100928Y0379298D01*
X0100886Y0379219D01*
X0100841Y0379143D01*
X0100792Y0379068D01*
X0100740Y0378996D01*
X0100685Y0378926D01*
X0100626Y0378858D01*
X0100565Y0378794D01*
X0100501Y0378732D01*
X0100434Y0378673D01*
X0100365Y0378617D01*
X0100293Y0378564D01*
X0100219Y0378514D01*
X0100143Y0378468D01*
X0100065Y0378425D01*
X0099985Y0378386D01*
X0099903Y0378350D01*
X0099820Y0378318D01*
X0099736Y0378290D01*
X0099650Y0378265D01*
X0099563Y0378245D01*
X0099476Y0378228D01*
X0099387Y0378215D01*
X0099299Y0378206D01*
X0099210Y0378201D01*
X0099121Y0378200D01*
X0099032Y0378203D01*
X0098943Y0378210D01*
X0098854Y0378221D01*
X0098766Y0378236D01*
X0098679Y0378254D01*
X0098593Y0378277D01*
X0098508Y0378303D01*
X0098424Y0378334D01*
X0098342Y0378368D01*
X0098261Y0378405D01*
X0098182Y0378446D01*
X0098105Y0378491D01*
X0098030Y0378539D01*
X0097957Y0378590D01*
X0097886Y0378644D01*
X0097818Y0378702D01*
X0097753Y0378762D01*
X0097690Y0378826D01*
X0097630Y0378892D01*
X0097573Y0378961D01*
X0097520Y0379032D01*
X0097469Y0379105D01*
X0097422Y0379181D01*
X0097379Y0379258D01*
X0097338Y0379338D01*
X0097302Y0379419D01*
X0097269Y0379502D01*
X0097240Y0379586D01*
X0097214Y0379672D01*
X0097192Y0379758D01*
X0097175Y0379845D01*
X0097161Y0379933D01*
X0097151Y0380022D01*
X0097145Y0380111D01*
X0097143Y0380200D01*
X0116843Y0380200D02*
X0116845Y0380289D01*
X0116851Y0380378D01*
X0116861Y0380467D01*
X0116875Y0380555D01*
X0116892Y0380642D01*
X0116914Y0380728D01*
X0116940Y0380814D01*
X0116969Y0380898D01*
X0117002Y0380981D01*
X0117038Y0381062D01*
X0117079Y0381142D01*
X0117122Y0381219D01*
X0117169Y0381295D01*
X0117220Y0381368D01*
X0117273Y0381439D01*
X0117330Y0381508D01*
X0117390Y0381574D01*
X0117453Y0381638D01*
X0117518Y0381698D01*
X0117586Y0381756D01*
X0117657Y0381810D01*
X0117730Y0381861D01*
X0117805Y0381909D01*
X0117882Y0381954D01*
X0117961Y0381995D01*
X0118042Y0382032D01*
X0118124Y0382066D01*
X0118208Y0382097D01*
X0118293Y0382123D01*
X0118379Y0382146D01*
X0118466Y0382164D01*
X0118554Y0382179D01*
X0118643Y0382190D01*
X0118732Y0382197D01*
X0118821Y0382200D01*
X0118910Y0382199D01*
X0118999Y0382194D01*
X0119087Y0382185D01*
X0119176Y0382172D01*
X0119263Y0382155D01*
X0119350Y0382135D01*
X0119436Y0382110D01*
X0119520Y0382082D01*
X0119603Y0382050D01*
X0119685Y0382014D01*
X0119765Y0381975D01*
X0119843Y0381932D01*
X0119919Y0381886D01*
X0119993Y0381836D01*
X0120065Y0381783D01*
X0120134Y0381727D01*
X0120201Y0381668D01*
X0120265Y0381606D01*
X0120326Y0381542D01*
X0120385Y0381474D01*
X0120440Y0381404D01*
X0120492Y0381332D01*
X0120541Y0381257D01*
X0120586Y0381181D01*
X0120628Y0381102D01*
X0120666Y0381022D01*
X0120701Y0380940D01*
X0120732Y0380856D01*
X0120760Y0380771D01*
X0120783Y0380685D01*
X0120803Y0380598D01*
X0120819Y0380511D01*
X0120831Y0380422D01*
X0120839Y0380334D01*
X0120843Y0380245D01*
X0120843Y0380155D01*
X0120839Y0380066D01*
X0120831Y0379978D01*
X0120819Y0379889D01*
X0120803Y0379802D01*
X0120783Y0379715D01*
X0120760Y0379629D01*
X0120732Y0379544D01*
X0120701Y0379460D01*
X0120666Y0379378D01*
X0120628Y0379298D01*
X0120586Y0379219D01*
X0120541Y0379143D01*
X0120492Y0379068D01*
X0120440Y0378996D01*
X0120385Y0378926D01*
X0120326Y0378858D01*
X0120265Y0378794D01*
X0120201Y0378732D01*
X0120134Y0378673D01*
X0120065Y0378617D01*
X0119993Y0378564D01*
X0119919Y0378514D01*
X0119843Y0378468D01*
X0119765Y0378425D01*
X0119685Y0378386D01*
X0119603Y0378350D01*
X0119520Y0378318D01*
X0119436Y0378290D01*
X0119350Y0378265D01*
X0119263Y0378245D01*
X0119176Y0378228D01*
X0119087Y0378215D01*
X0118999Y0378206D01*
X0118910Y0378201D01*
X0118821Y0378200D01*
X0118732Y0378203D01*
X0118643Y0378210D01*
X0118554Y0378221D01*
X0118466Y0378236D01*
X0118379Y0378254D01*
X0118293Y0378277D01*
X0118208Y0378303D01*
X0118124Y0378334D01*
X0118042Y0378368D01*
X0117961Y0378405D01*
X0117882Y0378446D01*
X0117805Y0378491D01*
X0117730Y0378539D01*
X0117657Y0378590D01*
X0117586Y0378644D01*
X0117518Y0378702D01*
X0117453Y0378762D01*
X0117390Y0378826D01*
X0117330Y0378892D01*
X0117273Y0378961D01*
X0117220Y0379032D01*
X0117169Y0379105D01*
X0117122Y0379181D01*
X0117079Y0379258D01*
X0117038Y0379338D01*
X0117002Y0379419D01*
X0116969Y0379502D01*
X0116940Y0379586D01*
X0116914Y0379672D01*
X0116892Y0379758D01*
X0116875Y0379845D01*
X0116861Y0379933D01*
X0116851Y0380022D01*
X0116845Y0380111D01*
X0116843Y0380200D01*
X0115343Y0359402D02*
X0102642Y0359402D01*
X0095642Y0359402D02*
X0089343Y0359402D01*
X0016205Y0317624D02*
X0009800Y0317624D01*
X0016205Y0313354D01*
X0009800Y0313354D01*
X0009800Y0311192D02*
X0009800Y0309057D01*
X0009800Y0310125D02*
X0016205Y0310125D01*
X0016205Y0311192D02*
X0016205Y0309057D01*
X0009800Y0306882D02*
X0009800Y0302612D01*
X0016205Y0302612D01*
X0016205Y0293991D02*
X0009800Y0293991D01*
X0016205Y0289721D01*
X0009800Y0289721D01*
X0009800Y0287545D02*
X0014070Y0287545D01*
X0016205Y0285410D01*
X0014070Y0283275D01*
X0009800Y0283275D01*
X0009800Y0281113D02*
X0009800Y0278978D01*
X0009800Y0280046D02*
X0016205Y0280046D01*
X0016205Y0281113D02*
X0016205Y0278978D01*
X0016205Y0276803D02*
X0016205Y0274668D01*
X0016205Y0275735D02*
X0010868Y0275735D01*
X0009800Y0274668D01*
X0009800Y0273600D01*
X0010868Y0272533D01*
X0009800Y0270357D02*
X0009800Y0266087D01*
X0016205Y0266087D01*
X0016205Y0270357D01*
X0013003Y0268222D02*
X0013003Y0266087D01*
X0016205Y0263912D02*
X0011935Y0259642D01*
X0013003Y0260709D02*
X0009800Y0263912D01*
X0009800Y0259642D02*
X0016205Y0259642D01*
X0016205Y0251021D02*
X0015138Y0251021D01*
X0013003Y0248886D01*
X0009800Y0248886D01*
X0013003Y0248886D02*
X0015138Y0246751D01*
X0016205Y0246751D01*
X0015138Y0244576D02*
X0014070Y0244576D01*
X0013003Y0243508D01*
X0013003Y0240305D01*
X0016205Y0240305D02*
X0016205Y0243508D01*
X0015138Y0244576D01*
X0013003Y0243508D02*
X0011935Y0244576D01*
X0010868Y0244576D01*
X0009800Y0243508D01*
X0009800Y0240305D01*
X0016205Y0240305D01*
X0015138Y0231685D02*
X0010868Y0231685D01*
X0009800Y0230617D01*
X0009800Y0227414D01*
X0016205Y0227414D01*
X0016205Y0230617D01*
X0015138Y0231685D01*
X0016205Y0225239D02*
X0016205Y0220969D01*
X0009800Y0220969D01*
X0009800Y0225239D01*
X0013003Y0223104D02*
X0013003Y0220969D01*
X0016205Y0218794D02*
X0009800Y0218794D01*
X0016205Y0214523D01*
X0009800Y0214523D01*
X0010868Y0212348D02*
X0013003Y0212348D01*
X0013003Y0210213D01*
X0015138Y0212348D02*
X0016205Y0211280D01*
X0016205Y0209145D01*
X0015138Y0208078D01*
X0010868Y0208078D01*
X0009800Y0209145D01*
X0009800Y0211280D01*
X0010868Y0212348D01*
X0009800Y0205916D02*
X0009800Y0203781D01*
X0009800Y0204848D02*
X0016205Y0204848D01*
X0016205Y0203781D02*
X0016205Y0205916D01*
X0015138Y0201606D02*
X0016205Y0200538D01*
X0016205Y0198403D01*
X0015138Y0197335D01*
X0014070Y0197335D01*
X0013003Y0198403D01*
X0013003Y0200538D01*
X0011935Y0201606D01*
X0010868Y0201606D01*
X0009800Y0200538D01*
X0009800Y0198403D01*
X0010868Y0197335D01*
X0009800Y0195160D02*
X0009800Y0190890D01*
X0016205Y0190890D01*
X0016205Y0195160D01*
X0013003Y0193025D02*
X0013003Y0190890D01*
X0015138Y0188715D02*
X0016205Y0187647D01*
X0016205Y0184444D01*
X0009800Y0184444D01*
X0009800Y0187647D01*
X0010868Y0188715D01*
X0015138Y0188715D01*
X0015138Y0175824D02*
X0016205Y0175824D01*
X0015138Y0175824D02*
X0013003Y0173688D01*
X0009800Y0173688D01*
X0013003Y0173688D02*
X0015138Y0171553D01*
X0016205Y0171553D01*
X0009800Y0169378D02*
X0009800Y0165108D01*
X0016205Y0165108D01*
X0015138Y0162933D02*
X0016205Y0161865D01*
X0016205Y0158662D01*
X0009800Y0158662D01*
X0009800Y0161865D01*
X0010868Y0162933D01*
X0015138Y0162933D01*
X0016205Y0156487D02*
X0010868Y0156487D01*
X0009800Y0155419D01*
X0009800Y0153284D01*
X0010868Y0152217D01*
X0016205Y0152217D01*
X0015138Y0150042D02*
X0010868Y0150042D01*
X0009800Y0148974D01*
X0009800Y0146839D01*
X0010868Y0145771D01*
X0015138Y0145771D01*
X0016205Y0146839D01*
X0016205Y0148974D01*
X0015138Y0150042D01*
X0015138Y0143596D02*
X0013003Y0143596D01*
X0011935Y0142528D01*
X0011935Y0139326D01*
X0011935Y0141461D02*
X0009800Y0143596D01*
X0009800Y0139326D02*
X0016205Y0139326D01*
X0016205Y0142528D01*
X0015138Y0143596D01*
X0015138Y0137151D02*
X0013003Y0137151D01*
X0011935Y0136083D01*
X0011935Y0132880D01*
X0009800Y0132880D02*
X0016205Y0132880D01*
X0016205Y0136083D01*
X0015138Y0137151D01*
X0013003Y0283275D02*
X0013003Y0287545D01*
D12*
X0192450Y0333293D02*
X0192450Y0334794D01*
X0193201Y0335545D01*
X0192450Y0337146D02*
X0192450Y0340149D01*
X0192450Y0338647D02*
X0196954Y0338647D01*
X0195453Y0337146D01*
X0196203Y0335545D02*
X0196954Y0334794D01*
X0196954Y0333293D01*
X0196203Y0332542D01*
X0193201Y0332542D01*
X0192450Y0333293D01*
X0123893Y0352050D02*
X0120890Y0355053D01*
X0120890Y0355803D01*
X0121641Y0356554D01*
X0123142Y0356554D01*
X0123893Y0355803D01*
X0123893Y0352050D02*
X0120890Y0352050D01*
X0119289Y0354302D02*
X0116286Y0354302D01*
X0114685Y0353551D02*
X0113183Y0352050D01*
X0111682Y0353551D01*
X0111682Y0356554D01*
X0114685Y0356554D02*
X0114685Y0353551D01*
X0117037Y0352050D02*
X0117037Y0356554D01*
X0119289Y0354302D01*
X0123590Y0374250D02*
X0126593Y0374250D01*
X0125091Y0374250D02*
X0125091Y0378754D01*
X0126593Y0377253D01*
X0107093Y0378003D02*
X0106342Y0378754D01*
X0104841Y0378754D01*
X0104090Y0378003D01*
X0104090Y0377253D01*
X0107093Y0374250D01*
X0104090Y0374250D01*
X0276950Y0339398D02*
X0276950Y0337897D01*
X0277701Y0337146D01*
X0277701Y0335545D02*
X0276950Y0334794D01*
X0276950Y0333293D01*
X0277701Y0332542D01*
X0280703Y0332542D01*
X0281454Y0333293D01*
X0281454Y0334794D01*
X0280703Y0335545D01*
X0280703Y0337146D02*
X0281454Y0337897D01*
X0281454Y0339398D01*
X0280703Y0340149D01*
X0279953Y0340149D01*
X0279202Y0339398D01*
X0278451Y0340149D01*
X0277701Y0340149D01*
X0276950Y0339398D01*
X0279202Y0339398D02*
X0279202Y0338647D01*
X0382000Y0342000D02*
X0393500Y0342500D01*
X0394500Y0343500D01*
X0394500Y0380500D01*
X0393500Y0381500D01*
X0382000Y0382000D01*
X0391100Y0379700D02*
X0391102Y0379763D01*
X0391108Y0379825D01*
X0391118Y0379887D01*
X0391131Y0379949D01*
X0391149Y0380009D01*
X0391170Y0380068D01*
X0391195Y0380126D01*
X0391224Y0380182D01*
X0391256Y0380236D01*
X0391291Y0380288D01*
X0391329Y0380337D01*
X0391371Y0380385D01*
X0391415Y0380429D01*
X0391463Y0380471D01*
X0391512Y0380509D01*
X0391564Y0380544D01*
X0391618Y0380576D01*
X0391674Y0380605D01*
X0391732Y0380630D01*
X0391791Y0380651D01*
X0391851Y0380669D01*
X0391913Y0380682D01*
X0391975Y0380692D01*
X0392037Y0380698D01*
X0392100Y0380700D01*
X0392163Y0380698D01*
X0392225Y0380692D01*
X0392287Y0380682D01*
X0392349Y0380669D01*
X0392409Y0380651D01*
X0392468Y0380630D01*
X0392526Y0380605D01*
X0392582Y0380576D01*
X0392636Y0380544D01*
X0392688Y0380509D01*
X0392737Y0380471D01*
X0392785Y0380429D01*
X0392829Y0380385D01*
X0392871Y0380337D01*
X0392909Y0380288D01*
X0392944Y0380236D01*
X0392976Y0380182D01*
X0393005Y0380126D01*
X0393030Y0380068D01*
X0393051Y0380009D01*
X0393069Y0379949D01*
X0393082Y0379887D01*
X0393092Y0379825D01*
X0393098Y0379763D01*
X0393100Y0379700D01*
X0393098Y0379637D01*
X0393092Y0379575D01*
X0393082Y0379513D01*
X0393069Y0379451D01*
X0393051Y0379391D01*
X0393030Y0379332D01*
X0393005Y0379274D01*
X0392976Y0379218D01*
X0392944Y0379164D01*
X0392909Y0379112D01*
X0392871Y0379063D01*
X0392829Y0379015D01*
X0392785Y0378971D01*
X0392737Y0378929D01*
X0392688Y0378891D01*
X0392636Y0378856D01*
X0392582Y0378824D01*
X0392526Y0378795D01*
X0392468Y0378770D01*
X0392409Y0378749D01*
X0392349Y0378731D01*
X0392287Y0378718D01*
X0392225Y0378708D01*
X0392163Y0378702D01*
X0392100Y0378700D01*
X0392037Y0378702D01*
X0391975Y0378708D01*
X0391913Y0378718D01*
X0391851Y0378731D01*
X0391791Y0378749D01*
X0391732Y0378770D01*
X0391674Y0378795D01*
X0391618Y0378824D01*
X0391564Y0378856D01*
X0391512Y0378891D01*
X0391463Y0378929D01*
X0391415Y0378971D01*
X0391371Y0379015D01*
X0391329Y0379063D01*
X0391291Y0379112D01*
X0391256Y0379164D01*
X0391224Y0379218D01*
X0391195Y0379274D01*
X0391170Y0379332D01*
X0391149Y0379391D01*
X0391131Y0379451D01*
X0391118Y0379513D01*
X0391108Y0379575D01*
X0391102Y0379637D01*
X0391100Y0379700D01*
X0396550Y0379147D02*
X0401054Y0379147D01*
X0399553Y0377646D01*
X0400303Y0376045D02*
X0401054Y0375294D01*
X0401054Y0373793D01*
X0400303Y0373042D01*
X0397301Y0373042D01*
X0396550Y0373793D01*
X0396550Y0375294D01*
X0397301Y0376045D01*
X0396550Y0377646D02*
X0396550Y0380649D01*
X0396550Y0371474D02*
X0396550Y0369973D01*
X0396550Y0370723D02*
X0401054Y0370723D01*
X0401054Y0369973D02*
X0401054Y0371474D01*
X0445590Y0371250D02*
X0448593Y0371250D01*
X0445590Y0374253D01*
X0445590Y0375003D01*
X0446341Y0375754D01*
X0447842Y0375754D01*
X0448593Y0375003D01*
X0465090Y0371250D02*
X0468093Y0371250D01*
X0466591Y0371250D02*
X0466591Y0375754D01*
X0468093Y0374253D01*
X0463891Y0353554D02*
X0463891Y0349050D01*
X0462390Y0349050D02*
X0465393Y0349050D01*
X0465393Y0352053D02*
X0463891Y0353554D01*
X0460789Y0352803D02*
X0460038Y0353554D01*
X0458537Y0353554D01*
X0457786Y0352803D01*
X0457786Y0352053D01*
X0460789Y0349050D01*
X0457786Y0349050D01*
X0456185Y0350551D02*
X0454683Y0349050D01*
X0453182Y0350551D01*
X0453182Y0353554D01*
X0456185Y0353554D02*
X0456185Y0350551D01*
X0868247Y0377501D02*
X0868998Y0376750D01*
X0870499Y0376750D01*
X0871250Y0377501D01*
X0871250Y0378251D01*
X0870499Y0379002D01*
X0868998Y0379002D01*
X0868247Y0378251D01*
X0868247Y0377501D01*
X0868998Y0379002D02*
X0868247Y0379753D01*
X0868247Y0380503D01*
X0868998Y0381254D01*
X0870499Y0381254D01*
X0871250Y0380503D01*
X0871250Y0379753D01*
X0870499Y0379002D01*
X0894040Y0376750D02*
X0897042Y0376750D01*
X0895541Y0376750D02*
X0895541Y0381254D01*
X0897042Y0379753D01*
X0898644Y0378251D02*
X0898644Y0381254D01*
X0901646Y0381254D02*
X0901646Y0378251D01*
X0900145Y0376750D01*
X0898644Y0378251D01*
X0903247Y0378251D02*
X0903247Y0377501D01*
X0903998Y0376750D01*
X0905499Y0376750D01*
X0906250Y0377501D01*
X0905499Y0379002D02*
X0903998Y0379002D01*
X0903247Y0378251D01*
X0903247Y0380503D02*
X0903998Y0381254D01*
X0905499Y0381254D01*
X0906250Y0380503D01*
X0906250Y0379753D01*
X0905499Y0379002D01*
X0901749Y0353254D02*
X0901749Y0348750D01*
X0903250Y0348750D02*
X0900247Y0348750D01*
X0903250Y0351753D02*
X0901749Y0353254D01*
D13*
X0292500Y0357750D03*
X0208000Y0357750D03*
D14*
X0379000Y0362000D03*
D15*
X0381500Y0344750D03*
X0381500Y0379250D03*
D16*
X0381500Y0367000D03*
X0381500Y0357000D03*
D17*
X0435200Y0308710D02*
X0435200Y0307175D01*
X0435967Y0306408D01*
X0439037Y0309477D01*
X0435967Y0309477D01*
X0435200Y0308710D01*
X0435967Y0306408D02*
X0439037Y0306408D01*
X0439804Y0307175D01*
X0439804Y0308710D01*
X0439037Y0309477D01*
X0435200Y0304873D02*
X0435200Y0301804D01*
X0435200Y0303339D02*
X0439804Y0303339D01*
X0438269Y0301804D01*
X0439037Y0300269D02*
X0439804Y0299502D01*
X0439804Y0297967D01*
X0439037Y0297200D01*
X0435967Y0297200D01*
X0435200Y0297967D01*
X0435200Y0299502D01*
X0435967Y0300269D01*
X0422804Y0299502D02*
X0422804Y0297967D01*
X0422037Y0297200D01*
X0418967Y0297200D01*
X0418200Y0297967D01*
X0418200Y0299502D01*
X0418967Y0300269D01*
X0418967Y0301804D02*
X0418200Y0302571D01*
X0418200Y0304106D01*
X0418967Y0304873D01*
X0422037Y0304873D01*
X0422804Y0304106D01*
X0422804Y0302571D01*
X0422037Y0301804D01*
X0421269Y0301804D01*
X0420502Y0302571D01*
X0420502Y0304873D01*
X0422037Y0300269D02*
X0422804Y0299502D01*
X0337804Y0299967D02*
X0337037Y0299200D01*
X0333967Y0299200D01*
X0333200Y0299967D01*
X0333200Y0301502D01*
X0333967Y0302269D01*
X0333967Y0303804D02*
X0334735Y0303804D01*
X0335502Y0304571D01*
X0335502Y0306106D01*
X0334735Y0306873D01*
X0333967Y0306873D01*
X0333200Y0306106D01*
X0333200Y0304571D01*
X0333967Y0303804D01*
X0335502Y0304571D02*
X0336269Y0303804D01*
X0337037Y0303804D01*
X0337804Y0304571D01*
X0337804Y0306106D01*
X0337037Y0306873D01*
X0336269Y0306873D01*
X0335502Y0306106D01*
X0337037Y0302269D02*
X0337804Y0301502D01*
X0337804Y0299967D01*
X0321804Y0299967D02*
X0321804Y0301502D01*
X0321037Y0302269D01*
X0321804Y0303804D02*
X0321804Y0306873D01*
X0321037Y0306873D01*
X0317967Y0303804D01*
X0317200Y0303804D01*
X0317967Y0302269D02*
X0317200Y0301502D01*
X0317200Y0299967D01*
X0317967Y0299200D01*
X0321037Y0299200D01*
X0321804Y0299967D01*
X0231804Y0299502D02*
X0231804Y0297967D01*
X0231037Y0297200D01*
X0227967Y0297200D01*
X0227200Y0297967D01*
X0227200Y0299502D01*
X0227967Y0300269D01*
X0227967Y0301804D02*
X0227200Y0302571D01*
X0227200Y0304106D01*
X0227967Y0304873D01*
X0228735Y0304873D01*
X0229502Y0304106D01*
X0229502Y0301804D01*
X0227967Y0301804D01*
X0229502Y0301804D02*
X0231037Y0303339D01*
X0231804Y0304873D01*
X0231037Y0300269D02*
X0231804Y0299502D01*
X0197804Y0298759D02*
X0197037Y0297992D01*
X0193967Y0297992D01*
X0193200Y0298759D01*
X0193200Y0300294D01*
X0193967Y0301061D01*
X0193200Y0302596D02*
X0196269Y0305665D01*
X0197037Y0305665D01*
X0197804Y0304898D01*
X0197804Y0303363D01*
X0197037Y0302596D01*
X0197037Y0301061D02*
X0197804Y0300294D01*
X0197804Y0298759D01*
X0193200Y0302596D02*
X0193200Y0305665D01*
X0129804Y0303606D02*
X0127502Y0301304D01*
X0127502Y0304373D01*
X0125200Y0303606D02*
X0129804Y0303606D01*
X0129037Y0299769D02*
X0129804Y0299002D01*
X0129804Y0297467D01*
X0129037Y0296700D01*
X0125967Y0296700D01*
X0125200Y0297467D01*
X0125200Y0299002D01*
X0125967Y0299769D01*
X0095304Y0299794D02*
X0095304Y0298259D01*
X0094537Y0297492D01*
X0091467Y0297492D01*
X0090700Y0298259D01*
X0090700Y0299794D01*
X0091467Y0300561D01*
X0091467Y0302096D02*
X0090700Y0302863D01*
X0090700Y0304398D01*
X0091467Y0305165D01*
X0093002Y0305165D01*
X0093769Y0304398D01*
X0093769Y0303631D01*
X0093002Y0302096D01*
X0095304Y0302096D01*
X0095304Y0305165D01*
X0094537Y0300561D02*
X0095304Y0299794D01*
X0520200Y0300002D02*
X0520967Y0300769D01*
X0520200Y0300002D02*
X0520200Y0298467D01*
X0520967Y0297700D01*
X0524037Y0297700D01*
X0524804Y0298467D01*
X0524804Y0300002D01*
X0524037Y0300769D01*
X0523269Y0302304D02*
X0524804Y0303839D01*
X0520200Y0303839D01*
X0520200Y0305373D02*
X0520200Y0302304D01*
X0520200Y0306908D02*
X0520200Y0309977D01*
X0520200Y0308442D02*
X0524804Y0308442D01*
X0523269Y0306908D01*
X0538200Y0306408D02*
X0541269Y0309477D01*
X0542037Y0309477D01*
X0542804Y0308710D01*
X0542804Y0307175D01*
X0542037Y0306408D01*
X0542804Y0303339D02*
X0538200Y0303339D01*
X0538200Y0304873D02*
X0538200Y0301804D01*
X0538967Y0300269D02*
X0538200Y0299502D01*
X0538200Y0297967D01*
X0538967Y0297200D01*
X0542037Y0297200D01*
X0542804Y0297967D01*
X0542804Y0299502D01*
X0542037Y0300269D01*
X0541269Y0301804D02*
X0542804Y0303339D01*
X0538200Y0306408D02*
X0538200Y0309477D01*
X0625200Y0309710D02*
X0625200Y0308175D01*
X0625967Y0307408D01*
X0625200Y0305873D02*
X0625200Y0302804D01*
X0625200Y0304339D02*
X0629804Y0304339D01*
X0628269Y0302804D01*
X0629037Y0301269D02*
X0629804Y0300502D01*
X0629804Y0298967D01*
X0629037Y0298200D01*
X0625967Y0298200D01*
X0625200Y0298967D01*
X0625200Y0300502D01*
X0625967Y0301269D01*
X0629037Y0307408D02*
X0629804Y0308175D01*
X0629804Y0309710D01*
X0629037Y0310477D01*
X0628269Y0310477D01*
X0627502Y0309710D01*
X0626735Y0310477D01*
X0625967Y0310477D01*
X0625200Y0309710D01*
X0627502Y0309710D02*
X0627502Y0308942D01*
X0642700Y0310210D02*
X0647304Y0310210D01*
X0645002Y0307908D01*
X0645002Y0310977D01*
X0642700Y0306373D02*
X0642700Y0303304D01*
X0642700Y0304839D02*
X0647304Y0304839D01*
X0645769Y0303304D01*
X0646537Y0301769D02*
X0647304Y0301002D01*
X0647304Y0299467D01*
X0646537Y0298700D01*
X0643467Y0298700D01*
X0642700Y0299467D01*
X0642700Y0301002D01*
X0643467Y0301769D01*
X0733700Y0301804D02*
X0733700Y0304873D01*
X0733700Y0303339D02*
X0738304Y0303339D01*
X0736769Y0301804D01*
X0737537Y0300269D02*
X0738304Y0299502D01*
X0738304Y0297967D01*
X0737537Y0297200D01*
X0734467Y0297200D01*
X0733700Y0297967D01*
X0733700Y0299502D01*
X0734467Y0300269D01*
X0734467Y0306408D02*
X0733700Y0307175D01*
X0733700Y0308710D01*
X0734467Y0309477D01*
X0736002Y0309477D01*
X0736769Y0308710D01*
X0736769Y0307942D01*
X0736002Y0306408D01*
X0738304Y0306408D01*
X0738304Y0309477D01*
X0751700Y0308710D02*
X0751700Y0307175D01*
X0752467Y0306408D01*
X0754002Y0306408D01*
X0754002Y0308710D01*
X0753235Y0309477D01*
X0752467Y0309477D01*
X0751700Y0308710D01*
X0754002Y0306408D02*
X0755537Y0307942D01*
X0756304Y0309477D01*
X0751700Y0304873D02*
X0751700Y0301804D01*
X0751700Y0303339D02*
X0756304Y0303339D01*
X0754769Y0301804D01*
X0755537Y0300269D02*
X0756304Y0299502D01*
X0756304Y0297967D01*
X0755537Y0297200D01*
X0752467Y0297200D01*
X0751700Y0297967D01*
X0751700Y0299502D01*
X0752467Y0300269D01*
X0836700Y0300502D02*
X0836700Y0298967D01*
X0837467Y0298200D01*
X0840537Y0298200D01*
X0841304Y0298967D01*
X0841304Y0300502D01*
X0840537Y0301269D01*
X0839769Y0302804D02*
X0841304Y0304339D01*
X0836700Y0304339D01*
X0836700Y0305873D02*
X0836700Y0302804D01*
X0837467Y0301269D02*
X0836700Y0300502D01*
X0836700Y0307408D02*
X0837467Y0307408D01*
X0840537Y0310477D01*
X0841304Y0310477D01*
X0841304Y0307408D01*
X0855700Y0308175D02*
X0855700Y0309710D01*
X0856467Y0310477D01*
X0857235Y0310477D01*
X0858002Y0309710D01*
X0858002Y0308175D01*
X0858769Y0307408D01*
X0859537Y0307408D01*
X0860304Y0308175D01*
X0860304Y0309710D01*
X0859537Y0310477D01*
X0858769Y0310477D01*
X0858002Y0309710D01*
X0858002Y0308175D02*
X0857235Y0307408D01*
X0856467Y0307408D01*
X0855700Y0308175D01*
X0855700Y0305873D02*
X0855700Y0302804D01*
X0855700Y0304339D02*
X0860304Y0304339D01*
X0858769Y0302804D01*
X0859537Y0301269D02*
X0860304Y0300502D01*
X0860304Y0298967D01*
X0859537Y0298200D01*
X0856467Y0298200D01*
X0855700Y0298967D01*
X0855700Y0300502D01*
X0856467Y0301269D01*
X0943700Y0301002D02*
X0943700Y0299467D01*
X0944467Y0298700D01*
X0947537Y0298700D01*
X0948304Y0299467D01*
X0948304Y0301002D01*
X0947537Y0301769D01*
X0946769Y0303304D02*
X0948304Y0304839D01*
X0943700Y0304839D01*
X0943700Y0306373D02*
X0943700Y0303304D01*
X0944467Y0301769D02*
X0943700Y0301002D01*
X0944467Y0307908D02*
X0943700Y0308675D01*
X0943700Y0310210D01*
X0944467Y0310977D01*
X0947537Y0310977D01*
X0948304Y0310210D01*
X0948304Y0308675D01*
X0947537Y0307908D01*
X0946769Y0307908D01*
X0946002Y0308675D01*
X0946002Y0310977D01*
X0962200Y0309710D02*
X0962200Y0308175D01*
X0962967Y0307408D01*
X0966037Y0310477D01*
X0962967Y0310477D01*
X0962200Y0309710D01*
X0962967Y0307408D02*
X0966037Y0307408D01*
X0966804Y0308175D01*
X0966804Y0309710D01*
X0966037Y0310477D01*
X0966037Y0305873D02*
X0966804Y0305106D01*
X0966804Y0303571D01*
X0966037Y0302804D01*
X0966037Y0301269D02*
X0966804Y0300502D01*
X0966804Y0298967D01*
X0966037Y0298200D01*
X0962967Y0298200D01*
X0962200Y0298967D01*
X0962200Y0300502D01*
X0962967Y0301269D01*
X0962200Y0302804D02*
X0965269Y0305873D01*
X0966037Y0305873D01*
X0962200Y0305873D02*
X0962200Y0302804D01*
X1040200Y0303304D02*
X1043269Y0306373D01*
X1044037Y0306373D01*
X1044804Y0305606D01*
X1044804Y0304071D01*
X1044037Y0303304D01*
X1044037Y0301769D02*
X1044804Y0301002D01*
X1044804Y0299467D01*
X1044037Y0298700D01*
X1040967Y0298700D01*
X1040200Y0299467D01*
X1040200Y0301002D01*
X1040967Y0301769D01*
X1040200Y0303304D02*
X1040200Y0306373D01*
X1040200Y0307908D02*
X1040200Y0310977D01*
X1040200Y0309442D02*
X1044804Y0309442D01*
X1043269Y0307908D01*
X1056200Y0308408D02*
X1059269Y0311477D01*
X1060037Y0311477D01*
X1060804Y0310710D01*
X1060804Y0309175D01*
X1060037Y0308408D01*
X1060037Y0306873D02*
X1060804Y0306106D01*
X1060804Y0304571D01*
X1060037Y0303804D01*
X1060037Y0302269D02*
X1060804Y0301502D01*
X1060804Y0299967D01*
X1060037Y0299200D01*
X1056967Y0299200D01*
X1056200Y0299967D01*
X1056200Y0301502D01*
X1056967Y0302269D01*
X1056200Y0303804D02*
X1059269Y0306873D01*
X1060037Y0306873D01*
X1056200Y0306873D02*
X1056200Y0303804D01*
X1056200Y0308408D02*
X1056200Y0311477D01*
X0806300Y0379700D02*
X0803231Y0379700D01*
X0801696Y0379700D02*
X0798627Y0379700D01*
X0797092Y0379700D02*
X0794790Y0379700D01*
X0794023Y0380467D01*
X0794023Y0383537D01*
X0794790Y0384304D01*
X0797092Y0384304D01*
X0797092Y0379700D01*
X0800161Y0382002D02*
X0801696Y0382002D01*
X0801696Y0384304D02*
X0801696Y0379700D01*
X0801696Y0384304D02*
X0798627Y0384304D01*
X0792488Y0382769D02*
X0790954Y0384304D01*
X0790954Y0379700D01*
X0792488Y0379700D02*
X0789419Y0379700D01*
X0806300Y0379700D02*
X0806300Y0384304D01*
X0761300Y0384304D02*
X0761300Y0379700D01*
X0761300Y0381235D02*
X0758998Y0381235D01*
X0758231Y0382002D01*
X0758231Y0383537D01*
X0758998Y0384304D01*
X0761300Y0384304D01*
X0759765Y0381235D02*
X0758231Y0379700D01*
X0756696Y0379700D02*
X0753627Y0379700D01*
X0755161Y0379700D02*
X0755161Y0384304D01*
X0756696Y0382769D01*
X0745537Y0106977D02*
X0746304Y0106210D01*
X0746304Y0104675D01*
X0745537Y0103908D01*
X0744769Y0103908D01*
X0744002Y0104675D01*
X0744002Y0106977D01*
X0742467Y0106977D02*
X0745537Y0106977D01*
X0742467Y0106977D02*
X0741700Y0106210D01*
X0741700Y0104675D01*
X0742467Y0103908D01*
X0741700Y0102373D02*
X0741700Y0099304D01*
X0744769Y0102373D01*
X0745537Y0102373D01*
X0746304Y0101606D01*
X0746304Y0100071D01*
X0745537Y0099304D01*
X0745537Y0097769D02*
X0746304Y0097002D01*
X0746304Y0095467D01*
X0745537Y0094700D01*
X0742467Y0094700D01*
X0741700Y0095467D01*
X0741700Y0097002D01*
X0742467Y0097769D01*
X0641304Y0097002D02*
X0641304Y0095467D01*
X0640537Y0094700D01*
X0637467Y0094700D01*
X0636700Y0095467D01*
X0636700Y0097002D01*
X0637467Y0097769D01*
X0636700Y0099304D02*
X0639769Y0102373D01*
X0640537Y0102373D01*
X0641304Y0101606D01*
X0641304Y0100071D01*
X0640537Y0099304D01*
X0640537Y0097769D02*
X0641304Y0097002D01*
X0636700Y0099304D02*
X0636700Y0102373D01*
X0637467Y0103908D02*
X0638235Y0103908D01*
X0639002Y0104675D01*
X0639002Y0106210D01*
X0638235Y0106977D01*
X0637467Y0106977D01*
X0636700Y0106210D01*
X0636700Y0104675D01*
X0637467Y0103908D01*
X0639002Y0104675D02*
X0639769Y0103908D01*
X0640537Y0103908D01*
X0641304Y0104675D01*
X0641304Y0106210D01*
X0640537Y0106977D01*
X0639769Y0106977D01*
X0639002Y0106210D01*
X0536304Y0106977D02*
X0536304Y0103908D01*
X0535537Y0102373D02*
X0536304Y0101606D01*
X0536304Y0100071D01*
X0535537Y0099304D01*
X0535537Y0097769D02*
X0536304Y0097002D01*
X0536304Y0095467D01*
X0535537Y0094700D01*
X0532467Y0094700D01*
X0531700Y0095467D01*
X0531700Y0097002D01*
X0532467Y0097769D01*
X0531700Y0099304D02*
X0534769Y0102373D01*
X0535537Y0102373D01*
X0532467Y0103908D02*
X0531700Y0103908D01*
X0532467Y0103908D02*
X0535537Y0106977D01*
X0536304Y0106977D01*
X0531700Y0102373D02*
X0531700Y0099304D01*
X0431304Y0100071D02*
X0430537Y0099304D01*
X0431304Y0100071D02*
X0431304Y0101606D01*
X0430537Y0102373D01*
X0429769Y0102373D01*
X0426700Y0099304D01*
X0426700Y0102373D01*
X0427467Y0103908D02*
X0426700Y0104675D01*
X0426700Y0106210D01*
X0427467Y0106977D01*
X0428235Y0106977D01*
X0429002Y0106210D01*
X0429002Y0103908D01*
X0427467Y0103908D01*
X0429002Y0103908D02*
X0430537Y0105442D01*
X0431304Y0106977D01*
X0430537Y0097769D02*
X0431304Y0097002D01*
X0431304Y0095467D01*
X0430537Y0094700D01*
X0427467Y0094700D01*
X0426700Y0095467D01*
X0426700Y0097002D01*
X0427467Y0097769D01*
X0326304Y0097002D02*
X0326304Y0095467D01*
X0325537Y0094700D01*
X0322467Y0094700D01*
X0321700Y0095467D01*
X0321700Y0097002D01*
X0322467Y0097769D01*
X0321700Y0099304D02*
X0324769Y0102373D01*
X0325537Y0102373D01*
X0326304Y0101606D01*
X0326304Y0100071D01*
X0325537Y0099304D01*
X0325537Y0097769D02*
X0326304Y0097002D01*
X0321700Y0099304D02*
X0321700Y0102373D01*
X0322467Y0103908D02*
X0321700Y0104675D01*
X0321700Y0106210D01*
X0322467Y0106977D01*
X0324002Y0106977D01*
X0324769Y0106210D01*
X0324769Y0105442D01*
X0324002Y0103908D01*
X0326304Y0103908D01*
X0326304Y0106977D01*
X0221304Y0106210D02*
X0219002Y0103908D01*
X0219002Y0106977D01*
X0216700Y0106210D02*
X0221304Y0106210D01*
X0220537Y0102373D02*
X0221304Y0101606D01*
X0221304Y0100071D01*
X0220537Y0099304D01*
X0220537Y0097769D02*
X0221304Y0097002D01*
X0221304Y0095467D01*
X0220537Y0094700D01*
X0217467Y0094700D01*
X0216700Y0095467D01*
X0216700Y0097002D01*
X0217467Y0097769D01*
X0216700Y0099304D02*
X0219769Y0102373D01*
X0220537Y0102373D01*
X0216700Y0102373D02*
X0216700Y0099304D01*
X0116304Y0100071D02*
X0115537Y0099304D01*
X0116304Y0100071D02*
X0116304Y0101606D01*
X0115537Y0102373D01*
X0114769Y0102373D01*
X0111700Y0099304D01*
X0111700Y0102373D01*
X0112467Y0103908D02*
X0111700Y0104675D01*
X0111700Y0106210D01*
X0112467Y0106977D01*
X0113235Y0106977D01*
X0114002Y0106210D01*
X0114002Y0105442D01*
X0114002Y0106210D02*
X0114769Y0106977D01*
X0115537Y0106977D01*
X0116304Y0106210D01*
X0116304Y0104675D01*
X0115537Y0103908D01*
X0115537Y0097769D02*
X0116304Y0097002D01*
X0116304Y0095467D01*
X0115537Y0094700D01*
X0112467Y0094700D01*
X0111700Y0095467D01*
X0111700Y0097002D01*
X0112467Y0097769D01*
X0846700Y0097002D02*
X0846700Y0095467D01*
X0847467Y0094700D01*
X0850537Y0094700D01*
X0851304Y0095467D01*
X0851304Y0097002D01*
X0850537Y0097769D01*
X0850537Y0099304D02*
X0851304Y0100071D01*
X0851304Y0101606D01*
X0850537Y0102373D01*
X0849769Y0102373D01*
X0849002Y0101606D01*
X0848235Y0102373D01*
X0847467Y0102373D01*
X0846700Y0101606D01*
X0846700Y0100071D01*
X0847467Y0099304D01*
X0847467Y0097769D02*
X0846700Y0097002D01*
X0849002Y0100839D02*
X0849002Y0101606D01*
X0850537Y0103908D02*
X0851304Y0104675D01*
X0851304Y0106210D01*
X0850537Y0106977D01*
X0847467Y0103908D01*
X0846700Y0104675D01*
X0846700Y0106210D01*
X0847467Y0106977D01*
X0850537Y0106977D01*
X0850537Y0103908D02*
X0847467Y0103908D01*
X0951700Y0103908D02*
X0951700Y0106977D01*
X0951700Y0105442D02*
X0956304Y0105442D01*
X0954769Y0103908D01*
X0954769Y0102373D02*
X0954002Y0101606D01*
X0953235Y0102373D01*
X0952467Y0102373D01*
X0951700Y0101606D01*
X0951700Y0100071D01*
X0952467Y0099304D01*
X0952467Y0097769D02*
X0951700Y0097002D01*
X0951700Y0095467D01*
X0952467Y0094700D01*
X0955537Y0094700D01*
X0956304Y0095467D01*
X0956304Y0097002D01*
X0955537Y0097769D01*
X0955537Y0099304D02*
X0956304Y0100071D01*
X0956304Y0101606D01*
X0955537Y0102373D01*
X0954769Y0102373D01*
X0954002Y0101606D02*
X0954002Y0100839D01*
X1056700Y0101606D02*
X1056700Y0100071D01*
X1057467Y0099304D01*
X1057467Y0097769D02*
X1056700Y0097002D01*
X1056700Y0095467D01*
X1057467Y0094700D01*
X1060537Y0094700D01*
X1061304Y0095467D01*
X1061304Y0097002D01*
X1060537Y0097769D01*
X1060537Y0099304D02*
X1061304Y0100071D01*
X1061304Y0101606D01*
X1060537Y0102373D01*
X1059769Y0102373D01*
X1059002Y0101606D01*
X1058235Y0102373D01*
X1057467Y0102373D01*
X1056700Y0101606D01*
X1056700Y0103908D02*
X1059769Y0106977D01*
X1060537Y0106977D01*
X1061304Y0106210D01*
X1061304Y0104675D01*
X1060537Y0103908D01*
X1059002Y0101606D02*
X1059002Y0100839D01*
X1056700Y0103908D02*
X1056700Y0106977D01*
D18*
X0803784Y0376604D02*
X0803518Y0376361D01*
X0803518Y0376362D02*
X0803447Y0376436D01*
X0803373Y0376508D01*
X0803296Y0376577D01*
X0803217Y0376643D01*
X0803136Y0376706D01*
X0803052Y0376766D01*
X0802966Y0376822D01*
X0802877Y0376876D01*
X0802787Y0376926D01*
X0802695Y0376972D01*
X0802602Y0377015D01*
X0802507Y0377055D01*
X0802410Y0377091D01*
X0802312Y0377123D01*
X0802213Y0377152D01*
X0802113Y0377177D01*
X0802012Y0377198D01*
X0801911Y0377215D01*
X0801809Y0377229D01*
X0801706Y0377238D01*
X0801603Y0377244D01*
X0801500Y0377246D01*
X0801397Y0377244D01*
X0801294Y0377238D01*
X0801191Y0377229D01*
X0801089Y0377215D01*
X0800988Y0377198D01*
X0800887Y0377177D01*
X0800787Y0377152D01*
X0800688Y0377123D01*
X0800590Y0377091D01*
X0800493Y0377055D01*
X0800398Y0377015D01*
X0800305Y0376972D01*
X0800213Y0376926D01*
X0800123Y0376876D01*
X0800034Y0376822D01*
X0799948Y0376766D01*
X0799864Y0376706D01*
X0799783Y0376643D01*
X0799704Y0376577D01*
X0799627Y0376508D01*
X0799553Y0376436D01*
X0799482Y0376362D01*
X0799216Y0376604D01*
X0799215Y0376604D01*
X0799291Y0376683D01*
X0799369Y0376759D01*
X0799450Y0376833D01*
X0799533Y0376904D01*
X0799619Y0376971D01*
X0799707Y0377036D01*
X0799797Y0377097D01*
X0799889Y0377156D01*
X0799984Y0377211D01*
X0800080Y0377262D01*
X0800178Y0377311D01*
X0800278Y0377355D01*
X0800379Y0377397D01*
X0800481Y0377434D01*
X0800585Y0377468D01*
X0800690Y0377499D01*
X0800796Y0377525D01*
X0800903Y0377548D01*
X0801010Y0377567D01*
X0801119Y0377582D01*
X0801227Y0377594D01*
X0801336Y0377602D01*
X0801445Y0377606D01*
X0801555Y0377606D01*
X0801664Y0377602D01*
X0801773Y0377594D01*
X0801881Y0377582D01*
X0801990Y0377567D01*
X0802097Y0377548D01*
X0802204Y0377525D01*
X0802310Y0377499D01*
X0802415Y0377468D01*
X0802519Y0377434D01*
X0802621Y0377397D01*
X0802722Y0377355D01*
X0802822Y0377311D01*
X0802920Y0377262D01*
X0803016Y0377211D01*
X0803111Y0377156D01*
X0803203Y0377097D01*
X0803293Y0377036D01*
X0803381Y0376971D01*
X0803467Y0376904D01*
X0803550Y0376833D01*
X0803631Y0376759D01*
X0803709Y0376683D01*
X0803785Y0376604D01*
X0803757Y0376579D01*
X0803683Y0376657D01*
X0803606Y0376733D01*
X0803526Y0376805D01*
X0803444Y0376875D01*
X0803359Y0376942D01*
X0803272Y0377006D01*
X0803183Y0377067D01*
X0803091Y0377124D01*
X0802998Y0377179D01*
X0802903Y0377230D01*
X0802806Y0377277D01*
X0802708Y0377321D01*
X0802608Y0377362D01*
X0802506Y0377399D01*
X0802404Y0377433D01*
X0802300Y0377463D01*
X0802195Y0377489D01*
X0802090Y0377512D01*
X0801984Y0377531D01*
X0801877Y0377546D01*
X0801769Y0377557D01*
X0801662Y0377565D01*
X0801554Y0377569D01*
X0801446Y0377569D01*
X0801338Y0377565D01*
X0801231Y0377557D01*
X0801123Y0377546D01*
X0801016Y0377531D01*
X0800910Y0377512D01*
X0800805Y0377489D01*
X0800700Y0377463D01*
X0800596Y0377433D01*
X0800494Y0377399D01*
X0800392Y0377362D01*
X0800292Y0377321D01*
X0800194Y0377277D01*
X0800097Y0377230D01*
X0800002Y0377179D01*
X0799909Y0377124D01*
X0799817Y0377067D01*
X0799728Y0377006D01*
X0799641Y0376942D01*
X0799556Y0376875D01*
X0799474Y0376805D01*
X0799394Y0376733D01*
X0799317Y0376657D01*
X0799243Y0376579D01*
X0799270Y0376554D01*
X0799345Y0376633D01*
X0799423Y0376709D01*
X0799504Y0376782D01*
X0799587Y0376853D01*
X0799673Y0376920D01*
X0799761Y0376984D01*
X0799851Y0377045D01*
X0799944Y0377102D01*
X0800038Y0377156D01*
X0800135Y0377207D01*
X0800233Y0377255D01*
X0800333Y0377298D01*
X0800434Y0377338D01*
X0800537Y0377375D01*
X0800640Y0377408D01*
X0800745Y0377437D01*
X0800851Y0377462D01*
X0800958Y0377483D01*
X0801066Y0377501D01*
X0801174Y0377514D01*
X0801282Y0377524D01*
X0801391Y0377530D01*
X0801500Y0377532D01*
X0801609Y0377530D01*
X0801718Y0377524D01*
X0801826Y0377514D01*
X0801934Y0377501D01*
X0802042Y0377483D01*
X0802149Y0377462D01*
X0802255Y0377437D01*
X0802360Y0377408D01*
X0802463Y0377375D01*
X0802566Y0377338D01*
X0802667Y0377298D01*
X0802767Y0377255D01*
X0802865Y0377207D01*
X0802962Y0377156D01*
X0803056Y0377102D01*
X0803149Y0377045D01*
X0803239Y0376984D01*
X0803327Y0376920D01*
X0803413Y0376853D01*
X0803496Y0376782D01*
X0803577Y0376709D01*
X0803655Y0376633D01*
X0803730Y0376554D01*
X0803703Y0376529D01*
X0803628Y0376607D01*
X0803551Y0376682D01*
X0803472Y0376755D01*
X0803389Y0376824D01*
X0803305Y0376890D01*
X0803218Y0376954D01*
X0803128Y0377014D01*
X0803037Y0377071D01*
X0802944Y0377124D01*
X0802848Y0377174D01*
X0802752Y0377221D01*
X0802653Y0377264D01*
X0802553Y0377304D01*
X0802452Y0377340D01*
X0802349Y0377372D01*
X0802245Y0377401D01*
X0802141Y0377426D01*
X0802035Y0377447D01*
X0801929Y0377464D01*
X0801822Y0377478D01*
X0801715Y0377487D01*
X0801608Y0377493D01*
X0801500Y0377495D01*
X0801392Y0377493D01*
X0801285Y0377487D01*
X0801178Y0377478D01*
X0801071Y0377464D01*
X0800965Y0377447D01*
X0800859Y0377426D01*
X0800755Y0377401D01*
X0800651Y0377372D01*
X0800548Y0377340D01*
X0800447Y0377304D01*
X0800347Y0377264D01*
X0800248Y0377221D01*
X0800152Y0377174D01*
X0800056Y0377124D01*
X0799963Y0377071D01*
X0799872Y0377014D01*
X0799782Y0376954D01*
X0799695Y0376890D01*
X0799611Y0376824D01*
X0799528Y0376755D01*
X0799449Y0376682D01*
X0799372Y0376607D01*
X0799297Y0376529D01*
X0799325Y0376505D01*
X0799400Y0376583D01*
X0799478Y0376659D01*
X0799558Y0376732D01*
X0799642Y0376801D01*
X0799727Y0376868D01*
X0799815Y0376931D01*
X0799906Y0376992D01*
X0799998Y0377049D01*
X0800093Y0377102D01*
X0800189Y0377152D01*
X0800288Y0377198D01*
X0800388Y0377241D01*
X0800489Y0377280D01*
X0800592Y0377315D01*
X0800696Y0377347D01*
X0800801Y0377374D01*
X0800907Y0377398D01*
X0801013Y0377418D01*
X0801121Y0377434D01*
X0801229Y0377446D01*
X0801337Y0377454D01*
X0801446Y0377458D01*
X0801554Y0377458D01*
X0801663Y0377454D01*
X0801771Y0377446D01*
X0801879Y0377434D01*
X0801987Y0377418D01*
X0802093Y0377398D01*
X0802199Y0377374D01*
X0802304Y0377347D01*
X0802408Y0377315D01*
X0802511Y0377280D01*
X0802612Y0377241D01*
X0802712Y0377198D01*
X0802811Y0377152D01*
X0802907Y0377102D01*
X0803002Y0377049D01*
X0803094Y0376992D01*
X0803185Y0376931D01*
X0803273Y0376868D01*
X0803358Y0376801D01*
X0803442Y0376732D01*
X0803522Y0376659D01*
X0803600Y0376583D01*
X0803675Y0376505D01*
X0803648Y0376480D01*
X0803574Y0376557D01*
X0803497Y0376632D01*
X0803417Y0376704D01*
X0803335Y0376773D01*
X0803250Y0376838D01*
X0803163Y0376901D01*
X0803074Y0376961D01*
X0802983Y0377017D01*
X0802889Y0377069D01*
X0802794Y0377119D01*
X0802697Y0377164D01*
X0802598Y0377207D01*
X0802498Y0377245D01*
X0802397Y0377280D01*
X0802294Y0377311D01*
X0802191Y0377338D01*
X0802086Y0377362D01*
X0801980Y0377381D01*
X0801874Y0377397D01*
X0801768Y0377409D01*
X0801661Y0377417D01*
X0801554Y0377421D01*
X0801446Y0377421D01*
X0801339Y0377417D01*
X0801232Y0377409D01*
X0801126Y0377397D01*
X0801020Y0377381D01*
X0800914Y0377362D01*
X0800809Y0377338D01*
X0800706Y0377311D01*
X0800603Y0377280D01*
X0800502Y0377245D01*
X0800402Y0377207D01*
X0800303Y0377164D01*
X0800206Y0377119D01*
X0800111Y0377069D01*
X0800017Y0377017D01*
X0799926Y0376961D01*
X0799837Y0376901D01*
X0799750Y0376838D01*
X0799665Y0376773D01*
X0799583Y0376704D01*
X0799503Y0376632D01*
X0799426Y0376557D01*
X0799352Y0376480D01*
X0799380Y0376455D01*
X0799453Y0376531D01*
X0799529Y0376605D01*
X0799607Y0376676D01*
X0799688Y0376744D01*
X0799772Y0376809D01*
X0799858Y0376871D01*
X0799946Y0376930D01*
X0800036Y0376985D01*
X0800128Y0377037D01*
X0800222Y0377086D01*
X0800318Y0377131D01*
X0800416Y0377172D01*
X0800514Y0377210D01*
X0800615Y0377245D01*
X0800716Y0377275D01*
X0800818Y0377302D01*
X0800922Y0377325D01*
X0801026Y0377345D01*
X0801130Y0377360D01*
X0801236Y0377372D01*
X0801341Y0377380D01*
X0801447Y0377384D01*
X0801553Y0377384D01*
X0801659Y0377380D01*
X0801764Y0377372D01*
X0801870Y0377360D01*
X0801974Y0377345D01*
X0802078Y0377325D01*
X0802182Y0377302D01*
X0802284Y0377275D01*
X0802385Y0377245D01*
X0802486Y0377210D01*
X0802584Y0377172D01*
X0802682Y0377131D01*
X0802778Y0377086D01*
X0802872Y0377037D01*
X0802964Y0376985D01*
X0803054Y0376930D01*
X0803142Y0376871D01*
X0803228Y0376809D01*
X0803312Y0376744D01*
X0803393Y0376676D01*
X0803471Y0376605D01*
X0803547Y0376531D01*
X0803620Y0376455D01*
X0803593Y0376430D01*
X0803521Y0376505D01*
X0803446Y0376578D01*
X0803368Y0376648D01*
X0803288Y0376715D01*
X0803206Y0376779D01*
X0803121Y0376841D01*
X0803034Y0376898D01*
X0802945Y0376953D01*
X0802854Y0377004D01*
X0802761Y0377052D01*
X0802666Y0377097D01*
X0802570Y0377138D01*
X0802473Y0377176D01*
X0802374Y0377210D01*
X0802274Y0377240D01*
X0802173Y0377266D01*
X0802071Y0377289D01*
X0801968Y0377308D01*
X0801865Y0377324D01*
X0801761Y0377335D01*
X0801657Y0377343D01*
X0801552Y0377347D01*
X0801448Y0377347D01*
X0801343Y0377343D01*
X0801239Y0377335D01*
X0801135Y0377324D01*
X0801032Y0377308D01*
X0800929Y0377289D01*
X0800827Y0377266D01*
X0800726Y0377240D01*
X0800626Y0377210D01*
X0800527Y0377176D01*
X0800430Y0377138D01*
X0800334Y0377097D01*
X0800239Y0377052D01*
X0800146Y0377004D01*
X0800055Y0376953D01*
X0799966Y0376898D01*
X0799879Y0376841D01*
X0799794Y0376779D01*
X0799712Y0376715D01*
X0799632Y0376648D01*
X0799554Y0376578D01*
X0799479Y0376505D01*
X0799407Y0376430D01*
X0799434Y0376405D01*
X0799507Y0376481D01*
X0799583Y0376555D01*
X0799661Y0376625D01*
X0799742Y0376693D01*
X0799826Y0376757D01*
X0799912Y0376818D01*
X0800000Y0376876D01*
X0800090Y0376931D01*
X0800182Y0376982D01*
X0800277Y0377030D01*
X0800372Y0377074D01*
X0800470Y0377114D01*
X0800569Y0377151D01*
X0800669Y0377184D01*
X0800770Y0377214D01*
X0800872Y0377239D01*
X0800976Y0377261D01*
X0801080Y0377278D01*
X0801184Y0377292D01*
X0801289Y0377302D01*
X0801395Y0377308D01*
X0801500Y0377310D01*
X0801605Y0377308D01*
X0801711Y0377302D01*
X0801816Y0377292D01*
X0801920Y0377278D01*
X0802024Y0377261D01*
X0802128Y0377239D01*
X0802230Y0377214D01*
X0802331Y0377184D01*
X0802431Y0377151D01*
X0802530Y0377114D01*
X0802628Y0377074D01*
X0802723Y0377030D01*
X0802818Y0376982D01*
X0802910Y0376931D01*
X0803000Y0376876D01*
X0803088Y0376818D01*
X0803174Y0376757D01*
X0803258Y0376693D01*
X0803339Y0376625D01*
X0803417Y0376555D01*
X0803493Y0376481D01*
X0803566Y0376405D01*
X0803538Y0376380D01*
X0803466Y0376455D01*
X0803392Y0376528D01*
X0803314Y0376597D01*
X0803234Y0376664D01*
X0803152Y0376727D01*
X0803067Y0376788D01*
X0802980Y0376845D01*
X0802891Y0376899D01*
X0802800Y0376949D01*
X0802707Y0376996D01*
X0802613Y0377040D01*
X0802517Y0377080D01*
X0802419Y0377116D01*
X0802320Y0377149D01*
X0802220Y0377178D01*
X0802119Y0377203D01*
X0802017Y0377224D01*
X0801915Y0377242D01*
X0801812Y0377255D01*
X0801708Y0377265D01*
X0801604Y0377271D01*
X0801500Y0377273D01*
X0801396Y0377271D01*
X0801292Y0377265D01*
X0801188Y0377255D01*
X0801085Y0377242D01*
X0800983Y0377224D01*
X0800881Y0377203D01*
X0800780Y0377178D01*
X0800680Y0377149D01*
X0800581Y0377116D01*
X0800483Y0377080D01*
X0800387Y0377040D01*
X0800293Y0376996D01*
X0800200Y0376949D01*
X0800109Y0376899D01*
X0800020Y0376845D01*
X0799933Y0376788D01*
X0799848Y0376727D01*
X0799766Y0376664D01*
X0799686Y0376597D01*
X0799608Y0376528D01*
X0799534Y0376455D01*
X0799462Y0376380D01*
X0799216Y0372396D02*
X0799482Y0372639D01*
X0799482Y0372638D02*
X0799553Y0372564D01*
X0799627Y0372492D01*
X0799704Y0372423D01*
X0799783Y0372357D01*
X0799864Y0372294D01*
X0799948Y0372234D01*
X0800034Y0372178D01*
X0800123Y0372124D01*
X0800213Y0372074D01*
X0800305Y0372028D01*
X0800398Y0371985D01*
X0800493Y0371945D01*
X0800590Y0371909D01*
X0800688Y0371877D01*
X0800787Y0371848D01*
X0800887Y0371823D01*
X0800988Y0371802D01*
X0801089Y0371785D01*
X0801191Y0371771D01*
X0801294Y0371762D01*
X0801397Y0371756D01*
X0801500Y0371754D01*
X0801603Y0371756D01*
X0801706Y0371762D01*
X0801809Y0371771D01*
X0801911Y0371785D01*
X0802012Y0371802D01*
X0802113Y0371823D01*
X0802213Y0371848D01*
X0802312Y0371877D01*
X0802410Y0371909D01*
X0802507Y0371945D01*
X0802602Y0371985D01*
X0802695Y0372028D01*
X0802787Y0372074D01*
X0802877Y0372124D01*
X0802966Y0372178D01*
X0803052Y0372234D01*
X0803136Y0372294D01*
X0803217Y0372357D01*
X0803296Y0372423D01*
X0803373Y0372492D01*
X0803447Y0372564D01*
X0803518Y0372638D01*
X0803784Y0372396D01*
X0803785Y0372396D01*
X0803709Y0372317D01*
X0803631Y0372241D01*
X0803550Y0372167D01*
X0803467Y0372096D01*
X0803381Y0372029D01*
X0803293Y0371964D01*
X0803203Y0371903D01*
X0803111Y0371844D01*
X0803016Y0371789D01*
X0802920Y0371738D01*
X0802822Y0371689D01*
X0802722Y0371645D01*
X0802621Y0371603D01*
X0802519Y0371566D01*
X0802415Y0371532D01*
X0802310Y0371501D01*
X0802204Y0371475D01*
X0802097Y0371452D01*
X0801990Y0371433D01*
X0801881Y0371418D01*
X0801773Y0371406D01*
X0801664Y0371398D01*
X0801555Y0371394D01*
X0801445Y0371394D01*
X0801336Y0371398D01*
X0801227Y0371406D01*
X0801119Y0371418D01*
X0801010Y0371433D01*
X0800903Y0371452D01*
X0800796Y0371475D01*
X0800690Y0371501D01*
X0800585Y0371532D01*
X0800481Y0371566D01*
X0800379Y0371603D01*
X0800278Y0371645D01*
X0800178Y0371689D01*
X0800080Y0371738D01*
X0799984Y0371789D01*
X0799889Y0371844D01*
X0799797Y0371903D01*
X0799707Y0371964D01*
X0799619Y0372029D01*
X0799533Y0372096D01*
X0799450Y0372167D01*
X0799369Y0372241D01*
X0799291Y0372317D01*
X0799215Y0372396D01*
X0799243Y0372421D01*
X0799317Y0372343D01*
X0799394Y0372267D01*
X0799474Y0372195D01*
X0799556Y0372125D01*
X0799641Y0372058D01*
X0799728Y0371994D01*
X0799817Y0371933D01*
X0799909Y0371876D01*
X0800002Y0371821D01*
X0800097Y0371770D01*
X0800194Y0371723D01*
X0800292Y0371679D01*
X0800392Y0371638D01*
X0800494Y0371601D01*
X0800596Y0371567D01*
X0800700Y0371537D01*
X0800805Y0371511D01*
X0800910Y0371488D01*
X0801016Y0371469D01*
X0801123Y0371454D01*
X0801231Y0371443D01*
X0801338Y0371435D01*
X0801446Y0371431D01*
X0801554Y0371431D01*
X0801662Y0371435D01*
X0801769Y0371443D01*
X0801877Y0371454D01*
X0801984Y0371469D01*
X0802090Y0371488D01*
X0802195Y0371511D01*
X0802300Y0371537D01*
X0802404Y0371567D01*
X0802506Y0371601D01*
X0802608Y0371638D01*
X0802708Y0371679D01*
X0802806Y0371723D01*
X0802903Y0371770D01*
X0802998Y0371821D01*
X0803091Y0371876D01*
X0803183Y0371933D01*
X0803272Y0371994D01*
X0803359Y0372058D01*
X0803444Y0372125D01*
X0803526Y0372195D01*
X0803606Y0372267D01*
X0803683Y0372343D01*
X0803757Y0372421D01*
X0803730Y0372446D01*
X0803655Y0372367D01*
X0803577Y0372291D01*
X0803496Y0372218D01*
X0803413Y0372147D01*
X0803327Y0372080D01*
X0803239Y0372016D01*
X0803149Y0371955D01*
X0803056Y0371898D01*
X0802962Y0371844D01*
X0802865Y0371793D01*
X0802767Y0371745D01*
X0802667Y0371702D01*
X0802566Y0371662D01*
X0802463Y0371625D01*
X0802360Y0371592D01*
X0802255Y0371563D01*
X0802149Y0371538D01*
X0802042Y0371517D01*
X0801934Y0371499D01*
X0801826Y0371486D01*
X0801718Y0371476D01*
X0801609Y0371470D01*
X0801500Y0371468D01*
X0801391Y0371470D01*
X0801282Y0371476D01*
X0801174Y0371486D01*
X0801066Y0371499D01*
X0800958Y0371517D01*
X0800851Y0371538D01*
X0800745Y0371563D01*
X0800640Y0371592D01*
X0800537Y0371625D01*
X0800434Y0371662D01*
X0800333Y0371702D01*
X0800233Y0371745D01*
X0800135Y0371793D01*
X0800038Y0371844D01*
X0799944Y0371898D01*
X0799851Y0371955D01*
X0799761Y0372016D01*
X0799673Y0372080D01*
X0799587Y0372147D01*
X0799504Y0372218D01*
X0799423Y0372291D01*
X0799345Y0372367D01*
X0799270Y0372446D01*
X0799297Y0372471D01*
X0799372Y0372393D01*
X0799449Y0372318D01*
X0799528Y0372245D01*
X0799611Y0372176D01*
X0799695Y0372110D01*
X0799782Y0372046D01*
X0799872Y0371986D01*
X0799963Y0371929D01*
X0800056Y0371876D01*
X0800152Y0371826D01*
X0800248Y0371779D01*
X0800347Y0371736D01*
X0800447Y0371696D01*
X0800548Y0371660D01*
X0800651Y0371628D01*
X0800755Y0371599D01*
X0800859Y0371574D01*
X0800965Y0371553D01*
X0801071Y0371536D01*
X0801178Y0371522D01*
X0801285Y0371513D01*
X0801392Y0371507D01*
X0801500Y0371505D01*
X0801608Y0371507D01*
X0801715Y0371513D01*
X0801822Y0371522D01*
X0801929Y0371536D01*
X0802035Y0371553D01*
X0802141Y0371574D01*
X0802245Y0371599D01*
X0802349Y0371628D01*
X0802452Y0371660D01*
X0802553Y0371696D01*
X0802653Y0371736D01*
X0802752Y0371779D01*
X0802848Y0371826D01*
X0802944Y0371876D01*
X0803037Y0371929D01*
X0803128Y0371986D01*
X0803218Y0372046D01*
X0803305Y0372110D01*
X0803389Y0372176D01*
X0803472Y0372245D01*
X0803551Y0372318D01*
X0803628Y0372393D01*
X0803703Y0372471D01*
X0803675Y0372495D01*
X0803600Y0372417D01*
X0803522Y0372341D01*
X0803442Y0372268D01*
X0803358Y0372199D01*
X0803273Y0372132D01*
X0803185Y0372069D01*
X0803094Y0372008D01*
X0803002Y0371951D01*
X0802907Y0371898D01*
X0802811Y0371848D01*
X0802712Y0371802D01*
X0802612Y0371759D01*
X0802511Y0371720D01*
X0802408Y0371685D01*
X0802304Y0371653D01*
X0802199Y0371626D01*
X0802093Y0371602D01*
X0801987Y0371582D01*
X0801879Y0371566D01*
X0801771Y0371554D01*
X0801663Y0371546D01*
X0801554Y0371542D01*
X0801446Y0371542D01*
X0801337Y0371546D01*
X0801229Y0371554D01*
X0801121Y0371566D01*
X0801013Y0371582D01*
X0800907Y0371602D01*
X0800801Y0371626D01*
X0800696Y0371653D01*
X0800592Y0371685D01*
X0800489Y0371720D01*
X0800388Y0371759D01*
X0800288Y0371802D01*
X0800189Y0371848D01*
X0800093Y0371898D01*
X0799998Y0371951D01*
X0799906Y0372008D01*
X0799815Y0372069D01*
X0799727Y0372132D01*
X0799642Y0372199D01*
X0799558Y0372268D01*
X0799478Y0372341D01*
X0799400Y0372417D01*
X0799325Y0372495D01*
X0799352Y0372520D01*
X0799426Y0372443D01*
X0799503Y0372368D01*
X0799583Y0372296D01*
X0799665Y0372227D01*
X0799750Y0372162D01*
X0799837Y0372099D01*
X0799926Y0372039D01*
X0800017Y0371983D01*
X0800111Y0371931D01*
X0800206Y0371881D01*
X0800303Y0371836D01*
X0800402Y0371793D01*
X0800502Y0371755D01*
X0800603Y0371720D01*
X0800706Y0371689D01*
X0800809Y0371662D01*
X0800914Y0371638D01*
X0801020Y0371619D01*
X0801126Y0371603D01*
X0801232Y0371591D01*
X0801339Y0371583D01*
X0801446Y0371579D01*
X0801554Y0371579D01*
X0801661Y0371583D01*
X0801768Y0371591D01*
X0801874Y0371603D01*
X0801980Y0371619D01*
X0802086Y0371638D01*
X0802191Y0371662D01*
X0802294Y0371689D01*
X0802397Y0371720D01*
X0802498Y0371755D01*
X0802598Y0371793D01*
X0802697Y0371836D01*
X0802794Y0371881D01*
X0802889Y0371931D01*
X0802983Y0371983D01*
X0803074Y0372039D01*
X0803163Y0372099D01*
X0803250Y0372162D01*
X0803335Y0372227D01*
X0803417Y0372296D01*
X0803497Y0372368D01*
X0803574Y0372443D01*
X0803648Y0372520D01*
X0803620Y0372545D01*
X0803547Y0372469D01*
X0803471Y0372395D01*
X0803393Y0372324D01*
X0803312Y0372256D01*
X0803228Y0372191D01*
X0803142Y0372129D01*
X0803054Y0372070D01*
X0802964Y0372015D01*
X0802872Y0371963D01*
X0802778Y0371914D01*
X0802682Y0371869D01*
X0802584Y0371828D01*
X0802486Y0371790D01*
X0802385Y0371755D01*
X0802284Y0371725D01*
X0802182Y0371698D01*
X0802078Y0371675D01*
X0801974Y0371655D01*
X0801870Y0371640D01*
X0801764Y0371628D01*
X0801659Y0371620D01*
X0801553Y0371616D01*
X0801447Y0371616D01*
X0801341Y0371620D01*
X0801236Y0371628D01*
X0801130Y0371640D01*
X0801026Y0371655D01*
X0800922Y0371675D01*
X0800818Y0371698D01*
X0800716Y0371725D01*
X0800615Y0371755D01*
X0800514Y0371790D01*
X0800416Y0371828D01*
X0800318Y0371869D01*
X0800222Y0371914D01*
X0800128Y0371963D01*
X0800036Y0372015D01*
X0799946Y0372070D01*
X0799858Y0372129D01*
X0799772Y0372191D01*
X0799688Y0372256D01*
X0799607Y0372324D01*
X0799529Y0372395D01*
X0799453Y0372469D01*
X0799380Y0372545D01*
X0799407Y0372570D01*
X0799479Y0372495D01*
X0799554Y0372422D01*
X0799632Y0372352D01*
X0799712Y0372285D01*
X0799794Y0372221D01*
X0799879Y0372159D01*
X0799966Y0372102D01*
X0800055Y0372047D01*
X0800146Y0371996D01*
X0800239Y0371948D01*
X0800334Y0371903D01*
X0800430Y0371862D01*
X0800527Y0371824D01*
X0800626Y0371790D01*
X0800726Y0371760D01*
X0800827Y0371734D01*
X0800929Y0371711D01*
X0801032Y0371692D01*
X0801135Y0371676D01*
X0801239Y0371665D01*
X0801343Y0371657D01*
X0801448Y0371653D01*
X0801552Y0371653D01*
X0801657Y0371657D01*
X0801761Y0371665D01*
X0801865Y0371676D01*
X0801968Y0371692D01*
X0802071Y0371711D01*
X0802173Y0371734D01*
X0802274Y0371760D01*
X0802374Y0371790D01*
X0802473Y0371824D01*
X0802570Y0371862D01*
X0802666Y0371903D01*
X0802761Y0371948D01*
X0802854Y0371996D01*
X0802945Y0372047D01*
X0803034Y0372102D01*
X0803121Y0372159D01*
X0803206Y0372221D01*
X0803288Y0372285D01*
X0803368Y0372352D01*
X0803446Y0372422D01*
X0803521Y0372495D01*
X0803593Y0372570D01*
X0803566Y0372595D01*
X0803493Y0372519D01*
X0803417Y0372445D01*
X0803339Y0372375D01*
X0803258Y0372307D01*
X0803174Y0372243D01*
X0803088Y0372182D01*
X0803000Y0372124D01*
X0802910Y0372069D01*
X0802818Y0372018D01*
X0802723Y0371970D01*
X0802628Y0371926D01*
X0802530Y0371886D01*
X0802431Y0371849D01*
X0802331Y0371816D01*
X0802230Y0371786D01*
X0802128Y0371761D01*
X0802024Y0371739D01*
X0801920Y0371722D01*
X0801816Y0371708D01*
X0801711Y0371698D01*
X0801605Y0371692D01*
X0801500Y0371690D01*
X0801395Y0371692D01*
X0801289Y0371698D01*
X0801184Y0371708D01*
X0801080Y0371722D01*
X0800976Y0371739D01*
X0800872Y0371761D01*
X0800770Y0371786D01*
X0800669Y0371816D01*
X0800569Y0371849D01*
X0800470Y0371886D01*
X0800372Y0371926D01*
X0800277Y0371970D01*
X0800182Y0372018D01*
X0800090Y0372069D01*
X0800000Y0372124D01*
X0799912Y0372182D01*
X0799826Y0372243D01*
X0799742Y0372307D01*
X0799661Y0372375D01*
X0799583Y0372445D01*
X0799507Y0372519D01*
X0799434Y0372595D01*
X0799462Y0372620D01*
X0799534Y0372545D01*
X0799608Y0372472D01*
X0799686Y0372403D01*
X0799766Y0372336D01*
X0799848Y0372273D01*
X0799933Y0372212D01*
X0800020Y0372155D01*
X0800109Y0372101D01*
X0800200Y0372051D01*
X0800293Y0372004D01*
X0800387Y0371960D01*
X0800483Y0371920D01*
X0800581Y0371884D01*
X0800680Y0371851D01*
X0800780Y0371822D01*
X0800881Y0371797D01*
X0800983Y0371776D01*
X0801085Y0371758D01*
X0801188Y0371745D01*
X0801292Y0371735D01*
X0801396Y0371729D01*
X0801500Y0371727D01*
X0801604Y0371729D01*
X0801708Y0371735D01*
X0801812Y0371745D01*
X0801915Y0371758D01*
X0802017Y0371776D01*
X0802119Y0371797D01*
X0802220Y0371822D01*
X0802320Y0371851D01*
X0802419Y0371884D01*
X0802517Y0371920D01*
X0802613Y0371960D01*
X0802707Y0372004D01*
X0802800Y0372051D01*
X0802891Y0372101D01*
X0802980Y0372155D01*
X0803067Y0372212D01*
X0803152Y0372273D01*
X0803234Y0372336D01*
X0803314Y0372403D01*
X0803392Y0372472D01*
X0803466Y0372545D01*
X0803538Y0372620D01*
D19*
X0801500Y0374500D03*
D20*
X0799433Y0372236D03*
M02*
