G75*
%MOIN*%
%OFA0B0*%
%FSLAX25Y25*%
%IPPOS*%
%LPD*%
%AMOC8*
5,1,8,0,0,1.08239X$1,22.5*
%
%ADD10C,0.00000*%
%ADD11C,0.07850*%
%ADD12OC8,0.06000*%
%ADD13R,0.07887X0.07099*%
%ADD14C,0.06000*%
%ADD15C,0.06343*%
%ADD16C,0.09050*%
%ADD17R,0.04343X0.06706*%
%ADD18R,0.07099X0.07898*%
%ADD19C,0.06000*%
%ADD20C,0.06400*%
%ADD21C,0.23800*%
%ADD22OC8,0.07400*%
%ADD23C,0.13398*%
%ADD24C,0.06800*%
%ADD25C,0.10800*%
%ADD26OC8,0.10800*%
%ADD27C,0.05156*%
%ADD28C,0.04369*%
%ADD29C,0.04762*%
%ADD30C,0.04800*%
D10*
X0002200Y0002700D02*
X0002200Y0407401D01*
X0832121Y0407401D01*
X0832121Y0002700D01*
X0002200Y0002700D01*
X0018901Y0023700D02*
X0018903Y0023858D01*
X0018909Y0024016D01*
X0018919Y0024174D01*
X0018933Y0024332D01*
X0018951Y0024489D01*
X0018972Y0024646D01*
X0018998Y0024802D01*
X0019028Y0024958D01*
X0019061Y0025113D01*
X0019099Y0025266D01*
X0019140Y0025419D01*
X0019185Y0025571D01*
X0019234Y0025722D01*
X0019287Y0025871D01*
X0019343Y0026019D01*
X0019403Y0026165D01*
X0019467Y0026310D01*
X0019535Y0026453D01*
X0019606Y0026595D01*
X0019680Y0026735D01*
X0019758Y0026872D01*
X0019840Y0027008D01*
X0019924Y0027142D01*
X0020013Y0027273D01*
X0020104Y0027402D01*
X0020199Y0027529D01*
X0020296Y0027654D01*
X0020397Y0027776D01*
X0020501Y0027895D01*
X0020608Y0028012D01*
X0020718Y0028126D01*
X0020831Y0028237D01*
X0020946Y0028346D01*
X0021064Y0028451D01*
X0021185Y0028553D01*
X0021308Y0028653D01*
X0021434Y0028749D01*
X0021562Y0028842D01*
X0021692Y0028932D01*
X0021825Y0029018D01*
X0021960Y0029102D01*
X0022096Y0029181D01*
X0022235Y0029258D01*
X0022376Y0029330D01*
X0022518Y0029400D01*
X0022662Y0029465D01*
X0022808Y0029527D01*
X0022955Y0029585D01*
X0023104Y0029640D01*
X0023254Y0029691D01*
X0023405Y0029738D01*
X0023557Y0029781D01*
X0023710Y0029820D01*
X0023865Y0029856D01*
X0024020Y0029887D01*
X0024176Y0029915D01*
X0024332Y0029939D01*
X0024489Y0029959D01*
X0024647Y0029975D01*
X0024804Y0029987D01*
X0024963Y0029995D01*
X0025121Y0029999D01*
X0025279Y0029999D01*
X0025437Y0029995D01*
X0025596Y0029987D01*
X0025753Y0029975D01*
X0025911Y0029959D01*
X0026068Y0029939D01*
X0026224Y0029915D01*
X0026380Y0029887D01*
X0026535Y0029856D01*
X0026690Y0029820D01*
X0026843Y0029781D01*
X0026995Y0029738D01*
X0027146Y0029691D01*
X0027296Y0029640D01*
X0027445Y0029585D01*
X0027592Y0029527D01*
X0027738Y0029465D01*
X0027882Y0029400D01*
X0028024Y0029330D01*
X0028165Y0029258D01*
X0028304Y0029181D01*
X0028440Y0029102D01*
X0028575Y0029018D01*
X0028708Y0028932D01*
X0028838Y0028842D01*
X0028966Y0028749D01*
X0029092Y0028653D01*
X0029215Y0028553D01*
X0029336Y0028451D01*
X0029454Y0028346D01*
X0029569Y0028237D01*
X0029682Y0028126D01*
X0029792Y0028012D01*
X0029899Y0027895D01*
X0030003Y0027776D01*
X0030104Y0027654D01*
X0030201Y0027529D01*
X0030296Y0027402D01*
X0030387Y0027273D01*
X0030476Y0027142D01*
X0030560Y0027008D01*
X0030642Y0026872D01*
X0030720Y0026735D01*
X0030794Y0026595D01*
X0030865Y0026453D01*
X0030933Y0026310D01*
X0030997Y0026165D01*
X0031057Y0026019D01*
X0031113Y0025871D01*
X0031166Y0025722D01*
X0031215Y0025571D01*
X0031260Y0025419D01*
X0031301Y0025266D01*
X0031339Y0025113D01*
X0031372Y0024958D01*
X0031402Y0024802D01*
X0031428Y0024646D01*
X0031449Y0024489D01*
X0031467Y0024332D01*
X0031481Y0024174D01*
X0031491Y0024016D01*
X0031497Y0023858D01*
X0031499Y0023700D01*
X0031497Y0023542D01*
X0031491Y0023384D01*
X0031481Y0023226D01*
X0031467Y0023068D01*
X0031449Y0022911D01*
X0031428Y0022754D01*
X0031402Y0022598D01*
X0031372Y0022442D01*
X0031339Y0022287D01*
X0031301Y0022134D01*
X0031260Y0021981D01*
X0031215Y0021829D01*
X0031166Y0021678D01*
X0031113Y0021529D01*
X0031057Y0021381D01*
X0030997Y0021235D01*
X0030933Y0021090D01*
X0030865Y0020947D01*
X0030794Y0020805D01*
X0030720Y0020665D01*
X0030642Y0020528D01*
X0030560Y0020392D01*
X0030476Y0020258D01*
X0030387Y0020127D01*
X0030296Y0019998D01*
X0030201Y0019871D01*
X0030104Y0019746D01*
X0030003Y0019624D01*
X0029899Y0019505D01*
X0029792Y0019388D01*
X0029682Y0019274D01*
X0029569Y0019163D01*
X0029454Y0019054D01*
X0029336Y0018949D01*
X0029215Y0018847D01*
X0029092Y0018747D01*
X0028966Y0018651D01*
X0028838Y0018558D01*
X0028708Y0018468D01*
X0028575Y0018382D01*
X0028440Y0018298D01*
X0028304Y0018219D01*
X0028165Y0018142D01*
X0028024Y0018070D01*
X0027882Y0018000D01*
X0027738Y0017935D01*
X0027592Y0017873D01*
X0027445Y0017815D01*
X0027296Y0017760D01*
X0027146Y0017709D01*
X0026995Y0017662D01*
X0026843Y0017619D01*
X0026690Y0017580D01*
X0026535Y0017544D01*
X0026380Y0017513D01*
X0026224Y0017485D01*
X0026068Y0017461D01*
X0025911Y0017441D01*
X0025753Y0017425D01*
X0025596Y0017413D01*
X0025437Y0017405D01*
X0025279Y0017401D01*
X0025121Y0017401D01*
X0024963Y0017405D01*
X0024804Y0017413D01*
X0024647Y0017425D01*
X0024489Y0017441D01*
X0024332Y0017461D01*
X0024176Y0017485D01*
X0024020Y0017513D01*
X0023865Y0017544D01*
X0023710Y0017580D01*
X0023557Y0017619D01*
X0023405Y0017662D01*
X0023254Y0017709D01*
X0023104Y0017760D01*
X0022955Y0017815D01*
X0022808Y0017873D01*
X0022662Y0017935D01*
X0022518Y0018000D01*
X0022376Y0018070D01*
X0022235Y0018142D01*
X0022096Y0018219D01*
X0021960Y0018298D01*
X0021825Y0018382D01*
X0021692Y0018468D01*
X0021562Y0018558D01*
X0021434Y0018651D01*
X0021308Y0018747D01*
X0021185Y0018847D01*
X0021064Y0018949D01*
X0020946Y0019054D01*
X0020831Y0019163D01*
X0020718Y0019274D01*
X0020608Y0019388D01*
X0020501Y0019505D01*
X0020397Y0019624D01*
X0020296Y0019746D01*
X0020199Y0019871D01*
X0020104Y0019998D01*
X0020013Y0020127D01*
X0019924Y0020258D01*
X0019840Y0020392D01*
X0019758Y0020528D01*
X0019680Y0020665D01*
X0019606Y0020805D01*
X0019535Y0020947D01*
X0019467Y0021090D01*
X0019403Y0021235D01*
X0019343Y0021381D01*
X0019287Y0021529D01*
X0019234Y0021678D01*
X0019185Y0021829D01*
X0019140Y0021981D01*
X0019099Y0022134D01*
X0019061Y0022287D01*
X0019028Y0022442D01*
X0018998Y0022598D01*
X0018972Y0022754D01*
X0018951Y0022911D01*
X0018933Y0023068D01*
X0018919Y0023226D01*
X0018909Y0023384D01*
X0018903Y0023542D01*
X0018901Y0023700D01*
X0080901Y0097700D02*
X0080903Y0097858D01*
X0080909Y0098016D01*
X0080919Y0098174D01*
X0080933Y0098332D01*
X0080951Y0098489D01*
X0080972Y0098646D01*
X0080998Y0098802D01*
X0081028Y0098958D01*
X0081061Y0099113D01*
X0081099Y0099266D01*
X0081140Y0099419D01*
X0081185Y0099571D01*
X0081234Y0099722D01*
X0081287Y0099871D01*
X0081343Y0100019D01*
X0081403Y0100165D01*
X0081467Y0100310D01*
X0081535Y0100453D01*
X0081606Y0100595D01*
X0081680Y0100735D01*
X0081758Y0100872D01*
X0081840Y0101008D01*
X0081924Y0101142D01*
X0082013Y0101273D01*
X0082104Y0101402D01*
X0082199Y0101529D01*
X0082296Y0101654D01*
X0082397Y0101776D01*
X0082501Y0101895D01*
X0082608Y0102012D01*
X0082718Y0102126D01*
X0082831Y0102237D01*
X0082946Y0102346D01*
X0083064Y0102451D01*
X0083185Y0102553D01*
X0083308Y0102653D01*
X0083434Y0102749D01*
X0083562Y0102842D01*
X0083692Y0102932D01*
X0083825Y0103018D01*
X0083960Y0103102D01*
X0084096Y0103181D01*
X0084235Y0103258D01*
X0084376Y0103330D01*
X0084518Y0103400D01*
X0084662Y0103465D01*
X0084808Y0103527D01*
X0084955Y0103585D01*
X0085104Y0103640D01*
X0085254Y0103691D01*
X0085405Y0103738D01*
X0085557Y0103781D01*
X0085710Y0103820D01*
X0085865Y0103856D01*
X0086020Y0103887D01*
X0086176Y0103915D01*
X0086332Y0103939D01*
X0086489Y0103959D01*
X0086647Y0103975D01*
X0086804Y0103987D01*
X0086963Y0103995D01*
X0087121Y0103999D01*
X0087279Y0103999D01*
X0087437Y0103995D01*
X0087596Y0103987D01*
X0087753Y0103975D01*
X0087911Y0103959D01*
X0088068Y0103939D01*
X0088224Y0103915D01*
X0088380Y0103887D01*
X0088535Y0103856D01*
X0088690Y0103820D01*
X0088843Y0103781D01*
X0088995Y0103738D01*
X0089146Y0103691D01*
X0089296Y0103640D01*
X0089445Y0103585D01*
X0089592Y0103527D01*
X0089738Y0103465D01*
X0089882Y0103400D01*
X0090024Y0103330D01*
X0090165Y0103258D01*
X0090304Y0103181D01*
X0090440Y0103102D01*
X0090575Y0103018D01*
X0090708Y0102932D01*
X0090838Y0102842D01*
X0090966Y0102749D01*
X0091092Y0102653D01*
X0091215Y0102553D01*
X0091336Y0102451D01*
X0091454Y0102346D01*
X0091569Y0102237D01*
X0091682Y0102126D01*
X0091792Y0102012D01*
X0091899Y0101895D01*
X0092003Y0101776D01*
X0092104Y0101654D01*
X0092201Y0101529D01*
X0092296Y0101402D01*
X0092387Y0101273D01*
X0092476Y0101142D01*
X0092560Y0101008D01*
X0092642Y0100872D01*
X0092720Y0100735D01*
X0092794Y0100595D01*
X0092865Y0100453D01*
X0092933Y0100310D01*
X0092997Y0100165D01*
X0093057Y0100019D01*
X0093113Y0099871D01*
X0093166Y0099722D01*
X0093215Y0099571D01*
X0093260Y0099419D01*
X0093301Y0099266D01*
X0093339Y0099113D01*
X0093372Y0098958D01*
X0093402Y0098802D01*
X0093428Y0098646D01*
X0093449Y0098489D01*
X0093467Y0098332D01*
X0093481Y0098174D01*
X0093491Y0098016D01*
X0093497Y0097858D01*
X0093499Y0097700D01*
X0093497Y0097542D01*
X0093491Y0097384D01*
X0093481Y0097226D01*
X0093467Y0097068D01*
X0093449Y0096911D01*
X0093428Y0096754D01*
X0093402Y0096598D01*
X0093372Y0096442D01*
X0093339Y0096287D01*
X0093301Y0096134D01*
X0093260Y0095981D01*
X0093215Y0095829D01*
X0093166Y0095678D01*
X0093113Y0095529D01*
X0093057Y0095381D01*
X0092997Y0095235D01*
X0092933Y0095090D01*
X0092865Y0094947D01*
X0092794Y0094805D01*
X0092720Y0094665D01*
X0092642Y0094528D01*
X0092560Y0094392D01*
X0092476Y0094258D01*
X0092387Y0094127D01*
X0092296Y0093998D01*
X0092201Y0093871D01*
X0092104Y0093746D01*
X0092003Y0093624D01*
X0091899Y0093505D01*
X0091792Y0093388D01*
X0091682Y0093274D01*
X0091569Y0093163D01*
X0091454Y0093054D01*
X0091336Y0092949D01*
X0091215Y0092847D01*
X0091092Y0092747D01*
X0090966Y0092651D01*
X0090838Y0092558D01*
X0090708Y0092468D01*
X0090575Y0092382D01*
X0090440Y0092298D01*
X0090304Y0092219D01*
X0090165Y0092142D01*
X0090024Y0092070D01*
X0089882Y0092000D01*
X0089738Y0091935D01*
X0089592Y0091873D01*
X0089445Y0091815D01*
X0089296Y0091760D01*
X0089146Y0091709D01*
X0088995Y0091662D01*
X0088843Y0091619D01*
X0088690Y0091580D01*
X0088535Y0091544D01*
X0088380Y0091513D01*
X0088224Y0091485D01*
X0088068Y0091461D01*
X0087911Y0091441D01*
X0087753Y0091425D01*
X0087596Y0091413D01*
X0087437Y0091405D01*
X0087279Y0091401D01*
X0087121Y0091401D01*
X0086963Y0091405D01*
X0086804Y0091413D01*
X0086647Y0091425D01*
X0086489Y0091441D01*
X0086332Y0091461D01*
X0086176Y0091485D01*
X0086020Y0091513D01*
X0085865Y0091544D01*
X0085710Y0091580D01*
X0085557Y0091619D01*
X0085405Y0091662D01*
X0085254Y0091709D01*
X0085104Y0091760D01*
X0084955Y0091815D01*
X0084808Y0091873D01*
X0084662Y0091935D01*
X0084518Y0092000D01*
X0084376Y0092070D01*
X0084235Y0092142D01*
X0084096Y0092219D01*
X0083960Y0092298D01*
X0083825Y0092382D01*
X0083692Y0092468D01*
X0083562Y0092558D01*
X0083434Y0092651D01*
X0083308Y0092747D01*
X0083185Y0092847D01*
X0083064Y0092949D01*
X0082946Y0093054D01*
X0082831Y0093163D01*
X0082718Y0093274D01*
X0082608Y0093388D01*
X0082501Y0093505D01*
X0082397Y0093624D01*
X0082296Y0093746D01*
X0082199Y0093871D01*
X0082104Y0093998D01*
X0082013Y0094127D01*
X0081924Y0094258D01*
X0081840Y0094392D01*
X0081758Y0094528D01*
X0081680Y0094665D01*
X0081606Y0094805D01*
X0081535Y0094947D01*
X0081467Y0095090D01*
X0081403Y0095235D01*
X0081343Y0095381D01*
X0081287Y0095529D01*
X0081234Y0095678D01*
X0081185Y0095829D01*
X0081140Y0095981D01*
X0081099Y0096134D01*
X0081061Y0096287D01*
X0081028Y0096442D01*
X0080998Y0096598D01*
X0080972Y0096754D01*
X0080951Y0096911D01*
X0080933Y0097068D01*
X0080919Y0097226D01*
X0080909Y0097384D01*
X0080903Y0097542D01*
X0080901Y0097700D01*
X0016901Y0387700D02*
X0016903Y0387858D01*
X0016909Y0388016D01*
X0016919Y0388174D01*
X0016933Y0388332D01*
X0016951Y0388489D01*
X0016972Y0388646D01*
X0016998Y0388802D01*
X0017028Y0388958D01*
X0017061Y0389113D01*
X0017099Y0389266D01*
X0017140Y0389419D01*
X0017185Y0389571D01*
X0017234Y0389722D01*
X0017287Y0389871D01*
X0017343Y0390019D01*
X0017403Y0390165D01*
X0017467Y0390310D01*
X0017535Y0390453D01*
X0017606Y0390595D01*
X0017680Y0390735D01*
X0017758Y0390872D01*
X0017840Y0391008D01*
X0017924Y0391142D01*
X0018013Y0391273D01*
X0018104Y0391402D01*
X0018199Y0391529D01*
X0018296Y0391654D01*
X0018397Y0391776D01*
X0018501Y0391895D01*
X0018608Y0392012D01*
X0018718Y0392126D01*
X0018831Y0392237D01*
X0018946Y0392346D01*
X0019064Y0392451D01*
X0019185Y0392553D01*
X0019308Y0392653D01*
X0019434Y0392749D01*
X0019562Y0392842D01*
X0019692Y0392932D01*
X0019825Y0393018D01*
X0019960Y0393102D01*
X0020096Y0393181D01*
X0020235Y0393258D01*
X0020376Y0393330D01*
X0020518Y0393400D01*
X0020662Y0393465D01*
X0020808Y0393527D01*
X0020955Y0393585D01*
X0021104Y0393640D01*
X0021254Y0393691D01*
X0021405Y0393738D01*
X0021557Y0393781D01*
X0021710Y0393820D01*
X0021865Y0393856D01*
X0022020Y0393887D01*
X0022176Y0393915D01*
X0022332Y0393939D01*
X0022489Y0393959D01*
X0022647Y0393975D01*
X0022804Y0393987D01*
X0022963Y0393995D01*
X0023121Y0393999D01*
X0023279Y0393999D01*
X0023437Y0393995D01*
X0023596Y0393987D01*
X0023753Y0393975D01*
X0023911Y0393959D01*
X0024068Y0393939D01*
X0024224Y0393915D01*
X0024380Y0393887D01*
X0024535Y0393856D01*
X0024690Y0393820D01*
X0024843Y0393781D01*
X0024995Y0393738D01*
X0025146Y0393691D01*
X0025296Y0393640D01*
X0025445Y0393585D01*
X0025592Y0393527D01*
X0025738Y0393465D01*
X0025882Y0393400D01*
X0026024Y0393330D01*
X0026165Y0393258D01*
X0026304Y0393181D01*
X0026440Y0393102D01*
X0026575Y0393018D01*
X0026708Y0392932D01*
X0026838Y0392842D01*
X0026966Y0392749D01*
X0027092Y0392653D01*
X0027215Y0392553D01*
X0027336Y0392451D01*
X0027454Y0392346D01*
X0027569Y0392237D01*
X0027682Y0392126D01*
X0027792Y0392012D01*
X0027899Y0391895D01*
X0028003Y0391776D01*
X0028104Y0391654D01*
X0028201Y0391529D01*
X0028296Y0391402D01*
X0028387Y0391273D01*
X0028476Y0391142D01*
X0028560Y0391008D01*
X0028642Y0390872D01*
X0028720Y0390735D01*
X0028794Y0390595D01*
X0028865Y0390453D01*
X0028933Y0390310D01*
X0028997Y0390165D01*
X0029057Y0390019D01*
X0029113Y0389871D01*
X0029166Y0389722D01*
X0029215Y0389571D01*
X0029260Y0389419D01*
X0029301Y0389266D01*
X0029339Y0389113D01*
X0029372Y0388958D01*
X0029402Y0388802D01*
X0029428Y0388646D01*
X0029449Y0388489D01*
X0029467Y0388332D01*
X0029481Y0388174D01*
X0029491Y0388016D01*
X0029497Y0387858D01*
X0029499Y0387700D01*
X0029497Y0387542D01*
X0029491Y0387384D01*
X0029481Y0387226D01*
X0029467Y0387068D01*
X0029449Y0386911D01*
X0029428Y0386754D01*
X0029402Y0386598D01*
X0029372Y0386442D01*
X0029339Y0386287D01*
X0029301Y0386134D01*
X0029260Y0385981D01*
X0029215Y0385829D01*
X0029166Y0385678D01*
X0029113Y0385529D01*
X0029057Y0385381D01*
X0028997Y0385235D01*
X0028933Y0385090D01*
X0028865Y0384947D01*
X0028794Y0384805D01*
X0028720Y0384665D01*
X0028642Y0384528D01*
X0028560Y0384392D01*
X0028476Y0384258D01*
X0028387Y0384127D01*
X0028296Y0383998D01*
X0028201Y0383871D01*
X0028104Y0383746D01*
X0028003Y0383624D01*
X0027899Y0383505D01*
X0027792Y0383388D01*
X0027682Y0383274D01*
X0027569Y0383163D01*
X0027454Y0383054D01*
X0027336Y0382949D01*
X0027215Y0382847D01*
X0027092Y0382747D01*
X0026966Y0382651D01*
X0026838Y0382558D01*
X0026708Y0382468D01*
X0026575Y0382382D01*
X0026440Y0382298D01*
X0026304Y0382219D01*
X0026165Y0382142D01*
X0026024Y0382070D01*
X0025882Y0382000D01*
X0025738Y0381935D01*
X0025592Y0381873D01*
X0025445Y0381815D01*
X0025296Y0381760D01*
X0025146Y0381709D01*
X0024995Y0381662D01*
X0024843Y0381619D01*
X0024690Y0381580D01*
X0024535Y0381544D01*
X0024380Y0381513D01*
X0024224Y0381485D01*
X0024068Y0381461D01*
X0023911Y0381441D01*
X0023753Y0381425D01*
X0023596Y0381413D01*
X0023437Y0381405D01*
X0023279Y0381401D01*
X0023121Y0381401D01*
X0022963Y0381405D01*
X0022804Y0381413D01*
X0022647Y0381425D01*
X0022489Y0381441D01*
X0022332Y0381461D01*
X0022176Y0381485D01*
X0022020Y0381513D01*
X0021865Y0381544D01*
X0021710Y0381580D01*
X0021557Y0381619D01*
X0021405Y0381662D01*
X0021254Y0381709D01*
X0021104Y0381760D01*
X0020955Y0381815D01*
X0020808Y0381873D01*
X0020662Y0381935D01*
X0020518Y0382000D01*
X0020376Y0382070D01*
X0020235Y0382142D01*
X0020096Y0382219D01*
X0019960Y0382298D01*
X0019825Y0382382D01*
X0019692Y0382468D01*
X0019562Y0382558D01*
X0019434Y0382651D01*
X0019308Y0382747D01*
X0019185Y0382847D01*
X0019064Y0382949D01*
X0018946Y0383054D01*
X0018831Y0383163D01*
X0018718Y0383274D01*
X0018608Y0383388D01*
X0018501Y0383505D01*
X0018397Y0383624D01*
X0018296Y0383746D01*
X0018199Y0383871D01*
X0018104Y0383998D01*
X0018013Y0384127D01*
X0017924Y0384258D01*
X0017840Y0384392D01*
X0017758Y0384528D01*
X0017680Y0384665D01*
X0017606Y0384805D01*
X0017535Y0384947D01*
X0017467Y0385090D01*
X0017403Y0385235D01*
X0017343Y0385381D01*
X0017287Y0385529D01*
X0017234Y0385678D01*
X0017185Y0385829D01*
X0017140Y0385981D01*
X0017099Y0386134D01*
X0017061Y0386287D01*
X0017028Y0386442D01*
X0016998Y0386598D01*
X0016972Y0386754D01*
X0016951Y0386911D01*
X0016933Y0387068D01*
X0016919Y0387226D01*
X0016909Y0387384D01*
X0016903Y0387542D01*
X0016901Y0387700D01*
X0700901Y0092700D02*
X0700903Y0092858D01*
X0700909Y0093016D01*
X0700919Y0093174D01*
X0700933Y0093332D01*
X0700951Y0093489D01*
X0700972Y0093646D01*
X0700998Y0093802D01*
X0701028Y0093958D01*
X0701061Y0094113D01*
X0701099Y0094266D01*
X0701140Y0094419D01*
X0701185Y0094571D01*
X0701234Y0094722D01*
X0701287Y0094871D01*
X0701343Y0095019D01*
X0701403Y0095165D01*
X0701467Y0095310D01*
X0701535Y0095453D01*
X0701606Y0095595D01*
X0701680Y0095735D01*
X0701758Y0095872D01*
X0701840Y0096008D01*
X0701924Y0096142D01*
X0702013Y0096273D01*
X0702104Y0096402D01*
X0702199Y0096529D01*
X0702296Y0096654D01*
X0702397Y0096776D01*
X0702501Y0096895D01*
X0702608Y0097012D01*
X0702718Y0097126D01*
X0702831Y0097237D01*
X0702946Y0097346D01*
X0703064Y0097451D01*
X0703185Y0097553D01*
X0703308Y0097653D01*
X0703434Y0097749D01*
X0703562Y0097842D01*
X0703692Y0097932D01*
X0703825Y0098018D01*
X0703960Y0098102D01*
X0704096Y0098181D01*
X0704235Y0098258D01*
X0704376Y0098330D01*
X0704518Y0098400D01*
X0704662Y0098465D01*
X0704808Y0098527D01*
X0704955Y0098585D01*
X0705104Y0098640D01*
X0705254Y0098691D01*
X0705405Y0098738D01*
X0705557Y0098781D01*
X0705710Y0098820D01*
X0705865Y0098856D01*
X0706020Y0098887D01*
X0706176Y0098915D01*
X0706332Y0098939D01*
X0706489Y0098959D01*
X0706647Y0098975D01*
X0706804Y0098987D01*
X0706963Y0098995D01*
X0707121Y0098999D01*
X0707279Y0098999D01*
X0707437Y0098995D01*
X0707596Y0098987D01*
X0707753Y0098975D01*
X0707911Y0098959D01*
X0708068Y0098939D01*
X0708224Y0098915D01*
X0708380Y0098887D01*
X0708535Y0098856D01*
X0708690Y0098820D01*
X0708843Y0098781D01*
X0708995Y0098738D01*
X0709146Y0098691D01*
X0709296Y0098640D01*
X0709445Y0098585D01*
X0709592Y0098527D01*
X0709738Y0098465D01*
X0709882Y0098400D01*
X0710024Y0098330D01*
X0710165Y0098258D01*
X0710304Y0098181D01*
X0710440Y0098102D01*
X0710575Y0098018D01*
X0710708Y0097932D01*
X0710838Y0097842D01*
X0710966Y0097749D01*
X0711092Y0097653D01*
X0711215Y0097553D01*
X0711336Y0097451D01*
X0711454Y0097346D01*
X0711569Y0097237D01*
X0711682Y0097126D01*
X0711792Y0097012D01*
X0711899Y0096895D01*
X0712003Y0096776D01*
X0712104Y0096654D01*
X0712201Y0096529D01*
X0712296Y0096402D01*
X0712387Y0096273D01*
X0712476Y0096142D01*
X0712560Y0096008D01*
X0712642Y0095872D01*
X0712720Y0095735D01*
X0712794Y0095595D01*
X0712865Y0095453D01*
X0712933Y0095310D01*
X0712997Y0095165D01*
X0713057Y0095019D01*
X0713113Y0094871D01*
X0713166Y0094722D01*
X0713215Y0094571D01*
X0713260Y0094419D01*
X0713301Y0094266D01*
X0713339Y0094113D01*
X0713372Y0093958D01*
X0713402Y0093802D01*
X0713428Y0093646D01*
X0713449Y0093489D01*
X0713467Y0093332D01*
X0713481Y0093174D01*
X0713491Y0093016D01*
X0713497Y0092858D01*
X0713499Y0092700D01*
X0713497Y0092542D01*
X0713491Y0092384D01*
X0713481Y0092226D01*
X0713467Y0092068D01*
X0713449Y0091911D01*
X0713428Y0091754D01*
X0713402Y0091598D01*
X0713372Y0091442D01*
X0713339Y0091287D01*
X0713301Y0091134D01*
X0713260Y0090981D01*
X0713215Y0090829D01*
X0713166Y0090678D01*
X0713113Y0090529D01*
X0713057Y0090381D01*
X0712997Y0090235D01*
X0712933Y0090090D01*
X0712865Y0089947D01*
X0712794Y0089805D01*
X0712720Y0089665D01*
X0712642Y0089528D01*
X0712560Y0089392D01*
X0712476Y0089258D01*
X0712387Y0089127D01*
X0712296Y0088998D01*
X0712201Y0088871D01*
X0712104Y0088746D01*
X0712003Y0088624D01*
X0711899Y0088505D01*
X0711792Y0088388D01*
X0711682Y0088274D01*
X0711569Y0088163D01*
X0711454Y0088054D01*
X0711336Y0087949D01*
X0711215Y0087847D01*
X0711092Y0087747D01*
X0710966Y0087651D01*
X0710838Y0087558D01*
X0710708Y0087468D01*
X0710575Y0087382D01*
X0710440Y0087298D01*
X0710304Y0087219D01*
X0710165Y0087142D01*
X0710024Y0087070D01*
X0709882Y0087000D01*
X0709738Y0086935D01*
X0709592Y0086873D01*
X0709445Y0086815D01*
X0709296Y0086760D01*
X0709146Y0086709D01*
X0708995Y0086662D01*
X0708843Y0086619D01*
X0708690Y0086580D01*
X0708535Y0086544D01*
X0708380Y0086513D01*
X0708224Y0086485D01*
X0708068Y0086461D01*
X0707911Y0086441D01*
X0707753Y0086425D01*
X0707596Y0086413D01*
X0707437Y0086405D01*
X0707279Y0086401D01*
X0707121Y0086401D01*
X0706963Y0086405D01*
X0706804Y0086413D01*
X0706647Y0086425D01*
X0706489Y0086441D01*
X0706332Y0086461D01*
X0706176Y0086485D01*
X0706020Y0086513D01*
X0705865Y0086544D01*
X0705710Y0086580D01*
X0705557Y0086619D01*
X0705405Y0086662D01*
X0705254Y0086709D01*
X0705104Y0086760D01*
X0704955Y0086815D01*
X0704808Y0086873D01*
X0704662Y0086935D01*
X0704518Y0087000D01*
X0704376Y0087070D01*
X0704235Y0087142D01*
X0704096Y0087219D01*
X0703960Y0087298D01*
X0703825Y0087382D01*
X0703692Y0087468D01*
X0703562Y0087558D01*
X0703434Y0087651D01*
X0703308Y0087747D01*
X0703185Y0087847D01*
X0703064Y0087949D01*
X0702946Y0088054D01*
X0702831Y0088163D01*
X0702718Y0088274D01*
X0702608Y0088388D01*
X0702501Y0088505D01*
X0702397Y0088624D01*
X0702296Y0088746D01*
X0702199Y0088871D01*
X0702104Y0088998D01*
X0702013Y0089127D01*
X0701924Y0089258D01*
X0701840Y0089392D01*
X0701758Y0089528D01*
X0701680Y0089665D01*
X0701606Y0089805D01*
X0701535Y0089947D01*
X0701467Y0090090D01*
X0701403Y0090235D01*
X0701343Y0090381D01*
X0701287Y0090529D01*
X0701234Y0090678D01*
X0701185Y0090829D01*
X0701140Y0090981D01*
X0701099Y0091134D01*
X0701061Y0091287D01*
X0701028Y0091442D01*
X0700998Y0091598D01*
X0700972Y0091754D01*
X0700951Y0091911D01*
X0700933Y0092068D01*
X0700919Y0092226D01*
X0700909Y0092384D01*
X0700903Y0092542D01*
X0700901Y0092700D01*
X0803401Y0025200D02*
X0803403Y0025358D01*
X0803409Y0025516D01*
X0803419Y0025674D01*
X0803433Y0025832D01*
X0803451Y0025989D01*
X0803472Y0026146D01*
X0803498Y0026302D01*
X0803528Y0026458D01*
X0803561Y0026613D01*
X0803599Y0026766D01*
X0803640Y0026919D01*
X0803685Y0027071D01*
X0803734Y0027222D01*
X0803787Y0027371D01*
X0803843Y0027519D01*
X0803903Y0027665D01*
X0803967Y0027810D01*
X0804035Y0027953D01*
X0804106Y0028095D01*
X0804180Y0028235D01*
X0804258Y0028372D01*
X0804340Y0028508D01*
X0804424Y0028642D01*
X0804513Y0028773D01*
X0804604Y0028902D01*
X0804699Y0029029D01*
X0804796Y0029154D01*
X0804897Y0029276D01*
X0805001Y0029395D01*
X0805108Y0029512D01*
X0805218Y0029626D01*
X0805331Y0029737D01*
X0805446Y0029846D01*
X0805564Y0029951D01*
X0805685Y0030053D01*
X0805808Y0030153D01*
X0805934Y0030249D01*
X0806062Y0030342D01*
X0806192Y0030432D01*
X0806325Y0030518D01*
X0806460Y0030602D01*
X0806596Y0030681D01*
X0806735Y0030758D01*
X0806876Y0030830D01*
X0807018Y0030900D01*
X0807162Y0030965D01*
X0807308Y0031027D01*
X0807455Y0031085D01*
X0807604Y0031140D01*
X0807754Y0031191D01*
X0807905Y0031238D01*
X0808057Y0031281D01*
X0808210Y0031320D01*
X0808365Y0031356D01*
X0808520Y0031387D01*
X0808676Y0031415D01*
X0808832Y0031439D01*
X0808989Y0031459D01*
X0809147Y0031475D01*
X0809304Y0031487D01*
X0809463Y0031495D01*
X0809621Y0031499D01*
X0809779Y0031499D01*
X0809937Y0031495D01*
X0810096Y0031487D01*
X0810253Y0031475D01*
X0810411Y0031459D01*
X0810568Y0031439D01*
X0810724Y0031415D01*
X0810880Y0031387D01*
X0811035Y0031356D01*
X0811190Y0031320D01*
X0811343Y0031281D01*
X0811495Y0031238D01*
X0811646Y0031191D01*
X0811796Y0031140D01*
X0811945Y0031085D01*
X0812092Y0031027D01*
X0812238Y0030965D01*
X0812382Y0030900D01*
X0812524Y0030830D01*
X0812665Y0030758D01*
X0812804Y0030681D01*
X0812940Y0030602D01*
X0813075Y0030518D01*
X0813208Y0030432D01*
X0813338Y0030342D01*
X0813466Y0030249D01*
X0813592Y0030153D01*
X0813715Y0030053D01*
X0813836Y0029951D01*
X0813954Y0029846D01*
X0814069Y0029737D01*
X0814182Y0029626D01*
X0814292Y0029512D01*
X0814399Y0029395D01*
X0814503Y0029276D01*
X0814604Y0029154D01*
X0814701Y0029029D01*
X0814796Y0028902D01*
X0814887Y0028773D01*
X0814976Y0028642D01*
X0815060Y0028508D01*
X0815142Y0028372D01*
X0815220Y0028235D01*
X0815294Y0028095D01*
X0815365Y0027953D01*
X0815433Y0027810D01*
X0815497Y0027665D01*
X0815557Y0027519D01*
X0815613Y0027371D01*
X0815666Y0027222D01*
X0815715Y0027071D01*
X0815760Y0026919D01*
X0815801Y0026766D01*
X0815839Y0026613D01*
X0815872Y0026458D01*
X0815902Y0026302D01*
X0815928Y0026146D01*
X0815949Y0025989D01*
X0815967Y0025832D01*
X0815981Y0025674D01*
X0815991Y0025516D01*
X0815997Y0025358D01*
X0815999Y0025200D01*
X0815997Y0025042D01*
X0815991Y0024884D01*
X0815981Y0024726D01*
X0815967Y0024568D01*
X0815949Y0024411D01*
X0815928Y0024254D01*
X0815902Y0024098D01*
X0815872Y0023942D01*
X0815839Y0023787D01*
X0815801Y0023634D01*
X0815760Y0023481D01*
X0815715Y0023329D01*
X0815666Y0023178D01*
X0815613Y0023029D01*
X0815557Y0022881D01*
X0815497Y0022735D01*
X0815433Y0022590D01*
X0815365Y0022447D01*
X0815294Y0022305D01*
X0815220Y0022165D01*
X0815142Y0022028D01*
X0815060Y0021892D01*
X0814976Y0021758D01*
X0814887Y0021627D01*
X0814796Y0021498D01*
X0814701Y0021371D01*
X0814604Y0021246D01*
X0814503Y0021124D01*
X0814399Y0021005D01*
X0814292Y0020888D01*
X0814182Y0020774D01*
X0814069Y0020663D01*
X0813954Y0020554D01*
X0813836Y0020449D01*
X0813715Y0020347D01*
X0813592Y0020247D01*
X0813466Y0020151D01*
X0813338Y0020058D01*
X0813208Y0019968D01*
X0813075Y0019882D01*
X0812940Y0019798D01*
X0812804Y0019719D01*
X0812665Y0019642D01*
X0812524Y0019570D01*
X0812382Y0019500D01*
X0812238Y0019435D01*
X0812092Y0019373D01*
X0811945Y0019315D01*
X0811796Y0019260D01*
X0811646Y0019209D01*
X0811495Y0019162D01*
X0811343Y0019119D01*
X0811190Y0019080D01*
X0811035Y0019044D01*
X0810880Y0019013D01*
X0810724Y0018985D01*
X0810568Y0018961D01*
X0810411Y0018941D01*
X0810253Y0018925D01*
X0810096Y0018913D01*
X0809937Y0018905D01*
X0809779Y0018901D01*
X0809621Y0018901D01*
X0809463Y0018905D01*
X0809304Y0018913D01*
X0809147Y0018925D01*
X0808989Y0018941D01*
X0808832Y0018961D01*
X0808676Y0018985D01*
X0808520Y0019013D01*
X0808365Y0019044D01*
X0808210Y0019080D01*
X0808057Y0019119D01*
X0807905Y0019162D01*
X0807754Y0019209D01*
X0807604Y0019260D01*
X0807455Y0019315D01*
X0807308Y0019373D01*
X0807162Y0019435D01*
X0807018Y0019500D01*
X0806876Y0019570D01*
X0806735Y0019642D01*
X0806596Y0019719D01*
X0806460Y0019798D01*
X0806325Y0019882D01*
X0806192Y0019968D01*
X0806062Y0020058D01*
X0805934Y0020151D01*
X0805808Y0020247D01*
X0805685Y0020347D01*
X0805564Y0020449D01*
X0805446Y0020554D01*
X0805331Y0020663D01*
X0805218Y0020774D01*
X0805108Y0020888D01*
X0805001Y0021005D01*
X0804897Y0021124D01*
X0804796Y0021246D01*
X0804699Y0021371D01*
X0804604Y0021498D01*
X0804513Y0021627D01*
X0804424Y0021758D01*
X0804340Y0021892D01*
X0804258Y0022028D01*
X0804180Y0022165D01*
X0804106Y0022305D01*
X0804035Y0022447D01*
X0803967Y0022590D01*
X0803903Y0022735D01*
X0803843Y0022881D01*
X0803787Y0023029D01*
X0803734Y0023178D01*
X0803685Y0023329D01*
X0803640Y0023481D01*
X0803599Y0023634D01*
X0803561Y0023787D01*
X0803528Y0023942D01*
X0803498Y0024098D01*
X0803472Y0024254D01*
X0803451Y0024411D01*
X0803433Y0024568D01*
X0803419Y0024726D01*
X0803409Y0024884D01*
X0803403Y0025042D01*
X0803401Y0025200D01*
X0804401Y0385200D02*
X0804403Y0385358D01*
X0804409Y0385516D01*
X0804419Y0385674D01*
X0804433Y0385832D01*
X0804451Y0385989D01*
X0804472Y0386146D01*
X0804498Y0386302D01*
X0804528Y0386458D01*
X0804561Y0386613D01*
X0804599Y0386766D01*
X0804640Y0386919D01*
X0804685Y0387071D01*
X0804734Y0387222D01*
X0804787Y0387371D01*
X0804843Y0387519D01*
X0804903Y0387665D01*
X0804967Y0387810D01*
X0805035Y0387953D01*
X0805106Y0388095D01*
X0805180Y0388235D01*
X0805258Y0388372D01*
X0805340Y0388508D01*
X0805424Y0388642D01*
X0805513Y0388773D01*
X0805604Y0388902D01*
X0805699Y0389029D01*
X0805796Y0389154D01*
X0805897Y0389276D01*
X0806001Y0389395D01*
X0806108Y0389512D01*
X0806218Y0389626D01*
X0806331Y0389737D01*
X0806446Y0389846D01*
X0806564Y0389951D01*
X0806685Y0390053D01*
X0806808Y0390153D01*
X0806934Y0390249D01*
X0807062Y0390342D01*
X0807192Y0390432D01*
X0807325Y0390518D01*
X0807460Y0390602D01*
X0807596Y0390681D01*
X0807735Y0390758D01*
X0807876Y0390830D01*
X0808018Y0390900D01*
X0808162Y0390965D01*
X0808308Y0391027D01*
X0808455Y0391085D01*
X0808604Y0391140D01*
X0808754Y0391191D01*
X0808905Y0391238D01*
X0809057Y0391281D01*
X0809210Y0391320D01*
X0809365Y0391356D01*
X0809520Y0391387D01*
X0809676Y0391415D01*
X0809832Y0391439D01*
X0809989Y0391459D01*
X0810147Y0391475D01*
X0810304Y0391487D01*
X0810463Y0391495D01*
X0810621Y0391499D01*
X0810779Y0391499D01*
X0810937Y0391495D01*
X0811096Y0391487D01*
X0811253Y0391475D01*
X0811411Y0391459D01*
X0811568Y0391439D01*
X0811724Y0391415D01*
X0811880Y0391387D01*
X0812035Y0391356D01*
X0812190Y0391320D01*
X0812343Y0391281D01*
X0812495Y0391238D01*
X0812646Y0391191D01*
X0812796Y0391140D01*
X0812945Y0391085D01*
X0813092Y0391027D01*
X0813238Y0390965D01*
X0813382Y0390900D01*
X0813524Y0390830D01*
X0813665Y0390758D01*
X0813804Y0390681D01*
X0813940Y0390602D01*
X0814075Y0390518D01*
X0814208Y0390432D01*
X0814338Y0390342D01*
X0814466Y0390249D01*
X0814592Y0390153D01*
X0814715Y0390053D01*
X0814836Y0389951D01*
X0814954Y0389846D01*
X0815069Y0389737D01*
X0815182Y0389626D01*
X0815292Y0389512D01*
X0815399Y0389395D01*
X0815503Y0389276D01*
X0815604Y0389154D01*
X0815701Y0389029D01*
X0815796Y0388902D01*
X0815887Y0388773D01*
X0815976Y0388642D01*
X0816060Y0388508D01*
X0816142Y0388372D01*
X0816220Y0388235D01*
X0816294Y0388095D01*
X0816365Y0387953D01*
X0816433Y0387810D01*
X0816497Y0387665D01*
X0816557Y0387519D01*
X0816613Y0387371D01*
X0816666Y0387222D01*
X0816715Y0387071D01*
X0816760Y0386919D01*
X0816801Y0386766D01*
X0816839Y0386613D01*
X0816872Y0386458D01*
X0816902Y0386302D01*
X0816928Y0386146D01*
X0816949Y0385989D01*
X0816967Y0385832D01*
X0816981Y0385674D01*
X0816991Y0385516D01*
X0816997Y0385358D01*
X0816999Y0385200D01*
X0816997Y0385042D01*
X0816991Y0384884D01*
X0816981Y0384726D01*
X0816967Y0384568D01*
X0816949Y0384411D01*
X0816928Y0384254D01*
X0816902Y0384098D01*
X0816872Y0383942D01*
X0816839Y0383787D01*
X0816801Y0383634D01*
X0816760Y0383481D01*
X0816715Y0383329D01*
X0816666Y0383178D01*
X0816613Y0383029D01*
X0816557Y0382881D01*
X0816497Y0382735D01*
X0816433Y0382590D01*
X0816365Y0382447D01*
X0816294Y0382305D01*
X0816220Y0382165D01*
X0816142Y0382028D01*
X0816060Y0381892D01*
X0815976Y0381758D01*
X0815887Y0381627D01*
X0815796Y0381498D01*
X0815701Y0381371D01*
X0815604Y0381246D01*
X0815503Y0381124D01*
X0815399Y0381005D01*
X0815292Y0380888D01*
X0815182Y0380774D01*
X0815069Y0380663D01*
X0814954Y0380554D01*
X0814836Y0380449D01*
X0814715Y0380347D01*
X0814592Y0380247D01*
X0814466Y0380151D01*
X0814338Y0380058D01*
X0814208Y0379968D01*
X0814075Y0379882D01*
X0813940Y0379798D01*
X0813804Y0379719D01*
X0813665Y0379642D01*
X0813524Y0379570D01*
X0813382Y0379500D01*
X0813238Y0379435D01*
X0813092Y0379373D01*
X0812945Y0379315D01*
X0812796Y0379260D01*
X0812646Y0379209D01*
X0812495Y0379162D01*
X0812343Y0379119D01*
X0812190Y0379080D01*
X0812035Y0379044D01*
X0811880Y0379013D01*
X0811724Y0378985D01*
X0811568Y0378961D01*
X0811411Y0378941D01*
X0811253Y0378925D01*
X0811096Y0378913D01*
X0810937Y0378905D01*
X0810779Y0378901D01*
X0810621Y0378901D01*
X0810463Y0378905D01*
X0810304Y0378913D01*
X0810147Y0378925D01*
X0809989Y0378941D01*
X0809832Y0378961D01*
X0809676Y0378985D01*
X0809520Y0379013D01*
X0809365Y0379044D01*
X0809210Y0379080D01*
X0809057Y0379119D01*
X0808905Y0379162D01*
X0808754Y0379209D01*
X0808604Y0379260D01*
X0808455Y0379315D01*
X0808308Y0379373D01*
X0808162Y0379435D01*
X0808018Y0379500D01*
X0807876Y0379570D01*
X0807735Y0379642D01*
X0807596Y0379719D01*
X0807460Y0379798D01*
X0807325Y0379882D01*
X0807192Y0379968D01*
X0807062Y0380058D01*
X0806934Y0380151D01*
X0806808Y0380247D01*
X0806685Y0380347D01*
X0806564Y0380449D01*
X0806446Y0380554D01*
X0806331Y0380663D01*
X0806218Y0380774D01*
X0806108Y0380888D01*
X0806001Y0381005D01*
X0805897Y0381124D01*
X0805796Y0381246D01*
X0805699Y0381371D01*
X0805604Y0381498D01*
X0805513Y0381627D01*
X0805424Y0381758D01*
X0805340Y0381892D01*
X0805258Y0382028D01*
X0805180Y0382165D01*
X0805106Y0382305D01*
X0805035Y0382447D01*
X0804967Y0382590D01*
X0804903Y0382735D01*
X0804843Y0382881D01*
X0804787Y0383029D01*
X0804734Y0383178D01*
X0804685Y0383329D01*
X0804640Y0383481D01*
X0804599Y0383634D01*
X0804561Y0383787D01*
X0804528Y0383942D01*
X0804498Y0384098D01*
X0804472Y0384254D01*
X0804451Y0384411D01*
X0804433Y0384568D01*
X0804419Y0384726D01*
X0804409Y0384884D01*
X0804403Y0385042D01*
X0804401Y0385200D01*
D11*
X0591543Y0381725D02*
X0591543Y0374675D01*
X0571857Y0374675D02*
X0571857Y0381725D01*
X0538043Y0349725D02*
X0538043Y0342675D01*
X0518357Y0342675D02*
X0518357Y0349725D01*
X0440543Y0313225D02*
X0440543Y0306175D01*
X0420857Y0306175D02*
X0420857Y0313225D01*
X0352043Y0314225D02*
X0352043Y0307175D01*
X0332357Y0307175D02*
X0332357Y0314225D01*
X0315543Y0359175D02*
X0315543Y0366225D01*
X0295857Y0366225D02*
X0295857Y0359175D01*
X0265043Y0359675D02*
X0265043Y0366725D01*
X0245357Y0366725D02*
X0245357Y0359675D01*
X0399357Y0362175D02*
X0399357Y0369225D01*
X0419043Y0369225D02*
X0419043Y0362175D01*
D12*
X0387700Y0307700D03*
X0387700Y0267700D03*
X0143700Y0272200D03*
X0113200Y0263700D03*
X0103200Y0263700D03*
X0108200Y0271200D03*
X0117200Y0290200D03*
X0083700Y0291200D03*
X0070200Y0302200D03*
X0070200Y0322200D03*
X0117200Y0330200D03*
X0135200Y0349700D03*
X0095200Y0349700D03*
X0038200Y0280700D03*
X0061200Y0272200D03*
X0061200Y0252200D03*
X0083700Y0251200D03*
X0093200Y0235200D03*
X0077700Y0229200D03*
X0057700Y0229200D03*
X0037200Y0223200D03*
X0038200Y0240700D03*
X0110200Y0235200D03*
X0110200Y0195200D03*
X0093200Y0195200D03*
X0136200Y0192200D03*
X0136200Y0152200D03*
X0037200Y0183200D03*
X0686700Y0250200D03*
X0703700Y0243200D03*
X0734200Y0246700D03*
X0739200Y0254200D03*
X0744200Y0246700D03*
X0703700Y0263200D03*
X0739200Y0271200D03*
X0705200Y0283700D03*
X0686700Y0290200D03*
X0739200Y0311200D03*
X0705200Y0323700D03*
X0796700Y0304200D03*
X0796700Y0264200D03*
X0738700Y0214700D03*
X0717700Y0216700D03*
X0697200Y0212200D03*
X0697200Y0192200D03*
X0717700Y0176700D03*
X0738700Y0174700D03*
X0761700Y0178700D03*
X0779700Y0160700D03*
X0789200Y0128200D03*
X0789200Y0088200D03*
X0813700Y0194200D03*
X0779700Y0200700D03*
X0761700Y0198700D03*
D13*
X0596700Y0094212D03*
X0596700Y0083188D03*
X0507700Y0084688D03*
X0507700Y0095712D03*
X0416200Y0098212D03*
X0416200Y0087188D03*
X0326700Y0084688D03*
X0326700Y0095712D03*
X0238700Y0098212D03*
X0238700Y0087188D03*
D14*
X0143700Y0280200D03*
X0805700Y0194200D03*
D15*
X0786200Y0211700D03*
X0786200Y0241700D03*
X0814700Y0244700D03*
X0814700Y0274700D03*
X0138700Y0247700D03*
X0138700Y0217700D03*
X0049200Y0301200D03*
X0049200Y0331200D03*
D16*
X0155700Y0320325D02*
X0155700Y0312075D01*
X0155700Y0372075D02*
X0155700Y0380325D01*
X0766200Y0378825D02*
X0766200Y0370575D01*
X0766200Y0318825D02*
X0766200Y0310575D01*
D17*
X0581196Y0099346D03*
X0568204Y0099346D03*
X0568204Y0080054D03*
X0581196Y0080054D03*
X0490196Y0080554D03*
X0477204Y0080554D03*
X0477204Y0099846D03*
X0490196Y0099846D03*
X0400696Y0100346D03*
X0387704Y0100346D03*
X0387704Y0081054D03*
X0400696Y0081054D03*
X0311696Y0080554D03*
X0298704Y0080554D03*
X0298704Y0099846D03*
X0311696Y0099846D03*
X0221196Y0099846D03*
X0208204Y0099846D03*
X0208204Y0080554D03*
X0221196Y0080554D03*
D18*
X0513602Y0265700D03*
X0524798Y0265700D03*
X0541102Y0265700D03*
X0552298Y0265700D03*
D19*
X0659700Y0362600D02*
X0659700Y0367800D01*
X0669700Y0367800D02*
X0669700Y0362600D01*
X0679700Y0362600D02*
X0679700Y0367800D01*
X0103700Y0376100D02*
X0103700Y0381300D01*
X0093700Y0381300D02*
X0093700Y0376100D01*
X0083700Y0376100D02*
X0083700Y0381300D01*
D20*
X0192200Y0066096D03*
X0183589Y0062962D03*
X0179007Y0055026D03*
X0180599Y0046002D03*
X0187618Y0040112D03*
X0196782Y0040112D03*
X0203801Y0046002D03*
X0205393Y0055026D03*
X0200811Y0062962D03*
X0224007Y0055026D03*
X0225599Y0046002D03*
X0232618Y0040112D03*
X0241782Y0040112D03*
X0248801Y0046002D03*
X0250393Y0055026D03*
X0245811Y0062962D03*
X0237200Y0066096D03*
X0228589Y0062962D03*
X0269007Y0055026D03*
X0270599Y0046002D03*
X0277618Y0040112D03*
X0286782Y0040112D03*
X0293801Y0046002D03*
X0295393Y0055026D03*
X0290811Y0062962D03*
X0282200Y0066096D03*
X0273589Y0062962D03*
X0314007Y0055026D03*
X0315599Y0046002D03*
X0322618Y0040112D03*
X0331782Y0040112D03*
X0338801Y0046002D03*
X0340393Y0055026D03*
X0335811Y0062962D03*
X0327200Y0066096D03*
X0318589Y0062962D03*
X0359007Y0055026D03*
X0360599Y0046002D03*
X0367618Y0040112D03*
X0376782Y0040112D03*
X0383801Y0046002D03*
X0385393Y0055026D03*
X0380811Y0062962D03*
X0372200Y0066096D03*
X0363589Y0062962D03*
X0404007Y0055026D03*
X0405599Y0046002D03*
X0412618Y0040112D03*
X0421782Y0040112D03*
X0428801Y0046002D03*
X0430393Y0055026D03*
X0425811Y0062962D03*
X0417200Y0066096D03*
X0408589Y0062962D03*
X0449007Y0055026D03*
X0450599Y0046002D03*
X0457618Y0040112D03*
X0466782Y0040112D03*
X0473801Y0046002D03*
X0475393Y0055026D03*
X0470811Y0062962D03*
X0462200Y0066096D03*
X0453589Y0062962D03*
X0494007Y0055026D03*
X0495599Y0046002D03*
X0502618Y0040112D03*
X0511782Y0040112D03*
X0518801Y0046002D03*
X0520393Y0055026D03*
X0515811Y0062962D03*
X0507200Y0066096D03*
X0498589Y0062962D03*
X0539007Y0055026D03*
X0540599Y0046002D03*
X0547618Y0040112D03*
X0556782Y0040112D03*
X0563801Y0046002D03*
X0565393Y0055026D03*
X0560811Y0062962D03*
X0552200Y0066096D03*
X0543589Y0062962D03*
X0584007Y0055026D03*
X0585599Y0046002D03*
X0592618Y0040112D03*
X0601782Y0040112D03*
X0608801Y0046002D03*
X0610393Y0055026D03*
X0605811Y0062962D03*
X0597200Y0066096D03*
X0588589Y0062962D03*
D21*
X0664584Y0079477D03*
X0680278Y0057109D03*
X0706579Y0047488D03*
X0732701Y0055839D03*
X0749350Y0077641D03*
X0664630Y0107529D03*
X0680004Y0129192D03*
X0707139Y0137805D03*
X0734055Y0128421D03*
X0129350Y0082641D03*
X0112701Y0060839D03*
X0086579Y0052488D03*
X0060278Y0062109D03*
X0044584Y0084477D03*
X0044630Y0112529D03*
X0060004Y0134192D03*
X0087139Y0142805D03*
X0114055Y0133421D03*
D22*
X0466700Y0255700D03*
X0466700Y0265700D03*
X0476700Y0265700D03*
X0486700Y0265700D03*
X0496700Y0265700D03*
X0496700Y0255700D03*
X0486700Y0255700D03*
X0476700Y0255700D03*
D23*
X0810700Y0385200D03*
X0707200Y0092700D03*
X0809700Y0025200D03*
X0087200Y0097700D03*
X0025200Y0023700D03*
X0023200Y0387700D03*
D24*
X0209700Y0284200D02*
X0215700Y0284200D01*
X0215700Y0274200D02*
X0209700Y0274200D01*
X0209700Y0264200D02*
X0215700Y0264200D01*
D25*
X0264200Y0255200D03*
D26*
X0264200Y0275200D03*
D27*
X0303700Y0218700D03*
X0339200Y0208200D03*
X0368700Y0203200D03*
X0368700Y0218700D03*
X0417200Y0219200D03*
X0476700Y0220200D03*
X0476700Y0202200D03*
X0556700Y0253200D03*
X0538200Y0309700D03*
X0615200Y0321200D03*
X0639200Y0345200D03*
X0417200Y0260200D03*
D28*
X0548700Y0221700D03*
X0548700Y0203700D03*
X0544200Y0182700D03*
X0580200Y0182700D03*
X0491700Y0182700D03*
X0471700Y0182700D03*
X0403700Y0185700D03*
X0391200Y0180200D03*
X0312700Y0185700D03*
X0298200Y0182700D03*
X0285700Y0202200D03*
X0285700Y0221700D03*
X0211700Y0182700D03*
X0395200Y0134200D03*
X0551700Y0117200D03*
D29*
X0463200Y0117200D03*
X0391200Y0122700D03*
X0290200Y0117200D03*
X0202700Y0117200D03*
D30*
X0213700Y0127800D03*
X0256000Y0126900D03*
X0281200Y0130500D03*
X0309100Y0138600D03*
X0316300Y0145800D03*
X0318100Y0126900D03*
X0360400Y0120600D03*
X0371200Y0126900D03*
X0371200Y0132300D03*
X0402700Y0128700D03*
X0426100Y0126900D03*
X0433300Y0130500D03*
X0443200Y0138600D03*
X0436000Y0145800D03*
X0432400Y0153900D03*
X0385600Y0153900D03*
X0371200Y0162900D03*
X0471100Y0126900D03*
X0493600Y0130500D03*
X0508000Y0123300D03*
X0525100Y0135900D03*
X0512500Y0148500D03*
X0546700Y0126900D03*
X0583600Y0126900D03*
X0590800Y0100800D03*
X0589900Y0055800D03*
X0500800Y0085500D03*
X0453100Y0075600D03*
X0433300Y0078300D03*
X0429700Y0072900D03*
X0409900Y0072900D03*
X0421600Y0092700D03*
X0364000Y0071100D03*
X0347800Y0078300D03*
X0333400Y0087300D03*
X0327100Y0072000D03*
X0340600Y0066600D03*
X0296500Y0062100D03*
X0291100Y0079200D03*
X0263200Y0086400D03*
X0245200Y0090000D03*
X0235300Y0072000D03*
X0488200Y0055800D03*
X0610600Y0161100D03*
M02*
