G75*
%MOIN*%
%OFA0B0*%
%FSLAX25Y25*%
%IPPOS*%
%LPD*%
%AMOC8*
5,1,8,0,0,1.08239X$1,22.5*
%
%ADD10C,0.00000*%
%ADD11C,0.00400*%
%ADD12C,0.00600*%
%ADD13C,0.00500*%
D10*
X0002200Y0002700D02*
X0002200Y0407401D01*
X0832121Y0407401D01*
X0832121Y0002700D01*
X0002200Y0002700D01*
X0018901Y0023700D02*
X0018903Y0023858D01*
X0018909Y0024016D01*
X0018919Y0024174D01*
X0018933Y0024332D01*
X0018951Y0024489D01*
X0018972Y0024646D01*
X0018998Y0024802D01*
X0019028Y0024958D01*
X0019061Y0025113D01*
X0019099Y0025266D01*
X0019140Y0025419D01*
X0019185Y0025571D01*
X0019234Y0025722D01*
X0019287Y0025871D01*
X0019343Y0026019D01*
X0019403Y0026165D01*
X0019467Y0026310D01*
X0019535Y0026453D01*
X0019606Y0026595D01*
X0019680Y0026735D01*
X0019758Y0026872D01*
X0019840Y0027008D01*
X0019924Y0027142D01*
X0020013Y0027273D01*
X0020104Y0027402D01*
X0020199Y0027529D01*
X0020296Y0027654D01*
X0020397Y0027776D01*
X0020501Y0027895D01*
X0020608Y0028012D01*
X0020718Y0028126D01*
X0020831Y0028237D01*
X0020946Y0028346D01*
X0021064Y0028451D01*
X0021185Y0028553D01*
X0021308Y0028653D01*
X0021434Y0028749D01*
X0021562Y0028842D01*
X0021692Y0028932D01*
X0021825Y0029018D01*
X0021960Y0029102D01*
X0022096Y0029181D01*
X0022235Y0029258D01*
X0022376Y0029330D01*
X0022518Y0029400D01*
X0022662Y0029465D01*
X0022808Y0029527D01*
X0022955Y0029585D01*
X0023104Y0029640D01*
X0023254Y0029691D01*
X0023405Y0029738D01*
X0023557Y0029781D01*
X0023710Y0029820D01*
X0023865Y0029856D01*
X0024020Y0029887D01*
X0024176Y0029915D01*
X0024332Y0029939D01*
X0024489Y0029959D01*
X0024647Y0029975D01*
X0024804Y0029987D01*
X0024963Y0029995D01*
X0025121Y0029999D01*
X0025279Y0029999D01*
X0025437Y0029995D01*
X0025596Y0029987D01*
X0025753Y0029975D01*
X0025911Y0029959D01*
X0026068Y0029939D01*
X0026224Y0029915D01*
X0026380Y0029887D01*
X0026535Y0029856D01*
X0026690Y0029820D01*
X0026843Y0029781D01*
X0026995Y0029738D01*
X0027146Y0029691D01*
X0027296Y0029640D01*
X0027445Y0029585D01*
X0027592Y0029527D01*
X0027738Y0029465D01*
X0027882Y0029400D01*
X0028024Y0029330D01*
X0028165Y0029258D01*
X0028304Y0029181D01*
X0028440Y0029102D01*
X0028575Y0029018D01*
X0028708Y0028932D01*
X0028838Y0028842D01*
X0028966Y0028749D01*
X0029092Y0028653D01*
X0029215Y0028553D01*
X0029336Y0028451D01*
X0029454Y0028346D01*
X0029569Y0028237D01*
X0029682Y0028126D01*
X0029792Y0028012D01*
X0029899Y0027895D01*
X0030003Y0027776D01*
X0030104Y0027654D01*
X0030201Y0027529D01*
X0030296Y0027402D01*
X0030387Y0027273D01*
X0030476Y0027142D01*
X0030560Y0027008D01*
X0030642Y0026872D01*
X0030720Y0026735D01*
X0030794Y0026595D01*
X0030865Y0026453D01*
X0030933Y0026310D01*
X0030997Y0026165D01*
X0031057Y0026019D01*
X0031113Y0025871D01*
X0031166Y0025722D01*
X0031215Y0025571D01*
X0031260Y0025419D01*
X0031301Y0025266D01*
X0031339Y0025113D01*
X0031372Y0024958D01*
X0031402Y0024802D01*
X0031428Y0024646D01*
X0031449Y0024489D01*
X0031467Y0024332D01*
X0031481Y0024174D01*
X0031491Y0024016D01*
X0031497Y0023858D01*
X0031499Y0023700D01*
X0031497Y0023542D01*
X0031491Y0023384D01*
X0031481Y0023226D01*
X0031467Y0023068D01*
X0031449Y0022911D01*
X0031428Y0022754D01*
X0031402Y0022598D01*
X0031372Y0022442D01*
X0031339Y0022287D01*
X0031301Y0022134D01*
X0031260Y0021981D01*
X0031215Y0021829D01*
X0031166Y0021678D01*
X0031113Y0021529D01*
X0031057Y0021381D01*
X0030997Y0021235D01*
X0030933Y0021090D01*
X0030865Y0020947D01*
X0030794Y0020805D01*
X0030720Y0020665D01*
X0030642Y0020528D01*
X0030560Y0020392D01*
X0030476Y0020258D01*
X0030387Y0020127D01*
X0030296Y0019998D01*
X0030201Y0019871D01*
X0030104Y0019746D01*
X0030003Y0019624D01*
X0029899Y0019505D01*
X0029792Y0019388D01*
X0029682Y0019274D01*
X0029569Y0019163D01*
X0029454Y0019054D01*
X0029336Y0018949D01*
X0029215Y0018847D01*
X0029092Y0018747D01*
X0028966Y0018651D01*
X0028838Y0018558D01*
X0028708Y0018468D01*
X0028575Y0018382D01*
X0028440Y0018298D01*
X0028304Y0018219D01*
X0028165Y0018142D01*
X0028024Y0018070D01*
X0027882Y0018000D01*
X0027738Y0017935D01*
X0027592Y0017873D01*
X0027445Y0017815D01*
X0027296Y0017760D01*
X0027146Y0017709D01*
X0026995Y0017662D01*
X0026843Y0017619D01*
X0026690Y0017580D01*
X0026535Y0017544D01*
X0026380Y0017513D01*
X0026224Y0017485D01*
X0026068Y0017461D01*
X0025911Y0017441D01*
X0025753Y0017425D01*
X0025596Y0017413D01*
X0025437Y0017405D01*
X0025279Y0017401D01*
X0025121Y0017401D01*
X0024963Y0017405D01*
X0024804Y0017413D01*
X0024647Y0017425D01*
X0024489Y0017441D01*
X0024332Y0017461D01*
X0024176Y0017485D01*
X0024020Y0017513D01*
X0023865Y0017544D01*
X0023710Y0017580D01*
X0023557Y0017619D01*
X0023405Y0017662D01*
X0023254Y0017709D01*
X0023104Y0017760D01*
X0022955Y0017815D01*
X0022808Y0017873D01*
X0022662Y0017935D01*
X0022518Y0018000D01*
X0022376Y0018070D01*
X0022235Y0018142D01*
X0022096Y0018219D01*
X0021960Y0018298D01*
X0021825Y0018382D01*
X0021692Y0018468D01*
X0021562Y0018558D01*
X0021434Y0018651D01*
X0021308Y0018747D01*
X0021185Y0018847D01*
X0021064Y0018949D01*
X0020946Y0019054D01*
X0020831Y0019163D01*
X0020718Y0019274D01*
X0020608Y0019388D01*
X0020501Y0019505D01*
X0020397Y0019624D01*
X0020296Y0019746D01*
X0020199Y0019871D01*
X0020104Y0019998D01*
X0020013Y0020127D01*
X0019924Y0020258D01*
X0019840Y0020392D01*
X0019758Y0020528D01*
X0019680Y0020665D01*
X0019606Y0020805D01*
X0019535Y0020947D01*
X0019467Y0021090D01*
X0019403Y0021235D01*
X0019343Y0021381D01*
X0019287Y0021529D01*
X0019234Y0021678D01*
X0019185Y0021829D01*
X0019140Y0021981D01*
X0019099Y0022134D01*
X0019061Y0022287D01*
X0019028Y0022442D01*
X0018998Y0022598D01*
X0018972Y0022754D01*
X0018951Y0022911D01*
X0018933Y0023068D01*
X0018919Y0023226D01*
X0018909Y0023384D01*
X0018903Y0023542D01*
X0018901Y0023700D01*
X0080901Y0097700D02*
X0080903Y0097858D01*
X0080909Y0098016D01*
X0080919Y0098174D01*
X0080933Y0098332D01*
X0080951Y0098489D01*
X0080972Y0098646D01*
X0080998Y0098802D01*
X0081028Y0098958D01*
X0081061Y0099113D01*
X0081099Y0099266D01*
X0081140Y0099419D01*
X0081185Y0099571D01*
X0081234Y0099722D01*
X0081287Y0099871D01*
X0081343Y0100019D01*
X0081403Y0100165D01*
X0081467Y0100310D01*
X0081535Y0100453D01*
X0081606Y0100595D01*
X0081680Y0100735D01*
X0081758Y0100872D01*
X0081840Y0101008D01*
X0081924Y0101142D01*
X0082013Y0101273D01*
X0082104Y0101402D01*
X0082199Y0101529D01*
X0082296Y0101654D01*
X0082397Y0101776D01*
X0082501Y0101895D01*
X0082608Y0102012D01*
X0082718Y0102126D01*
X0082831Y0102237D01*
X0082946Y0102346D01*
X0083064Y0102451D01*
X0083185Y0102553D01*
X0083308Y0102653D01*
X0083434Y0102749D01*
X0083562Y0102842D01*
X0083692Y0102932D01*
X0083825Y0103018D01*
X0083960Y0103102D01*
X0084096Y0103181D01*
X0084235Y0103258D01*
X0084376Y0103330D01*
X0084518Y0103400D01*
X0084662Y0103465D01*
X0084808Y0103527D01*
X0084955Y0103585D01*
X0085104Y0103640D01*
X0085254Y0103691D01*
X0085405Y0103738D01*
X0085557Y0103781D01*
X0085710Y0103820D01*
X0085865Y0103856D01*
X0086020Y0103887D01*
X0086176Y0103915D01*
X0086332Y0103939D01*
X0086489Y0103959D01*
X0086647Y0103975D01*
X0086804Y0103987D01*
X0086963Y0103995D01*
X0087121Y0103999D01*
X0087279Y0103999D01*
X0087437Y0103995D01*
X0087596Y0103987D01*
X0087753Y0103975D01*
X0087911Y0103959D01*
X0088068Y0103939D01*
X0088224Y0103915D01*
X0088380Y0103887D01*
X0088535Y0103856D01*
X0088690Y0103820D01*
X0088843Y0103781D01*
X0088995Y0103738D01*
X0089146Y0103691D01*
X0089296Y0103640D01*
X0089445Y0103585D01*
X0089592Y0103527D01*
X0089738Y0103465D01*
X0089882Y0103400D01*
X0090024Y0103330D01*
X0090165Y0103258D01*
X0090304Y0103181D01*
X0090440Y0103102D01*
X0090575Y0103018D01*
X0090708Y0102932D01*
X0090838Y0102842D01*
X0090966Y0102749D01*
X0091092Y0102653D01*
X0091215Y0102553D01*
X0091336Y0102451D01*
X0091454Y0102346D01*
X0091569Y0102237D01*
X0091682Y0102126D01*
X0091792Y0102012D01*
X0091899Y0101895D01*
X0092003Y0101776D01*
X0092104Y0101654D01*
X0092201Y0101529D01*
X0092296Y0101402D01*
X0092387Y0101273D01*
X0092476Y0101142D01*
X0092560Y0101008D01*
X0092642Y0100872D01*
X0092720Y0100735D01*
X0092794Y0100595D01*
X0092865Y0100453D01*
X0092933Y0100310D01*
X0092997Y0100165D01*
X0093057Y0100019D01*
X0093113Y0099871D01*
X0093166Y0099722D01*
X0093215Y0099571D01*
X0093260Y0099419D01*
X0093301Y0099266D01*
X0093339Y0099113D01*
X0093372Y0098958D01*
X0093402Y0098802D01*
X0093428Y0098646D01*
X0093449Y0098489D01*
X0093467Y0098332D01*
X0093481Y0098174D01*
X0093491Y0098016D01*
X0093497Y0097858D01*
X0093499Y0097700D01*
X0093497Y0097542D01*
X0093491Y0097384D01*
X0093481Y0097226D01*
X0093467Y0097068D01*
X0093449Y0096911D01*
X0093428Y0096754D01*
X0093402Y0096598D01*
X0093372Y0096442D01*
X0093339Y0096287D01*
X0093301Y0096134D01*
X0093260Y0095981D01*
X0093215Y0095829D01*
X0093166Y0095678D01*
X0093113Y0095529D01*
X0093057Y0095381D01*
X0092997Y0095235D01*
X0092933Y0095090D01*
X0092865Y0094947D01*
X0092794Y0094805D01*
X0092720Y0094665D01*
X0092642Y0094528D01*
X0092560Y0094392D01*
X0092476Y0094258D01*
X0092387Y0094127D01*
X0092296Y0093998D01*
X0092201Y0093871D01*
X0092104Y0093746D01*
X0092003Y0093624D01*
X0091899Y0093505D01*
X0091792Y0093388D01*
X0091682Y0093274D01*
X0091569Y0093163D01*
X0091454Y0093054D01*
X0091336Y0092949D01*
X0091215Y0092847D01*
X0091092Y0092747D01*
X0090966Y0092651D01*
X0090838Y0092558D01*
X0090708Y0092468D01*
X0090575Y0092382D01*
X0090440Y0092298D01*
X0090304Y0092219D01*
X0090165Y0092142D01*
X0090024Y0092070D01*
X0089882Y0092000D01*
X0089738Y0091935D01*
X0089592Y0091873D01*
X0089445Y0091815D01*
X0089296Y0091760D01*
X0089146Y0091709D01*
X0088995Y0091662D01*
X0088843Y0091619D01*
X0088690Y0091580D01*
X0088535Y0091544D01*
X0088380Y0091513D01*
X0088224Y0091485D01*
X0088068Y0091461D01*
X0087911Y0091441D01*
X0087753Y0091425D01*
X0087596Y0091413D01*
X0087437Y0091405D01*
X0087279Y0091401D01*
X0087121Y0091401D01*
X0086963Y0091405D01*
X0086804Y0091413D01*
X0086647Y0091425D01*
X0086489Y0091441D01*
X0086332Y0091461D01*
X0086176Y0091485D01*
X0086020Y0091513D01*
X0085865Y0091544D01*
X0085710Y0091580D01*
X0085557Y0091619D01*
X0085405Y0091662D01*
X0085254Y0091709D01*
X0085104Y0091760D01*
X0084955Y0091815D01*
X0084808Y0091873D01*
X0084662Y0091935D01*
X0084518Y0092000D01*
X0084376Y0092070D01*
X0084235Y0092142D01*
X0084096Y0092219D01*
X0083960Y0092298D01*
X0083825Y0092382D01*
X0083692Y0092468D01*
X0083562Y0092558D01*
X0083434Y0092651D01*
X0083308Y0092747D01*
X0083185Y0092847D01*
X0083064Y0092949D01*
X0082946Y0093054D01*
X0082831Y0093163D01*
X0082718Y0093274D01*
X0082608Y0093388D01*
X0082501Y0093505D01*
X0082397Y0093624D01*
X0082296Y0093746D01*
X0082199Y0093871D01*
X0082104Y0093998D01*
X0082013Y0094127D01*
X0081924Y0094258D01*
X0081840Y0094392D01*
X0081758Y0094528D01*
X0081680Y0094665D01*
X0081606Y0094805D01*
X0081535Y0094947D01*
X0081467Y0095090D01*
X0081403Y0095235D01*
X0081343Y0095381D01*
X0081287Y0095529D01*
X0081234Y0095678D01*
X0081185Y0095829D01*
X0081140Y0095981D01*
X0081099Y0096134D01*
X0081061Y0096287D01*
X0081028Y0096442D01*
X0080998Y0096598D01*
X0080972Y0096754D01*
X0080951Y0096911D01*
X0080933Y0097068D01*
X0080919Y0097226D01*
X0080909Y0097384D01*
X0080903Y0097542D01*
X0080901Y0097700D01*
X0016901Y0387700D02*
X0016903Y0387858D01*
X0016909Y0388016D01*
X0016919Y0388174D01*
X0016933Y0388332D01*
X0016951Y0388489D01*
X0016972Y0388646D01*
X0016998Y0388802D01*
X0017028Y0388958D01*
X0017061Y0389113D01*
X0017099Y0389266D01*
X0017140Y0389419D01*
X0017185Y0389571D01*
X0017234Y0389722D01*
X0017287Y0389871D01*
X0017343Y0390019D01*
X0017403Y0390165D01*
X0017467Y0390310D01*
X0017535Y0390453D01*
X0017606Y0390595D01*
X0017680Y0390735D01*
X0017758Y0390872D01*
X0017840Y0391008D01*
X0017924Y0391142D01*
X0018013Y0391273D01*
X0018104Y0391402D01*
X0018199Y0391529D01*
X0018296Y0391654D01*
X0018397Y0391776D01*
X0018501Y0391895D01*
X0018608Y0392012D01*
X0018718Y0392126D01*
X0018831Y0392237D01*
X0018946Y0392346D01*
X0019064Y0392451D01*
X0019185Y0392553D01*
X0019308Y0392653D01*
X0019434Y0392749D01*
X0019562Y0392842D01*
X0019692Y0392932D01*
X0019825Y0393018D01*
X0019960Y0393102D01*
X0020096Y0393181D01*
X0020235Y0393258D01*
X0020376Y0393330D01*
X0020518Y0393400D01*
X0020662Y0393465D01*
X0020808Y0393527D01*
X0020955Y0393585D01*
X0021104Y0393640D01*
X0021254Y0393691D01*
X0021405Y0393738D01*
X0021557Y0393781D01*
X0021710Y0393820D01*
X0021865Y0393856D01*
X0022020Y0393887D01*
X0022176Y0393915D01*
X0022332Y0393939D01*
X0022489Y0393959D01*
X0022647Y0393975D01*
X0022804Y0393987D01*
X0022963Y0393995D01*
X0023121Y0393999D01*
X0023279Y0393999D01*
X0023437Y0393995D01*
X0023596Y0393987D01*
X0023753Y0393975D01*
X0023911Y0393959D01*
X0024068Y0393939D01*
X0024224Y0393915D01*
X0024380Y0393887D01*
X0024535Y0393856D01*
X0024690Y0393820D01*
X0024843Y0393781D01*
X0024995Y0393738D01*
X0025146Y0393691D01*
X0025296Y0393640D01*
X0025445Y0393585D01*
X0025592Y0393527D01*
X0025738Y0393465D01*
X0025882Y0393400D01*
X0026024Y0393330D01*
X0026165Y0393258D01*
X0026304Y0393181D01*
X0026440Y0393102D01*
X0026575Y0393018D01*
X0026708Y0392932D01*
X0026838Y0392842D01*
X0026966Y0392749D01*
X0027092Y0392653D01*
X0027215Y0392553D01*
X0027336Y0392451D01*
X0027454Y0392346D01*
X0027569Y0392237D01*
X0027682Y0392126D01*
X0027792Y0392012D01*
X0027899Y0391895D01*
X0028003Y0391776D01*
X0028104Y0391654D01*
X0028201Y0391529D01*
X0028296Y0391402D01*
X0028387Y0391273D01*
X0028476Y0391142D01*
X0028560Y0391008D01*
X0028642Y0390872D01*
X0028720Y0390735D01*
X0028794Y0390595D01*
X0028865Y0390453D01*
X0028933Y0390310D01*
X0028997Y0390165D01*
X0029057Y0390019D01*
X0029113Y0389871D01*
X0029166Y0389722D01*
X0029215Y0389571D01*
X0029260Y0389419D01*
X0029301Y0389266D01*
X0029339Y0389113D01*
X0029372Y0388958D01*
X0029402Y0388802D01*
X0029428Y0388646D01*
X0029449Y0388489D01*
X0029467Y0388332D01*
X0029481Y0388174D01*
X0029491Y0388016D01*
X0029497Y0387858D01*
X0029499Y0387700D01*
X0029497Y0387542D01*
X0029491Y0387384D01*
X0029481Y0387226D01*
X0029467Y0387068D01*
X0029449Y0386911D01*
X0029428Y0386754D01*
X0029402Y0386598D01*
X0029372Y0386442D01*
X0029339Y0386287D01*
X0029301Y0386134D01*
X0029260Y0385981D01*
X0029215Y0385829D01*
X0029166Y0385678D01*
X0029113Y0385529D01*
X0029057Y0385381D01*
X0028997Y0385235D01*
X0028933Y0385090D01*
X0028865Y0384947D01*
X0028794Y0384805D01*
X0028720Y0384665D01*
X0028642Y0384528D01*
X0028560Y0384392D01*
X0028476Y0384258D01*
X0028387Y0384127D01*
X0028296Y0383998D01*
X0028201Y0383871D01*
X0028104Y0383746D01*
X0028003Y0383624D01*
X0027899Y0383505D01*
X0027792Y0383388D01*
X0027682Y0383274D01*
X0027569Y0383163D01*
X0027454Y0383054D01*
X0027336Y0382949D01*
X0027215Y0382847D01*
X0027092Y0382747D01*
X0026966Y0382651D01*
X0026838Y0382558D01*
X0026708Y0382468D01*
X0026575Y0382382D01*
X0026440Y0382298D01*
X0026304Y0382219D01*
X0026165Y0382142D01*
X0026024Y0382070D01*
X0025882Y0382000D01*
X0025738Y0381935D01*
X0025592Y0381873D01*
X0025445Y0381815D01*
X0025296Y0381760D01*
X0025146Y0381709D01*
X0024995Y0381662D01*
X0024843Y0381619D01*
X0024690Y0381580D01*
X0024535Y0381544D01*
X0024380Y0381513D01*
X0024224Y0381485D01*
X0024068Y0381461D01*
X0023911Y0381441D01*
X0023753Y0381425D01*
X0023596Y0381413D01*
X0023437Y0381405D01*
X0023279Y0381401D01*
X0023121Y0381401D01*
X0022963Y0381405D01*
X0022804Y0381413D01*
X0022647Y0381425D01*
X0022489Y0381441D01*
X0022332Y0381461D01*
X0022176Y0381485D01*
X0022020Y0381513D01*
X0021865Y0381544D01*
X0021710Y0381580D01*
X0021557Y0381619D01*
X0021405Y0381662D01*
X0021254Y0381709D01*
X0021104Y0381760D01*
X0020955Y0381815D01*
X0020808Y0381873D01*
X0020662Y0381935D01*
X0020518Y0382000D01*
X0020376Y0382070D01*
X0020235Y0382142D01*
X0020096Y0382219D01*
X0019960Y0382298D01*
X0019825Y0382382D01*
X0019692Y0382468D01*
X0019562Y0382558D01*
X0019434Y0382651D01*
X0019308Y0382747D01*
X0019185Y0382847D01*
X0019064Y0382949D01*
X0018946Y0383054D01*
X0018831Y0383163D01*
X0018718Y0383274D01*
X0018608Y0383388D01*
X0018501Y0383505D01*
X0018397Y0383624D01*
X0018296Y0383746D01*
X0018199Y0383871D01*
X0018104Y0383998D01*
X0018013Y0384127D01*
X0017924Y0384258D01*
X0017840Y0384392D01*
X0017758Y0384528D01*
X0017680Y0384665D01*
X0017606Y0384805D01*
X0017535Y0384947D01*
X0017467Y0385090D01*
X0017403Y0385235D01*
X0017343Y0385381D01*
X0017287Y0385529D01*
X0017234Y0385678D01*
X0017185Y0385829D01*
X0017140Y0385981D01*
X0017099Y0386134D01*
X0017061Y0386287D01*
X0017028Y0386442D01*
X0016998Y0386598D01*
X0016972Y0386754D01*
X0016951Y0386911D01*
X0016933Y0387068D01*
X0016919Y0387226D01*
X0016909Y0387384D01*
X0016903Y0387542D01*
X0016901Y0387700D01*
X0700901Y0092700D02*
X0700903Y0092858D01*
X0700909Y0093016D01*
X0700919Y0093174D01*
X0700933Y0093332D01*
X0700951Y0093489D01*
X0700972Y0093646D01*
X0700998Y0093802D01*
X0701028Y0093958D01*
X0701061Y0094113D01*
X0701099Y0094266D01*
X0701140Y0094419D01*
X0701185Y0094571D01*
X0701234Y0094722D01*
X0701287Y0094871D01*
X0701343Y0095019D01*
X0701403Y0095165D01*
X0701467Y0095310D01*
X0701535Y0095453D01*
X0701606Y0095595D01*
X0701680Y0095735D01*
X0701758Y0095872D01*
X0701840Y0096008D01*
X0701924Y0096142D01*
X0702013Y0096273D01*
X0702104Y0096402D01*
X0702199Y0096529D01*
X0702296Y0096654D01*
X0702397Y0096776D01*
X0702501Y0096895D01*
X0702608Y0097012D01*
X0702718Y0097126D01*
X0702831Y0097237D01*
X0702946Y0097346D01*
X0703064Y0097451D01*
X0703185Y0097553D01*
X0703308Y0097653D01*
X0703434Y0097749D01*
X0703562Y0097842D01*
X0703692Y0097932D01*
X0703825Y0098018D01*
X0703960Y0098102D01*
X0704096Y0098181D01*
X0704235Y0098258D01*
X0704376Y0098330D01*
X0704518Y0098400D01*
X0704662Y0098465D01*
X0704808Y0098527D01*
X0704955Y0098585D01*
X0705104Y0098640D01*
X0705254Y0098691D01*
X0705405Y0098738D01*
X0705557Y0098781D01*
X0705710Y0098820D01*
X0705865Y0098856D01*
X0706020Y0098887D01*
X0706176Y0098915D01*
X0706332Y0098939D01*
X0706489Y0098959D01*
X0706647Y0098975D01*
X0706804Y0098987D01*
X0706963Y0098995D01*
X0707121Y0098999D01*
X0707279Y0098999D01*
X0707437Y0098995D01*
X0707596Y0098987D01*
X0707753Y0098975D01*
X0707911Y0098959D01*
X0708068Y0098939D01*
X0708224Y0098915D01*
X0708380Y0098887D01*
X0708535Y0098856D01*
X0708690Y0098820D01*
X0708843Y0098781D01*
X0708995Y0098738D01*
X0709146Y0098691D01*
X0709296Y0098640D01*
X0709445Y0098585D01*
X0709592Y0098527D01*
X0709738Y0098465D01*
X0709882Y0098400D01*
X0710024Y0098330D01*
X0710165Y0098258D01*
X0710304Y0098181D01*
X0710440Y0098102D01*
X0710575Y0098018D01*
X0710708Y0097932D01*
X0710838Y0097842D01*
X0710966Y0097749D01*
X0711092Y0097653D01*
X0711215Y0097553D01*
X0711336Y0097451D01*
X0711454Y0097346D01*
X0711569Y0097237D01*
X0711682Y0097126D01*
X0711792Y0097012D01*
X0711899Y0096895D01*
X0712003Y0096776D01*
X0712104Y0096654D01*
X0712201Y0096529D01*
X0712296Y0096402D01*
X0712387Y0096273D01*
X0712476Y0096142D01*
X0712560Y0096008D01*
X0712642Y0095872D01*
X0712720Y0095735D01*
X0712794Y0095595D01*
X0712865Y0095453D01*
X0712933Y0095310D01*
X0712997Y0095165D01*
X0713057Y0095019D01*
X0713113Y0094871D01*
X0713166Y0094722D01*
X0713215Y0094571D01*
X0713260Y0094419D01*
X0713301Y0094266D01*
X0713339Y0094113D01*
X0713372Y0093958D01*
X0713402Y0093802D01*
X0713428Y0093646D01*
X0713449Y0093489D01*
X0713467Y0093332D01*
X0713481Y0093174D01*
X0713491Y0093016D01*
X0713497Y0092858D01*
X0713499Y0092700D01*
X0713497Y0092542D01*
X0713491Y0092384D01*
X0713481Y0092226D01*
X0713467Y0092068D01*
X0713449Y0091911D01*
X0713428Y0091754D01*
X0713402Y0091598D01*
X0713372Y0091442D01*
X0713339Y0091287D01*
X0713301Y0091134D01*
X0713260Y0090981D01*
X0713215Y0090829D01*
X0713166Y0090678D01*
X0713113Y0090529D01*
X0713057Y0090381D01*
X0712997Y0090235D01*
X0712933Y0090090D01*
X0712865Y0089947D01*
X0712794Y0089805D01*
X0712720Y0089665D01*
X0712642Y0089528D01*
X0712560Y0089392D01*
X0712476Y0089258D01*
X0712387Y0089127D01*
X0712296Y0088998D01*
X0712201Y0088871D01*
X0712104Y0088746D01*
X0712003Y0088624D01*
X0711899Y0088505D01*
X0711792Y0088388D01*
X0711682Y0088274D01*
X0711569Y0088163D01*
X0711454Y0088054D01*
X0711336Y0087949D01*
X0711215Y0087847D01*
X0711092Y0087747D01*
X0710966Y0087651D01*
X0710838Y0087558D01*
X0710708Y0087468D01*
X0710575Y0087382D01*
X0710440Y0087298D01*
X0710304Y0087219D01*
X0710165Y0087142D01*
X0710024Y0087070D01*
X0709882Y0087000D01*
X0709738Y0086935D01*
X0709592Y0086873D01*
X0709445Y0086815D01*
X0709296Y0086760D01*
X0709146Y0086709D01*
X0708995Y0086662D01*
X0708843Y0086619D01*
X0708690Y0086580D01*
X0708535Y0086544D01*
X0708380Y0086513D01*
X0708224Y0086485D01*
X0708068Y0086461D01*
X0707911Y0086441D01*
X0707753Y0086425D01*
X0707596Y0086413D01*
X0707437Y0086405D01*
X0707279Y0086401D01*
X0707121Y0086401D01*
X0706963Y0086405D01*
X0706804Y0086413D01*
X0706647Y0086425D01*
X0706489Y0086441D01*
X0706332Y0086461D01*
X0706176Y0086485D01*
X0706020Y0086513D01*
X0705865Y0086544D01*
X0705710Y0086580D01*
X0705557Y0086619D01*
X0705405Y0086662D01*
X0705254Y0086709D01*
X0705104Y0086760D01*
X0704955Y0086815D01*
X0704808Y0086873D01*
X0704662Y0086935D01*
X0704518Y0087000D01*
X0704376Y0087070D01*
X0704235Y0087142D01*
X0704096Y0087219D01*
X0703960Y0087298D01*
X0703825Y0087382D01*
X0703692Y0087468D01*
X0703562Y0087558D01*
X0703434Y0087651D01*
X0703308Y0087747D01*
X0703185Y0087847D01*
X0703064Y0087949D01*
X0702946Y0088054D01*
X0702831Y0088163D01*
X0702718Y0088274D01*
X0702608Y0088388D01*
X0702501Y0088505D01*
X0702397Y0088624D01*
X0702296Y0088746D01*
X0702199Y0088871D01*
X0702104Y0088998D01*
X0702013Y0089127D01*
X0701924Y0089258D01*
X0701840Y0089392D01*
X0701758Y0089528D01*
X0701680Y0089665D01*
X0701606Y0089805D01*
X0701535Y0089947D01*
X0701467Y0090090D01*
X0701403Y0090235D01*
X0701343Y0090381D01*
X0701287Y0090529D01*
X0701234Y0090678D01*
X0701185Y0090829D01*
X0701140Y0090981D01*
X0701099Y0091134D01*
X0701061Y0091287D01*
X0701028Y0091442D01*
X0700998Y0091598D01*
X0700972Y0091754D01*
X0700951Y0091911D01*
X0700933Y0092068D01*
X0700919Y0092226D01*
X0700909Y0092384D01*
X0700903Y0092542D01*
X0700901Y0092700D01*
X0803401Y0025200D02*
X0803403Y0025358D01*
X0803409Y0025516D01*
X0803419Y0025674D01*
X0803433Y0025832D01*
X0803451Y0025989D01*
X0803472Y0026146D01*
X0803498Y0026302D01*
X0803528Y0026458D01*
X0803561Y0026613D01*
X0803599Y0026766D01*
X0803640Y0026919D01*
X0803685Y0027071D01*
X0803734Y0027222D01*
X0803787Y0027371D01*
X0803843Y0027519D01*
X0803903Y0027665D01*
X0803967Y0027810D01*
X0804035Y0027953D01*
X0804106Y0028095D01*
X0804180Y0028235D01*
X0804258Y0028372D01*
X0804340Y0028508D01*
X0804424Y0028642D01*
X0804513Y0028773D01*
X0804604Y0028902D01*
X0804699Y0029029D01*
X0804796Y0029154D01*
X0804897Y0029276D01*
X0805001Y0029395D01*
X0805108Y0029512D01*
X0805218Y0029626D01*
X0805331Y0029737D01*
X0805446Y0029846D01*
X0805564Y0029951D01*
X0805685Y0030053D01*
X0805808Y0030153D01*
X0805934Y0030249D01*
X0806062Y0030342D01*
X0806192Y0030432D01*
X0806325Y0030518D01*
X0806460Y0030602D01*
X0806596Y0030681D01*
X0806735Y0030758D01*
X0806876Y0030830D01*
X0807018Y0030900D01*
X0807162Y0030965D01*
X0807308Y0031027D01*
X0807455Y0031085D01*
X0807604Y0031140D01*
X0807754Y0031191D01*
X0807905Y0031238D01*
X0808057Y0031281D01*
X0808210Y0031320D01*
X0808365Y0031356D01*
X0808520Y0031387D01*
X0808676Y0031415D01*
X0808832Y0031439D01*
X0808989Y0031459D01*
X0809147Y0031475D01*
X0809304Y0031487D01*
X0809463Y0031495D01*
X0809621Y0031499D01*
X0809779Y0031499D01*
X0809937Y0031495D01*
X0810096Y0031487D01*
X0810253Y0031475D01*
X0810411Y0031459D01*
X0810568Y0031439D01*
X0810724Y0031415D01*
X0810880Y0031387D01*
X0811035Y0031356D01*
X0811190Y0031320D01*
X0811343Y0031281D01*
X0811495Y0031238D01*
X0811646Y0031191D01*
X0811796Y0031140D01*
X0811945Y0031085D01*
X0812092Y0031027D01*
X0812238Y0030965D01*
X0812382Y0030900D01*
X0812524Y0030830D01*
X0812665Y0030758D01*
X0812804Y0030681D01*
X0812940Y0030602D01*
X0813075Y0030518D01*
X0813208Y0030432D01*
X0813338Y0030342D01*
X0813466Y0030249D01*
X0813592Y0030153D01*
X0813715Y0030053D01*
X0813836Y0029951D01*
X0813954Y0029846D01*
X0814069Y0029737D01*
X0814182Y0029626D01*
X0814292Y0029512D01*
X0814399Y0029395D01*
X0814503Y0029276D01*
X0814604Y0029154D01*
X0814701Y0029029D01*
X0814796Y0028902D01*
X0814887Y0028773D01*
X0814976Y0028642D01*
X0815060Y0028508D01*
X0815142Y0028372D01*
X0815220Y0028235D01*
X0815294Y0028095D01*
X0815365Y0027953D01*
X0815433Y0027810D01*
X0815497Y0027665D01*
X0815557Y0027519D01*
X0815613Y0027371D01*
X0815666Y0027222D01*
X0815715Y0027071D01*
X0815760Y0026919D01*
X0815801Y0026766D01*
X0815839Y0026613D01*
X0815872Y0026458D01*
X0815902Y0026302D01*
X0815928Y0026146D01*
X0815949Y0025989D01*
X0815967Y0025832D01*
X0815981Y0025674D01*
X0815991Y0025516D01*
X0815997Y0025358D01*
X0815999Y0025200D01*
X0815997Y0025042D01*
X0815991Y0024884D01*
X0815981Y0024726D01*
X0815967Y0024568D01*
X0815949Y0024411D01*
X0815928Y0024254D01*
X0815902Y0024098D01*
X0815872Y0023942D01*
X0815839Y0023787D01*
X0815801Y0023634D01*
X0815760Y0023481D01*
X0815715Y0023329D01*
X0815666Y0023178D01*
X0815613Y0023029D01*
X0815557Y0022881D01*
X0815497Y0022735D01*
X0815433Y0022590D01*
X0815365Y0022447D01*
X0815294Y0022305D01*
X0815220Y0022165D01*
X0815142Y0022028D01*
X0815060Y0021892D01*
X0814976Y0021758D01*
X0814887Y0021627D01*
X0814796Y0021498D01*
X0814701Y0021371D01*
X0814604Y0021246D01*
X0814503Y0021124D01*
X0814399Y0021005D01*
X0814292Y0020888D01*
X0814182Y0020774D01*
X0814069Y0020663D01*
X0813954Y0020554D01*
X0813836Y0020449D01*
X0813715Y0020347D01*
X0813592Y0020247D01*
X0813466Y0020151D01*
X0813338Y0020058D01*
X0813208Y0019968D01*
X0813075Y0019882D01*
X0812940Y0019798D01*
X0812804Y0019719D01*
X0812665Y0019642D01*
X0812524Y0019570D01*
X0812382Y0019500D01*
X0812238Y0019435D01*
X0812092Y0019373D01*
X0811945Y0019315D01*
X0811796Y0019260D01*
X0811646Y0019209D01*
X0811495Y0019162D01*
X0811343Y0019119D01*
X0811190Y0019080D01*
X0811035Y0019044D01*
X0810880Y0019013D01*
X0810724Y0018985D01*
X0810568Y0018961D01*
X0810411Y0018941D01*
X0810253Y0018925D01*
X0810096Y0018913D01*
X0809937Y0018905D01*
X0809779Y0018901D01*
X0809621Y0018901D01*
X0809463Y0018905D01*
X0809304Y0018913D01*
X0809147Y0018925D01*
X0808989Y0018941D01*
X0808832Y0018961D01*
X0808676Y0018985D01*
X0808520Y0019013D01*
X0808365Y0019044D01*
X0808210Y0019080D01*
X0808057Y0019119D01*
X0807905Y0019162D01*
X0807754Y0019209D01*
X0807604Y0019260D01*
X0807455Y0019315D01*
X0807308Y0019373D01*
X0807162Y0019435D01*
X0807018Y0019500D01*
X0806876Y0019570D01*
X0806735Y0019642D01*
X0806596Y0019719D01*
X0806460Y0019798D01*
X0806325Y0019882D01*
X0806192Y0019968D01*
X0806062Y0020058D01*
X0805934Y0020151D01*
X0805808Y0020247D01*
X0805685Y0020347D01*
X0805564Y0020449D01*
X0805446Y0020554D01*
X0805331Y0020663D01*
X0805218Y0020774D01*
X0805108Y0020888D01*
X0805001Y0021005D01*
X0804897Y0021124D01*
X0804796Y0021246D01*
X0804699Y0021371D01*
X0804604Y0021498D01*
X0804513Y0021627D01*
X0804424Y0021758D01*
X0804340Y0021892D01*
X0804258Y0022028D01*
X0804180Y0022165D01*
X0804106Y0022305D01*
X0804035Y0022447D01*
X0803967Y0022590D01*
X0803903Y0022735D01*
X0803843Y0022881D01*
X0803787Y0023029D01*
X0803734Y0023178D01*
X0803685Y0023329D01*
X0803640Y0023481D01*
X0803599Y0023634D01*
X0803561Y0023787D01*
X0803528Y0023942D01*
X0803498Y0024098D01*
X0803472Y0024254D01*
X0803451Y0024411D01*
X0803433Y0024568D01*
X0803419Y0024726D01*
X0803409Y0024884D01*
X0803403Y0025042D01*
X0803401Y0025200D01*
X0804401Y0385200D02*
X0804403Y0385358D01*
X0804409Y0385516D01*
X0804419Y0385674D01*
X0804433Y0385832D01*
X0804451Y0385989D01*
X0804472Y0386146D01*
X0804498Y0386302D01*
X0804528Y0386458D01*
X0804561Y0386613D01*
X0804599Y0386766D01*
X0804640Y0386919D01*
X0804685Y0387071D01*
X0804734Y0387222D01*
X0804787Y0387371D01*
X0804843Y0387519D01*
X0804903Y0387665D01*
X0804967Y0387810D01*
X0805035Y0387953D01*
X0805106Y0388095D01*
X0805180Y0388235D01*
X0805258Y0388372D01*
X0805340Y0388508D01*
X0805424Y0388642D01*
X0805513Y0388773D01*
X0805604Y0388902D01*
X0805699Y0389029D01*
X0805796Y0389154D01*
X0805897Y0389276D01*
X0806001Y0389395D01*
X0806108Y0389512D01*
X0806218Y0389626D01*
X0806331Y0389737D01*
X0806446Y0389846D01*
X0806564Y0389951D01*
X0806685Y0390053D01*
X0806808Y0390153D01*
X0806934Y0390249D01*
X0807062Y0390342D01*
X0807192Y0390432D01*
X0807325Y0390518D01*
X0807460Y0390602D01*
X0807596Y0390681D01*
X0807735Y0390758D01*
X0807876Y0390830D01*
X0808018Y0390900D01*
X0808162Y0390965D01*
X0808308Y0391027D01*
X0808455Y0391085D01*
X0808604Y0391140D01*
X0808754Y0391191D01*
X0808905Y0391238D01*
X0809057Y0391281D01*
X0809210Y0391320D01*
X0809365Y0391356D01*
X0809520Y0391387D01*
X0809676Y0391415D01*
X0809832Y0391439D01*
X0809989Y0391459D01*
X0810147Y0391475D01*
X0810304Y0391487D01*
X0810463Y0391495D01*
X0810621Y0391499D01*
X0810779Y0391499D01*
X0810937Y0391495D01*
X0811096Y0391487D01*
X0811253Y0391475D01*
X0811411Y0391459D01*
X0811568Y0391439D01*
X0811724Y0391415D01*
X0811880Y0391387D01*
X0812035Y0391356D01*
X0812190Y0391320D01*
X0812343Y0391281D01*
X0812495Y0391238D01*
X0812646Y0391191D01*
X0812796Y0391140D01*
X0812945Y0391085D01*
X0813092Y0391027D01*
X0813238Y0390965D01*
X0813382Y0390900D01*
X0813524Y0390830D01*
X0813665Y0390758D01*
X0813804Y0390681D01*
X0813940Y0390602D01*
X0814075Y0390518D01*
X0814208Y0390432D01*
X0814338Y0390342D01*
X0814466Y0390249D01*
X0814592Y0390153D01*
X0814715Y0390053D01*
X0814836Y0389951D01*
X0814954Y0389846D01*
X0815069Y0389737D01*
X0815182Y0389626D01*
X0815292Y0389512D01*
X0815399Y0389395D01*
X0815503Y0389276D01*
X0815604Y0389154D01*
X0815701Y0389029D01*
X0815796Y0388902D01*
X0815887Y0388773D01*
X0815976Y0388642D01*
X0816060Y0388508D01*
X0816142Y0388372D01*
X0816220Y0388235D01*
X0816294Y0388095D01*
X0816365Y0387953D01*
X0816433Y0387810D01*
X0816497Y0387665D01*
X0816557Y0387519D01*
X0816613Y0387371D01*
X0816666Y0387222D01*
X0816715Y0387071D01*
X0816760Y0386919D01*
X0816801Y0386766D01*
X0816839Y0386613D01*
X0816872Y0386458D01*
X0816902Y0386302D01*
X0816928Y0386146D01*
X0816949Y0385989D01*
X0816967Y0385832D01*
X0816981Y0385674D01*
X0816991Y0385516D01*
X0816997Y0385358D01*
X0816999Y0385200D01*
X0816997Y0385042D01*
X0816991Y0384884D01*
X0816981Y0384726D01*
X0816967Y0384568D01*
X0816949Y0384411D01*
X0816928Y0384254D01*
X0816902Y0384098D01*
X0816872Y0383942D01*
X0816839Y0383787D01*
X0816801Y0383634D01*
X0816760Y0383481D01*
X0816715Y0383329D01*
X0816666Y0383178D01*
X0816613Y0383029D01*
X0816557Y0382881D01*
X0816497Y0382735D01*
X0816433Y0382590D01*
X0816365Y0382447D01*
X0816294Y0382305D01*
X0816220Y0382165D01*
X0816142Y0382028D01*
X0816060Y0381892D01*
X0815976Y0381758D01*
X0815887Y0381627D01*
X0815796Y0381498D01*
X0815701Y0381371D01*
X0815604Y0381246D01*
X0815503Y0381124D01*
X0815399Y0381005D01*
X0815292Y0380888D01*
X0815182Y0380774D01*
X0815069Y0380663D01*
X0814954Y0380554D01*
X0814836Y0380449D01*
X0814715Y0380347D01*
X0814592Y0380247D01*
X0814466Y0380151D01*
X0814338Y0380058D01*
X0814208Y0379968D01*
X0814075Y0379882D01*
X0813940Y0379798D01*
X0813804Y0379719D01*
X0813665Y0379642D01*
X0813524Y0379570D01*
X0813382Y0379500D01*
X0813238Y0379435D01*
X0813092Y0379373D01*
X0812945Y0379315D01*
X0812796Y0379260D01*
X0812646Y0379209D01*
X0812495Y0379162D01*
X0812343Y0379119D01*
X0812190Y0379080D01*
X0812035Y0379044D01*
X0811880Y0379013D01*
X0811724Y0378985D01*
X0811568Y0378961D01*
X0811411Y0378941D01*
X0811253Y0378925D01*
X0811096Y0378913D01*
X0810937Y0378905D01*
X0810779Y0378901D01*
X0810621Y0378901D01*
X0810463Y0378905D01*
X0810304Y0378913D01*
X0810147Y0378925D01*
X0809989Y0378941D01*
X0809832Y0378961D01*
X0809676Y0378985D01*
X0809520Y0379013D01*
X0809365Y0379044D01*
X0809210Y0379080D01*
X0809057Y0379119D01*
X0808905Y0379162D01*
X0808754Y0379209D01*
X0808604Y0379260D01*
X0808455Y0379315D01*
X0808308Y0379373D01*
X0808162Y0379435D01*
X0808018Y0379500D01*
X0807876Y0379570D01*
X0807735Y0379642D01*
X0807596Y0379719D01*
X0807460Y0379798D01*
X0807325Y0379882D01*
X0807192Y0379968D01*
X0807062Y0380058D01*
X0806934Y0380151D01*
X0806808Y0380247D01*
X0806685Y0380347D01*
X0806564Y0380449D01*
X0806446Y0380554D01*
X0806331Y0380663D01*
X0806218Y0380774D01*
X0806108Y0380888D01*
X0806001Y0381005D01*
X0805897Y0381124D01*
X0805796Y0381246D01*
X0805699Y0381371D01*
X0805604Y0381498D01*
X0805513Y0381627D01*
X0805424Y0381758D01*
X0805340Y0381892D01*
X0805258Y0382028D01*
X0805180Y0382165D01*
X0805106Y0382305D01*
X0805035Y0382447D01*
X0804967Y0382590D01*
X0804903Y0382735D01*
X0804843Y0382881D01*
X0804787Y0383029D01*
X0804734Y0383178D01*
X0804685Y0383329D01*
X0804640Y0383481D01*
X0804599Y0383634D01*
X0804561Y0383787D01*
X0804528Y0383942D01*
X0804498Y0384098D01*
X0804472Y0384254D01*
X0804451Y0384411D01*
X0804433Y0384568D01*
X0804419Y0384726D01*
X0804409Y0384884D01*
X0804403Y0385042D01*
X0804401Y0385200D01*
D11*
X0597004Y0214410D02*
X0597004Y0212875D01*
X0596237Y0212108D01*
X0597004Y0214410D02*
X0596237Y0215177D01*
X0595469Y0215177D01*
X0592400Y0212108D01*
X0592400Y0215177D01*
X0592400Y0210573D02*
X0592400Y0207504D01*
X0592400Y0209039D02*
X0597004Y0209039D01*
X0595469Y0207504D01*
X0596237Y0205969D02*
X0597004Y0205202D01*
X0597004Y0203667D01*
X0596237Y0202900D01*
X0593167Y0202900D01*
X0592400Y0203667D01*
X0592400Y0205202D01*
X0593167Y0205969D01*
X0567004Y0205202D02*
X0567004Y0203667D01*
X0566237Y0202900D01*
X0563167Y0202900D01*
X0562400Y0203667D01*
X0562400Y0205202D01*
X0563167Y0205969D01*
X0562400Y0207504D02*
X0565469Y0210573D01*
X0566237Y0210573D01*
X0567004Y0209806D01*
X0567004Y0208271D01*
X0566237Y0207504D01*
X0566237Y0205969D02*
X0567004Y0205202D01*
X0562400Y0207504D02*
X0562400Y0210573D01*
X0563167Y0212108D02*
X0566237Y0215177D01*
X0563167Y0215177D01*
X0562400Y0214410D01*
X0562400Y0212875D01*
X0563167Y0212108D01*
X0566237Y0212108D01*
X0567004Y0212875D01*
X0567004Y0214410D01*
X0566237Y0215177D01*
X0495004Y0210331D02*
X0493469Y0208796D01*
X0493469Y0207261D02*
X0494237Y0207261D01*
X0495004Y0206494D01*
X0495004Y0204959D01*
X0494237Y0204192D01*
X0494237Y0202657D02*
X0495004Y0201890D01*
X0495004Y0200356D01*
X0494237Y0199588D01*
X0491167Y0199588D01*
X0490400Y0200356D01*
X0490400Y0201890D01*
X0491167Y0202657D01*
X0490400Y0204192D02*
X0493469Y0207261D01*
X0490400Y0207261D02*
X0490400Y0204192D01*
X0490400Y0208796D02*
X0490400Y0211865D01*
X0490400Y0210331D02*
X0495004Y0210331D01*
X0477004Y0209039D02*
X0472400Y0209039D01*
X0472400Y0210573D02*
X0472400Y0207504D01*
X0473167Y0205969D02*
X0472400Y0205202D01*
X0472400Y0203667D01*
X0473167Y0202900D01*
X0476237Y0202900D01*
X0477004Y0203667D01*
X0477004Y0205202D01*
X0476237Y0205969D01*
X0475469Y0207504D02*
X0477004Y0209039D01*
X0476237Y0212108D02*
X0477004Y0212875D01*
X0477004Y0214410D01*
X0476237Y0215177D01*
X0475469Y0215177D01*
X0474702Y0214410D01*
X0473935Y0215177D01*
X0473167Y0215177D01*
X0472400Y0214410D01*
X0472400Y0212875D01*
X0473167Y0212108D01*
X0474702Y0213642D02*
X0474702Y0214410D01*
X0412004Y0211365D02*
X0412004Y0208296D01*
X0409702Y0208296D01*
X0410469Y0209831D01*
X0410469Y0210598D01*
X0409702Y0211365D01*
X0408167Y0211365D01*
X0407400Y0210598D01*
X0407400Y0209063D01*
X0408167Y0208296D01*
X0407400Y0206761D02*
X0407400Y0203692D01*
X0407400Y0205227D02*
X0412004Y0205227D01*
X0410469Y0203692D01*
X0411237Y0202157D02*
X0412004Y0201390D01*
X0412004Y0199856D01*
X0411237Y0199088D01*
X0408167Y0199088D01*
X0407400Y0199856D01*
X0407400Y0201390D01*
X0408167Y0202157D01*
X0387004Y0203667D02*
X0386237Y0202900D01*
X0383167Y0202900D01*
X0382400Y0203667D01*
X0382400Y0205202D01*
X0383167Y0205969D01*
X0382400Y0207504D02*
X0382400Y0210573D01*
X0382400Y0209039D02*
X0387004Y0209039D01*
X0385469Y0207504D01*
X0386237Y0205969D02*
X0387004Y0205202D01*
X0387004Y0203667D01*
X0384702Y0212108D02*
X0384702Y0215177D01*
X0387004Y0214410D02*
X0384702Y0212108D01*
X0382400Y0214410D02*
X0387004Y0214410D01*
X0322004Y0211365D02*
X0321237Y0209831D01*
X0319702Y0208296D01*
X0319702Y0210598D01*
X0318935Y0211365D01*
X0318167Y0211365D01*
X0317400Y0210598D01*
X0317400Y0209063D01*
X0318167Y0208296D01*
X0319702Y0208296D01*
X0317400Y0206761D02*
X0317400Y0203692D01*
X0317400Y0205227D02*
X0322004Y0205227D01*
X0320469Y0203692D01*
X0321237Y0202157D02*
X0322004Y0201390D01*
X0322004Y0199856D01*
X0321237Y0199088D01*
X0318167Y0199088D01*
X0317400Y0199856D01*
X0317400Y0201390D01*
X0318167Y0202157D01*
X0302004Y0203667D02*
X0301237Y0202900D01*
X0298167Y0202900D01*
X0297400Y0203667D01*
X0297400Y0205202D01*
X0298167Y0205969D01*
X0297400Y0207504D02*
X0297400Y0210573D01*
X0297400Y0209039D02*
X0302004Y0209039D01*
X0300469Y0207504D01*
X0301237Y0205969D02*
X0302004Y0205202D01*
X0302004Y0203667D01*
X0302004Y0212108D02*
X0302004Y0215177D01*
X0301237Y0215177D01*
X0298167Y0212108D01*
X0297400Y0212108D01*
X0232004Y0210598D02*
X0232004Y0209063D01*
X0231237Y0208296D01*
X0230469Y0208296D01*
X0229702Y0209063D01*
X0229702Y0211365D01*
X0231237Y0211365D02*
X0232004Y0210598D01*
X0231237Y0211365D02*
X0228167Y0211365D01*
X0227400Y0210598D01*
X0227400Y0209063D01*
X0228167Y0208296D01*
X0227400Y0206761D02*
X0227400Y0203692D01*
X0227400Y0205227D02*
X0232004Y0205227D01*
X0230469Y0203692D01*
X0231237Y0202157D02*
X0232004Y0201390D01*
X0232004Y0199856D01*
X0231237Y0199088D01*
X0228167Y0199088D01*
X0227400Y0199856D01*
X0227400Y0201390D01*
X0228167Y0202157D01*
X0212004Y0203667D02*
X0211237Y0202900D01*
X0208167Y0202900D01*
X0207400Y0203667D01*
X0207400Y0205202D01*
X0208167Y0205969D01*
X0207400Y0207504D02*
X0207400Y0210573D01*
X0207400Y0209039D02*
X0212004Y0209039D01*
X0210469Y0207504D01*
X0211237Y0205969D02*
X0212004Y0205202D01*
X0212004Y0203667D01*
X0211237Y0212108D02*
X0210469Y0212108D01*
X0209702Y0212875D01*
X0209702Y0214410D01*
X0208935Y0215177D01*
X0208167Y0215177D01*
X0207400Y0214410D01*
X0207400Y0212875D01*
X0208167Y0212108D01*
X0208935Y0212108D01*
X0209702Y0212875D01*
X0209702Y0214410D02*
X0210469Y0215177D01*
X0211237Y0215177D01*
X0212004Y0214410D01*
X0212004Y0212875D01*
X0211237Y0212108D01*
D12*
X0207065Y0189900D02*
X0234335Y0189900D01*
X0234335Y0120400D01*
X0207065Y0120400D01*
X0207065Y0189900D01*
X0228766Y0186200D02*
X0228768Y0186292D01*
X0228774Y0186383D01*
X0228784Y0186474D01*
X0228798Y0186565D01*
X0228816Y0186655D01*
X0228838Y0186744D01*
X0228863Y0186831D01*
X0228893Y0186918D01*
X0228926Y0187004D01*
X0228963Y0187087D01*
X0229003Y0187170D01*
X0229047Y0187250D01*
X0229095Y0187328D01*
X0229146Y0187405D01*
X0229200Y0187478D01*
X0229257Y0187550D01*
X0229318Y0187619D01*
X0229381Y0187685D01*
X0229447Y0187748D01*
X0229516Y0187809D01*
X0229588Y0187866D01*
X0229661Y0187920D01*
X0229738Y0187971D01*
X0229816Y0188019D01*
X0229896Y0188063D01*
X0229979Y0188103D01*
X0230062Y0188140D01*
X0230148Y0188173D01*
X0230235Y0188203D01*
X0230322Y0188228D01*
X0230411Y0188250D01*
X0230501Y0188268D01*
X0230592Y0188282D01*
X0230683Y0188292D01*
X0230774Y0188298D01*
X0230866Y0188300D01*
X0230958Y0188298D01*
X0231049Y0188292D01*
X0231140Y0188282D01*
X0231231Y0188268D01*
X0231321Y0188250D01*
X0231410Y0188228D01*
X0231497Y0188203D01*
X0231584Y0188173D01*
X0231670Y0188140D01*
X0231753Y0188103D01*
X0231836Y0188063D01*
X0231916Y0188019D01*
X0231994Y0187971D01*
X0232071Y0187920D01*
X0232144Y0187866D01*
X0232216Y0187809D01*
X0232285Y0187748D01*
X0232351Y0187685D01*
X0232414Y0187619D01*
X0232475Y0187550D01*
X0232532Y0187478D01*
X0232586Y0187405D01*
X0232637Y0187328D01*
X0232685Y0187250D01*
X0232729Y0187170D01*
X0232769Y0187087D01*
X0232806Y0187004D01*
X0232839Y0186918D01*
X0232869Y0186831D01*
X0232894Y0186744D01*
X0232916Y0186655D01*
X0232934Y0186565D01*
X0232948Y0186474D01*
X0232958Y0186383D01*
X0232964Y0186292D01*
X0232966Y0186200D01*
X0232964Y0186108D01*
X0232958Y0186017D01*
X0232948Y0185926D01*
X0232934Y0185835D01*
X0232916Y0185745D01*
X0232894Y0185656D01*
X0232869Y0185569D01*
X0232839Y0185482D01*
X0232806Y0185396D01*
X0232769Y0185313D01*
X0232729Y0185230D01*
X0232685Y0185150D01*
X0232637Y0185072D01*
X0232586Y0184995D01*
X0232532Y0184922D01*
X0232475Y0184850D01*
X0232414Y0184781D01*
X0232351Y0184715D01*
X0232285Y0184652D01*
X0232216Y0184591D01*
X0232144Y0184534D01*
X0232071Y0184480D01*
X0231994Y0184429D01*
X0231916Y0184381D01*
X0231836Y0184337D01*
X0231753Y0184297D01*
X0231670Y0184260D01*
X0231584Y0184227D01*
X0231497Y0184197D01*
X0231410Y0184172D01*
X0231321Y0184150D01*
X0231231Y0184132D01*
X0231140Y0184118D01*
X0231049Y0184108D01*
X0230958Y0184102D01*
X0230866Y0184100D01*
X0230774Y0184102D01*
X0230683Y0184108D01*
X0230592Y0184118D01*
X0230501Y0184132D01*
X0230411Y0184150D01*
X0230322Y0184172D01*
X0230235Y0184197D01*
X0230148Y0184227D01*
X0230062Y0184260D01*
X0229979Y0184297D01*
X0229896Y0184337D01*
X0229816Y0184381D01*
X0229738Y0184429D01*
X0229661Y0184480D01*
X0229588Y0184534D01*
X0229516Y0184591D01*
X0229447Y0184652D01*
X0229381Y0184715D01*
X0229318Y0184781D01*
X0229257Y0184850D01*
X0229200Y0184922D01*
X0229146Y0184995D01*
X0229095Y0185072D01*
X0229047Y0185150D01*
X0229003Y0185230D01*
X0228963Y0185313D01*
X0228926Y0185396D01*
X0228893Y0185482D01*
X0228863Y0185569D01*
X0228838Y0185656D01*
X0228816Y0185745D01*
X0228798Y0185835D01*
X0228784Y0185926D01*
X0228774Y0186017D01*
X0228768Y0186108D01*
X0228766Y0186200D01*
X0293565Y0189900D02*
X0320835Y0189900D01*
X0320835Y0120400D01*
X0293565Y0120400D01*
X0293565Y0189900D01*
X0315266Y0186200D02*
X0315268Y0186292D01*
X0315274Y0186383D01*
X0315284Y0186474D01*
X0315298Y0186565D01*
X0315316Y0186655D01*
X0315338Y0186744D01*
X0315363Y0186831D01*
X0315393Y0186918D01*
X0315426Y0187004D01*
X0315463Y0187087D01*
X0315503Y0187170D01*
X0315547Y0187250D01*
X0315595Y0187328D01*
X0315646Y0187405D01*
X0315700Y0187478D01*
X0315757Y0187550D01*
X0315818Y0187619D01*
X0315881Y0187685D01*
X0315947Y0187748D01*
X0316016Y0187809D01*
X0316088Y0187866D01*
X0316161Y0187920D01*
X0316238Y0187971D01*
X0316316Y0188019D01*
X0316396Y0188063D01*
X0316479Y0188103D01*
X0316562Y0188140D01*
X0316648Y0188173D01*
X0316735Y0188203D01*
X0316822Y0188228D01*
X0316911Y0188250D01*
X0317001Y0188268D01*
X0317092Y0188282D01*
X0317183Y0188292D01*
X0317274Y0188298D01*
X0317366Y0188300D01*
X0317458Y0188298D01*
X0317549Y0188292D01*
X0317640Y0188282D01*
X0317731Y0188268D01*
X0317821Y0188250D01*
X0317910Y0188228D01*
X0317997Y0188203D01*
X0318084Y0188173D01*
X0318170Y0188140D01*
X0318253Y0188103D01*
X0318336Y0188063D01*
X0318416Y0188019D01*
X0318494Y0187971D01*
X0318571Y0187920D01*
X0318644Y0187866D01*
X0318716Y0187809D01*
X0318785Y0187748D01*
X0318851Y0187685D01*
X0318914Y0187619D01*
X0318975Y0187550D01*
X0319032Y0187478D01*
X0319086Y0187405D01*
X0319137Y0187328D01*
X0319185Y0187250D01*
X0319229Y0187170D01*
X0319269Y0187087D01*
X0319306Y0187004D01*
X0319339Y0186918D01*
X0319369Y0186831D01*
X0319394Y0186744D01*
X0319416Y0186655D01*
X0319434Y0186565D01*
X0319448Y0186474D01*
X0319458Y0186383D01*
X0319464Y0186292D01*
X0319466Y0186200D01*
X0319464Y0186108D01*
X0319458Y0186017D01*
X0319448Y0185926D01*
X0319434Y0185835D01*
X0319416Y0185745D01*
X0319394Y0185656D01*
X0319369Y0185569D01*
X0319339Y0185482D01*
X0319306Y0185396D01*
X0319269Y0185313D01*
X0319229Y0185230D01*
X0319185Y0185150D01*
X0319137Y0185072D01*
X0319086Y0184995D01*
X0319032Y0184922D01*
X0318975Y0184850D01*
X0318914Y0184781D01*
X0318851Y0184715D01*
X0318785Y0184652D01*
X0318716Y0184591D01*
X0318644Y0184534D01*
X0318571Y0184480D01*
X0318494Y0184429D01*
X0318416Y0184381D01*
X0318336Y0184337D01*
X0318253Y0184297D01*
X0318170Y0184260D01*
X0318084Y0184227D01*
X0317997Y0184197D01*
X0317910Y0184172D01*
X0317821Y0184150D01*
X0317731Y0184132D01*
X0317640Y0184118D01*
X0317549Y0184108D01*
X0317458Y0184102D01*
X0317366Y0184100D01*
X0317274Y0184102D01*
X0317183Y0184108D01*
X0317092Y0184118D01*
X0317001Y0184132D01*
X0316911Y0184150D01*
X0316822Y0184172D01*
X0316735Y0184197D01*
X0316648Y0184227D01*
X0316562Y0184260D01*
X0316479Y0184297D01*
X0316396Y0184337D01*
X0316316Y0184381D01*
X0316238Y0184429D01*
X0316161Y0184480D01*
X0316088Y0184534D01*
X0316016Y0184591D01*
X0315947Y0184652D01*
X0315881Y0184715D01*
X0315818Y0184781D01*
X0315757Y0184850D01*
X0315700Y0184922D01*
X0315646Y0184995D01*
X0315595Y0185072D01*
X0315547Y0185150D01*
X0315503Y0185230D01*
X0315463Y0185313D01*
X0315426Y0185396D01*
X0315393Y0185482D01*
X0315363Y0185569D01*
X0315338Y0185656D01*
X0315316Y0185745D01*
X0315298Y0185835D01*
X0315284Y0185926D01*
X0315274Y0186017D01*
X0315268Y0186108D01*
X0315266Y0186200D01*
X0383565Y0189900D02*
X0410835Y0189900D01*
X0410835Y0120400D01*
X0383565Y0120400D01*
X0383565Y0189900D01*
X0405266Y0186200D02*
X0405268Y0186292D01*
X0405274Y0186383D01*
X0405284Y0186474D01*
X0405298Y0186565D01*
X0405316Y0186655D01*
X0405338Y0186744D01*
X0405363Y0186831D01*
X0405393Y0186918D01*
X0405426Y0187004D01*
X0405463Y0187087D01*
X0405503Y0187170D01*
X0405547Y0187250D01*
X0405595Y0187328D01*
X0405646Y0187405D01*
X0405700Y0187478D01*
X0405757Y0187550D01*
X0405818Y0187619D01*
X0405881Y0187685D01*
X0405947Y0187748D01*
X0406016Y0187809D01*
X0406088Y0187866D01*
X0406161Y0187920D01*
X0406238Y0187971D01*
X0406316Y0188019D01*
X0406396Y0188063D01*
X0406479Y0188103D01*
X0406562Y0188140D01*
X0406648Y0188173D01*
X0406735Y0188203D01*
X0406822Y0188228D01*
X0406911Y0188250D01*
X0407001Y0188268D01*
X0407092Y0188282D01*
X0407183Y0188292D01*
X0407274Y0188298D01*
X0407366Y0188300D01*
X0407458Y0188298D01*
X0407549Y0188292D01*
X0407640Y0188282D01*
X0407731Y0188268D01*
X0407821Y0188250D01*
X0407910Y0188228D01*
X0407997Y0188203D01*
X0408084Y0188173D01*
X0408170Y0188140D01*
X0408253Y0188103D01*
X0408336Y0188063D01*
X0408416Y0188019D01*
X0408494Y0187971D01*
X0408571Y0187920D01*
X0408644Y0187866D01*
X0408716Y0187809D01*
X0408785Y0187748D01*
X0408851Y0187685D01*
X0408914Y0187619D01*
X0408975Y0187550D01*
X0409032Y0187478D01*
X0409086Y0187405D01*
X0409137Y0187328D01*
X0409185Y0187250D01*
X0409229Y0187170D01*
X0409269Y0187087D01*
X0409306Y0187004D01*
X0409339Y0186918D01*
X0409369Y0186831D01*
X0409394Y0186744D01*
X0409416Y0186655D01*
X0409434Y0186565D01*
X0409448Y0186474D01*
X0409458Y0186383D01*
X0409464Y0186292D01*
X0409466Y0186200D01*
X0409464Y0186108D01*
X0409458Y0186017D01*
X0409448Y0185926D01*
X0409434Y0185835D01*
X0409416Y0185745D01*
X0409394Y0185656D01*
X0409369Y0185569D01*
X0409339Y0185482D01*
X0409306Y0185396D01*
X0409269Y0185313D01*
X0409229Y0185230D01*
X0409185Y0185150D01*
X0409137Y0185072D01*
X0409086Y0184995D01*
X0409032Y0184922D01*
X0408975Y0184850D01*
X0408914Y0184781D01*
X0408851Y0184715D01*
X0408785Y0184652D01*
X0408716Y0184591D01*
X0408644Y0184534D01*
X0408571Y0184480D01*
X0408494Y0184429D01*
X0408416Y0184381D01*
X0408336Y0184337D01*
X0408253Y0184297D01*
X0408170Y0184260D01*
X0408084Y0184227D01*
X0407997Y0184197D01*
X0407910Y0184172D01*
X0407821Y0184150D01*
X0407731Y0184132D01*
X0407640Y0184118D01*
X0407549Y0184108D01*
X0407458Y0184102D01*
X0407366Y0184100D01*
X0407274Y0184102D01*
X0407183Y0184108D01*
X0407092Y0184118D01*
X0407001Y0184132D01*
X0406911Y0184150D01*
X0406822Y0184172D01*
X0406735Y0184197D01*
X0406648Y0184227D01*
X0406562Y0184260D01*
X0406479Y0184297D01*
X0406396Y0184337D01*
X0406316Y0184381D01*
X0406238Y0184429D01*
X0406161Y0184480D01*
X0406088Y0184534D01*
X0406016Y0184591D01*
X0405947Y0184652D01*
X0405881Y0184715D01*
X0405818Y0184781D01*
X0405757Y0184850D01*
X0405700Y0184922D01*
X0405646Y0184995D01*
X0405595Y0185072D01*
X0405547Y0185150D01*
X0405503Y0185230D01*
X0405463Y0185313D01*
X0405426Y0185396D01*
X0405393Y0185482D01*
X0405363Y0185569D01*
X0405338Y0185656D01*
X0405316Y0185745D01*
X0405298Y0185835D01*
X0405284Y0185926D01*
X0405274Y0186017D01*
X0405268Y0186108D01*
X0405266Y0186200D01*
X0468565Y0189900D02*
X0495835Y0189900D01*
X0495835Y0120400D01*
X0468565Y0120400D01*
X0468565Y0189900D01*
X0490266Y0186200D02*
X0490268Y0186292D01*
X0490274Y0186383D01*
X0490284Y0186474D01*
X0490298Y0186565D01*
X0490316Y0186655D01*
X0490338Y0186744D01*
X0490363Y0186831D01*
X0490393Y0186918D01*
X0490426Y0187004D01*
X0490463Y0187087D01*
X0490503Y0187170D01*
X0490547Y0187250D01*
X0490595Y0187328D01*
X0490646Y0187405D01*
X0490700Y0187478D01*
X0490757Y0187550D01*
X0490818Y0187619D01*
X0490881Y0187685D01*
X0490947Y0187748D01*
X0491016Y0187809D01*
X0491088Y0187866D01*
X0491161Y0187920D01*
X0491238Y0187971D01*
X0491316Y0188019D01*
X0491396Y0188063D01*
X0491479Y0188103D01*
X0491562Y0188140D01*
X0491648Y0188173D01*
X0491735Y0188203D01*
X0491822Y0188228D01*
X0491911Y0188250D01*
X0492001Y0188268D01*
X0492092Y0188282D01*
X0492183Y0188292D01*
X0492274Y0188298D01*
X0492366Y0188300D01*
X0492458Y0188298D01*
X0492549Y0188292D01*
X0492640Y0188282D01*
X0492731Y0188268D01*
X0492821Y0188250D01*
X0492910Y0188228D01*
X0492997Y0188203D01*
X0493084Y0188173D01*
X0493170Y0188140D01*
X0493253Y0188103D01*
X0493336Y0188063D01*
X0493416Y0188019D01*
X0493494Y0187971D01*
X0493571Y0187920D01*
X0493644Y0187866D01*
X0493716Y0187809D01*
X0493785Y0187748D01*
X0493851Y0187685D01*
X0493914Y0187619D01*
X0493975Y0187550D01*
X0494032Y0187478D01*
X0494086Y0187405D01*
X0494137Y0187328D01*
X0494185Y0187250D01*
X0494229Y0187170D01*
X0494269Y0187087D01*
X0494306Y0187004D01*
X0494339Y0186918D01*
X0494369Y0186831D01*
X0494394Y0186744D01*
X0494416Y0186655D01*
X0494434Y0186565D01*
X0494448Y0186474D01*
X0494458Y0186383D01*
X0494464Y0186292D01*
X0494466Y0186200D01*
X0494464Y0186108D01*
X0494458Y0186017D01*
X0494448Y0185926D01*
X0494434Y0185835D01*
X0494416Y0185745D01*
X0494394Y0185656D01*
X0494369Y0185569D01*
X0494339Y0185482D01*
X0494306Y0185396D01*
X0494269Y0185313D01*
X0494229Y0185230D01*
X0494185Y0185150D01*
X0494137Y0185072D01*
X0494086Y0184995D01*
X0494032Y0184922D01*
X0493975Y0184850D01*
X0493914Y0184781D01*
X0493851Y0184715D01*
X0493785Y0184652D01*
X0493716Y0184591D01*
X0493644Y0184534D01*
X0493571Y0184480D01*
X0493494Y0184429D01*
X0493416Y0184381D01*
X0493336Y0184337D01*
X0493253Y0184297D01*
X0493170Y0184260D01*
X0493084Y0184227D01*
X0492997Y0184197D01*
X0492910Y0184172D01*
X0492821Y0184150D01*
X0492731Y0184132D01*
X0492640Y0184118D01*
X0492549Y0184108D01*
X0492458Y0184102D01*
X0492366Y0184100D01*
X0492274Y0184102D01*
X0492183Y0184108D01*
X0492092Y0184118D01*
X0492001Y0184132D01*
X0491911Y0184150D01*
X0491822Y0184172D01*
X0491735Y0184197D01*
X0491648Y0184227D01*
X0491562Y0184260D01*
X0491479Y0184297D01*
X0491396Y0184337D01*
X0491316Y0184381D01*
X0491238Y0184429D01*
X0491161Y0184480D01*
X0491088Y0184534D01*
X0491016Y0184591D01*
X0490947Y0184652D01*
X0490881Y0184715D01*
X0490818Y0184781D01*
X0490757Y0184850D01*
X0490700Y0184922D01*
X0490646Y0184995D01*
X0490595Y0185072D01*
X0490547Y0185150D01*
X0490503Y0185230D01*
X0490463Y0185313D01*
X0490426Y0185396D01*
X0490393Y0185482D01*
X0490363Y0185569D01*
X0490338Y0185656D01*
X0490316Y0185745D01*
X0490298Y0185835D01*
X0490284Y0185926D01*
X0490274Y0186017D01*
X0490268Y0186108D01*
X0490266Y0186200D01*
X0558565Y0189900D02*
X0585835Y0189900D01*
X0585835Y0120400D01*
X0558565Y0120400D01*
X0558565Y0189900D01*
X0580266Y0186200D02*
X0580268Y0186292D01*
X0580274Y0186383D01*
X0580284Y0186474D01*
X0580298Y0186565D01*
X0580316Y0186655D01*
X0580338Y0186744D01*
X0580363Y0186831D01*
X0580393Y0186918D01*
X0580426Y0187004D01*
X0580463Y0187087D01*
X0580503Y0187170D01*
X0580547Y0187250D01*
X0580595Y0187328D01*
X0580646Y0187405D01*
X0580700Y0187478D01*
X0580757Y0187550D01*
X0580818Y0187619D01*
X0580881Y0187685D01*
X0580947Y0187748D01*
X0581016Y0187809D01*
X0581088Y0187866D01*
X0581161Y0187920D01*
X0581238Y0187971D01*
X0581316Y0188019D01*
X0581396Y0188063D01*
X0581479Y0188103D01*
X0581562Y0188140D01*
X0581648Y0188173D01*
X0581735Y0188203D01*
X0581822Y0188228D01*
X0581911Y0188250D01*
X0582001Y0188268D01*
X0582092Y0188282D01*
X0582183Y0188292D01*
X0582274Y0188298D01*
X0582366Y0188300D01*
X0582458Y0188298D01*
X0582549Y0188292D01*
X0582640Y0188282D01*
X0582731Y0188268D01*
X0582821Y0188250D01*
X0582910Y0188228D01*
X0582997Y0188203D01*
X0583084Y0188173D01*
X0583170Y0188140D01*
X0583253Y0188103D01*
X0583336Y0188063D01*
X0583416Y0188019D01*
X0583494Y0187971D01*
X0583571Y0187920D01*
X0583644Y0187866D01*
X0583716Y0187809D01*
X0583785Y0187748D01*
X0583851Y0187685D01*
X0583914Y0187619D01*
X0583975Y0187550D01*
X0584032Y0187478D01*
X0584086Y0187405D01*
X0584137Y0187328D01*
X0584185Y0187250D01*
X0584229Y0187170D01*
X0584269Y0187087D01*
X0584306Y0187004D01*
X0584339Y0186918D01*
X0584369Y0186831D01*
X0584394Y0186744D01*
X0584416Y0186655D01*
X0584434Y0186565D01*
X0584448Y0186474D01*
X0584458Y0186383D01*
X0584464Y0186292D01*
X0584466Y0186200D01*
X0584464Y0186108D01*
X0584458Y0186017D01*
X0584448Y0185926D01*
X0584434Y0185835D01*
X0584416Y0185745D01*
X0584394Y0185656D01*
X0584369Y0185569D01*
X0584339Y0185482D01*
X0584306Y0185396D01*
X0584269Y0185313D01*
X0584229Y0185230D01*
X0584185Y0185150D01*
X0584137Y0185072D01*
X0584086Y0184995D01*
X0584032Y0184922D01*
X0583975Y0184850D01*
X0583914Y0184781D01*
X0583851Y0184715D01*
X0583785Y0184652D01*
X0583716Y0184591D01*
X0583644Y0184534D01*
X0583571Y0184480D01*
X0583494Y0184429D01*
X0583416Y0184381D01*
X0583336Y0184337D01*
X0583253Y0184297D01*
X0583170Y0184260D01*
X0583084Y0184227D01*
X0582997Y0184197D01*
X0582910Y0184172D01*
X0582821Y0184150D01*
X0582731Y0184132D01*
X0582640Y0184118D01*
X0582549Y0184108D01*
X0582458Y0184102D01*
X0582366Y0184100D01*
X0582274Y0184102D01*
X0582183Y0184108D01*
X0582092Y0184118D01*
X0582001Y0184132D01*
X0581911Y0184150D01*
X0581822Y0184172D01*
X0581735Y0184197D01*
X0581648Y0184227D01*
X0581562Y0184260D01*
X0581479Y0184297D01*
X0581396Y0184337D01*
X0581316Y0184381D01*
X0581238Y0184429D01*
X0581161Y0184480D01*
X0581088Y0184534D01*
X0581016Y0184591D01*
X0580947Y0184652D01*
X0580881Y0184715D01*
X0580818Y0184781D01*
X0580757Y0184850D01*
X0580700Y0184922D01*
X0580646Y0184995D01*
X0580595Y0185072D01*
X0580547Y0185150D01*
X0580503Y0185230D01*
X0580463Y0185313D01*
X0580426Y0185396D01*
X0580393Y0185482D01*
X0580363Y0185569D01*
X0580338Y0185656D01*
X0580316Y0185745D01*
X0580298Y0185835D01*
X0580284Y0185926D01*
X0580274Y0186017D01*
X0580268Y0186108D01*
X0580266Y0186200D01*
D13*
X0580845Y0192199D02*
X0580845Y0198204D01*
X0581595Y0197454D02*
X0580094Y0197454D01*
X0579344Y0196703D01*
X0580094Y0195202D02*
X0581595Y0195202D01*
X0582346Y0195953D01*
X0582346Y0196703D01*
X0581595Y0197454D01*
X0583947Y0197454D02*
X0583947Y0193701D01*
X0584698Y0192950D01*
X0586199Y0192950D01*
X0586950Y0193701D01*
X0586950Y0197454D01*
X0582346Y0193701D02*
X0581595Y0192950D01*
X0580094Y0192950D01*
X0579344Y0193701D01*
X0579344Y0194451D01*
X0580094Y0195202D01*
X0577742Y0195953D02*
X0576241Y0197454D01*
X0576241Y0192950D01*
X0577742Y0192950D02*
X0574740Y0192950D01*
X0573138Y0193701D02*
X0572388Y0192950D01*
X0570886Y0192950D01*
X0570136Y0193701D01*
X0570136Y0194451D01*
X0570886Y0195202D01*
X0571637Y0195202D01*
X0570886Y0195202D02*
X0570136Y0195953D01*
X0570136Y0196703D01*
X0570886Y0197454D01*
X0572388Y0197454D01*
X0573138Y0196703D01*
X0496950Y0197454D02*
X0496950Y0193701D01*
X0496199Y0192950D01*
X0494698Y0192950D01*
X0493947Y0193701D01*
X0493947Y0197454D01*
X0492346Y0196703D02*
X0491595Y0197454D01*
X0490094Y0197454D01*
X0489344Y0196703D01*
X0490094Y0195202D02*
X0491595Y0195202D01*
X0492346Y0195953D01*
X0492346Y0196703D01*
X0490845Y0198204D02*
X0490845Y0192199D01*
X0491595Y0192950D02*
X0490094Y0192950D01*
X0489344Y0193701D01*
X0489344Y0194451D01*
X0490094Y0195202D01*
X0487742Y0195953D02*
X0486241Y0197454D01*
X0486241Y0192950D01*
X0487742Y0192950D02*
X0484740Y0192950D01*
X0483138Y0193701D02*
X0480136Y0196703D01*
X0480136Y0193701D01*
X0480886Y0192950D01*
X0482388Y0192950D01*
X0483138Y0193701D01*
X0483138Y0196703D01*
X0482388Y0197454D01*
X0480886Y0197454D01*
X0480136Y0196703D01*
X0491595Y0192950D02*
X0492346Y0193701D01*
X0411950Y0193701D02*
X0411199Y0192950D01*
X0409698Y0192950D01*
X0408947Y0193701D01*
X0408947Y0197454D01*
X0407346Y0196703D02*
X0406595Y0197454D01*
X0405094Y0197454D01*
X0404344Y0196703D01*
X0405094Y0195202D02*
X0406595Y0195202D01*
X0407346Y0195953D01*
X0407346Y0196703D01*
X0405845Y0198204D02*
X0405845Y0192199D01*
X0406595Y0192950D02*
X0405094Y0192950D01*
X0404344Y0193701D01*
X0404344Y0194451D01*
X0405094Y0195202D01*
X0407346Y0193701D02*
X0406595Y0192950D01*
X0402742Y0192950D02*
X0402742Y0193701D01*
X0399740Y0196703D01*
X0399740Y0197454D01*
X0402742Y0197454D01*
X0411950Y0197454D02*
X0411950Y0193701D01*
X0321950Y0193701D02*
X0321199Y0192950D01*
X0319698Y0192950D01*
X0318947Y0193701D01*
X0318947Y0197454D01*
X0317346Y0196703D02*
X0316595Y0197454D01*
X0315094Y0197454D01*
X0314344Y0196703D01*
X0315094Y0195202D02*
X0314344Y0194451D01*
X0314344Y0193701D01*
X0315094Y0192950D01*
X0316595Y0192950D01*
X0317346Y0193701D01*
X0316595Y0195202D02*
X0317346Y0195953D01*
X0317346Y0196703D01*
X0316595Y0195202D02*
X0315094Y0195202D01*
X0312742Y0195202D02*
X0310490Y0197454D01*
X0310490Y0192950D01*
X0309740Y0195202D02*
X0312742Y0195202D01*
X0315845Y0198204D02*
X0315845Y0192199D01*
X0321950Y0193701D02*
X0321950Y0197454D01*
X0235450Y0197454D02*
X0235450Y0193701D01*
X0234699Y0192950D01*
X0233198Y0192950D01*
X0232447Y0193701D01*
X0232447Y0197454D01*
X0230846Y0196703D02*
X0230095Y0197454D01*
X0228594Y0197454D01*
X0227844Y0196703D01*
X0228594Y0195202D02*
X0230095Y0195202D01*
X0230846Y0195953D01*
X0230846Y0196703D01*
X0229345Y0198204D02*
X0229345Y0192199D01*
X0230095Y0192950D02*
X0228594Y0192950D01*
X0227844Y0193701D01*
X0227844Y0194451D01*
X0228594Y0195202D01*
X0226242Y0195953D02*
X0224741Y0197454D01*
X0224741Y0192950D01*
X0226242Y0192950D02*
X0223240Y0192950D01*
X0230095Y0192950D02*
X0230846Y0193701D01*
M02*
