%
M48
M72
T01C0.0197
T02C0.0236
T03C0.0240
T04C0.0276
T05C0.0315
T06C0.0320
T07C0.0354
T08C0.0400
T09C0.0470
T10C0.0550
T11C0.0866
T12C0.1260
%
T01
X21170Y18270
X28570Y20220
X31270Y18570
X29820Y18270
X28570Y22170
X39120Y18020
X40370Y18570
X47170Y18270
X49170Y18270
X54420Y18270
X54870Y20370
X54870Y22170
X58020Y18270
X55170Y11720
X39520Y13420
T02
X39120Y12270
X46320Y11720
X29020Y11720
X20270Y11720
T03
X21370Y12780
X25600Y12690
X28120Y13050
X30910Y13860
X31630Y14580
X31810Y12690
X36040Y12060
X37120Y12690
X37120Y13230
X40270Y12870
X42610Y12690
X43330Y13050
X44320Y13860
X43600Y14580
X43240Y15390
X38560Y15390
X37120Y16290
X47110Y12690
X49360Y13050
X50800Y12330
X52510Y13590
X51250Y14850
X54670Y12690
X58360Y12690
X59080Y10080
X58990Y5580
X50080Y8550
X45310Y7560
X43330Y7830
X42970Y7290
X40990Y7290
X42160Y9270
X36400Y7110
X34780Y7830
X33340Y8730
X32710Y7200
X34060Y6660
X29650Y6210
X29110Y7920
X26320Y8640
X24520Y9000
X23530Y7200
X48820Y5580
X61060Y16110
T04
X47670Y20220
X47670Y22020
X41720Y21920
X36870Y21870
X36870Y20320
X33920Y20820
X30370Y21870
X41720Y26020
X53820Y30970
X61520Y32120
X63920Y34520
X55670Y25320
T05
X55220Y6610
X54359Y6296
X53901Y5503
X54060Y4600
X54762Y4011
X55678Y4011
X56380Y4600
X56539Y5503
X56081Y6296
X58401Y5503
X58859Y6296
X59720Y6610
X60581Y6296
X61039Y5503
X60880Y4600
X60178Y4011
X59262Y4011
X58560Y4600
X52039Y5503
X51581Y6296
X50720Y6610
X49859Y6296
X49401Y5503
X49560Y4600
X50262Y4011
X51178Y4011
X51880Y4600
X47539Y5503
X47081Y6296
X46220Y6610
X45359Y6296
X44901Y5503
X45060Y4600
X45762Y4011
X46678Y4011
X47380Y4600
X43039Y5503
X42581Y6296
X41720Y6610
X40859Y6296
X40401Y5503
X40560Y4600
X41262Y4011
X42178Y4011
X42880Y4600
X38539Y5503
X38081Y6296
X37220Y6610
X36359Y6296
X35901Y5503
X36060Y4600
X36762Y4011
X37678Y4011
X38380Y4600
X34039Y5503
X33581Y6296
X32720Y6610
X31859Y6296
X31401Y5503
X31560Y4600
X32262Y4011
X33178Y4011
X33880Y4600
X29539Y5503
X29081Y6296
X28220Y6610
X27359Y6296
X26901Y5503
X27060Y4600
X27762Y4011
X28678Y4011
X29380Y4600
X25039Y5503
X24581Y6296
X23720Y6610
X22859Y6296
X22401Y5503
X22560Y4600
X23262Y4011
X24178Y4011
X24880Y4600
X20539Y5503
X20081Y6296
X19220Y6610
X18359Y6296
X17901Y5503
X18060Y4600
X18762Y4011
X19678Y4011
X20380Y4600
T06
X13620Y15220
X13620Y19220
X11020Y19520
X9320Y19520
X3720Y18320
X3720Y22320
X5770Y22920
X7770Y22920
X9320Y23520
X11020Y23520
X8370Y25120
X6120Y25220
X3820Y24070
X6120Y27220
X3820Y28070
X7020Y30220
X8370Y29120
X10820Y27120
X10320Y26370
X11320Y26370
X14370Y27220
X14370Y28020
X11720Y29020
X7020Y32220
X11720Y33020
X13520Y34970
X9520Y34970
X9370Y37870
X10370Y37870
X8370Y37870
X38770Y30770
X38770Y26770
X65970Y36520
X66970Y36520
X67970Y36520
X70520Y32370
X73920Y31120
X70520Y28370
X68670Y29020
X70370Y26320
X68670Y25020
X70370Y24320
X73420Y24670
X73920Y25420
X74420Y24670
X73920Y27120
X79670Y26420
X79670Y30420
X73870Y21470
X71770Y21670
X69720Y21220
X69720Y19220
X71770Y17670
X73870Y17470
X76170Y17870
X77970Y16070
X78920Y12820
X78920Y8820
X80570Y19420
X81370Y19420
X77970Y20070
X76170Y19870
T07
X78620Y21170
X78620Y24170
X81470Y24470
X81470Y27470
X13870Y24770
X13870Y21770
X4920Y30120
X4920Y33120
T08
X21270Y28420
X21270Y27420
X21270Y26420
X26420Y25520
X26420Y27520
X46670Y26570
X46670Y25570
X47670Y25570
X48670Y25570
X49670Y25570
X49670Y26570
X48670Y26570
X47670Y26570
T09
X44054Y30970
X42086Y30970
X35204Y31070
X33236Y31070
X31554Y36270
X29586Y36270
X26504Y36320
X24536Y36320
X39936Y36570
X41904Y36570
X51836Y34620
X53804Y34620
X57186Y37820
X59154Y37820
T10
X76620Y37470
X76620Y31470
X15570Y31620
X15570Y37620
T11
X8714Y14280
X6000Y13419
X4463Y11253
X4458Y8448
X6028Y6211
X8658Y5249
X11270Y6084
X12935Y8264
X11406Y13342
X66463Y10753
X68000Y12919
X70714Y13780
X73406Y12842
X66458Y7948
X68028Y5711
X70658Y4749
X73270Y5584
X74935Y7764
T12
X2520Y2370
X8720Y9770
X2320Y38770
X70720Y9270
X80970Y2520
X81070Y38520
M30
